<?xml version="1.0" standalone="no"?><!DOCTYPE svg PUBLIC "-//W3C//DTD SVG 1.1//EN" "http://www.w3.org/Graphics/SVG/1.1/DTD/svg11.dtd" ><svg version="1.1" xmlns="http://www.w3.org/2000/svg"><defs><font horiz-adv-x="0" id="font"><font-face ascent="800" bbox="-130 -253 1364 1050" cap-height="780" descent="-200" font-family="Polaris Condensed Bold" font-stretch="normal" font-style="normal" font-weight="720" units-per-em="1000" x-height="530" /><missing-glyph d="M803 115V665L528 390ZM163 665V115L438 390ZM483 435 762 714H204ZM204 66H762L483 345ZM93 780H873V0H93Z" horiz-adv-x="967" /><glyph d="M192 254H317L255 666ZM357 787 493 0H356L334 142H175L154 0H17L153 787Z" glyph-name="A" horiz-adv-x="510" unicode="A" /><glyph d="M214 254H341L315 655ZM683 780V659H437L454 459H644V339H464L482 121H697V0H358L349 142H186L150 0H13L231 780Z" glyph-name="AE" horiz-adv-x="730" unicode="&#198;" /><glyph d="M379 1030 318 822H185L231 1030ZM192 254H317L255 666ZM357 787 493 0H356L334 142H175L154 0H17L153 787Z" glyph-name="Aacute" horiz-adv-x="510" unicode="&#193;" /><glyph d="M255 814Q206 814 175 829Q144 844 126 871.5Q108 899 101.5 939Q95 979 96 1030H195Q194 981 206.5 955Q219 929 255 929Q291 929 303.5 955Q316 981 315 1030H414Q415 979 408.5 939Q402 899 384 871.5Q366 844 335 829Q304 814 255 814ZM192 254H317L255 666ZM357 787 493 0H356L334 142H175L154 0H17L153 787Z" glyph-name="Abreve" horiz-adv-x="510" unicode="&#258;" /><glyph d="M88 822 181 1030H329L422 822H314L255 935L196 822ZM192 254H317L255 666ZM357 787 493 0H356L334 142H175L154 0H17L153 787Z" glyph-name="Acircumflex" horiz-adv-x="510" unicode="&#194;" /><glyph d="M435 855H291V998H435ZM219 855H75V998H219ZM192 254H317L255 666ZM357 787 493 0H356L334 142H175L154 0H17L153 787Z" glyph-name="Adieresis" horiz-adv-x="510" unicode="&#196;" /><glyph d="M279 1030 325 822H192L131 1030ZM192 254H317L255 666ZM357 787 493 0H356L334 142H175L154 0H17L153 787Z" glyph-name="Agrave" horiz-adv-x="510" unicode="&#192;" /><glyph d="M138 994H372V871H138ZM192 254H317L255 666ZM357 787 493 0H356L334 142H175L154 0H17L153 787Z" glyph-name="Amacron" horiz-adv-x="510" unicode="&#256;" /><glyph d="M192 254H317L255 666ZM357 787 493 0Q448 -7 420.5 -31.5Q393 -56 395 -86Q397 -103 408.5 -113.5Q420 -124 444 -120Q461 -118 473 -111Q485 -104 488 -102L514 -189Q498 -200 473.5 -207Q449 -214 418 -214Q372 -214 339.5 -193.5Q307 -173 299 -124Q291 -82 307.5 -48.5Q324 -15 354 9L334 142H175L154 0H17L153 787Z" glyph-name="Aogonek" horiz-adv-x="510" unicode="&#260;" /><glyph d="M300 926Q300 972 255 972Q210 972 210 926Q210 880 255 880Q300 880 300 926ZM137 926Q137 978 167.5 1011Q198 1044 255 1044Q312 1044 342.5 1011Q373 978 373 926Q373 874 342.5 841Q312 808 255 808Q198 808 167.5 841Q137 874 137 926ZM192 254H317L255 666ZM357 787 493 0H356L334 142H175L154 0H17L153 787Z" glyph-name="Aring" horiz-adv-x="510" unicode="&#197;" /><glyph d="M446 991Q444 956 436.5 926Q429 896 415.5 874Q402 852 382 840Q362 828 334 828Q305 828 284.5 839.5Q264 851 247.5 864.5Q231 878 217.5 890Q204 902 189 902Q178 902 171.5 896Q165 890 162 881.5Q159 873 158 864.5Q157 856 157 851L63 862Q65 897 72.5 927Q80 957 93.5 979Q107 1001 127 1013Q147 1025 175 1025Q203 1025 224 1013.5Q245 1002 261 988Q277 974 290.5 962.5Q304 951 319 951Q331 951 337 957Q343 963 346 971Q349 979 350 988Q351 997 352 1002ZM192 254H317L255 666ZM357 787 493 0H356L334 142H175L154 0H17L153 787Z" glyph-name="Atilde" horiz-adv-x="510" unicode="&#195;" /><glyph d="M190 659V459H287Q319 459 337.5 482Q356 505 356 562Q356 592 351.5 610.5Q347 629 338 640Q329 651 316 655Q303 659 287 659ZM294 121Q313 121 328.5 125Q344 129 355 140.5Q366 152 372 172.5Q378 193 378 225Q378 260 371.5 282Q365 304 354 317Q343 330 328.5 334.5Q314 339 298 339H190V121ZM54 0V780H317Q355 780 387 771.5Q419 763 442.5 740Q466 717 479.5 677Q493 637 493 573Q493 535 487 507.5Q481 480 471 460.5Q461 441 447.5 428.5Q434 416 419 409Q440 404 457.5 391Q475 378 488 355.5Q501 333 508 299.5Q515 266 515 221Q515 158 502 115.5Q489 73 464.5 47.5Q440 22 404 11Q368 0 323 0Z" glyph-name="B" horiz-adv-x="548" unicode="B" /><glyph d="M178 390Q178 318 182.5 265Q187 212 198 176.5Q209 141 229 124Q249 107 280 107Q307 107 325 113.5Q343 120 354 136Q365 152 369.5 178.5Q374 205 374 245L508 228Q507 166 497 120.5Q487 75 461.5 46Q436 17 392.5 3Q349 -11 283 -11Q221 -11 175.5 8.5Q130 28 100.5 74.5Q71 121 56.5 198Q42 275 42 390Q42 505 56.5 582Q71 659 100.5 705.5Q130 752 175.5 771.5Q221 791 283 791Q349 791 392.5 777Q436 763 461.5 734Q487 705 497 660Q507 615 508 553L374 535Q374 575 369.5 601.5Q365 628 354 644Q343 660 325 666.5Q307 673 280 673Q249 673 229 656Q209 639 198 603.5Q187 568 182.5 515Q178 462 178 390Z" glyph-name="C" horiz-adv-x="541" unicode="C" /><glyph d="M404 1030 343 822H210L256 1030ZM178 390Q178 318 182.5 265Q187 212 198 176.5Q209 141 229 124Q249 107 280 107Q307 107 325 113.5Q343 120 354 136Q365 152 369.5 178.5Q374 205 374 245L508 228Q507 166 497 120.5Q487 75 461.5 46Q436 17 392.5 3Q349 -11 283 -11Q221 -11 175.5 8.5Q130 28 100.5 74.5Q71 121 56.5 198Q42 275 42 390Q42 505 56.5 582Q71 659 100.5 705.5Q130 752 175.5 771.5Q221 791 283 791Q349 791 392.5 777Q436 763 461.5 734Q487 705 497 660Q507 615 508 553L374 535Q374 575 369.5 601.5Q365 628 354 644Q343 660 325 666.5Q307 673 280 673Q249 673 229 656Q209 639 198 603.5Q187 568 182.5 515Q178 462 178 390Z" glyph-name="Cacute" horiz-adv-x="541" unicode="&#262;" /><glyph d="M449 1030 355 822H205L111 1030H219L280 918L341 1030ZM178 390Q178 318 182.5 265Q187 212 198 176.5Q209 141 229 124Q249 107 280 107Q307 107 325 113.5Q343 120 354 136Q365 152 369.5 178.5Q374 205 374 245L508 228Q507 166 497 120.5Q487 75 461.5 46Q436 17 392.5 3Q349 -11 283 -11Q221 -11 175.5 8.5Q130 28 100.5 74.5Q71 121 56.5 198Q42 275 42 390Q42 505 56.5 582Q71 659 100.5 705.5Q130 752 175.5 771.5Q221 791 283 791Q349 791 392.5 777Q436 763 461.5 734Q487 705 497 660Q507 615 508 553L374 535Q374 575 369.5 601.5Q365 628 354 644Q343 660 325 666.5Q307 673 280 673Q249 673 229 656Q209 639 198 603.5Q187 568 182.5 515Q178 462 178 390Z" glyph-name="Ccaron" horiz-adv-x="541" unicode="&#268;" /><glyph d="M178 390Q178 318 182.5 265Q187 212 198 176.5Q209 141 229 124Q249 107 280 107Q307 107 325 113.5Q343 120 354 136Q365 152 369.5 178.5Q374 205 374 245L508 228Q507 169 498 125.5Q489 82 466.5 53Q444 24 406.5 8.5Q369 -7 312 -10L305 -36Q356 -46 385 -68Q414 -90 411 -131Q407 -175 370.5 -194.5Q334 -214 285 -214Q241 -214 212 -206Q183 -198 171 -193L192 -132Q199 -135 208 -139Q216 -142 225 -144.5Q234 -147 245 -148Q270 -150 287 -144Q304 -138 304 -118Q304 -97 277.5 -87Q251 -77 216 -73L238 -8Q188 -2 151 22Q114 46 90 93.5Q66 141 54 213.5Q42 286 42 390Q42 505 56.5 582Q71 659 100.5 705.5Q130 752 175.5 771.5Q221 791 283 791Q349 791 392.5 777Q436 763 461.5 734Q487 705 497 660Q507 615 508 553L374 535Q374 575 369.5 601.5Q365 628 354 644Q343 660 325 666.5Q307 673 280 673Q249 673 229 656Q209 639 198 603.5Q187 568 182.5 515Q178 462 178 390Z" glyph-name="Ccedilla" horiz-adv-x="541" unicode="&#199;" /><glyph d="M113 822 206 1030H354L447 822H339L280 935L221 822ZM178 390Q178 318 182.5 265Q187 212 198 176.5Q209 141 229 124Q249 107 280 107Q307 107 325 113.5Q343 120 354 136Q365 152 369.5 178.5Q374 205 374 245L508 228Q507 166 497 120.5Q487 75 461.5 46Q436 17 392.5 3Q349 -11 283 -11Q221 -11 175.5 8.5Q130 28 100.5 74.5Q71 121 56.5 198Q42 275 42 390Q42 505 56.5 582Q71 659 100.5 705.5Q130 752 175.5 771.5Q221 791 283 791Q349 791 392.5 777Q436 763 461.5 734Q487 705 497 660Q507 615 508 553L374 535Q374 575 369.5 601.5Q365 628 354 644Q343 660 325 666.5Q307 673 280 673Q249 673 229 656Q209 639 198 603.5Q187 568 182.5 515Q178 462 178 390Z" glyph-name="Ccircumflex" horiz-adv-x="541" unicode="&#264;" /><glyph d="M352 855H208V998H352ZM178 390Q178 318 182.5 265Q187 212 198 176.5Q209 141 229 124Q249 107 280 107Q307 107 325 113.5Q343 120 354 136Q365 152 369.5 178.5Q374 205 374 245L508 228Q507 166 497 120.5Q487 75 461.5 46Q436 17 392.5 3Q349 -11 283 -11Q221 -11 175.5 8.5Q130 28 100.5 74.5Q71 121 56.5 198Q42 275 42 390Q42 505 56.5 582Q71 659 100.5 705.5Q130 752 175.5 771.5Q221 791 283 791Q349 791 392.5 777Q436 763 461.5 734Q487 705 497 660Q507 615 508 553L374 535Q374 575 369.5 601.5Q365 628 354 644Q343 660 325 666.5Q307 673 280 673Q249 673 229 656Q209 639 198 603.5Q187 568 182.5 515Q178 462 178 390Z" glyph-name="Cdotaccent" horiz-adv-x="541" unicode="&#266;" /><glyph d="M255 121Q301 121 328 135.5Q355 150 369 182Q383 214 387 265Q391 316 391 390Q391 463 387 514.5Q383 566 369 598Q355 630 328 644.5Q301 659 255 659H190V121ZM54 0V780H251Q330 780 383 761.5Q436 743 468 698Q500 653 513.5 578Q527 503 527 390Q527 277 513.5 202Q500 127 468 82Q436 37 383 18.5Q330 0 251 0Z" glyph-name="D" horiz-adv-x="569" unicode="D" /><glyph d="M414 1030 320 822H170L76 1030H184L245 918L306 1030ZM255 121Q301 121 328 135.5Q355 150 369 182Q383 214 387 265Q391 316 391 390Q391 463 387 514.5Q383 566 369 598Q355 630 328 644.5Q301 659 255 659H190V121ZM54 0V780H251Q330 780 383 761.5Q436 743 468 698Q500 653 513.5 578Q527 503 527 390Q527 277 513.5 202Q500 127 468 82Q436 37 383 18.5Q330 0 251 0Z" glyph-name="Dcaron" horiz-adv-x="569" unicode="&#270;" /><glyph d="M128 994H362V871H128ZM255 121Q301 121 328 135.5Q355 150 369 182Q383 214 387 265Q391 316 391 390Q391 463 387 514.5Q383 566 369 598Q355 630 328 644.5Q301 659 255 659H190V121ZM54 0V780H251Q330 780 383 761.5Q436 743 468 698Q500 653 513.5 578Q527 503 527 390Q527 277 513.5 202Q500 127 468 82Q436 37 383 18.5Q330 0 251 0Z" glyph-name="Dcroat" horiz-adv-x="569" unicode="&#272;" /><glyph d="M440 566 400 478 231 122 314 124H566L649 123L480 478ZM62 62 403 774H477L818 62V0H62Z" glyph-name="Delta" horiz-adv-x="880" unicode="&#8710;" /><glyph d="M424 780V659H189V459H385V339H189V121H438V0H54V780Z" glyph-name="E" horiz-adv-x="471" unicode="E" /><glyph d="M370 1030 309 822H176L222 1030ZM424 780V659H189V459H385V339H189V121H438V0H54V780Z" glyph-name="Eacute" horiz-adv-x="471" unicode="&#201;" /><glyph d="M241 814Q192 814 161 829Q130 844 112 871.5Q94 899 87.5 939Q81 979 82 1030H181Q180 981 192.5 955Q205 929 241 929Q277 929 289.5 955Q302 981 301 1030H400Q401 979 394.5 939Q388 899 370 871.5Q352 844 321 829Q290 814 241 814ZM424 780V659H189V459H385V339H189V121H438V0H54V780Z" glyph-name="Ebreve" horiz-adv-x="471" unicode="&#276;" /><glyph d="M415 1030 321 822H171L77 1030H185L246 918L307 1030ZM424 780V659H189V459H385V339H189V121H438V0H54V780Z" glyph-name="Ecaron" horiz-adv-x="471" unicode="&#282;" /><glyph d="M72 822 165 1030H313L406 822H298L239 935L180 822ZM424 780V659H189V459H385V339H189V121H438V0H54V780Z" glyph-name="Ecircumflex" horiz-adv-x="471" unicode="&#202;" /><glyph d="M424 855H280V998H424ZM208 855H64V998H208ZM424 780V659H189V459H385V339H189V121H438V0H54V780Z" glyph-name="Edieresis" horiz-adv-x="471" unicode="&#203;" /><glyph d="M318 855H174V998H318ZM424 780V659H189V459H385V339H189V121H438V0H54V780Z" glyph-name="Edotaccent" horiz-adv-x="471" unicode="&#278;" /><glyph d="M270 1030 316 822H183L122 1030ZM424 780V659H189V459H385V339H189V121H438V0H54V780Z" glyph-name="Egrave" horiz-adv-x="471" unicode="&#200;" /><glyph d="M124 994H358V871H124ZM424 780V659H189V459H385V339H189V121H438V0H54V780Z" glyph-name="Emacron" horiz-adv-x="471" unicode="&#274;" /><glyph d="M318 464 385 269 383 456V780H510V-69Q510 -138 474 -176Q438 -214 357 -214Q322 -214 303.5 -210.5Q285 -207 273 -202L280 -92Q298 -100 331 -100Q354 -100 366.5 -90.5Q379 -81 379 -52V-33L246 316L180 511L182 324L183 0H54V780H199Z" glyph-name="Eng" horiz-adv-x="565" unicode="&#330;" /><glyph d="M424 780V659H189V459H385V339H189V121H438V0Q393 -7 365.5 -31.5Q338 -56 340 -86Q342 -103 353.5 -113.5Q365 -124 389 -120Q406 -118 418 -111Q430 -104 433 -102L459 -189Q443 -200 418.5 -207Q394 -214 363 -214Q317 -214 284.5 -193.5Q252 -173 244 -124Q236 -86 249 -55Q262 -24 288 0H54V780Z" glyph-name="Eogonek" horiz-adv-x="471" unicode="&#280;" /><glyph d="M297 121Q343 121 370 135.5Q397 150 411 182Q425 214 429 265Q433 316 433 390Q433 463 429 514.5Q425 566 411 598Q397 630 370 644.5Q343 659 297 659H232V459H342V339H232V121ZM96 0V339H31V459H96V780H293Q372 780 425 761.5Q478 743 510 698Q542 653 556 578Q570 503 570 390Q570 277 556 202Q542 127 510 82Q478 37 425 18.5Q372 0 293 0Z" glyph-name="Eth" horiz-adv-x="611" unicode="&#208;" /><glyph d="M353 262H224Q226 219 231.5 189Q237 159 247 140.5Q257 122 272.5 114Q288 106 311 106Q333 106 347.5 111.5Q362 117 371 129Q380 141 384 160.5Q388 180 389 209L523 192Q523 140 514.5 101.5Q506 63 483 38Q460 13 420 1Q380 -11 317 -11Q258 -11 217 3Q176 17 150 49.5Q124 82 110 134Q96 186 91 262H26V349H88V415H26V502H91Q96 577 110 629.5Q124 682 150 714Q176 746 217 760.5Q258 775 317 775Q380 775 420 763Q460 751 483 726Q506 701 514.5 662.5Q523 624 523 572L389 555Q388 584 384 603.5Q380 623 371 635Q362 647 347.5 652.5Q333 658 311 658Q288 658 272.5 649.5Q257 641 247 622.5Q237 604 231.5 574.5Q226 545 224 502H421L397 415H222V349H377Z" glyph-name="Euro" horiz-adv-x="547" unicode="&#8364;" /><glyph d="M189 0H54V780H420V659H189V459H387V339H189Z" glyph-name="F" horiz-adv-x="446" unicode="F" /><glyph d="M42 390Q42 497 54 573Q66 649 94.5 697.5Q123 746 171.5 768.5Q220 791 293 791Q362 791 405.5 777Q449 763 473.5 734Q498 705 507.5 660Q517 615 518 553L384 535Q384 575 379 601.5Q374 628 363 644Q352 660 334.5 666.5Q317 673 290 673Q256 673 234 657Q212 641 199.5 606.5Q187 572 182.5 518.5Q178 465 178 390Q178 315 180.5 261.5Q183 208 194.5 173.5Q206 139 229 123Q252 107 293 107Q327 107 348.5 112.5Q370 118 387 126V316H299V428H517V47Q494 32 470.5 21.5Q447 11 420 3.5Q393 -4 361 -7.5Q329 -11 290 -11Q216 -11 168 11.5Q120 34 92 82Q64 130 53 206Q42 282 42 390Z" glyph-name="G" horiz-adv-x="560" unicode="G" /><glyph d="M290 814Q241 814 210 829Q179 844 161 871.5Q143 899 136.5 939Q130 979 131 1030H230Q229 981 241.5 955Q254 929 290 929Q326 929 338.5 955Q351 981 350 1030H449Q450 979 443.5 939Q437 899 419 871.5Q401 844 370 829Q339 814 290 814ZM42 390Q42 497 54 573Q66 649 94.5 697.5Q123 746 171.5 768.5Q220 791 293 791Q362 791 405.5 777Q449 763 473.5 734Q498 705 507.5 660Q517 615 518 553L384 535Q384 575 379 601.5Q374 628 363 644Q352 660 334.5 666.5Q317 673 290 673Q256 673 234 657Q212 641 199.5 606.5Q187 572 182.5 518.5Q178 465 178 390Q178 315 180.5 261.5Q183 208 194.5 173.5Q206 139 229 123Q252 107 293 107Q327 107 348.5 112.5Q370 118 387 126V316H299V428H517V47Q494 32 470.5 21.5Q447 11 420 3.5Q393 -4 361 -7.5Q329 -11 290 -11Q216 -11 168 11.5Q120 34 92 82Q64 130 53 206Q42 282 42 390Z" glyph-name="Gbreve" horiz-adv-x="560" unicode="&#286;" /><glyph d="M123 822 216 1030H364L457 822H349L290 935L231 822ZM42 390Q42 497 54 573Q66 649 94.5 697.5Q123 746 171.5 768.5Q220 791 293 791Q362 791 405.5 777Q449 763 473.5 734Q498 705 507.5 660Q517 615 518 553L384 535Q384 575 379 601.5Q374 628 363 644Q352 660 334.5 666.5Q317 673 290 673Q256 673 234 657Q212 641 199.5 606.5Q187 572 182.5 518.5Q178 465 178 390Q178 315 180.5 261.5Q183 208 194.5 173.5Q206 139 229 123Q252 107 293 107Q327 107 348.5 112.5Q370 118 387 126V316H299V428H517V47Q494 32 470.5 21.5Q447 11 420 3.5Q393 -4 361 -7.5Q329 -11 290 -11Q216 -11 168 11.5Q120 34 92 82Q64 130 53 206Q42 282 42 390Z" glyph-name="Gcircumflex" horiz-adv-x="560" unicode="&#284;" /><glyph d="M364 -62 332 -200H220L230 -62ZM42 390Q42 497 54 573Q66 649 94.5 697.5Q123 746 171.5 768.5Q220 791 293 791Q362 791 405.5 777Q449 763 473.5 734Q498 705 507.5 660Q517 615 518 553L384 535Q384 575 379 601.5Q374 628 363 644Q352 660 334.5 666.5Q317 673 290 673Q256 673 234 657Q212 641 199.5 606.5Q187 572 182.5 518.5Q178 465 178 390Q178 315 180.5 261.5Q183 208 194.5 173.5Q206 139 229 123Q252 107 293 107Q327 107 348.5 112.5Q370 118 387 126V316H299V428H517V47Q494 32 470.5 21.5Q447 11 420 3.5Q393 -4 361 -7.5Q329 -11 290 -11Q216 -11 168 11.5Q120 34 92 82Q64 130 53 206Q42 282 42 390Z" glyph-name="Gcommaaccent" horiz-adv-x="560" unicode="&#290;" /><glyph d="M362 855H218V998H362ZM42 390Q42 497 54 573Q66 649 94.5 697.5Q123 746 171.5 768.5Q220 791 293 791Q362 791 405.5 777Q449 763 473.5 734Q498 705 507.5 660Q517 615 518 553L384 535Q384 575 379 601.5Q374 628 363 644Q352 660 334.5 666.5Q317 673 290 673Q256 673 234 657Q212 641 199.5 606.5Q187 572 182.5 518.5Q178 465 178 390Q178 315 180.5 261.5Q183 208 194.5 173.5Q206 139 229 123Q252 107 293 107Q327 107 348.5 112.5Q370 118 387 126V316H299V428H517V47Q494 32 470.5 21.5Q447 11 420 3.5Q393 -4 361 -7.5Q329 -11 290 -11Q216 -11 168 11.5Q120 34 92 82Q64 130 53 206Q42 282 42 390Z" glyph-name="Gdotaccent" horiz-adv-x="560" unicode="&#288;" /><glyph d="M503 780V0H368V339H189V0H54V780H189V459H368V780Z" glyph-name="H" horiz-adv-x="557" unicode="H" /><glyph d="M161 994H395V871H161ZM503 780V0H368V339H189V0H54V780H189V459H368V780Z" glyph-name="Hbar" horiz-adv-x="557" unicode="&#294;" /><glyph d="M111 822 204 1030H352L445 822H337L278 935L219 822ZM503 780V0H368V339H189V0H54V780H189V459H368V780Z" glyph-name="Hcircumflex" horiz-adv-x="557" unicode="&#292;" /><glyph d="M195 0H59V780H195Z" glyph-name="I" horiz-adv-x="254" unicode="I" /><glyph d="M485 140Q485 68 448 28.5Q411 -11 326 -11Q290 -11 270.5 -7Q251 -3 239 2L246 122Q254 118 268 115Q282 112 299 112Q322 112 335.5 122.5Q349 133 349 163V780H485ZM195 0H59V780H195Z" glyph-name="IJ" horiz-adv-x="540" unicode="&#306;" /><glyph d="M256 1030 195 822H62L108 1030ZM195 0H59V780H195Z" glyph-name="Iacute" horiz-adv-x="254" unicode="&#205;" /><glyph d="M127 814Q78 814 47 829Q16 844 -2 871.5Q-20 899 -26.5 939Q-33 979 -32 1030H67Q66 981 78.5 955Q91 929 127 929Q163 929 175.5 955Q188 981 187 1030H286Q287 979 280.5 939Q274 899 256 871.5Q238 844 207 829Q176 814 127 814ZM195 0H59V780H195Z" glyph-name="Ibreve" horiz-adv-x="254" unicode="&#300;" /><glyph d="M-40 822 53 1030H201L294 822H186L127 935L68 822ZM195 0H59V780H195Z" glyph-name="Icircumflex" horiz-adv-x="254" unicode="&#206;" /><glyph d="M297 855H153V998H297ZM101 855H-43V998H101ZM195 0H59V780H195Z" glyph-name="Idieresis" horiz-adv-x="254" unicode="&#207;" /><glyph d="M199 855H55V998H199ZM195 0H59V780H195Z" glyph-name="Idotaccent" horiz-adv-x="254" unicode="&#304;" /><glyph d="M146 1030 192 822H59L-2 1030ZM195 0H59V780H195Z" glyph-name="Igrave" horiz-adv-x="254" unicode="&#204;" /><glyph d="M10 994H244V871H10ZM195 0H59V780H195Z" glyph-name="Imacron" horiz-adv-x="254" unicode="&#298;" /><glyph d="M195 0Q150 -7 127.5 -31.5Q105 -56 107 -86Q109 -103 120.5 -113.5Q132 -124 156 -120Q173 -118 185 -111Q197 -104 200 -102L226 -189Q210 -200 185.5 -207Q161 -214 130 -214Q84 -214 51.5 -193.5Q19 -173 11 -124Q3 -82 17 -49Q31 -16 59 8V780H195Z" glyph-name="Iogonek" horiz-adv-x="254" unicode="&#302;" /><glyph d="M318 991Q316 956 308.5 926Q301 896 287.5 874Q274 852 254 840Q234 828 206 828Q177 828 156.5 839.5Q136 851 119.5 864.5Q103 878 89.5 890Q76 902 61 902Q50 902 43.5 896Q37 890 34 881.5Q31 873 30 864.5Q29 856 29 851L-65 862Q-63 897 -55.5 927Q-48 957 -34.5 979Q-21 1001 -1 1013Q19 1025 47 1025Q75 1025 96 1013.5Q117 1002 133 988Q149 974 162.5 962.5Q176 951 191 951Q203 951 209 957Q215 963 218 971Q221 979 222 988Q223 997 224 1002ZM195 0H59V780H195Z" glyph-name="Itilde" horiz-adv-x="254" unicode="&#296;" /><glyph d="M405 780V204Q405 144 392.5 103Q380 62 355.5 36.5Q331 11 293 0Q255 -11 204 -11Q145 -11 107.5 3Q70 17 49 43.5Q28 70 20.5 107.5Q13 145 13 192L144 208Q144 158 156.5 131.5Q169 105 207 106Q245 107 258 129.5Q271 152 271 203V780Z" glyph-name="J" horiz-adv-x="460" unicode="J" /><glyph d="M171 822 264 1030H412L505 822H397L338 935L279 822ZM405 780V204Q405 144 392.5 103Q380 62 355.5 36.5Q331 11 293 0Q255 -11 204 -11Q145 -11 107.5 3Q70 17 49 43.5Q28 70 20.5 107.5Q13 145 13 192L144 208Q144 158 156.5 131.5Q169 105 207 106Q245 107 258 129.5Q271 152 271 203V780Z" glyph-name="Jcircumflex" horiz-adv-x="460" unicode="&#308;" /><glyph d="M186 412 346 780H507L334 440L521 0H359L243 321L186 215L189 0H54V780H189Z" glyph-name="K" horiz-adv-x="536" unicode="K" /><glyph d="M334 -62 302 -200H190L200 -62ZM186 412 346 780H507L334 440L521 0H359L243 321L186 215L189 0H54V780H189Z" glyph-name="Kcommaaccent" horiz-adv-x="536" unicode="&#310;" /><glyph d="M189 121H400V0H54V780H189Z" glyph-name="L" horiz-adv-x="420" unicode="L" /><glyph d="M251 1030 190 822H57L103 1030ZM189 121H400V0H54V780H189Z" glyph-name="Lacute" horiz-adv-x="420" unicode="&#313;" /><glyph d="M376 800 342 592H256V800ZM189 121H400V0H54V780H189Z" glyph-name="Lcaron" horiz-adv-x="420" unicode="&#317;" /><glyph d="M293 -62 261 -200H149L159 -62ZM189 121H400V0H54V780H189Z" glyph-name="Lcommaaccent" horiz-adv-x="420" unicode="&#315;" /><glyph d="M394 327H248V471H394ZM189 121H400V0H54V780H189Z" glyph-name="Ldot" horiz-adv-x="420" unicode="&#319;" /><glyph d="M189 342V121H400V0H54V274L5 250V374L54 398V780H189V466L303 523V399Z" glyph-name="Lslash" horiz-adv-x="420" unicode="&#321;" /><glyph d="M293 0 181 498 188 0H54V780H243L350 249L457 780H646V0H513L520 498L407 0Z" glyph-name="M" horiz-adv-x="701" unicode="M" /><glyph d="M319 459 386 264 384 453V780H510V0H360L245 321L179 516L181 327L182 0H54V780H204Z" glyph-name="N" horiz-adv-x="565" unicode="N" /><glyph d="M406 1030 345 822H212L258 1030ZM319 459 386 264 384 453V780H510V0H360L245 321L179 516L181 327L182 0H54V780H204Z" glyph-name="Nacute" horiz-adv-x="565" unicode="&#323;" /><glyph d="M451 1030 357 822H207L113 1030H221L282 918L343 1030ZM319 459 386 264 384 453V780H510V0H360L245 321L179 516L181 327L182 0H54V780H204Z" glyph-name="Ncaron" horiz-adv-x="565" unicode="&#327;" /><glyph d="M341 -62 309 -200H197L207 -62ZM319 459 386 264 384 453V780H510V0H360L245 321L179 516L181 327L182 0H54V780H204Z" glyph-name="Ncommaaccent" horiz-adv-x="565" unicode="&#325;" /><glyph d="M473 991Q471 956 463.5 926Q456 896 442.5 874Q429 852 409 840Q389 828 361 828Q332 828 311.5 839.5Q291 851 274.5 864.5Q258 878 244.5 890Q231 902 216 902Q205 902 198.5 896Q192 890 189 881.5Q186 873 185 864.5Q184 856 184 851L90 862Q92 897 99.5 927Q107 957 120.5 979Q134 1001 154 1013Q174 1025 202 1025Q230 1025 251 1013.5Q272 1002 288 988Q304 974 317.5 962.5Q331 951 346 951Q358 951 364 957Q370 963 373 971Q376 979 377 988Q378 997 379 1002ZM319 459 386 264 384 453V780H510V0H360L245 321L179 516L181 327L182 0H54V780H204Z" glyph-name="Ntilde" horiz-adv-x="565" unicode="&#209;" /><glyph d="M277 107Q308 107 327 121.5Q346 136 357 169Q368 202 372 256Q376 310 376 390Q376 470 372 524Q368 578 357 611Q346 644 327 658.5Q308 673 277 673Q246 673 227 658.5Q208 644 197 611Q186 578 182 524Q178 470 178 390Q178 310 182 256Q186 202 197 169Q208 136 227 121.5Q246 107 277 107ZM277 791Q349 791 394.5 768Q440 745 466.5 696Q493 647 502.5 571Q512 495 512 390Q512 285 502.5 209Q493 133 466.5 84Q440 35 394.5 12Q349 -11 277 -11Q205 -11 159.5 12Q114 35 87.5 84Q61 133 51.5 209Q42 285 42 390Q42 495 51.5 571Q61 647 87.5 696Q114 745 159.5 768Q205 791 277 791Z" glyph-name="O" horiz-adv-x="554" unicode="O" /><glyph d="M346 121V659H313Q267 659 240.5 644.5Q214 630 200 598Q186 566 182 514.5Q178 463 178 390Q178 316 182 265Q186 214 200 182Q214 150 240.5 135.5Q267 121 313 121ZM318 0Q239 0 186 18.5Q133 37 100.5 82Q68 127 54.5 202Q41 277 41 390Q41 503 54.5 578Q68 653 100.5 698Q133 743 186 761.5Q239 780 318 780H702V659H481V459H663V339H481V121H716V0Z" glyph-name="OE" horiz-adv-x="749" unicode="&#338;" /><glyph d="M401 1030 340 822H207L253 1030ZM277 107Q308 107 327 121.5Q346 136 357 169Q368 202 372 256Q376 310 376 390Q376 470 372 524Q368 578 357 611Q346 644 327 658.5Q308 673 277 673Q246 673 227 658.5Q208 644 197 611Q186 578 182 524Q178 470 178 390Q178 310 182 256Q186 202 197 169Q208 136 227 121.5Q246 107 277 107ZM277 791Q349 791 394.5 768Q440 745 466.5 696Q493 647 502.5 571Q512 495 512 390Q512 285 502.5 209Q493 133 466.5 84Q440 35 394.5 12Q349 -11 277 -11Q205 -11 159.5 12Q114 35 87.5 84Q61 133 51.5 209Q42 285 42 390Q42 495 51.5 571Q61 647 87.5 696Q114 745 159.5 768Q205 791 277 791Z" glyph-name="Oacute" horiz-adv-x="554" unicode="&#211;" /><glyph d="M277 814Q228 814 197 829Q166 844 148 871.5Q130 899 123.5 939Q117 979 118 1030H217Q216 981 228.5 955Q241 929 277 929Q313 929 325.5 955Q338 981 337 1030H436Q437 979 430.5 939Q424 899 406 871.5Q388 844 357 829Q326 814 277 814ZM277 107Q308 107 327 121.5Q346 136 357 169Q368 202 372 256Q376 310 376 390Q376 470 372 524Q368 578 357 611Q346 644 327 658.5Q308 673 277 673Q246 673 227 658.5Q208 644 197 611Q186 578 182 524Q178 470 178 390Q178 310 182 256Q186 202 197 169Q208 136 227 121.5Q246 107 277 107ZM277 791Q349 791 394.5 768Q440 745 466.5 696Q493 647 502.5 571Q512 495 512 390Q512 285 502.5 209Q493 133 466.5 84Q440 35 394.5 12Q349 -11 277 -11Q205 -11 159.5 12Q114 35 87.5 84Q61 133 51.5 209Q42 285 42 390Q42 495 51.5 571Q61 647 87.5 696Q114 745 159.5 768Q205 791 277 791Z" glyph-name="Obreve" horiz-adv-x="554" unicode="&#334;" /><glyph d="M110 822 203 1030H351L444 822H336L277 935L218 822ZM277 107Q308 107 327 121.5Q346 136 357 169Q368 202 372 256Q376 310 376 390Q376 470 372 524Q368 578 357 611Q346 644 327 658.5Q308 673 277 673Q246 673 227 658.5Q208 644 197 611Q186 578 182 524Q178 470 178 390Q178 310 182 256Q186 202 197 169Q208 136 227 121.5Q246 107 277 107ZM277 791Q349 791 394.5 768Q440 745 466.5 696Q493 647 502.5 571Q512 495 512 390Q512 285 502.5 209Q493 133 466.5 84Q440 35 394.5 12Q349 -11 277 -11Q205 -11 159.5 12Q114 35 87.5 84Q61 133 51.5 209Q42 285 42 390Q42 495 51.5 571Q61 647 87.5 696Q114 745 159.5 768Q205 791 277 791Z" glyph-name="Ocircumflex" horiz-adv-x="554" unicode="&#212;" /><glyph d="M457 855H313V998H457ZM241 855H97V998H241ZM277 107Q308 107 327 121.5Q346 136 357 169Q368 202 372 256Q376 310 376 390Q376 470 372 524Q368 578 357 611Q346 644 327 658.5Q308 673 277 673Q246 673 227 658.5Q208 644 197 611Q186 578 182 524Q178 470 178 390Q178 310 182 256Q186 202 197 169Q208 136 227 121.5Q246 107 277 107ZM277 791Q349 791 394.5 768Q440 745 466.5 696Q493 647 502.5 571Q512 495 512 390Q512 285 502.5 209Q493 133 466.5 84Q440 35 394.5 12Q349 -11 277 -11Q205 -11 159.5 12Q114 35 87.5 84Q61 133 51.5 209Q42 285 42 390Q42 495 51.5 571Q61 647 87.5 696Q114 745 159.5 768Q205 791 277 791Z" glyph-name="Odieresis" horiz-adv-x="554" unicode="&#214;" /><glyph d="M301 1030 347 822H214L153 1030ZM277 107Q308 107 327 121.5Q346 136 357 169Q368 202 372 256Q376 310 376 390Q376 470 372 524Q368 578 357 611Q346 644 327 658.5Q308 673 277 673Q246 673 227 658.5Q208 644 197 611Q186 578 182 524Q178 470 178 390Q178 310 182 256Q186 202 197 169Q208 136 227 121.5Q246 107 277 107ZM277 791Q349 791 394.5 768Q440 745 466.5 696Q493 647 502.5 571Q512 495 512 390Q512 285 502.5 209Q493 133 466.5 84Q440 35 394.5 12Q349 -11 277 -11Q205 -11 159.5 12Q114 35 87.5 84Q61 133 51.5 209Q42 285 42 390Q42 495 51.5 571Q61 647 87.5 696Q114 745 159.5 768Q205 791 277 791Z" glyph-name="Ograve" horiz-adv-x="554" unicode="&#210;" /><glyph d="M505 1030 435 822H301L354 1030ZM325 1030 255 822H120L174 1030ZM277 107Q308 107 327 121.5Q346 136 357 169Q368 202 372 256Q376 310 376 390Q376 470 372 524Q368 578 357 611Q346 644 327 658.5Q308 673 277 673Q246 673 227 658.5Q208 644 197 611Q186 578 182 524Q178 470 178 390Q178 310 182 256Q186 202 197 169Q208 136 227 121.5Q246 107 277 107ZM277 791Q349 791 394.5 768Q440 745 466.5 696Q493 647 502.5 571Q512 495 512 390Q512 285 502.5 209Q493 133 466.5 84Q440 35 394.5 12Q349 -11 277 -11Q205 -11 159.5 12Q114 35 87.5 84Q61 133 51.5 209Q42 285 42 390Q42 495 51.5 571Q61 647 87.5 696Q114 745 159.5 768Q205 791 277 791Z" glyph-name="Ohungarumlaut" horiz-adv-x="554" unicode="&#336;" /><glyph d="M160 994H394V871H160ZM277 107Q308 107 327 121.5Q346 136 357 169Q368 202 372 256Q376 310 376 390Q376 470 372 524Q368 578 357 611Q346 644 327 658.5Q308 673 277 673Q246 673 227 658.5Q208 644 197 611Q186 578 182 524Q178 470 178 390Q178 310 182 256Q186 202 197 169Q208 136 227 121.5Q246 107 277 107ZM277 791Q349 791 394.5 768Q440 745 466.5 696Q493 647 502.5 571Q512 495 512 390Q512 285 502.5 209Q493 133 466.5 84Q440 35 394.5 12Q349 -11 277 -11Q205 -11 159.5 12Q114 35 87.5 84Q61 133 51.5 209Q42 285 42 390Q42 495 51.5 571Q61 647 87.5 696Q114 745 159.5 768Q205 791 277 791Z" glyph-name="Omacron" horiz-adv-x="554" unicode="&#332;" /><glyph d="M376 390Q376 431 375 464.5Q374 498 372 526L196 169Q207 135 226.5 121Q246 107 277 107Q308 107 327 121.5Q346 136 357 169Q368 202 372 256Q376 310 376 390ZM178 390Q178 348 179 314Q180 280 182 252L357 611Q346 644 327 658.5Q308 673 277 673Q246 673 227 658.5Q208 644 197 611Q186 578 182 524Q178 470 178 390ZM42 390Q42 495 51.5 571Q61 647 87.5 696Q114 745 159.5 768Q205 791 277 791Q372 791 424 748L440 780H496L460 707Q491 659 502 580.5Q513 502 513 390Q513 285 503 209Q493 133 467 84Q441 35 395 12Q349 -11 277 -11Q180 -11 129 31L114 0H59L94 72Q64 121 53 199.5Q42 278 42 390Z" glyph-name="Oslash" horiz-adv-x="555" unicode="&#216;" /><glyph d="M468 991Q466 956 458.5 926Q451 896 437.5 874Q424 852 404 840Q384 828 356 828Q327 828 306.5 839.5Q286 851 269.5 864.5Q253 878 239.5 890Q226 902 211 902Q200 902 193.5 896Q187 890 184 881.5Q181 873 180 864.5Q179 856 179 851L85 862Q87 897 94.5 927Q102 957 115.5 979Q129 1001 149 1013Q169 1025 197 1025Q225 1025 246 1013.5Q267 1002 283 988Q299 974 312.5 962.5Q326 951 341 951Q353 951 359 957Q365 963 368 971Q371 979 372 988Q373 997 374 1002ZM277 107Q308 107 327 121.5Q346 136 357 169Q368 202 372 256Q376 310 376 390Q376 470 372 524Q368 578 357 611Q346 644 327 658.5Q308 673 277 673Q246 673 227 658.5Q208 644 197 611Q186 578 182 524Q178 470 178 390Q178 310 182 256Q186 202 197 169Q208 136 227 121.5Q246 107 277 107ZM277 791Q349 791 394.5 768Q440 745 466.5 696Q493 647 502.5 571Q512 495 512 390Q512 285 502.5 209Q493 133 466.5 84Q440 35 394.5 12Q349 -11 277 -11Q205 -11 159.5 12Q114 35 87.5 84Q61 133 51.5 209Q42 285 42 390Q42 495 51.5 571Q61 647 87.5 696Q114 745 159.5 768Q205 791 277 791Z" glyph-name="Otilde" horiz-adv-x="554" unicode="&#213;" /><glyph d="M191 0H56V780H270Q313 780 351.5 769.5Q390 759 418.5 731Q447 703 463.5 654.5Q480 606 480 530Q480 453 463.5 404.5Q447 356 419 328Q391 300 353.5 289.5Q316 279 273 279H191ZM263 400Q304 400 323.5 428Q343 456 343 530Q343 603 323.5 631Q304 659 263 659H191V400Z" glyph-name="P" horiz-adv-x="508" unicode="P" /><glyph d="M277 107Q308 107 327 121.5Q346 136 357 169Q368 202 372 256Q376 310 376 390Q376 470 372 524Q368 578 357 611Q346 644 327 658.5Q308 673 277 673Q246 673 227 658.5Q208 644 197 611Q186 578 182 524Q178 470 178 390Q178 310 182 256Q186 202 197 169Q208 136 227 121.5Q246 107 277 107ZM277 791Q349 791 394.5 768Q440 745 466.5 696Q493 647 502.5 571Q512 495 512 390Q512 297 504.5 227.5Q497 158 478 109.5Q459 61 425.5 33Q392 5 341 -5L470 -93L407 -214L134 28Q83 73 62.5 160Q42 247 42 390Q42 495 51.5 571Q61 647 87.5 696Q114 745 159.5 768Q205 791 277 791Z" glyph-name="Q" horiz-adv-x="554" unicode="Q" /><glyph d="M256 418Q277 418 294 422Q311 426 322.5 439Q334 452 340.5 476Q347 500 347 539Q347 578 340.5 601.5Q334 625 322.5 638Q311 651 294 655Q277 659 256 659H190V418ZM190 0H54V780H274Q317 780 355 771.5Q393 763 421.5 737.5Q450 712 467 664.5Q484 617 484 539Q484 486 476.5 448Q469 410 455.5 383Q442 356 424.5 339Q407 322 386 312L501 0H347L257 296H190Z" glyph-name="R" horiz-adv-x="526" unicode="R" /><glyph d="M374 1030 313 822H180L226 1030ZM256 418Q277 418 294 422Q311 426 322.5 439Q334 452 340.5 476Q347 500 347 539Q347 578 340.5 601.5Q334 625 322.5 638Q311 651 294 655Q277 659 256 659H190V418ZM190 0H54V780H274Q317 780 355 771.5Q393 763 421.5 737.5Q450 712 467 664.5Q484 617 484 539Q484 486 476.5 448Q469 410 455.5 383Q442 356 424.5 339Q407 322 386 312L501 0H347L257 296H190Z" glyph-name="Racute" horiz-adv-x="526" unicode="&#340;" /><glyph d="M419 1030 325 822H175L81 1030H189L250 918L311 1030ZM256 418Q277 418 294 422Q311 426 322.5 439Q334 452 340.5 476Q347 500 347 539Q347 578 340.5 601.5Q334 625 322.5 638Q311 651 294 655Q277 659 256 659H190V418ZM190 0H54V780H274Q317 780 355 771.5Q393 763 421.5 737.5Q450 712 467 664.5Q484 617 484 539Q484 486 476.5 448Q469 410 455.5 383Q442 356 424.5 339Q407 322 386 312L501 0H347L257 296H190Z" glyph-name="Rcaron" horiz-adv-x="526" unicode="&#344;" /><glyph d="M332 -62 300 -200H188L198 -62ZM256 418Q277 418 294 422Q311 426 322.5 439Q334 452 340.5 476Q347 500 347 539Q347 578 340.5 601.5Q334 625 322.5 638Q311 651 294 655Q277 659 256 659H190V418ZM190 0H54V780H274Q317 780 355 771.5Q393 763 421.5 737.5Q450 712 467 664.5Q484 617 484 539Q484 486 476.5 448Q469 410 455.5 383Q442 356 424.5 339Q407 322 386 312L501 0H347L257 296H190Z" glyph-name="Rcommaaccent" horiz-adv-x="526" unicode="&#342;" /><glyph d="M248 106Q299 106 322.5 130Q346 154 346 212Q346 243 339.5 263Q333 283 318.5 296.5Q304 310 280.5 319Q257 328 224 337Q189 346 156 360Q123 374 97.5 399Q72 424 56.5 464.5Q41 505 41 567Q41 625 52.5 667.5Q64 710 90.5 738Q117 766 159.5 780Q202 794 264 794Q333 794 374 776.5Q415 759 436 727.5Q457 696 463 652Q469 608 470 554L339 537Q339 570 337 595.5Q335 621 326.5 638.5Q318 656 302.5 665Q287 674 260 674Q219 674 198 650.5Q177 627 177 571Q177 541 182 521.5Q187 502 199.5 490Q212 478 232.5 470.5Q253 463 285 456Q329 447 365 432.5Q401 418 426 392Q451 366 465 325Q479 284 480 221Q480 156 465.5 111Q451 66 421.5 38.5Q392 11 348 -1.5Q304 -14 245 -14Q177 -14 134.5 1Q92 16 68.5 46.5Q45 77 36 122.5Q27 168 27 228L157 245Q157 209 160.5 183Q164 157 173.5 139.5Q183 122 201 114Q219 106 248 106Z" glyph-name="S" horiz-adv-x="509" unicode="S" /><glyph d="M384 1030 323 822H190L236 1030ZM248 106Q299 106 322.5 130Q346 154 346 212Q346 243 339.5 263Q333 283 318.5 296.5Q304 310 280.5 319Q257 328 224 337Q189 346 156 360Q123 374 97.5 399Q72 424 56.5 464.5Q41 505 41 567Q41 625 52.5 667.5Q64 710 90.5 738Q117 766 159.5 780Q202 794 264 794Q333 794 374 776.5Q415 759 436 727.5Q457 696 463 652Q469 608 470 554L339 537Q339 570 337 595.5Q335 621 326.5 638.5Q318 656 302.5 665Q287 674 260 674Q219 674 198 650.5Q177 627 177 571Q177 541 182 521.5Q187 502 199.5 490Q212 478 232.5 470.5Q253 463 285 456Q329 447 365 432.5Q401 418 426 392Q451 366 465 325Q479 284 480 221Q480 156 465.5 111Q451 66 421.5 38.5Q392 11 348 -1.5Q304 -14 245 -14Q177 -14 134.5 1Q92 16 68.5 46.5Q45 77 36 122.5Q27 168 27 228L157 245Q157 209 160.5 183Q164 157 173.5 139.5Q183 122 201 114Q219 106 248 106Z" glyph-name="Sacute" horiz-adv-x="509" unicode="&#346;" /><glyph d="M429 1030 335 822H185L91 1030H199L260 918L321 1030ZM248 106Q299 106 322.5 130Q346 154 346 212Q346 243 339.5 263Q333 283 318.5 296.5Q304 310 280.5 319Q257 328 224 337Q189 346 156 360Q123 374 97.5 399Q72 424 56.5 464.5Q41 505 41 567Q41 625 52.5 667.5Q64 710 90.5 738Q117 766 159.5 780Q202 794 264 794Q333 794 374 776.5Q415 759 436 727.5Q457 696 463 652Q469 608 470 554L339 537Q339 570 337 595.5Q335 621 326.5 638.5Q318 656 302.5 665Q287 674 260 674Q219 674 198 650.5Q177 627 177 571Q177 541 182 521.5Q187 502 199.5 490Q212 478 232.5 470.5Q253 463 285 456Q329 447 365 432.5Q401 418 426 392Q451 366 465 325Q479 284 480 221Q480 156 465.5 111Q451 66 421.5 38.5Q392 11 348 -1.5Q304 -14 245 -14Q177 -14 134.5 1Q92 16 68.5 46.5Q45 77 36 122.5Q27 168 27 228L157 245Q157 209 160.5 183Q164 157 173.5 139.5Q183 122 201 114Q219 106 248 106Z" glyph-name="Scaron" horiz-adv-x="509" unicode="&#352;" /><glyph d="M248 106Q299 106 322.5 130Q346 154 346 212Q346 243 339.5 263Q333 283 318.5 296.5Q304 310 280.5 319Q257 328 224 337Q189 346 156 360Q123 374 97.5 399Q72 424 56.5 464.5Q41 505 41 567Q41 625 52.5 667.5Q64 710 90.5 738Q117 766 159.5 780Q202 794 264 794Q333 794 374 776.5Q415 759 436 727.5Q457 696 463 652Q469 608 470 554L339 537Q339 570 337 595.5Q335 621 326.5 638.5Q318 656 302.5 665Q287 674 260 674Q219 674 198 650.5Q177 627 177 571Q177 541 182 521.5Q187 502 199.5 490Q212 478 232.5 470.5Q253 463 285 456Q329 447 365 432.5Q401 418 426 392Q451 366 465 325Q479 284 480 221Q480 160 467 117Q454 74 428.5 46Q403 18 364 4Q325 -10 274 -13L268 -36Q319 -46 348 -68Q377 -90 374 -131Q370 -175 333.5 -194.5Q297 -214 248 -214Q204 -214 175 -206Q146 -198 134 -193L155 -132Q162 -135 171 -139Q179 -142 188 -144.5Q197 -147 208 -148Q233 -150 250 -144Q267 -138 267 -118Q267 -97 240.5 -87Q214 -77 179 -73L200 -12Q147 -7 113.5 10.5Q80 28 61 58Q42 88 34.5 130.5Q27 173 27 228L157 245Q157 209 160.5 183Q164 157 173.5 139.5Q183 122 201 114Q219 106 248 106Z" glyph-name="Scedilla" horiz-adv-x="509" unicode="&#350;" /><glyph d="M93 822 186 1030H334L427 822H319L260 935L201 822ZM248 106Q299 106 322.5 130Q346 154 346 212Q346 243 339.5 263Q333 283 318.5 296.5Q304 310 280.5 319Q257 328 224 337Q189 346 156 360Q123 374 97.5 399Q72 424 56.5 464.5Q41 505 41 567Q41 625 52.5 667.5Q64 710 90.5 738Q117 766 159.5 780Q202 794 264 794Q333 794 374 776.5Q415 759 436 727.5Q457 696 463 652Q469 608 470 554L339 537Q339 570 337 595.5Q335 621 326.5 638.5Q318 656 302.5 665Q287 674 260 674Q219 674 198 650.5Q177 627 177 571Q177 541 182 521.5Q187 502 199.5 490Q212 478 232.5 470.5Q253 463 285 456Q329 447 365 432.5Q401 418 426 392Q451 366 465 325Q479 284 480 221Q480 156 465.5 111Q451 66 421.5 38.5Q392 11 348 -1.5Q304 -14 245 -14Q177 -14 134.5 1Q92 16 68.5 46.5Q45 77 36 122.5Q27 168 27 228L157 245Q157 209 160.5 183Q164 157 173.5 139.5Q183 122 201 114Q219 106 248 106Z" glyph-name="Scircumflex" horiz-adv-x="509" unicode="&#348;" /><glyph d="M316 -62 284 -200H172L182 -62ZM248 106Q299 106 322.5 130Q346 154 346 212Q346 243 339.5 263Q333 283 318.5 296.5Q304 310 280.5 319Q257 328 224 337Q189 346 156 360Q123 374 97.5 399Q72 424 56.5 464.5Q41 505 41 567Q41 625 52.5 667.5Q64 710 90.5 738Q117 766 159.5 780Q202 794 264 794Q333 794 374 776.5Q415 759 436 727.5Q457 696 463 652Q469 608 470 554L339 537Q339 570 337 595.5Q335 621 326.5 638.5Q318 656 302.5 665Q287 674 260 674Q219 674 198 650.5Q177 627 177 571Q177 541 182 521.5Q187 502 199.5 490Q212 478 232.5 470.5Q253 463 285 456Q329 447 365 432.5Q401 418 426 392Q451 366 465 325Q479 284 480 221Q480 156 465.5 111Q451 66 421.5 38.5Q392 11 348 -1.5Q304 -14 245 -14Q177 -14 134.5 1Q92 16 68.5 46.5Q45 77 36 122.5Q27 168 27 228L157 245Q157 209 160.5 183Q164 157 173.5 139.5Q183 122 201 114Q219 106 248 106Z" glyph-name="Scommaaccent" horiz-adv-x="509" unicode="&#536;" /><glyph d="M295 0H160V659H20V780H435V659H295Z" glyph-name="T" horiz-adv-x="455" unicode="T" /><glyph d="M110 994H344V871H110ZM295 0H160V659H20V780H435V659H295Z" glyph-name="Tbar" horiz-adv-x="455" unicode="&#358;" /><glyph d="M396 1030 302 822H152L58 1030H166L227 918L288 1030ZM295 0H160V659H20V780H435V659H295Z" glyph-name="Tcaron" horiz-adv-x="455" unicode="&#356;" /><glyph d="M294 -62 262 -200H150L160 -62ZM295 0H160V659H20V780H435V659H295Z" glyph-name="Tcommaaccent" horiz-adv-x="455" unicode="&#354;" /><glyph d="M263 260Q304 260 323.5 288Q343 316 343 390Q343 463 323.5 491Q304 519 263 519H192V260ZM192 640H270Q313 640 351.5 629.5Q390 619 418.5 591Q447 563 463.5 514.5Q480 466 480 390Q480 313 464 264.5Q448 216 420 188Q392 160 354 149.5Q316 139 273 139H192V0H56V780H192Z" glyph-name="Thorn" horiz-adv-x="508" unicode="&#222;" /><glyph d="M269 106Q296 106 312.5 112Q329 118 337.5 130.5Q346 143 349 162Q352 181 352 208V780H487V202Q487 148 478 107.5Q469 67 445 40Q421 13 378.5 -0.5Q336 -14 269 -14Q202 -14 159.5 -0.5Q117 13 92.5 40Q68 67 59 107.5Q50 148 50 202V780H186V208Q186 181 189 162Q192 143 200.5 130.5Q209 118 225.5 112Q242 106 269 106Z" glyph-name="U" horiz-adv-x="538" unicode="U" /><glyph d="M392 1030 331 822H198L244 1030ZM269 106Q296 106 312.5 112Q329 118 337.5 130.5Q346 143 349 162Q352 181 352 208V780H487V202Q487 148 478 107.5Q469 67 445 40Q421 13 378.5 -0.5Q336 -14 269 -14Q202 -14 159.5 -0.5Q117 13 92.5 40Q68 67 59 107.5Q50 148 50 202V780H186V208Q186 181 189 162Q192 143 200.5 130.5Q209 118 225.5 112Q242 106 269 106Z" glyph-name="Uacute" horiz-adv-x="538" unicode="&#218;" /><glyph d="M268 814Q219 814 188 829Q157 844 139 871.5Q121 899 114.5 939Q108 979 109 1030H208Q207 981 219.5 955Q232 929 268 929Q304 929 316.5 955Q329 981 328 1030H427Q428 979 421.5 939Q415 899 397 871.5Q379 844 348 829Q317 814 268 814ZM269 106Q296 106 312.5 112Q329 118 337.5 130.5Q346 143 349 162Q352 181 352 208V780H487V202Q487 148 478 107.5Q469 67 445 40Q421 13 378.5 -0.5Q336 -14 269 -14Q202 -14 159.5 -0.5Q117 13 92.5 40Q68 67 59 107.5Q50 148 50 202V780H186V208Q186 181 189 162Q192 143 200.5 130.5Q209 118 225.5 112Q242 106 269 106Z" glyph-name="Ubreve" horiz-adv-x="538" unicode="&#364;" /><glyph d="M101 822 194 1030H342L435 822H327L268 935L209 822ZM269 106Q296 106 312.5 112Q329 118 337.5 130.5Q346 143 349 162Q352 181 352 208V780H487V202Q487 148 478 107.5Q469 67 445 40Q421 13 378.5 -0.5Q336 -14 269 -14Q202 -14 159.5 -0.5Q117 13 92.5 40Q68 67 59 107.5Q50 148 50 202V780H186V208Q186 181 189 162Q192 143 200.5 130.5Q209 118 225.5 112Q242 106 269 106Z" glyph-name="Ucircumflex" horiz-adv-x="538" unicode="&#219;" /><glyph d="M448 855H304V998H448ZM232 855H88V998H232ZM269 106Q296 106 312.5 112Q329 118 337.5 130.5Q346 143 349 162Q352 181 352 208V780H487V202Q487 148 478 107.5Q469 67 445 40Q421 13 378.5 -0.5Q336 -14 269 -14Q202 -14 159.5 -0.5Q117 13 92.5 40Q68 67 59 107.5Q50 148 50 202V780H186V208Q186 181 189 162Q192 143 200.5 130.5Q209 118 225.5 112Q242 106 269 106Z" glyph-name="Udieresis" horiz-adv-x="538" unicode="&#220;" /><glyph d="M292 1030 338 822H205L144 1030ZM269 106Q296 106 312.5 112Q329 118 337.5 130.5Q346 143 349 162Q352 181 352 208V780H487V202Q487 148 478 107.5Q469 67 445 40Q421 13 378.5 -0.5Q336 -14 269 -14Q202 -14 159.5 -0.5Q117 13 92.5 40Q68 67 59 107.5Q50 148 50 202V780H186V208Q186 181 189 162Q192 143 200.5 130.5Q209 118 225.5 112Q242 106 269 106Z" glyph-name="Ugrave" horiz-adv-x="538" unicode="&#217;" /><glyph d="M496 1030 426 822H292L345 1030ZM316 1030 246 822H111L165 1030ZM269 106Q296 106 312.5 112Q329 118 337.5 130.5Q346 143 349 162Q352 181 352 208V780H487V202Q487 148 478 107.5Q469 67 445 40Q421 13 378.5 -0.5Q336 -14 269 -14Q202 -14 159.5 -0.5Q117 13 92.5 40Q68 67 59 107.5Q50 148 50 202V780H186V208Q186 181 189 162Q192 143 200.5 130.5Q209 118 225.5 112Q242 106 269 106Z" glyph-name="Uhungarumlaut" horiz-adv-x="538" unicode="&#368;" /><glyph d="M151 994H385V871H151ZM269 106Q296 106 312.5 112Q329 118 337.5 130.5Q346 143 349 162Q352 181 352 208V780H487V202Q487 148 478 107.5Q469 67 445 40Q421 13 378.5 -0.5Q336 -14 269 -14Q202 -14 159.5 -0.5Q117 13 92.5 40Q68 67 59 107.5Q50 148 50 202V780H186V208Q186 181 189 162Q192 143 200.5 130.5Q209 118 225.5 112Q242 106 269 106Z" glyph-name="Umacron" horiz-adv-x="538" unicode="&#362;" /><glyph d="M269 106Q296 106 312.5 112Q329 118 337.5 130.5Q346 143 349 162Q352 181 352 208V780H487V202Q487 158 481.5 123Q476 88 461.5 62Q447 36 422 19Q397 2 358 -6Q323 -17 304 -38.5Q285 -60 287 -86Q289 -103 300.5 -113.5Q312 -124 336 -120Q353 -118 365 -111Q377 -104 380 -102L406 -189Q390 -200 365.5 -207Q341 -214 310 -214Q264 -214 231.5 -193.5Q199 -173 191 -124Q184 -91 193.5 -63Q203 -35 223 -12Q170 -8 136.5 7.5Q103 23 84 50Q65 77 57.5 114.5Q50 152 50 202V780H186V208Q186 181 189 162Q192 143 200.5 130.5Q209 118 225.5 112Q242 106 269 106Z" glyph-name="Uogonek" horiz-adv-x="538" unicode="&#370;" /><glyph d="M313 926Q313 972 268 972Q223 972 223 926Q223 880 268 880Q313 880 313 926ZM150 926Q150 978 180.5 1011Q211 1044 268 1044Q325 1044 355.5 1011Q386 978 386 926Q386 874 355.5 841Q325 808 268 808Q211 808 180.5 841Q150 874 150 926ZM269 106Q296 106 312.5 112Q329 118 337.5 130.5Q346 143 349 162Q352 181 352 208V780H487V202Q487 148 478 107.5Q469 67 445 40Q421 13 378.5 -0.5Q336 -14 269 -14Q202 -14 159.5 -0.5Q117 13 92.5 40Q68 67 59 107.5Q50 148 50 202V780H186V208Q186 181 189 162Q192 143 200.5 130.5Q209 118 225.5 112Q242 106 269 106Z" glyph-name="Uring" horiz-adv-x="538" unicode="&#366;" /><glyph d="M459 991Q457 956 449.5 926Q442 896 428.5 874Q415 852 395 840Q375 828 347 828Q318 828 297.5 839.5Q277 851 260.5 864.5Q244 878 230.5 890Q217 902 202 902Q191 902 184.5 896Q178 890 175 881.5Q172 873 171 864.5Q170 856 170 851L76 862Q78 897 85.5 927Q93 957 106.5 979Q120 1001 140 1013Q160 1025 188 1025Q216 1025 237 1013.5Q258 1002 274 988Q290 974 303.5 962.5Q317 951 332 951Q344 951 350 957Q356 963 359 971Q362 979 363 988Q364 997 365 1002ZM269 106Q296 106 312.5 112Q329 118 337.5 130.5Q346 143 349 162Q352 181 352 208V780H487V202Q487 148 478 107.5Q469 67 445 40Q421 13 378.5 -0.5Q336 -14 269 -14Q202 -14 159.5 -0.5Q117 13 92.5 40Q68 67 59 107.5Q50 148 50 202V780H186V208Q186 181 189 162Q192 143 200.5 130.5Q209 118 225.5 112Q242 106 269 106Z" glyph-name="Utilde" horiz-adv-x="538" unicode="&#360;" /><glyph d="M153 -7 17 780H154L255 114L356 780H493L357 -7Z" glyph-name="V" horiz-adv-x="510" unicode="V" /><glyph d="M362 584 286 -7H103L27 780H153L203 182L285 780H438L520 182L570 780H697L620 -7H437Z" glyph-name="W" horiz-adv-x="723" unicode="W" /><glyph d="M195 822 288 1030H436L529 822H421L362 935L303 822ZM362 584 286 -7H103L27 780H153L203 182L285 780H438L520 182L570 780H697L620 -7H437Z" glyph-name="Wcircumflex" horiz-adv-x="723" unicode="&#372;" /><glyph d="M279 308 176 0H18L163 403L32 780H184L279 485L374 780H526L395 403L540 0H383Z" glyph-name="X" horiz-adv-x="558" unicode="X" /><glyph d="M371 780H510L324 269L326 0H191L192 269L6 780H145L258 411Z" glyph-name="Y" horiz-adv-x="516" unicode="Y" /><glyph d="M382 1030 321 822H188L234 1030ZM371 780H510L324 269L326 0H191L192 269L6 780H145L258 411Z" glyph-name="Yacute" horiz-adv-x="516" unicode="&#221;" /><glyph d="M91 822 184 1030H332L425 822H317L258 935L199 822ZM371 780H510L324 269L326 0H191L192 269L6 780H145L258 411Z" glyph-name="Ycircumflex" horiz-adv-x="516" unicode="&#374;" /><glyph d="M438 855H294V998H438ZM222 855H78V998H222ZM371 780H510L324 269L326 0H191L192 269L6 780H145L258 411Z" glyph-name="Ydieresis" horiz-adv-x="516" unicode="&#376;" /><glyph d="M29 98 272 581 314 661 181 660H44V780H465V682L222 199L180 119L314 120H469V0H29Z" glyph-name="Z" horiz-adv-x="503" unicode="Z" /><glyph d="M373 1030 312 822H179L225 1030ZM29 98 272 581 314 661 181 660H44V780H465V682L222 199L180 119L314 120H469V0H29Z" glyph-name="Zacute" horiz-adv-x="503" unicode="&#377;" /><glyph d="M418 1030 324 822H174L80 1030H188L249 918L310 1030ZM29 98 272 581 314 661 181 660H44V780H465V682L222 199L180 119L314 120H469V0H29Z" glyph-name="Zcaron" horiz-adv-x="503" unicode="&#381;" /><glyph d="M321 855H177V998H321ZM29 98 272 581 314 661 181 660H44V780H465V682L222 199L180 119L314 120H469V0H29Z" glyph-name="Zdotaccent" horiz-adv-x="503" unicode="&#379;" /><glyph d="M160 162Q160 95 216 95Q242 95 262 106.5Q282 118 296 138V251L240 242Q201 237 180.5 220Q160 203 160 162ZM239 441Q207 441 193.5 424Q180 407 180 363L46 379Q46 417 54 447Q62 477 84 498Q106 519 143.5 530Q181 541 241 541Q295 541 331 532Q367 523 388.5 503Q410 483 419 450.5Q428 418 428 372V138L431 0H313L307 53Q281 18 248 3.5Q215 -11 164 -11Q91 -11 59.5 31.5Q28 74 28 151Q28 193 40 222.5Q52 252 76.5 272.5Q101 293 139 305Q177 317 229 325L296 335V383Q296 410 284 425.5Q272 441 239 441Z" glyph-name="a" horiz-adv-x="476" unicode="a" /><glyph d="M457 138 461 0H343L337 53Q313 21 282 5Q251 -11 205 -11Q117 -11 74.5 55Q32 121 32 265Q32 409 74.5 475Q117 541 205 541Q251 541 282 525Q313 509 337 477L343 530H461L457 392ZM326 374Q309 397 288 411Q267 425 241 425Q197 425 182 388Q167 351 167 265Q167 179 182 142Q197 105 241 105Q267 105 288 119Q309 133 326 156Z" glyph-name="a.school" horiz-adv-x="507" unicode="&#57681;" /><glyph d="M354 800 293 592H160L206 800ZM160 162Q160 95 216 95Q242 95 262 106.5Q282 118 296 138V251L240 242Q201 237 180.5 220Q160 203 160 162ZM239 441Q207 441 193.5 424Q180 407 180 363L46 379Q46 417 54 447Q62 477 84 498Q106 519 143.5 530Q181 541 241 541Q295 541 331 532Q367 523 388.5 503Q410 483 419 450.5Q428 418 428 372V138L431 0H313L307 53Q281 18 248 3.5Q215 -11 164 -11Q91 -11 59.5 31.5Q28 74 28 151Q28 193 40 222.5Q52 252 76.5 272.5Q101 293 139 305Q177 317 229 325L296 335V383Q296 410 284 425.5Q272 441 239 441Z" glyph-name="aacute" horiz-adv-x="476" unicode="&#225;" /><glyph d="M364 800 303 592H170L216 800ZM457 138 461 0H343L337 53Q313 21 282 5Q251 -11 205 -11Q117 -11 74.5 55Q32 121 32 265Q32 409 74.5 475Q117 541 205 541Q251 541 282 525Q313 509 337 477L343 530H461L457 392ZM326 374Q309 397 288 411Q267 425 241 425Q197 425 182 388Q167 351 167 265Q167 179 182 142Q197 105 241 105Q267 105 288 119Q309 133 326 156Z" glyph-name="aacute.school" horiz-adv-x="507" unicode="&#57683;" /><glyph d="M230 584Q181 584 150 599Q119 614 101 641.5Q83 669 76.5 709Q70 749 71 800H170Q169 751 181.5 725Q194 699 230 699Q266 699 278.5 725Q291 751 290 800H389Q390 749 383.5 709Q377 669 359 641.5Q341 614 310 599Q279 584 230 584ZM160 162Q160 95 216 95Q242 95 262 106.5Q282 118 296 138V251L240 242Q201 237 180.5 220Q160 203 160 162ZM239 441Q207 441 193.5 424Q180 407 180 363L46 379Q46 417 54 447Q62 477 84 498Q106 519 143.5 530Q181 541 241 541Q295 541 331 532Q367 523 388.5 503Q410 483 419 450.5Q428 418 428 372V138L431 0H313L307 53Q281 18 248 3.5Q215 -11 164 -11Q91 -11 59.5 31.5Q28 74 28 151Q28 193 40 222.5Q52 252 76.5 272.5Q101 293 139 305Q177 317 229 325L296 335V383Q296 410 284 425.5Q272 441 239 441Z" glyph-name="abreve" horiz-adv-x="476" unicode="&#259;" /><glyph d="M240 584Q191 584 160 599Q129 614 111 641.5Q93 669 86.5 709Q80 749 81 800H180Q179 751 191.5 725Q204 699 240 699Q276 699 288.5 725Q301 751 300 800H399Q400 749 393.5 709Q387 669 369 641.5Q351 614 320 599Q289 584 240 584ZM457 138 461 0H343L337 53Q313 21 282 5Q251 -11 205 -11Q117 -11 74.5 55Q32 121 32 265Q32 409 74.5 475Q117 541 205 541Q251 541 282 525Q313 509 337 477L343 530H461L457 392ZM326 374Q309 397 288 411Q267 425 241 425Q197 425 182 388Q167 351 167 265Q167 179 182 142Q197 105 241 105Q267 105 288 119Q309 133 326 156Z" glyph-name="abreve.school" horiz-adv-x="507" unicode="&#57690;" /><glyph d="M63 592 156 800H304L397 592H289L230 705L171 592ZM160 162Q160 95 216 95Q242 95 262 106.5Q282 118 296 138V251L240 242Q201 237 180.5 220Q160 203 160 162ZM239 441Q207 441 193.5 424Q180 407 180 363L46 379Q46 417 54 447Q62 477 84 498Q106 519 143.5 530Q181 541 241 541Q295 541 331 532Q367 523 388.5 503Q410 483 419 450.5Q428 418 428 372V138L431 0H313L307 53Q281 18 248 3.5Q215 -11 164 -11Q91 -11 59.5 31.5Q28 74 28 151Q28 193 40 222.5Q52 252 76.5 272.5Q101 293 139 305Q177 317 229 325L296 335V383Q296 410 284 425.5Q272 441 239 441Z" glyph-name="acircumflex" horiz-adv-x="476" unicode="&#226;" /><glyph d="M73 592 166 800H314L407 592H299L240 705L181 592ZM457 138 461 0H343L337 53Q313 21 282 5Q251 -11 205 -11Q117 -11 74.5 55Q32 121 32 265Q32 409 74.5 475Q117 541 205 541Q251 541 282 525Q313 509 337 477L343 530H461L457 392ZM326 374Q309 397 288 411Q267 425 241 425Q197 425 182 388Q167 351 167 265Q167 179 182 142Q197 105 241 105Q267 105 288 119Q309 133 326 156Z" glyph-name="acircumflex.school" horiz-adv-x="507" unicode="&#57684;" /><glyph d="M434 800 373 592H240L286 800Z" glyph-name="acute" horiz-adv-x="620" unicode="&#180;" /><glyph d="M405 629H266V766H405ZM194 629H55V766H194ZM160 162Q160 95 216 95Q242 95 262 106.5Q282 118 296 138V251L240 242Q201 237 180.5 220Q160 203 160 162ZM239 441Q207 441 193.5 424Q180 407 180 363L46 379Q46 417 54 447Q62 477 84 498Q106 519 143.5 530Q181 541 241 541Q295 541 331 532Q367 523 388.5 503Q410 483 419 450.5Q428 418 428 372V138L431 0H313L307 53Q281 18 248 3.5Q215 -11 164 -11Q91 -11 59.5 31.5Q28 74 28 151Q28 193 40 222.5Q52 252 76.5 272.5Q101 293 139 305Q177 317 229 325L296 335V383Q296 410 284 425.5Q272 441 239 441Z" glyph-name="adieresis" horiz-adv-x="476" unicode="&#228;" /><glyph d="M415 629H276V766H415ZM204 629H65V766H204ZM457 138 461 0H343L337 53Q313 21 282 5Q251 -11 205 -11Q117 -11 74.5 55Q32 121 32 265Q32 409 74.5 475Q117 541 205 541Q251 541 282 525Q313 509 337 477L343 530H461L457 392ZM326 374Q309 397 288 411Q267 425 241 425Q197 425 182 388Q167 351 167 265Q167 179 182 142Q197 105 241 105Q267 105 288 119Q309 133 326 156Z" glyph-name="adieresis.school" horiz-adv-x="507" unicode="&#57685;" /><glyph d="M500 436Q460 436 445.5 406Q431 376 431 307H566Q566 373 553.5 404.5Q541 436 500 436ZM160 159Q160 95 216 95Q239 95 262 106.5Q285 118 302 144Q299 162 296.5 182Q294 202 293 225H241Q201 225 180.5 211Q160 197 160 159ZM431 225Q431 193 434 168.5Q437 144 444.5 127.5Q452 111 465.5 102.5Q479 94 501 94Q536 94 551 111.5Q566 129 566 164L700 147Q700 113 692.5 84Q685 55 664 34Q643 13 604.5 1Q566 -11 505 -11Q446 -11 407 3.5Q368 18 344 47Q323 29 301 17.5Q279 6 258 -0.5Q237 -7 218.5 -9Q200 -11 185 -11Q142 -11 112 1Q82 13 63.5 34.5Q45 56 36.5 85Q28 114 28 148Q28 233 77 270Q126 307 232 307H296V383Q296 410 284 425.5Q272 441 239 441Q207 441 193.5 424Q180 407 180 363L46 379Q46 417 54 447Q62 477 84 498Q106 519 143.5 530Q181 541 241 541Q292 541 324 529Q356 517 374 494Q395 516 426 528.5Q457 541 502 541Q564 541 603.5 523Q643 505 666 470Q689 435 697.5 383.5Q706 332 706 264V225Z" glyph-name="ae" horiz-adv-x="736" unicode="&#230;" /><glyph d="M213 426Q225 441 237.5 462.5Q250 484 260 509Q270 534 276.5 562Q283 590 283 618Q283 638 276.5 651Q270 664 253 664Q235 664 224 642.5Q213 621 213 565ZM273 -14Q224 -14 189.5 -4Q155 6 132.5 25Q110 44 98 70Q86 96 82 129V172Q67 163 50.5 151.5Q34 140 29 138V250L78 287V520Q78 595 91.5 644.5Q105 694 128 724Q151 754 182.5 766Q214 778 250 778Q323 778 355.5 735.5Q388 693 388 616Q388 557 372 505Q356 453 331 408Q306 363 274.5 326Q243 289 213 259V171Q213 133 228.5 120.5Q244 108 277 106Q301 104 323.5 111Q346 118 358 125L369 2Q355 -3 331.5 -8.5Q308 -14 273 -14Z" glyph-name="afii61289" horiz-adv-x="433" unicode="&#8467;" /><glyph d="M254 800 300 592H167L106 800ZM160 162Q160 95 216 95Q242 95 262 106.5Q282 118 296 138V251L240 242Q201 237 180.5 220Q160 203 160 162ZM239 441Q207 441 193.5 424Q180 407 180 363L46 379Q46 417 54 447Q62 477 84 498Q106 519 143.5 530Q181 541 241 541Q295 541 331 532Q367 523 388.5 503Q410 483 419 450.5Q428 418 428 372V138L431 0H313L307 53Q281 18 248 3.5Q215 -11 164 -11Q91 -11 59.5 31.5Q28 74 28 151Q28 193 40 222.5Q52 252 76.5 272.5Q101 293 139 305Q177 317 229 325L296 335V383Q296 410 284 425.5Q272 441 239 441Z" glyph-name="agrave" horiz-adv-x="476" unicode="&#224;" /><glyph d="M264 800 310 592H177L116 800ZM457 138 461 0H343L337 53Q313 21 282 5Q251 -11 205 -11Q117 -11 74.5 55Q32 121 32 265Q32 409 74.5 475Q117 541 205 541Q251 541 282 525Q313 509 337 477L343 530H461L457 392ZM326 374Q309 397 288 411Q267 425 241 425Q197 425 182 388Q167 351 167 265Q167 179 182 142Q197 105 241 105Q267 105 288 119Q309 133 326 156Z" glyph-name="agrave.school" horiz-adv-x="507" unicode="&#57682;" /><glyph d="M247 -27Q299 -30 334 -39.5Q369 -49 390 -62.5Q411 -76 419 -93.5Q427 -111 426 -131Q422 -175 385.5 -194.5Q349 -214 300 -214Q256 -214 227 -206Q198 -198 186 -193L207 -132Q214 -135 223 -139Q231 -142 240 -144.5Q249 -147 260 -148Q285 -150 302 -144Q319 -138 319 -118Q319 -97 292.5 -87Q266 -77 231 -73Z" glyph-name="altcedilla" horiz-adv-x="620" unicode="&#58390;" /><glyph d="M113 764H347V641H113ZM160 162Q160 95 216 95Q242 95 262 106.5Q282 118 296 138V251L240 242Q201 237 180.5 220Q160 203 160 162ZM239 441Q207 441 193.5 424Q180 407 180 363L46 379Q46 417 54 447Q62 477 84 498Q106 519 143.5 530Q181 541 241 541Q295 541 331 532Q367 523 388.5 503Q410 483 419 450.5Q428 418 428 372V138L431 0H313L307 53Q281 18 248 3.5Q215 -11 164 -11Q91 -11 59.5 31.5Q28 74 28 151Q28 193 40 222.5Q52 252 76.5 272.5Q101 293 139 305Q177 317 229 325L296 335V383Q296 410 284 425.5Q272 441 239 441Z" glyph-name="amacron" horiz-adv-x="476" unicode="&#257;" /><glyph d="M123 764H357V641H123ZM457 138 461 0H343L337 53Q313 21 282 5Q251 -11 205 -11Q117 -11 74.5 55Q32 121 32 265Q32 409 74.5 475Q117 541 205 541Q251 541 282 525Q313 509 337 477L343 530H461L457 392ZM326 374Q309 397 288 411Q267 425 241 425Q197 425 182 388Q167 351 167 265Q167 179 182 142Q197 105 241 105Q267 105 288 119Q309 133 326 156Z" glyph-name="amacron.school" horiz-adv-x="507" unicode="&#57689;" /><glyph d="M179 603Q179 576 186 549Q193 522 204 497Q237 524 259.5 551Q282 578 282 610Q282 638 272.5 656Q263 674 233 674Q204 674 191.5 654.5Q179 635 179 603ZM243 104Q292 104 327 143Q254 216 176 318Q155 279 155 226Q155 158 178.5 131Q202 104 243 104ZM505 372Q505 265 474 177Q495 162 515 150V-11Q462 22 410 67Q376 30 331.5 9.5Q287 -11 231 -11Q179 -11 141 5Q103 21 78 50.5Q53 80 40.5 121Q28 162 28 213Q28 277 49 325Q70 373 109 415Q85 460 69 512Q53 564 53 607Q53 652 62.5 686Q72 720 93 743.5Q114 767 147.5 779Q181 791 230 791Q277 791 308.5 779.5Q340 768 358.5 747Q377 726 385 696Q393 666 393 630Q393 594 383.5 564.5Q374 535 356 508.5Q338 482 313 457.5Q288 433 257 406Q286 366 317.5 329.5Q349 293 381 261Q386 285 388.5 312.5Q391 340 391 371Q391 387 388.5 413Q386 439 381 457L492 470Q498 452 501.5 423.5Q505 395 505 372Z" glyph-name="ampersand" horiz-adv-x="544" unicode="&amp;" /><glyph d="M175 350 281 -130H150L40 350L150 830H281Z" glyph-name="anglebracketleft" horiz-adv-x="306" unicode="&#12296;" /><glyph d="M175 390 281 -90H150L40 390L150 870H281Z" glyph-name="anglebracketleft.cap" horiz-adv-x="306" unicode="&#58519;" /><glyph d="M25 830H156L266 350L156 -130H25L132 350Z" glyph-name="anglebracketright" horiz-adv-x="306" unicode="&#12297;" /><glyph d="M25 870H156L266 390L156 -90H25L132 390Z" glyph-name="anglebracketright.cap" horiz-adv-x="306" unicode="&#58520;" /><glyph d="M160 162Q160 95 216 95Q242 95 262 106.5Q282 118 296 138V251L240 242Q201 237 180.5 220Q160 203 160 162ZM239 441Q207 441 193.5 424Q180 407 180 363L46 379Q46 417 54 447Q62 477 84 498Q106 519 143.5 530Q181 541 241 541Q295 541 331 532Q367 523 388.5 503Q410 483 419 450.5Q428 418 428 372V138L431 0Q386 -7 358.5 -31.5Q331 -56 333 -86Q335 -103 346.5 -113.5Q358 -124 382 -120Q399 -118 411 -111Q423 -104 426 -102L452 -189Q436 -200 411.5 -207Q387 -214 356 -214Q310 -214 277.5 -193.5Q245 -173 237 -124Q227 -76 249.5 -39.5Q272 -3 310 22L307 53Q281 18 248 3.5Q215 -11 164 -11Q91 -11 59.5 31.5Q28 74 28 151Q28 193 40 222.5Q52 252 76.5 272.5Q101 293 139 305Q177 317 229 325L296 335V383Q296 410 284 425.5Q272 441 239 441Z" glyph-name="aogonek" horiz-adv-x="476" unicode="&#261;" /><glyph d="M326 374Q309 397 288 411Q267 425 241 425Q197 425 182 388Q167 351 167 265Q167 179 182 142Q197 105 241 105Q267 105 288 119Q309 133 326 156ZM457 138 461 0Q416 -7 388.5 -31.5Q361 -56 363 -86Q365 -103 376.5 -113.5Q388 -124 412 -120Q429 -118 441 -111Q453 -104 456 -102L482 -189Q466 -200 441.5 -207Q417 -214 386 -214Q340 -214 307.5 -193.5Q275 -173 267 -124Q257 -76 279.5 -39.5Q302 -3 340 22L337 53Q313 21 282 5Q251 -11 205 -11Q117 -11 74.5 55Q32 121 32 265Q32 409 74.5 475Q117 541 205 541Q251 541 282 525Q313 509 337 477L343 530H461L457 392Z" glyph-name="aogonek.school" horiz-adv-x="507" unicode="&#57680;" /><glyph d="M230 397Q278 397 310.5 388Q343 379 371 367.5Q399 356 428 347Q457 338 496 338Q518 338 538 345.5Q558 353 572 363Q589 374 603 388L660 290Q642 267 616 249Q594 234 563 221.5Q532 209 491 209Q443 209 410.5 218Q378 227 350 238.5Q322 250 293 259Q264 268 225 268Q202 268 182.5 260Q163 252 149 243Q132 232 118 218L61 316Q79 338 105 356Q127 371 158 384Q189 397 230 397ZM491 388Q443 388 410.5 397Q378 406 350 417.5Q322 429 293 438Q264 447 225 447Q202 447 182.5 439Q163 431 149 422Q132 411 118 397L61 495Q79 517 105 535Q127 550 158 563Q189 576 230 576Q278 576 310.5 567Q343 558 371 546.5Q399 535 428 526Q457 517 496 517Q518 517 538 524.5Q558 532 572 542Q589 553 603 567L660 469Q642 446 616 428Q594 413 563 400.5Q532 388 491 388Z" glyph-name="approxequal" horiz-adv-x="720" unicode="&#8776;" /><glyph d="M275 696Q275 742 230 742Q185 742 185 696Q185 650 230 650Q275 650 275 696ZM112 696Q112 748 142.5 781Q173 814 230 814Q287 814 317.5 781Q348 748 348 696Q348 644 317.5 611Q287 578 230 578Q173 578 142.5 611Q112 644 112 696ZM160 162Q160 95 216 95Q242 95 262 106.5Q282 118 296 138V251L240 242Q201 237 180.5 220Q160 203 160 162ZM239 441Q207 441 193.5 424Q180 407 180 363L46 379Q46 417 54 447Q62 477 84 498Q106 519 143.5 530Q181 541 241 541Q295 541 331 532Q367 523 388.5 503Q410 483 419 450.5Q428 418 428 372V138L431 0H313L307 53Q281 18 248 3.5Q215 -11 164 -11Q91 -11 59.5 31.5Q28 74 28 151Q28 193 40 222.5Q52 252 76.5 272.5Q101 293 139 305Q177 317 229 325L296 335V383Q296 410 284 425.5Q272 441 239 441Z" glyph-name="aring" horiz-adv-x="476" unicode="&#229;" /><glyph d="M285 696Q285 742 240 742Q195 742 195 696Q195 650 240 650Q285 650 285 696ZM122 696Q122 748 152.5 781Q183 814 240 814Q297 814 327.5 781Q358 748 358 696Q358 644 327.5 611Q297 578 240 578Q183 578 152.5 611Q122 644 122 696ZM457 138 461 0H343L337 53Q313 21 282 5Q251 -11 205 -11Q117 -11 74.5 55Q32 121 32 265Q32 409 74.5 475Q117 541 205 541Q251 541 282 525Q313 509 337 477L343 530H461L457 392ZM326 374Q309 397 288 411Q267 425 241 425Q197 425 182 388Q167 351 167 265Q167 179 182 142Q197 105 241 105Q267 105 288 119Q309 133 326 156Z" glyph-name="aring.school" horiz-adv-x="507" unicode="&#57687;" /><glyph d="M760 425 483 -14H397L120 425H271L343 300L379 236L376 398V780H504V398L501 236L537 300L609 425Z" glyph-name="arrowdown" horiz-adv-x="880" unicode="&#8595;" /><glyph d="M475 70 36 347V433L475 710V559L350 487L287 451L449 454H830V326H449L287 329L350 293L475 221Z" glyph-name="arrowleft" horiz-adv-x="880" unicode="&#8592;" /><glyph d="M405 221 530 293 593 329 431 326H50V454H431L593 451L530 487L405 559V710L844 433V347L405 70Z" glyph-name="arrowright" horiz-adv-x="880" unicode="&#8594;" /><glyph d="M120 356 397 794H483L760 356H609L537 480L501 544L504 382V0H376V382L379 544L343 480L271 356Z" glyph-name="arrowup" horiz-adv-x="880" unicode="&#8593;" /><glyph d="M344 794 549 400H408L330 557L285 651L239 557L161 400H20L225 794Z" glyph-name="asciicircum" horiz-adv-x="569" unicode="^" /><glyph d="M488 325Q486 320 476 308Q466 296 449 283Q432 270 408 260.5Q384 251 354 251Q319 251 294.5 259.5Q270 268 249 278.5Q228 289 207.5 297.5Q187 306 161 306Q146 306 133 301.5Q120 297 110.5 291Q101 285 95.5 279.5Q90 274 89 273L32 345Q34 350 44 362.5Q54 375 71 387.5Q88 400 112 409.5Q136 419 166 419Q200 419 225 410.5Q250 402 271 392Q292 382 312.5 373.5Q333 365 359 365Q374 365 387 369.5Q400 374 409.5 380Q419 386 424.5 391Q430 396 431 398Z" glyph-name="asciitilde" horiz-adv-x="511" unicode="~" /><glyph d="M221 780 212 686 301 724 328 640 241 621 298 556 226 504 177 587 128 504 56 556 112 621 26 640 53 724 141 686 133 780Z" glyph-name="asterisk" horiz-adv-x="354" unicode="*" /><glyph d="M579 62 573 115Q565 104 553 92.5Q541 81 525.5 71.5Q510 62 490 56Q470 50 445 50Q347 50 306 112Q265 174 265 296Q265 418 306 479.5Q347 541 445 541Q495 541 526.5 520Q558 499 574 477L579 530H695L691 412V173Q728 174 751.5 188.5Q775 203 787.5 230.5Q800 258 804.5 298Q809 338 809 390Q809 458 798 512.5Q787 567 754 605.5Q721 644 661.5 665Q602 686 506 686Q414 686 351 664Q288 642 248.5 595Q209 548 191.5 474Q174 400 174 295Q174 190 192 116Q210 42 250.5 -5Q291 -52 357 -74Q423 -96 519 -96Q577 -96 625.5 -90.5Q674 -85 716 -75Q758 -65 796 -51.5Q834 -38 871 -21L918 -126Q844 -164 747.5 -187.5Q651 -211 519 -211Q392 -211 302 -179Q212 -147 154.5 -83Q97 -19 70 75.5Q43 170 43 295Q43 420 70 514.5Q97 609 153.5 673Q210 737 297.5 769Q385 801 506 801Q628 801 710.5 769.5Q793 738 843.5 683Q894 628 915.5 553Q937 478 937 390Q937 309 922.5 248Q908 187 876 145.5Q844 104 791.5 83Q739 62 663 62ZM560 372Q528 425 475 425Q432 425 414.5 392Q397 359 397 296Q397 233 414.5 200Q432 167 475 167Q528 167 560 220Z" glyph-name="at" horiz-adv-x="980" unicode="@" /><glyph d="M579 157 573 210Q565 199 553 187.5Q541 176 525.5 166.5Q510 157 490 151Q470 145 445 145Q347 145 306 207Q265 269 265 391Q265 513 306 574.5Q347 636 445 636Q495 636 526.5 615Q558 594 574 572L579 625H695L691 507V268Q728 269 751.5 283.5Q775 298 787.5 325.5Q800 353 804.5 393Q809 433 809 485Q809 553 798 607.5Q787 662 754 700.5Q721 739 661.5 760Q602 781 506 781Q414 781 351 759Q288 737 248.5 690Q209 643 191.5 569Q174 495 174 390Q174 285 192 211Q210 137 250.5 90Q291 43 357 21Q423 -1 519 -1Q577 -1 625.5 4.5Q674 10 716 20Q758 30 796 43.5Q834 57 871 74L918 -31Q844 -69 747.5 -92.5Q651 -116 519 -116Q392 -116 302 -84Q212 -52 154.5 12Q97 76 70 170.5Q43 265 43 390Q43 515 70 609.5Q97 704 153.5 768Q210 832 297.5 864Q385 896 506 896Q628 896 710.5 864.5Q793 833 843.5 778Q894 723 915.5 648Q937 573 937 485Q937 404 922.5 343Q908 282 876 240.5Q844 199 791.5 178Q739 157 663 157ZM560 467Q528 520 475 520Q432 520 414.5 487Q397 454 397 391Q397 328 414.5 295Q432 262 475 262Q528 262 560 315Z" glyph-name="at.cap" horiz-adv-x="980" unicode="&#58643;" /><glyph d="M421 761Q419 726 411.5 696Q404 666 390.5 644Q377 622 357 610Q337 598 309 598Q280 598 259.5 609.5Q239 621 222.5 634.5Q206 648 192.5 660Q179 672 164 672Q153 672 146.5 666Q140 660 137 651.5Q134 643 133 634.5Q132 626 132 621L38 632Q40 667 47.5 697Q55 727 68.5 749Q82 771 102 783Q122 795 150 795Q178 795 199 783.5Q220 772 236 758Q252 744 265.5 732.5Q279 721 294 721Q306 721 312 727Q318 733 321 741Q324 749 325 758Q326 767 327 772ZM160 162Q160 95 216 95Q242 95 262 106.5Q282 118 296 138V251L240 242Q201 237 180.5 220Q160 203 160 162ZM239 441Q207 441 193.5 424Q180 407 180 363L46 379Q46 417 54 447Q62 477 84 498Q106 519 143.5 530Q181 541 241 541Q295 541 331 532Q367 523 388.5 503Q410 483 419 450.5Q428 418 428 372V138L431 0H313L307 53Q281 18 248 3.5Q215 -11 164 -11Q91 -11 59.5 31.5Q28 74 28 151Q28 193 40 222.5Q52 252 76.5 272.5Q101 293 139 305Q177 317 229 325L296 335V383Q296 410 284 425.5Q272 441 239 441Z" glyph-name="atilde" horiz-adv-x="476" unicode="&#227;" /><glyph d="M431 761Q429 726 421.5 696Q414 666 400.5 644Q387 622 367 610Q347 598 319 598Q290 598 269.5 609.5Q249 621 232.5 634.5Q216 648 202.5 660Q189 672 174 672Q163 672 156.5 666Q150 660 147 651.5Q144 643 143 634.5Q142 626 142 621L48 632Q50 667 57.5 697Q65 727 78.5 749Q92 771 112 783Q132 795 160 795Q188 795 209 783.5Q230 772 246 758Q262 744 275.5 732.5Q289 721 304 721Q316 721 322 727Q328 733 331 741Q334 749 335 758Q336 767 337 772ZM457 138 461 0H343L337 53Q313 21 282 5Q251 -11 205 -11Q117 -11 74.5 55Q32 121 32 265Q32 409 74.5 475Q117 541 205 541Q251 541 282 525Q313 509 337 477L343 530H461L457 392ZM326 374Q309 397 288 411Q267 425 241 425Q197 425 182 388Q167 351 167 265Q167 179 182 142Q197 105 241 105Q267 105 288 119Q309 133 326 156Z" glyph-name="atilde.school" horiz-adv-x="507" unicode="&#57686;" /><glyph d="M181 156Q199 133 219.5 119Q240 105 265 105Q310 105 325 142Q340 179 340 265Q340 351 325 388Q310 425 265 425Q240 425 219.5 411Q199 397 181 374ZM301 541Q389 541 432 475Q475 409 475 265Q475 121 432 55Q389 -11 301 -11Q256 -11 225 5Q194 21 170 53L164 0H46L49 138V800H181V487Q202 513 229 527Q256 541 301 541Z" glyph-name="b" horiz-adv-x="507" unicode="b" /><glyph d="M14 870H150L379 -90H243Z" glyph-name="backslash" horiz-adv-x="393" unicode="\" /><glyph d="M27 800H167L363 -20H223Z" glyph-name="backslash.cap" horiz-adv-x="390" unicode="&#58466;" /><glyph d="M179 164 274 69 375 170 476 69 571 164 470 265 571 366 476 461 375 360 274 461 179 366 280 265ZM640 0H110V530H640Z" glyph-name="ballotboxwithx" horiz-adv-x="750" unicode="&#9746;" /><glyph d="M223 -130H88V830H223Z" glyph-name="bar" horiz-adv-x="311" unicode="|" /><glyph d="M223 -20H88V800H223Z" glyph-name="bar.cap" horiz-adv-x="311" unicode="&#58467;" /><glyph d="M96 390Q96 474 128 547.5Q160 621 214.5 675.5Q269 730 342.5 762Q416 794 500 794Q584 794 657.5 762Q731 730 785.5 675.5Q840 621 872 547.5Q904 474 904 390Q904 306 872 232.5Q840 159 785.5 104.5Q731 50 657.5 18Q584 -14 500 -14Q416 -14 342.5 18Q269 50 214.5 104.5Q160 159 128 232.5Q96 306 96 390Z" glyph-name="blackcircle" horiz-adv-x="1000" unicode="&#9679;" /><glyph d="M638 0H108V530H638Z" glyph-name="blacksmallsquare" horiz-adv-x="746" unicode="&#9642;" /><glyph d="M888 0H108V780H888Z" glyph-name="blacksquare" horiz-adv-x="996" unicode="&#9632;" /><glyph d="M325 -130H287Q225 -130 187.5 -113.5Q150 -97 130 -71Q110 -45 103 -12Q96 21 96 53V226Q96 264 79.5 277.5Q63 291 34 291H12V410H34Q63 410 79.5 423.5Q96 437 96 475V647Q96 679 103 711.5Q110 744 130 770.5Q150 797 187.5 813.5Q225 830 287 830H325V709H296Q267 709 247.5 695.5Q228 682 228 644V464Q228 427 212.5 395.5Q197 364 164 350Q197 336 212.5 304.5Q228 273 228 237V56Q228 18 247.5 4.5Q267 -9 296 -9H325Z" glyph-name="braceleft" horiz-adv-x="339" unicode="{" /><glyph d="M325 -90H287Q225 -90 187.5 -73.5Q150 -57 130 -31Q110 -5 103 28Q96 61 96 93V266Q96 304 79.5 317.5Q63 331 34 331H12V450H34Q63 450 79.5 463.5Q96 477 96 515V687Q96 719 103 751.5Q110 784 130 810.5Q150 837 187.5 853.5Q225 870 287 870H325V749H296Q267 749 247.5 735.5Q228 722 228 684V504Q228 467 213 435.5Q198 404 164 390Q198 376 213 344.5Q228 313 228 277V96Q228 58 247.5 44.5Q267 31 296 31H325Z" glyph-name="braceleft.cap" horiz-adv-x="339" unicode="&#58517;" /><glyph d="M13 709V830H51Q112 830 150 813.5Q188 797 208.5 770.5Q229 744 236 711.5Q243 679 243 647V474Q243 436 259 422.5Q275 409 304 409H326V290H304Q275 290 259 276.5Q243 263 243 225V53Q243 21 236 -12Q229 -45 208.5 -71Q188 -97 150 -113.5Q112 -130 51 -130H13V-9H43Q72 -9 91 4.5Q110 18 110 56V236Q110 273 125.5 304.5Q141 336 175 350Q141 364 125.5 395.5Q110 427 110 463V644Q110 682 91 695.5Q72 709 43 709Z" glyph-name="braceright" horiz-adv-x="339" unicode="}" /><glyph d="M13 749V870H51Q112 870 150 853.5Q188 837 208.5 810.5Q229 784 236 751.5Q243 719 243 687V514Q243 476 259 462.5Q275 449 304 449H326V330H304Q275 330 259 316.5Q243 303 243 265V93Q243 61 236 28Q229 -5 208.5 -31Q188 -57 150 -73.5Q112 -90 51 -90H13V31H43Q72 31 91 44.5Q110 58 110 96V276Q110 313 125.5 344.5Q141 376 175 390Q141 404 125.5 435.5Q110 467 110 503V684Q110 722 91 735.5Q72 749 43 749Z" glyph-name="braceright.cap" horiz-adv-x="339" unicode="&#58518;" /><glyph d="M213 709V-9H281V-130H78V830H281V709Z" glyph-name="bracketleft" horiz-adv-x="306" unicode="[" /><glyph d="M213 749V31H281V-90H78V870H281V749Z" glyph-name="bracketleft.cap" horiz-adv-x="306" unicode="&#58515;" /><glyph d="M97 -9V709H30V830H232V-130H30V-9Z" glyph-name="bracketright" horiz-adv-x="310" unicode="]" /><glyph d="M94 31V749H26V870H229V-90H26V31Z" glyph-name="bracketright.cap" horiz-adv-x="307" unicode="&#58516;" /><glyph d="M310 584Q261 584 230 599Q199 614 181 641.5Q163 669 156.5 709Q150 749 151 800H250Q249 751 261.5 725Q274 699 310 699Q346 699 358.5 725Q371 751 370 800H469Q470 749 463.5 709Q457 669 439 641.5Q421 614 390 599Q359 584 310 584Z" glyph-name="breve" horiz-adv-x="620" unicode="&#728;" /><glyph d="M233 394H93V830H233ZM233 -130H93V306H233Z" glyph-name="brokenbar" horiz-adv-x="326" unicode="&#166;" /><glyph d="M233 434H93V800H233ZM233 -20H93V346H233Z" glyph-name="brokenbar.cap" horiz-adv-x="326" unicode="&#58469;" /><glyph d="M379 178H66V492H379Z" glyph-name="bullet" horiz-adv-x="445" unicode="&#8226;" /><glyph d="M379 233H66V547H379Z" glyph-name="bullet.cap" horiz-adv-x="445" unicode="&#58470;" /><glyph d="M167 339Q167 282 188.5 232.5Q210 183 246.5 146.5Q283 110 332.5 88.5Q382 67 439 67Q496 67 545.5 88.5Q595 110 632 146.5Q669 183 690.5 232.5Q712 282 712 339Q712 396 690.5 445.5Q669 495 632 532Q595 569 545.5 590.5Q496 612 439 612Q382 612 332.5 590.5Q283 569 246.5 532Q210 495 188.5 445.5Q167 396 167 339ZM340 390Q340 421 352 448.5Q364 476 384 496Q404 516 431.5 528Q459 540 490 540Q521 540 548.5 528Q576 516 596 496Q616 476 628 448.5Q640 421 640 390Q640 359 628 331.5Q616 304 596 284Q576 264 548.5 252Q521 240 490 240Q459 240 431.5 252Q404 264 384 284Q364 304 352 331.5Q340 359 340 390ZM90 390Q90 473 121.5 546Q153 619 207 673Q261 727 334 758.5Q407 790 490 790Q573 790 646 758.5Q719 727 773 673Q827 619 858.5 546Q890 473 890 390Q890 307 858.5 234Q827 161 773 107Q719 53 646 21.5Q573 -10 490 -10Q407 -10 334 21.5Q261 53 207 107Q153 161 121.5 234Q90 307 90 390Z" glyph-name="bullseye" horiz-adv-x="980" unicode="&#9678;" /><glyph d="M163 265Q163 218 167.5 187Q172 156 181 137Q190 118 204.5 110.5Q219 103 240 103Q280 103 291 122.5Q302 142 302 175L429 158Q429 120 421.5 89Q414 58 393.5 35.5Q373 13 336 1Q299 -11 240 -11Q184 -11 144.5 4Q105 19 80 52Q55 85 43.5 137.5Q32 190 32 265Q32 340 43.5 392.5Q55 445 80 478Q105 511 144.5 526Q184 541 240 541Q299 541 336 529Q373 517 393.5 494.5Q414 472 421.5 441Q429 410 429 372L302 355Q302 388 291 407.5Q280 427 240 427Q219 427 204.5 419.5Q190 412 181 393Q172 374 167.5 343Q163 312 163 265Z" glyph-name="c" horiz-adv-x="456" unicode="c" /><glyph d="M359 800 298 592H165L211 800ZM163 265Q163 218 167.5 187Q172 156 181 137Q190 118 204.5 110.5Q219 103 240 103Q280 103 291 122.5Q302 142 302 175L429 158Q429 120 421.5 89Q414 58 393.5 35.5Q373 13 336 1Q299 -11 240 -11Q184 -11 144.5 4Q105 19 80 52Q55 85 43.5 137.5Q32 190 32 265Q32 340 43.5 392.5Q55 445 80 478Q105 511 144.5 526Q184 541 240 541Q299 541 336 529Q373 517 393.5 494.5Q414 472 421.5 441Q429 410 429 372L302 355Q302 388 291 407.5Q280 427 240 427Q219 427 204.5 419.5Q190 412 181 393Q172 374 167.5 343Q163 312 163 265Z" glyph-name="cacute" horiz-adv-x="456" unicode="&#263;" /><glyph d="M479 800 385 592H235L141 800H249L310 688L371 800Z" glyph-name="caron" horiz-adv-x="620" unicode="&#711;" /><glyph d="M409 800 375 592H289V800Z" glyph-name="caronSlovak" horiz-adv-x="620" unicode="&#58387;" /><glyph d="M404 800 310 592H160L66 800H174L235 688L296 800ZM163 265Q163 218 167.5 187Q172 156 181 137Q190 118 204.5 110.5Q219 103 240 103Q280 103 291 122.5Q302 142 302 175L429 158Q429 120 421.5 89Q414 58 393.5 35.5Q373 13 336 1Q299 -11 240 -11Q184 -11 144.5 4Q105 19 80 52Q55 85 43.5 137.5Q32 190 32 265Q32 340 43.5 392.5Q55 445 80 478Q105 511 144.5 526Q184 541 240 541Q299 541 336 529Q373 517 393.5 494.5Q414 472 421.5 441Q429 410 429 372L302 355Q302 388 291 407.5Q280 427 240 427Q219 427 204.5 419.5Q190 412 181 393Q172 374 167.5 343Q163 312 163 265Z" glyph-name="ccaron" horiz-adv-x="456" unicode="&#269;" /><glyph d="M163 265Q163 218 167.5 187Q172 156 181 137Q190 118 204.5 110.5Q219 103 240 103Q280 103 291 122.5Q302 142 302 175L429 158Q429 122 422.5 92.5Q416 63 398 41Q380 19 348 6Q316 -7 266 -10L259 -36Q310 -46 339 -68Q368 -90 365 -131Q361 -175 324.5 -194.5Q288 -214 239 -214Q195 -214 166 -206Q137 -198 125 -193L146 -132Q153 -135 162 -139Q170 -142 179 -144.5Q188 -147 199 -148Q224 -150 241 -144Q258 -138 258 -118Q258 -97 231.5 -87Q205 -77 170 -73L192 -8Q149 -2 118.5 16.5Q88 35 69 68Q50 101 41 149.5Q32 198 32 265Q32 340 43.5 392.5Q55 445 80 478Q105 511 144.5 526Q184 541 240 541Q299 541 336 529Q373 517 393.5 494.5Q414 472 421.5 441Q429 410 429 372L302 355Q302 388 291 407.5Q280 427 240 427Q219 427 204.5 419.5Q190 412 181 393Q172 374 167.5 343Q163 312 163 265Z" glyph-name="ccedilla" horiz-adv-x="456" unicode="&#231;" /><glyph d="M68 592 161 800H309L402 592H294L235 705L176 592ZM163 265Q163 218 167.5 187Q172 156 181 137Q190 118 204.5 110.5Q219 103 240 103Q280 103 291 122.5Q302 142 302 175L429 158Q429 120 421.5 89Q414 58 393.5 35.5Q373 13 336 1Q299 -11 240 -11Q184 -11 144.5 4Q105 19 80 52Q55 85 43.5 137.5Q32 190 32 265Q32 340 43.5 392.5Q55 445 80 478Q105 511 144.5 526Q184 541 240 541Q299 541 336 529Q373 517 393.5 494.5Q414 472 421.5 441Q429 410 429 372L302 355Q302 388 291 407.5Q280 427 240 427Q219 427 204.5 419.5Q190 412 181 393Q172 374 167.5 343Q163 312 163 265Z" glyph-name="ccircumflex" horiz-adv-x="456" unicode="&#265;" /><glyph d="M307 625H163V768H307ZM163 265Q163 218 167.5 187Q172 156 181 137Q190 118 204.5 110.5Q219 103 240 103Q280 103 291 122.5Q302 142 302 175L429 158Q429 120 421.5 89Q414 58 393.5 35.5Q373 13 336 1Q299 -11 240 -11Q184 -11 144.5 4Q105 19 80 52Q55 85 43.5 137.5Q32 190 32 265Q32 340 43.5 392.5Q55 445 80 478Q105 511 144.5 526Q184 541 240 541Q299 541 336 529Q373 517 393.5 494.5Q414 472 421.5 441Q429 410 429 372L302 355Q302 388 291 407.5Q280 427 240 427Q219 427 204.5 419.5Q190 412 181 393Q172 374 167.5 343Q163 312 163 265Z" glyph-name="cdotaccent" horiz-adv-x="456" unicode="&#267;" /><glyph d="M333 12 320 -36Q371 -46 400 -68Q429 -90 426 -131Q422 -175 385.5 -194.5Q349 -214 300 -214Q256 -214 227 -206Q198 -198 186 -193L207 -132Q214 -135 223 -139Q231 -142 240 -144.5Q249 -147 260 -148Q285 -150 302 -144Q319 -138 319 -118Q319 -97 292.5 -87Q266 -77 231 -73L260 12Z" glyph-name="cedilla" horiz-adv-x="620" unicode="&#184;" /><glyph d="M163 382Q163 335 167.5 303.5Q172 272 181 253Q190 234 204.5 226Q219 218 240 218Q280 218 291 237Q302 256 302 290L429 273Q429 236 422 205Q415 174 395.5 152Q376 130 341.5 117Q307 104 252 103L221 0H104L141 119Q82 143 57 206.5Q32 270 32 382Q32 456 43 508.5Q54 561 78 594.5Q102 628 139.5 644Q177 660 231 661L262 764H378L342 647Q368 638 385 622.5Q402 607 411.5 587Q421 567 425 543Q429 519 429 491L302 474Q302 508 291 527Q280 546 240 546Q219 546 204.5 538Q190 530 181 511Q172 492 167.5 460.5Q163 429 163 382Z" glyph-name="cent" horiz-adv-x="456" unicode="&#162;" /><glyph d="M96 265Q96 323 118 373.5Q140 424 178 462Q216 500 266.5 522Q317 544 375 544Q433 544 483.5 522Q534 500 572 462Q610 424 632 373.5Q654 323 654 265Q654 207 632 156.5Q610 106 572 68Q534 30 483.5 8Q433 -14 375 -14Q317 -14 266.5 8Q216 30 178 68Q140 106 118 156.5Q96 207 96 265Z" glyph-name="circle" horiz-adv-x="750" /><glyph d="M143 592 236 800H384L477 592H369L310 705L251 592Z" glyph-name="circumflex" horiz-adv-x="620" unicode="&#710;" /><glyph d="M359 0Q378 37 391.5 73Q405 109 414.5 147Q424 185 430.5 227Q437 269 441 320L438 321Q425 290 406 261Q387 232 362 209.5Q337 187 306 173.5Q275 160 238 160Q201 160 169 173.5Q137 187 113 210.5Q89 234 75.5 265.5Q62 297 62 334Q62 373 74.5 406Q87 439 110 463Q133 487 165 500.5Q197 514 236 514Q262 514 282.5 507Q303 500 320 491L322 493Q305 518 294.5 547.5Q284 577 284 610Q284 647 297.5 680Q311 713 334.5 737.5Q358 762 390 776Q422 790 460 790Q498 790 530 776Q562 762 585.5 737.5Q609 713 622.5 680Q636 647 636 610Q636 577 625.5 547.5Q615 518 598 493L600 491Q617 500 637.5 507Q658 514 684 514Q723 514 755 500.5Q787 487 810 463Q833 439 845.5 406Q858 373 858 334Q858 297 844.5 265.5Q831 234 807 210.5Q783 187 751 173.5Q719 160 682 160Q645 160 614 173.5Q583 187 558 209.5Q533 232 514 261Q495 290 482 321L479 320Q483 269 489.5 227Q496 185 505.5 147Q515 109 528.5 73Q542 37 561 0Z" glyph-name="club" horiz-adv-x="920" unicode="&#9827;" /><glyph d="M186 338H47V475H186ZM186 0H47V138H186Z" glyph-name="colon" horiz-adv-x="233" unicode=":" /><glyph d="M199 338H60V475H199ZM199 0H60V138H199Z" glyph-name="colon.T" horiz-adv-x="260" /><glyph d="M191 138 128 -126H28L46 138Z" glyph-name="comma" horiz-adv-x="233" unicode="," /><glyph d="M204 138 141 -126H41L59 138Z" glyph-name="comma.T" horiz-adv-x="260" /><glyph d="M378 -62 346 -200H234L244 -62Z" glyph-name="commaaccent" horiz-adv-x="620" unicode="&#58388;" /><glyph d="M347 390Q347 461 376.5 494Q406 527 460 529Q485 530 502.5 525Q520 520 531.5 510Q543 500 549.5 486Q556 472 561 454L700 472Q694 511 680 545Q666 579 638.5 604.5Q611 630 567.5 645Q524 660 460 660Q341 660 274.5 591Q208 522 208 390Q208 258 274.5 189Q341 120 460 120Q524 120 567.5 135Q611 150 638.5 175.5Q666 201 680 235Q694 269 700 308L561 326Q556 308 549.5 294Q543 280 531.5 270Q520 260 502.5 255Q485 250 460 251Q406 253 376.5 286Q347 319 347 390ZM56 390Q56 474 88 547.5Q120 621 174.5 675.5Q229 730 302.5 762Q376 794 460 794Q544 794 617.5 762Q691 730 745.5 675.5Q800 621 832 547.5Q864 474 864 390Q864 306 832 232.5Q800 159 745.5 104.5Q691 50 617.5 18Q544 -14 460 -14Q376 -14 302.5 18Q229 50 174.5 104.5Q120 159 88 232.5Q56 306 56 390Z" glyph-name="copyright" horiz-adv-x="920" unicode="&#169;" /><glyph d="M32 585Q32 643 42 682.5Q52 722 73.5 747Q95 772 128 783Q161 794 207 794Q257 794 289 785Q321 776 340 757.5Q359 739 366 711.5Q373 684 373 648L247 632Q247 658 240 676Q233 694 207 694Q193 694 183 689Q173 684 166.5 672Q160 660 157 639Q154 618 154 585Q154 552 157 531Q160 510 166.5 498Q173 486 183 481Q193 476 207 476Q233 476 240 494Q247 512 247 538L373 522Q373 486 366 458.5Q359 431 340 412.5Q321 394 289 385Q257 376 207 376Q161 376 128 387Q95 398 73.5 422.5Q52 447 42 487Q32 527 32 585Z" glyph-name="cordinal" horiz-adv-x="403" unicode="&#57729;" /><glyph d="M137 214Q115 248 103.5 289.5Q92 331 92 382Q92 432 103.5 474Q115 516 137 550L35 651L123 739L227 635Q299 678 398 678Q495 678 569 635L672 739L760 651L658 550Q680 516 691.5 474.5Q703 433 703 382Q703 331 691.5 289.5Q680 248 658 214L760 113L672 25L568 129Q496 86 398 86Q299 86 227 129L123 25L35 113ZM398 209Q475 209 520 251Q565 293 565 382Q565 471 520 513Q475 555 398 555Q320 555 275.5 513Q231 471 231 382Q231 293 275.5 251Q320 209 398 209Z" glyph-name="currency" horiz-adv-x="795" unicode="&#164;" /><glyph d="M326 374Q309 397 288 411Q267 425 242 425Q198 425 182.5 388Q167 351 167 265Q167 179 182.5 142Q198 105 242 105Q267 105 288 119Q309 133 326 156ZM206 541Q251 541 278.5 527Q306 513 326 487V800H457V138L461 0H343L337 53Q313 21 282 5Q251 -11 206 -11Q118 -11 75 55Q32 121 32 265Q32 409 75 475Q118 541 206 541Z" glyph-name="d" horiz-adv-x="507" unicode="d" /><glyph d="M215 780 205 666 322 676V588L205 598L224 390H117L136 598L20 588V676L136 666L126 780Z" glyph-name="dagger" horiz-adv-x="341" unicode="&#8224;" /><glyph d="M215 780 205 666 322 676V588L204 598L209 552L204 505L322 515V427L205 437L224 229H117L136 437L20 427V515L136 505L132 552L136 598L20 588V676L136 666L126 780Z" glyph-name="daggerdbl" horiz-adv-x="341" unicode="&#8225;" /><glyph d="M617 800 583 592H497V800ZM326 374Q309 397 288 411Q267 425 242 425Q198 425 182.5 388Q167 351 167 265Q167 179 182.5 142Q198 105 242 105Q267 105 288 119Q309 133 326 156ZM206 541Q251 541 278.5 527Q306 513 326 487V800H457V138L461 0H343L337 53Q313 21 282 5Q251 -11 206 -11Q118 -11 75 55Q32 121 32 265Q32 409 75 475Q118 541 206 541Z" glyph-name="dcaron" horiz-adv-x="547" unicode="&#271;" /><glyph d="M326 374Q309 397 288 411Q267 425 242 425Q198 425 182.5 388Q167 351 167 265Q167 179 182.5 142Q198 105 242 105Q267 105 288 119Q309 133 326 156ZM234 724H326V800H457V724H510V614H457V138L461 0H343L337 53Q313 21 282 5Q251 -11 206 -11Q118 -11 75 55Q32 121 32 265Q32 409 75 475Q118 541 206 541Q251 541 278.5 527Q306 513 326 487V614H234Z" glyph-name="dcroat" horiz-adv-x="527" unicode="&#273;" /><glyph d="M243 410Q201 410 165.5 421Q130 432 104 455Q78 478 63.5 512.5Q49 547 49 594Q49 641 63.5 675.5Q78 710 104 733Q130 756 165.5 767Q201 778 243 778Q284 778 319.5 767Q355 756 381 733Q407 710 421.5 675.5Q436 641 436 594Q436 547 421.5 512.5Q407 478 381 455Q355 432 319.5 421Q284 410 243 410ZM243 506Q285 506 309.5 527.5Q334 549 334 594Q334 640 309.5 661Q285 682 243 682Q201 682 176 661Q151 640 151 594Q151 549 176 527.5Q201 506 243 506Z" glyph-name="degree" horiz-adv-x="485" unicode="&#176;" /><glyph d="M827 390Q774 348 722.5 300.5Q671 253 624 201.5Q577 150 535.5 96.5Q494 43 461 -10H459Q426 43 384.5 96.5Q343 150 296 201.5Q249 253 197.5 300.5Q146 348 93 390Q146 432 197.5 479.5Q249 527 296 578.5Q343 630 384.5 683.5Q426 737 459 790H461Q494 737 535.5 683.5Q577 630 624 578.5Q671 527 722.5 479.5Q774 432 827 390Z" glyph-name="diamond" horiz-adv-x="920" unicode="&#9830;" /><glyph d="M485 629H346V766H485ZM274 629H135V766H274Z" glyph-name="dieresis" horiz-adv-x="620" unicode="&#168;" /><glyph d="M435 120H285V270H435ZM435 510H285V660H435ZM90 323V457H630V323Z" glyph-name="divide" horiz-adv-x="720" unicode="&#247;" /><glyph d="M50 457H830V323H50ZM515 0H365V150H515ZM515 630H365V780H515Z" glyph-name="divide.cap" horiz-adv-x="880" unicode="&#58772;" /><glyph d="M216 218Q258 218 276 232.5Q294 247 294 276Q294 307 275 319.5Q256 332 209 340Q177 344 147.5 351.5Q118 359 95.5 375.5Q73 392 59.5 420.5Q46 449 46 496Q46 541 58.5 572Q71 603 95 622.5Q119 642 153.5 651Q188 660 232 661L262 764H379L345 654Q371 649 387 643Q403 637 421 628L390 514Q360 533 327.5 540.5Q295 548 256 548Q217 548 199.5 533Q182 518 182 495Q182 469 197.5 457Q213 445 255 437Q286 432 316.5 424.5Q347 417 371 400.5Q395 384 409.5 354Q424 324 424 274Q424 182 374.5 143Q325 104 230 103L199 0H82L118 113Q91 119 67.5 127Q44 135 27 146L62 261Q104 238 141 228Q178 218 216 218Z" glyph-name="dollar" horiz-adv-x="447" unicode="$" /><glyph d="M379 629H240V766H379Z" glyph-name="dotaccent" horiz-adv-x="620" unicode="&#729;" /><glyph d="M382 -200H238V-73H382Z" glyph-name="dotbelow" horiz-adv-x="620" unicode="&#58389;" /><glyph d="M50 530H181V0H50Z" glyph-name="dotlessi" horiz-adv-x="231" unicode="&#305;" /><glyph d="M181 -69Q181 -138 145 -176Q109 -214 28 -214Q-7 -214 -25.5 -210.5Q-44 -207 -56 -202L-49 -92Q-31 -100 2 -100Q25 -100 37.5 -90.5Q50 -81 50 -52V530H181Z" glyph-name="dotlessj" horiz-adv-x="231" unicode="&#567;" /><glyph d="M431 -130H292V830H431ZM233 -130H93V830H233Z" glyph-name="doublebar" horiz-adv-x="525" unicode="&#8214;" /><glyph d="M431 -20H292V800H431ZM233 -20H93V800H233Z" glyph-name="doublebar.cap" horiz-adv-x="525" unicode="&#58468;" /><glyph d="M233 800 286 592H152L82 800ZM413 800 467 592H332L262 800Z" glyph-name="doublegrave" horiz-adv-x="620" unicode="&#58386;" /><glyph d="M239 436Q200 436 185.5 408Q171 380 170 314H305Q304 377 291.5 406.5Q279 436 239 436ZM170 218Q170 188 173 164.5Q176 141 183.5 125.5Q191 110 204.5 102Q218 94 240 94Q275 94 290 111.5Q305 129 305 164L438 147Q438 113 430.5 84Q423 55 402 34Q381 13 343 1Q305 -11 243 -11Q179 -11 138 7Q97 25 73.5 59.5Q50 94 41 145.5Q32 197 32 265Q32 333 41.5 384.5Q51 436 74.5 471Q98 506 138 523.5Q178 541 240 541Q302 541 341.5 523Q381 505 404 470Q427 435 436 383.5Q445 332 445 264V218Z" glyph-name="e" horiz-adv-x="474" unicode="e" /><glyph d="M361 800 300 592H167L213 800ZM239 436Q200 436 185.5 408Q171 380 170 314H305Q304 377 291.5 406.5Q279 436 239 436ZM170 218Q170 188 173 164.5Q176 141 183.5 125.5Q191 110 204.5 102Q218 94 240 94Q275 94 290 111.5Q305 129 305 164L438 147Q438 113 430.5 84Q423 55 402 34Q381 13 343 1Q305 -11 243 -11Q179 -11 138 7Q97 25 73.5 59.5Q50 94 41 145.5Q32 197 32 265Q32 333 41.5 384.5Q51 436 74.5 471Q98 506 138 523.5Q178 541 240 541Q302 541 341.5 523Q381 505 404 470Q427 435 436 383.5Q445 332 445 264V218Z" glyph-name="eacute" horiz-adv-x="474" unicode="&#233;" /><glyph d="M236 584Q187 584 156 599Q125 614 107 641.5Q89 669 82.5 709Q76 749 77 800H176Q175 751 187.5 725Q200 699 236 699Q272 699 284.5 725Q297 751 296 800H395Q396 749 389.5 709Q383 669 365 641.5Q347 614 316 599Q285 584 236 584ZM239 436Q200 436 185.5 408Q171 380 170 314H305Q304 377 291.5 406.5Q279 436 239 436ZM170 218Q170 188 173 164.5Q176 141 183.5 125.5Q191 110 204.5 102Q218 94 240 94Q275 94 290 111.5Q305 129 305 164L438 147Q438 113 430.5 84Q423 55 402 34Q381 13 343 1Q305 -11 243 -11Q179 -11 138 7Q97 25 73.5 59.5Q50 94 41 145.5Q32 197 32 265Q32 333 41.5 384.5Q51 436 74.5 471Q98 506 138 523.5Q178 541 240 541Q302 541 341.5 523Q381 505 404 470Q427 435 436 383.5Q445 332 445 264V218Z" glyph-name="ebreve" horiz-adv-x="474" unicode="&#277;" /><glyph d="M405 800 311 592H161L67 800H175L236 688L297 800ZM239 436Q200 436 185.5 408Q171 380 170 314H305Q304 377 291.5 406.5Q279 436 239 436ZM170 218Q170 188 173 164.5Q176 141 183.5 125.5Q191 110 204.5 102Q218 94 240 94Q275 94 290 111.5Q305 129 305 164L438 147Q438 113 430.5 84Q423 55 402 34Q381 13 343 1Q305 -11 243 -11Q179 -11 138 7Q97 25 73.5 59.5Q50 94 41 145.5Q32 197 32 265Q32 333 41.5 384.5Q51 436 74.5 471Q98 506 138 523.5Q178 541 240 541Q302 541 341.5 523Q381 505 404 470Q427 435 436 383.5Q445 332 445 264V218Z" glyph-name="ecaron" horiz-adv-x="474" unicode="&#283;" /><glyph d="M70 592 163 800H311L404 592H296L237 705L178 592ZM239 436Q200 436 185.5 408Q171 380 170 314H305Q304 377 291.5 406.5Q279 436 239 436ZM170 218Q170 188 173 164.5Q176 141 183.5 125.5Q191 110 204.5 102Q218 94 240 94Q275 94 290 111.5Q305 129 305 164L438 147Q438 113 430.5 84Q423 55 402 34Q381 13 343 1Q305 -11 243 -11Q179 -11 138 7Q97 25 73.5 59.5Q50 94 41 145.5Q32 197 32 265Q32 333 41.5 384.5Q51 436 74.5 471Q98 506 138 523.5Q178 541 240 541Q302 541 341.5 523Q381 505 404 470Q427 435 436 383.5Q445 332 445 264V218Z" glyph-name="ecircumflex" horiz-adv-x="474" unicode="&#234;" /><glyph d="M412 629H273V766H412ZM201 629H62V766H201ZM239 436Q200 436 185.5 408Q171 380 170 314H305Q304 377 291.5 406.5Q279 436 239 436ZM170 218Q170 188 173 164.5Q176 141 183.5 125.5Q191 110 204.5 102Q218 94 240 94Q275 94 290 111.5Q305 129 305 164L438 147Q438 113 430.5 84Q423 55 402 34Q381 13 343 1Q305 -11 243 -11Q179 -11 138 7Q97 25 73.5 59.5Q50 94 41 145.5Q32 197 32 265Q32 333 41.5 384.5Q51 436 74.5 471Q98 506 138 523.5Q178 541 240 541Q302 541 341.5 523Q381 505 404 470Q427 435 436 383.5Q445 332 445 264V218Z" glyph-name="edieresis" horiz-adv-x="474" unicode="&#235;" /><glyph d="M308 625H164V768H308ZM239 436Q200 436 185.5 408Q171 380 170 314H305Q304 377 291.5 406.5Q279 436 239 436ZM170 218Q170 188 173 164.5Q176 141 183.5 125.5Q191 110 204.5 102Q218 94 240 94Q275 94 290 111.5Q305 129 305 164L438 147Q438 113 430.5 84Q423 55 402 34Q381 13 343 1Q305 -11 243 -11Q179 -11 138 7Q97 25 73.5 59.5Q50 94 41 145.5Q32 197 32 265Q32 333 41.5 384.5Q51 436 74.5 471Q98 506 138 523.5Q178 541 240 541Q302 541 341.5 523Q381 505 404 470Q427 435 436 383.5Q445 332 445 264V218Z" glyph-name="edotaccent" horiz-adv-x="474" unicode="&#279;" /><glyph d="M261 800 307 592H174L113 800ZM239 436Q200 436 185.5 408Q171 380 170 314H305Q304 377 291.5 406.5Q279 436 239 436ZM170 218Q170 188 173 164.5Q176 141 183.5 125.5Q191 110 204.5 102Q218 94 240 94Q275 94 290 111.5Q305 129 305 164L438 147Q438 113 430.5 84Q423 55 402 34Q381 13 343 1Q305 -11 243 -11Q179 -11 138 7Q97 25 73.5 59.5Q50 94 41 145.5Q32 197 32 265Q32 333 41.5 384.5Q51 436 74.5 471Q98 506 138 523.5Q178 541 240 541Q302 541 341.5 523Q381 505 404 470Q427 435 436 383.5Q445 332 445 264V218Z" glyph-name="egrave" horiz-adv-x="474" unicode="&#232;" /><glyph d="M260 -11Q195 -11 152.5 3.5Q110 18 85 45.5Q60 73 49.5 112.5Q39 152 39 201Q39 249 47 282.5Q55 316 68 338.5Q81 361 97.5 374.5Q114 388 132 396Q97 410 74.5 454Q52 498 52 565Q52 622 63 662Q74 702 99 727Q124 752 163.5 763.5Q203 775 260 775Q317 775 356.5 763.5Q396 752 421 727Q446 702 457 662Q468 622 468 565Q468 498 445.5 454Q423 410 388 396Q406 388 422.5 374.5Q439 361 452 338.5Q465 316 473 282.5Q481 249 481 201Q481 152 470.5 112.5Q460 73 435 45.5Q410 18 367 3.5Q324 -11 260 -11ZM260 337Q239 337 222.5 332.5Q206 328 194 315Q182 302 175.5 279.5Q169 257 169 221Q169 162 189.5 135Q210 108 260 108Q310 108 330.5 135Q351 162 351 221Q351 257 344.5 279.5Q338 302 326 315Q314 328 297.5 332.5Q281 337 260 337ZM260 655Q219 655 201.5 632.5Q184 610 184 551Q184 493 204 470Q224 447 260 447Q296 447 316 470Q336 493 336 551Q336 610 318.5 632.5Q301 655 260 655Z" glyph-name="eight" horiz-adv-x="520" unicode="8" /><glyph d="M251 -11Q187 -11 144.5 3.5Q102 18 76.5 45.5Q51 73 40.5 112.5Q30 152 30 201Q30 249 38 282.5Q46 316 59 338.5Q72 361 88.5 374.5Q105 388 123 396Q88 410 65.5 454Q43 498 43 565Q43 622 54.5 662Q66 702 90.5 727Q115 752 154.5 763.5Q194 775 251 775Q308 775 347.5 763.5Q387 752 412 727Q437 702 448 662Q459 622 459 565Q459 498 436.5 454Q414 410 379 396Q397 388 413.5 374.5Q430 361 443 338.5Q456 316 464 282.5Q472 249 472 201Q472 152 461.5 112.5Q451 73 426 45.5Q401 18 358 3.5Q315 -11 251 -11ZM251 337Q230 337 213.5 332.5Q197 328 185 315Q173 302 166.5 279.5Q160 257 160 221Q160 162 180.5 135Q201 108 251 108Q301 108 321.5 135Q342 162 342 221Q342 257 335.5 279.5Q329 302 317 315Q305 328 288.5 332.5Q272 337 251 337ZM251 655Q210 655 192.5 632.5Q175 610 175 551Q175 493 195 470Q215 447 251 447Q287 447 307.5 470Q328 493 328 551Q328 610 310 632.5Q292 655 251 655Z" glyph-name="eight.LP" horiz-adv-x="503" unicode="&#58685;" /><glyph d="M141 -206Q104 -206 80 -198Q56 -190 42.5 -175.5Q29 -161 23.5 -140Q18 -119 18 -93Q18 -48 30 -24.5Q42 -1 61 8Q44 16 35 39Q26 62 26 94Q26 154 51.5 179.5Q77 205 141 205Q204 205 229.5 179.5Q255 154 255 94Q255 62 246 39Q237 16 220 8Q240 -1 251.5 -24.5Q263 -48 263 -93Q263 -119 257.5 -140Q252 -161 238.5 -175.5Q225 -190 201.5 -198Q178 -206 141 -206ZM141 -33Q125 -33 116.5 -41Q108 -49 108 -79Q108 -102 114.5 -113Q121 -124 141 -124Q160 -124 166.5 -113Q173 -102 173 -79Q173 -49 164.5 -41Q156 -33 141 -33ZM141 122Q128 122 122.5 114Q117 106 117 83Q117 42 141 42Q164 42 164 83Q164 106 158.5 114Q153 122 141 122Z" glyph-name="eight.inf" horiz-adv-x="281" unicode="&#58745;" /><glyph d="M910 0H769V139H910ZM580 0H440V139H580ZM251 0H110V139H251Z" glyph-name="ellipsis" horiz-adv-x="1020" unicode="&#8230;" /><glyph d="M119 764H353V641H119ZM239 436Q200 436 185.5 408Q171 380 170 314H305Q304 377 291.5 406.5Q279 436 239 436ZM170 218Q170 188 173 164.5Q176 141 183.5 125.5Q191 110 204.5 102Q218 94 240 94Q275 94 290 111.5Q305 129 305 164L438 147Q438 113 430.5 84Q423 55 402 34Q381 13 343 1Q305 -11 243 -11Q179 -11 138 7Q97 25 73.5 59.5Q50 94 41 145.5Q32 197 32 265Q32 333 41.5 384.5Q51 436 74.5 471Q98 506 138 523.5Q178 541 240 541Q302 541 341.5 523Q381 505 404 470Q427 435 436 383.5Q445 332 445 264V218Z" glyph-name="emacron" horiz-adv-x="474" unicode="&#275;" /><glyph d="M56 273V397H964V273Z" glyph-name="emdash" horiz-adv-x="1020" unicode="&#8212;" /><glyph d="M56 327V451H964V327Z" glyph-name="emdash.cap" horiz-adv-x="1020" unicode="&#58502;" /><glyph glyph-name="emspace" horiz-adv-x="1000" unicode="&#8195;" /><glyph d="M56 273V397H464V273Z" glyph-name="endash" horiz-adv-x="520" unicode="&#8211;" /><glyph d="M56 327V451H464V327Z" glyph-name="endash.cap" horiz-adv-x="520" unicode="&#58500;" /><glyph d="M169 477Q198 507 234 524Q270 541 325 541Q396 541 427 503.5Q458 466 458 399V-69Q458 -138 422 -176Q386 -214 305 -214Q270 -214 251.5 -210.5Q233 -207 221 -202L228 -92Q246 -100 279 -100Q302 -100 314.5 -90.5Q327 -81 327 -52V368Q327 425 272 425Q241 425 218 410.5Q195 396 181 375V0H49V392L46 530H163Z" glyph-name="eng" horiz-adv-x="503" unicode="&#331;" /><glyph glyph-name="enspace" horiz-adv-x="500" unicode="&#8194;" /><glyph d="M239 436Q200 436 185.5 408Q171 380 170 314H305Q304 377 291.5 406.5Q279 436 239 436ZM170 218Q170 188 173 164.5Q176 141 183.5 125.5Q191 110 204.5 102Q218 94 240 94Q275 94 290 111.5Q305 129 305 164L438 147Q438 119 433.5 94.5Q429 70 416 50.5Q403 31 380.5 17Q358 3 322 -4Q287 -15 266 -37.5Q245 -60 247 -86Q249 -103 260.5 -113.5Q272 -124 296 -120Q313 -118 325 -111Q337 -104 340 -102L366 -189Q350 -200 325.5 -207Q301 -214 270 -214Q224 -214 191.5 -193.5Q159 -173 151 -124Q143 -89 154 -59.5Q165 -30 188 -7Q141 0 111 21Q81 42 63.5 76.5Q46 111 39 158Q32 205 32 265Q32 333 41.5 384.5Q51 436 74.5 471Q98 506 138 523.5Q178 541 240 541Q302 541 341.5 523Q381 505 404 470Q427 435 436 383.5Q445 332 445 264V218Z" glyph-name="eogonek" horiz-adv-x="474" unicode="&#281;" /><glyph d="M90 438V572H630V438ZM90 208V342H630V208Z" glyph-name="equal" horiz-adv-x="720" unicode="=" /><glyph d="M50 591H830V457H50ZM50 323H830V189H50Z" glyph-name="equal.cap" horiz-adv-x="880" unicode="&#58773;" /><glyph d="M52 18V103H334V18ZM52 -108V-22H334V-108Z" glyph-name="equal.inf" horiz-adv-x="386" unicode="&#58749;" /><glyph d="M90 323V457H630V323ZM90 526V660H630V526ZM90 120V254H630V120Z" glyph-name="equivalence" horiz-adv-x="720" unicode="&#8801;" /><glyph d="M416 697Q352 697 308 675.5Q264 654 236 617.5Q208 581 194 532.5Q180 484 177 429H653Q650 484 636 532.5Q622 581 594.5 617.5Q567 654 523 675.5Q479 697 416 697ZM177 340Q180 285 194 236.5Q208 188 236 152Q264 116 308.5 94.5Q353 73 417 73Q531 72 598 120Q665 168 681 259H790Q779 187 748 135.5Q717 84 668.5 51Q620 18 556 2Q492 -14 415 -14Q329 -14 257 14Q185 42 133.5 93.5Q82 145 53.5 218.5Q25 292 25 384Q25 475 53.5 549Q82 623 133.5 675Q185 727 257 755Q329 783 415 783Q501 783 573 755Q645 727 696.5 675Q748 623 776.5 549Q805 475 805 384V340Z" glyph-name="estimated" horiz-adv-x="830" unicode="&#8494;" /><glyph d="M242 104Q262 104 276.5 111Q291 118 301 136.5Q311 155 315.5 186Q320 217 320 265Q320 313 315.5 344Q311 375 301 393.5Q291 412 276.5 419Q262 426 242 426Q222 426 207 419Q192 412 182 393.5Q172 375 167.5 344Q163 313 163 265Q163 217 167.5 186Q172 155 182 136.5Q192 118 207 111Q222 104 242 104ZM73 666 186 706Q132 758 52 800H219Q256 776 291 744L425 792V704L348 676Q403 598 427 497Q451 396 451 267V265Q451 185 439 132Q427 79 401.5 47.5Q376 16 336.5 2.5Q297 -11 242 -11Q187 -11 147 2.5Q107 16 81.5 47.5Q56 79 44 132Q32 185 32 265Q32 344 45.5 397Q59 450 83 482Q107 514 141 527.5Q175 541 217 541Q247 541 269.5 532.5Q292 524 310 504Q298 542 282 575.5Q266 609 244 639L73 578Z" glyph-name="eth" horiz-adv-x="483" unicode="&#240;" /><glyph d="M193 780 167 230H65L40 780ZM186 0H47V138H186Z" glyph-name="exclam" horiz-adv-x="233" unicode="!" /><glyph d="M62 -200 86 301H188L211 -200ZM206 392H67V530H206Z" glyph-name="exclamdown" horiz-adv-x="273" unicode="&#161;" /><glyph d="M40 0 66 550H168L193 0ZM47 780H186V642H47Z" glyph-name="exclamdown.cap" horiz-adv-x="233" unicode="&#58433;" /><glyph d="M24 530H83V666Q83 736 123 773.5Q163 811 245 811Q280 811 299 807.5Q318 804 329 799L322 690Q314 693 300.5 696Q287 699 271 699Q242 699 228 688Q214 677 214 647V530H310V420H214V0H83V420H24Z" glyph-name="f" horiz-adv-x="339" unicode="f" /><glyph d="M389 530H520V0H389ZM24 530H83V666Q83 736 123 773.5Q163 811 245 811Q280 811 299 807.5Q318 804 329 799L322 690Q314 693 300.5 696Q287 699 271 699Q242 699 228 688Q214 677 214 647V530H310V420H214V0H83V420H24Z" glyph-name="f_dotlessi" horiz-adv-x="570" /><glyph d="M524 629H385V766H524ZM389 530H520V0H389ZM24 530H83V666Q83 736 123 773.5Q163 811 245 811Q280 811 299 807.5Q318 804 329 799L322 690Q314 693 300.5 696Q287 699 271 699Q242 699 228 688Q214 677 214 647V530H310V420H214V0H83V420H24Z" glyph-name="fi" horiz-adv-x="570" unicode="&#64257;" /><glyph d="M56 273V397H664V273Z" glyph-name="figuredash" horiz-adv-x="720" unicode="&#8210;" /><glyph d="M56 327V451H664V327Z" glyph-name="figuredash.cap" horiz-adv-x="720" unicode="&#58503;" /><glyph glyph-name="figurespace" horiz-adv-x="700" unicode="&#8199;" /><glyph d="M258 106Q303 106 322 141Q341 176 341 253Q341 299 336 328.5Q331 358 321.5 375Q312 392 297.5 398.5Q283 405 264 405Q232 405 209 386Q186 367 175 342L62 359L80 764H450V643H197L189 461Q212 490 240 504.5Q268 519 310 519Q349 519 379.5 506.5Q410 494 431 463.5Q452 433 463.5 381.5Q475 330 475 253Q475 180 461.5 130Q448 80 421 48.5Q394 17 352.5 3Q311 -11 254 -11Q195 -11 155 2Q115 15 91 42.5Q67 70 56.5 112Q46 154 46 212L180 230Q180 196 183.5 172.5Q187 149 195.5 134Q204 119 219 112.5Q234 106 258 106Z" glyph-name="five" horiz-adv-x="520" unicode="5" /><glyph d="M253 106Q299 106 321.5 141Q344 176 344 253Q344 299 338.5 328.5Q333 358 322 375Q311 392 295.5 398.5Q280 405 261 405Q228 405 201 386Q174 367 163 342L50 359L68 764H452V643H185L177 461Q223 518 306 518Q346 518 378 505.5Q410 493 432 462.5Q454 432 465.5 381Q477 330 477 253Q477 180 463.5 130Q450 80 422 48.5Q394 17 351 3Q308 -11 249 -11Q189 -11 148 1Q107 13 82.5 39.5Q58 66 47 109Q36 152 36 215L170 232Q171 194 175.5 169.5Q180 145 189.5 131Q199 117 214.5 111.5Q230 106 253 106Z" glyph-name="five.LP" horiz-adv-x="511" unicode="&#58682;" /><glyph d="M141 -125Q155 -125 161 -111.5Q167 -98 167 -66Q167 -26 160.5 -14Q154 -2 140 -2Q129 -2 119 -10Q109 -18 104 -32L27 -20L37 199H244V115H118L115 49Q127 63 140.5 70Q154 77 175 77Q195 77 210.5 70.5Q226 64 237 47.5Q248 31 254 3.5Q260 -24 260 -66Q260 -146 230 -176Q200 -206 138 -206Q105 -206 83 -199.5Q61 -193 47.5 -178.5Q34 -164 28 -140Q22 -116 22 -81L115 -69Q116 -105 121 -115Q126 -125 141 -125Z" glyph-name="five.inf" horiz-adv-x="281" unicode="&#58742;" /><glyph d="M389 800H521V0H389ZM24 530H83V666Q83 736 123 773.5Q163 811 245 811Q280 811 299 807.5Q318 804 329 799L322 690Q314 693 300.5 696Q287 699 271 699Q242 699 228 688Q214 677 214 647V530H310V420H214V0H83V420H24Z" glyph-name="fl" horiz-adv-x="571" unicode="&#64258;" /><glyph d="M23 454H104V630Q104 700 144.5 737.5Q185 775 267 775Q302 775 320.5 771.5Q339 768 351 763L344 654Q336 657 322.5 660Q309 663 293 663Q264 663 250 652Q236 641 236 611V454H332V343H236V-66Q236 -136 196 -173.5Q156 -211 74 -211Q39 -211 20 -207.5Q1 -204 -11 -199L-4 -90Q4 -93 17.5 -96Q31 -99 47 -99Q76 -99 90 -88Q104 -77 104 -47V343H23Z" glyph-name="florin" horiz-adv-x="373" unicode="&#402;" /><glyph d="M296 609 154 285 289 289ZM417 169V0H289V169H34V276L259 775H417V289H485V169Z" glyph-name="four" horiz-adv-x="520" unicode="4" /><glyph d="M300 609 145 285 293 289ZM420 169V0H293V169H25V268L271 775H420V289H502V169Z" glyph-name="four.LP" horiz-adv-x="527" unicode="&#58681;" /><glyph d="M151 94 100 -35 146 -33ZM235 -116V-200H146V-116H18V-48L131 205H235V-33H263V-116Z" glyph-name="four.inf" horiz-adv-x="281" unicode="&#58741;" /><glyph glyph-name="fourperemspace" horiz-adv-x="250" unicode="&#8197;" /><glyph d="M261 764H365L-26 0H-130Z" glyph-name="fraction" horiz-adv-x="235" unicode="&#8260;" /><glyph d="M375 496V410H236V354H375V268H236V0H101V268H40V354H101V410H40V496H101V764H427V643H236V496Z" glyph-name="franc" horiz-adv-x="451" unicode="&#8355;" /><glyph d="M327 374Q310 397 289.5 411Q269 425 243 425Q199 425 184 390.5Q169 356 169 278Q169 200 184 165.5Q199 131 243 131Q269 131 289.5 144.5Q310 158 327 181ZM207 14Q120 14 77 78Q34 142 34 278Q34 414 76.5 477.5Q119 541 207 541Q253 541 283.5 525Q314 509 338 477L344 530H462L459 392V-28Q459 -125 407 -168Q355 -211 252 -211Q193 -211 153 -201.5Q113 -192 89 -171.5Q65 -151 55 -120Q45 -89 45 -45L174 -28Q173 -65 188 -85.5Q203 -106 248 -106Q293 -106 310 -84.5Q327 -63 327 -21V68Q307 43 280 28.5Q253 14 207 14Z" glyph-name="g" horiz-adv-x="508" unicode="g" /><glyph d="M241 584Q192 584 161 599Q130 614 112 641.5Q94 669 87.5 709Q81 749 82 800H181Q180 751 192.5 725Q205 699 241 699Q277 699 289.5 725Q302 751 301 800H400Q401 749 394.5 709Q388 669 370 641.5Q352 614 321 599Q290 584 241 584ZM327 374Q310 397 289.5 411Q269 425 243 425Q199 425 184 390.5Q169 356 169 278Q169 200 184 165.5Q199 131 243 131Q269 131 289.5 144.5Q310 158 327 181ZM207 14Q120 14 77 78Q34 142 34 278Q34 414 76.5 477.5Q119 541 207 541Q253 541 283.5 525Q314 509 338 477L344 530H462L459 392V-28Q459 -125 407 -168Q355 -211 252 -211Q193 -211 153 -201.5Q113 -192 89 -171.5Q65 -151 55 -120Q45 -89 45 -45L174 -28Q173 -65 188 -85.5Q203 -106 248 -106Q293 -106 310 -84.5Q327 -63 327 -21V68Q307 43 280 28.5Q253 14 207 14Z" glyph-name="gbreve" horiz-adv-x="508" unicode="&#287;" /><glyph d="M74 592 167 800H315L408 592H300L241 705L182 592ZM327 374Q310 397 289.5 411Q269 425 243 425Q199 425 184 390.5Q169 356 169 278Q169 200 184 165.5Q199 131 243 131Q269 131 289.5 144.5Q310 158 327 181ZM207 14Q120 14 77 78Q34 142 34 278Q34 414 76.5 477.5Q119 541 207 541Q253 541 283.5 525Q314 509 338 477L344 530H462L459 392V-28Q459 -125 407 -168Q355 -211 252 -211Q193 -211 153 -201.5Q113 -192 89 -171.5Q65 -151 55 -120Q45 -89 45 -45L174 -28Q173 -65 188 -85.5Q203 -106 248 -106Q293 -106 310 -84.5Q327 -63 327 -21V68Q307 43 280 28.5Q253 14 207 14Z" glyph-name="gcircumflex" horiz-adv-x="508" unicode="&#285;" /><glyph d="M170 592 203 800H314L304 592ZM327 374Q310 397 289.5 411Q269 425 243 425Q199 425 184 390.5Q169 356 169 278Q169 200 184 165.5Q199 131 243 131Q269 131 289.5 144.5Q310 158 327 181ZM207 14Q120 14 77 78Q34 142 34 278Q34 414 76.5 477.5Q119 541 207 541Q253 541 283.5 525Q314 509 338 477L344 530H462L459 392V-28Q459 -125 407 -168Q355 -211 252 -211Q193 -211 153 -201.5Q113 -192 89 -171.5Q65 -151 55 -120Q45 -89 45 -45L174 -28Q173 -65 188 -85.5Q203 -106 248 -106Q293 -106 310 -84.5Q327 -63 327 -21V68Q307 43 280 28.5Q253 14 207 14Z" glyph-name="gcommaaccent" horiz-adv-x="508" unicode="&#291;" /><glyph d="M313 625H169V768H313ZM327 374Q310 397 289.5 411Q269 425 243 425Q199 425 184 390.5Q169 356 169 278Q169 200 184 165.5Q199 131 243 131Q269 131 289.5 144.5Q310 158 327 181ZM207 14Q120 14 77 78Q34 142 34 278Q34 414 76.5 477.5Q119 541 207 541Q253 541 283.5 525Q314 509 338 477L344 530H462L459 392V-28Q459 -125 407 -168Q355 -211 252 -211Q193 -211 153 -201.5Q113 -192 89 -171.5Q65 -151 55 -120Q45 -89 45 -45L174 -28Q173 -65 188 -85.5Q203 -106 248 -106Q293 -106 310 -84.5Q327 -63 327 -21V68Q307 43 280 28.5Q253 14 207 14Z" glyph-name="gdotaccent" horiz-adv-x="508" unicode="&#289;" /><glyph d="M367 406Q367 373 383.5 358Q400 343 443 333Q486 323 515.5 310Q545 297 563.5 277Q582 257 590.5 228Q599 199 599 159Q599 71 548.5 30Q498 -11 398 -11Q349 -11 315 -2.5Q281 6 260 25.5Q239 45 230.5 76Q222 107 225 151L341 166Q340 148 341.5 133.5Q343 119 349 109Q355 99 366.5 94Q378 89 397 89Q432 89 444.5 105.5Q457 122 457 154Q457 190 438.5 205.5Q420 221 382 230Q346 238 318 250Q290 262 271 280.5Q252 299 242.5 325.5Q233 352 233 390Q233 423 240 445.5Q247 468 260 484Q273 500 290.5 511.5Q308 523 329 534Q361 549 380.5 566Q400 583 400 618Q400 698 293 698Q234 698 207.5 675Q181 652 181 607V0H49V612Q49 661 61.5 698Q74 735 102.5 760Q131 785 176.5 798Q222 811 287 811Q352 811 396.5 798Q441 785 468 761Q495 737 507 704Q519 671 519 632Q519 573 495 541Q471 509 434 487Q404 469 385.5 452.5Q367 436 367 406Z" glyph-name="germandbls" horiz-adv-x="625" unicode="&#223;" /><glyph d="M334 800 380 592H247L186 800Z" glyph-name="grave" horiz-adv-x="620" unicode="`" /><glyph d="M345 439 90 545V691L630 447V333L90 89V235L345 341L473 390Z" glyph-name="greater" horiz-adv-x="720" unicode="&gt;" /><glyph d="M668 390 528 449 50 656V794L830 451V329L50 -14V124L528 331Z" glyph-name="greater.cap" horiz-adv-x="880" unicode="&#58775;" /><glyph d="M630 397 90 249V395L325 440L450 460L325 487L90 540V686L630 520ZM90 87V186L630 352V257Z" glyph-name="greaterequal" horiz-adv-x="720" unicode="&#8805;" /><glyph d="M476 126 268 274V356L476 504V394L384 315L476 236ZM260 126 52 274V356L260 504V394L168 315L260 236Z" glyph-name="guillemotleft" horiz-adv-x="536" unicode="&#171;" /><glyph d="M476 201 268 349V431L476 579V469L384 390L476 311ZM260 201 52 349V431L260 579V469L168 390L260 311Z" glyph-name="guillemotleft.cap" horiz-adv-x="536" unicode="&#58451;" /><glyph d="M60 236 152 315 60 394V504L268 356V274L60 126ZM276 236 369 315 276 394V504L484 356V274L276 126Z" glyph-name="guillemotright" horiz-adv-x="536" unicode="&#187;" /><glyph d="M60 311 152 390 60 469V579L268 431V349L60 201ZM276 311 369 390 276 469V579L484 431V349L276 201Z" glyph-name="guillemotright.cap" horiz-adv-x="536" unicode="&#58452;" /><glyph d="M260 126 52 274V356L260 504V394L168 315L260 236Z" glyph-name="guilsinglleft" horiz-adv-x="320" unicode="&#8249;" /><glyph d="M260 201 52 349V431L260 579V469L168 390L260 311Z" glyph-name="guilsinglleft.cap" horiz-adv-x="320" unicode="&#58449;" /><glyph d="M60 236 152 315 60 394V504L268 356V274L60 126Z" glyph-name="guilsinglright" horiz-adv-x="320" unicode="&#8250;" /><glyph d="M60 311 152 390 60 469V579L268 431V349L60 201Z" glyph-name="guilsinglright.cap" horiz-adv-x="320" unicode="&#58450;" /><glyph d="M180 487Q205 512 239 526.5Q273 541 324 541Q395 541 426 503.5Q457 466 457 399V0H326V368Q326 425 271 425Q240 425 217 410.5Q194 396 180 375V0H48V800H180Z" glyph-name="h" horiz-adv-x="502" unicode="h" /><glyph glyph-name="hairspace" horiz-adv-x="100" unicode="&#8202;" /><glyph d="M15 724H68V800H200V724H291V614H200V487Q225 512 259 526.5Q293 541 344 541Q415 541 446 503.5Q477 466 477 399V0H346V368Q346 425 291 425Q260 425 237 410.5Q214 396 200 375V0H68V614H15Z" glyph-name="hbar" horiz-adv-x="522" unicode="&#295;" /><glyph d="M-53 842 40 1050H188L281 842H173L114 955L55 842ZM180 487Q205 512 239 526.5Q273 541 324 541Q395 541 426 503.5Q457 466 457 399V0H326V368Q326 425 271 425Q240 425 217 410.5Q194 396 180 375V0H48V800H180Z" glyph-name="hcircumflex" horiz-adv-x="502" unicode="&#293;" /><glyph d="M459 -10Q447 9 424 40Q401 71 370 110Q339 149 302.5 193.5Q266 238 226 283Q200 312 171 348Q142 384 118 423.5Q94 463 78 504Q62 545 62 584Q62 628 75 666Q88 704 113 731.5Q138 759 173.5 774.5Q209 790 253 790Q299 790 333 777Q367 764 391 742.5Q415 721 431 692.5Q447 664 458 633H462Q473 664 489 692.5Q505 721 529 742.5Q553 764 586.5 777Q620 790 667 790Q711 790 746.5 774.5Q782 759 806.5 731.5Q831 704 844.5 666Q858 628 858 584Q858 545 842 504Q826 463 802 423.5Q778 384 749 348Q720 312 694 283Q654 238 617.5 193.5Q581 149 550 110Q519 71 496 40Q473 9 461 -10Z" glyph-name="heart" horiz-adv-x="920" unicode="&#9829;" /><glyph d="M80 0V450L435 790L790 450V0Z" glyph-name="house" horiz-adv-x="870" unicode="&#8962;" /><glyph d="M538 800 468 592H334L387 800ZM358 800 288 592H153L207 800Z" glyph-name="hungarumlaut" horiz-adv-x="620" unicode="&#733;" /><glyph d="M56 273V397H346V273Z" glyph-name="hyphen" horiz-adv-x="402" unicode="-" /><glyph d="M56 327V451H346V327Z" glyph-name="hyphen.cap" horiz-adv-x="402" unicode="&#58498;" /><glyph d="M185 629H46V766H185ZM50 530H181V0H50Z" glyph-name="i" horiz-adv-x="231" unicode="i" /><glyph d="M243 800 182 592H49L95 800ZM50 530H181V0H50Z" glyph-name="iacute" horiz-adv-x="231" unicode="&#237;" /><glyph d="M115 584Q66 584 35 599Q4 614 -14 641.5Q-32 669 -38.5 709Q-45 749 -44 800H55Q54 751 66.5 725Q79 699 115 699Q151 699 163.5 725Q176 751 175 800H274Q275 749 268.5 709Q262 669 244 641.5Q226 614 195 599Q164 584 115 584ZM50 530H181V0H50Z" glyph-name="ibreve" horiz-adv-x="231" unicode="&#301;" /><glyph d="M-52 592 41 800H189L282 592H174L115 705L56 592ZM50 530H181V0H50Z" glyph-name="icircumflex" horiz-adv-x="231" unicode="&#238;" /><glyph d="M280 629H141V766H280ZM89 629H-50V766H89ZM50 530H181V0H50Z" glyph-name="idieresis" horiz-adv-x="231" unicode="&#239;" /><glyph d="M185 629H46V766H185ZM50 530H181V0H50Z" glyph-name="idotaccent" horiz-adv-x="231" /><glyph d="M135 800 181 592H48L-13 800ZM50 530H181V0H50Z" glyph-name="igrave" horiz-adv-x="231" unicode="&#236;" /><glyph d="M396 629H257V766H396ZM392 -69Q392 -138 356 -176Q320 -214 239 -214Q204 -214 185.5 -210.5Q167 -207 155 -202L162 -92Q180 -100 213 -100Q236 -100 248.5 -90.5Q261 -81 261 -52V530H392ZM185 629H46V766H185ZM50 530H181V0H50Z" glyph-name="ij" horiz-adv-x="442" unicode="&#307;" /><glyph d="M-2 764H232V641H-2ZM50 530H181V0H50Z" glyph-name="imacron" horiz-adv-x="231" unicode="&#299;" /><glyph d="M469 390Q478 378 489 365.5Q500 353 513.5 343Q527 333 543 326Q559 319 579 318Q611 317 633.5 334Q656 351 656 390Q656 429 633.5 445.5Q611 462 579 462Q559 461 543 454Q527 447 513.5 437Q500 427 489 414.5Q478 402 469 390ZM410 310Q378 272 337.5 246Q297 220 242 220Q161 220 112 262.5Q63 305 63 390Q63 475 112 517.5Q161 560 242 560Q297 560 337.5 534Q378 508 410 470Q442 508 482.5 534Q523 560 578 560Q659 560 708 517.5Q757 475 757 390Q757 305 708 262.5Q659 220 578 220Q523 220 482.5 246Q442 272 410 310ZM351 390Q342 402 331 414.5Q320 427 306.5 437Q293 447 277 454Q261 461 241 462Q209 463 186.5 446Q164 429 164 390Q164 351 186.5 334.5Q209 318 241 318Q261 319 277 326Q293 333 306.5 343Q320 353 331 365.5Q342 378 351 390Z" glyph-name="infinity" horiz-adv-x="820" unicode="&#8734;" /><glyph d="M211 -16Q211 -53 202.5 -88.5Q194 -124 171 -152Q148 -180 107 -197Q66 -214 2 -214Q-31 -214 -55.5 -208.5Q-80 -203 -94 -198L-83 -75Q-72 -81 -49.5 -88.5Q-27 -96 -2 -94Q16 -93 30.5 -88.5Q45 -84 54.5 -74.5Q64 -65 69.5 -49Q75 -33 75 -8V605Q75 642 83.5 677.5Q92 713 115.5 741Q139 769 179.5 786Q220 803 285 803Q318 803 342 797.5Q366 792 380 786L369 663Q358 670 335.5 677.5Q313 685 289 683Q253 681 232 663.5Q211 646 211 596Z" glyph-name="integral" horiz-adv-x="286" unicode="&#8747;" /><glyph d="M319 582Q319 625 306.5 646Q294 667 267 672L260 469Q290 487 304.5 510.5Q319 534 319 582ZM304 0H163V139H304ZM325 362Q306 351 288 344Q270 337 256 332L251 190H231L214 671Q184 663 172 633.5Q160 604 160 543L30 560Q30 620 40 664Q50 708 74.5 737Q99 766 140.5 780Q182 794 244 794Q300 794 340 783.5Q380 773 406 749Q432 725 444.5 686Q457 647 457 590Q457 536 447 499.5Q437 463 419 437.5Q401 412 377 394.5Q353 377 325 362Z" glyph-name="interrobang" horiz-adv-x="490" unicode="&#8253;" /><glyph d="M169 -16Q169 -79 221 -89L226 71Q197 54 183 35Q169 16 169 -16ZM186 530H327V391H186ZM165 167Q183 176 200 182Q217 188 230 193L234 300H257L271 -88Q302 -81 315 -53Q328 -25 328 33L457 16Q457 -41 447 -83.5Q437 -126 412.5 -154.5Q388 -183 347 -197Q306 -211 244 -211Q131 -211 80.5 -167Q30 -123 30 -24Q30 21 40.5 50.5Q51 80 69 101Q87 122 111.5 137Q136 152 165 167Z" glyph-name="interrobangdown" horiz-adv-x="490" /><glyph d="M168 198Q168 154 180.5 133.5Q193 113 219 108L226 310Q196 293 182 269Q168 245 168 198ZM183 780H324V641H183ZM258 530 272 109Q303 117 315 146Q327 175 327 237L457 220Q457 160 447 116Q437 72 412.5 43Q388 14 346.5 0Q305 -14 243 -14Q187 -14 147 -3.5Q107 7 81 31Q55 55 42.5 94Q30 133 30 190Q30 244 40 280.5Q50 317 68 342.5Q86 368 110 385.5Q134 403 162 418Q181 428 199 435Q217 442 231 447L234 530Z" glyph-name="interrobangdown.cap" horiz-adv-x="490" /><glyph d="M310 808Q359 808 390 793Q421 778 439 750.5Q457 723 463.5 683Q470 643 469 592H370Q371 641 358.5 667Q346 693 310 693Q274 693 261.5 667Q249 641 250 592H151Q150 643 156.5 683Q163 723 181 750.5Q199 778 230 793Q261 808 310 808Z" glyph-name="invertedbreve" horiz-adv-x="620" unicode="&#58385;" /><glyph d="M185 629H46V766H185ZM-3 -124Q-11 -80 4.5 -46Q20 -12 50 12V530H181V0Q136 -7 113.5 -31.5Q91 -56 93 -86Q95 -103 106.5 -113.5Q118 -124 142 -120Q159 -118 171 -111Q183 -104 186 -102L212 -189Q196 -200 171.5 -207Q147 -214 116 -214Q70 -214 37.5 -193.5Q5 -173 -3 -124Z" glyph-name="iogonek" horiz-adv-x="231" unicode="&#303;" /><glyph d="M306 761Q304 726 296.5 696Q289 666 275.5 644Q262 622 242 610Q222 598 194 598Q165 598 144.5 609.5Q124 621 107.5 634.5Q91 648 77.5 660Q64 672 49 672Q38 672 31.5 666Q25 660 22 651.5Q19 643 18 634.5Q17 626 17 621L-77 632Q-75 667 -67.5 697Q-60 727 -46.5 749Q-33 771 -13 783Q7 795 35 795Q63 795 84 783.5Q105 772 121 758Q137 744 150.5 732.5Q164 721 179 721Q191 721 197 727Q203 733 206 741Q209 749 210 758Q211 767 212 772ZM50 530H181V0H50Z" glyph-name="itilde" horiz-adv-x="231" unicode="&#297;" /><glyph d="M185 629H46V766H185ZM181 -69Q181 -138 145 -176Q109 -214 28 -214Q-7 -214 -25.5 -210.5Q-44 -207 -56 -202L-49 -92Q-31 -100 2 -100Q25 -100 37.5 -90.5Q50 -81 50 -52V530H181Z" glyph-name="j" horiz-adv-x="231" unicode="j" /><glyph d="M-52 592 41 800H189L282 592H174L115 705L56 592ZM181 -69Q181 -138 145 -176Q109 -214 28 -214Q-7 -214 -25.5 -210.5Q-44 -207 -56 -202L-49 -92Q-31 -100 2 -100Q25 -100 37.5 -90.5Q50 -81 50 -52V530H181Z" glyph-name="jcircumflex" horiz-adv-x="231" unicode="&#309;" /><glyph d="M303 530H460L308 323L476 0H322L224 209L176 142L180 0H48V800H180L176 320Z" glyph-name="k" horiz-adv-x="490" unicode="k" /><glyph d="M314 -62 282 -200H170L180 -62ZM303 530H460L308 323L476 0H322L224 209L176 142L180 0H48V800H180L176 320Z" glyph-name="kcommaaccent" horiz-adv-x="490" unicode="&#311;" /><glyph d="M303 530H460L308 323L476 0H322L224 209L176 142L180 0H48V530H180L176 320Z" glyph-name="kgreenlandic" horiz-adv-x="490" unicode="&#312;" /><glyph d="M50 800H182V0H50Z" glyph-name="l" horiz-adv-x="232" unicode="l" /><glyph d="M240 1050 179 842H46L92 1050ZM50 800H182V0H50Z" glyph-name="lacute" horiz-adv-x="232" unicode="&#314;" /><glyph d="M342 800 308 592H222V800ZM50 800H182V0H50Z" glyph-name="lcaron" horiz-adv-x="272" unicode="&#318;" /><glyph d="M183 -62 151 -200H39L49 -62ZM50 800H182V0H50Z" glyph-name="lcommaaccent" horiz-adv-x="232" unicode="&#316;" /><glyph d="M380 264H234V408H380ZM50 800H182V0H50Z" glyph-name="ldot" horiz-adv-x="402" unicode="&#320;" /><glyph d="M247 390 375 341 630 235V89L90 333V447L630 691V545L375 439Z" glyph-name="less" horiz-adv-x="720" unicode="&lt;" /><glyph d="M212 390 352 331 830 124V-14L50 329V451L830 794V656L352 449Z" glyph-name="less.cap" horiz-adv-x="880" unicode="&#58774;" /><glyph d="M90 520 630 686V540L395 487L270 460L395 440L630 395V249L90 397ZM90 257V352L630 186V87Z" glyph-name="lessequal" horiz-adv-x="720" unicode="&#8804;" /><glyph d="M247 250V121H516V0H40V121H115V250H40V336H115V392H40V479H115V571Q115 620 121.5 658.5Q128 697 149 722.5Q170 748 209.5 761.5Q249 775 314 775Q379 775 418.5 761.5Q458 748 479 722.5Q500 697 507 658.5Q514 620 514 571L382 554Q382 582 380 603Q378 624 371 637.5Q364 651 350.5 657.5Q337 664 314 664Q291 664 277.5 657.5Q264 651 257.5 637.5Q251 624 249 603Q247 582 247 554V479H387V392H247V336H387V250Z" glyph-name="lira" horiz-adv-x="554" unicode="&#8356;" /><glyph d="M496 438H90V572H630V208H496Z" glyph-name="logicalnot" horiz-adv-x="720" unicode="&#172;" /><glyph d="M31 0V97H322V0Z" glyph-name="lowline" horiz-adv-x="353" unicode="&#58641;" /><glyph d="M460 176 653 390 460 604 267 390ZM92 390 460 790 828 390 460 -10Z" glyph-name="lozenge" horiz-adv-x="920" unicode="&#9674;" /><glyph d="M215 393V0H83V312L20 273V376L83 415V800H215V497L288 542V438Z" glyph-name="lslash" horiz-adv-x="315" unicode="&#322;" /><glyph d="M170 475Q225 541 316 541Q343 541 362 535Q381 529 394 519.5Q407 510 414 499Q421 488 424 478Q449 507 487 524Q525 541 571 541Q637 541 664.5 505Q692 469 692 410V0H560V378Q560 399 549.5 412Q539 425 513 425Q489 425 470 413Q451 401 436 380V0H305V378Q305 399 294 412Q283 425 257 425Q234 425 214.5 413Q195 401 181 380V0H49V392L46 530H164Z" glyph-name="m" horiz-adv-x="737" unicode="m" /><glyph d="M193 764H427V641H193Z" glyph-name="macron" horiz-adv-x="620" unicode="&#175;" /><glyph d="M90 323V457H630V323Z" glyph-name="minus" horiz-adv-x="720" unicode="&#8722;" /><glyph d="M50 457H830V323H50Z" glyph-name="minus.cap" horiz-adv-x="880" unicode="&#58770;" /><glyph d="M52 -45V41H334V-45Z" glyph-name="minus.inf" horiz-adv-x="386" unicode="&#58748;" /><glyph d="M204 764 156 423H47V764Z" glyph-name="minute" horiz-adv-x="251" unicode="&#8242;" /><glyph d="M334 53Q313 20 276 4.5Q239 -11 204 -11Q196 -11 189.5 -10.5Q183 -10 176 -10V-200H45V530H176V162Q176 105 230 105Q262 105 284.5 119.5Q307 134 322 155V530H454V138L457 0H340Z" glyph-name="mu" horiz-adv-x="503" unicode="&#181;" /><glyph d="M265 390 95 560 190 655 360 485 530 655 625 560 455 390 625 220 530 125 360 295 190 125 95 220Z" glyph-name="multiply" horiz-adv-x="720" unicode="&#215;" /><glyph d="M345 390 36 699 131 794 440 485 749 794 844 699 535 390 844 81 749 -14 440 295 131 -14 36 81Z" glyph-name="multiply.cap" horiz-adv-x="880" unicode="&#58771;" /><glyph d="M151 73Q183 86 222 110.5Q261 135 295.5 169.5Q330 204 353.5 248Q377 292 377 345Q377 367 372 386Q367 405 356 419Q345 433 325.5 441Q306 449 278 449Q254 449 233 439Q212 429 195.5 413Q179 397 167 377Q155 357 151 337ZM67 821H151V478Q160 492 175.5 504Q191 516 209.5 524.5Q228 533 248 538Q268 543 288 543Q387 543 430.5 492Q474 441 474 347Q474 278 439.5 214Q405 150 348 96.5Q291 43 217.5 1.5Q144 -40 67 -64Z" glyph-name="musicflatsign" horiz-adv-x="512" unicode="&#9837;" /><glyph d="M151 275 253 357V504L151 422ZM336 700V-50H253V229L67 80V830H151V550Z" glyph-name="musicnaturalsign" horiz-adv-x="404" /><glyph d="M192 275 294 357V504L192 422ZM378 700 456 763V635L378 572V425L456 487V359L378 297V0H294V229L192 147V-100H108V80L30 17V145L108 208V355L30 293V421L108 483V780H192V550L294 632V880H378Z" glyph-name="musicsharpsign" horiz-adv-x="486" unicode="&#9839;" /><glyph d="M169 477Q198 507 234 524Q270 541 325 541Q396 541 427 503.5Q458 466 458 399V0H327V368Q327 425 272 425Q241 425 218 410.5Q195 396 181 375V0H49V392L46 530H163Z" glyph-name="n" horiz-adv-x="503" unicode="n" /><glyph d="M376 800 315 592H182L228 800ZM169 477Q198 507 234 524Q270 541 325 541Q396 541 427 503.5Q458 466 458 399V0H327V368Q327 425 272 425Q241 425 218 410.5Q195 396 181 375V0H49V392L46 530H163Z" glyph-name="nacute" horiz-adv-x="503" unicode="&#324;" /><glyph d="M421 800 327 592H177L83 800H191L252 688L313 800ZM169 477Q198 507 234 524Q270 541 325 541Q396 541 427 503.5Q458 466 458 399V0H327V368Q327 425 272 425Q241 425 218 410.5Q195 396 181 375V0H49V392L46 530H163Z" glyph-name="ncaron" horiz-adv-x="503" unicode="&#328;" /><glyph d="M318 -62 286 -200H174L184 -62ZM169 477Q198 507 234 524Q270 541 325 541Q396 541 427 503.5Q458 466 458 399V0H327V368Q327 425 272 425Q241 425 218 410.5Q195 396 181 375V0H49V392L46 530H163Z" glyph-name="ncommaaccent" horiz-adv-x="503" unicode="&#326;" /><glyph d="M247 371Q280 371 299.5 390Q319 409 335 442Q335 561 317.5 610.5Q300 660 259 660Q236 660 221 652Q206 644 198 626.5Q190 609 187 582Q184 555 184 516Q184 436 199.5 403.5Q215 371 247 371ZM258 104Q285 104 300.5 115Q316 126 324 152Q332 178 334 222.5Q336 267 336 334Q312 290 278 272.5Q244 255 194 255Q115 255 82 315.5Q49 376 49 512Q49 578 59 627.5Q69 677 93 709.5Q117 742 157.5 758.5Q198 775 259 775Q327 775 368.5 754.5Q410 734 433 687.5Q456 641 463.5 566Q471 491 471 383Q471 282 463.5 208Q456 134 433 85.5Q410 37 366.5 13Q323 -11 250 -11Q192 -11 154.5 1.5Q117 14 95.5 39Q74 64 65 101.5Q56 139 55 188L188 205Q189 178 192 159Q195 140 202.5 127.5Q210 115 223.5 109.5Q237 104 258 104Z" glyph-name="nine" horiz-adv-x="520" unicode="9" /><glyph d="M248 371Q290 371 313.5 394.5Q337 418 357 459Q357 519 351 558Q345 597 333 619.5Q321 642 303 651Q285 660 261 660Q207 660 185 627Q163 594 163 516Q163 436 182.5 403.5Q202 371 248 371ZM247 104Q280 104 301.5 116.5Q323 129 335.5 158Q348 187 353 233.5Q358 280 358 348Q326 293 285 274Q244 255 191 255Q107 255 67.5 316.5Q28 378 28 512Q28 577 40 626Q52 675 79 708Q106 741 150 758Q194 775 259 775Q331 775 376.5 754.5Q422 734 447.5 687.5Q473 641 482.5 566Q492 491 492 383Q492 282 482 208Q472 134 444 85.5Q416 37 366.5 13Q317 -11 239 -11Q182 -11 142 -0.5Q102 10 77.5 33Q53 56 41.5 92Q30 128 30 178L163 196Q165 141 185.5 122.5Q206 104 247 104Z" glyph-name="nine.LP" horiz-adv-x="536" unicode="&#58686;" /><glyph d="M136 5Q147 5 152 11Q157 17 162 27Q162 79 157.5 102.5Q153 126 141 126Q124 126 121.5 112Q119 98 119 66Q119 34 123 19.5Q127 5 136 5ZM142 -127Q149 -127 153 -124Q157 -121 159 -112Q161 -103 161.5 -86Q162 -69 162 -42Q151 -62 136 -68.5Q121 -75 98 -75Q57 -75 41 -42.5Q25 -10 25 63Q25 135 49.5 170Q74 205 141 205Q178 205 201 194Q224 183 236 158.5Q248 134 252 95Q256 56 256 0Q256 -51 252.5 -89.5Q249 -128 236 -154Q223 -180 199 -193Q175 -206 135 -206Q104 -206 84 -200Q64 -194 52 -181Q40 -168 35 -148Q30 -128 29 -100L122 -88Q123 -111 125.5 -119Q128 -127 142 -127Z" glyph-name="nine.inf" horiz-adv-x="281" unicode="&#58746;" /><glyph glyph-name="nonbreakingspace" horiz-adv-x="167" unicode="&#160;" /><glyph d="M303 208 264 146H150L189 208H90V342H273L333 438H90V572H417L456 634H570L531 572H630V438H447L387 342H630V208Z" glyph-name="notequal" horiz-adv-x="720" unicode="&#8800;" /><glyph d="M443 761Q441 726 433.5 696Q426 666 412.5 644Q399 622 379 610Q359 598 331 598Q302 598 281.5 609.5Q261 621 244.5 634.5Q228 648 214.5 660Q201 672 186 672Q175 672 168.5 666Q162 660 159 651.5Q156 643 155 634.5Q154 626 154 621L60 632Q62 667 69.5 697Q77 727 90.5 749Q104 771 124 783Q144 795 172 795Q200 795 221 783.5Q242 772 258 758Q274 744 287.5 732.5Q301 721 316 721Q328 721 334 727Q340 733 343 741Q346 749 347 758Q348 767 349 772ZM169 477Q198 507 234 524Q270 541 325 541Q396 541 427 503.5Q458 466 458 399V0H327V368Q327 425 272 425Q241 425 218 410.5Q195 396 181 375V0H49V392L46 530H163Z" glyph-name="ntilde" horiz-adv-x="503" unicode="&#241;" /><glyph d="M200 296H291L320 468H229ZM63 588H140L171 764H279L249 588H339L369 764H478L448 588H498V468H428L400 296H458V176H378L349 0H240L270 176H180L150 0H42L71 176H22V296H91L120 468H63Z" glyph-name="numbersign" horiz-adv-x="520" unicode="#" /><glyph d="M200 296H291L320 468H229ZM63 588H140L171 764H279L249 588H339L369 764H478L448 588H498V468H428L400 296H458V176H378L349 0H240L270 176H180L150 0H42L71 176H22V296H91L120 468H63Z" glyph-name="numbersign.LP" horiz-adv-x="520" unicode="&#58675;" /><glyph d="M242 426Q222 426 207 419Q192 412 182 393.5Q172 375 167.5 344Q163 313 163 265Q163 217 167.5 186Q172 155 182 136.5Q192 118 207 111Q222 104 242 104Q262 104 277 111Q292 118 301.5 136.5Q311 155 316 186Q321 217 321 265Q321 313 316 344Q311 375 301.5 393.5Q292 412 277 419Q262 426 242 426ZM242 541Q297 541 337 527.5Q377 514 402.5 482.5Q428 451 440 397.5Q452 344 452 265Q452 186 440 133Q428 80 402.5 48Q377 16 337 2.5Q297 -11 242 -11Q187 -11 147 2.5Q107 16 81.5 47.5Q56 79 44 132Q32 185 32 265Q32 344 44 397Q56 450 81.5 482Q107 514 147 527.5Q187 541 242 541Z" glyph-name="o" horiz-adv-x="484" unicode="o" /><glyph d="M365 800 304 592H171L217 800ZM242 426Q222 426 207 419Q192 412 182 393.5Q172 375 167.5 344Q163 313 163 265Q163 217 167.5 186Q172 155 182 136.5Q192 118 207 111Q222 104 242 104Q262 104 277 111Q292 118 301.5 136.5Q311 155 316 186Q321 217 321 265Q321 313 316 344Q311 375 301.5 393.5Q292 412 277 419Q262 426 242 426ZM242 541Q297 541 337 527.5Q377 514 402.5 482.5Q428 451 440 397.5Q452 344 452 265Q452 186 440 133Q428 80 402.5 48Q377 16 337 2.5Q297 -11 242 -11Q187 -11 147 2.5Q107 16 81.5 47.5Q56 79 44 132Q32 185 32 265Q32 344 44 397Q56 450 81.5 482Q107 514 147 527.5Q187 541 242 541Z" glyph-name="oacute" horiz-adv-x="484" unicode="&#243;" /><glyph d="M241 584Q191 584 160 599Q129 614 112 641.5Q95 669 88.5 709Q82 749 82 800H181Q181 751 192.5 725Q204 699 241 699Q278 699 289.5 725Q301 751 301 800H400Q400 749 393.5 709Q387 669 369.5 641.5Q352 614 321 599Q290 584 241 584ZM242 426Q222 426 207 419Q192 412 182 393.5Q172 375 167.5 344Q163 313 163 265Q163 217 167.5 186Q172 155 182 136.5Q192 118 207 111Q222 104 242 104Q262 104 277 111Q292 118 301.5 136.5Q311 155 316 186Q321 217 321 265Q321 313 316 344Q311 375 301.5 393.5Q292 412 277 419Q262 426 242 426ZM242 541Q297 541 337 527.5Q377 514 402.5 482.5Q428 451 440 397.5Q452 344 452 265Q452 186 440 133Q428 80 402.5 48Q377 16 337 2.5Q297 -11 242 -11Q187 -11 147 2.5Q107 16 81.5 47.5Q56 79 44 132Q32 185 32 265Q32 344 44 397Q56 450 81.5 482Q107 514 147 527.5Q187 541 242 541Z" glyph-name="obreve" horiz-adv-x="484" unicode="&#335;" /><glyph d="M74 592 167 800H315L408 592H300L241 705L182 592ZM242 426Q222 426 207 419Q192 412 182 393.5Q172 375 167.5 344Q163 313 163 265Q163 217 167.5 186Q172 155 182 136.5Q192 118 207 111Q222 104 242 104Q262 104 277 111Q292 118 301.5 136.5Q311 155 316 186Q321 217 321 265Q321 313 316 344Q311 375 301.5 393.5Q292 412 277 419Q262 426 242 426ZM242 541Q297 541 337 527.5Q377 514 402.5 482.5Q428 451 440 397.5Q452 344 452 265Q452 186 440 133Q428 80 402.5 48Q377 16 337 2.5Q297 -11 242 -11Q187 -11 147 2.5Q107 16 81.5 47.5Q56 79 44 132Q32 185 32 265Q32 344 44 397Q56 450 81.5 482Q107 514 147 527.5Q187 541 242 541Z" glyph-name="ocircumflex" horiz-adv-x="484" unicode="&#244;" /><glyph d="M416 629H277V766H416ZM205 629H66V766H205ZM242 426Q222 426 207 419Q192 412 182 393.5Q172 375 167.5 344Q163 313 163 265Q163 217 167.5 186Q172 155 182 136.5Q192 118 207 111Q222 104 242 104Q262 104 277 111Q292 118 301.5 136.5Q311 155 316 186Q321 217 321 265Q321 313 316 344Q311 375 301.5 393.5Q292 412 277 419Q262 426 242 426ZM242 541Q297 541 337 527.5Q377 514 402.5 482.5Q428 451 440 397.5Q452 344 452 265Q452 186 440 133Q428 80 402.5 48Q377 16 337 2.5Q297 -11 242 -11Q187 -11 147 2.5Q107 16 81.5 47.5Q56 79 44 132Q32 185 32 265Q32 344 44 397Q56 450 81.5 482Q107 514 147 527.5Q187 541 242 541Z" glyph-name="odieresis" horiz-adv-x="484" unicode="&#246;" /><glyph d="M527 436Q487 436 472.5 406Q458 376 458 307H592Q592 373 580 404.5Q568 436 527 436ZM242 104Q262 104 276.5 111Q291 118 301 136.5Q311 155 315.5 186Q320 217 320 265Q320 313 315.5 344Q311 375 301 393.5Q291 412 276.5 419Q262 426 242 426Q222 426 207 419Q192 412 182 393.5Q172 375 167.5 344Q163 313 163 265Q163 217 167.5 186Q172 155 182 136.5Q192 118 207 111Q222 104 242 104ZM458 225Q458 161 471 127.5Q484 94 528 94Q563 94 577.5 111.5Q592 129 592 164L726 147Q726 113 718.5 84Q711 55 690 34Q669 13 631 1Q593 -11 531 -11Q475 -11 440 6.5Q405 24 384 54Q362 22 327.5 5.5Q293 -11 242 -11Q187 -11 147 2.5Q107 16 81.5 47.5Q56 79 44 132Q32 185 32 265Q32 344 44 397Q56 450 81.5 482Q107 514 147 527.5Q187 541 242 541Q293 541 328 523.5Q363 506 385 474Q405 505 439.5 523Q474 541 528 541Q590 541 629.5 523Q669 505 692 470Q715 435 724 383.5Q733 332 733 264V225Z" glyph-name="oe" horiz-adv-x="762" unicode="&#339;" /><glyph d="M516 0Q471 -7 443.5 -31.5Q416 -56 418 -86Q420 -103 431.5 -113.5Q443 -124 467 -120Q484 -118 496 -111Q508 -104 511 -102L537 -189Q521 -200 496.5 -207Q472 -214 441 -214Q395 -214 362.5 -193.5Q330 -173 322 -124Q315 -88 326.5 -58.5Q338 -29 361 -5.5Q384 18 415 34.5Q446 51 478 61Z" glyph-name="ogonek" horiz-adv-x="620" unicode="&#731;" /><glyph d="M265 800 311 592H178L117 800ZM242 426Q222 426 207 419Q192 412 182 393.5Q172 375 167.5 344Q163 313 163 265Q163 217 167.5 186Q172 155 182 136.5Q192 118 207 111Q222 104 242 104Q262 104 277 111Q292 118 301.5 136.5Q311 155 316 186Q321 217 321 265Q321 313 316 344Q311 375 301.5 393.5Q292 412 277 419Q262 426 242 426ZM242 541Q297 541 337 527.5Q377 514 402.5 482.5Q428 451 440 397.5Q452 344 452 265Q452 186 440 133Q428 80 402.5 48Q377 16 337 2.5Q297 -11 242 -11Q187 -11 147 2.5Q107 16 81.5 47.5Q56 79 44 132Q32 185 32 265Q32 344 44 397Q56 450 81.5 482Q107 514 147 527.5Q187 541 242 541Z" glyph-name="ograve" horiz-adv-x="484" unicode="&#242;" /><glyph d="M360 655Q269 655 220 600Q171 545 171 451Q171 393 184 343Q197 293 219 250.5Q241 208 269 173Q297 138 326 111V0H29V123H108L191 121Q162 152 135 191Q108 230 87 274.5Q66 319 53.5 368Q41 417 41 468Q41 536 62.5 593Q84 650 125.5 691Q167 732 226 755Q285 778 360 778Q435 778 494 755Q553 732 594.5 691Q636 650 657.5 593Q679 536 679 468Q679 417 666.5 368Q654 319 633 274.5Q612 230 585 191Q558 152 529 121L612 123H691V0H394V111Q423 138 451 173Q479 208 500.5 250.5Q522 293 535.5 343Q549 393 549 451Q549 545 500 600Q451 655 360 655Z" glyph-name="ohm" horiz-adv-x="720" unicode="&#8486;" /><glyph d="M469 800 399 592H265L318 800ZM289 800 219 592H84L138 800ZM242 426Q222 426 207 419Q192 412 182 393.5Q172 375 167.5 344Q163 313 163 265Q163 217 167.5 186Q172 155 182 136.5Q192 118 207 111Q222 104 242 104Q262 104 277 111Q292 118 301.5 136.5Q311 155 316 186Q321 217 321 265Q321 313 316 344Q311 375 301.5 393.5Q292 412 277 419Q262 426 242 426ZM242 541Q297 541 337 527.5Q377 514 402.5 482.5Q428 451 440 397.5Q452 344 452 265Q452 186 440 133Q428 80 402.5 48Q377 16 337 2.5Q297 -11 242 -11Q187 -11 147 2.5Q107 16 81.5 47.5Q56 79 44 132Q32 185 32 265Q32 344 44 397Q56 450 81.5 482Q107 514 147 527.5Q187 541 242 541Z" glyph-name="ohungarumlaut" horiz-adv-x="484" unicode="&#337;" /><glyph d="M124 764H358V641H124ZM242 426Q222 426 207 419Q192 412 182 393.5Q172 375 167.5 344Q163 313 163 265Q163 217 167.5 186Q172 155 182 136.5Q192 118 207 111Q222 104 242 104Q262 104 277 111Q292 118 301.5 136.5Q311 155 316 186Q321 217 321 265Q321 313 316 344Q311 375 301.5 393.5Q292 412 277 419Q262 426 242 426ZM242 541Q297 541 337 527.5Q377 514 402.5 482.5Q428 451 440 397.5Q452 344 452 265Q452 186 440 133Q428 80 402.5 48Q377 16 337 2.5Q297 -11 242 -11Q187 -11 147 2.5Q107 16 81.5 47.5Q56 79 44 132Q32 185 32 265Q32 344 44 397Q56 450 81.5 482Q107 514 147 527.5Q187 541 242 541Z" glyph-name="omacron" horiz-adv-x="484" unicode="&#333;" /><glyph d="M61 0V120H205V580Q180 550 140.5 525.5Q101 501 51 487V622Q114 642 160 684.5Q206 727 231 775H338V120H482V0Z" glyph-name="one" horiz-adv-x="520" unicode="1" /><glyph d="M297 0H164L162 590Q139 567 110.5 550.5Q82 534 50 521V655Q92 676 124.5 704Q157 732 189 775H296Z" glyph-name="one.LP" horiz-adv-x="393" unicode="&#58678;" /><glyph d="M34 -200V-117H100V73Q88 60 68.5 51Q49 42 28 37V131Q58 139 83 160.5Q108 182 119 205H192V-117H258V-200Z" glyph-name="one.inf" horiz-adv-x="281" unicode="&#58738;" /><glyph d="M618 324Q608 324 603 312Q598 300 598 261L505 273Q505 306 508.5 331Q512 356 524 372.5Q536 389 559 397Q582 405 621 405Q653 405 674 399Q695 393 707.5 380Q720 367 725 345.5Q730 324 730 294Q730 267 726 249Q722 231 712.5 216.5Q703 202 686 188.5Q669 175 642 156Q627 145 618 136.5Q609 128 604.5 119.5Q600 111 598.5 102.5Q597 94 597 83H733V0H500Q500 52 501.5 84Q503 116 512 138.5Q521 161 539.5 179Q558 197 591 220Q617 237 627 250.5Q637 264 637 287Q637 307 633.5 315.5Q630 324 618 324ZM522 764H626L235 0H131ZM34 365V448H100V638Q88 625 68.5 616Q49 607 28 602V696Q58 704 83 725.5Q108 747 119 770H192V448H258V365Z" glyph-name="onehalf" horiz-adv-x="757" unicode="&#189;" /><glyph d="M627 294 576 165 622 167ZM711 84V0H622V84H494V152L607 405H711V167H739V84ZM522 764H626L235 0H131ZM34 365V448H100V638Q88 625 68.5 616Q49 607 28 602V696Q58 704 83 725.5Q108 747 119 770H192V448H258V365Z" glyph-name="onequarter" horiz-adv-x="757" unicode="&#188;" /><glyph d="M34 365V448H100V638Q88 625 68.5 616Q49 607 28 602V696Q58 704 83 725.5Q108 747 119 770H192V448H258V365Z" glyph-name="onesuperior" horiz-adv-x="281" unicode="&#185;" /><glyph d="M56 273V397H297V273Z" glyph-name="onethirdemdash" horiz-adv-x="353" unicode="&#58481;" /><glyph d="M56 327V451H297V327Z" glyph-name="onethirdemdash.cap" horiz-adv-x="353" unicode="&#58499;" /><glyph d="M144 514Q144 495 154.5 483Q165 471 184 471Q198 471 212.5 476Q227 481 233 489V568L192 561Q166 556 155 544.5Q144 533 144 514ZM195 703Q175 703 166.5 691Q158 679 158 648L37 663Q37 694 43.5 718Q50 742 67 759Q84 776 115 785Q146 794 195 794Q242 794 272.5 786.5Q303 779 320.5 762.5Q338 746 345 718.5Q352 691 352 651V500L357 390H252L249 424Q231 399 203 387.5Q175 376 139 376Q87 376 56.5 408Q26 440 26 502Q26 566 66.5 595Q107 624 182 632L233 638V672Q233 686 223 694.5Q213 703 195 703Z" glyph-name="ordfeminine" horiz-adv-x="393" unicode="&#170;" /><glyph d="M352 500 355 390H252L248 423Q233 403 211.5 389.5Q190 376 153 376Q126 376 104 387.5Q82 399 65.5 423.5Q49 448 40 488Q31 528 31 585Q31 642 40 682Q49 722 65.5 746.5Q82 771 104 782.5Q126 794 153 794Q190 794 211.5 780.5Q233 767 248 747L252 780H355L352 670ZM233 667Q224 679 213.5 686.5Q203 694 190 694Q169 694 160.5 668Q152 642 152 585Q152 528 160.5 502Q169 476 190 476Q203 476 213.5 483.5Q224 491 233 503Z" glyph-name="ordfeminine.school" horiz-adv-x="393" unicode="&#57730;" /><glyph d="M154 585Q154 527 164 501.5Q174 476 207 476Q240 476 250 501.5Q260 527 260 585Q260 643 250 668.5Q240 694 207 694Q174 694 164 668.5Q154 643 154 585ZM32 585Q32 642 42 682Q52 722 73 746.5Q94 771 127 782.5Q160 794 207 794Q254 794 287 782.5Q320 771 341 746.5Q362 722 372 682Q382 642 382 585Q382 528 372 488Q362 448 341 423.5Q320 399 287 387.5Q254 376 207 376Q160 376 127 387.5Q94 399 73 423.5Q52 448 42 488Q32 528 32 585Z" glyph-name="ordmasculine" horiz-adv-x="414" unicode="&#186;" /><glyph d="M163 265Q163 243 164 225Q165 207 167 192L299 396Q289 413 275 419.5Q261 426 242 426Q222 426 207 419Q192 412 182 393.5Q172 375 167.5 344Q163 313 163 265ZM242 104Q262 104 276.5 111Q291 118 301 136.5Q311 155 315.5 186Q320 217 320 265Q320 287 319 305Q318 323 316 338L184 134Q194 117 208 110.5Q222 104 242 104ZM405 476Q428 444 439.5 392.5Q451 341 451 265Q451 185 439 132Q427 79 401.5 47.5Q376 16 336.5 2.5Q297 -11 242 -11Q158 -11 110 21L97 0H43L77 53Q54 85 43 137Q32 189 32 265Q32 344 44 397Q56 450 81.5 482Q107 514 147 527.5Q187 541 242 541Q325 541 372 509L386 530H440Z" glyph-name="oslash" horiz-adv-x="483" unicode="&#248;" /><glyph d="M432 761Q430 726 422.5 696Q415 666 401.5 644Q388 622 368 610Q348 598 320 598Q291 598 270.5 609.5Q250 621 233.5 634.5Q217 648 203.5 660Q190 672 175 672Q164 672 157.5 666Q151 660 148 651.5Q145 643 144 634.5Q143 626 143 621L49 632Q51 667 58.5 697Q66 727 79.5 749Q93 771 113 783Q133 795 161 795Q189 795 210 783.5Q231 772 247 758Q263 744 276.5 732.5Q290 721 305 721Q317 721 323 727Q329 733 332 741Q335 749 336 758Q337 767 338 772ZM242 426Q222 426 207 419Q192 412 182 393.5Q172 375 167.5 344Q163 313 163 265Q163 217 167.5 186Q172 155 182 136.5Q192 118 207 111Q222 104 242 104Q262 104 277 111Q292 118 301.5 136.5Q311 155 316 186Q321 217 321 265Q321 313 316 344Q311 375 301.5 393.5Q292 412 277 419Q262 426 242 426ZM242 541Q297 541 337 527.5Q377 514 402.5 482.5Q428 451 440 397.5Q452 344 452 265Q452 186 440 133Q428 80 402.5 48Q377 16 337 2.5Q297 -11 242 -11Q187 -11 147 2.5Q107 16 81.5 47.5Q56 79 44 132Q32 185 32 265Q32 344 44 397Q56 450 81.5 482Q107 514 147 527.5Q187 541 242 541Z" glyph-name="otilde" horiz-adv-x="484" unicode="&#245;" /><glyph d="M181 156Q199 133 219.5 119Q240 105 265 105Q310 105 325 142Q340 179 340 265Q340 351 325 388Q310 425 265 425Q240 425 219.5 411Q199 397 181 374ZM301 -11Q256 -11 229 3Q202 17 181 43V-200H49V392L46 530H164L170 477Q194 509 225 525Q256 541 301 541Q389 541 432 475Q475 409 475 265Q475 121 432 55Q389 -11 301 -11Z" glyph-name="p" horiz-adv-x="507" unicode="p" /><glyph d="M166 530Q166 456 185 428Q204 400 245 400H256V659H245Q204 659 185 631Q166 603 166 530ZM28 530Q28 606 44.5 654.5Q61 703 89.5 731Q118 759 156.5 769.5Q195 780 238 780H463V0H328V659H292V0H256V279H235Q192 279 154 289.5Q116 300 88 328Q60 356 44 404.5Q28 453 28 530Z" glyph-name="paragraph" horiz-adv-x="519" unicode="&#182;" /><glyph d="M176 350Q176 281 182.5 218.5Q189 156 202 97.5Q215 39 235 -17Q255 -73 281 -130H150Q127 -91 107 -39Q87 13 72 75Q57 137 48.5 206.5Q40 276 40 350Q40 423 48.5 493Q57 563 72 625Q87 687 107 739Q127 791 150 830H281Q255 773 235 717Q215 661 202 602.5Q189 544 182.5 481.5Q176 419 176 350Z" glyph-name="parenleft" horiz-adv-x="306" unicode="(" /><glyph d="M176 390Q176 321 182.5 258.5Q189 196 202 137.5Q215 79 235 23Q255 -33 281 -90H150Q127 -51 107 1Q87 53 72 115Q57 177 48.5 246.5Q40 316 40 390Q40 463 48.5 533Q57 603 72 665Q87 727 107 779Q127 831 150 870H281Q255 813 235 757Q215 701 202 642.5Q189 584 182.5 521.5Q176 459 176 390Z" glyph-name="parenleft.cap" horiz-adv-x="306" unicode="&#58513;" /><glyph d="M115 -2Q115 -73 128.5 -133Q142 -193 169 -253H78Q55 -212 38 -146Q21 -80 21 -2Q21 75 38 141.5Q55 208 78 248H169Q142 188 128.5 128Q115 68 115 -2Z" glyph-name="parenleft.inf" horiz-adv-x="180" unicode="&#58750;" /><glyph d="M130 350Q130 419 123.5 481.5Q117 544 104 602.5Q91 661 71 717Q51 773 25 830H156Q178 791 198 739Q218 687 233 625Q248 563 257 493Q266 423 266 350Q266 276 257 206.5Q248 137 233 75Q218 13 198 -39Q178 -91 156 -130H25Q51 -73 71 -17Q91 39 104 97.5Q117 156 123.5 218.5Q130 281 130 350Z" glyph-name="parenright" horiz-adv-x="306" unicode=")" /><glyph d="M130 390Q130 459 123.5 521.5Q117 584 104 642.5Q91 701 71 757Q51 813 25 870H156Q178 831 198 779Q218 727 233 665Q248 603 257 533Q266 463 266 390Q266 316 257 246.5Q248 177 233 115Q218 53 198 1Q178 -51 156 -90H25Q51 -33 71 23Q91 79 104 137.5Q117 196 123.5 258.5Q130 321 130 390Z" glyph-name="parenright.cap" horiz-adv-x="306" unicode="&#58514;" /><glyph d="M65 -2Q65 68 52 128Q39 188 11 248H102Q125 208 142 141.5Q159 75 159 -2Q159 -80 142 -146Q125 -212 102 -253H11Q39 -193 52 -133Q65 -73 65 -2Z" glyph-name="parenright.inf" horiz-adv-x="180" unicode="&#58751;" /><glyph d="M346 391Q315 391 289 383Q263 375 244 357.5Q225 340 214 313.5Q203 287 203 249Q203 211 215.5 184.5Q228 158 249.5 141Q271 124 299 116Q327 108 357 108Q424 106 463 134.5Q502 163 517 220Q518 224 518 230Q520 271 506.5 301.5Q493 332 469.5 352Q446 372 414 381.5Q382 391 346 391ZM83 716Q99 727 122.5 739.5Q146 752 176.5 763Q207 774 245.5 781.5Q284 789 331 789Q413 789 476.5 761.5Q540 734 583.5 682Q627 630 649.5 554.5Q672 479 672 383Q672 185 596.5 85.5Q521 -14 357 -14Q294 -14 240 3Q186 20 146.5 53Q107 86 85 135Q63 184 63 249Q63 382 132 447Q201 512 332 512Q357 512 386 507Q415 502 443.5 490Q472 478 496 458.5Q520 439 534 411V432Q537 495 521 539.5Q505 584 476.5 612.5Q448 641 410 654Q372 667 332 668Q289 668 240 655.5Q191 643 141 609Z" glyph-name="partialdiff" horiz-adv-x="729" unicode="&#8706;" /><glyph d="M650 416Q695 416 726 404.5Q757 393 776 367.5Q795 342 803 301.5Q811 261 811 203Q811 145 803 104Q795 63 776 37.5Q757 12 726 0.5Q695 -11 650 -11Q604 -11 573 0.5Q542 12 523 37.5Q504 63 496 104Q488 145 488 203Q488 261 496 301.5Q504 342 523 367.5Q542 393 573 404.5Q604 416 650 416ZM650 89Q666 89 676.5 94Q687 99 693.5 112Q700 125 702.5 147Q705 169 705 203Q705 237 702.5 259Q700 281 693.5 293.5Q687 306 676.5 311Q666 316 650 316Q634 316 623 311Q612 306 605.5 293.5Q599 281 596.5 259Q594 237 594 203Q594 169 596.5 147Q599 125 605.5 112Q612 99 623 94Q634 89 650 89ZM568 764H672L281 0H177ZM199 348Q154 348 123 359.5Q92 371 73 396.5Q54 422 46 462.5Q38 503 38 561Q38 619 46 660Q54 701 73 726.5Q92 752 123 763.5Q154 775 199 775Q245 775 276 763.5Q307 752 326 726.5Q345 701 353 660Q361 619 361 561Q361 503 353 462.5Q345 422 326 396.5Q307 371 276 359.5Q245 348 199 348ZM199 675Q183 675 172.5 670Q162 665 155.5 652Q149 639 146.5 617Q144 595 144 561Q144 527 146.5 505Q149 483 155.5 470.5Q162 458 172.5 453Q183 448 199 448Q215 448 226 453Q237 458 243.5 470.5Q250 483 252.5 505Q255 527 255 561Q255 595 252.5 617Q250 639 243.5 652Q237 665 226 670Q215 675 199 675Z" glyph-name="percent" horiz-adv-x="849" unicode="%" /><glyph d="M186 0H47V138H186Z" glyph-name="period" horiz-adv-x="233" unicode="." /><glyph d="M199 0H60V138H199Z" glyph-name="period.T" horiz-adv-x="260" /><glyph d="M218 264H72V408H218Z" glyph-name="periodcentered" horiz-adv-x="289" unicode="&#183;" /><glyph d="M218 318H72V462H218Z" glyph-name="periodcentered.cap" horiz-adv-x="289" unicode="&#58497;" /><glyph d="M1010 416Q1055 416 1086 404.5Q1117 393 1136 367.5Q1155 342 1163 301.5Q1171 261 1171 203Q1171 145 1163 104Q1155 63 1136 37.5Q1117 12 1086 0.5Q1055 -11 1010 -11Q964 -11 933 0.5Q902 12 883 37.5Q864 63 856 104Q848 145 848 203Q848 261 856 301.5Q864 342 883 367.5Q902 393 933 404.5Q964 416 1010 416ZM1010 89Q1026 89 1036.5 94Q1047 99 1053.5 112Q1060 125 1062.5 147Q1065 169 1065 203Q1065 237 1062.5 259Q1060 281 1053.5 293.5Q1047 306 1036.5 311Q1026 316 1010 316Q994 316 983 311Q972 306 965.5 293.5Q959 281 956.5 259Q954 237 954 203Q954 169 956.5 147Q959 125 965.5 112Q972 99 983 94Q994 89 1010 89ZM650 416Q695 416 726 404.5Q757 393 776 367.5Q795 342 803 301.5Q811 261 811 203Q811 145 803 104Q795 63 776 37.5Q757 12 726 0.5Q695 -11 650 -11Q604 -11 573 0.5Q542 12 523 37.5Q504 63 496 104Q488 145 488 203Q488 261 496 301.5Q504 342 523 367.5Q542 393 573 404.5Q604 416 650 416ZM650 89Q666 89 676.5 94Q687 99 693.5 112Q700 125 702.5 147Q705 169 705 203Q705 237 702.5 259Q700 281 693.5 293.5Q687 306 676.5 311Q666 316 650 316Q634 316 623 311Q612 306 605.5 293.5Q599 281 596.5 259Q594 237 594 203Q594 169 596.5 147Q599 125 605.5 112Q612 99 623 94Q634 89 650 89ZM568 764H672L281 0H177ZM199 348Q154 348 123 359.5Q92 371 73 396.5Q54 422 46 462.5Q38 503 38 561Q38 619 46 660Q54 701 73 726.5Q92 752 123 763.5Q154 775 199 775Q245 775 276 763.5Q307 752 326 726.5Q345 701 353 660Q361 619 361 561Q361 503 353 462.5Q345 422 326 396.5Q307 371 276 359.5Q245 348 199 348ZM199 675Q183 675 172.5 670Q162 665 155.5 652Q149 639 146.5 617Q144 595 144 561Q144 527 146.5 505Q149 483 155.5 470.5Q162 458 172.5 453Q183 448 199 448Q215 448 226 453Q237 458 243.5 470.5Q250 483 252.5 505Q255 527 255 561Q255 595 252.5 617Q250 639 243.5 652Q237 665 226 670Q215 675 199 675Z" glyph-name="perthousand" horiz-adv-x="1209" unicode="&#8240;" /><glyph d="M263 384Q304 384 323.5 412Q343 440 343 514Q343 587 324 615Q305 643 263 643H192V384ZM972 90Q1012 90 1026.5 107.5Q1041 125 1041 157Q1041 175 1036 186.5Q1031 198 1021 205.5Q1011 213 996 217Q981 221 962 224Q919 229 886 237Q853 245 831 261.5Q809 278 797.5 306Q786 334 786 379Q786 425 801 456Q816 487 842 506Q868 525 903 533Q938 541 979 541Q1038 541 1074 532Q1110 523 1130 504Q1150 485 1157 455.5Q1164 426 1164 385L1034 368Q1034 403 1023.5 421.5Q1013 440 981 440Q951 440 940 423.5Q929 407 929 378Q929 346 944.5 334.5Q960 323 996 316Q1038 311 1072 303.5Q1106 296 1129.5 280Q1153 264 1166 235.5Q1179 207 1179 160Q1179 113 1164.5 80Q1150 47 1123 27Q1096 7 1057 -2Q1018 -11 970 -11Q912 -11 877.5 -3Q843 5 824 22Q777 -11 698 -11Q609 -11 571 27.5Q533 66 533 135V420H472Q463 372 443.5 341Q424 310 397.5 293Q371 276 338.5 269.5Q306 263 270 263H192V0H56V764H270Q312 764 349.5 755Q387 746 415.5 720.5Q444 695 461 649Q478 603 480 530H533V670L664 672V530H760V420H664V152Q664 123 679.5 112Q695 101 724 101Q741 101 759 106.5Q777 112 791 126V152L908 166Q908 131 919.5 110.5Q931 90 972 90Z" glyph-name="peseta" horiz-adv-x="1206" unicode="&#8359;" /><glyph d="M343 420H239V131L222 0H104L107 138V420H26V530H573V420H474V151Q474 122 487 112Q500 102 522 102Q538 102 551.5 104.5Q565 107 573 110L580 1Q568 -4 549.5 -7.5Q531 -11 497 -11Q415 -11 379 27Q343 65 343 134Z" glyph-name="pi" horiz-adv-x="614" unicode="&#960;" /><glyph d="M293 323H90V457H293V660H427V457H630V323H427V120H293Z" glyph-name="plus" horiz-adv-x="720" unicode="+" /><glyph d="M373 323H50V457H373V780H507V457H830V323H507V0H373Z" glyph-name="plus.cap" horiz-adv-x="880" unicode="&#58769;" /><glyph d="M150 -45H52V41H150V139H236V41H334V-45H236V-143H150Z" glyph-name="plus.inf" horiz-adv-x="386" unicode="&#58747;" /><glyph d="M90 118V252H630V118ZM293 423H90V557H293V660H427V557H630V423H427V320H293Z" glyph-name="plusminus" horiz-adv-x="720" unicode="&#177;" /><glyph d="M279 640V0H138V640H38V764H766V640H666V0H526V640Z" glyph-name="product" horiz-adv-x="805" unicode="&#8719;" /><glyph d="M402 409V529H502Q525 529 542.5 516.5Q560 504 560 469Q560 434 542.5 421.5Q525 409 502 409ZM506 292Q541 292 573 302Q605 312 629 333.5Q653 355 667.5 388.5Q682 422 682 469Q682 517 667.5 550.5Q653 584 629 605Q605 626 573 636Q541 646 506 646H282V134H402V292ZM55 390Q55 474 87 547.5Q119 621 173.5 675.5Q228 730 302 762Q376 794 460 794Q544 794 617.5 762Q691 730 745.5 675.5Q800 621 832 547.5Q864 474 864 390Q864 306 832 232.5Q800 159 745.5 104Q691 49 617.5 17.5Q544 -14 460 -14Q376 -14 302 17.5Q228 49 173.5 104Q119 159 87 232.5Q55 306 55 390Z" glyph-name="published" horiz-adv-x="920" unicode="&#8471;" /><glyph glyph-name="punctuationspace" horiz-adv-x="266" unicode="&#8200;" /><glyph d="M325 374Q308 397 287 411Q266 425 241 425Q197 425 181.5 388Q166 351 166 265Q166 179 181.5 142Q197 105 241 105Q266 105 287 119Q308 133 325 156ZM205 -11Q117 -11 74.5 55Q32 121 32 265Q32 409 74.5 475Q117 541 205 541Q251 541 282 525Q313 509 336 477L342 530H460L457 392V-200H325V43Q305 17 278 3Q251 -11 205 -11Z" glyph-name="q" horiz-adv-x="506" unicode="q" /><glyph d="M301 0H162V138H301ZM185 230Q177 246 166.5 276Q156 306 156 337Q156 361 160.5 379.5Q165 398 176.5 414Q188 430 206.5 444Q225 458 252 472Q269 482 281.5 491.5Q294 501 302.5 513.5Q311 526 315 542.5Q319 559 319 582Q319 634 301 654Q283 674 244 674Q197 674 178.5 645.5Q160 617 160 543L30 560Q30 620 40 664Q50 708 74.5 737Q99 766 140 780Q181 794 243 794Q299 794 339.5 783.5Q380 773 406 749Q432 725 444.5 686Q457 647 457 590Q457 539 445.5 505.5Q434 472 415 449.5Q396 427 370.5 412Q345 397 318 382Q286 364 276 346.5Q266 329 265 304Q265 270 278 230Z" glyph-name="question" horiz-adv-x="490" unicode="?" /><glyph d="M186 530H327V391H186ZM307 300Q316 280 324 254.5Q332 229 332 203Q332 180 327 163Q322 146 310.5 131Q299 116 280.5 102.5Q262 89 234 75Q201 56 185 37Q169 18 169 -16Q169 -53 187 -72Q205 -91 244 -91Q291 -91 309.5 -63.5Q328 -36 328 33L457 16Q457 -41 447 -83.5Q437 -126 412.5 -154.5Q388 -183 347 -197Q306 -211 244 -211Q131 -211 80.5 -167Q30 -123 30 -24Q30 21 41 50.5Q52 80 70.5 100Q89 120 114 134.5Q139 149 167 163Q199 180 210 195.5Q221 211 222 235Q222 263 212 300Z" glyph-name="questiondown" horiz-adv-x="490" unicode="&#191;" /><glyph d="M186 780H325V642H186ZM302 550Q310 534 320.5 504Q331 474 331 443Q331 419 326.5 400Q322 381 310.5 365.5Q299 350 280.5 336Q262 322 235 308Q218 298 205.5 288.5Q193 279 184.5 266.5Q176 254 172 237.5Q168 221 168 198Q168 146 186 126Q204 106 243 106Q290 106 308.5 134.5Q327 163 327 237L457 220Q457 160 447 116Q437 72 412.5 43Q388 14 347 0Q306 -14 244 -14Q188 -14 147.5 -3.5Q107 7 81 31Q55 55 42.5 94Q30 133 30 190Q30 241 41.5 274Q53 307 72 329.5Q91 352 116.5 367.5Q142 383 169 398Q185 407 195 415.5Q205 424 211 433Q217 442 219.5 452.5Q222 463 222 476Q222 510 209 550Z" glyph-name="questiondown.cap" horiz-adv-x="490" unicode="&#58436;" /><glyph d="M382 780 361 530H248L227 780ZM197 780 175 530H62L41 780Z" glyph-name="quotedbl" horiz-adv-x="423" unicode="&quot;" /><glyph d="M195 86 135 -164H27L46 86ZM374 86 315 -164H207L226 86Z" glyph-name="quotedblbase" horiz-adv-x="390" unicode="&#8222;" /><glyph d="M182 530 241 780H350L331 530ZM2 530 62 780H170L151 530Z" glyph-name="quotedblleft" horiz-adv-x="385" unicode="&#8220;" /><glyph d="M209 780 149 530H41L60 780ZM388 780 329 530H220L239 780Z" glyph-name="quotedblright" horiz-adv-x="390" unicode="&#8221;" /><glyph d="M2 530 62 780H170L151 530Z" glyph-name="quoteleft" horiz-adv-x="211" unicode="&#8216;" /><glyph d="M209 780 149 530H41L60 780Z" glyph-name="quoteright" horiz-adv-x="211" unicode="&#8217;" /><glyph d="M195 86 135 -164H27L46 86Z" glyph-name="quotesinglbase" horiz-adv-x="211" unicode="&#8218;" /><glyph d="M197 780 175 530H62L41 780Z" glyph-name="quotesingle" horiz-adv-x="237" unicode="&apos;" /><glyph d="M280 414Q249 414 225 401.5Q201 389 181 366V0H49V392L46 530H163L170 472Q190 507 218 524Q246 541 278 541Q291 541 301.5 539Q312 537 321 531L314 410Q308 412 298.5 413Q289 414 280 414Z" glyph-name="r" horiz-adv-x="341" unicode="r" /><glyph d="M307 800 246 592H113L159 800ZM280 414Q249 414 225 401.5Q201 389 181 366V0H49V392L46 530H163L170 472Q190 507 218 524Q246 541 278 541Q291 541 301.5 539Q312 537 321 531L314 410Q308 412 298.5 413Q289 414 280 414Z" glyph-name="racute" horiz-adv-x="341" unicode="&#341;" /><glyph d="M679 764H833L390 -3H241L147 390L36 366V496L247 544L311 252L334 146L386 246Z" glyph-name="radical" horiz-adv-x="852" unicode="&#8730;" /><glyph d="M352 800 258 592H108L14 800H122L183 688L244 800ZM280 414Q249 414 225 401.5Q201 389 181 366V0H49V392L46 530H163L170 472Q190 507 218 524Q246 541 278 541Q291 541 301.5 539Q312 537 321 531L314 410Q308 412 298.5 413Q289 414 280 414Z" glyph-name="rcaron" horiz-adv-x="341" unicode="&#345;" /><glyph d="M182 -62 150 -200H38L48 -62ZM280 414Q249 414 225 401.5Q201 389 181 366V0H49V392L46 530H163L170 472Q190 507 218 524Q246 541 278 541Q291 541 301.5 539Q312 537 321 531L314 410Q308 412 298.5 413Q289 414 280 414Z" glyph-name="rcommaaccent" horiz-adv-x="341" unicode="&#343;" /><glyph d="M381 440V529H493Q501 529 510 527.5Q519 526 526.5 521.5Q534 517 538.5 508.5Q543 500 543 485Q543 470 538.5 461Q534 452 526.5 447.5Q519 443 510 441.5Q501 440 493 440ZM381 323H451L544 134H689L578 339Q616 354 640.5 388Q665 422 665 485Q665 532 651 563Q637 594 613 612.5Q589 631 557 638.5Q525 646 489 646H262V134H381ZM56 390Q56 474 88 547.5Q120 621 174.5 675.5Q229 730 302.5 762Q376 794 460 794Q544 794 617.5 762Q691 730 745.5 675.5Q800 621 832 547.5Q864 474 864 390Q864 306 832 232.5Q800 159 745.5 104.5Q691 50 617.5 18Q544 -14 460 -14Q376 -14 302.5 18Q229 50 174.5 104.5Q120 159 88 232.5Q56 306 56 390Z" glyph-name="registered" horiz-adv-x="920" unicode="&#174;" /><glyph d="M153 651V695H196Q203 695 209 690.5Q215 686 215 673Q215 659 209 655Q203 651 196 651ZM153 608H182L218 543H271L229 614Q243 619 252.5 633Q262 647 262 673Q262 712 241.5 725Q221 738 193 738H108V543H153ZM31 640Q31 672 43 700Q55 728 76 749Q97 770 125 782Q153 794 185 794Q217 794 245 782Q273 770 294 749Q315 728 327 700Q339 672 339 640Q339 608 327 580Q315 552 294 531Q273 510 245 498Q217 486 185 486Q153 486 125 498Q97 510 76 531Q55 552 43 580Q31 608 31 640Z" glyph-name="registered.superior" horiz-adv-x="370" unicode="&#58644;" /><glyph d="M330 780 349 530H241L181 780ZM151 780 170 530H61L2 780Z" glyph-name="reversequotedblleft" horiz-adv-x="390" unicode="&#8223;" /><glyph d="M151 780 170 530H62L2 780Z" glyph-name="reversequoteleft" horiz-adv-x="211" unicode="&#8219;" /><glyph d="M355 696Q355 742 310 742Q265 742 265 696Q265 650 310 650Q355 650 355 696ZM192 696Q192 748 222.5 781Q253 814 310 814Q367 814 397.5 781Q428 748 428 696Q428 644 397.5 611Q367 578 310 578Q253 578 222.5 611Q192 644 192 696Z" glyph-name="ring" horiz-adv-x="620" unicode="&#730;" /><glyph d="M221 90Q261 90 275.5 107.5Q290 125 290 157Q290 175 285 186Q280 197 270 204Q260 211 245 214.5Q230 218 211 221Q168 226 135.5 234.5Q103 243 80.5 260Q58 277 46.5 305.5Q35 334 35 379Q35 425 50 456Q65 487 91 506Q117 525 152 533Q187 541 228 541Q287 541 323 532Q359 523 379 504Q399 485 406 455.5Q413 426 413 385L283 368Q283 403 273 421.5Q263 440 231 440Q200 440 189 423.5Q178 407 178 378Q178 362 181.5 352Q185 342 193.5 336Q202 330 214.5 326Q227 322 245 319Q287 314 321 306Q355 298 378.5 281.5Q402 265 415 236Q428 207 428 160Q428 113 413.5 80Q399 47 372 27Q345 7 306 -2Q267 -11 219 -11Q156 -11 118 -1.5Q80 8 60 28Q40 48 33.5 78.5Q27 109 27 150L157 166Q157 131 168.5 110.5Q180 90 221 90Z" glyph-name="s" horiz-adv-x="455" unicode="s" /><glyph d="M342 800 281 592H148L194 800ZM221 90Q261 90 275.5 107.5Q290 125 290 157Q290 175 285 186Q280 197 270 204Q260 211 245 214.5Q230 218 211 221Q168 226 135.5 234.5Q103 243 80.5 260Q58 277 46.5 305.5Q35 334 35 379Q35 425 50 456Q65 487 91 506Q117 525 152 533Q187 541 228 541Q287 541 323 532Q359 523 379 504Q399 485 406 455.5Q413 426 413 385L283 368Q283 403 273 421.5Q263 440 231 440Q200 440 189 423.5Q178 407 178 378Q178 362 181.5 352Q185 342 193.5 336Q202 330 214.5 326Q227 322 245 319Q287 314 321 306Q355 298 378.5 281.5Q402 265 415 236Q428 207 428 160Q428 113 413.5 80Q399 47 372 27Q345 7 306 -2Q267 -11 219 -11Q156 -11 118 -1.5Q80 8 60 28Q40 48 33.5 78.5Q27 109 27 150L157 166Q157 131 168.5 110.5Q180 90 221 90Z" glyph-name="sacute" horiz-adv-x="455" unicode="&#347;" /><glyph d="M387 800 293 592H143L49 800H157L218 688L279 800ZM221 90Q261 90 275.5 107.5Q290 125 290 157Q290 175 285 186Q280 197 270 204Q260 211 245 214.5Q230 218 211 221Q168 226 135.5 234.5Q103 243 80.5 260Q58 277 46.5 305.5Q35 334 35 379Q35 425 50 456Q65 487 91 506Q117 525 152 533Q187 541 228 541Q287 541 323 532Q359 523 379 504Q399 485 406 455.5Q413 426 413 385L283 368Q283 403 273 421.5Q263 440 231 440Q200 440 189 423.5Q178 407 178 378Q178 362 181.5 352Q185 342 193.5 336Q202 330 214.5 326Q227 322 245 319Q287 314 321 306Q355 298 378.5 281.5Q402 265 415 236Q428 207 428 160Q428 113 413.5 80Q399 47 372 27Q345 7 306 -2Q267 -11 219 -11Q156 -11 118 -1.5Q80 8 60 28Q40 48 33.5 78.5Q27 109 27 150L157 166Q157 131 168.5 110.5Q180 90 221 90Z" glyph-name="scaron" horiz-adv-x="455" unicode="&#353;" /><glyph d="M221 90Q261 90 275.5 107.5Q290 125 290 157Q290 175 285 186Q280 197 270 204Q260 211 245 214.5Q230 218 211 221Q168 226 135.5 234.5Q103 243 80.5 260Q58 277 46.5 305.5Q35 334 35 379Q35 425 50 456Q65 487 91 506Q117 525 152 533Q187 541 228 541Q287 541 323 532Q359 523 379 504Q399 485 406 455.5Q413 426 413 385L283 368Q283 403 273 421.5Q263 440 231 440Q200 440 189 423.5Q178 407 178 378Q178 362 181.5 352Q185 342 193.5 336Q202 330 214.5 326Q227 322 245 319Q287 314 321 306Q355 298 378.5 281.5Q402 265 415 236Q428 207 428 160Q428 73 380 34Q332 -5 249 -10L242 -36Q293 -46 322 -68Q351 -90 348 -131Q344 -175 307.5 -194.5Q271 -214 222 -214Q178 -214 149 -206Q120 -198 108 -193L129 -132Q136 -135 145 -139Q153 -142 162 -144.5Q171 -147 182 -148Q207 -150 224 -144Q241 -138 241 -118Q241 -97 214.5 -87Q188 -77 153 -73L174 -9Q126 -6 97.5 5.5Q69 17 53 36.5Q37 56 32 84Q27 112 27 150L157 166Q157 131 168.5 110.5Q180 90 221 90Z" glyph-name="scedilla" horiz-adv-x="455" unicode="&#351;" /><glyph d="M51 592 144 800H292L385 592H277L218 705L159 592ZM221 90Q261 90 275.5 107.5Q290 125 290 157Q290 175 285 186Q280 197 270 204Q260 211 245 214.5Q230 218 211 221Q168 226 135.5 234.5Q103 243 80.5 260Q58 277 46.5 305.5Q35 334 35 379Q35 425 50 456Q65 487 91 506Q117 525 152 533Q187 541 228 541Q287 541 323 532Q359 523 379 504Q399 485 406 455.5Q413 426 413 385L283 368Q283 403 273 421.5Q263 440 231 440Q200 440 189 423.5Q178 407 178 378Q178 362 181.5 352Q185 342 193.5 336Q202 330 214.5 326Q227 322 245 319Q287 314 321 306Q355 298 378.5 281.5Q402 265 415 236Q428 207 428 160Q428 113 413.5 80Q399 47 372 27Q345 7 306 -2Q267 -11 219 -11Q156 -11 118 -1.5Q80 8 60 28Q40 48 33.5 78.5Q27 109 27 150L157 166Q157 131 168.5 110.5Q180 90 221 90Z" glyph-name="scircumflex" horiz-adv-x="455" unicode="&#349;" /><glyph d="M291 -62 259 -200H147L157 -62ZM221 90Q261 90 275.5 107.5Q290 125 290 157Q290 175 285 186Q280 197 270 204Q260 211 245 214.5Q230 218 211 221Q168 226 135.5 234.5Q103 243 80.5 260Q58 277 46.5 305.5Q35 334 35 379Q35 425 50 456Q65 487 91 506Q117 525 152 533Q187 541 228 541Q287 541 323 532Q359 523 379 504Q399 485 406 455.5Q413 426 413 385L283 368Q283 403 273 421.5Q263 440 231 440Q200 440 189 423.5Q178 407 178 378Q178 362 181.5 352Q185 342 193.5 336Q202 330 214.5 326Q227 322 245 319Q287 314 321 306Q355 298 378.5 281.5Q402 265 415 236Q428 207 428 160Q428 113 413.5 80Q399 47 372 27Q345 7 306 -2Q267 -11 219 -11Q156 -11 118 -1.5Q80 8 60 28Q40 48 33.5 78.5Q27 109 27 150L157 166Q157 131 168.5 110.5Q180 90 221 90Z" glyph-name="scommaaccent" horiz-adv-x="455" unicode="&#537;" /><glyph d="M399 764 351 423H242V764ZM204 764 156 423H47V764Z" glyph-name="second" horiz-adv-x="446" unicode="&#8243;" /><glyph d="M338 296Q338 346 318 363.5Q298 381 260 381Q215 381 196.5 358.5Q178 336 178 284Q178 234 198 216.5Q218 199 256 199Q301 199 319.5 221.5Q338 244 338 296ZM275 791Q339 791 377 777.5Q415 764 435.5 738Q456 712 462.5 674Q469 636 469 587L338 570Q338 597 336 617.5Q334 638 327.5 652Q321 666 308 673Q295 680 274 680Q208 680 208 589Q208 547 226 524.5Q244 502 292 494Q332 488 365.5 478Q399 468 423 448.5Q447 429 460.5 396.5Q474 364 474 313Q474 234 450.5 194.5Q427 155 380 138Q399 131 412 116Q425 101 433 81Q441 61 444.5 38.5Q448 16 448 -5Q448 -112 396.5 -161.5Q345 -211 242 -211Q177 -211 139 -197.5Q101 -184 80.5 -158Q60 -132 53.5 -94Q47 -56 47 -7L178 10Q178 -17 180 -37.5Q182 -58 188.5 -72Q195 -86 208 -93Q221 -100 242 -100Q308 -100 308 -9Q308 33 290 55.5Q272 78 225 86Q184 92 150.5 102Q117 112 93 131.5Q69 151 55.5 183.5Q42 216 42 267Q42 346 65.5 385.5Q89 425 136 442Q117 449 104.5 464Q92 479 84 499Q76 519 72.5 541.5Q69 564 69 585Q69 692 120 741.5Q171 791 275 791Z" glyph-name="section" horiz-adv-x="516" unicode="&#167;" /><glyph d="M191 138 128 -126H28L46 138ZM186 338H47V475H186Z" glyph-name="semicolon" horiz-adv-x="233" unicode=";" /><glyph d="M204 138 141 -126H41L59 138ZM199 338H60V475H199Z" glyph-name="semicolon.T" horiz-adv-x="260" /><glyph d="M138 505Q80 505 51.5 527Q23 549 20 600L91 606Q92 584 105 576.5Q118 569 138 570Q157 571 169 576Q181 581 181 594Q181 606 171.5 610.5Q162 615 136 617Q115 619 95.5 622.5Q76 626 61 634.5Q46 643 37 658Q28 673 28 697Q28 744 59 764.5Q90 785 137 785Q196 785 221.5 763Q247 741 250 696L179 691Q176 723 137 721Q123 720 112.5 716Q102 712 102 700Q102 690 108 685.5Q114 681 140 679Q165 677 186 673.5Q207 670 222 661.5Q237 653 245.5 637.5Q254 622 254 595Q254 571 244.5 554Q235 537 219 526Q203 515 182 510Q161 505 138 505ZM409 510 367 635 356 668 357 631V510H283V780H385L431 642L443 603L455 642L501 780H603V510H529V631L530 668L519 635L477 510Z" glyph-name="servicemark" horiz-adv-x="618" unicode="&#8480;" /><glyph d="M120 0 285 502 335 644 225 643H48V764H474V682L264 0Z" glyph-name="seven" horiz-adv-x="520" unicode="7" /><glyph d="M101 0 257 503 307 644 197 643H29V764H446V682L244 0Z" glyph-name="seven.LP" horiz-adv-x="471" unicode="&#58684;" /><glyph d="M58 -200 140 44 166 116 110 115H20V199H263V144L157 -200Z" glyph-name="seven.inf" horiz-adv-x="281" unicode="&#58744;" /><glyph d="M273 393Q239 393 221.5 373Q204 353 185 315Q185 255 189 215Q193 175 202 150Q211 125 225 114.5Q239 104 260 104Q306 104 321 137.5Q336 171 336 248Q336 328 321.5 360.5Q307 393 273 393ZM261 660Q234 660 219 648.5Q204 637 196 609Q188 581 186 535.5Q184 490 184 423Q208 469 241.5 489Q275 509 326 509Q368 509 396 494.5Q424 480 440.5 448.5Q457 417 464 368.5Q471 320 471 252Q471 186 461 136.5Q451 87 426.5 54.5Q402 22 361.5 5.5Q321 -11 260 -11Q192 -11 151 9.5Q110 30 87 76.5Q64 123 56.5 198Q49 273 49 381Q49 481 56 555.5Q63 630 86.5 678.5Q110 727 153.5 751Q197 775 270 775Q327 775 364.5 762.5Q402 750 424 725Q446 700 455 662.5Q464 625 465 576L331 559Q331 586 328 605Q325 624 317.5 636.5Q310 649 296.5 654.5Q283 660 261 660Z" glyph-name="six" horiz-adv-x="520" unicode="6" /><glyph d="M289 393Q248 393 223.5 369.5Q199 346 180 305Q180 245 185.5 206Q191 167 203 144.5Q215 122 233 113Q251 104 275 104Q329 104 351.5 137Q374 170 374 248Q374 328 354.5 360.5Q335 393 289 393ZM285 660Q255 660 234.5 647Q214 634 201.5 605.5Q189 577 184 530Q179 483 179 416Q211 471 255 490Q299 509 351 509Q435 509 471.5 447Q508 385 508 252Q508 187 496 138Q484 89 457 56Q430 23 385.5 6Q341 -11 277 -11Q205 -11 159.5 9.5Q114 30 88.5 76.5Q63 123 53.5 198Q44 273 44 381Q44 481 54 555.5Q64 630 91 678.5Q118 727 166.5 751Q215 775 293 775Q350 775 389 764.5Q428 754 452 731Q476 708 487 672Q498 636 499 586L365 568Q364 623 345 641.5Q326 660 285 660Z" glyph-name="six.LP" horiz-adv-x="536" unicode="&#58683;" /><glyph d="M145 -6Q134 -6 130 -12.5Q126 -19 119 -33Q119 -85 123.5 -106Q128 -127 140 -127Q157 -127 159.5 -113Q162 -99 162 -67Q162 -35 159 -20.5Q156 -6 145 -6ZM140 126Q132 126 128 122Q124 118 122 108Q120 98 119.5 80.5Q119 63 119 36Q130 57 145.5 65.5Q161 74 183 74Q227 74 241.5 41.5Q256 9 256 -64Q256 -136 231.5 -171Q207 -206 140 -206Q102 -206 79.5 -195Q57 -184 45 -159.5Q33 -135 29 -96Q25 -57 25 -1Q25 50 28.5 88.5Q32 127 45 153Q58 179 81.5 192Q105 205 146 205Q177 205 197 199Q217 193 229 180Q241 167 246 147Q251 127 252 99L159 87Q158 110 155.5 118Q153 126 140 126Z" glyph-name="six.inf" horiz-adv-x="281" unicode="&#58743;" /><glyph glyph-name="sixperemspace" horiz-adv-x="167" unicode="&#8198;" /><glyph d="M150 -90H14L243 870H379Z" glyph-name="slash" horiz-adv-x="393" unicode="/" /><glyph d="M167 -20H27L223 800H363Z" glyph-name="slash.cap" horiz-adv-x="390" unicode="&#58465;" /><glyph glyph-name="space" horiz-adv-x="167" unicode=" " /><glyph d="M461 790Q473 771 496 742.5Q519 714 550 682Q581 650 617.5 618Q654 586 694 560Q727 539 756.5 515.5Q786 492 808.5 464.5Q831 437 844.5 405Q858 373 858 334Q858 297 844.5 265.5Q831 234 807 210.5Q783 187 751 173.5Q719 160 682 160Q645 160 614 173.5Q583 187 558 209.5Q533 232 514 261Q495 290 482 321L479 320Q483 269 489.5 227Q496 185 505.5 147Q515 109 528.5 73Q542 37 561 0H359Q378 37 391.5 73Q405 109 414.5 147Q424 185 430.5 227Q437 269 441 320L438 321Q425 290 406 261Q387 232 362 209.5Q337 187 306 173.5Q275 160 238 160Q201 160 169 173.5Q137 187 113 210.5Q89 234 75.5 265.5Q62 297 62 334Q62 373 75.5 405Q89 437 111.5 464.5Q134 492 163.5 515.5Q193 539 226 560Q266 586 302.5 618Q339 650 370 682Q401 714 424 742.5Q447 771 459 790Z" glyph-name="spade" horiz-adv-x="920" unicode="&#9824;" /><glyph d="M407 390 262 535 353 626 498 481 643 626 734 535 589 390 734 245 643 154 498 299 353 154 262 245ZM243 649V131H753V649ZM108 780H888V0H108Z" glyph-name="squaremultiply" horiz-adv-x="996" unicode="&#8864;" /><glyph d="M314 775Q379 775 418.5 761.5Q458 748 479 722.5Q500 697 507 658.5Q514 620 514 571L382 554Q382 582 380 603Q378 624 371 637.5Q364 651 350.5 657.5Q337 664 314 664Q291 664 277.5 657.5Q264 651 257.5 637.5Q251 624 249 603Q247 582 247 554V454H417V343H247V121H513V0H40V121H115V343H40V454H115V571Q115 620 121.5 658.5Q128 697 149 722.5Q170 748 209.5 761.5Q249 775 314 775Z" glyph-name="sterling" horiz-adv-x="548" unicode="&#163;" /><glyph d="M76 764H629V640H444L297 641L539 435V347L286 123L434 124H647V0H59V111L386 391L76 647Z" glyph-name="summation" horiz-adv-x="696" unicode="&#8721;" /><glyph d="M23 530H85V670L216 672V530H325V420H216V151Q216 122 229 111.5Q242 101 264 101Q280 101 293.5 104Q307 107 315 110L322 1Q310 -4 291 -7.5Q272 -11 237 -11Q156 -11 120.5 27Q85 65 85 134V420H23Z" glyph-name="t" horiz-adv-x="359" unicode="t" /><glyph d="M23 325H85V420H23V530H85V670L216 672V530H325V420H216V325H289V215H216V151Q216 122 229 111.5Q242 101 264 101Q280 101 293.5 104Q307 107 315 110L322 1Q310 -4 291 -7.5Q272 -11 237 -11Q156 -11 120.5 27Q85 65 85 134V215H23Z" glyph-name="tbar" horiz-adv-x="359" unicode="&#359;" /><glyph d="M376 800 342 592H256V800ZM23 530H85V670L216 672V530H325V420H216V151Q216 122 229 111.5Q242 101 264 101Q280 101 293.5 104Q307 107 315 110L322 1Q310 -4 291 -7.5Q272 -11 237 -11Q156 -11 120.5 27Q85 65 85 134V420H23Z" glyph-name="tcaron" horiz-adv-x="379" unicode="&#357;" /><glyph d="M267 -62 235 -200H123L133 -62ZM23 530H85V670L216 672V530H325V420H216V151Q216 122 229 111.5Q242 101 264 101Q280 101 293.5 104Q307 107 315 110L322 1Q310 -4 291 -7.5Q272 -11 237 -11Q156 -11 120.5 27Q85 65 85 134V420H23Z" glyph-name="tcommaaccent" horiz-adv-x="359" unicode="&#355;" /><glyph glyph-name="thinspace" horiz-adv-x="200" unicode="&#8201;" /><glyph d="M181 156Q199 133 219.5 119Q240 105 265 105Q310 105 325 142Q340 179 340 265Q340 351 325 388Q310 425 265 425Q240 425 219.5 411Q199 397 181 374ZM475 265Q475 121 432 55Q389 -11 301 -11Q256 -11 229 3Q202 17 181 43V-200H49V800H181V487Q202 513 229 527Q256 541 301 541Q389 541 432 475Q475 409 475 265Z" glyph-name="thorn" horiz-adv-x="507" unicode="&#254;" /><glyph d="M257 106Q305 106 323 134.5Q341 163 341 221Q341 256 334.5 278Q328 300 317 312Q306 324 291 328Q276 332 258 332H194V451H258Q272 451 283.5 455Q295 459 303.5 469.5Q312 480 316.5 499.5Q321 519 321 551Q321 581 318 601.5Q315 622 307.5 634.5Q300 647 286 652.5Q272 658 251 658Q229 658 215.5 651Q202 644 194.5 629Q187 614 184 589.5Q181 565 181 530L50 547Q51 604 60 646.5Q69 689 91.5 717.5Q114 746 153 760.5Q192 775 253 775Q306 775 344 764.5Q382 754 406.5 729.5Q431 705 442.5 665Q454 625 454 566Q454 527 449 498.5Q444 470 434 450Q424 430 410 417Q396 404 377 396Q400 390 418 377.5Q436 365 449 342.5Q462 320 468.5 287Q475 254 475 207Q475 157 464 117Q453 77 427.5 48.5Q402 20 359 4.5Q316 -11 252 -11Q186 -11 145 5.5Q104 22 81.5 52.5Q59 83 51.5 126Q44 169 44 223L174 241Q174 170 190.5 138Q207 106 257 106Z" glyph-name="three" horiz-adv-x="520" unicode="3" /><glyph d="M250 106Q304 106 326 134.5Q348 163 348 221Q348 256 340.5 278Q333 300 320 312Q307 324 289 328Q271 332 251 332H188V451H251Q267 451 280.5 455Q294 459 304 469.5Q314 480 319.5 499.5Q325 519 325 551Q325 581 321 601.5Q317 622 308 634.5Q299 647 283.5 652.5Q268 658 245 658Q197 658 180.5 629Q164 600 164 530L34 547Q34 604 43 646.5Q52 689 75 717.5Q98 746 139.5 760.5Q181 775 247 775Q304 775 344.5 764.5Q385 754 410 729.5Q435 705 446.5 665Q458 625 458 566Q458 527 452.5 498.5Q447 470 436.5 450Q426 430 411 417Q396 404 377 396Q400 390 419 377.5Q438 365 452 342.5Q466 320 474 287Q482 254 482 207Q482 157 471 117Q460 77 433 48.5Q406 20 360.5 4.5Q315 -11 246 -11Q174 -11 130.5 5.5Q87 22 63 52.5Q39 83 31.5 126Q24 169 24 223L154 241Q154 170 174 138Q194 106 250 106Z" glyph-name="three.LP" horiz-adv-x="507" unicode="&#58680;" /><glyph d="M140 -125Q157 -125 161.5 -113.5Q166 -102 166 -79Q166 -53 159 -45Q152 -37 135 -37H107V45H135Q147 45 150.5 52.5Q154 60 154 83Q154 107 151 115.5Q148 124 135 124Q121 124 118 112.5Q115 101 115 66L25 77Q25 111 30 135Q35 159 47.5 174.5Q60 190 81.5 197.5Q103 205 136 205Q193 205 219.5 181Q246 157 246 93Q246 52 237.5 34Q229 16 212 7Q235 1 247 -19.5Q259 -40 259 -88Q259 -115 253.5 -136.5Q248 -158 234 -173.5Q220 -189 196.5 -197.5Q173 -206 137 -206Q99 -206 76 -197Q53 -188 41 -171Q29 -154 25 -129.5Q21 -105 21 -74L111 -62Q111 -100 117 -112.5Q123 -125 140 -125Z" glyph-name="three.inf" horiz-adv-x="281" unicode="&#58740;" /><glyph glyph-name="threeperemspace" horiz-adv-x="333" unicode="&#8196;" /><glyph d="M56 273V397H714V273Z" glyph-name="threequarteremdash" horiz-adv-x="770" unicode="&#58482;" /><glyph d="M56 327V451H714V327Z" glyph-name="threequarteremdash.cap" horiz-adv-x="770" unicode="&#58501;" /><glyph d="M627 294 576 165 622 167ZM711 84V0H622V84H494V152L607 405H711V167H739V84ZM522 764H626L235 0H131ZM140 440Q157 440 161.5 451.5Q166 463 166 486Q166 512 159 520Q152 528 135 528H107V610H135Q147 610 150.5 617.5Q154 625 154 648Q154 672 151 680.5Q148 689 135 689Q121 689 118 677.5Q115 666 115 631L25 642Q25 676 30 700Q35 724 47.5 739.5Q60 755 81.5 762.5Q103 770 136 770Q193 770 219.5 746Q246 722 246 658Q246 617 237.5 599Q229 581 212 572Q235 566 247 545.5Q259 525 259 477Q259 450 253.5 428.5Q248 407 234 391.5Q220 376 196.5 367.5Q173 359 137 359Q99 359 76 368Q53 377 41 394Q29 411 25 435.5Q21 460 21 491L111 503Q111 465 117 452.5Q123 440 140 440Z" glyph-name="threequarters" horiz-adv-x="757" unicode="&#190;" /><glyph d="M140 440Q157 440 161.5 451.5Q166 463 166 486Q166 512 159 520Q152 528 135 528H107V610H135Q147 610 150.5 617.5Q154 625 154 648Q154 672 151 680.5Q148 689 135 689Q121 689 118 677.5Q115 666 115 631L25 642Q25 676 30 700Q35 724 47.5 739.5Q60 755 81.5 762.5Q103 770 136 770Q193 770 219.5 746Q246 722 246 658Q246 617 237.5 599Q229 581 212 572Q235 566 247 545.5Q259 525 259 477Q259 450 253.5 428.5Q248 407 234 391.5Q220 376 196.5 367.5Q173 359 137 359Q99 359 76 368Q53 377 41 394Q29 411 25 435.5Q21 460 21 491L111 503Q111 465 117 452.5Q123 440 140 440Z" glyph-name="threesuperior" horiz-adv-x="281" unicode="&#179;" /><glyph d="M501 761Q499 726 491.5 696Q484 666 470.5 644Q457 622 437 610Q417 598 389 598Q360 598 339.5 609.5Q319 621 302.5 634.5Q286 648 272.5 660Q259 672 244 672Q233 672 226.5 666Q220 660 217 651.5Q214 643 213 634.5Q212 626 212 621L118 632Q120 667 127.5 697Q135 727 148.5 749Q162 771 182 783Q202 795 230 795Q258 795 279 783.5Q300 772 316 758Q332 744 345.5 732.5Q359 721 374 721Q386 721 392 727Q398 733 401 741Q404 749 405 758Q406 767 407 772Z" glyph-name="tilde" horiz-adv-x="620" unicode="&#732;" /><glyph d="M166 510H94V711H15V780H245V711H166ZM402 510 360 635 349 668 350 631V510H276V780H378L424 642L436 603L448 642L494 780H596V510H522V631L523 668L512 635L470 510Z" glyph-name="trademark" horiz-adv-x="611" unicode="&#8482;" /><glyph d="M800 780 410 104 20 780Z" glyph-name="triagdn" horiz-adv-x="820" unicode="&#9660;" /><glyph d="M720 0 44 390 720 780Z" glyph-name="triaglf" horiz-adv-x="820" unicode="&#9668;" /><glyph d="M44 780 720 390 44 0Z" glyph-name="triagrt" horiz-adv-x="820" unicode="&#9658;" /><glyph d="M20 0 410 676 800 0Z" glyph-name="triagup" horiz-adv-x="820" unicode="&#9650;" /><glyph d="M568 780 547 530H434L413 780ZM382 780 361 530H248L227 780ZM197 780 175 530H62L41 780Z" glyph-name="tripleprime" horiz-adv-x="609" unicode="&#8244;" /><glyph d="M261 658Q221 658 205.5 628.5Q190 599 190 524L56 541Q56 598 63 641.5Q70 685 91.5 715Q113 745 154 760Q195 775 264 775Q323 775 361.5 763Q400 751 422.5 725.5Q445 700 454 660Q463 620 463 564Q463 514 454.5 480.5Q446 447 426 420Q406 393 374 368Q342 343 294 310Q256 284 235 264Q214 244 203 223Q192 202 189.5 177.5Q187 153 187 119H472V0H46Q46 96 50 155.5Q54 215 71.5 256Q89 297 124 329.5Q159 362 221 403Q253 424 274 440.5Q295 457 307.5 474Q320 491 325 510Q330 529 330 555Q330 610 316.5 634Q303 658 261 658Z" glyph-name="two" horiz-adv-x="520" unicode="2" /><glyph d="M261 658Q216 658 198.5 629.5Q181 601 181 527L48 544Q48 601 56 644Q64 687 87.5 716.5Q111 746 153 760.5Q195 775 264 775Q323 775 363 763Q403 751 427 725.5Q451 700 461 660Q471 620 471 564Q471 514 461 480Q451 446 430 418Q409 390 375.5 364.5Q342 339 295 306Q257 280 234 260.5Q211 241 199 220.5Q187 200 183 176.5Q179 153 179 119H481V0H38Q38 64 40 111Q42 158 49 193Q56 228 68.5 254.5Q81 281 101 304Q121 327 151 349.5Q181 372 222 400Q254 421 276 438Q298 455 312 472.5Q326 490 332 509.5Q338 529 338 555Q338 610 323 634Q308 658 261 658Z" glyph-name="two.LP" horiz-adv-x="520" unicode="&#58679;" /><glyph d="M142 124Q132 124 127 112Q122 100 122 61L29 73Q29 106 32.5 131Q36 156 48 172.5Q60 189 83 197Q106 205 145 205Q177 205 198 199Q219 193 231.5 180Q244 167 249 145.5Q254 124 254 94Q254 67 250 49Q246 31 236.5 16.5Q227 2 210 -11.5Q193 -25 166 -44Q151 -55 142 -63.5Q133 -72 128.5 -80.5Q124 -89 122.5 -97.5Q121 -106 121 -117H257V-200H24Q24 -148 25.5 -116Q27 -84 36 -61.5Q45 -39 63.5 -21Q82 -3 115 20Q141 37 151 50.5Q161 64 161 87Q161 107 157.5 115.5Q154 124 142 124Z" glyph-name="two.inf" horiz-adv-x="281" unicode="&#58739;" /><glyph d="M142 689Q132 689 127 677Q122 665 122 626L29 638Q29 671 32.5 696Q36 721 48 737.5Q60 754 83 762Q106 770 145 770Q177 770 198 764Q219 758 231.5 745Q244 732 249 710.5Q254 689 254 659Q254 632 250 614Q246 596 236.5 581.5Q227 567 210 553.5Q193 540 166 521Q151 510 142 501.5Q133 493 128.5 484.5Q124 476 122.5 467.5Q121 459 121 448H257V365H24Q24 417 25.5 449Q27 481 36 503.5Q45 526 63.5 544Q82 562 115 585Q141 602 151 615.5Q161 629 161 652Q161 672 157.5 680.5Q154 689 142 689Z" glyph-name="twosuperior" horiz-adv-x="281" unicode="&#178;" /><glyph d="M334 53Q305 23 269 6Q233 -11 178 -11Q107 -11 76 26.5Q45 64 45 132V530H176V162Q176 105 230 105Q262 105 284.5 119.5Q307 134 322 155V530H454V138L457 0H340Z" glyph-name="u" horiz-adv-x="503" unicode="u" /><glyph d="M375 800 314 592H181L227 800ZM334 53Q305 23 269 6Q233 -11 178 -11Q107 -11 76 26.5Q45 64 45 132V530H176V162Q176 105 230 105Q262 105 284.5 119.5Q307 134 322 155V530H454V138L457 0H340Z" glyph-name="uacute" horiz-adv-x="503" unicode="&#250;" /><glyph d="M251 584Q202 584 171 599Q140 614 122 641.5Q104 669 97.5 709Q91 749 92 800H191Q190 751 202.5 725Q215 699 251 699Q287 699 299.5 725Q312 751 311 800H410Q411 749 404.5 709Q398 669 380 641.5Q362 614 331 599Q300 584 251 584ZM334 53Q305 23 269 6Q233 -11 178 -11Q107 -11 76 26.5Q45 64 45 132V530H176V162Q176 105 230 105Q262 105 284.5 119.5Q307 134 322 155V530H454V138L457 0H340Z" glyph-name="ubreve" horiz-adv-x="503" unicode="&#365;" /><glyph d="M84 592 177 800H325L418 592H310L251 705L192 592ZM334 53Q305 23 269 6Q233 -11 178 -11Q107 -11 76 26.5Q45 64 45 132V530H176V162Q176 105 230 105Q262 105 284.5 119.5Q307 134 322 155V530H454V138L457 0H340Z" glyph-name="ucircumflex" horiz-adv-x="503" unicode="&#251;" /><glyph d="M426 629H287V766H426ZM215 629H76V766H215ZM334 53Q305 23 269 6Q233 -11 178 -11Q107 -11 76 26.5Q45 64 45 132V530H176V162Q176 105 230 105Q262 105 284.5 119.5Q307 134 322 155V530H454V138L457 0H340Z" glyph-name="udieresis" horiz-adv-x="503" unicode="&#252;" /><glyph d="M275 800 321 592H188L127 800ZM334 53Q305 23 269 6Q233 -11 178 -11Q107 -11 76 26.5Q45 64 45 132V530H176V162Q176 105 230 105Q262 105 284.5 119.5Q307 134 322 155V530H454V138L457 0H340Z" glyph-name="ugrave" horiz-adv-x="503" unicode="&#249;" /><glyph d="M479 800 409 592H275L328 800ZM299 800 229 592H94L148 800ZM334 53Q305 23 269 6Q233 -11 178 -11Q107 -11 76 26.5Q45 64 45 132V530H176V162Q176 105 230 105Q262 105 284.5 119.5Q307 134 322 155V530H454V138L457 0H340Z" glyph-name="uhungarumlaut" horiz-adv-x="503" unicode="&#369;" /><glyph d="M134 764H368V641H134ZM334 53Q305 23 269 6Q233 -11 178 -11Q107 -11 76 26.5Q45 64 45 132V530H176V162Q176 105 230 105Q262 105 284.5 119.5Q307 134 322 155V530H454V138L457 0H340Z" glyph-name="umacron" horiz-adv-x="503" unicode="&#363;" /><glyph d="M31 -200V-103H322V-200Z" glyph-name="underscore" horiz-adv-x="353" unicode="_" /><glyph d="M30 -200V-103H712V-200Z" glyph-name="underscoremonospace" horiz-adv-x="742" unicode="&#58642;" /><glyph d="M56 273V397H346V273Z" glyph-name="uni00AD" horiz-adv-x="402" unicode="&#173;" /><glyph d="M178 549V444H226Q242 444 252 454.5Q262 465 262 497Q262 529 252.5 539Q243 549 226 549ZM234 215Q255 215 267.5 226.5Q280 238 280 272Q280 307 267.5 320Q255 333 237 333H178V215ZM334 648Q361 634 377.5 602Q394 570 394 510Q394 460 381 434Q368 408 345 397Q412 382 412 267Q412 219 402 187Q392 155 372.5 135.5Q353 116 325 108Q297 100 262 100H218L189 0H72L101 100H52V664H223L252 764H369Z" glyph-name="uni0E3F" horiz-adv-x="445" unicode="&#3647;" /><glyph d="M56 273V397H1364V273Z" glyph-name="uni2015" horiz-adv-x="1420" unicode="&#8213;" /><glyph d="M56 327V451H1364V327Z" glyph-name="uni2015.cap" horiz-adv-x="1420" unicode="&#58504;" /><glyph d="M257 564Q257 500 251.5 460Q246 420 232.5 397.5Q219 375 196.5 367Q174 359 141 359Q107 359 84.5 367Q62 375 48.5 397.5Q35 420 29.5 460Q24 500 24 564Q24 628 29.5 668.5Q35 709 48.5 731.5Q62 754 84.5 762Q107 770 141 770Q174 770 196.5 762Q219 754 232.5 731.5Q246 709 251.5 668.5Q257 628 257 564ZM117 564Q117 523 118 499Q119 475 121.5 462Q124 449 128.5 445Q133 441 141 441Q148 441 152.5 445Q157 449 159.5 462Q162 475 163 499Q164 523 164 564Q164 605 163 629.5Q162 654 159.5 667Q157 680 152.5 684Q148 688 141 688Q133 688 128.5 684Q124 680 121.5 667Q119 654 118 629.5Q117 605 117 564Z" glyph-name="uni2070" horiz-adv-x="281" unicode="&#8304;" /><glyph d="M151 659 100 530 146 532ZM235 449V365H146V449H18V517L131 770H235V532H263V449Z" glyph-name="uni2074" horiz-adv-x="281" unicode="&#8308;" /><glyph d="M141 440Q155 440 161 453.5Q167 467 167 499Q167 539 160.5 551Q154 563 140 563Q129 563 119 555Q109 547 104 533L27 545L37 764H244V680H118L115 614Q127 628 140.5 635Q154 642 175 642Q195 642 210.5 635.5Q226 629 237 612.5Q248 596 254 568.5Q260 541 260 499Q260 419 230 389Q200 359 138 359Q105 359 83 365.5Q61 372 47.5 386.5Q34 401 28 425Q22 449 22 484L115 496Q116 460 121 450Q126 440 141 440Z" glyph-name="uni2075" horiz-adv-x="281" unicode="&#8309;" /><glyph d="M145 559Q134 559 130 552.5Q126 546 119 532Q119 480 123.5 459Q128 438 140 438Q157 438 159.5 452Q162 466 162 498Q162 530 159 544.5Q156 559 145 559ZM140 691Q132 691 128 687Q124 683 122 673Q120 663 119.5 645.5Q119 628 119 601Q130 622 145.5 630.5Q161 639 183 639Q227 639 241.5 606.5Q256 574 256 501Q256 429 231.5 394Q207 359 140 359Q102 359 79.5 370Q57 381 45 405.5Q33 430 29 469Q25 508 25 564Q25 615 28.5 653.5Q32 692 45 718Q58 744 81.5 757Q105 770 146 770Q177 770 197 764Q217 758 229 745Q241 732 246 712Q251 692 252 664L159 652Q158 675 155.5 683Q153 691 140 691Z" glyph-name="uni2076" horiz-adv-x="281" unicode="&#8310;" /><glyph d="M58 365 140 609 166 681 110 680H20V764H263V709L157 365Z" glyph-name="uni2077" horiz-adv-x="281" unicode="&#8311;" /><glyph d="M141 359Q104 359 80 367Q56 375 42.5 389.5Q29 404 23.5 425Q18 446 18 472Q18 517 30 540.5Q42 564 61 573Q44 581 35 604Q26 627 26 659Q26 719 51.5 744.5Q77 770 141 770Q204 770 229.5 744.5Q255 719 255 659Q255 627 246 604Q237 581 220 573Q240 564 251.5 540.5Q263 517 263 472Q263 446 257.5 425Q252 404 238.5 389.5Q225 375 201.5 367Q178 359 141 359ZM141 532Q125 532 116.5 524Q108 516 108 486Q108 463 114.5 452Q121 441 141 441Q160 441 166.5 452Q173 463 173 486Q173 516 164.5 524Q156 532 141 532ZM141 687Q128 687 122.5 679Q117 671 117 648Q117 607 141 607Q164 607 164 648Q164 671 158.5 679Q153 687 141 687Z" glyph-name="uni2078" horiz-adv-x="281" unicode="&#8312;" /><glyph d="M136 570Q147 570 152 576Q157 582 162 592Q162 644 157.5 667.5Q153 691 141 691Q124 691 121.5 677Q119 663 119 631Q119 599 123 584.5Q127 570 136 570ZM142 438Q149 438 153 441Q157 444 159 453Q161 462 161.5 479Q162 496 162 523Q151 503 136 496.5Q121 490 98 490Q57 490 41 522.5Q25 555 25 628Q25 700 49.5 735Q74 770 141 770Q178 770 201 759Q224 748 236 723.5Q248 699 252 660Q256 621 256 565Q256 514 252.5 475.5Q249 437 236 411Q223 385 199 372Q175 359 135 359Q104 359 84 365Q64 371 52 384Q40 397 35 417Q30 437 29 465L122 477Q123 454 125.5 446Q128 438 142 438Z" glyph-name="uni2079" horiz-adv-x="281" unicode="&#8313;" /><glyph d="M150 520H52V606H150V704H236V606H334V520H236V422H150Z" glyph-name="uni207A" horiz-adv-x="386" unicode="&#8314;" /><glyph d="M52 520V606H334V520Z" glyph-name="uni207B" horiz-adv-x="386" unicode="&#8315;" /><glyph d="M52 583V668H334V583ZM52 457V543H334V457Z" glyph-name="uni207C" horiz-adv-x="386" unicode="&#8316;" /><glyph d="M115 563Q115 492 128.5 432Q142 372 169 312H78Q55 353 38 419Q21 485 21 563Q21 640 38 706.5Q55 773 78 813H169Q142 753 128.5 693Q115 633 115 563Z" glyph-name="uni207D" horiz-adv-x="180" unicode="&#8317;" /><glyph d="M65 563Q65 633 52 693Q39 753 11 813H102Q125 773 142 706.5Q159 640 159 563Q159 485 142 419Q125 353 102 312H11Q39 372 52 432Q65 492 65 563Z" glyph-name="uni207E" horiz-adv-x="180" unicode="&#8318;" /><glyph d="M257 199Q257 135 251.5 95Q246 55 232.5 32.5Q219 10 196.5 2Q174 -6 141 -6Q107 -6 84.5 2Q62 10 48.5 32.5Q35 55 29.5 95Q24 135 24 199Q24 263 29.5 303.5Q35 344 48.5 366.5Q62 389 84.5 397Q107 405 141 405Q174 405 196.5 397Q219 389 232.5 366.5Q246 344 251.5 303.5Q257 263 257 199ZM117 199Q117 158 118 134Q119 110 121.5 97Q124 84 128.5 80Q133 76 141 76Q148 76 152.5 80Q157 84 159.5 97Q162 110 163 134Q164 158 164 199Q164 240 163 264.5Q162 289 159.5 302Q157 315 152.5 319Q148 323 141 323Q133 323 128.5 319Q124 315 121.5 302Q119 289 118 264.5Q117 240 117 199Z" glyph-name="uni2080" horiz-adv-x="281" unicode="&#8320;" /><glyph d="M34 0V83H100V273Q88 260 68.5 251Q49 242 28 237V331Q58 339 83 360.5Q108 382 119 405H192V83H258V0Z" glyph-name="uni2081" horiz-adv-x="281" unicode="&#8321;" /><glyph d="M142 324Q132 324 127 312Q122 300 122 261L29 273Q29 306 32.5 331Q36 356 48 372.5Q60 389 83 397Q106 405 145 405Q177 405 198 399Q219 393 231.5 380Q244 367 249 345.5Q254 324 254 294Q254 267 250 249Q246 231 236.5 216.5Q227 202 210 188.5Q193 175 166 156Q151 145 142 136.5Q133 128 128.5 119.5Q124 111 122.5 102.5Q121 94 121 83H257V0H24Q24 52 25.5 84Q27 116 36 138.5Q45 161 63.5 179Q82 197 115 220Q141 237 151 250.5Q161 264 161 287Q161 307 157.5 315.5Q154 324 142 324Z" glyph-name="uni2082" horiz-adv-x="281" unicode="&#8322;" /><glyph d="M140 75Q157 75 161.5 86.5Q166 98 166 121Q166 147 159 155Q152 163 135 163H107V245H135Q147 245 150.5 252.5Q154 260 154 283Q154 307 151 315.5Q148 324 135 324Q121 324 118 312.5Q115 301 115 266L25 277Q25 311 30 335Q35 359 47.5 374.5Q60 390 81.5 397.5Q103 405 136 405Q193 405 219.5 381Q246 357 246 293Q246 252 237.5 234Q229 216 212 207Q235 201 247 180.5Q259 160 259 112Q259 85 253.5 63.5Q248 42 234 26.5Q220 11 196.5 2.5Q173 -6 137 -6Q99 -6 76 3Q53 12 41 29Q29 46 25 70.5Q21 95 21 126L111 138Q111 100 117 87.5Q123 75 140 75Z" glyph-name="uni2083" horiz-adv-x="281" unicode="&#8323;" /><glyph d="M151 294 100 165 146 167ZM235 84V0H146V84H18V152L131 405H235V167H263V84Z" glyph-name="uni2084" horiz-adv-x="281" unicode="&#8324;" /><glyph d="M141 75Q155 75 161 88.5Q167 102 167 134Q167 174 160.5 186Q154 198 140 198Q129 198 119 190Q109 182 104 168L27 180L37 399H244V315H118L115 249Q127 263 140.5 270Q154 277 175 277Q195 277 210.5 270.5Q226 264 237 247.5Q248 231 254 203.5Q260 176 260 134Q260 54 230 24Q200 -6 138 -6Q105 -6 83 0.5Q61 7 47.5 21.5Q34 36 28 60Q22 84 22 119L115 131Q116 95 121 85Q126 75 141 75Z" glyph-name="uni2085" horiz-adv-x="281" unicode="&#8325;" /><glyph d="M145 194Q134 194 130 187.5Q126 181 119 167Q119 115 123.5 94Q128 73 140 73Q157 73 159.5 87Q162 101 162 133Q162 165 159 179.5Q156 194 145 194ZM140 326Q132 326 128 322Q124 318 122 308Q120 298 119.5 280.5Q119 263 119 236Q130 257 145.5 265.5Q161 274 183 274Q227 274 241.5 241.5Q256 209 256 136Q256 64 231.5 29Q207 -6 140 -6Q102 -6 79.5 5Q57 16 45 40.5Q33 65 29 104Q25 143 25 199Q25 250 28.5 288.5Q32 327 45 353Q58 379 81.5 392Q105 405 146 405Q177 405 197 399Q217 393 229 380Q241 367 246 347Q251 327 252 299L159 287Q158 310 155.5 318Q153 326 140 326Z" glyph-name="uni2086" horiz-adv-x="281" unicode="&#8326;" /><glyph d="M58 0 140 244 166 316 110 315H20V399H263V344L157 0Z" glyph-name="uni2087" horiz-adv-x="281" unicode="&#8327;" /><glyph d="M141 -6Q104 -6 80 2Q56 10 42.5 24.5Q29 39 23.5 60Q18 81 18 107Q18 152 30 175.5Q42 199 61 208Q44 216 35 239Q26 262 26 294Q26 354 51.5 379.5Q77 405 141 405Q204 405 229.5 379.5Q255 354 255 294Q255 262 246 239Q237 216 220 208Q240 199 251.5 175.5Q263 152 263 107Q263 81 257.5 60Q252 39 238.5 24.5Q225 10 201.5 2Q178 -6 141 -6ZM141 167Q125 167 116.5 159Q108 151 108 121Q108 98 114.5 87Q121 76 141 76Q160 76 166.5 87Q173 98 173 121Q173 151 164.5 159Q156 167 141 167ZM141 322Q128 322 122.5 314Q117 306 117 283Q117 242 141 242Q164 242 164 283Q164 306 158.5 314Q153 322 141 322Z" glyph-name="uni2088" horiz-adv-x="281" unicode="&#8328;" /><glyph d="M136 205Q147 205 152 211Q157 217 162 227Q162 279 157.5 302.5Q153 326 141 326Q124 326 121.5 312Q119 298 119 266Q119 234 123 219.5Q127 205 136 205ZM142 73Q149 73 153 76Q157 79 159 88Q161 97 161.5 114Q162 131 162 158Q151 138 136 131.5Q121 125 98 125Q57 125 41 157.5Q25 190 25 263Q25 335 49.5 370Q74 405 141 405Q178 405 201 394Q224 383 236 358.5Q248 334 252 295Q256 256 256 200Q256 149 252.5 110.5Q249 72 236 46Q223 20 199 7Q175 -6 135 -6Q104 -6 84 0Q64 6 52 19Q40 32 35 52Q30 72 29 100L122 112Q123 89 125.5 81Q128 73 142 73Z" glyph-name="uni2089" horiz-adv-x="281" unicode="&#8329;" /><glyph d="M150 155H52V241H150V339H236V241H334V155H236V57H150Z" glyph-name="uni208A" horiz-adv-x="386" unicode="&#8330;" /><glyph d="M52 155V241H334V155Z" glyph-name="uni208B" horiz-adv-x="386" unicode="&#8331;" /><glyph d="M52 218V303H334V218ZM52 92V178H334V92Z" glyph-name="uni208C" horiz-adv-x="386" unicode="&#8332;" /><glyph d="M115 198Q115 127 128.5 67Q142 7 169 -53H78Q55 -12 38 54Q21 120 21 198Q21 275 38 341.5Q55 408 78 448H169Q142 388 128.5 328Q115 268 115 198Z" glyph-name="uni208D" horiz-adv-x="180" unicode="&#8333;" /><glyph d="M65 198Q65 268 52 328Q39 388 11 448H102Q125 408 142 341.5Q159 275 159 198Q159 120 142 54Q125 -12 102 -53H11Q39 7 52 67Q65 127 65 198Z" glyph-name="uni208E" horiz-adv-x="180" unicode="&#8334;" /><glyph d="M343 559Q342 601 331 624L193 160Q201 136 213 125ZM176 382Q176 298 179 243L301 653Q284 658 265 658Q236 658 218.5 644Q201 630 191.5 597.5Q182 565 179 512.5Q176 460 176 382ZM432 730Q458 705 467.5 666Q477 627 477 572L381 560L246 107Q251 106 255.5 106Q260 106 265 106Q287 106 301.5 111.5Q316 117 325 129Q334 141 338 160.5Q342 180 343 209L477 192Q477 140 468.5 101.5Q460 63 437 38Q414 13 374 1Q334 -11 271 -11Q254 -11 240 -10Q226 -9 212 -7L201 -46H162L176 1Q168 3 161.5 6.5Q155 10 149 13L131 -46H93L117 35Q73 76 57.5 159.5Q42 243 42 382Q42 492 52 567.5Q62 643 87.5 689Q113 735 157.5 755Q202 775 271 775Q289 775 305.5 773.5Q322 772 336 770L348 810H387L373 763Q381 761 387.5 758Q394 755 400 752L418 810H456Z" glyph-name="uni20A1" horiz-adv-x="510" unicode="&#8353;" /><glyph d="M434 344Q405 344 381.5 331.5Q358 319 338 296V97Q368 106 379 131.5Q390 157 391 209L477 192Q477 140 468.5 101.5Q460 63 437 38Q414 13 374 1Q334 -11 271 -11Q202 -11 157.5 9Q113 29 87.5 75Q62 121 52 196.5Q42 272 42 382Q42 492 52 567.5Q62 643 87.5 689Q113 735 157.5 755Q202 775 271 775Q334 775 374 763Q414 751 437 726Q460 701 468.5 662.5Q477 624 477 572L343 555Q342 584 338 603.5Q334 623 325 635Q316 647 301.5 652.5Q287 658 265 658Q236 658 218.5 644Q201 630 191.5 597.5Q182 565 179 512.5Q176 460 176 382Q176 312 178.5 261.5Q181 211 188.5 177Q196 143 210.5 123.5Q225 104 248 97V322L245 460H321L328 402Q348 437 375 454Q402 471 433 471Q445 471 456 469Q467 467 476 461L469 340Q463 342 453 343Q443 344 434 344Z" glyph-name="uni20A2" horiz-adv-x="510" unicode="&#8354;" /><glyph d="M425 268H418L426 243ZM219 496H226L219 521ZM221 410 222 354H270L250 420V410ZM395 354H424L423 410H374L395 343ZM346 496H423V764H544V496H605V410H544V354H605V268H544V0H391L299 268H223V0H101V268H40V354H101V410H40V496H101V764H255Z" glyph-name="uni20A6" horiz-adv-x="640" unicode="&#8358;" /><glyph d="M263 398Q305 398 324 425Q343 452 343 521Q343 589 324 616Q305 643 263 643H192V398ZM192 0H56V764H270Q313 764 351.5 753.5Q390 743 418.5 715.5Q447 688 463.5 641Q480 594 480 521Q480 427 454 375.5Q428 324 385 301Q419 201 475.5 145.5Q532 90 620 90Q668 90 696.5 94.5Q725 99 740.5 107.5Q756 116 760.5 128.5Q765 141 765 157Q765 175 760 186.5Q755 198 745 205.5Q735 213 720 217Q705 221 686 224Q643 229 610 237Q577 245 555 261.5Q533 278 521.5 306Q510 334 510 379Q510 425 525 456Q540 487 566 506Q592 525 627 533Q662 541 703 541Q762 541 798 532Q834 523 854 504Q874 485 881 455.5Q888 426 888 385L758 368Q758 403 747.5 421.5Q737 440 705 440Q675 440 664 423.5Q653 407 653 378Q653 346 668.5 334.5Q684 323 720 316Q762 311 796 303.5Q830 296 853.5 280Q877 264 890 235.5Q903 207 903 160Q903 113 887 80Q871 47 836.5 27Q802 7 748 -2Q694 -11 617 -11Q534 -11 476 10Q418 31 377.5 68.5Q337 106 310.5 159Q284 212 264 277H192Z" glyph-name="uni20A8" horiz-adv-x="930" unicode="&#8360;" /><glyph d="M225 268 233 172 265 410H215L219 354H226V268ZM544 354H551L555 410H504L537 172L544 268ZM355 354H414L385 589ZM424 268H345L311 -7H140L112 268H40V354H103L97 410H40V496H88L60 764H188L208 496H277L314 764H456L492 496H561L582 764H710L682 496H730V410H673L667 354H730V268H658L630 -7H459Z" glyph-name="uni20A9" horiz-adv-x="770" unicode="&#8361;" /><glyph d="M222 0V601H292V116H379Q450 116 450 187V764H572V183Q572 89 523 44.5Q474 0 380 0ZM213 764Q307 764 356 719.5Q405 675 405 581V163H336V577Q336 648 265 648H178V0H56V764Z" glyph-name="uni20AA" horiz-adv-x="628" unicode="&#8362;" /><glyph d="M144 273V331L66 288V374L144 417V643H31V764H393V643H279V492L364 539V452L279 405V347L364 394V308L279 261V0H144V187L66 144V230Z" glyph-name="uni20AE" horiz-adv-x="423" unicode="&#8366;" /><glyph d="M311 377Q341 377 359 391.5Q377 406 385 443V479H389Q390 485 390 492Q390 499 390 507Q390 515 390 521.5Q390 528 389 535H385V570Q377 606 359 621Q341 636 311 636H239V377ZM515 393Q504 350 484.5 322.5Q465 295 439.5 279Q414 263 383 256.5Q352 250 318 250H239V0H104V393H40V479H104V535H40V621H104V764H318Q352 764 383 757.5Q414 751 439.5 735Q465 719 484.5 691Q504 663 515 621H584V535H527Q528 528 528 521Q528 514 528 507Q528 499 528 492.5Q528 486 527 479H584V393Z" glyph-name="uni20B1" horiz-adv-x="623" unicode="&#8369;" /><glyph d="M616 75Q633 75 637.5 86.5Q642 98 642 121Q642 147 635 155Q628 163 611 163H583V245H611Q623 245 626.5 252.5Q630 260 630 283Q630 307 627 315.5Q624 324 611 324Q597 324 594 312.5Q591 301 591 266L501 277Q501 311 506 335Q511 359 523.5 374.5Q536 390 557.5 397.5Q579 405 612 405Q669 405 695.5 381Q722 357 722 293Q722 252 713.5 234Q705 216 688 207Q711 201 723 180.5Q735 160 735 112Q735 85 729.5 63.5Q724 42 710 26.5Q696 11 672.5 2.5Q649 -6 613 -6Q575 -6 552 3Q529 12 517 29Q505 46 501 70.5Q497 95 497 126L587 138Q587 100 593 87.5Q599 75 616 75ZM522 764H626L235 0H131ZM34 365V448H100V638Q88 625 68.5 616Q49 607 28 602V696Q58 704 83 725.5Q108 747 119 770H192V448H258V365Z" glyph-name="uni2153" horiz-adv-x="757" unicode="&#8531;" /><glyph d="M616 75Q633 75 637.5 86.5Q642 98 642 121Q642 147 635 155Q628 163 611 163H583V245H611Q623 245 626.5 252.5Q630 260 630 283Q630 307 627 315.5Q624 324 611 324Q597 324 594 312.5Q591 301 591 266L501 277Q501 311 506 335Q511 359 523.5 374.5Q536 390 557.5 397.5Q579 405 612 405Q669 405 695.5 381Q722 357 722 293Q722 252 713.5 234Q705 216 688 207Q711 201 723 180.5Q735 160 735 112Q735 85 729.5 63.5Q724 42 710 26.5Q696 11 672.5 2.5Q649 -6 613 -6Q575 -6 552 3Q529 12 517 29Q505 46 501 70.5Q497 95 497 126L587 138Q587 100 593 87.5Q599 75 616 75ZM522 764H626L235 0H131ZM142 689Q132 689 127 677Q122 665 122 626L29 638Q29 671 32.5 696Q36 721 48 737.5Q60 754 83 762Q106 770 145 770Q177 770 198 764Q219 758 231.5 745Q244 732 249 710.5Q254 689 254 659Q254 632 250 614Q246 596 236.5 581.5Q227 567 210 553.5Q193 540 166 521Q151 510 142 501.5Q133 493 128.5 484.5Q124 476 122.5 467.5Q121 459 121 448H257V365H24Q24 417 25.5 449Q27 481 36 503.5Q45 526 63.5 544Q82 562 115 585Q141 602 151 615.5Q161 629 161 652Q161 672 157.5 680.5Q154 689 142 689Z" glyph-name="uni2154" horiz-adv-x="757" unicode="&#8532;" /><glyph d="M617 75Q631 75 637 88.5Q643 102 643 134Q643 174 636.5 186Q630 198 616 198Q605 198 595 190Q585 182 580 168L503 180L513 399H720V315H594L591 249Q603 263 616.5 270Q630 277 651 277Q671 277 686.5 270.5Q702 264 713 247.5Q724 231 730 203.5Q736 176 736 134Q736 54 706 24Q676 -6 614 -6Q581 -6 559 0.5Q537 7 523.5 21.5Q510 36 504 60Q498 84 498 119L591 131Q592 95 597 85Q602 75 617 75ZM522 764H626L235 0H131ZM34 365V448H100V638Q88 625 68.5 616Q49 607 28 602V696Q58 704 83 725.5Q108 747 119 770H192V448H258V365Z" glyph-name="uni2155" horiz-adv-x="757" unicode="&#8533;" /><glyph d="M617 75Q631 75 637 88.5Q643 102 643 134Q643 174 636.5 186Q630 198 616 198Q605 198 595 190Q585 182 580 168L503 180L513 399H720V315H594L591 249Q603 263 616.5 270Q630 277 651 277Q671 277 686.5 270.5Q702 264 713 247.5Q724 231 730 203.5Q736 176 736 134Q736 54 706 24Q676 -6 614 -6Q581 -6 559 0.5Q537 7 523.5 21.5Q510 36 504 60Q498 84 498 119L591 131Q592 95 597 85Q602 75 617 75ZM522 764H626L235 0H131ZM142 689Q132 689 127 677Q122 665 122 626L29 638Q29 671 32.5 696Q36 721 48 737.5Q60 754 83 762Q106 770 145 770Q177 770 198 764Q219 758 231.5 745Q244 732 249 710.5Q254 689 254 659Q254 632 250 614Q246 596 236.5 581.5Q227 567 210 553.5Q193 540 166 521Q151 510 142 501.5Q133 493 128.5 484.5Q124 476 122.5 467.5Q121 459 121 448H257V365H24Q24 417 25.5 449Q27 481 36 503.5Q45 526 63.5 544Q82 562 115 585Q141 602 151 615.5Q161 629 161 652Q161 672 157.5 680.5Q154 689 142 689Z" glyph-name="uni2156" horiz-adv-x="757" unicode="&#8534;" /><glyph d="M617 75Q631 75 637 88.5Q643 102 643 134Q643 174 636.5 186Q630 198 616 198Q605 198 595 190Q585 182 580 168L503 180L513 399H720V315H594L591 249Q603 263 616.5 270Q630 277 651 277Q671 277 686.5 270.5Q702 264 713 247.5Q724 231 730 203.5Q736 176 736 134Q736 54 706 24Q676 -6 614 -6Q581 -6 559 0.5Q537 7 523.5 21.5Q510 36 504 60Q498 84 498 119L591 131Q592 95 597 85Q602 75 617 75ZM522 764H626L235 0H131ZM140 440Q157 440 161.5 451.5Q166 463 166 486Q166 512 159 520Q152 528 135 528H107V610H135Q147 610 150.5 617.5Q154 625 154 648Q154 672 151 680.5Q148 689 135 689Q121 689 118 677.5Q115 666 115 631L25 642Q25 676 30 700Q35 724 47.5 739.5Q60 755 81.5 762.5Q103 770 136 770Q193 770 219.5 746Q246 722 246 658Q246 617 237.5 599Q229 581 212 572Q235 566 247 545.5Q259 525 259 477Q259 450 253.5 428.5Q248 407 234 391.5Q220 376 196.5 367.5Q173 359 137 359Q99 359 76 368Q53 377 41 394Q29 411 25 435.5Q21 460 21 491L111 503Q111 465 117 452.5Q123 440 140 440Z" glyph-name="uni2157" horiz-adv-x="757" unicode="&#8535;" /><glyph d="M617 75Q631 75 637 88.5Q643 102 643 134Q643 174 636.5 186Q630 198 616 198Q605 198 595 190Q585 182 580 168L503 180L513 399H720V315H594L591 249Q603 263 616.5 270Q630 277 651 277Q671 277 686.5 270.5Q702 264 713 247.5Q724 231 730 203.5Q736 176 736 134Q736 54 706 24Q676 -6 614 -6Q581 -6 559 0.5Q537 7 523.5 21.5Q510 36 504 60Q498 84 498 119L591 131Q592 95 597 85Q602 75 617 75ZM522 764H626L235 0H131ZM151 659 100 530 146 532ZM235 449V365H146V449H18V517L131 770H235V532H263V449Z" glyph-name="uni2158" horiz-adv-x="757" unicode="&#8536;" /><glyph d="M621 194Q610 194 606 187.5Q602 181 595 167Q595 115 599.5 94Q604 73 616 73Q633 73 635.5 87Q638 101 638 133Q638 165 635 179.5Q632 194 621 194ZM616 326Q608 326 604 322Q600 318 598 308Q596 298 595.5 280.5Q595 263 595 236Q606 257 621.5 265.5Q637 274 659 274Q703 274 717.5 241.5Q732 209 732 136Q732 64 707.5 29Q683 -6 616 -6Q578 -6 555.5 5Q533 16 521 40.5Q509 65 505 104Q501 143 501 199Q501 250 504.5 288.5Q508 327 521 353Q534 379 557.5 392Q581 405 622 405Q653 405 673 399Q693 393 705 380Q717 367 722 347Q727 327 728 299L635 287Q634 310 631.5 318Q629 326 616 326ZM522 764H626L235 0H131ZM34 365V448H100V638Q88 625 68.5 616Q49 607 28 602V696Q58 704 83 725.5Q108 747 119 770H192V448H258V365Z" glyph-name="uni2159" horiz-adv-x="757" unicode="&#8537;" /><glyph d="M621 194Q610 194 606 187.5Q602 181 595 167Q595 115 599.5 94Q604 73 616 73Q633 73 635.5 87Q638 101 638 133Q638 165 635 179.5Q632 194 621 194ZM616 326Q608 326 604 322Q600 318 598 308Q596 298 595.5 280.5Q595 263 595 236Q606 257 621.5 265.5Q637 274 659 274Q703 274 717.5 241.5Q732 209 732 136Q732 64 707.5 29Q683 -6 616 -6Q578 -6 555.5 5Q533 16 521 40.5Q509 65 505 104Q501 143 501 199Q501 250 504.5 288.5Q508 327 521 353Q534 379 557.5 392Q581 405 622 405Q653 405 673 399Q693 393 705 380Q717 367 722 347Q727 327 728 299L635 287Q634 310 631.5 318Q629 326 616 326ZM522 764H626L235 0H131ZM141 440Q155 440 161 453.5Q167 467 167 499Q167 539 160.5 551Q154 563 140 563Q129 563 119 555Q109 547 104 533L27 545L37 764H244V680H118L115 614Q127 628 140.5 635Q154 642 175 642Q195 642 210.5 635.5Q226 629 237 612.5Q248 596 254 568.5Q260 541 260 499Q260 419 230 389Q200 359 138 359Q105 359 83 365.5Q61 372 47.5 386.5Q34 401 28 425Q22 449 22 484L115 496Q116 460 121 450Q126 440 141 440Z" glyph-name="uni215A" horiz-adv-x="757" unicode="&#8538;" /><glyph d="M617 -6Q580 -6 556 2Q532 10 518.5 24.5Q505 39 499.5 60Q494 81 494 107Q494 152 506 175.5Q518 199 537 208Q520 216 511 239Q502 262 502 294Q502 354 527.5 379.5Q553 405 617 405Q680 405 705.5 379.5Q731 354 731 294Q731 262 722 239Q713 216 696 208Q716 199 727.5 175.5Q739 152 739 107Q739 81 733.5 60Q728 39 714.5 24.5Q701 10 677.5 2Q654 -6 617 -6ZM617 167Q601 167 592.5 159Q584 151 584 121Q584 98 590.5 87Q597 76 617 76Q636 76 642.5 87Q649 98 649 121Q649 151 640.5 159Q632 167 617 167ZM617 322Q604 322 598.5 314Q593 306 593 283Q593 242 617 242Q640 242 640 283Q640 306 634.5 314Q629 322 617 322ZM522 764H626L235 0H131ZM34 365V448H100V638Q88 625 68.5 616Q49 607 28 602V696Q58 704 83 725.5Q108 747 119 770H192V448H258V365Z" glyph-name="uni215B" horiz-adv-x="757" unicode="&#8539;" /><glyph d="M617 -6Q580 -6 556 2Q532 10 518.5 24.5Q505 39 499.5 60Q494 81 494 107Q494 152 506 175.5Q518 199 537 208Q520 216 511 239Q502 262 502 294Q502 354 527.5 379.5Q553 405 617 405Q680 405 705.5 379.5Q731 354 731 294Q731 262 722 239Q713 216 696 208Q716 199 727.5 175.5Q739 152 739 107Q739 81 733.5 60Q728 39 714.5 24.5Q701 10 677.5 2Q654 -6 617 -6ZM617 167Q601 167 592.5 159Q584 151 584 121Q584 98 590.5 87Q597 76 617 76Q636 76 642.5 87Q649 98 649 121Q649 151 640.5 159Q632 167 617 167ZM617 322Q604 322 598.5 314Q593 306 593 283Q593 242 617 242Q640 242 640 283Q640 306 634.5 314Q629 322 617 322ZM522 764H626L235 0H131ZM140 440Q157 440 161.5 451.5Q166 463 166 486Q166 512 159 520Q152 528 135 528H107V610H135Q147 610 150.5 617.5Q154 625 154 648Q154 672 151 680.5Q148 689 135 689Q121 689 118 677.5Q115 666 115 631L25 642Q25 676 30 700Q35 724 47.5 739.5Q60 755 81.5 762.5Q103 770 136 770Q193 770 219.5 746Q246 722 246 658Q246 617 237.5 599Q229 581 212 572Q235 566 247 545.5Q259 525 259 477Q259 450 253.5 428.5Q248 407 234 391.5Q220 376 196.5 367.5Q173 359 137 359Q99 359 76 368Q53 377 41 394Q29 411 25 435.5Q21 460 21 491L111 503Q111 465 117 452.5Q123 440 140 440Z" glyph-name="uni215C" horiz-adv-x="757" unicode="&#8540;" /><glyph d="M617 -6Q580 -6 556 2Q532 10 518.5 24.5Q505 39 499.5 60Q494 81 494 107Q494 152 506 175.5Q518 199 537 208Q520 216 511 239Q502 262 502 294Q502 354 527.5 379.5Q553 405 617 405Q680 405 705.5 379.5Q731 354 731 294Q731 262 722 239Q713 216 696 208Q716 199 727.5 175.5Q739 152 739 107Q739 81 733.5 60Q728 39 714.5 24.5Q701 10 677.5 2Q654 -6 617 -6ZM617 167Q601 167 592.5 159Q584 151 584 121Q584 98 590.5 87Q597 76 617 76Q636 76 642.5 87Q649 98 649 121Q649 151 640.5 159Q632 167 617 167ZM617 322Q604 322 598.5 314Q593 306 593 283Q593 242 617 242Q640 242 640 283Q640 306 634.5 314Q629 322 617 322ZM522 764H626L235 0H131ZM141 440Q155 440 161 453.5Q167 467 167 499Q167 539 160.5 551Q154 563 140 563Q129 563 119 555Q109 547 104 533L27 545L37 764H244V680H118L115 614Q127 628 140.5 635Q154 642 175 642Q195 642 210.5 635.5Q226 629 237 612.5Q248 596 254 568.5Q260 541 260 499Q260 419 230 389Q200 359 138 359Q105 359 83 365.5Q61 372 47.5 386.5Q34 401 28 425Q22 449 22 484L115 496Q116 460 121 450Q126 440 141 440Z" glyph-name="uni215D" horiz-adv-x="757" unicode="&#8541;" /><glyph d="M577 -6Q540 -6 516 2Q492 10 478.5 24.5Q465 39 459.5 60Q454 81 454 107Q454 152 466 175.5Q478 199 497 208Q480 216 471 239Q462 262 462 294Q462 354 487.5 379.5Q513 405 577 405Q640 405 665.5 379.5Q691 354 691 294Q691 262 682 239Q673 216 656 208Q676 199 687.5 175.5Q699 152 699 107Q699 81 693.5 60Q688 39 674.5 24.5Q661 10 637.5 2Q614 -6 577 -6ZM577 167Q561 167 552.5 159Q544 151 544 121Q544 98 550.5 87Q557 76 577 76Q596 76 602.5 87Q609 98 609 121Q609 151 600.5 159Q592 167 577 167ZM577 322Q564 322 558.5 314Q553 306 553 283Q553 242 577 242Q600 242 600 283Q600 306 594.5 314Q589 322 577 322ZM482 764H586L195 0H91ZM58 365 140 609 166 681 110 680H20V764H263V709L157 365Z" glyph-name="uni215E" horiz-adv-x="717" unicode="&#8542;" /><glyph d="M522 764H626L235 0H131ZM34 365V448H100V638Q88 625 68.5 616Q49 607 28 602V696Q58 704 83 725.5Q108 747 119 770H192V448H258V365Z" glyph-name="uni215F" horiz-adv-x="496" unicode="&#8543;" /><glyph d="M143 227 29 733 90 794 596 680 489 574 351 611 280 630 396 518 666 248 575 157 306 427 194 544 213 473 250 334Z" glyph-name="uni2196" horiz-adv-x="880" unicode="&#8598;" /><glyph d="M630 334 667 473 686 544 574 427 305 157 214 248 484 518 600 630 529 611 391 574 284 680 790 794 851 733 737 227Z" glyph-name="uni2197" horiz-adv-x="880" unicode="&#8599;" /><glyph d="M737 560 851 53 790 -7 284 107 391 213 529 176 600 157 484 269 214 539 305 630 574 360 686 243 667 314 630 453Z" glyph-name="uni2198" horiz-adv-x="880" unicode="&#8600;" /><glyph d="M250 453 213 314 194 243 306 360 575 630 666 539 396 269 280 157 351 176 489 213 596 107 90 -7 29 53 143 560Z" glyph-name="uni2199" horiz-adv-x="880" unicode="&#8601;" /><glyph d="M588 754 790 0 36 202Z" glyph-name="uni25E2" horiz-adv-x="820" unicode="&#9698;" /><glyph d="M784 202 30 0 232 754Z" glyph-name="uni25E3" horiz-adv-x="820" unicode="&#9699;" /><glyph d="M232 26 30 780 784 578Z" glyph-name="uni25E4" horiz-adv-x="820" unicode="&#9700;" /><glyph d="M36 578 790 780 588 26Z" glyph-name="uni25E5" horiz-adv-x="820" unicode="&#9701;" /><glyph d="M190 -10 289 297 29 486H351L450 792L549 486H871L611 297L710 -10L450 180Z" glyph-name="uni2605" horiz-adv-x="900" unicode="&#9733;" /><glyph d="M721 360 876 287 705 302 837 190 675 249 773 108 632 206 690 44 579 174 594 4 520 159 490 -10 460 159 386 4 401 174 290 44 348 206 207 108 305 249 143 190 275 302 104 287 259 360 90 390 259 420 104 493 275 478 143 590 305 531 207 672 348 574 290 736 401 606 386 776 460 621 490 790 520 621 594 776 579 606 690 736 632 574 773 672 675 531 837 590 705 478 876 493 721 420 890 390Z" glyph-name="uni263C" horiz-adv-x="980" unicode="&#9788;" /><glyph d="M634 728Q567 728 508 701.5Q449 675 405 629Q361 583 335.5 521.5Q310 460 310 390Q310 320 335.5 258.5Q361 197 405 151Q449 105 508 78.5Q567 52 634 52Q683 52 730 67Q679 30 617.5 10Q556 -10 490 -10Q407 -10 334 21.5Q261 53 207 107Q153 161 121.5 234Q90 307 90 390Q90 473 121.5 546Q153 619 207 673Q261 727 334 758.5Q407 790 490 790Q556 790 617.5 769.5Q679 749 730 713Q707 720 683 724Q659 728 634 728Z" glyph-name="uni263E" horiz-adv-x="980" unicode="&#9790;" /><glyph d="M885 410Q889 403 892 391.5Q895 380 895 366Q895 340 883.5 317Q872 294 855 277Q838 260 818.5 250Q799 240 783 240L667 441L816 527ZM321 41Q313 41 300.5 44Q288 47 277 54Q254 67 240 88.5Q226 110 219.5 133Q213 156 214.5 178Q216 200 224 214H456V41ZM277 717Q281 724 290 732.5Q299 741 311 748Q333 761 358.5 762.5Q384 764 407.5 758Q431 752 449.5 739.5Q468 727 476 713L360 512L210 598ZM414 780H607Q621 780 633.5 778.5Q646 777 657.5 772.5Q669 768 679 759Q689 750 699 733L727 684L770 708L709 542L536 573L577 597L505 722Q494 742 478 753Q462 764 448 770Q431 777 414 779ZM194 122 98 290Q92 302 86.5 313.5Q81 325 79.5 337Q78 349 81 362.5Q84 376 94 393L122 442L80 466L254 497L313 331L272 355Q253 321 237 294Q223 271 212 251.5Q201 232 200 230Q189 210 187 191.5Q185 173 187 157Q190 139 196 122ZM874 264 778 97Q770 85 763 75Q756 65 746 57.5Q736 50 723 45.5Q710 41 690 41H633V-8L520 128L633 263V214H778Q800 214 818 222Q836 230 848 240Q862 251 873 266Z" glyph-name="uni267B" horiz-adv-x="980" unicode="&#9851;" /></font>
</defs>
</svg>
