<?xml version="1.0" encoding="utf-8"?>
<!-- Generator: Adobe Illustrator 18.0.0, SVG Export Plug-In . SVG Version: 6.00 Build 0)  -->
<!DOCTYPE svg PUBLIC "-//W3C//DTD SVG 1.1//EN" "http://www.w3.org/Graphics/SVG/1.1/DTD/svg11.dtd">
<svg version="1.1" id="Layer_1" xmlns="http://www.w3.org/2000/svg" xmlns:xlink="http://www.w3.org/1999/xlink" x="0px" y="0px"
	 viewBox="0 8 55 34.7" enable-background="new 0 8 55 34.7" xml:space="preserve">
<g>
	
		<radialGradient id="SVGID_1_" cx="-137.1444" cy="283.9002" r="44.8427" gradientTransform="matrix(1 0 0 -0.5894 149.0522 183.4807)" gradientUnits="userSpaceOnUse">
		<stop  offset="0" style="stop-color:#9DD2F1"/>
		<stop  offset="7.110000e-02" style="stop-color:#98D0F0"/>
		<stop  offset="0.1575" style="stop-color:#8ACDEF"/>
		<stop  offset="0.2516" style="stop-color:#71C3EB"/>
		<stop  offset="0.3514" style="stop-color:#50B9E9"/>
		<stop  offset="0.4546" style="stop-color:#2CAADF"/>
		<stop  offset="0.5" style="stop-color:#1BA3DB"/>
		<stop  offset="1" style="stop-color:#3076B7"/>
	</radialGradient>
	<path fill="url(#SVGID_1_)" d="M51.3,11.2H3.5v28.3h47.8v-9.3c0.2-0.2,0.3-0.4,0.3-0.6c0-0.3-0.1-0.5-0.3-0.6"/>
	<path fill="#FFFFFF" d="M7.8,21.7l-0.9-2.2L6,21.7 M28.1,20.9C27.9,21,27.7,21,27.4,21h-1.6v-1.2h1.7c0.2,0,0.5,0,0.6,0.1
		c0.2,0.1,0.3,0.3,0.3,0.5C28.3,20.6,28.2,20.8,28.1,20.9z M39.7,21.7l-0.9-2.2l-0.9,2.2H39.7z M18,24.2h-1.4l0-4.4l-1.9,4.4h-1.2
		l-2-4.4v4.4H8.8l-0.5-1.3H5.5L5,24.2H3.5l2.4-5.6h2l2.3,5.3v-5.3h2.2l1.8,3.8l1.6-3.8H18L18,24.2L18,24.2z M23.5,24.2H19v-5.6h4.5
		v1.2h-3.1v1h3.1v1.2h-3.1V23h3.1V24.2z M29.8,20.1c0,0.9-0.6,1.4-0.9,1.5c0.3,0.1,0.5,0.3,0.7,0.5c0.2,0.3,0.2,0.5,0.2,1v1.1h-1.4
		l0-0.7c0-0.3,0-0.8-0.2-1.1c-0.2-0.2-0.5-0.2-1-0.2h-1.4v2h-1.3v-5.6h3.1c0.7,0,1.2,0,1.6,0.3C29.6,19.1,29.8,19.4,29.8,20.1z
		 M32,24.2h-1.4v-5.6H32V24.2z M47.9,24.2H46L43.4,20v4.2h-2.7l-0.5-1.3h-2.8l-0.5,1.3h-1.6c-0.7,0-1.5-0.1-1.9-0.6
		c-0.5-0.5-0.7-1.1-0.7-2.1c0-0.8,0.1-1.6,0.7-2.2c0.4-0.4,1.1-0.7,2-0.7h1.3v1.2h-1.3c-0.5,0-0.8,0.1-1,0.3
		c-0.2,0.2-0.4,0.7-0.4,1.3c0,0.6,0.1,1,0.4,1.3c0.2,0.2,0.6,0.3,0.9,0.3h0.6l1.9-4.4h2l2.3,5.3v-5.3h2l2.4,3.9v-3.9h1.4V24.2
		L47.9,24.2z M3.5,25.3h2.3L6.3,24h1.2L8,25.3h4.5v-1l0.4,1h2.3l0.4-1v1h11.2l0-2h0.2c0.2,0,0.2,0,0.2,0.3v1.8h5.8v-0.5
		c0.5,0.3,1.2,0.5,2.2,0.5h2.4l0.5-1.2h1.2l0.5,1.2h4.7v-1.2l0.7,1.2h3.8v-7.8h-3.7v0.9l-0.5-0.9H41v0.9l-0.5-0.9h-5.2
		c-0.9,0-1.6,0.1-2.2,0.5v-0.5h-3.6v0.5c-0.4-0.3-0.9-0.5-1.5-0.5H15l-0.9,2l-0.9-2H9.1v0.9l-0.5-0.9H5.1l-1.6,3.7L3.5,25.3
		L3.5,25.3z"/>
	<path fill="#FFFFFF" d="M51.3,29.4h-2.4c-0.2,0-0.4,0-0.5,0.1c-0.1,0.1-0.2,0.2-0.2,0.4c0,0.2,0.1,0.4,0.3,0.4
		c0.1,0,0.3,0.1,0.5,0.1l0.7,0c0.7,0,1.2,0.1,1.5,0.5c0.1,0,0.1,0.1,0.1,0.1 M51.3,33.1c-0.3,0.5-1,0.7-1.8,0.7h-2.6v-1.2h2.6
		c0.3,0,0.4,0,0.5-0.1c0.1-0.1,0.2-0.2,0.2-0.4c0-0.2-0.1-0.3-0.2-0.4c-0.1-0.1-0.2-0.1-0.5-0.1c-1.3,0-2.8,0-2.8-1.7
		c0-0.8,0.5-1.7,1.9-1.7h2.7v-1.1h-2.5c-0.8,0-1.3,0.2-1.7,0.5v-0.5h-3.7c-0.6,0-1.3,0.1-1.6,0.5v-0.5h-6.6v0.5
		c-0.5-0.4-1.4-0.5-1.8-0.5h-4.3v0.5c-0.4-0.4-1.3-0.5-1.9-0.5h-4.8l-1.1,1.2l-1-1.2H13v7.8h7.1l1.1-1.2l1.1,1.2l4.4,0v-1.8h0.4
		c0.6,0,1.3,0,1.9-0.3v2.1h3.6v-2h0.2c0.2,0,0.2,0,0.2,0.2v1.8h11c0.7,0,1.4-0.2,1.8-0.5v0.5h3.5c0.7,0,1.4-0.1,2-0.4V33.1
		L51.3,33.1z M45.9,30.9c0.3,0.3,0.4,0.6,0.4,1.2c0,1.2-0.8,1.8-2.1,1.8h-2.6v-1.2h2.6c0.3,0,0.4,0,0.5-0.1c0.1-0.1,0.2-0.2,0.2-0.4
		c0-0.2-0.1-0.3-0.2-0.4c-0.1-0.1-0.2-0.1-0.5-0.1c-1.3,0-2.8,0-2.8-1.7c0-0.8,0.5-1.7,1.9-1.7h2.7v1.2h-2.5c-0.2,0-0.4,0-0.5,0.1
		c-0.1,0.1-0.2,0.2-0.2,0.4c0,0.2,0.1,0.4,0.3,0.4c0.1,0,0.3,0.1,0.5,0.1l0.7,0C45.1,30.4,45.6,30.6,45.9,30.9z M33.8,30.5
		c-0.2,0.1-0.4,0.1-0.7,0.1h-1.6v-1.3h1.7c0.2,0,0.5,0,0.6,0.1c0.2,0.1,0.3,0.3,0.3,0.5C34.1,30.2,34,30.4,33.8,30.5z M34.6,31.2
		c0.3,0.1,0.5,0.3,0.7,0.5c0.2,0.3,0.2,0.5,0.2,1v1.1h-1.3v-0.7c0-0.3,0-0.8-0.2-1.1c-0.2-0.2-0.5-0.2-1-0.2h-1.4v2.1h-1.3v-5.6h3.1
		c0.7,0,1.2,0,1.6,0.3c0.4,0.3,0.7,0.6,0.7,1.2C35.6,30.6,35,31.1,34.6,31.2z M36.3,28.2h4.5v1.2h-3.1v1h3.1v1.1h-3.1v1.1l3.1,0v1.2
		h-4.5V28.2z M27.2,30.8h-1.7v-1.4h1.8c0.5,0,0.8,0.2,0.8,0.7C28.1,30.6,27.8,30.8,27.2,30.8z M24.2,33.3L22.1,31l2.1-2.2V33.3z
		 M18.9,32.7h-3.3v-1.1h2.9v-1.1h-2.9v-1h3.4l1.5,1.6L18.9,32.7z M29.5,30.1c0,1.6-1.2,1.9-2.3,1.9h-1.7v1.9h-2.6L21.2,32l-1.7,1.9
		h-5.3v-5.6h5.4l1.7,1.8l1.7-1.8h4.3C28.3,28.2,29.5,28.5,29.5,30.1z"/>
</g>
</svg>
