<?xml version="1.0" encoding="utf-8"?>
<!-- Generator: Adobe Illustrator 18.0.0, SVG Export Plug-In . SVG Version: 6.00 Build 0)  -->
<!DOCTYPE svg PUBLIC "-//W3C//DTD SVG 1.1//EN" "http://www.w3.org/Graphics/SVG/1.1/DTD/svg11.dtd">
<svg version="1.1" id="Layer_1" xmlns="http://www.w3.org/2000/svg" xmlns:xlink="http://www.w3.org/1999/xlink" x="0px" y="0px"
	 viewBox="0 8 55 34.7" enable-background="new 0 8 55 34.7" xml:space="preserve">
<g>
	<path d="M9.3,28.9h2.4c2,0,2.7,1.5,2.7,2.5c0,1.8-1.3,3.3-4,3.3H8.1v-0.1c0.4-0.1,0.5-0.1,0.8-0.6l1.1-3.9c0-0.1,0.1-0.4,0.1-0.5
		c0-0.3-0.2-0.3-0.8-0.4V28.9z"/>
	<path d="M16.2,33.8c-0.3,0.5-0.8,1.1-1.3,1.1c-0.4,0-0.4-0.4-0.4-0.5c0-0.4,0.8-2.7,0.8-2.9s-0.1-0.2-0.5-0.2v-0.1
		c0.3,0,1.1-0.2,1.5-0.2l0,0l-0.9,2.8c0,0.1-0.1,0.5-0.1,0.6s0.1,0.1,0.1,0.1c0.1,0,0.3-0.2,0.8-0.8L16.2,33.8z"/>
	<path d="M16,29.8c-0.2,0-0.4-0.1-0.4-0.4c0-0.3,0.2-0.5,0.4-0.5c0.3,0,0.4,0.3,0.4,0.5C16.6,29.5,16.3,29.8,16,29.8z"/>
	<path d="M20.5,33.8c-0.4,0.6-0.8,1.1-1.3,1.1c-0.4,0-0.4-0.3-0.4-0.5s0.6-2.5,0.6-2.8c0-0.2-0.1-0.3-0.2-0.3c-0.4,0-1,0.8-1.3,1.3
		c-0.4,0.6-0.5,1-0.9,2.3h-0.6c0.3-1.1,0.9-3.1,0.9-3.3c0-0.1-0.1-0.2-0.5-0.2v-0.1c0.5-0.1,1-0.2,1.5-0.3l0,0l-0.8,1.9l0,0
		c0.4-0.6,1.3-1.9,2-1.9c0.4,0,0.6,0.2,0.6,0.6c0,0.4-0.8,2.7-0.8,2.9c0,0.1,0.1,0.1,0.1,0.1c0.2,0,0.4-0.3,0.8-0.8L20.5,33.8z"/>
	<path d="M23.7,33.9c-0.1,0.1-1,1-1.8,1c-1,0-1.3-0.8-1.3-1.3c0-1.3,1.4-2.8,2.7-2.8c0.4,0,0.8,0.2,0.8,0.6c0,0.8-0.9,1.5-2.4,1.7
		h-0.2c0,0.2-0.1,0.3-0.1,0.5c0,0.6,0.4,0.9,0.9,0.9c0.5,0,0.9-0.3,1.3-0.6H23.7z"/>
	<path d="M24.1,34.7l0.8-2.7c0.1-0.3,0.1-0.6,0.1-0.8c0-0.1,0-0.3-0.3-0.3c-0.1,0-0.2,0-0.3,0v-0.1c0.4-0.1,1-0.2,1.4-0.2l0,0
		l-0.4,1.8l0,0l0.1-0.2c0.3-0.6,1-1.7,1.6-1.7c0.2,0,0.4,0.1,0.4,0.4c0,0.4-0.3,0.4-0.4,0.4c-0.4,0-0.2-0.3-0.4-0.3
		c-0.3,0-0.9,1-0.9,1.2c-0.3,0.6-0.4,1.1-0.9,2.3h-0.8V34.7z"/>
	<path d="M27,33.4c0.1,0.4,0.2,1.3,1,1.3c0.5,0,0.6-0.4,0.6-0.8c0-0.6-1.1-1.5-1.1-2.1c0-0.3,0.1-1,1.1-1c0.4,0,0.6,0.1,0.9,0.1
		c0.1,0,0.2-0.1,0.2-0.2h0.1l-0.1,1.2h-0.1c0-0.5-0.2-1.1-0.9-1.1c-0.2,0-0.5,0.1-0.5,0.5c0,0.5,1.1,1.4,1.1,2.1
		c0,1-0.9,1.2-1.4,1.2c-0.3,0-0.6-0.2-0.9-0.2c-0.1,0-0.2,0.1-0.2,0.2h-0.1l0.2-1.4H27V33.4z"/>
	<path d="M36.9,30.4c0-0.2-0.1-1.5-1.4-1.5c-1.8,0-2.8,2.3-2.8,3.5c0,1.2,0.5,1.9,1.6,1.9s1.7-0.6,2.1-1.1l0.1,0.1
		c-0.3,0.4-1.2,1.4-2.5,1.4c-1.1,0-2.4-0.6-2.4-2.5c0-1.7,1.6-3.8,3.6-3.8c0.6,0,1.2,0.2,1.4,0.2s0.3-0.1,0.3-0.2h0.2L37,30.4H36.9z
		"/>
	<path d="M39,33.7c-0.4,0.8-0.9,1.2-1.4,1.2c-0.4,0-0.4-0.3-0.4-0.5s1.3-4.9,1.3-5.1c0-0.2-0.4-0.2-0.6-0.2v-0.2
		c0.4-0.1,1-0.1,1.4-0.2l0,0l-1.4,5.3c0,0.1-0.1,0.3-0.1,0.4c0,0.1,0,0.2,0.1,0.2c0.2,0,0.4-0.2,0.9-0.9L39,33.7z"/>
	<path d="M43.2,33.8c-0.5,0.9-0.9,1.1-1.3,1.1s-0.4-0.3-0.4-0.4c0-0.2,0.2-1,0.4-1.7l0,0c-0.6,1.1-1.3,2.1-2.1,2.1
		c-0.3,0-0.5-0.1-0.5-0.5s0.6-2.7,0.6-2.9s-0.2-0.2-0.5-0.2v-0.1c0.4-0.1,0.9-0.1,1.4-0.2l0,0l-0.8,3.2c0,0.1,0,0.3,0.2,0.3
		c0.4,0,1-0.9,1.3-1.3c0.4-0.6,0.6-1.3,1-2.3H43l-0.8,2.7c0,0.1-0.1,0.5-0.1,0.6c0,0,0,0.1,0.1,0.1c0.2,0,0.4-0.3,0.8-0.8L43.2,33.8
		z"/>
	<path d="M44,28.7c0.4-0.1,1-0.1,1.4-0.2l0,0c-0.2,0.8-0.4,1.7-0.8,2.8l0,0c0.3-0.4,0.8-1,1.6-1c0.6,0,1.1,0.8,1.1,1.4
		c0,1.4-1.5,3-2.9,3c-0.4,0-1.2-0.3-1.2-0.4l0,0l1.3-4.5c0.1-0.2,0.1-0.4,0.1-0.6s-0.1-0.2-0.6-0.2V28.7z"/>
	<path d="M6.2,41.6c0.4-0.1,0.5-0.1,0.8-0.6L8,37.2c0.1-0.2,0.1-0.4,0.1-0.5c0-0.4-0.2-0.4-0.6-0.5V36h2.3v0.1
		c-0.4,0.1-0.5,0.1-0.8,0.6l-1.1,3.9c-0.1,0.2-0.1,0.3-0.1,0.5c0,0.3,0.2,0.3,0.6,0.3v0.1L6.2,41.6L6.2,41.6z"/>
	<path d="M13.2,40.7c-0.4,0.6-0.8,1.1-1.3,1.1c-0.4,0-0.4-0.3-0.4-0.5s0.6-2.5,0.6-2.8c0-0.2-0.1-0.3-0.2-0.3c-0.4,0-1,0.8-1.3,1.3
		c-0.4,0.6-0.5,1-0.9,2.3H9.2c0.3-1.1,0.9-3.1,0.9-3.3c0-0.1-0.1-0.2-0.5-0.2v-0.1c0.5-0.1,1-0.2,1.5-0.3l0,0l-0.5,1.9l0,0
		c0.4-0.6,1.3-1.9,2-1.9c0.4,0,0.6,0.2,0.6,0.6c0,0.4-0.8,2.7-0.8,2.9c0,0.1,0.1,0.1,0.1,0.1c0.2,0,0.4-0.3,0.8-0.8L13.2,40.7z"/>
	<path d="M15.6,38.2h-0.8l-0.8,3c0,0,0,0,0,0.1s0,0.1,0.1,0.1c0.2,0,0.5-0.4,0.8-0.8l0.1,0.1c-0.4,0.8-0.9,1.1-1.3,1.1
		c-0.2,0-0.4-0.1-0.4-0.3c0-0.1,0.2-0.6,0.2-0.9l0.6-2.5h-0.6c0-0.1,0-0.1,0-0.1c0.1-0.1,0.3-0.1,0.4-0.2c0.3-0.1,0.8-0.5,1-0.9
		l0.1-0.1c0.1,0,0.1,0.1,0.1,0.1L15,38h0.8L15.6,38.2z"/>
	<path d="M18.4,40.8c-0.1,0.1-1,1-1.8,1c-1,0-1.3-0.8-1.3-1.3c0-1.3,1.4-2.8,2.7-2.8c0.4,0,0.8,0.2,0.8,0.6c0,0.8-0.9,1.5-2.4,1.7
		h-0.2c0,0.2-0.1,0.3-0.1,0.5c0,0.6,0.4,0.9,0.9,0.9c0.5,0,0.9-0.3,1.3-0.6H18.4z"/>
	<path d="M18.8,41.7l0.8-2.7c0-0.3,0.1-0.6,0.1-0.6c0-0.1,0-0.3-0.3-0.3c-0.1,0-0.2,0-0.3,0V38c0.4-0.1,1-0.2,1.4-0.2l0,0L20,39.6
		l0,0l0.1-0.2c0.3-0.6,1-1.7,1.6-1.7c0.2,0,0.4,0.1,0.4,0.4c0,0.4-0.3,0.4-0.4,0.4c-0.4,0-0.2-0.3-0.4-0.3c-0.3,0-0.9,1-0.9,1.2
		c-0.3,0.6-0.4,1.1-0.9,2.3h-0.8V41.7z"/>
	<path d="M26.1,40.7c-0.4,0.6-0.8,1.1-1.3,1.1c-0.4,0-0.4-0.3-0.4-0.5s0.6-2.5,0.6-2.8c0-0.2-0.1-0.3-0.2-0.3c-0.4,0-1,0.8-1.3,1.3
		c-0.4,0.6-0.5,1-0.9,2.3H22c0.3-1.1,0.9-3.1,0.9-3.3c0-0.1-0.1-0.2-0.5-0.2v-0.1c0.5-0.1,1-0.2,1.5-0.3l0,0l-0.5,1.9l0,0
		c0.4-0.6,1.3-1.9,2-1.9c0.4,0,0.6,0.2,0.6,0.6c0,0.4-0.8,2.7-0.8,2.9c0,0.1,0.1,0.1,0.1,0.1c0.2,0,0.4-0.3,0.8-0.8L26.1,40.7z"/>
	<path d="M30.2,40.8c-0.5,0.6-0.9,1-1.3,1c-0.4,0-0.4-0.2-0.4-0.4s0-0.4,0.2-1l0,0c-0.8,1.1-1.3,1.4-1.8,1.4c-0.9,0-1-0.9-1-1.1
		c0-1.3,1.4-3,2.6-3c0.4,0,0.6,0.2,0.8,0.5l0,0l0.1-0.4l0,0l0.5-0.1H30c0,0.1-0.9,3.2-0.9,3.5c0,0.1,0.1,0.1,0.1,0.1
		c0.1,0,0.3-0.2,0.8-0.6L30.2,40.8z"/>
	<path d="M32.5,38.2h-0.8l-0.8,3c0,0,0,0,0,0.1s0,0.1,0.1,0.1c0.2,0,0.5-0.4,0.8-0.8l0.1,0.1c-0.4,0.8-0.9,1.1-1.3,1.1
		c-0.2,0-0.4-0.1-0.4-0.3c0-0.1,0.2-0.6,0.2-0.9l0.6-2.5h-0.8c0-0.1,0-0.1,0-0.1c0.1-0.1,0.3-0.1,0.4-0.2c0.3-0.1,0.8-0.5,1-0.9
		l0.1-0.1C32,36.9,32,37,32,37l-0.2,1h0.8V38.2z"/>
	<path d="M34.5,40.7c-0.3,0.5-0.8,1.1-1.3,1.1c-0.4,0-0.4-0.4-0.4-0.5c0-0.4,0.8-2.7,0.8-2.9s-0.1-0.2-0.5-0.2v-0.1
		c0.3,0,1.1-0.2,1.5-0.2l0,0l-0.9,2.8c0,0.1-0.1,0.5-0.1,0.6s0.1,0.1,0.1,0.1c0.1,0,0.3-0.2,0.8-0.8L34.5,40.7z"/>
	<path d="M34.3,36.8c-0.2,0-0.4-0.1-0.4-0.4c0-0.3,0.2-0.5,0.4-0.5c0.3,0,0.4,0.3,0.4,0.5C34.7,36.5,34.6,36.8,34.3,36.8z"/>
	<path d="M38.5,39c0,1.1-1.3,2.8-2.7,2.8c-1,0-1.4-0.5-1.4-1.3c0-1.3,1.4-2.8,2.7-2.8C38.3,37.7,38.5,38.5,38.5,39z"/>
	<path d="M42.5,40.7c-0.4,0.6-0.8,1.1-1.3,1.1c-0.4,0-0.4-0.3-0.4-0.5s0.6-2.5,0.6-2.8c0-0.2-0.1-0.3-0.2-0.3c-0.4,0-1,0.8-1.3,1.3
		c-0.4,0.6-0.5,1-0.9,2.3h-0.6c0.3-1.1,0.9-3.1,0.9-3.3c0-0.1-0.1-0.2-0.5-0.2v-0.1c0.5-0.1,1-0.2,1.5-0.3l0,0l-0.5,1.9l0,0
		c0.4-0.6,1.3-1.9,2-1.9c0.4,0,0.6,0.2,0.6,0.6c0,0.4-0.8,2.7-0.8,2.9c0,0.1,0.1,0.1,0.1,0.1c0.2,0,0.4-0.3,0.8-0.8L42.5,40.7z"/>
	<path d="M46.7,40.8c-0.5,0.6-0.9,1-1.3,1S45,41.6,45,41.4s0-0.4,0.2-1l0,0c-0.8,1.1-1.3,1.4-1.8,1.4c-0.9,0-1-0.9-1-1.1
		c0-1.3,1.4-3,2.6-3c0.4,0,0.6,0.2,0.8,0.5l0,0l0.1-0.4l0,0l0.5-0.1h0.1c0,0.1-0.9,3.2-0.9,3.5c0,0.1,0.1,0.1,0.1,0.1
		c0.1,0,0.3-0.2,0.8-0.6L46.7,40.8z"/>
	<path d="M48.4,41c-0.4,0.8-0.6,0.9-1.2,0.9c-0.4,0-0.4-0.3-0.4-0.5s1.3-4.9,1.3-5.1s-0.4-0.2-0.6-0.2v-0.1c0.4-0.1,1-0.1,1.4-0.2
		l0,0l-1.3,5.3c0,0.1-0.1,0.3-0.1,0.4c0,0.1,0,0.2,0.1,0.2c0.2,0,0.2,0,0.6-0.5H48.4z"/>
	<path fill="#27569F" d="M32.9,26.9c4.9,0,9-4.1,9-9s-4.1-9-9-9H21.5c-4.9,0-9,4.1-9,9s4.1,9,9,9H32.9z"/>
	<g>
		<circle fill="#FFFFFF" cx="21.5" cy="17.9" r="8.8"/>
	</g>
	<path fill="#27569F" d="M19.8,12.9c-2.1,0.8-3.6,2.7-3.6,5s1.5,4.4,3.6,5V12.9z"/>
	<path fill="#27569F" d="M26.9,17.9c0,2.4-1.5,4.4-3.6,5V12.8C25.4,13.6,26.9,15.7,26.9,17.9"/>
	<path fill="#ECECEC" d="M9.9,33.2c-0.1,0.3-0.2,0.8-0.2,0.9c0,0.3,0.2,0.3,0.6,0.3c2.9,0,3-2.6,3-3.2c0-1-0.1-2-1.7-2
		c-0.5,0-0.5,0.1-0.6,0.2L9.9,33.2z"/>
	<path fill="#ECECEC" d="M21.6,32.8c1.8-0.4,1.9-1.5,1.9-1.5c0-0.2-0.1-0.3-0.3-0.3c-0.5,0-1.1,0.8-1.4,1.5L21.6,32.8z"/>
	<path fill="#ECECEC" d="M45.8,30.9c-1,0-1.8,1.8-1.9,3.4c0,0.1,0,0.3,0.4,0.3c1.3,0,2.1-1.9,2.1-2.7C46.5,31.6,46.5,30.9,45.8,30.9
		z"/>
	<path fill="#ECECEC" d="M16.2,39.9c1.8-0.4,1.9-1.5,1.9-1.5c0-0.2-0.1-0.3-0.3-0.3c-0.5,0-1.1,0.8-1.4,1.5L16.2,39.9z"/>
	<path fill="#ECECEC" d="M27.4,41.4c1,0,1.8-1.9,1.8-2.9c0-0.4-0.2-0.6-0.5-0.6c-1.1,0-1.9,2-1.9,2.8C26.9,41.2,27.1,41.4,27.4,41.4
		z"/>
	<path fill="#ECECEC" d="M35.3,40.7c0,0.5,0.3,0.9,0.8,0.9c1.1,0,1.7-1.9,1.7-2.9c0-0.4-0.2-0.9-0.6-0.9
		C36.2,38,35.3,39.7,35.3,40.7z"/>
	<path fill="#ECECEC" d="M43.8,41.4c1,0,1.8-1.9,1.8-2.9c0-0.4-0.2-0.6-0.5-0.6c-1.1,0-1.9,2-1.9,2.8C43.3,41.2,43.6,41.4,43.8,41.4
		z"/>
</g>
</svg>
