<?xml version="1.0" encoding="utf-8"?>
<!-- Generator: Adobe Illustrator 18.0.0, SVG Export Plug-In . SVG Version: 6.00 Build 0)  -->
<!DOCTYPE svg PUBLIC "-//W3C//DTD SVG 1.1//EN" "http://www.w3.org/Graphics/SVG/1.1/DTD/svg11.dtd">
<svg version="1.1" id="Layer_1" xmlns="http://www.w3.org/2000/svg" xmlns:xlink="http://www.w3.org/1999/xlink" x="0px" y="0px"
	 viewBox="0 8 55 34.7" enable-background="new 0 8 55 34.7" xml:space="preserve">
<g>
	<path fill-rule="evenodd" clip-rule="evenodd" fill="#0097D9" d="M26.4,36.7c3.1-2.8,5-6.8,5-11.3c0-4.5-1.9-8.5-5-11.3
		c-2.7-2.4-6.3-3.9-10.2-3.9C7.8,10.1,1,16.9,1,25.4c0,8.4,6.8,15.2,15.3,15.2C20.2,40.6,23.8,39.1,26.4,36.7L26.4,36.7z"/>
	<path fill-rule="evenodd" clip-rule="evenodd" fill="#0097D9" d="M26.4,36.7c3.1-2.8,5-6.8,5-11.3c0-4.5-1.9-8.5-5-11.3V36.7
		L26.4,36.7z"/>
	<path fill-rule="evenodd" clip-rule="evenodd" fill="#E40520" d="M36.7,10.1c-3.9,0-7.5,1.5-10.2,3.9c-0.5,0.5-1,1-1.5,1.6H28
		c0.4,0.5,0.8,1.1,1.2,1.6h-5.4c-0.3,0.5-0.6,1.1-0.9,1.6H30c0.2,0.5,0.5,1.1,0.7,1.6h-8.5c-0.2,0.5-0.3,1.1-0.4,1.6h9.3
		c0.2,1,0.3,2.1,0.3,3.2c0,1.7-0.3,3.3-0.8,4.8h-8.5c0.2,0.5,0.4,1.1,0.6,1.6H30c-0.3,0.5-0.5,1.1-0.9,1.6h-5.4
		c0.4,0.6,0.7,1.1,1.2,1.6H28c-0.5,0.6-1,1.1-1.6,1.6c2.7,2.4,6.3,3.9,10.2,3.9c8.4,0,15.2-6.8,15.2-15.2
		C51.9,16.9,45.1,10.1,36.7,10.1L36.7,10.1z"/>
	<path fill-rule="evenodd" clip-rule="evenodd" fill="#E40520" d="M50,33.9c0-0.3,0.2-0.5,0.5-0.5c0.3,0,0.5,0.2,0.5,0.5
		c0,0.3-0.2,0.5-0.5,0.5C50.2,34.4,50,34.1,50,33.9L50,33.9z M50.5,34.2c0.2,0,0.4-0.2,0.4-0.4c0-0.2-0.2-0.4-0.4-0.4
		c-0.2,0-0.4,0.1-0.4,0.4C50.1,34.1,50.3,34.2,50.5,34.2L50.5,34.2z M50.4,34.1h-0.1v-0.4h0.2c0.1,0,0.1,0,0.1,0
		c0,0,0.1,0.1,0.1,0.1c0,0.1,0,0.1-0.1,0.1l0.1,0.2h-0.1l-0.1-0.1h-0.1V34.1L50.4,34.1z M50.4,33.8L50.4,33.8c0.1,0,0.1,0,0.1,0
		c0,0,0,0,0-0.1l0,0c0,0-0.1,0-0.1,0h-0.1V33.8L50.4,33.8z"/>
	<polygon fill-rule="evenodd" clip-rule="evenodd" fill="#06326E" points="13.8,29.6 11.9,29.6 13.1,23.7 10.5,29.6 8.9,29.6 
		8.5,23.7 7.3,29.6 5.5,29.6 7,21.9 10,21.9 10,26.7 12.1,21.9 15.3,21.9 13.8,29.6 	"/>
	<path fill-rule="evenodd" clip-rule="evenodd" fill="#06326E" d="M35,29.5c-0.5,0.1-0.9,0.2-1.4,0.2c-1,0-1.5-0.5-1.5-1.4
		c0-0.2,0-0.4,0.1-0.6l0.1-0.6l0.1-0.5l0.9-4.8h1.9l-0.3,1.4h1l-0.2,1.5h-1l-0.5,2.6c0,0.1,0,0.2,0,0.3c0,0.3,0.2,0.4,0.7,0.4
		c0.2,0,0.4,0,0.5-0.1L35,29.5L35,29.5z"/>
	<path fill-rule="evenodd" clip-rule="evenodd" fill="#06326E" d="M27.5,25.3c0,0.8,0.4,1.3,1.4,1.7c0.8,0.3,0.9,0.4,0.9,0.7
		c0,0.4-0.4,0.6-1.1,0.6c-0.6,0-1.1-0.1-1.7-0.3l-0.3,1.5h0.1l0.4,0.1c0.1,0,0.3,0.1,0.5,0.1c0.4,0,0.8,0.1,1,0.1c2,0,3-0.7,3-2.1
		c0-0.9-0.4-1.4-1.3-1.8c-0.8-0.3-0.9-0.4-0.9-0.7c0-0.3,0.3-0.5,0.9-0.5c0.4,0,0.9,0,1.4,0.1l0.3-1.4c-0.5-0.1-1.3-0.1-1.7-0.1
		C28.2,23.2,27.5,24.1,27.5,25.3L27.5,25.3z"/>
	<path fill-rule="evenodd" clip-rule="evenodd" fill="#06326E" d="M20,29.6h-1.6l0-0.7c-0.5,0.5-1.1,0.7-2,0.7c-1,0-1.7-0.7-1.7-1.7
		c0-1.5,1.2-2.4,3.3-2.4c0.2,0,0.5,0,0.8,0c0.1-0.2,0.1-0.3,0.1-0.4c0-0.4-0.3-0.6-1.2-0.6c-0.5,0-1.1,0.1-1.6,0.2l-0.3,0.1l-0.2,0
		l0.3-1.4c1-0.3,1.6-0.4,2.3-0.4c1.6,0,2.5,0.7,2.5,1.9c0,0.3,0,0.5-0.2,1.3l-0.4,2.2l-0.1,0.4L20,29.2l0,0.2V29.6L20,29.6z
		 M18.7,26.8c-0.2,0-0.3,0-0.4,0c-1.1,0-1.6,0.3-1.6,1c0,0.4,0.3,0.6,0.7,0.6C18.1,28.4,18.7,27.7,18.7,26.8L18.7,26.8z"/>
	<path fill-rule="evenodd" clip-rule="evenodd" fill="#06326E" d="M26.2,29.5c-0.6,0.2-1.3,0.3-1.9,0.3c-2.1,0-3.2-1-3.2-2.8
		c0-2.2,1.4-3.7,3.3-3.7c1.6,0,2.6,0.9,2.6,2.3c0,0.5-0.1,0.9-0.2,1.6h-3.8c0,0.1,0,0.1,0,0.2c0,0.7,0.6,1.1,1.7,1.1
		c0.7,0,1.3-0.1,2-0.4L26.2,29.5L26.2,29.5z M25.3,25.7c0-0.1,0-0.2,0-0.3c0-0.5-0.3-0.8-0.9-0.8c-0.6,0-1,0.4-1.2,1.1H25.3
		L25.3,25.7z"/>
	<path fill-rule="evenodd" clip-rule="evenodd" fill="#06326E" d="M46.5,26.7c-0.3,2.1-1.7,3-3.7,3c-2.2,0-3-1.3-3-2.9
		c0-2.2,1.5-3.7,3.7-3.7c2,0,3,1.3,3,2.8C46.5,26.4,46.5,26.4,46.5,26.7L46.5,26.7z M44.5,26c0-0.7-0.3-1.3-1-1.3
		c-1,0-1.6,1.2-1.6,2.2c0,0.9,0.4,1.4,1.1,1.4c0.4,0,1.3-0.6,1.5-1.6C44.5,26.5,44.5,26.3,44.5,26L44.5,26z"/>
	<path fill-rule="evenodd" clip-rule="evenodd" fill="#FFFFFF" d="M46.7,28.7c0-0.3,0.2-0.5,0.5-0.5s0.5,0.2,0.5,0.5
		c0,0.3-0.2,0.5-0.5,0.5S46.7,28.9,46.7,28.7L46.7,28.7z M47.2,29c0.2,0,0.4-0.2,0.4-0.4c0-0.2-0.1-0.4-0.4-0.4
		c-0.2,0-0.4,0.1-0.4,0.4C46.8,28.9,47,29,47.2,29L47.2,29z M47.1,28.9H47v-0.4h0.2c0.1,0,0.1,0,0.1,0c0,0,0.1,0.1,0.1,0.1
		c0,0.1,0,0.1-0.1,0.1l0.1,0.2h-0.1l-0.1-0.1h-0.1V28.9L47.1,28.9z M47.1,28.6L47.1,28.6c0.1,0,0.1,0,0.1,0c0,0,0,0,0-0.1v0
		C47.2,28.5,47.2,28.5,47.1,28.6L47.1,28.6L47.1,28.6L47.1,28.6z"/>
	<polygon fill-rule="evenodd" clip-rule="evenodd" fill="#FFFFFF" points="14.3,29.2 12.4,29.2 13.5,23.2 10.9,29.2 9.2,29.2 
		8.9,23.2 7.8,29.2 6,29.2 7.5,21.4 10.5,21.4 10.6,26.2 12.7,21.4 15.8,21.4 14.3,29.2 	"/>
	<path fill-rule="evenodd" clip-rule="evenodd" fill="#FFFFFF" d="M35.5,29.1c-0.5,0.1-0.9,0.2-1.4,0.2c-1,0-1.5-0.5-1.5-1.4
		c0-0.2,0-0.4,0.1-0.6l0.1-0.6l0.1-0.5l0.9-4.8h1.9l-0.3,1.4h1l-0.3,1.5h-1L34.7,27c0,0.1-0.1,0.2-0.1,0.3c0,0.3,0.2,0.5,0.7,0.5
		c0.2,0,0.4,0,0.5-0.1L35.5,29.1L35.5,29.1z"/>
	<path fill-rule="evenodd" clip-rule="evenodd" fill="#06326E" d="M40.4,24.7l0-0.2l0.4-1c-0.1,0-0.1,0-0.1,0c-0.1,0-0.2,0-0.2,0
		c-0.1,0-0.1,0-0.2,0c-0.6,0-1.1,0.3-1.7,1l0.2-1.1h-2l-1.2,6.3h1.9c0.3-1.5,0.4-2.3,0.5-3c0.2-1.1,1.1-1.6,1.7-1.5
		c0.1,0,0.1,0,0.2,0l0.1,0.1L40.4,24.7L40.4,24.7z"/>
	<path fill-rule="evenodd" clip-rule="evenodd" fill="#FFFFFF" d="M41.1,22.9c-0.1-0.1-0.2-0.1-0.2-0.1c-0.1,0-0.1,0-0.1-0.1
		c-0.1,0-0.1,0-0.2,0c-0.6,0-1.1,0.3-1.6,1l0.2-1h-1.7l-1.2,6.3H38c0.7-3.9,1-4.5,1.9-4.5c0.1,0,0.1,0,0.2,0l0.2,0.1L41.1,22.9
		L41.1,22.9z"/>
	<path fill-rule="evenodd" clip-rule="evenodd" fill="#FFFFFF" d="M28,24.9c0,0.8,0.4,1.3,1.5,1.7c0.8,0.3,0.9,0.4,0.9,0.7
		c0,0.4-0.4,0.6-1.1,0.6c-0.6,0-1.1-0.1-1.7-0.3l-0.2,1.5h0.1l0.3,0.1c0.1,0,0.3,0,0.5,0c0.4,0.1,0.8,0.1,1.1,0.1c2,0,3-0.7,3-2.1
		c0-0.9-0.4-1.4-1.4-1.8C30.1,25.1,30,25,30,24.7c0-0.3,0.3-0.5,1-0.5c0.4,0,0.9,0,1.4,0.1l0.3-1.4c-0.5-0.1-1.3-0.1-1.7-0.1
		C28.7,22.7,28,23.7,28,24.9L28,24.9z"/>
	<path fill-rule="evenodd" clip-rule="evenodd" fill="#FFFFFF" d="M20.5,29.2h-1.6l0-0.7c-0.5,0.5-1.1,0.7-2,0.7
		c-1,0-1.7-0.7-1.7-1.7c0-1.5,1.2-2.4,3.3-2.4c0.2,0,0.5,0,0.8,0c0.1-0.2,0.1-0.3,0.1-0.4c0-0.4-0.3-0.6-1.2-0.6
		c-0.5,0-1.1,0.1-1.6,0.1l-0.3,0.1l-0.2,0l0.3-1.4c1-0.2,1.6-0.3,2.3-0.3c1.6,0,2.5,0.6,2.5,1.8c0,0.3,0,0.6-0.1,1.3l-0.4,2.2
		l-0.1,0.4l-0.1,0.3l0,0.2L20.5,29.2L20.5,29.2z M19.1,26.4c-0.2,0-0.3,0-0.4,0c-1.1,0-1.6,0.3-1.6,1c0,0.4,0.2,0.7,0.7,0.7
		C18.5,27.9,19.1,27.3,19.1,26.4L19.1,26.4z"/>
	<path fill-rule="evenodd" clip-rule="evenodd" fill="#FFFFFF" d="M26.7,29c-0.7,0.2-1.3,0.3-1.9,0.3c-2.1,0-3.2-1-3.2-2.8
		c0-2.2,1.4-3.7,3.3-3.7c1.6,0,2.5,0.9,2.5,2.3c0,0.5-0.1,0.9-0.2,1.6h-3.8c0,0.1,0,0.1,0,0.2c0,0.7,0.5,1.1,1.6,1.1
		c0.7,0,1.3-0.1,2-0.4L26.7,29L26.7,29z M25.7,25.3c0-0.1,0-0.2,0-0.3c0-0.5-0.3-0.8-0.9-0.8c-0.6,0-1,0.4-1.2,1.1H25.7L25.7,25.3z"
		/>
	<path fill-rule="evenodd" clip-rule="evenodd" fill="#FFFFFF" d="M47,26.3c-0.3,2.1-1.8,3-3.7,3c-2.1,0-3-1.3-3-2.9
		c0-2.2,1.5-3.7,3.7-3.7c2,0,3,1.3,3,2.8C47,25.9,47,25.9,47,26.3L47,26.3z M45,25.5c0-0.7-0.3-1.3-1-1.3c-1,0-1.6,1.1-1.6,2.2
		c0,0.8,0.4,1.4,1.1,1.4c0.4,0,1.3-0.6,1.5-1.5C45,26,45,25.8,45,25.5L45,25.5z"/>
</g>
</svg>
