<?xml version="1.0" encoding="utf-8"?>
<!-- Generator: Adobe Illustrator 18.0.0, SVG Export Plug-In . SVG Version: 6.00 Build 0)  -->
<!DOCTYPE svg PUBLIC "-//W3C//DTD SVG 1.1//EN" "http://www.w3.org/Graphics/SVG/1.1/DTD/svg11.dtd">
<svg version="1.1" id="Layer_1" xmlns="http://www.w3.org/2000/svg" xmlns:xlink="http://www.w3.org/1999/xlink" x="0px" y="0px"
	 viewBox="0 8 55 34.7" enable-background="new 0 8 55 34.7" xml:space="preserve">
<g>
	<path fill-rule="evenodd" clip-rule="evenodd" fill="#FAB31E" d="M27.5,36.6c2.7,2.4,6.3,3.9,10.2,3.9c8.4,0,15.2-6.8,15.2-15.2
		c0-8.4-6.8-15.2-15.2-15.2c-3.9,0-7.5,1.5-10.2,3.9c-3.1,2.8-5,6.8-5,11.3S24.4,33.9,27.5,36.6L27.5,36.6z"/>
	<path fill-rule="evenodd" clip-rule="evenodd" fill="#FAB31E" d="M50.9,33.8c0-0.3,0.2-0.5,0.5-0.5c0.3,0,0.5,0.2,0.5,0.5
		c0,0.3-0.2,0.5-0.5,0.5C51.1,34.3,50.9,34.1,50.9,33.8L50.9,33.8z M51.4,34.2c0.2,0,0.4-0.2,0.4-0.4c0-0.2-0.2-0.4-0.4-0.4
		c-0.2,0-0.4,0.1-0.4,0.4C51,34,51.2,34.2,51.4,34.2L51.4,34.2z M51.3,34.1L51.3,34.1l-0.1-0.4h0.2c0,0,0.1,0,0.1,0
		c0,0,0.1,0.1,0.1,0.1c0,0.1,0,0.1-0.1,0.1l0.1,0.2h-0.1l-0.1-0.2h-0.1V34.1L51.3,34.1z M51.3,33.8L51.3,33.8c0.1,0,0.1,0,0.1,0
		c0,0,0,0,0-0.1c0,0,0,0,0,0C51.4,33.7,51.4,33.7,51.3,33.8L51.3,33.8L51.3,33.8L51.3,33.8z"/>
	<path fill-rule="evenodd" clip-rule="evenodd" fill="#E40520" d="M32.4,23.7c-0.1-0.5-0.1-1.1-0.3-1.6h-9.3
		c0.1-0.5,0.3-1.1,0.4-1.6h8.4c-0.2-0.5-0.4-1.1-0.6-1.6h-7.2c0.3-0.5,0.6-1.1,0.9-1.6h5.4c-0.3-0.6-0.7-1.1-1.2-1.6h-3
		c0.4-0.6,1-1.1,1.5-1.6c-2.7-2.4-6.3-3.9-10.2-3.9C8.9,10.1,2.1,17,2.1,25.4c0,8.4,6.8,15.2,15.2,15.2c3.9,0,7.5-1.5,10.2-3.9l0,0
		c0.5-0.5,1.1-1,1.6-1.6H26c-0.4-0.5-0.8-1-1.2-1.6h5.4c0.3-0.5,0.6-1,0.9-1.6h-7.2c-0.2-0.5-0.4-1-0.6-1.6h8.4
		c0.2-0.5,0.3-1.1,0.4-1.6c0.1-0.5,0.2-1.1,0.3-1.6c0.1-0.5,0.1-1.1,0.1-1.6C32.5,24.8,32.5,24.3,32.4,23.7L32.4,23.7z"/>
	<path fill-rule="evenodd" clip-rule="evenodd" fill="#FFFFFF" d="M50.9,28.9c0-0.3,0.2-0.5,0.5-0.5c0.3,0,0.5,0.2,0.5,0.5
		c0,0.3-0.2,0.5-0.5,0.5C51.1,29.4,50.9,29.1,50.9,28.9L50.9,28.9z M51.4,29.3c0.2,0,0.4-0.2,0.4-0.4c0-0.2-0.2-0.4-0.4-0.4
		c-0.2,0-0.4,0.1-0.4,0.4C51,29.1,51.2,29.3,51.4,29.3L51.4,29.3z M51.3,29.1L51.3,29.1l-0.1-0.4h0.2c0,0,0.1,0,0.1,0
		c0,0,0.1,0.1,0.1,0.1c0,0.1,0,0.1-0.1,0.1l0.1,0.2h-0.1l-0.1-0.2h-0.1V29.1L51.3,29.1z M51.3,28.8L51.3,28.8c0.1,0,0.1,0,0.1,0
		c0,0,0,0,0-0.1c0,0,0,0,0,0C51.4,28.8,51.4,28.8,51.3,28.8L51.3,28.8L51.3,28.8L51.3,28.8z"/>
	<path fill-rule="evenodd" clip-rule="evenodd" fill="#06326E" d="M22.3,29.7c-0.5,0.1-0.9,0.2-1.3,0.2c-0.8,0-1.3-0.5-1.3-1.4
		c0-0.2,0-0.4,0.1-0.6l0.1-0.6l0.1-0.5l0.7-4.3h1.6l-0.2,1h1l-0.2,1.6h-1l-0.4,2.6c0,0.1,0,0.2,0,0.2c0,0.3,0.2,0.5,0.6,0.5
		c0.2,0,0.3,0,0.5-0.1L22.3,29.7L22.3,29.7z"/>
	<path fill-rule="evenodd" clip-rule="evenodd" fill="#06326E" d="M27.4,29.7c-0.6,0.2-1.1,0.3-1.7,0.3c-1.8,0-2.8-1-2.8-2.8
		c0-2.1,1.2-3.8,2.9-3.8c1.3,0,2.2,0.9,2.2,2.3c0,0.4-0.1,0.9-0.2,1.6h-3.3c0,0.1,0,0.1,0,0.2c0,0.7,0.5,1.1,1.4,1.1
		c0.6,0,1.1-0.1,1.7-0.4L27.4,29.7L27.4,29.7z M26.5,26c0-0.1,0-0.2,0-0.3c0-0.5-0.3-0.8-0.8-0.8c-0.5,0-0.9,0.4-1,1.1H26.5L26.5,26
		z"/>
	<polygon fill-rule="evenodd" clip-rule="evenodd" fill="#06326E" points="9.7,29.8 8.1,29.8 9,23.9 6.9,29.8 5.8,29.8 5.7,23.9 
		4.6,29.8 3.1,29.8 4.3,22.1 6.7,22.1 6.8,26.9 8.4,22.1 11,22.1 9.7,29.8 	"/>
	<path fill-rule="evenodd" clip-rule="evenodd" fill="#06326E" d="M13.7,27c-0.2,0-0.2,0-0.3,0c-0.9,0-1.4,0.4-1.4,1
		c0,0.4,0.2,0.7,0.6,0.7C13.4,28.6,13.7,27.9,13.7,27L13.7,27z M15,29.8h-1.4l0-0.7c-0.4,0.5-0.8,0.8-1.7,0.8
		c-0.8,0-1.5-0.7-1.5-1.7c0-0.3,0.1-0.6,0.1-0.8c0.3-1,1.3-1.6,2.7-1.6c0.2,0,0.5,0,0.7,0c0.1-0.2,0.1-0.3,0.1-0.4
		c0-0.4-0.3-0.5-1.1-0.5c-0.5,0-1,0.1-1.4,0.2l-0.2,0.1h-0.1l0.2-1.4c0.8-0.2,1.3-0.3,1.9-0.3c1.4,0,2.2,0.6,2.2,1.9
		c0,0.3,0,0.5-0.1,1.2l-0.3,2.2l-0.1,0.4L15,29.4v0.2L15,29.8L15,29.8z"/>
	<path fill-rule="evenodd" clip-rule="evenodd" fill="#06326E" d="M35.4,23.6c0.4,0,0.9,0.1,1.5,0.4l0.3-1.7
		c-0.1-0.1-0.2-0.1-0.4-0.1L36,22C35.8,22,35.6,22,35.3,22c-0.8,0-1.3,0-1.8,0.3c-0.3,0.1-0.6,0.4-1,0.8L32.3,23l-1.7,1.2l0.1-0.7
		H29l-1,6.3h1.6l0.6-3.4c0,0,0.2-0.5,0.4-0.6c0.3-0.4,0.6-0.4,0.9-0.4c0.1,0,0.1,0,0.1,0c0,0.4-0.1,0.8-0.1,1.2c0,2.1,1.2,3.3,3,3.3
		c0.4,0,0.8-0.1,1.4-0.2l0.3-1.8c-0.5,0.3-1,0.4-1.4,0.4c-1,0-1.5-0.7-1.5-1.9C33.3,24.8,34.1,23.6,35.4,23.6L35.4,23.6z"/>
	<path fill-rule="evenodd" clip-rule="evenodd" fill="#06326E" d="M49.3,22.1L49,24.3c-0.4-0.6-0.9-0.9-1.5-0.9
		c-0.9,0-1.7,0.5-2.2,1.4l0,0l-1-0.6l0.1-0.7h-1.8l-1,6.3h1.7l0.5-3.4c0,0,0.4-0.5,0.5-0.6c0.2-0.3,0.5-0.4,0.7-0.4
		c-0.2,0.5-0.3,1.2-0.3,1.9c0,1.6,0.8,2.6,2,2.6c0.6,0,1.1-0.2,1.5-0.7l-0.1,0.6h1.6l1.3-7.7H49.3L49.3,22.1z M47.3,28.3
		c-0.6,0-0.8-0.4-0.8-1.2c0-1.2,0.5-2.1,1.3-2.1c0.6,0,0.9,0.4,0.9,1.3C48.6,27.5,48.1,28.3,47.3,28.3L47.3,28.3z"/>
	<path fill-rule="evenodd" clip-rule="evenodd" fill="#06326E" d="M39.7,27c-0.2,0-0.2,0-0.3,0c-0.9,0-1.4,0.4-1.4,1
		c0,0.4,0.2,0.7,0.6,0.7C39.4,28.6,39.7,27.9,39.7,27L39.7,27z M41,29.8h-1.4l0-0.7c-0.4,0.5-0.8,0.8-1.7,0.8
		c-0.8,0-1.5-0.7-1.5-1.7c0-1.5,1.1-2.4,2.9-2.4c0.2,0,0.5,0,0.7,0c0.1-0.2,0.1-0.3,0.1-0.4c0-0.4-0.3-0.5-1.1-0.5
		c-0.5,0-1,0.1-1.4,0.2l-0.2,0.1h-0.1l0.2-1.4c0.8-0.2,1.3-0.3,1.9-0.3c1.4,0,2.2,0.6,2.2,1.9c0,0.3,0,0.5-0.1,1.2l-0.3,2.2
		l-0.1,0.4L41,29.4l0,0.2V29.8L41,29.8z"/>
	<path fill-rule="evenodd" clip-rule="evenodd" fill="#06326E" d="M18.4,24.9c0.3,0,0.8,0,1.3,0.1l0.2-1.5c-0.5-0.1-1.1-0.1-1.5-0.1
		c-1.8,0-2.4,1-2.4,2.1c0,0.7,0.4,1.3,1.2,1.7c0.7,0.3,0.8,0.4,0.8,0.7c0,0.4-0.4,0.6-1,0.6c-0.5,0-0.9-0.1-1.5-0.2l-0.2,1.4h0
		l0.3,0.1c0.1,0,0.2,0.1,0.4,0.1c0.4,0.1,0.7,0.1,1,0.1c1.8,0,2.6-0.7,2.6-2.1c0-0.9-0.4-1.4-1.3-1.7c-0.7-0.3-0.8-0.4-0.8-0.7
		C17.6,25.1,17.9,24.9,18.4,24.9L18.4,24.9z"/>
	<path fill-rule="evenodd" clip-rule="evenodd" fill="#FFFFFF" d="M37.6,21.9l-0.3,1.7c-0.6-0.3-1-0.4-1.5-0.4
		c-1.3,0-2.1,1.2-2.1,2.9c0,1.2,0.6,1.9,1.6,1.9c0.4,0,0.9-0.1,1.4-0.4l-0.3,1.8c-0.6,0.1-1,0.2-1.5,0.2c-1.8,0-2.9-1.3-2.9-3.3
		c0-2.8,1.5-4.7,3.7-4.7c0.3,0,0.5,0,0.7,0.1l0.7,0.2C37.4,21.8,37.4,21.8,37.6,21.9L37.6,21.9z"/>
	<path fill-rule="evenodd" clip-rule="evenodd" fill="#FFFFFF" d="M32.3,23c-0.1,0-0.1,0-0.2,0c-0.5,0-0.8,0.3-1.3,1l0.1-1h-1.5
		l-1,6.3H30c0.6-3.8,0.7-4.5,1.6-4.5c0,0,0,0,0.1,0C31.9,24.1,32,23.5,32.3,23L32.3,23L32.3,23z"/>
	<path fill-rule="evenodd" clip-rule="evenodd" fill="#FFFFFF" d="M22.8,29.3c-0.4,0.1-0.8,0.2-1.2,0.2c-0.8,0-1.3-0.5-1.3-1.4
		c0-0.2,0-0.4,0.1-0.6l0.1-0.6l0.1-0.5l0.7-4.3h1.6l-0.2,0.9h0.8l-0.2,1.6h-0.8L22,27.2c0,0.1,0,0.2,0,0.3c0,0.3,0.2,0.5,0.6,0.5
		c0.2,0,0.3,0,0.4-0.1L22.8,29.3L22.8,29.3z"/>
	<path fill-rule="evenodd" clip-rule="evenodd" fill="#FFFFFF" d="M16.4,25.1c0,0.8,0.4,1.3,1.3,1.7c0.7,0.3,0.8,0.4,0.8,0.7
		c0,0.4-0.3,0.6-1,0.6c-0.5,0-0.9-0.1-1.5-0.3l-0.2,1.5h0.1l0.3,0.1c0.1,0,0.2,0.1,0.4,0.1c0.4,0,0.7,0.1,0.9,0.1
		c1.7,0,2.5-0.7,2.5-2.1c0-0.9-0.3-1.4-1.2-1.8c-0.7-0.3-0.8-0.4-0.8-0.7c0-0.4,0.3-0.5,0.8-0.5c0.3,0,0.8,0.1,1.2,0.1l0.2-1.5
		c-0.4-0.1-1.1-0.1-1.5-0.1C17,22.9,16.4,23.9,16.4,25.1L16.4,25.1z"/>
	<path fill-rule="evenodd" clip-rule="evenodd" fill="#FFFFFF" d="M50.2,29.4h-1.6l0.1-0.6c-0.4,0.5-0.9,0.7-1.5,0.7
		c-1.2,0-2-1-2-2.6c0-2.1,1.2-3.8,2.7-3.8c0.7,0,1.1,0.3,1.6,0.9l0.4-2.2h1.6L50.2,29.4L50.2,29.4z M47.7,27.9
		c0.8,0,1.3-0.9,1.3-2.1c0-0.8-0.3-1.2-0.9-1.2c-0.7,0-1.3,0.9-1.3,2.1C46.9,27.4,47.2,27.9,47.7,27.9L47.7,27.9z"/>
	<path fill-rule="evenodd" clip-rule="evenodd" fill="#FFFFFF" d="M27.8,29.2c-0.6,0.2-1.1,0.3-1.7,0.3c-1.8,0-2.8-1-2.8-2.8
		c0-2.2,1.2-3.8,2.9-3.8c1.3,0,2.2,0.9,2.2,2.3c0,0.4-0.1,0.9-0.2,1.6h-3.3c0,0.1,0,0.1,0,0.2c0,0.7,0.5,1.1,1.5,1.1
		c0.6,0,1.1-0.1,1.7-0.4L27.8,29.2L27.8,29.2z M26.9,25.5c0-0.1,0-0.2,0-0.3c0-0.5-0.3-0.8-0.8-0.8c-0.5,0-0.9,0.4-1,1.1H26.9
		L26.9,25.5z"/>
	<polygon fill-rule="evenodd" clip-rule="evenodd" fill="#FFFFFF" points="10.1,29.4 8.5,29.4 9.4,23.4 7.3,29.4 6.2,29.4 6.1,23.4 
		5.1,29.4 3.5,29.4 4.8,21.6 7.2,21.6 7.3,26.4 8.9,21.6 11.4,21.6 10.1,29.4 	"/>
	<path fill-rule="evenodd" clip-rule="evenodd" fill="#FFFFFF" d="M14.2,26.5c-0.2,0-0.3,0-0.4,0c-0.9,0-1.4,0.3-1.4,1
		c0,0.4,0.2,0.7,0.6,0.7C13.7,28.1,14.2,27.5,14.2,26.5L14.2,26.5z M15.4,29.4H14l0-0.7c-0.4,0.5-1,0.7-1.7,0.7
		c-0.9,0-1.5-0.7-1.5-1.7c0-1.5,1-2.4,2.9-2.4c0.2,0,0.4,0,0.7,0c0.1-0.2,0.1-0.3,0.1-0.4c0-0.4-0.3-0.6-1-0.6c-0.5,0-1,0.1-1.4,0.2
		l-0.2,0.1l-0.1,0l0.2-1.4c0.8-0.2,1.4-0.3,2-0.3c1.4,0,2.2,0.6,2.2,1.8c0,0.3,0,0.6-0.1,1.3l-0.3,2.2l-0.1,0.4l0,0.3l0,0.2
		L15.4,29.4L15.4,29.4z"/>
	<path fill-rule="evenodd" clip-rule="evenodd" fill="#FFFFFF" d="M40.2,26.5c-0.2,0-0.3,0-0.4,0c-0.9,0-1.4,0.3-1.4,1
		c0,0.4,0.2,0.7,0.6,0.7C39.7,28.1,40.2,27.5,40.2,26.5L40.2,26.5z M41.4,29.4h-1.4l0-0.7c-0.4,0.5-1,0.7-1.7,0.7
		c-0.9,0-1.5-0.7-1.5-1.7c0-1.5,1.1-2.4,2.9-2.4c0.2,0,0.4,0,0.7,0c0.1-0.2,0.1-0.3,0.1-0.4c0-0.4-0.3-0.6-1-0.6
		c-0.5,0-1,0.1-1.4,0.2l-0.2,0.1l-0.1,0l0.2-1.4c0.8-0.2,1.4-0.3,2-0.3c1.4,0,2.2,0.6,2.2,1.8c0,0.3,0,0.6-0.1,1.3l-0.3,2.2
		l-0.1,0.4L41.5,29l0,0.2V29.4L41.4,29.4z"/>
	<path fill-rule="evenodd" clip-rule="evenodd" fill="#FFFFFF" d="M45.9,23c0,0-0.1,0-0.1,0c-0.5,0-0.9,0.3-1.4,1l0.1-1H43l-1,6.3
		h1.7c0.6-3.8,0.7-4.5,1.5-4.5c0.1,0,0.1,0,0.1,0C45.4,24.1,45.6,23.5,45.9,23L45.9,23L45.9,23z"/>
</g>
</svg>
