<?xml version="1.0" encoding="utf-8"?>
<!-- Generator: Adobe Illustrator 17.1.0, SVG Export Plug-In . SVG Version: 6.00 Build 0)  -->
<!DOCTYPE svg PUBLIC "-//W3C//DTD SVG 1.1//EN" "http://www.w3.org/Graphics/SVG/1.1/DTD/svg11.dtd">
<svg version="1.1" xmlns="http://www.w3.org/2000/svg" xmlns:xlink="http://www.w3.org/1999/xlink" x="0px" y="0px"
	 viewBox="0 0 55 55" enable-background="new 0 0 55 55" xml:space="preserve">
<g id="Layer_1" display="none">
	<path display="inline" fill="#010101" d="M41.881,18.742c-0.783,1.123-1.762,2.133-2.941,3.032v0.672
		c0,1.925-0.363,3.874-1.098,5.847c-0.738,1.974-1.816,3.754-3.238,5.342c-1.42,1.59-3.168,2.878-5.242,3.873
		C27.286,38.503,24.893,39,22.181,39c-1.665,0-3.256-0.233-4.775-0.7c-1.521-0.463-2.951-1.11-4.287-1.946
		c0.225,0.03,0.454,0.048,0.685,0.048h0.737c2.808,0,5.243-0.818,7.3-2.455c-1.308-0.031-2.46-0.423-3.457-1.177
		c-0.996-0.754-1.675-1.711-2.03-2.865c0.388,0.098,0.75,0.142,1.077,0.142c0.294,0,0.564-0.013,0.808-0.044
		c0.244-0.03,0.497-0.08,0.758-0.144c-1.372-0.29-2.505-0.957-3.404-1.997c-0.898-1.045-1.349-2.272-1.349-3.681v-0.05
		c0.393,0.193,0.81,0.352,1.249,0.479c0.44,0.13,0.94,0.194,1.496,0.194c-0.85-0.512-1.502-1.185-1.959-2.021
		c-0.46-0.832-0.686-1.765-0.686-2.79c0-1.026,0.262-2.004,0.782-2.935c1.472,1.795,3.251,3.232,5.343,4.305
		c2.09,1.075,4.36,1.659,6.811,1.756c-0.099-0.383-0.149-0.802-0.149-1.25c0-0.801,0.154-1.564,0.468-2.288
		c0.31-0.719,0.733-1.348,1.269-1.877c0.543-0.526,1.158-0.944,1.865-1.25C31.434,16.152,32.193,16,33.012,16
		c0.883,0,1.68,0.169,2.402,0.505c0.717,0.337,1.354,0.778,1.908,1.324c0.654-0.096,1.307-0.273,1.963-0.531
		c0.65-0.256,1.254-0.53,1.811-0.82c-0.523,1.351-1.387,2.407-2.598,3.177c0.619-0.066,1.209-0.174,1.766-0.337
		c0.555-0.158,1.096-0.352,1.615-0.577L41.881,18.742z"/>
</g>
<g id="Layer_2" display="none">
	<path display="inline" fill="#010101" d="M24.125,27.514l-7.622,7.187c-0.508,0.479-0.787,1.118-0.785,1.796
		c0.002,0.677,0.281,1.309,0.783,1.783c1.014,0.959,2.784,0.961,3.802,0l7.213-6.802l7.19,6.782c0.502,0.47,1.19,0.737,1.892,0.737
		c0.717,0,1.392-0.264,1.898-0.742c0.51-0.479,0.793-1.117,0.785-1.796c0-0.676-0.279-1.312-0.785-1.783l-7.619-7.192l7.621-7.186
		c0.508-0.481,0.789-1.117,0.783-1.796c0-0.676-0.279-1.31-0.781-1.783c-1.014-0.96-2.781-0.96-3.802-0.002l-7.213,6.801
		l-7.189-6.783C19.792,16.269,19.104,16,18.403,16c-0.717,0-1.392,0.263-1.898,0.74c-0.51,0.481-0.789,1.118-0.787,1.796
		c0.002,0.679,0.281,1.311,0.787,1.785L24.125,27.514z"/>
</g>
<g id="Layer_3" display="none">
	<path display="inline" fill="#010101" d="M29.321,29.266c0.598-0.57,1.177-1.156,1.732-1.747c0.557-0.592,1.018-1.156,1.379-1.688
		c0.362-0.525,0.598-1.016,0.706-1.469c0.108-0.444,0.031-0.797-0.226-1.035c-0.383-0.373-0.738-0.717-1.059-1.044
		c-0.32-0.325-0.535-0.698-0.64-1.103c-0.104-0.405-0.056-0.896,0.16-1.468s0.661-1.269,1.351-2.086
		c0.682-0.811,1.323-1.315,1.922-1.495c0.598-0.186,1.146-0.173,1.635,0.027c0.494,0.205,0.953,0.525,1.379,0.95
		c0.431,0.431,0.834,0.83,1.222,1.196c0.429,0.405,0.64,1.083,0.64,2.02c0,0.937-0.254,2.039-0.769,3.309
		c-0.515,1.263-1.281,2.651-2.311,4.159c-1.024,1.516-2.332,3.022-3.912,4.531c-1.627,1.555-3.221,2.811-4.78,3.767
		c-1.563,0.964-2.997,1.688-4.297,2.174C22.146,38.754,20.992,39,19.985,39c-1.002,0-1.719-0.225-2.148-0.678
		c-0.385-0.365-0.789-0.743-1.218-1.13c-0.429-0.385-0.748-0.823-0.964-1.315c-0.212-0.491-0.237-1.009-0.062-1.561
		c0.17-0.552,0.683-1.156,1.539-1.808c0.856-0.65,1.584-1.083,2.183-1.288c0.598-0.199,1.11-0.26,1.542-0.18
		c0.425,0.079,0.808,0.285,1.152,0.61c0.344,0.326,0.706,0.671,1.089,1.044c0.258,0.238,0.62,0.311,1.093,0.212
		c0.47-0.101,0.982-0.326,1.538-0.679c0.558-0.346,1.146-0.783,1.765-1.315C28.114,30.39,28.723,29.838,29.321,29.266z"/>
</g>
<g id="Layer_4" display="none">
	<path display="inline" fill="#010101" d="M43.25,19.493c-0.276,0.367-0.621,0.643-1.024,0.824
		c-0.206,0.122-0.604,0.344-1.187,0.655c-0.667,0.352-1.456,0.774-2.367,1.266c-0.92,0.497-1.894,1.007-2.925,1.546
		c-1.01,0.531-1.951,1.032-2.808,1.518c-0.886,0.504-1.639,0.912-2.255,1.231l-0.581,0.303c-0.276,0.144-0.443,0.228-0.482,0.247
		c-0.633,0.312-1.347,0.47-2.121,0.47c-0.731,0-1.422-0.159-2.057-0.47l-0.232-0.139c-0.139-0.078-0.398-0.212-0.783-0.402
		c-0.64-0.322-1.409-0.733-2.297-1.238c-0.86-0.487-1.795-0.988-2.812-1.519l-0.411-0.216c-0.879-0.461-1.72-0.901-2.514-1.33
		l-2.367-1.266c-0.634-0.336-1.043-0.567-1.235-0.685c-0.31-0.163-0.597-0.396-0.891-0.727c-0.322-0.371-0.523-0.751-0.625-1.188
		c-0.122-0.558-0.017-1.102,0.332-1.606C11.87,16.418,12.387,16,13.378,16h28.31c1.009,0,1.524,0.427,1.8,0.812
		c0.318,0.467,0.422,1.007,0.303,1.555C43.706,18.767,43.522,19.143,43.25,19.493L43.25,19.493z M11.25,24.648
		c0.298-0.906,1.29-1.296,2.444-0.707c0.182,0.092,0.622,0.323,1.361,0.716c0.66,0.35,1.436,0.764,2.33,1.247
		c0.908,0.491,1.886,0.994,2.925,1.528c1.048,0.539,2.025,1.042,2.922,1.509c0.889,0.47,1.654,0.868,2.349,1.226
		c0.602,0.311,0.94,0.486,1.047,0.538c0.532,0.268,1.306,0.253,1.847-0.019c0.098-0.047,0.449-0.228,1.06-0.544
		c0.641-0.333,1.407-0.73,2.303-1.206c0.895-0.465,1.87-0.967,2.922-1.506c1.042-0.534,2.015-1.035,2.92-1.525
		c0.924-0.498,1.73-0.924,2.431-1.285c0.619-0.314,0.99-0.514,1.119-0.596l0.123-0.073c0.408-0.207,0.734-0.299,1.051-0.299
		c0.703,0,1.289,0.473,1.431,1.2c0.031,0.199,0.049,0.419,0.049,0.681v10.528c0,0.729-0.312,1.406-0.925,2.014
		C42.344,38.689,41.669,39,40.952,39H14.113c-0.698,0-1.374-0.301-2.011-0.897c-0.651-0.615-0.984-1.301-0.984-2.04V25.534
		c0-0.317,0.043-0.604,0.133-0.884V24.648z"/>
</g>
<g id="Layer_5" display="none">
	<path display="inline" fill="#010101" d="M28.041,15.93c-6.314,0-9.5,4.529-9.5,8.305c0,2.287,0.867,4.32,2.723,5.08
		c0.305,0.124,0.577,0.004,0.666-0.334c0.061-0.233,0.206-0.821,0.27-1.067c0.089-0.333,0.054-0.451-0.191-0.742
		c-0.537-0.632-0.878-1.448-0.878-2.607c0-3.36,2.515-6.367,6.546-6.367c3.57,0,5.532,2.182,5.532,5.095
		c0,3.833-1.696,7.068-4.215,7.068c-1.392,0-2.432-1.149-2.098-2.561c0.399-1.684,1.173-3.502,1.173-4.717
		c0-1.088-0.585-1.997-1.793-1.997c-1.421,0-2.563,1.472-2.563,3.441c0,1.254,0.424,2.104,0.424,2.104s-1.455,6.165-1.71,7.244
		c-0.508,2.15-0.077,4.785-0.04,5.051c0.021,0.159,0.224,0.194,0.315,0.076c0.132-0.17,1.824-2.261,2.4-4.349
		c0.164-0.592,0.936-3.656,0.936-3.656c0.462,0.883,1.812,1.658,3.248,1.658c4.273,0,7.173-3.896,7.173-9.111
		c0-3.942-3.341-7.616-8.416-7.616L28.041,15.93z"/>
</g>
<g id="Layer_6" display="none">
	<path display="inline" fill="#010101" d="M36.47,20.632V16.04h-1.147v4.593h-4.593v1.148h4.593v4.593h1.147V21.78h4.594v-1.148
		H36.47z M28.747,16.04h-7.1c-3.182,0-6.178,2.411-6.178,5.203c0,2.854,2.17,5.158,5.407,5.158c0.226,0,0.443-0.005,0.658-0.021
		c-0.209,0.404-0.36,0.856-0.36,1.327c0,0.794,0.427,1.436,0.967,1.962c-0.407,0-0.801,0.01-1.231,0.01
		c-3.941,0-6.974,2.512-6.974,5.115c0,2.564,3.326,4.168,7.267,4.168c4.494,0,6.976-2.549,6.976-5.115
		c0-2.055-0.605-3.285-2.481-4.611c-0.642-0.455-1.869-1.561-1.869-2.209c0-0.76,0.219-1.136,1.362-2.031
		c1.175-0.917,2.006-2.206,2.006-3.707c0-1.785-0.795-3.526-2.289-4.1h2.251L28.747,16.04z M26.269,33.404
		c0.055,0.238,0.086,0.48,0.086,0.73c0,2.072-1.335,3.691-5.165,3.691c-2.725,0-4.692-1.725-4.692-3.795
		c0-2.031,2.44-3.723,5.165-3.691c0.636,0.006,1.229,0.108,1.767,0.281C24.907,31.65,25.968,32.232,26.269,33.404z M21.904,25.676
		c-1.829-0.056-3.566-2.047-3.881-4.448c-0.317-2.402,0.91-4.24,2.738-4.185c1.828,0.054,3.567,1.981,3.882,4.383
		C24.96,23.829,23.732,25.731,21.904,25.676L21.904,25.676z"/>
</g>
<g id="Layer_7">
	<path fill="#222222" d="M36.997,18.592h-18.76c-0.629,0-1.139,0.51-1.139,1.139v11.946c0,0.629,0.51,1.139,1.139,1.139h7.326
		c0.153,0,0.299,0.061,0.407,0.169l3.267,3.267c0.108,0.108,0.251,0.165,0.398,0.165c0.072,0,0.146-0.014,0.215-0.043
		c0.21-0.087,0.347-0.292,0.347-0.52v-2.462c0-0.318,0.258-0.576,0.576-0.576h6.223c0.629,0,1.139-0.51,1.139-1.139V19.73
		C38.136,19.101,37.626,18.592,36.997,18.592z"/>
</g>
<g id="Layer_7_copy" display="none">
	<path display="inline" fill="#010101" d="M33.229,16H21.771c-3.157,0-5.725,2.569-5.725,5.724v11.552
		c0,3.155,2.567,5.724,5.725,5.724h11.457c3.156,0,5.725-2.568,5.725-5.724V21.724C38.953,18.569,36.385,16,33.229,16z
		 M21.771,18.122h11.457c1.987,0,3.605,1.616,3.605,3.604v1.971h-6.069c-0.889-0.632-1.975-1.007-3.147-1.007
		c-1.172,0-2.258,0.375-3.146,1.007h-6.304v-1.971c0-1.987,1.617-3.604,3.605-3.604H21.771z M29.874,28.125
		c0,1.244-1.012,2.258-2.258,2.258c-1.244,0-2.258-1.012-2.258-2.258c0-1.246,1.014-2.258,2.258-2.258
		C28.862,25.867,29.874,26.88,29.874,28.125z M33.229,36.88H21.771c-1.987,0-3.604-1.616-3.604-3.606v-7.46h4.528
		c-0.33,0.702-0.517,1.485-0.517,2.31c0,2.998,2.44,5.438,5.438,5.438c2.999,0,5.439-2.44,5.439-5.438
		c0-0.826-0.187-1.608-0.517-2.31h4.294v7.462C36.833,35.263,35.216,36.88,33.229,36.88L33.229,36.88z M35.171,22.008
		c0,0.349-0.285,0.636-0.636,0.636H32.57c-0.35,0-0.636-0.287-0.636-0.636v-1.966c0-0.349,0.286-0.636,0.636-0.636h1.965
		c0.351,0,0.636,0.287,0.636,0.636V22.008z"/>
</g>
<g id="Layer_8" display="none">
	<path display="inline" fill="#010101" d="M24.452,20.456v3.164h-2.319v3.872h2.319V39h4.768V27.492h3.193
		c0,0,0.301-1.856,0.445-3.885h-3.623v-2.648c0-0.397,0.52-0.928,1.033-0.928h2.598V16h-3.532
		C24.333,16,24.452,19.878,24.452,20.456z"/>
</g>
<g id="Layer_9" display="none">
	<path display="inline" fill="#010101" d="M36.848,16H18.155c-2.318,0-4.202,1.884-4.202,4.2v9.924c0,2.316,1.885,4.2,4.202,4.2
		h5.867l5.943,4.456c0.191,0.145,0.421,0.22,0.65,0.22c0.165,0,0.333-0.037,0.485-0.114c0.369-0.184,0.601-0.56,0.601-0.971v-3.589
		h5.144c2.316,0,4.201-1.884,4.201-4.2v-9.925C41.048,17.884,39.162,16,36.848,16L36.848,16z"/>
</g>
<g id="Layer_10" display="none">
	<path display="inline" fill="#010101" d="M22.76,38.705C22.563,38.902,22.302,39,22.046,39c-0.259,0-0.52-0.098-0.718-0.295
		c-0.392-0.396-0.392-1.034,0-1.431l9.774-9.774l-9.774-9.773c-0.392-0.396-0.392-1.036,0-1.431c0.395-0.395,1.039-0.395,1.432,0
		L33.966,27.5L22.76,38.705L22.76,38.705z"/>
</g>
<g id="Layer_11" display="none">
	<path display="inline" fill="#010101" d="M38.422,35.634l-5.256-5.256c-0.076-0.076-0.172-0.108-0.256-0.17
		c0.938-1.441,1.49-3.159,1.49-5.008c0-5.08-4.119-9.2-9.201-9.2c-5.081,0-9.2,4.119-9.2,9.2c0,5.083,4.119,9.2,9.2,9.2
		c1.849,0,3.566-0.55,5.01-1.489c0.059,0.083,0.092,0.181,0.168,0.255l5.256,5.257C36.018,38.807,36.523,39,37.029,39
		c0.504,0,1.006-0.193,1.393-0.578C39.193,37.654,39.193,36.404,38.422,35.634L38.422,35.634z M18.628,25.2
		c0-3.621,2.949-6.572,6.572-6.572c3.622,0,6.571,2.951,6.571,6.572c0,3.625-2.949,6.572-6.571,6.572
		C21.577,31.771,18.628,28.825,18.628,25.2z"/>
</g>
<g id="Layer_12" display="none">
	<path display="inline" d="M36.326,24.748c-0.042-0.42-0.396-0.74-0.817-0.74H33.66v-1.848c0-3.397-2.764-6.161-6.16-6.161
		c-3.397,0-6.162,2.764-6.162,6.161v1.848h-1.848c-0.421,0-0.776,0.32-0.818,0.74l-1.334,13.348
		c-0.024,0.232,0.053,0.462,0.209,0.633C17.703,38.902,17.925,39,18.156,39h18.687c0.232,0,0.454-0.098,0.608-0.271
		c0.156-0.171,0.232-0.4,0.21-0.633L36.326,24.748z M27.5,18.978c1.754,0,3.183,1.428,3.183,3.183v1.848h-6.368v-1.848
		C24.316,20.406,25.744,18.978,27.5,18.978z"/>
</g>
<g id="Layer_13" display="none">
	<path display="inline" fill="#010101" d="M39.514,24.729c-0.104-0.317-0.398-0.533-0.732-0.533h-8.058l-2.491-7.664
		C28.129,16.215,27.833,16,27.5,16c-0.334,0-0.63,0.215-0.733,0.533l-2.49,7.664h-8.058c-0.334,0-0.63,0.215-0.733,0.533
		c-0.103,0.318,0.011,0.665,0.28,0.861l6.519,4.738l-2.49,7.663c-0.103,0.317,0.01,0.665,0.28,0.861
		C20.209,38.951,20.369,39,20.527,39c0.159,0,0.319-0.049,0.454-0.147l6.518-4.735l6.519,4.735c0.271,0.196,0.636,0.196,0.907-0.001
		c0.27-0.197,0.383-0.544,0.279-0.862l-2.489-7.662l6.519-4.738C39.505,25.393,39.618,25.045,39.514,24.729L39.514,24.729z"/>
</g>
<g id="Layer_14" display="none">
	<g display="inline">
		<path d="M38.152,36.001H16.847c-0.826,0-1.5,0.673-1.5,1.5c0,0.827,0.674,1.499,1.5,1.499h21.306c0.826,0,1.501-0.672,1.501-1.499
			C39.653,36.674,38.979,36.001,38.152,36.001z"/>
		<path d="M38.152,26H16.847c-0.826,0-1.5,0.673-1.5,1.5c0,0.827,0.674,1.5,1.5,1.5h21.306c0.826,0,1.501-0.673,1.501-1.5
			C39.653,26.673,38.979,26,38.152,26z"/>
		<path d="M16.847,19h21.306c0.826,0,1.501-0.673,1.501-1.5c0-0.827-0.675-1.5-1.501-1.5H16.847c-0.826,0-1.5,0.673-1.5,1.5
			C15.347,18.328,16.021,19,16.847,19z"/>
	</g>
</g>
<g id="Layer_15" display="none">
	<path display="inline" fill="#010101" d="M13.087,38.079l14.433-14.435l14.44,14.439c1.233,1.224,3.243,1.221,4.485-0.01
		c1.187-1.199,1.181-3.307-0.006-4.484L29.824,16.971l-0.47-0.434l-0.088-0.002C28.751,16.189,28.142,16,27.519,16
		c-0.589,0-1.153,0.161-1.645,0.462h-0.15L8.6,33.586c-0.601,0.6-0.933,1.397-0.933,2.247c0,0.85,0.329,1.645,0.936,2.251
		c1.232,1.221,3.241,1.224,4.482-0.005H13.087z"/>
</g>
<g id="Layer_16" display="none">
	<path display="inline" fill="#010101" d="M21.362,23.906V39l12.275-11.5L21.362,16V23.906z"/>
</g>
<g id="Layer_17" display="none">
	<path display="inline" fill="#010101" d="M33.638,16L21.362,27.5L33.638,39V23.906V16z"/>
</g>
<g id="Layer_19" display="none">
</g>
<g id="Layer_20">
</g>
</svg>
