<?xml version="1.0" encoding="utf-8"?>
<!-- Generator: Adobe Illustrator 18.1.0, SVG Export Plug-In . SVG Version: 6.00 Build 0)  -->
<!DOCTYPE svg PUBLIC "-//W3C//DTD SVG 1.1//EN" "http://www.w3.org/Graphics/SVG/1.1/DTD/svg11.dtd">
<svg version="1.1" id="Layer_1" xmlns="http://www.w3.org/2000/svg" xmlns:xlink="http://www.w3.org/1999/xlink" x="0px" y="0px"
	 viewBox="0 0 841.9 595.3" enable-background="new 0 0 841.9 595.3" xml:space="preserve">
<g>
	<path fill-rule="evenodd" clip-rule="evenodd" fill="#151616" d="M357.1,240.9c6.6,0,13.2,0,19.7,0.1l26.3,50.8v-50.8h15.8v80.4
		l-17.3,0l-28.7-57.1v57.1h-15.8V240.9z"/>
	<path fill-rule="evenodd" clip-rule="evenodd" fill="#151616" d="M596.9,260.5c17.1,0,30.9,13.8,30.9,30.9
		c0,17.1-13.8,30.9-30.9,30.9c-17.1,0-30.9-13.8-30.9-30.9C566,274.3,579.8,260.5,596.9,260.5L596.9,260.5z M596.9,276
		c8.5,0,15.3,6.9,15.3,15.3c0,8.5-6.9,15.3-15.3,15.3c-8.5,0-15.3-6.9-15.3-15.3C581.5,282.9,588.4,276,596.9,276L596.9,276z"/>
	<path fill-rule="evenodd" clip-rule="evenodd" fill="#151616" d="M454.6,260.5c17.1,0,30.9,13.8,30.9,30.9
		c0,17.1-13.8,30.9-30.9,30.9c-17.1,0-30.9-13.8-30.9-30.9C423.8,274.3,437.6,260.5,454.6,260.5L454.6,260.5z M454.6,276
		c8.5,0,15.3,6.9,15.3,15.3c0,8.5-6.9,15.3-15.3,15.3s-15.3-6.9-15.3-15.3C439.3,282.9,446.2,276,454.6,276L454.6,276z"/>
	<path fill-rule="evenodd" clip-rule="evenodd" fill="#151616" d="M490.6,262.2v59.1h17.6v-27.9c0-2.5,0.4-4,1.2-6.3
		c1.6-4.8,4.3-8.8,9.1-11.5c2.4-1.4,2.7-1.4,5.4-1.4h11v32c0.6,17.6,18.6,18,31.8,14.4c-0.7-3.9-1.5-7.9-2.2-11.8
		c-7.5,1.7-12.9,2.2-12.9-7.2v-27.5h12.7v-12.4H552v-16.7h-14c-1.3,5.6-2.7,11.1-4,16.7h-9.7c-4.2,0-7.9,1.1-11.5,3.6
		c-3,2.1-5.4,5.1-6.8,9.3c-1.7-4.1-3.4-8.1-5.1-12.2C497.5,262.4,494.1,262.3,490.6,262.2L490.6,262.2z"/>
	<path fill-rule="evenodd" clip-rule="evenodd" fill="#151616" d="M632.1,261.9v59.7h16.7v-39.5c0-5.5,13.3-10.5,18.9-3.7
		c1.5,1.8,1.3,2.3,1.3,4.4v38.5h16.9v-41.1c0-4.7-2.2-9.2-5.1-12.9c-4.2-5.3-10.2-7.7-18.9-6.1c-5.9,1.1-10.6,4.5-16,9.9
		c-1.2-3-2.4-6.1-3.5-9.1L632.1,261.9z"/>
	<path fill-rule="evenodd" clip-rule="evenodd" fill="#151616" d="M689.2,263.2h2v-1.4h-5.4v1.4h2v6.4h1.4V263.2z M698.4,261.8h-2
		l-1.2,6.2h0l-1.2-6.2h-2v7.8h1.3v-6.5h0l1.2,6.5h1.4l1.2-6.5h0v6.5h1.3V261.8z"/>
	<path fill-rule="evenodd" clip-rule="evenodd" fill="#FCBB17" d="M236,405.8c-51.3,0-93-41.7-93-93c0-51.3,41.7-93,93-93
		c51.3,0,93,41.7,93,93C329,364.1,287.3,405.8,236,405.8L236,405.8z M236,249.2c-17,0-32.9,6.6-45,18.6c-12,12-18.6,28-18.6,45
		c0,17,6.6,33,18.6,45c12,12,28,18.6,45,18.6c17,0,33-6.6,45-18.6c12-12,18.6-28,18.6-45c0-17-6.6-32.9-18.6-45
		C269,255.8,253,249.2,236,249.2L236,249.2z"/>
	<rect x="337.4" y="205.5" fill-rule="evenodd" clip-rule="evenodd" fill="#FCBB17" width="7.3" height="7.2"/>
	<rect x="337.4" y="191" fill-rule="evenodd" clip-rule="evenodd" fill="#FCBB17" width="7.3" height="7.3"/>
	<rect x="316.9" y="212.7" fill-rule="evenodd" clip-rule="evenodd" fill="#FCBB17" width="6.8" height="7.1"/>
	<rect x="303.5" y="226.6" fill-rule="evenodd" clip-rule="evenodd" fill="#151616" width="6.8" height="6.8"/>
	<rect x="323.7" y="219.7" fill-rule="evenodd" clip-rule="evenodd" fill="#151616" width="7.6" height="6.8"/>
	<rect x="296.7" y="220.1" fill-rule="evenodd" clip-rule="evenodd" fill="#151616" width="6.8" height="6.5"/>
	<rect x="316.9" y="226.6" fill-rule="evenodd" clip-rule="evenodd" fill="#151616" width="6.8" height="6.8"/>
	<rect x="330.2" y="198.3" fill-rule="evenodd" clip-rule="evenodd" fill="#151616" width="7.2" height="7.2"/>
	<rect x="316.9" y="205.5" fill-rule="evenodd" clip-rule="evenodd" fill="#151616" width="13.2" height="7.2"/>
	<rect x="310.4" y="212.7" fill-rule="evenodd" clip-rule="evenodd" fill="#151616" width="6.6" height="13.9"/>
	<path fill-rule="evenodd" clip-rule="evenodd" fill="#151616" d="M310.4,233.3v6.8h-6.8v-6.8h-11.3v4.9h-6.1v6.1h6.8v6.8h-6.8v-6.8
		h-7.2v10.6h-6.8v6.8h-4.5v6.8h-5c-5.6,8.3-19.6,34.2-23.8,44.8c-15.3-21.2-27.1-29.7-36.4-32.7c-5-1.5-11.1,4-2.7,12.6
		c19.2,21.1,25.2,38.6,31.1,52.5c3.1,7.4,16.9,8.5,19.7,1c5.9-15.8,14.5-33.6,24.6-48.2v-7.6h5.4v-6.8h5.7v-7.9h6.8v-7.6H286v-6.9
		h6.9v6.9h6.7l0-6.9h5.4v-8.3h6.1v-5.7h5.8v-14.4H310.4z"/>
	<path fill-rule="evenodd" clip-rule="evenodd" fill="#989899" d="M434.1,376.3l-1.9,3c1.5,1.1,3.5,2.4,6.1,3.2
		c2.2,0.8,4.9,1.3,7.9,1.3c4.7,0,8.3-1.2,10.8-3.2c2.5-2.1,3.9-5.1,3.9-8.7c0-3.8-1.4-6.4-3.7-8.4c-2.3-2-5.6-3.5-9.3-4.8v0
		c-3.4-1.2-5.7-2.3-7.2-3.6c-1.6-1.4-2.4-3-2.4-5.3c0-2.2,0.6-4,2.1-5.2c1.4-1.2,3.7-1.9,6.9-1.9c2.6,0,4.8,0.4,6.6,1
		c1.4,0.5,2.6,1,3.6,1.6l1.5-3.3c-1.4-0.8-2.8-1.4-4.5-1.9c-1.9-0.6-4.3-0.9-7.3-0.9c-4.3,0-7.6,1.1-9.8,2.9
		c-2.3,1.9-3.5,4.7-3.5,7.8c0,3.7,1.3,6.2,3.4,8.2c2.1,2,5.1,3.3,8.5,4.7c3.2,1.3,5.8,2.4,7.6,3.8c1.9,1.5,2.9,3.3,2.9,6
		c0,2.5-1,4.4-2.7,5.8c-1.7,1.3-4.2,2-7.2,2c-2.9,0-5.3-0.6-7.4-1.4C437,378.1,435.5,377.2,434.1,376.3L434.1,376.3z"/>
	<path fill-rule="evenodd" clip-rule="evenodd" fill="#989899" d="M463.7,352.2h4.7l8.5,27.6l8.1-27.6h4.6l-11.1,34.9
		c-1.8,5.7-4.8,8.7-10.5,8.7c-1.2,0-2.5-0.3-3.5-0.6l0.6-3.4c0.7,0.1,1.5,0.3,2.6,0.3c3.8,0,6.1-2.3,7.2-6L463.7,352.2z"/>
	<path fill-rule="evenodd" clip-rule="evenodd" fill="#989899" d="M528.5,351.6c6.3,0,7.9,5.3,7.9,10.5v22.1h-4.6v-22
		c0-3.4-0.5-6.6-4.7-6.6c-2.9,0-5.9,1.8-8.9,4.9v23.7h-4.6v-22c0-3.4-0.5-6.6-4.7-6.6c-2.9,0-6,2-8.9,4.9v23.7h-4.6v-32h2.6l1.3,5.2
		c2.9-3.1,6.6-5.8,10.9-5.8c4.2,0,5.9,2.3,7.2,5.6C520.5,354,524.3,351.6,528.5,351.6L528.5,351.6z"/>
	<path fill-rule="evenodd" clip-rule="evenodd" fill="#989899" d="M562.6,367.2c-7,1.3-11.6,2.8-13.3,5c-0.8,1-1.1,2-1.1,3.4
		c0,3.3,1.6,5.2,5.4,5.2c3.6,0,6.8-1.9,9-3.6V367.2z M562.6,362.5c0-4.7-1.4-7-6.5-7c-3.3,0-6.2,1.3-9.1,2.9l-1.7-3.1
		c3-2,6.5-3.6,11.2-3.6c7.7,0,10.7,4.3,10.7,11.3v21.3h-2.6c0,0-1.3-3.9-1.4-3.9c-2.2,2.2-5.8,4.4-10,4.4c-5.6,0-9.7-3.5-9.7-8.8
		c0-3.5,1.4-6,4.5-7.8c2.9-1.7,8.3-3,14.6-4V362.5z"/>
	<path fill-rule="evenodd" clip-rule="evenodd" fill="#989899" d="M577.5,352.2h2.6l1.3,5.4c2.9-3.3,6.7-6,11.6-6
		c6.8,0,8.6,5.3,8.6,10.5v22.1H597v-22c0-3.4-0.8-6.6-5.4-6.6c-3.3,0-6.7,2-9.5,5.1v23.5h-4.6V352.2z"/>
	<path fill-rule="evenodd" clip-rule="evenodd" fill="#989899" d="M607.9,355.5v-3.3h4.9l1.3-9.1h3.1v9.1h7.2v3.3h-7.2v20.8
		c0,3.1,0.5,4.8,3.6,4.8c1.3,0,2.2-0.3,3.7-0.6l0.7,3.2c-1.2,0.6-2.9,1-4.6,1c-5.6,0-8-2.8-8-8.1v-21.1H607.9z"/>
	<path fill-rule="evenodd" clip-rule="evenodd" fill="#989899" d="M649.7,366.1c-0.3-7.3-2.7-11-7.5-11c-4.4,0-7.4,3.4-7.7,11H649.7
		z M643,381c3.7,0,6-1.3,8.8-3.2l2,2.7c-3.1,2.6-5.9,4.2-11.1,4.2c-8,0-13-6.4-13-16.5c0-9.9,5-16.6,12.6-16.6
		c7.8,0,12.3,5.8,12.3,16.8v1h-20C634.7,376.9,637.2,381,643,381L643,381z"/>
	<path fill-rule="evenodd" clip-rule="evenodd" fill="#989899" d="M660.1,368.4c0-7.9,3.2-16.8,13-16.8c4.1,0,7.2,1.2,9.8,3.3
		l-1.9,3.1c-2-1.5-4.7-2.7-7.9-2.7c-7.3,0-8.1,7.7-8.1,13.2c0,5.1,1,12.5,8.4,12.5c3.4,0,5.8-1.3,7.9-3.2l2.2,2.6
		c-2.2,2.3-5.5,4.3-10.4,4.3C663.5,384.7,660.1,376.1,660.1,368.4L660.1,368.4z"/>
	<path fill-rule="evenodd" clip-rule="evenodd" fill="#989899" d="M387.2,352.2h4.7l8.5,27.6l8.1-27.6h4.6l-11.1,34.9
		c-1.8,5.7-4.8,8.7-10.5,8.7c-1.2,0-2.5-0.3-3.5-0.6l0.6-3.4c0.7,0.1,1.5,0.3,2.6,0.3c3.8,0,6.1-2.3,7.2-6L387.2,352.2z"/>
	<path fill-rule="evenodd" clip-rule="evenodd" fill="#989899" d="M378.5,364.7c0.1,0.6,0.1,1.3,0.2,2c0,0.7,0.1,1.4,0.1,2
		c0,0.4,0,0.8,0,1.2c0,0.4-0.1,0.8-0.1,1.2c0,0.4-0.1,0.8-0.2,1.1s-0.2,0.7-0.2,1.1c-0.1,0.4-0.2,0.7-0.3,1c-0.1,0.3-0.2,0.7-0.4,1
		c-0.1,0.3-0.3,0.6-0.5,0.9c-0.2,0.3-0.3,0.6-0.5,0.8l0,0v0c-0.2,0.3-0.4,0.5-0.6,0.7c-0.2,0.2-0.4,0.4-0.7,0.6
		c-0.2,0.2-0.5,0.4-0.7,0.6c-0.3,0.2-0.5,0.3-0.8,0.5v0c-0.3,0.1-0.6,0.3-0.9,0.4c-0.3,0.1-0.6,0.2-0.9,0.3c-0.3,0.1-0.6,0.1-1,0.2
		c-0.3,0-0.7,0.1-1.1,0.1c-0.2,0-0.5,0-0.7,0c-0.2,0-0.5,0-0.7-0.1s-0.4-0.1-0.6-0.1c-0.2,0-0.3-0.1-0.5-0.1l0,0l-0.1,0
		c-0.2-0.1-0.4-0.1-0.6-0.2c-0.2-0.1-0.4-0.2-0.6-0.2c-0.2-0.1-0.4-0.2-0.5-0.3c-0.2-0.1-0.3-0.2-0.5-0.3h0
		c-0.2-0.1-0.3-0.2-0.5-0.3c-0.1-0.1-0.3-0.2-0.4-0.3c-0.1-0.1-0.3-0.2-0.4-0.3c-0.1-0.1-0.3-0.2-0.4-0.3c-0.1-0.1-0.2-0.2-0.3-0.3
		c-0.1-0.1-0.2-0.2-0.3-0.3c-0.1-0.1-0.2-0.2-0.3-0.3c-0.1-0.1-0.2-0.2-0.2-0.3l0,0l0,0v-16.6l0.1-0.1c0.3-0.2,0.5-0.5,0.8-0.7
		c0.3-0.2,0.6-0.4,0.8-0.6l0,0c0.3-0.2,0.6-0.4,0.9-0.6c0.3-0.2,0.6-0.3,1-0.5c0.3-0.2,0.7-0.3,1-0.4c0.3-0.1,0.7-0.2,1-0.3
		c0.4-0.1,0.7-0.1,1.1-0.2c0.4,0,0.7-0.1,1.1-0.1c0.2,0,0.5,0,0.7,0c0.2,0,0.5,0,0.7,0.1c0.2,0,0.5,0.1,0.7,0.1
		c0.2,0.1,0.5,0.1,0.7,0.2c0.2,0.1,0.5,0.2,0.7,0.3c0.2,0.1,0.5,0.2,0.7,0.4c0.2,0.1,0.5,0.3,0.7,0.5c0.2,0.2,0.4,0.4,0.7,0.6
		c0.2,0.2,0.4,0.4,0.6,0.7c0.2,0.2,0.4,0.5,0.6,0.8c0.2,0.3,0.3,0.6,0.5,0.9c0.2,0.3,0.3,0.7,0.4,1c0.1,0.3,0.2,0.8,0.3,1.2
		C378.3,363.5,378.4,364.1,378.5,364.7L378.5,364.7z M383.1,372.1c0.1-0.6,0.2-1.2,0.2-1.8c0-0.6,0.1-1.3,0.1-2c0-0.5,0-1.2,0-1.8
		c0-0.6-0.1-1.2-0.1-1.8c-0.1-0.5-0.1-1.1-0.2-1.6c-0.1-0.4-0.1-0.8-0.2-1.2c-0.1-0.4-0.2-0.7-0.3-1.1c-0.1-0.3-0.2-0.7-0.4-1
		c-0.1-0.3-0.3-0.6-0.4-0.9c-0.1-0.3-0.3-0.6-0.5-0.8c-0.2-0.3-0.3-0.5-0.5-0.8c-0.2-0.2-0.4-0.5-0.5-0.7c-0.2-0.2-0.4-0.4-0.6-0.6
		c-0.2-0.2-0.4-0.4-0.6-0.6s-0.4-0.4-0.6-0.5c-0.2-0.2-0.4-0.3-0.7-0.5c-0.2-0.1-0.4-0.3-0.7-0.4c-0.2-0.1-0.5-0.2-0.7-0.4
		c-0.2-0.1-0.5-0.2-0.7-0.3c-0.2-0.1-0.5-0.2-0.7-0.3c-0.2-0.1-0.5-0.1-0.7-0.2c-0.2-0.1-0.5-0.1-0.7-0.2c-0.2,0-0.5-0.1-0.7-0.1
		c-0.2,0-0.5-0.1-0.7-0.1c-0.2,0-0.4,0-0.6-0.1c-0.2,0-0.4,0-0.6,0c-0.4,0-0.9,0-1.3,0.1c-0.4,0-0.8,0.1-1.2,0.2
		c-0.4,0.1-0.8,0.2-1.1,0.3c-0.4,0.1-0.7,0.2-1.1,0.4c-0.3,0.1-0.7,0.3-1,0.5c-0.3,0.2-0.6,0.4-0.9,0.6c-0.3,0.2-0.6,0.4-0.9,0.7
		c-0.3,0.2-0.5,0.5-0.8,0.8l0,0l0,0h-0.4v-16.9h-4.4v44.1h3.3l1-3.1l0-0.1l0-0.1h0.3l0.1,0.1c0,0.1,0.1,0.1,0.1,0.2
		c0.1,0.1,0.1,0.2,0.2,0.2l0.1,0.1l0,0v0c0.1,0.1,0.1,0.1,0.2,0.2c0.1,0.1,0.2,0.2,0.3,0.3c0.1,0.1,0.2,0.2,0.3,0.3
		c0.1,0.1,0.2,0.2,0.4,0.3c0.1,0.1,0.3,0.2,0.4,0.3c0.1,0.1,0.3,0.2,0.5,0.3h0l0,0c0.2,0.1,0.3,0.2,0.5,0.3c0.2,0.1,0.4,0.2,0.6,0.3
		c0.2,0.1,0.4,0.2,0.6,0.3c0.2,0.1,0.4,0.2,0.6,0.2l0.1,0c0.2,0.1,0.5,0.1,0.7,0.2c0.3,0.1,0.5,0.1,0.8,0.1c0.3,0,0.6,0.1,0.8,0.1
		c0.3,0,0.6,0,0.9,0c0.4,0,0.8,0,1.2-0.1c0.4,0,0.8-0.1,1.2-0.2c0.4-0.1,0.8-0.2,1.2-0.3c0.4-0.1,0.8-0.2,1.1-0.4l0,0
		c0.4-0.2,0.8-0.3,1.1-0.5c0.4-0.2,0.7-0.4,1.1-0.7c0.3-0.2,0.7-0.5,1-0.8c0.3-0.3,0.6-0.6,0.9-0.9l0,0c0.3-0.3,0.6-0.6,0.8-1
		c0.3-0.4,0.5-0.8,0.8-1.2c0.2-0.4,0.5-0.8,0.7-1.3c0.2-0.4,0.4-0.9,0.6-1.4c0.2-0.5,0.3-1,0.5-1.5
		C382.9,373.2,383,372.7,383.1,372.1L383.1,372.1z"/>
</g>
</svg>
