<?xml version="1.0" encoding="utf-8"?>
<!-- Generator: Adobe Illustrator 18.0.0, SVG Export Plug-In . SVG Version: 6.00 Build 0)  -->
<!DOCTYPE svg PUBLIC "-//W3C//DTD SVG 1.1//EN" "http://www.w3.org/Graphics/SVG/1.1/DTD/svg11.dtd">
<svg version="1.1" id="Layer_1" xmlns="http://www.w3.org/2000/svg" xmlns:xlink="http://www.w3.org/1999/xlink" x="0px" y="0px"
	 viewBox="0 0 55 55" enable-background="new 0 0 55 55" xml:space="preserve">
<g id="Layer_2_1_">
	<g>
		<path fill="#009DE2" d="M5.8,23.7h3.6c1.9,0,2.7,1,2.6,2.4c-0.2,2.4-1.6,3.7-3.5,3.7h-1c-0.3,0-0.4,0.2-0.5,0.6l-0.4,2.7
			c0,0.2-0.1,0.3-0.3,0.3H4c-0.2,0-0.3-0.2-0.2-0.5l1.4-8.8C5.2,23.8,5.4,23.7,5.8,23.7z"/>
		<path fill="#113984" d="M21.5,23.5c1.2,0,2.4,0.7,2.2,2.3c-0.2,2-1.2,3.1-2.9,3.1h-1.5c-0.2,0-0.3,0.2-0.4,0.5l-0.3,1.8
			c0,0.3-0.2,0.4-0.4,0.4H17c-0.2,0-0.3-0.1-0.2-0.4l1.1-7.2c0.1-0.4,0.2-0.5,0.4-0.5L21.5,23.5L21.5,23.5z M19.3,27.3l1.1,0
			c0.7,0,1.1-0.5,1.2-1.4c0-0.5-0.3-0.9-0.9-0.9l-1,0L19.3,27.3L19.3,27.3z M27.4,31c0.1-0.1,0.2-0.2,0.2,0l0,0.3
			c0,0.2,0,0.3,0.2,0.3H29c0.2,0,0.3-0.1,0.4-0.4l0.7-4.6c0-0.2,0-0.3-0.2-0.3h-1.3c-0.1,0-0.2,0.1-0.2,0.2l0,0.3
			c0,0.1-0.1,0.2-0.2,0c-0.2-0.5-0.8-0.8-1.6-0.8c-1.9,0-3.1,1.4-3.2,3.2c-0.1,1.4,0.9,2.5,2.2,2.5C26.5,31.8,26.9,31.5,27.4,31
			L27.4,31z M26.4,30.3c-0.8,0-1.4-0.6-1.2-1.4c0.1-0.8,0.9-1.4,1.7-1.4c0.8,0,1.4,0.6,1.2,1.4C27.9,29.7,27.2,30.3,26.4,30.3
			L26.4,30.3z M32.4,26.2h-1.2c-0.3,0-0.4,0.2-0.3,0.4l1.5,4.4l-1.5,2.1c-0.1,0.2,0,0.3,0.1,0.3h1.4c0.2,0,0.3-0.1,0.4-0.2l4.6-6.7
			c0.1-0.2,0.1-0.4-0.2-0.4l-1.3,0c-0.2,0-0.3,0.1-0.4,0.3l-1.9,2.8l-0.9-2.8C32.8,26.3,32.6,26.2,32.4,26.2z"/>
		<path fill="#009DE2" d="M42.3,23.5c1.2,0,2.4,0.7,2.2,2.3c-0.2,2-1.2,3.1-2.9,3.1h-1.5c-0.2,0-0.3,0.2-0.4,0.5l-0.3,1.8
			c0,0.3-0.2,0.4-0.4,0.4h-1.4c-0.2,0-0.3-0.1-0.2-0.4l1.1-7.2c0.1-0.4,0.2-0.5,0.4-0.5L42.3,23.5L42.3,23.5z M40.1,27.3l1.1,0
			c0.7,0,1.1-0.5,1.2-1.4c0-0.5-0.3-0.9-0.9-0.9l-1,0L40.1,27.3L40.1,27.3z M48.2,31c0.1-0.1,0.2-0.2,0.2,0l0,0.3
			c0,0.2,0,0.3,0.2,0.3h1.2c0.2,0,0.3-0.1,0.4-0.4l0.7-4.6c0-0.2,0-0.3-0.2-0.3h-1.3c-0.1,0-0.2,0.1-0.2,0.2l0,0.3
			c0,0.1-0.1,0.2-0.2,0c-0.2-0.5-0.8-0.8-1.6-0.8c-1.8,0-3.1,1.4-3.2,3.2c-0.1,1.4,0.9,2.5,2.2,2.5C47.3,31.8,47.7,31.5,48.2,31
			L48.2,31z M47.2,30.3c-0.8,0-1.4-0.6-1.2-1.4c0.1-0.8,0.9-1.4,1.7-1.4c0.8,0,1.4,0.6,1.2,1.4C48.8,29.7,48,30.3,47.2,30.3
			L47.2,30.3z M52.7,31.6h-1.4c-0.1,0-0.2-0.1-0.2-0.2l1.2-7.7c0-0.1,0.1-0.2,0.2-0.2H54c0.1,0,0.2,0.1,0.2,0.2L53,31.4
			C53,31.5,52.9,31.6,52.7,31.6z"/>
		<path fill="#113984" d="M3.5,20.6h3.6c1,0,2.2,0,3,0.7c0.5,0.5,0.8,1.2,0.8,2.1c-0.2,2.8-1.9,4.3-4.1,4.3H5
			c-0.3,0-0.5,0.2-0.6,0.7L4,31.7c0,0.2-0.1,0.3-0.3,0.3H1.4c-0.2,0-0.3-0.2-0.3-0.6l1.6-10.2C2.8,20.8,3.1,20.6,3.5,20.6z"/>
		<path fill="#172C70" d="M4.5,28.2l0.6-4c0.1-0.4,0.2-0.5,0.6-0.5h3.6c0.6,0,1.1,0.1,1.5,0.3c-0.4,2.5-2,3.8-4,3.8H5
			C4.8,27.8,4.6,27.9,4.5,28.2z"/>
	</g>
</g>
</svg>
