<?xml version="1.0" encoding="utf-8"?>
<!-- Generator: Adobe Illustrator 18.0.0, SVG Export Plug-In . SVG Version: 6.00 Build 0)  -->
<!DOCTYPE svg PUBLIC "-//W3C//DTD SVG 1.1//EN" "http://www.w3.org/Graphics/SVG/1.1/DTD/svg11.dtd">
<svg version="1.1" id="Layer_1" xmlns="http://www.w3.org/2000/svg" xmlns:xlink="http://www.w3.org/1999/xlink" x="0px" y="0px"
	 viewBox="0 0 595.3 841.9" enable-background="new 0 0 595.3 841.9" xml:space="preserve">
<g id="Layer_1_1_" display="none">
	<path display="inline" fill="#010101" d="M453.3,326.2c-8.5,12.2-19.1,23.1-31.8,32.8v7.3c0,20.8-3.9,41.9-11.9,63.3
		c-8,21.4-19.7,40.6-35,57.8c-15.4,17.2-34.3,31.1-56.7,41.9c-22.5,10.8-48.4,16.1-77.7,16.1c-18,0-35.2-2.5-51.7-7.6
		c-16.5-5-31.9-12-46.4-21.1c2.4,0.3,4.9,0.5,7.4,0.5h8c30.4,0,56.7-8.9,79-26.6c-14.2-0.3-26.6-4.6-37.4-12.7
		c-10.8-8.2-18.1-18.5-22-31c4.2,1.1,8.1,1.5,11.7,1.5c3.2,0,6.1-0.1,8.7-0.5c2.6-0.3,5.4-0.9,8.2-1.6
		c-14.8-3.1-27.1-10.4-36.8-21.6c-9.7-11.3-14.6-24.6-14.6-39.8v-0.5c4.3,2.1,8.8,3.8,13.5,5.2c4.8,1.4,10.2,2.1,16.2,2.1
		c-9.2-5.5-16.3-12.8-21.2-21.9c-5-9-7.4-19.1-7.4-30.2c0-11.1,2.8-21.7,8.5-31.8c15.9,19.4,35.2,35,57.8,46.6
		c22.6,11.6,47.2,18,73.7,19c-1.1-4.1-1.6-8.7-1.6-13.5c0-8.7,1.7-16.9,5.1-24.8c3.4-7.8,7.9-14.6,13.7-20.3
		c5.9-5.7,12.5-10.2,20.2-13.5c7.6-3.3,15.8-4.9,24.7-4.9c9.6,0,18.2,1.8,26,5.5c7.8,3.6,14.7,8.4,20.7,14.3c7.1-1,14.1-3,21.2-5.7
		c7-2.8,13.6-5.7,19.6-8.9c-5.7,14.6-15,26.1-28.1,34.4c6.7-0.7,13.1-1.9,19.1-3.6C441.8,330.7,447.7,328.6,453.3,326.2L453.3,326.2
		z"/>
</g>
<g id="Layer_2" display="none">
	<path display="inline" fill="#010101" d="M261.1,421.1l-82.5,77.8c-5.5,5.2-8.5,12.1-8.5,19.4c0,7.3,3,14.2,8.5,19.3
		c11,10.4,30.1,10.4,41.2,0l78.1-73.6l77.8,73.4c5.4,5.1,12.9,8,20.5,8c7.8,0,15.1-2.9,20.5-8c5.5-5.2,8.6-12.1,8.5-19.4
		c0-7.3-3-14.2-8.5-19.3l-82.5-77.8l82.5-77.8c5.5-5.2,8.5-12.1,8.5-19.4c0-7.3-3-14.2-8.5-19.3c-11-10.4-30.1-10.4-41.2,0
		l-78.1,73.6l-77.8-73.4c-5.5-5-12.9-8-20.5-8c-7.8,0-15.1,2.8-20.5,8c-5.5,5.2-8.5,12.1-8.5,19.4c0,7.3,3,14.2,8.5,19.3
		L261.1,421.1z"/>
</g>
<g id="Layer_3" display="none">
	<path display="inline" fill="#010101" d="M317.3,440.1c6.5-6.2,12.7-12.5,18.7-18.9c6-6.4,11-12.5,14.9-18.3
		c3.9-5.7,6.5-11,7.6-15.9c1.2-4.8,0.3-8.6-2.4-11.2c-4.1-4-8-7.8-11.5-11.3c-3.5-3.5-5.8-7.6-6.9-11.9c-1.1-4.4-0.6-9.7,1.7-15.9
		s7.2-13.7,14.6-22.6c7.4-8.8,14.3-14.2,20.8-16.2c6.5-2,12.4-1.9,17.7,0.3c5.3,2.2,10.3,5.7,14.9,10.3c4.7,4.7,9,9,13.2,12.9
		c4.6,4.4,6.9,11.7,6.9,21.9c0,10.1-2.7,22.1-8.3,35.8c-5.6,13.7-13.9,28.7-25,45c-11.1,16.4-25.2,32.7-42.3,49
		c-17.6,16.8-34.9,30.4-51.7,40.8c-16.9,10.4-32.4,18.3-46.5,23.5c-14.1,5.3-26.6,8-37.5,8c-10.8,0-18.6-2.4-23.2-7.3
		c-4.2-4-8.5-8-13.2-12.2c-4.6-4.2-8.1-8.9-10.4-14.2c-2.3-5.3-2.6-10.9-0.7-16.9c1.8-6,7.4-12.5,16.7-19.6
		c9.3-7,17.1-11.7,23.6-13.9c6.5-2.2,12-2.8,16.7-1.9c4.6,0.9,8.7,3.1,12.5,6.6c3.7,3.5,7.6,7.3,11.8,11.3c2.8,2.6,6.7,3.4,11.8,2.3
		c5.1-1.1,10.6-3.5,16.6-7.3c6-3.7,12.4-8.5,19.1-14.2C304.3,452.2,310.9,446.2,317.3,440.1z"/>
</g>
<g id="Layer_4" display="none">
	<path display="inline" fill="#010101" d="M468.1,334.3c-3,4-6.7,7-11.1,8.9c-2.2,1.3-6.5,3.7-12.8,7.1c-7.2,3.8-15.8,8.4-25.6,13.7
		c-10,5.4-20.5,10.9-31.7,16.7c-10.9,5.7-21.1,11.2-30.4,16.4c-9.6,5.5-17.7,9.9-24.4,13.3l-6.3,3.3c-3,1.6-4.8,2.5-5.2,2.7
		c-6.9,3.4-14.6,5.1-23,5.1c-7.9,0-15.4-1.7-22.3-5.1l-2.5-1.5c-1.5-0.8-4.3-2.3-8.5-4.4c-6.9-3.5-15.2-7.9-24.9-13.4
		c-9.3-5.3-19.4-10.7-30.4-16.4l-4.4-2.3c-9.5-5-18.6-9.8-27.2-14.4l-25.6-13.7c-6.9-3.6-11.3-6.1-13.4-7.4
		c-3.4-1.8-6.5-4.3-9.6-7.9c-3.5-4-5.7-8.1-6.8-12.9c-1.3-6-0.2-11.9,3.6-17.4c2.8-3.8,8.4-8.3,19.2-8.3h306.4
		c10.9,0,16.5,4.6,19.5,8.8c3.4,5.1,4.6,10.9,3.3,16.8C473,326.4,471.1,330.5,468.1,334.3L468.1,334.3z M121.8,390.1
		c3.2-9.8,14-14,26.5-7.7c2,1,6.7,3.5,14.7,7.7c7.1,3.8,15.5,8.3,25.2,13.5c9.8,5.3,20.4,10.8,31.7,16.5
		c11.3,5.8,21.9,11.3,31.6,16.3c9.6,5.1,17.9,9.4,25.4,13.3c6.5,3.4,10.2,5.3,11.3,5.8c5.8,2.9,14.1,2.7,20-0.2
		c1.1-0.5,4.9-2.5,11.5-5.9c6.9-3.6,15.2-7.9,24.9-13.1c9.7-5,20.2-10.5,31.6-16.3c11.3-5.8,21.8-11.2,31.6-16.5
		c10-5.4,18.7-10,26.3-13.9c6.7-3.4,10.7-5.6,12.1-6.5l1.3-0.8c4.4-2.2,7.9-3.2,11.4-3.2c7.6,0,14,5.1,15.5,13
		c0.3,2.2,0.5,4.5,0.5,7.4v113.9c0,7.9-3.4,15.2-10,21.8c-6.7,6.6-14,10-21.7,10H152.7c-7.6,0-14.9-3.3-21.8-9.7
		c-7-6.7-10.7-14.1-10.7-22.1v-114C120.3,396.2,120.8,393.1,121.8,390.1L121.8,390.1L121.8,390.1z"/>
</g>
<g id="Layer_5" display="none">
	<path display="inline" fill="#010101" d="M303.5,295.7c-68.3,0-102.8,49-102.8,89.9c0,24.8,9.4,46.8,29.5,55c3.3,1.3,6.2,0,7.2-3.6
		c0.7-2.5,2.2-8.9,2.9-11.5c1-3.6,0.6-4.9-2.1-8c-5.8-6.8-9.5-15.7-9.5-28.2c0-36.4,27.2-68.9,70.8-68.9c38.6,0,59.9,23.6,59.9,55.1
		c0,41.5-18.4,76.5-45.6,76.5c-15.1,0-26.3-12.4-22.7-27.7c4.3-18.2,12.7-37.9,12.7-51.1c0-11.8-6.3-21.6-19.4-21.6
		c-15.4,0-27.7,15.9-27.7,37.2c0,13.6,4.6,22.8,4.6,22.8s-15.7,66.7-18.5,78.4c-5.5,23.3-0.8,51.8-0.4,54.7c0.2,1.7,2.4,2.1,3.4,0.8
		c1.4-1.8,19.7-24.5,26-47.1c1.8-6.4,10.1-39.6,10.1-39.6c5,9.6,19.6,17.9,35.2,17.9c46.2,0,77.6-42.2,77.6-98.6
		C394.6,335.5,358.4,295.7,303.5,295.7L303.5,295.7z"/>
</g>
<g id="Layer_6" display="none">
	<path display="inline" fill="#010101" d="M394.7,346.6v-49.7h-12.4v49.7h-49.7V359h49.7v49.7h12.4V359h49.7v-12.4H394.7z
		 M311.1,296.9h-76.8c-34.4,0-66.9,26.1-66.9,56.3c0,30.9,23.5,55.8,58.5,55.8c2.4,0,4.8-0.1,7.1-0.2c-2.3,4.4-3.9,9.3-3.9,14.4
		c0,8.6,4.6,15.5,10.5,21.2c-4.4,0-8.7,0.1-13.3,0.1c-42.7,0-75.5,27.2-75.5,55.4c0,27.8,36,45.1,78.7,45.1
		c48.6,0,75.5-27.6,75.5-55.4c0-22.2-6.5-35.6-26.9-49.9c-6.9-4.9-20.2-16.9-20.2-23.9c0-8.2,2.4-12.3,14.7-22
		c12.7-9.9,21.7-23.9,21.7-40.1c0-19.3-8.6-38.2-24.8-44.4h24.4L311.1,296.9z M284.3,484.8c0.6,2.6,0.9,5.2,0.9,7.9
		c0,22.4-14.4,39.9-55.9,39.9c-29.5,0-50.8-18.7-50.8-41.1c0-22,26.4-40.3,55.9-39.9c6.9,0.1,13.3,1.2,19.1,3
		C269.6,465.9,281.1,472.2,284.3,484.8z M237.1,401.2c-19.8-0.6-38.6-22.2-42-48.1c-3.4-26,9.8-45.9,29.6-45.3
		c19.8,0.6,38.6,21.4,42,47.4C270.1,381.2,256.9,401.8,237.1,401.2L237.1,401.2z"/>
</g>
<g id="Layer_7_copy" display="none">
	<path display="inline" fill="#010101" d="M359.6,296.5h-124c-34.2,0-62,27.8-62,62v125c0,34.1,27.8,62,62,62h124
		c34.2,0,62-27.8,62-62v-125C421.6,324.3,393.8,296.5,359.6,296.5z M235.6,319.4h124c21.5,0,39,17.5,39,39v21.3H333
		c-9.6-6.8-21.4-10.9-34.1-10.9s-24.4,4.1-34.1,10.9h-68.2v-21.3C196.6,336.9,214.1,319.4,235.6,319.4L235.6,319.4z M323.3,427.7
		c0,13.5-11,24.4-24.4,24.4c-13.5,0-24.4-11-24.4-24.4s11-24.4,24.4-24.4C312.4,403.3,323.3,414.2,323.3,427.7z M359.6,522.5h-124
		c-21.5,0-39-17.5-39-39v-80.7h49c-3.6,7.6-5.6,16.1-5.6,25c0,32.4,26.4,58.9,58.9,58.9c32.5,0,58.9-26.4,58.9-58.9
		c0-8.9-2-17.4-5.6-25h46.5v80.8C398.7,505,381.2,522.5,359.6,522.5L359.6,522.5z M380.7,361.5c0,3.8-3.1,6.9-6.9,6.9h-21.3
		c-3.8,0-6.9-3.1-6.9-6.9v-21.3c0-3.8,3.1-6.9,6.9-6.9h21.3c3.8,0,6.9,3.1,6.9,6.9V361.5z"/>
</g>
<g id="Layer_8" display="none">
	<path display="inline" fill="#010101" d="M264.7,344.7V379h-25.1v41.9h25.1v124.6h51.6V420.9h34.6c0,0,3.3-20.1,4.8-42h-39.2v-28.7
		c0-4.3,5.6-10,11.2-10h28.1v-43.6h-38.2C263.4,296.5,264.7,338.5,264.7,344.7z"/>
</g>
<g id="Layer_9" display="none">
	<path display="inline" fill="#010101" d="M398.8,296.5H196.5c-25.1,0-45.5,20.4-45.5,45.5v107.4c0,25.1,20.4,45.5,45.5,45.5H260
		l64.3,48.2c2.1,1.6,4.6,2.4,7,2.4c1.8,0,3.6-0.4,5.2-1.2c4-2,6.5-6.1,6.5-10.5v-38.8h55.7c25.1,0,45.5-20.4,45.5-45.5V341.9
		C444.3,316.9,423.9,296.5,398.8,296.5L398.8,296.5z"/>
</g>
<g id="Layer_10" display="none">
	<path display="inline" fill="#010101" d="M246.3,542.2c-2.1,2.1-5,3.2-7.7,3.2c-2.8,0-5.6-1.1-7.8-3.2c-4.2-4.3-4.2-11.2,0-15.5
		l105.8-105.8L230.8,315.2c-4.2-4.3-4.2-11.2,0-15.5c4.3-4.3,11.2-4.3,15.5,0l121.3,121.3L246.3,542.2L246.3,542.2z"/>
</g>
<g id="Layer_11" display="none">
	<path display="inline" fill="#010101" d="M415.9,509L359,452.1c-0.8-0.8-1.9-1.2-2.8-1.8c10.2-15.6,16.1-34.2,16.1-54.2
		c0-55-44.6-99.6-99.6-99.6c-55,0-99.6,44.6-99.6,99.6c0,55,44.6,99.6,99.6,99.6c20,0,38.6-6,54.2-16.1c0.6,0.9,1,2,1.8,2.8
		l56.9,56.9c4.2,4.2,9.6,6.2,15.1,6.2c5.5,0,10.9-2.1,15.1-6.3C424.2,530.8,424.2,517.3,415.9,509L415.9,509z M201.6,396.1
		c0-39.2,31.9-71.1,71.1-71.1c39.2,0,71.1,31.9,71.1,71.1c0,39.2-31.9,71.1-71.1,71.1C233.5,467.2,201.6,435.3,201.6,396.1z"/>
</g>
<g id="Layer_12" display="none">
	<path display="inline" d="M393.2,391.2c-0.5-4.5-4.3-8-8.8-8h-20v-20c0-36.8-29.9-66.7-66.7-66.7c-36.8,0-66.7,29.9-66.7,66.7v20
		h-20c-4.6,0-8.4,3.5-8.9,8l-14.4,144.5c-0.3,2.5,0.6,5,2.3,6.9c1.7,1.9,4.1,2.9,6.6,2.9h202.3c2.5,0,4.9-1.1,6.6-2.9
		c1.7-1.9,2.5-4.3,2.3-6.9L393.2,391.2z M297.6,328.7c19,0,34.5,15.5,34.5,34.5v20h-68.9v-20C263.2,344.2,278.6,328.7,297.6,328.7z"
		/>
</g>
<g id="Layer_13" display="none">
	<path display="inline" fill="#010101" d="M427.7,391c-1.1-3.4-4.3-5.8-7.9-5.8h-87.2l-27-82.9c-1.1-3.4-4.3-5.8-7.9-5.8
		c-3.6,0-6.8,2.3-7.9,5.8l-26.9,82.9h-87.2c-3.6,0-6.8,2.3-7.9,5.8c-1.1,3.4,0.1,7.2,3,9.3l70.6,51.3l-26.9,82.9
		c-1.1,3.4,0.1,7.2,3,9.3c1.5,1.1,3.2,1.6,4.9,1.6c1.7,0,3.5-0.5,4.9-1.6l70.5-51.2l70.6,51.2c2.9,2.1,6.9,2.1,9.8,0
		c2.9-2.1,4.1-5.9,3-9.3l-26.9-82.9l70.6-51.3C427.6,398.1,428.8,394.4,427.7,391L427.7,391z"/>
</g>
<g id="Layer_14" display="none">
	<g display="inline">
		<path d="M412.9,513H182.3c-8.9,0-16.2,7.3-16.2,16.2c0,9,7.3,16.2,16.2,16.2h230.6c8.9,0,16.2-7.3,16.2-16.2
			C429.2,520.2,421.9,513,412.9,513z"/>
		<path d="M412.9,404.7H182.3c-8.9,0-16.2,7.3-16.2,16.2c0,9,7.3,16.2,16.2,16.2h230.6c8.9,0,16.2-7.3,16.2-16.2
			C429.2,412,421.9,404.7,412.9,404.7z"/>
		<path d="M182.3,328.9h230.6c8.9,0,16.2-7.3,16.2-16.2s-7.3-16.2-16.2-16.2H182.3c-8.9,0-16.2,7.3-16.2,16.2
			C166.1,321.7,173.4,328.9,182.3,328.9z"/>
	</g>
</g>
<g id="Layer_15" display="none">
	<path display="inline" fill="#010101" d="M141.6,535.4l156.2-156.2l156.3,156.3c13.3,13.2,35.1,13.2,48.5-0.1
		c12.8-13,12.8-35.8-0.1-48.5L322.8,307l-5.1-4.7l-1,0c-5.6-3.7-12.2-5.8-18.9-5.8c-6.4,0-12.5,1.7-17.8,5h-1.6L93.1,486.8
		c-6.5,6.5-10.1,15.1-10.1,24.3s3.6,17.8,10.1,24.4C106.4,548.7,128.2,548.7,141.6,535.4L141.6,535.4z"/>
</g>
<g id="Layer_16" display="none">
	<path display="inline" fill="#010101" d="M231.2,382v163.4l132.9-124.5L231.2,296.5V382z"/>
</g>
<g id="Layer_17" display="none">
	<path display="inline" fill="#010101" d="M364.1,296.5L231.2,420.9l132.9,124.5V382V296.5z"/>
</g>
<g id="Layer_19" display="none">
</g>
<g id="Layer_20">
</g>
<g>
	<polygon points="217,272.5 329.9,272.5 329.9,321 378.3,321 378.3,385.5 394.5,385.5 394.5,304.8 346.1,256.4 200.8,256.4 
		200.8,385.5 217,385.5 	"/>
	<path d="M410.6,401.6H184.7c-8.9,0-16.1,7.2-16.1,16.1v80.7c0,8.9,7.2,16.1,16.1,16.1h225.9c8.9,0,16.1-7.2,16.1-16.1v-80.7
		C426.7,408.9,419.5,401.6,410.6,401.6z M362.2,450.1h-16.1v-16.1h16.1V450.1z M410.6,450.1h-32.3v-16.1h32.3V450.1z"/>
</g>
</svg>
