<?xml version="1.0" encoding="utf-8"?>
<!-- Generator: Adobe Illustrator 18.0.0, SVG Export Plug-In . SVG Version: 6.00 Build 0)  -->
<!DOCTYPE svg PUBLIC "-//W3C//DTD SVG 1.1//EN" "http://www.w3.org/Graphics/SVG/1.1/DTD/svg11.dtd">
<svg version="1.1" id="Layer_1" xmlns="http://www.w3.org/2000/svg" xmlns:xlink="http://www.w3.org/1999/xlink" x="0px" y="0px"
	 viewBox="0 8 55 34.7" enable-background="new 0 8 55 34.7" xml:space="preserve">
<g>
	<polygon fill="#005098" points="19.9,33.1 22.5,17.7 26.7,17.7 24,33.1 19.9,33.1 	"/>
	<path fill="#005098" d="M39.2,18.1c-0.8-0.3-2.1-0.6-3.8-0.6c-4.1,0-7.1,2.1-7.1,5.1c0,2.2,2.1,3.4,3.7,4.2
		c1.6,0.8,2.2,1.2,2.2,1.9c0,1-1.3,1.5-2.5,1.5c-1.7,0-2.6-0.2-3.9-0.8L27.3,29l-0.6,3.4c1,0.4,2.8,0.8,4.7,0.8
		c4.4,0,7.3-2.1,7.3-5.3c0-1.7-1.1-3.1-3.5-4.2c-1.5-0.7-2.4-1.2-2.4-1.9c0-0.6,0.8-1.3,2.4-1.3c1.4,0,2.4,0.3,3.1,0.6l0.4,0.2
		L39.2,18.1L39.2,18.1z"/>
	<path fill="#005098" d="M50,17.7h-3.2c-1,0-1.8,0.3-2.2,1.3l-6.2,14.1h4.4c0,0,0.7-1.9,0.9-2.3c0.5,0,4.8,0,5.4,0
		c0.1,0.5,0.5,2.3,0.5,2.3h3.9L50,17.7L50,17.7z M44.8,27.6c0.3-0.9,1.7-4.3,1.7-4.3c0,0,0.3-0.9,0.6-1.5l0.3,1.3c0,0,0.8,3.7,1,4.4
		H44.8L44.8,27.6z"/>
	<path fill="#005098" d="M16.3,17.7l-4.1,10.5l-0.4-2.1C11,23.6,8.7,20.9,6,19.6L9.7,33l4.4,0l6.6-15.3H16.3L16.3,17.7z"/>
	<path fill="#F6A500" d="M8.4,17.7H1.7L1.6,18c5.3,1.3,8.7,4.3,10.2,8L10.3,19C10.1,18,9.3,17.7,8.4,17.7L8.4,17.7z"/>
</g>
</svg>
