<?xml version="1.0" encoding="utf-8"?>
<!-- Generator: Adobe Illustrator 17.1.0, SVG Export Plug-In . SVG Version: 6.00 Build 0)  -->
<!DOCTYPE svg PUBLIC "-//W3C//DTD SVG 1.1//EN" "http://www.w3.org/Graphics/SVG/1.1/DTD/svg11.dtd">
<svg version="1.1" id="Layer_1" xmlns="http://www.w3.org/2000/svg" xmlns:xlink="http://www.w3.org/1999/xlink" x="0px" y="0px"
	 viewBox="0 0 612 792" enable-background="new 0 0 612 792" xml:space="preserve">
<path fill="#FFFFFF" d="M457.4,271.3h-55.2v-56.1c0-55.2-44.2-99.4-99.4-99.4s-98.5,44.2-98.5,99.4v56.1h-55.2
	c-26.7,0-48.8,22.1-48.8,48.8v317.5c0,26.7,22.1,48.8,48.8,48.8h308.3c26.7,0,48.8-22.1,48.8-48.8V320.1
	C506.2,293.4,485,271.3,457.4,271.3z M230.1,215.2c0-40.5,33.1-73.6,73.6-73.6s73.6,33.1,73.6,73.6v56.1H230.1V215.2z M480.4,637.6
	c0,12.9-10.1,23-23,23H149.1c-12.9,0-23-10.1-23-23V320.1c0-12.9,10.1-23,23-23h55.2v30.4c0,7.4,5.5,12.9,12.9,12.9
	c7.4,0,12.9-5.5,12.9-12.9v-30.4h147.2v30.4c0,7.4,5.5,12.9,12.9,12.9c7.4,0,12.9-5.5,12.9-12.9v-30.4h55.2c12.9,0,23,10.1,23,23
	v317.5H480.4z"/>
<text transform="matrix(1 0 0 1 210.0324 605.9383)" fill="#FFFFFF" font-family="'MyriadPro-Regular'" font-size="358.9725">1</text>
</svg>
