<?xml version="1.0" encoding="utf-8"?>
<!-- Generator: Adobe Illustrator 17.1.0, SVG Export Plug-In . SVG Version: 6.00 Build 0)  -->
<!DOCTYPE svg PUBLIC "-//W3C//DTD SVG 1.1//EN" "http://www.w3.org/Graphics/SVG/1.1/DTD/svg11.dtd">
<svg version="1.1" id="Layer_1" xmlns="http://www.w3.org/2000/svg" xmlns:xlink="http://www.w3.org/1999/xlink" x="0px" y="0px"
	 viewBox="0 0 66.5 66.3" enable-background="new 0 0 66.5 66.3" xml:space="preserve">
<path fill="#010101" d="M49.7,19.6h-6v-6.1c0-6-4.8-10.8-10.8-10.8S22.2,7.5,22.2,13.5v6.1h-6c-2.9,0-5.3,2.4-5.3,5.3v34.5
	c0,2.9,2.4,5.3,5.3,5.3h33.5c2.9,0,5.3-2.4,5.3-5.3V24.9C55,22,52.7,19.6,49.7,19.6z M25,13.5c0-4.4,3.6-8,8-8s8,3.6,8,8v6.1H25
	V13.5z M52.2,59.4c0,1.4-1.1,2.5-2.5,2.5H16.2c-1.4,0-2.5-1.1-2.5-2.5V24.9c0-1.4,1.1-2.5,2.5-2.5h6v3.3c0,0.8,0.6,1.4,1.4,1.4
	s1.4-0.6,1.4-1.4v-3.3h16v3.3c0,0.8,0.6,1.4,1.4,1.4c0.8,0,1.4-0.6,1.4-1.4v-3.3h6c1.4,0,2.5,1.1,2.5,2.5V59.4z"/>
<text transform="matrix(1 0 0 1 22.8218 55.962)" font-family="'MyriadPro-Regular'" font-size="39.006">1</text>
</svg>
