<?xml version="1.0" encoding="utf-8"?>
<!-- Generator: Adobe Illustrator 17.1.0, SVG Export Plug-In . SVG Version: 6.00 Build 0)  -->
<!DOCTYPE svg PUBLIC "-//W3C//DTD SVG 1.1//EN" "http://www.w3.org/Graphics/SVG/1.1/DTD/svg11.dtd">
<svg version="1.1" id="Layer_1" xmlns="http://www.w3.org/2000/svg" xmlns:xlink="http://www.w3.org/1999/xlink" x="0px" y="0px"
	 viewBox="0 0 66.5 66.3" enable-background="new 0 0 66.5 66.3" xml:space="preserve">
<g>
	<rect x="28.8" y="10.9" fill="#231F20" width="17.8" height="8.9"/>
	<polygon fill="#231F20" points="19.9,19.8 19.9,55.4 28.8,55.4 28.8,37.6 42.2,37.6 42.2,28.7 28.8,28.7 28.8,19.8 	"/>
	<polygon fill="#F15C62" points="28.8,10.9 19.9,19.8 28.8,19.8 28.8,10.9 	"/>
</g>
<g>
	
		<rect x="202.6" y="466.2" transform="matrix(-0.9992 4.077559e-002 -4.077559e-002 -0.9992 460.6821 941.155)" fill="#231F20" width="36.2" height="18.1"/>
	<polygon fill="#231F20" points="184.9,485.8 187.9,558.1 206,557.3 204.5,521.2 231.7,520.1 230.9,502 203.8,503.1 203,485.1 	"/>
	<polygon fill="#F15C62" points="202.3,467 184.9,485.8 203,485.1 202.3,467 	"/>
</g>
</svg>
