<?xml version="1.0" encoding="utf-8"?>
<!-- Generator: Adobe Illustrator 17.1.0, SVG Export Plug-In . SVG Version: 6.00 Build 0)  -->
<!DOCTYPE svg PUBLIC "-//W3C//DTD SVG 1.1//EN" "http://www.w3.org/Graphics/SVG/1.1/DTD/svg11.dtd">
<svg version="1.1" id="Layer_1" xmlns="http://www.w3.org/2000/svg" xmlns:xlink="http://www.w3.org/1999/xlink" x="0px" y="0px"
	 viewBox="0 0 612 792" enable-background="new 0 0 612 792" xml:space="preserve">
<g>
	
		<rect x="1865.3" y="4381.7" transform="matrix(0.9992 -4.077430e-002 4.077430e-002 0.9992 -180.3662 86.56)" fill="#231F20" width="333.2" height="166.6"/>
	<polygon fill="#231F20" points="1701.6,4561.7 1729.2,5227.1 1895.8,5219.8 1882,4887.5 2132.3,4877.4 2125,4710.8 1875.6,4721 
		1868.2,4555.3 	"/>
	<polygon fill="#F15C62" points="1861.8,4388.7 1701.6,4561.7 1868.2,4555.3 	"/>
</g>
<g>
	<path fill="#FFFFFF" d="M550.4,395c0-56.9-19.3-110.9-54.9-154.4c-0.1-1.6-0.9-3.1-2.5-3.9c-0.4-0.2-0.7-0.2-1.1-0.3
		c-4.2-4.9-8.5-9.7-13.1-14.3c-46.2-46.2-107.5-71.6-172.8-71.6c-65.3,0-126.7,25.4-172.8,71.6c-4.6,4.6-8.9,9.4-13.1,14.3
		c-0.4,0.1-0.8,0.1-1.1,0.3c-1.5,0.8-2.4,2.3-2.5,3.9C81,284.1,61.6,338.1,61.6,395c0,56.9,19.3,110.9,54.9,154.4
		c0.1,1.6,0.9,3.1,2.4,3.9c0.3,0.2,0.7,0.2,1.1,0.3c4.2,4.9,8.5,10.5,13.1,15.1C179.4,614.8,240.7,641,306,641h0h0
		c74.2,0,140.8-34.1,185.6-86.5c0.5-0.1,0.9-0.6,1.4-0.8c1.6-0.8,2.5-2.7,2.5-4.4C529.8,507.2,550.4,453.4,550.4,395z M382.2,485
		c9.7,2.3,18.6,5.1,26.7,8.1c-27.9,83.8-83.3,131.7-89.5,136.8c-2.9,0.2-4.4,0.2-8.4,0.3v-90.2c0-2.5-2.5-4.6-5-4.6s-5,2.1-5,4.6
		v90.2c-4-0.1-5.5-0.1-8.4-0.3c-6.2-5.1-61.7-53-89.6-136.8c7.8-2.9,16.3-5.5,25.6-7.8c2.5-0.6,4-3.1,3.4-5.5
		c-0.6-2.5-3.1-4-5.5-3.4c-9.5,2.3-18.1,3.7-26.1,6.6c-7.6-25.2-12.5-53-12.9-86h40.2c2.5,0,4.6-2,4.6-4.5s-2-4.5-4.6-4.5h-40.2
		c0.5-27,5.4-58.3,12.9-83.5c8.1,3,17,6.3,26.6,8.6c0.4,0.1,0.7,0.4,1.1,0.4c2.1,0,3.9-1.3,4.4-3.3c0.6-2.5-0.9-4.9-3.4-5.5
		c-9.4-2.3-18-4.9-26-7.9c27.9-83.8,83.3-131.6,89.5-136.8c2.9-0.2,4.4-0.2,8.4-0.3v97.2c0,2.5,2.5,4.6,5,4.6s5-2.1,5-4.6v-97.2
		c4,0.1,5.5,0.1,8.4,0.3c6.2,5.1,61.7,53,89.6,136.8c-8.2,3-17.3,5.8-27.1,8.1c-2.5,0.6-4,3.1-3.4,5.5c0.5,2.1,2.4,3.5,4.4,3.5
		c0.4,0,0.7,0,1.1-0.1c10.1-2.4,19.3-6.4,27.7-9.5c7.6,25.2,12.5,56.5,12.9,83.5h-41.4c-2.5,0-4.6,2-4.6,4.5s2,4.5,4.6,4.5h41.4
		c-0.5,33-5.4,60.8-12.9,86c-8.3-3-17.4-5.2-27.4-7.6c-2.5-0.6-4.9,1.2-5.5,3.7S379.7,484.4,382.2,485z M70.9,397h107.3
		c0.5,33,5.6,63.1,13.5,89.3c-42,17.3-62.6,40.6-70.7,52.1C89.5,498.3,71.9,452,70.9,397z M121.1,248.5c8,11.6,28.6,34.8,70.7,52.2
		c-7.9,26.2-13.1,56.4-13.5,87.4H70.9C71.9,338,89.4,288.6,121.1,248.5z M541.1,388H433.8c-0.5-31-5.6-60.6-13.5-86.8
		c42-17.3,62.6-41.8,70.7-53.4C522.5,288,540.1,338,541.1,388z M433.8,397h107.3c-1,55-19.6,103-50.3,141.9
		c-8.1-11.6-28.7-36-70.6-53.3C428.2,459.5,433.3,430,433.8,397z M484.8,242.3c-5.9,9-25,33.6-67.4,51.4
		c-23-68.7-64.1-113.9-83.1-132.1c52.1,6.2,100.3,29.5,138,67.1C476.7,233.1,480.8,237.6,484.8,242.3z M139.7,228.7
		c37.7-37.7,85.9-60.9,138-67.1c-19,18.2-60.1,63.4-83.1,132.1c-42.2-17.7-61.5-42.4-67.4-51.4C131.2,237.6,135.3,233.1,139.7,228.7
		z M127.2,547.8c5.9-9,25.1-33.6,67.4-51.4c23,68.7,64.1,113.9,83.1,132.1c-52.1-6.2-100.3-29.5-138-67.1
		C135.3,557,131.2,552.4,127.2,547.8z M334.4,628.4c19-18.2,60-63.4,83.1-132c42.1,17.7,61.3,42.2,67.3,51.3
		C447.4,591.4,394.3,621.2,334.4,628.4z"/>
	<rect x="288.1" y="306.3" fill="#FFFFFF" width="71.5" height="35.8"/>
	<polygon fill="#FFFFFF" points="252.3,342.1 252.3,485 288.1,485 288.1,413.6 341.9,413.6 341.9,377.8 288.1,377.8 288.1,342.1 	
		"/>
	<polygon fill="#F05B61" points="288.1,306.3 252.3,342.1 288.2,342.1 288.2,306.3 	"/>
</g>
</svg>
