<?xml version="1.0" encoding="utf-8"?>
<!-- Generator: Adobe Illustrator 17.1.0, SVG Export Plug-In . SVG Version: 6.00 Build 0)  -->
<!DOCTYPE svg PUBLIC "-//W3C//DTD SVG 1.1//EN" "http://www.w3.org/Graphics/SVG/1.1/DTD/svg11.dtd">
<svg version="1.1" id="Layer_1" xmlns="http://www.w3.org/2000/svg" xmlns:xlink="http://www.w3.org/1999/xlink" x="0px" y="0px"
	 viewBox="0 0 612 792" enable-background="new 0 0 612 792" xml:space="preserve">
<path fill="#FFFFFF" d="M595.4,493.1c0-0.9,0.9-0.9,0.9-1.8v-0.9c0-0.9,0.9-0.9,0.9-1.8c0,0,0-0.9,0-1.8c0-0.9,0-1.8,0-1.8l0,0
	c0-0.9,0-0.9,0-0.9c0-0.9,0-0.9,0-1.8L550.3,183c-0.9-4.6-3.7-9.2-7.4-12c-4.6-2.8-9.2-3.7-13.8-2.8l-47.9,12
	c-9.2,2.8-15.6,12-12.9,21.2c2.8,9.2,12,15.6,21.2,12.9l28.5-7.4l32.2,202.5c-23-31.3-59.8-51.5-101.2-51.5
	c-46,0-85.6,24.8-107.7,61.7c-9.2-8.3-22.1-13.8-35.9-13.8s-25.8,5.5-35.9,13.8c-22.1-36.8-61.7-61.7-107.7-61.7
	c-41.4,0-78.2,20.2-101.2,52.5L93,206.9l28.5,7.4c9.2,2.8,19.3-3.7,21.2-12.9c2.8-9.2-3.7-19.3-12.9-21.2l-46-11
	c-5.5-1.8-10.1-0.9-14.7,1.8c-3.7,2.8-6.4,7.4-7.4,12L13.8,481.1c-0.9,5.5,0.9,11,3.7,14.7s8.3,6.4,13.8,6.4h7.4
	C46.9,563,99.4,610,162.9,610c69,0,125.2-56.1,125.2-125.2c0-5.5-0.9-12-0.9-17.5c0.9-1.8,0.9-4.6,0.9-6.4
	c0-10.1,8.3-17.5,17.5-17.5s17.5,8.3,17.5,17.5c0,2.8,0.9,4.6,0.9,6.4c-0.9,5.5-0.9,11-0.9,17.5c0,69,56.1,125.2,125.2,125.2
	c62.6,0,115-46.9,124.2-107.7h7.4l0,0c0.9,0,1.8,0,2.8,0c0,0,0,0,0.9,0h0.9c0.9,0,1.8,0,1.8-0.9c0,0,0.9,0,0.9-0.9
	c0.9,0,1.8-0.9,1.8-0.9s0.9,0,0.9-0.9c0.9-0.9,0.9-0.9,1.8-1.8l0.9-0.9c0.9-0.9,0.9-0.9,1.8-1.8C595.4,494,595.4,494,595.4,493.1z
	 M162.9,574.1c-49.7,0-89.3-40.5-89.3-89.3c0-49.7,40.5-89.3,89.3-89.3s89.3,40.5,89.3,89.3C252.2,533.6,212.6,574.1,162.9,574.1z
	 M449.1,574.1c-49.7,0-89.3-40.5-89.3-89.3c0-49.7,40.5-89.3,89.3-89.3s89.3,40.5,89.3,89.3S498.8,574.1,449.1,574.1z"/>
</svg>
