<?xml version="1.0" encoding="utf-8"?>
<!-- Generator: Adobe Illustrator 17.1.0, SVG Export Plug-In . SVG Version: 6.00 Build 0)  -->
<!DOCTYPE svg PUBLIC "-//W3C//DTD SVG 1.1//EN" "http://www.w3.org/Graphics/SVG/1.1/DTD/svg11.dtd">
<svg version="1.1" id="Layer_1" xmlns="http://www.w3.org/2000/svg" xmlns:xlink="http://www.w3.org/1999/xlink" x="0px" y="0px"
	 viewBox="0 0 66.5 66.3" enable-background="new 0 0 66.5 66.3" xml:space="preserve">
<path d="M64.7,43.7c0-0.1,0.1-0.1,0.1-0.2c0,0,0-0.1,0-0.1c0-0.1,0.1-0.1,0.1-0.2c0,0,0-0.1,0-0.2c0-0.1,0-0.2,0-0.2c0,0,0,0,0,0
	c0-0.1,0-0.1,0-0.1c0-0.1,0-0.1,0-0.2L59.8,10c-0.1-0.5-0.4-1-0.8-1.3c-0.5-0.3-1-0.4-1.5-0.3l-5.2,1.3c-1,0.3-1.7,1.3-1.4,2.3
	c0.3,1,1.3,1.7,2.3,1.4l3.1-0.8l3.5,22c-2.5-3.4-6.5-5.6-11-5.6c-5,0-9.3,2.7-11.7,6.7c-1-0.9-2.4-1.5-3.9-1.5
	c-1.5,0-2.8,0.6-3.9,1.5c-2.4-4-6.7-6.7-11.7-6.7c-4.5,0-8.5,2.2-11,5.7l3.5-22.1l3.1,0.8c1,0.3,2.1-0.4,2.3-1.4
	c0.3-1-0.4-2.1-1.4-2.3L9.1,8.5C8.5,8.3,8,8.4,7.5,8.7C7.1,9,6.8,9.5,6.7,10L1.5,42.4C1.4,43,1.6,43.6,1.9,44s0.9,0.7,1.5,0.7h0.8
	c0.9,6.6,6.6,11.7,13.5,11.7c7.5,0,13.6-6.1,13.6-13.6c0-0.6-0.1-1.3-0.1-1.9c0.1-0.2,0.1-0.5,0.1-0.7c0-1.1,0.9-1.9,1.9-1.9
	s1.9,0.9,1.9,1.9c0,0.3,0.1,0.5,0.1,0.7c-0.1,0.6-0.1,1.2-0.1,1.9c0,7.5,6.1,13.6,13.6,13.6c6.8,0,12.5-5.1,13.5-11.7H63
	c0,0,0,0,0,0c0.1,0,0.2,0,0.3,0c0,0,0,0,0.1,0c0,0,0.1,0,0.1,0c0.1,0,0.2,0,0.2-0.1c0,0,0.1,0,0.1-0.1c0.1,0,0.2-0.1,0.2-0.1
	c0,0,0.1,0,0.1-0.1c0.1-0.1,0.1-0.1,0.2-0.2c0,0,0.1-0.1,0.1-0.1c0.1-0.1,0.1-0.1,0.2-0.2C64.7,43.8,64.7,43.8,64.7,43.7z
	 M17.7,52.5c-5.4,0-9.7-4.4-9.7-9.7c0-5.4,4.4-9.7,9.7-9.7s9.7,4.4,9.7,9.7C27.4,48.1,23.1,52.5,17.7,52.5z M48.8,52.5
	c-5.4,0-9.7-4.4-9.7-9.7c0-5.4,4.4-9.7,9.7-9.7s9.7,4.4,9.7,9.7C58.5,48.1,54.2,52.5,48.8,52.5z"/>
</svg>
