<?xml version="1.0" encoding="utf-8"?>
<!-- Generator: Adobe Illustrator 18.1.0, SVG Export Plug-In . SVG Version: 6.00 Build 0)  -->
<svg version="1.1" id="Layer_1" xmlns="http://www.w3.org/2000/svg" xmlns:xlink="http://www.w3.org/1999/xlink" x="0px" y="0px"
	 viewBox="-238 388 134.8 18" enable-background="new -238 388 134.8 18" xml:space="preserve">
<g>
	<polygon fill="#222222" points="-227.2,388 -234.4,388 -234.4,391.6 -227.2,391.6 	"/>
	<polygon fill="#FFFFFF" points="-238,391.6 -238,406 -234.4,406 -234.4,398.8 -229,398.8 -229,395.2 -234.4,395.2 -234.4,391.6 	
		"/>
	<polygon fill="#F0515A" points="-234.4,388 -234.4,391.6 -238,391.6 	"/>
	<polygon fill="#FFFFFF" points="-183.4,391.6 -183.4,406 -179.8,406 -179.8,398.8 -174.4,398.8 -174.4,395.2 -179.8,395.2 
		-179.8,391.6 	"/>
	<polygon fill="#E9C6A7" points="-213.5,388 -213.5,391.6 -209.9,391.6 	"/>
	<polygon fill="#FFFFFF" points="-213.5,391.6 -213.5,395.2 -217.1,395.2 -217.1,391.6 -217.1,391.6 -213.5,391.6 -213.5,388 
		-217.1,388 -217.1,388 -220.7,391.6 -220.7,406 -217.1,406 -217.1,398.8 -213.5,398.8 -213.5,406 -209.9,406 -209.9,391.6 	"/>
	<polygon fill="#FFFFFF" points="-114,388 -114,406 -110.4,406 -110.4,398.8 -106.8,398.8 -106.8,406 -103.2,406 -103.2,388 
		-106.8,388 -106.8,395.2 -110.4,395.2 -110.4,388 -110.4,388 	"/>
	<polygon fill="#FFFFFF" points="-198.5,395.2 -198.5,391.6 -194.8,391.6 -194.8,391.6 -194.8,395.2 -191.2,395.2 -191.2,391.6 
		-191.2,391.6 -194.8,388 -194.8,388 -202.1,388 -202.1,406 -198.5,406 -198.5,398.8 -194.8,398.8 -194.8,398.8 -194.8,398.8 
		-194.8,406 -191.2,406 -191.2,398.8 -194.8,395.2 	"/>
	<polygon fill="#F0515A" points="-172.6,388 -179.8,388 -183.4,391.6 -179.8,391.6 -179.8,391.6 -172.6,391.6 	"/>
	<polygon fill="#FFFFFF" points="-137.8,388 -148.6,388 -148.6,391.6 -145,391.6 -145,406 -141.4,406 -141.4,391.6 -137.8,391.6 	
		"/>
	<polygon fill="#E9C6A7" points="-120.4,406 -127.6,406 -127.6,406 -131.2,402.4 -127.6,402.4 -127.6,402.4 -120.4,402.4 	"/>
	<polygon fill="#FFFFFF" points="-163,402.4 -163,402.4 -163,402.4 -163,398.8 -157.6,398.8 -157.6,395.2 -163,395.2 -163,391.6 
		-163,391.6 -163,391.6 -155.8,391.6 -155.8,388 -163,388 -163,388 -166.6,391.6 -166.6,391.6 -166.6,402.4 -166.6,402.4 -163,406 
		-163,406 -155.8,406 -155.8,402.4 	"/>
	<polygon fill="#FFFFFF" points="-127.6,388 -127.6,388 -131.2,391.6 -131.2,402.4 -127.6,402.4 -127.6,391.6 -120.4,391.6 
		-120.4,388 	"/>
</g>
</svg>
