<?xml version="1.0" encoding="utf-8"?>
<!-- Generator: Adobe Illustrator 18.1.0, SVG Export Plug-In . SVG Version: 6.00 Build 0)  -->
<svg version="1.1" id="Layer_1" xmlns="http://www.w3.org/2000/svg" xmlns:xlink="http://www.w3.org/1999/xlink" x="0px" y="0px"
	 viewBox="132.3 358.5 367.2 49" enable-background="new 132.3 358.5 367.2 49" xml:space="preserve">
<g>
	<polygon fill="#FFFFFF" points="161.7,358.5 142.1,358.5 142.1,368.3 161.7,368.3 	"/>
	<polygon fill="#FFFFFF" points="132.3,368.3 132.3,407.5 142.1,407.5 142.1,387.9 156.8,387.9 156.8,378.1 142.1,378.1 
		142.1,368.3 	"/>
	<polygon fill="#F0515A" points="142.1,358.5 142.1,368.3 132.3,368.3 	"/>
	<polygon fill="#FFFFFF" points="281,368.3 281,407.5 290.8,407.5 290.8,387.9 305.5,387.9 305.5,378.1 290.8,378.1 290.8,368.3 	
		"/>
	<polygon fill="#E9C6A7" points="199,358.5 199,368.3 208.8,368.3 	"/>
	<polygon fill="#FFFFFF" points="199,368.3 199,378.1 189.2,378.1 189.2,368.3 189.2,368.3 199,368.3 199,358.5 189.2,358.5 
		189.2,358.5 179.4,368.3 179.4,407.5 189.2,407.5 189.2,387.9 199,387.9 199,407.5 208.8,407.5 208.8,368.3 	"/>
	<polygon fill="#FFFFFF" points="470.1,358.5 470.1,407.5 479.9,407.5 479.9,387.9 489.7,387.9 489.7,407.5 499.5,407.5 
		499.5,358.5 489.7,358.5 489.7,378.1 479.9,378.1 479.9,358.5 479.9,358.5 	"/>
	<polygon fill="#FFFFFF" points="239.9,378.1 239.9,368.3 250,368.3 250,368.3 250,378.1 259.8,378.1 259.8,368.3 259.8,368.3 
		250,358.5 250,358.5 230.1,358.5 230.1,407.5 239.9,407.5 239.9,387.9 250,387.9 250,387.9 250,387.9 250,407.5 259.8,407.5 
		259.8,387.9 250,378.1 	"/>
	<polygon fill="#F0515A" points="310.4,358.5 290.8,358.5 281,368.3 290.8,368.3 290.8,368.3 310.4,368.3 	"/>
	<polygon fill="#FFFFFF" points="405.2,358.5 375.8,358.5 375.8,368.3 385.6,368.3 385.6,407.5 395.4,407.5 395.4,368.3 
		405.2,368.3 	"/>
	<polygon fill="#E9C6A7" points="452.6,407.5 433,407.5 433,407.5 423.2,397.7 433,397.7 433,397.7 452.6,397.7 	"/>
	<polygon fill="#FFFFFF" points="336.6,397.7 336.6,397.7 336.6,397.7 336.6,387.9 351.3,387.9 351.3,378.1 336.6,378.1 
		336.6,368.3 336.6,368.3 336.6,368.3 356.2,368.3 356.2,358.5 336.6,358.5 336.6,358.5 326.8,368.3 326.8,368.3 326.8,397.7 
		326.8,397.7 336.6,407.5 336.6,407.5 356.2,407.5 356.2,397.7 	"/>
	<polygon fill="#FFFFFF" points="433,358.5 433,358.5 423.2,368.3 423.2,397.7 433,397.7 433,368.3 452.6,368.3 452.6,358.5 	"/>
</g>
</svg>
