<?xml version="1.0" encoding="utf-8"?>
<!-- Generator: Adobe Illustrator 17.1.0, SVG Export Plug-In . SVG Version: 6.00 Build 0)  -->
<!DOCTYPE svg PUBLIC "-//W3C//DTD SVG 1.1//EN" "http://www.w3.org/Graphics/SVG/1.1/DTD/svg11.dtd">
<svg version="1.1" id="Layer_1" xmlns="http://www.w3.org/2000/svg" xmlns:xlink="http://www.w3.org/1999/xlink" x="0px" y="0px"
	 viewBox="0 0 66.5 66.3" enable-background="new 0 0 66.5 66.3" xml:space="preserve">
<g>
	<path d="M60.4,19.6c0-1.7-1.3-3.3-3.5-3.3h-16c-0.8,0-1.5,0.7-1.5,1.5s0.7,1.5,1.5,1.5h16c0.5,0,0.5,0.2,0.5,0.3L57.6,62
		c-0.1,0.1-0.4,0.4-0.8,0.4H10.2c-0.4,0-0.3-0.7-1.3-0.8V19.3c0,0,0.5,0.1,1,0.1h16c0.8,0,1.5-0.7,1.5-1.5s-0.7-1.5-1.5-1.5h-16
		c-2.2,0-4,1.2-4,2.9v42.4c0,1.8,2.2,3.7,4.3,3.7h46.5c2.1,0,3.8-1.5,3.8-3.3L60.4,19.6z"/>
	<path d="M23.3,13.4c0.4,0,1-0.1,1.3-0.4l7.3-7.1v27c0,0.8,0.7,1.5,1.5,1.5s1.5-0.7,1.5-1.5V5.9l6.8,7.1c0.3,0.3,0.6,0.4,1,0.4
		s0.7-0.1,1-0.4c0.6-0.6,0.6-1.5,0-2.1l-9.5-9.5C33.8,1,33.4,0.9,33,0.9c-0.4,0-0.9,0.1-1.2,0.4l-9.5,9.5c-0.6,0.6-0.6,1.5,0,2.1
		C22.5,13.3,22.9,13.4,23.3,13.4z"/>
</g>
</svg>
