<?xml version="1.0" encoding="utf-8"?>
<!-- Generator: Adobe Illustrator 17.1.0, SVG Export Plug-In . SVG Version: 6.00 Build 0)  -->
<!DOCTYPE svg PUBLIC "-//W3C//DTD SVG 1.1//EN" "http://www.w3.org/Graphics/SVG/1.1/DTD/svg11.dtd">
<svg version="1.1" id="Layer_1" xmlns="http://www.w3.org/2000/svg" xmlns:xlink="http://www.w3.org/1999/xlink" x="0px" y="0px"
	 viewBox="0 0 612 792" enable-background="new 0 0 612 792" xml:space="preserve">
<g>
	<path fill="#FFFFFF" d="M555.9,271.3c0-15.6-12-30.4-32.2-30.4H376.4c-7.4,0-13.8,6.4-13.8,13.8c0,7.4,6.4,13.8,13.8,13.8h147.2
		c4.6,0,4.6,1.8,4.6,2.8l1.8,390.2c-0.9,0.9-3.7,3.7-7.4,3.7H93.9c-3.7,0-2.8-6.4-12-7.4V268.5c0,0,4.6,0.9,9.2,0.9h147.2
		c7.4,0,13.8-6.4,13.8-13.8c0-7.4-6.4-13.8-13.8-13.8H91.1c-20.2,0-36.8,11-36.8,26.7v390.2c0,16.6,20.2,34.1,39.6,34.1h427.9
		c19.3,0,35-13.8,35-30.4L555.9,271.3z"/>
	<path fill="#FFFFFF" d="M214.4,214.2c3.7,0,9.2-0.9,12-3.7l67.2-65.3v248.5c0,7.4,6.4,13.8,13.8,13.8s13.8-6.4,13.8-13.8V145.2
		l62.6,65.3c2.8,2.8,5.5,3.7,9.2,3.7c3.7,0,6.4-0.9,9.2-3.7c5.5-5.5,5.5-13.8,0-19.3l-87.4-87.4c-3.7-3.7-7.4-4.6-11-4.6
		s-8.3,0.9-11,3.7l-87.4,87.4c-5.5,5.5-5.5,13.8,0,19.3C207.1,213.3,210.7,214.2,214.4,214.2z"/>
</g>
</svg>
