<?xml version="1.0" encoding="utf-8"?>
<!-- Generator: Adobe Illustrator 18.1.0, SVG Export Plug-In . SVG Version: 6.00 Build 0)  -->
<svg version="1.1" id="Layer_1" xmlns="http://www.w3.org/2000/svg" xmlns:xlink="http://www.w3.org/1999/xlink" x="0px" y="0px"
	 viewBox="159 230.1 347 276.5" enable-background="new 159 230.1 347 276.5" xml:space="preserve">
<g id="Layer_7_2_">
	<path fill="#AAAAAB" d="M456.1,334c0-2-3.9-3.9-5.9-3.9h-100L318.8,234c0-2-3.9-3.9-5.9-3.9c-3.9,0-5.9,2-5.9,3.9l-31.4,96.1h-100
		c-3.9,0-5.9,2-5.9,3.9c0,2,0,5.9,2,7.8l82.4,58.8l-31.5,96.2c0,2,0,5.9,2,7.8c2,2,5.9,2,7.8,0l82.4-58.8l82.4,58.8
		c1.6,0.9,1.2,2,3.9,2c2,0,2,0,3.9-2c1.5-1.5-2-6.9-2-7.8l-31.4-96.1l82.4-58.8C456.1,339.9,456.1,337.9,456.1,334z"/>
</g>
</svg>
