<?xml version="1.0" encoding="utf-8"?>
<!-- Generator: Adobe Illustrator 17.1.0, SVG Export Plug-In . SVG Version: 6.00 Build 0)  -->
<!DOCTYPE svg PUBLIC "-//W3C//DTD SVG 1.1//EN" "http://www.w3.org/Graphics/SVG/1.1/DTD/svg11.dtd">
<svg version="1.1" id="Layer_1" xmlns="http://www.w3.org/2000/svg" xmlns:xlink="http://www.w3.org/1999/xlink" x="0px" y="0px"
	 viewBox="0 0 66.5 66.3" enable-background="new 0 0 66.5 66.3" xml:space="preserve">
<path d="M65.3,21l-5.9-10.4c-0.2-0.4-0.8-0.9-1.3-0.9H9.7c-0.4,0-0.9,0.4-1.1,0.8L1.2,20.7c-0.2,0.2-0.5,0.6-0.5,0.9V23
	c0,3.3,3.6,5.5,5.4,6.1v23.5c0,2.3,2.1,4,4.3,4h47c2.2,0,3.8-1.7,3.8-4V28.8c2.7-0.9,4.5-3.1,4.5-5.8v-1.4
	C65.7,21.4,65.5,21.2,65.3,21z M58.5,52.6c0,0.8-0.4,1.3-1.1,1.3h-47c-0.7,0-1.6-0.5-1.6-1.3V29.1c0.9-0.1,1.4-0.4,2-0.8l0.7,18.7
	c0,2.3,1.9,4.1,4.1,4.1h36.5c2.2,0,4-1.8,4-4.1l0.3-18.3c0.6,0.3,1.2,0.5,2.1,0.5V52.6z M13.7,27.4c1.2,1.2,2.8,1.9,4.5,1.9
	c2.1,0,4-1.1,5.2-2.7c1.2,1.6,3.1,2.7,5.2,2.7s4-1.1,5.2-2.7c1.2,1.6,3.1,2.7,5.2,2.7s4-1.1,5.2-2.7c1.2,1.6,3.1,2.7,5.2,2.7
	c1.6,0,3.1-0.6,4.2-1.6l-0.4,19.4c0,0.8-0.6,1.4-1.3,1.4H15.7c-0.7,0-1.3-0.6-1.3-1.5L13.7,27.4z M63,23c0,2.5-2.2,3.6-4.1,3.6
	c-0.6,0-2.7,0-2.7-4.1c0-0.7-0.7-1.4-1.4-1.4c-0.7,0-1.4,0.6-1.4,1.4c0,2.3-1.8,4.1-3.9,4.1s-3.9-1.9-3.9-4.1c0-0.7-0.6-1.4-1.4-1.4
	S43,21.7,43,22.5c0,2.3-1.7,4.1-3.9,4.1s-3.9-1.9-3.9-4.1c0-0.7-0.6-1.4-1.4-1.4s-1.4,0.6-1.4,1.4c0,2.3-1.7,4.1-3.9,4.1
	s-3.9-1.9-3.9-4.1c0-0.7-0.6-1.4-1.4-1.4s-1.4,0.6-1.4,1.4c0,2.3-1.7,4.1-3.9,4.1s-3.9-1.9-3.9-4.1c0-0.7-0.6-1.4-1.4-1.4
	s-1.4,0.6-1.4,1.4c0,2.3-2,4.1-4.1,4.1c-1.5,0-4.1-1.4-4.1-3.6v-0.9l7-9.7h46.9L63,22V23z"/>
</svg>
