<?xml version="1.0" encoding="utf-8"?>
<!-- Generator: Adobe Illustrator 17.1.0, SVG Export Plug-In . SVG Version: 6.00 Build 0)  -->
<!DOCTYPE svg PUBLIC "-//W3C//DTD SVG 1.1//EN" "http://www.w3.org/Graphics/SVG/1.1/DTD/svg11.dtd">
<svg version="1.1" id="Layer_1" xmlns="http://www.w3.org/2000/svg" xmlns:xlink="http://www.w3.org/1999/xlink" x="0px" y="0px"
	 viewBox="0 0 612 792" enable-background="new 0 0 612 792" xml:space="preserve">
<path fill="#FFFFFF" d="M601,284.2l-54.3-95.7c-1.8-3.7-7.4-8.3-12-8.3H89.3c-3.7,0-8.3,3.7-10.1,7.4L11,281.4
	c-1.8,1.8-4.6,5.5-4.6,8.3v12.9c0,30.4,33.1,50.6,49.7,56.1V575c0,21.2,19.3,36.8,39.6,36.8h432.5c20.2,0,35-15.6,35-36.8V356
	c24.8-8.3,41.4-28.5,41.4-53.4v-12.9C604.6,287.9,602.8,286,601,284.2z M538.4,575c0,7.4-3.7,12-10.1,12H95.7
	c-6.4,0-14.7-4.6-14.7-12V358.7c8.3-0.9,12.9-3.7,18.4-7.4l6.4,172.1c0,21.2,17.5,37.7,37.7,37.7h335.9c20.2,0,36.8-16.6,36.8-37.7
	L519,355c5.5,2.8,11,4.6,19.3,4.6L538.4,575L538.4,575z M126.1,343.1c11,11,25.8,17.5,41.4,17.5c19.3,0,36.8-10.1,47.9-24.8
	c11,14.7,28.5,24.8,47.9,24.8c19.3,0,36.8-10.1,47.9-24.8c11,14.7,28.5,24.8,47.9,24.8c19.3,0,36.8-10.1,47.9-24.8
	c11,14.7,28.5,24.8,47.9,24.8c14.7,0,28.5-5.5,38.7-14.7l-3.7,178.5c0,7.4-5.5,12.9-12,12.9H144.5c-6.4,0-12-5.5-12-13.8
	L126.1,343.1z M579.8,302.6c0,23-20.2,33.1-37.7,33.1c-5.5,0-24.8,0-24.8-37.7c0-6.4-6.4-12.9-12.9-12.9c-6.4,0-12.9,5.5-12.9,12.9
	c0,21.2-16.6,37.7-35.9,37.7c-19.3,0-35.9-17.5-35.9-37.7c0-6.4-5.5-12.9-12.9-12.9c-7.4,0-11,5.5-11,12.9
	c0,21.2-15.6,37.7-35.9,37.7s-35.9-17.5-35.9-37.7c0-6.4-5.5-12.9-12.9-12.9s-12.9,5.5-12.9,12.9c0,21.2-15.6,37.7-35.9,37.7
	s-35.9-17.5-35.9-37.7c0-6.4-5.5-12.9-12.9-12.9s-12.9,5.5-12.9,12.9c0,21.2-15.6,37.7-35.9,37.7s-35.9-17.5-35.9-37.7
	c0-6.4-5.5-12.9-12.9-12.9c-7.4,0-12.9,5.5-12.9,12.9c0,21.2-18.4,37.7-37.7,37.7c-13.8,0-37.7-12.9-37.7-33.1v-8.3L92,205h431.6
	l56.1,88.3V302.6z"/>
</svg>
