<?xml version="1.0" encoding="utf-8"?>
<!-- Generator: Adobe Illustrator 17.1.0, SVG Export Plug-In . SVG Version: 6.00 Build 0)  -->
<!DOCTYPE svg PUBLIC "-//W3C//DTD SVG 1.1//EN" "http://www.w3.org/Graphics/SVG/1.1/DTD/svg11.dtd">
<svg version="1.1" id="Layer_1" xmlns="http://www.w3.org/2000/svg" xmlns:xlink="http://www.w3.org/1999/xlink" x="0px" y="0px"
	 viewBox="0 0 15 15" enable-background="new 0 0 15 15" xml:space="preserve">
<g id="Layer_7">
	<path fill="#222222" d="M15,5.8c0-0.1-0.2-0.2-0.3-0.2H9.4L7.8,0.6c0-0.1-0.2-0.2-0.3-0.2S7.2,0.5,7.2,0.6L5.6,5.5H0.4
		C0.2,5.5,0.1,5.6,0,5.8c0,0.1,0,0.3,0.1,0.4l4.2,3l-1.6,4.9c0,0.1,0,0.3,0.1,0.4c0.1,0.1,0.3,0.1,0.4,0l4.2-3.1l4.2,3.1
		c0.1,0,0.1,0.1,0.2,0.1s0.1,0,0.2-0.1c0.1-0.1,0.2-0.3,0.1-0.4l-1.6-4.9l4.2-3C15,6.1,15,5.9,15,5.8z"/>
</g>
</svg>
