<?xml version="1.0" encoding="utf-8"?>
<!-- Generator: Adobe Illustrator 17.1.0, SVG Export Plug-In . SVG Version: 6.00 Build 0)  -->
<!DOCTYPE svg PUBLIC "-//W3C//DTD SVG 1.1//EN" "http://www.w3.org/Graphics/SVG/1.1/DTD/svg11.dtd">
<svg version="1.1" id="Layer_1" xmlns="http://www.w3.org/2000/svg" xmlns:xlink="http://www.w3.org/1999/xlink" x="0px" y="0px"
	 viewBox="24.8 -0.4 31.2 14.8" enable-background="new 24.8 -0.4 31.2 14.8" xml:space="preserve">
<g id="Layer_7">
	<path fill="#222222" d="M39.7,5.5c0-0.1-0.2-0.2-0.3-0.2h-5.1l-1.6-4.9c0-0.1-0.2-0.2-0.3-0.2c-0.2,0-0.3,0.1-0.3,0.2l-1.6,4.9
		h-5.1c-0.2,0-0.3,0.1-0.3,0.2c0,0.1,0,0.3,0.1,0.4l4.2,3l-1.6,4.9c0,0.1,0,0.3,0.1,0.4s0.3,0.1,0.4,0l4.2-3l4.2,3
		c0.1,0,0.1,0.1,0.2,0.1c0.1,0,0.1,0,0.2-0.1c0.1-0.1,0.2-0.3,0.1-0.4l-1.6-4.9l4.2-3C39.7,5.8,39.7,5.6,39.7,5.5z"/>
</g>
</svg>
