<?xml version="1.0" encoding="utf-8"?>
<!-- Generator: Adobe Illustrator 18.0.0, SVG Export Plug-In . SVG Version: 6.00 Build 0)  -->
<!DOCTYPE svg PUBLIC "-//W3C//DTD SVG 1.1//EN" "http://www.w3.org/Graphics/SVG/1.1/DTD/svg11.dtd">
<svg version="1.1" id="Layer_1" xmlns="http://www.w3.org/2000/svg" xmlns:xlink="http://www.w3.org/1999/xlink" x="0px" y="0px"
	 viewBox="43 266 520 200" enable-background="new 43 266 520 200" xml:space="preserve">
<g id="Icons" display="none">
	<g display="inline">
		<path fill="#222222" d="M313.5,147.7C175,147.7,62.3,260.4,62.3,398.9S175,650,313.5,650s251.2-112.7,251.2-251.2
			S452,147.7,313.5,147.7z"/>
		<path fill="#FFFFFF" d="M313.5,619.4c-121.7,0-220.6-99.1-220.6-220.6s98.8-220.8,220.6-220.8s220.6,99.1,220.6,220.6
			S435,619.4,313.5,619.4z"/>
		<path id="Shopping_Bag" display="none" fill="#222222" d="M425.5,342.5h-73.7v-32.6c0-6.4-1.3-12.3-3.5-17.8
			c-2.4-5.5-5.7-10.6-9.9-14.7c-4.2-4.2-9.2-7.5-14.7-9.9c-5.5-2.4-11.7-3.5-17.8-3.5c-6.4,0-12.3,1.3-17.8,3.5
			c-5.5,2.4-10.6,5.7-14.7,9.9c-4.2,4.2-7.5,9.2-9.9,14.7c-2.4,5.5-3.5,11.7-3.5,17.8v32.6h-74c-0.9,0-1.8,0.2-2.6,0.4
			c-0.9,0.4-1.5,0.9-2.2,1.5c-0.7,0.7-1.1,1.3-1.5,2.2c-0.4,0.9-0.4,1.8-0.4,2.6v149c0,0.9,0.2,1.8,0.4,2.6c0.4,0.9,0.9,1.5,1.5,2.2
			c0.7,0.7,1.3,1.1,2.2,1.5c0.9,0.4,1.8,0.4,2.6,0.4l59.9,8.6h119.8l59.9-8.6c0.9,0,1.8-0.2,2.6-0.4c0.9-0.4,1.5-0.9,2.2-1.5
			c0.7-0.7,1.1-1.3,1.5-2.2s0.4-1.8,0.4-2.6v-149c0-0.9-0.2-1.8-0.4-2.6c-0.4-0.9-0.9-1.5-1.5-2.2c-0.7-0.7-1.3-1.1-2.2-1.5
			C427.3,342.5,426.4,342.5,425.5,342.5z M273.2,309.9c0-9,3.7-17.2,9.5-23.1c5.9-5.9,14.1-9.5,23.1-9.5s17.2,3.7,23.1,9.5
			c5.9,5.9,9.5,14.1,9.5,23.1v16.3v16.3h-32.6h-32.6v-16.3L273.2,309.9L273.2,309.9z"/>
	</g>
</g>
<g id="Layer_2" display="none">
	<path id="Explore" display="inline" fill="#222222" d="M311.9,148.6c-137.8,0-249.6,111.8-249.6,249.6s112.1,249.6,249.6,249.6
		s249.6-112.1,249.6-249.6S449.5,148.6,311.9,148.6z M311.9,617.5c-120.9,0-219.3-98.4-219.3-219.3s98.4-219.3,219.3-219.3
		s219.3,98.4,219.3,219.3S432.8,617.5,311.9,617.5z M277.2,348.9L161.4,506.5l186.2-59.7v0.2l115.8-157.6L277.2,348.9L277.2,348.9z
		 M312.4,366.1c17.6,0,31.9,14.3,31.9,31.9s-14.3,31.9-31.9,31.9s-31.9-14.3-31.9-31.9S294.8,366.1,312.4,366.1z"/>
</g>
<g id="Layer_3" display="none">
	<path id="Directions" display="inline" fill="#222222" d="M444.9,318.5c-0.2-2.6-1.5-4.8-3.7-6.6l0,0l-33.9-26.2
		c-4.4-3.3-10.6-2.6-14.1,1.8c-3.3,4.4-2.6,10.6,1.8,14.1l14.7,11.4c-60.5,6.2-88.5,50.4-101,94.4c-13.2-46.5-43.6-93.8-112.1-95.3
		c-5.3-0.2-10.1,4.2-10.1,9.7c-0.2,5.5,4.2,10.1,9.7,10.1c85.2,1.8,100.8,89.4,102.6,142.7c0,0.7,0,1.3,0,2l0,0v70.7
		c0,4.4,4.4,7.9,9.9,7.9s9.9-3.5,9.9-7.9v-71.3v-0.2c0-0.2,0-0.7,0-0.9c1.5-51.7,16.5-134.5,94-142l-11.9,14.7
		c-3.3,4.4-2.6,10.6,1.8,14.1c4.4,3.3,10.6,2.6,14.1-1.8l26.2-33.9l0,0C444.5,323.8,445.1,321.2,444.9,318.5z M420.9,321.6
		L420.9,321.6L420.9,321.6L420.9,321.6z"/>
</g>
<g id="Layer_4" display="none">
	<path id="Wishlist" display="inline" fill="#222222" d="M457.2,359.5c-0.9-2.9-3.5-4.8-6.6-4.8h-99.7l-30.8-94.9
		c-0.9-2.9-3.5-4.8-6.6-4.8s-5.7,2-6.6,4.8l-30.8,94.9h-99.9c-3.1,0-5.7,2-6.6,4.8c-0.9,2.9,0,5.9,2.4,7.7l80.8,58.8l-30.8,94.9
		c-0.9,2.9,0,5.9,2.4,7.7c2.4,1.8,5.7,1.8,8.1,0l80.8-58.8l80.8,58.8c1.1,0.9,2.6,1.3,4,1.3c1.3,0,2.9-0.4,4-1.3
		c2.4-1.8,3.5-4.8,2.4-7.7l-30.8-94.9l80.8-58.8C457,365.4,458.1,362.3,457.2,359.5z"/>
</g>
<g id="Layer_5">
	<g>
		<path fill="#A6A6A6" d="M538.1,440.7H68.5c-9.7,0-17.6-7.5-17.6-17.4V309.1c0-9.7,7.9-18.1,17.6-18.1h469.6c9.7,0,17,8.4,17,18.1
			v114.3c0,9.7-7.5,17.6-17.2,17.6L538.1,440.7z"/>
		<path d="M552.4,423.3c0,7.9-6.4,14.3-14.3,14.3H68.5c-7.9,0-14.3-6.4-14.3-14.3V309.1c0-7.9,6.4-14.3,14.3-14.3h469.6
			c7.9,0,14.3,6.4,14.3,14.3V423.3L552.4,423.3z"/>
		<g>
			<g>
				<path fill="#FFFFFF" d="M163.6,365.4c0-12.1,9.9-17.8,10.3-18.3c-5.7-8.1-14.3-9.5-17.4-9.5c-7.3-0.9-14.5,4.4-18.3,4.4
					s-9.7-4.4-15.9-4.2c-7.9,0.2-15.4,4.8-19.6,11.9c-8.6,14.7-2.2,36.3,5.9,48.2c4,5.7,8.8,12.3,15,12.1c6.2-0.2,8.4-4,15.6-4
					c7.3,0,9.5,4,15.9,3.7c6.6,0,10.6-5.9,14.5-11.7c4.6-6.6,6.6-13.2,6.6-13.6C176.4,384.8,163.9,380,163.6,365.4z"/>
				<path fill="#FFFFFF" d="M151.8,330c3.3-4.2,5.5-9.7,4.8-15.4c-4.8,0.2-10.6,3.3-14.1,7.3c-3.1,3.5-5.7,9.2-5.1,14.7
					C142.7,337.1,148.2,334,151.8,330z"/>
			</g>
		</g>
		<g>
			<path fill="#FFFFFF" d="M251.7,409.3h-8.6l-4.6-14.5h-16.1l-4.4,14.5h-8.4l16.1-49.8h9.9L251.7,409.3z M237.2,388.6l-4.2-13
				c-0.4-1.3-1.3-4.4-2.4-9.5h-0.2c-0.4,2.2-1.3,5.3-2.4,9.5l-4.2,13H237.2z"/>
			<path fill="#FFFFFF" d="M292.9,391c0,6.2-1.5,11-4.8,14.5c-2.9,3.1-6.6,4.6-11,4.6c-4.6,0-8.1-1.8-10.1-5.1h-0.2V424h-7.9v-38.7
				c0-3.7,0-7.7-0.2-11.9h7l0.4,5.7h0.2c2.6-4.2,6.6-6.4,12.1-6.4c4.2,0,7.7,1.8,10.6,5.1C291.6,381.1,292.9,385.5,292.9,391z
				 M284.7,391.2c0-3.5-0.9-6.4-2.4-8.6c-1.8-2.4-4-3.5-7-3.5c-2,0-3.7,0.7-5.3,2c-1.5,1.3-2.6,3.1-3.1,5.1
				c-0.2,0.9-0.4,1.8-0.4,2.4v5.9c0,2.6,0.9,4.8,2.4,6.6c1.5,1.8,3.7,2.6,6.2,2.6c3.1,0,5.3-1.1,7-3.5
				C283.8,398,284.7,394.9,284.7,391.2z"/>
			<path fill="#FFFFFF" d="M334.3,391c0,6.2-1.8,11-5.1,14.5c-2.9,3.1-6.6,4.6-11,4.6c-4.6,0-8.1-1.8-10.1-5.1h-0.2V424h-7.9v-38.7
				c0-3.7,0-7.7-0.2-11.9h7l0.4,5.7h0.2c2.6-4.2,6.6-6.4,12.1-6.4c4.2,0,7.7,1.8,10.6,5.1C332.7,381.1,334.3,385.5,334.3,391z
				 M326.1,391.2c0-3.5-0.9-6.4-2.4-8.6c-1.8-2.4-4-3.5-7-3.5c-2,0-3.7,0.7-5.3,2c-1.5,1.3-2.6,3.1-3.1,5.1
				c-0.2,0.9-0.4,1.8-0.4,2.4v5.9c0,2.6,0.9,4.8,2.4,6.6c1.5,1.8,3.7,2.6,6.2,2.6c3.1,0,5.3-1.1,7-3.5
				C325.2,398,326.1,394.9,326.1,391.2z"/>
			<path fill="#FFFFFF" d="M380.5,395.4c0,4.2-1.5,7.7-4.4,10.3c-3.3,2.9-7.7,4.4-13.6,4.4c-5.3,0-9.7-1.1-13-3.1l1.8-6.6
				c3.5,2.2,7.3,3.1,11.4,3.1c3.1,0,5.3-0.7,7-2c1.8-1.3,2.4-3.1,2.4-5.5c0-2-0.7-3.7-2-5.1c-1.3-1.3-3.7-2.6-6.8-3.7
				c-8.8-3.3-13-7.9-13-14.3c0-4.2,1.5-7.5,4.6-10.1c3.1-2.6,7-4,12.1-4c4.6,0,8.4,0.9,11.2,2.4l-2,6.6c-2.9-1.5-5.9-2.2-9.5-2.2
				c-2.9,0-5.1,0.7-6.6,2c-1.3,1.3-2,2.6-2,4.4c0,2,0.7,3.5,2.2,4.8c1.3,1.1,3.7,2.4,7.3,3.7c4.2,1.8,7.5,3.7,9.5,6.2
				C379.4,389,380.5,391.9,380.5,395.4z"/>
			<path fill="#FFFFFF" d="M406.7,379.5h-8.8v17.4c0,4.4,1.5,6.6,4.6,6.6c1.3,0,2.6-0.2,3.5-0.4l0.2,6.2c-1.5,0.7-3.7,0.9-6.2,0.9
				c-3.1,0-5.5-0.9-7.5-2.9c-1.8-2-2.6-5.1-2.6-9.7v-18.1h-5.3v-5.9h5.3V367l7.9-2.4v9h8.8L406.7,379.5L406.7,379.5z"/>
			<path fill="#FFFFFF" d="M446.5,391.2c0,5.5-1.5,10.1-4.6,13.6c-3.3,3.7-7.7,5.5-13.2,5.5c-5.3,0-9.5-1.8-12.5-5.3
				c-3.1-3.5-4.6-7.9-4.6-13.2c0-5.5,1.5-10.1,4.8-13.6c3.3-3.5,7.5-5.3,13-5.3c5.3,0,9.5,1.8,12.8,5.3
				C445,381.3,446.5,385.7,446.5,391.2z M438.2,391.4c0-3.3-0.7-6.2-2.2-8.6c-1.8-2.9-4-4.4-7.3-4.4s-5.7,1.5-7.3,4.4
				c-1.5,2.4-2.2,5.3-2.2,8.6s0.7,6.2,2.2,8.6c1.8,2.9,4.2,4.4,7.3,4.4c3.1,0,5.5-1.5,7.3-4.4C437.5,397.6,438.2,394.7,438.2,391.4z
				"/>
			<path fill="#FFFFFF" d="M472.3,380.4c-0.9-0.2-1.5-0.2-2.4-0.2c-2.9,0-5.1,1.1-6.6,3.1c-1.3,1.8-2,4.2-2,7v18.9h-7.9v-24.7
				c0-4.2,0-7.9-0.2-11.2h7l0.2,6.8h0.2c0.9-2.4,2.2-4.2,4-5.7c1.8-1.3,3.7-2,5.7-2c0.7,0,1.3,0,2,0.2V380.4z"/>
			<path fill="#FFFFFF" d="M508.2,389.7c0,1.3,0,2.6-0.2,3.5h-24c0,3.5,1.3,6.2,3.5,8.1c2,1.8,4.6,2.4,7.9,2.4
				c3.5,0,6.8-0.7,9.7-1.8l1.3,5.5c-3.3,1.5-7.5,2.2-12.1,2.2c-5.5,0-9.9-1.5-13.2-4.8c-3.1-3.3-4.8-7.7-4.8-13.2s1.5-9.9,4.4-13.4
				c3.1-3.7,7.3-5.7,12.5-5.7s9,2,11.7,5.7C507.1,381.5,508.2,385.3,508.2,389.7z M500.5,387.7c0-2.4-0.4-4.4-1.5-6.2
				c-1.3-2.2-3.5-3.3-6.4-3.3c-2.6,0-4.6,1.1-6.4,3.3c-1.3,1.8-2.2,3.7-2.4,6.2H500.5z"/>
		</g>
		<g>
			<g>
				<path fill="#FFFFFF" d="M234.5,328.9c0,4.4-1.3,7.7-4,9.9c-2.4,2-5.9,3.1-10.3,3.1c-2.2,0-4.2,0-5.7-0.2v-24
					c2-0.4,4.4-0.4,6.8-0.4c4.2,0,7.5,0.9,9.7,2.9C233.2,322.1,234.5,324.9,234.5,328.9z M230.4,329.1c0-2.9-0.7-5.1-2.2-6.6
					c-1.5-1.5-3.7-2.2-6.6-2.2c-1.3,0-2.2,0-3.1,0.2v18.3c0.4,0,1.3,0,2.6,0c3.1,0,5.3-0.9,7-2.4
					C229.5,334.6,230.4,332.2,230.4,329.1z"/>
				<path fill="#FFFFFF" d="M256.3,332.9c0,2.6-0.9,4.8-2.4,6.6s-3.7,2.6-6.4,2.6c-2.6,0-4.6-0.9-6.2-2.6c-1.5-1.8-2.2-4-2.2-6.6
					s0.9-5.1,2.4-6.8c1.5-1.8,3.7-2.6,6.4-2.6s4.6,0.9,6.2,2.6C255.7,328,256.3,330.2,256.3,332.9z M252.4,332.9
					c0-1.5-0.4-3.1-1.1-4.2c-0.9-1.3-2-2.2-3.5-2.2s-2.9,0.7-3.5,2.2c-0.7,1.1-1.1,2.6-1.1,4.2c0,1.5,0.4,3.1,1.1,4.2
					c0.9,1.3,2,2.2,3.5,2.2s2.6-0.7,3.5-2.2C251.9,336,252.4,334.6,252.4,332.9z"/>
				<path fill="#FFFFFF" d="M285.8,324.1l-5.5,17.6h-3.5l-2.2-7.7c-0.7-2-1.1-3.7-1.3-5.7l0,0c-0.4,2-0.9,3.7-1.3,5.7l-2.4,7.7h-3.7
					l-5.3-17.6h4l2,8.4c0.4,2,0.9,4,1.1,5.7l0,0c0.2-1.5,0.9-3.3,1.5-5.7l2.4-8.4h3.3l2.4,8.1c0.7,2,1.1,4,1.3,5.7l0,0
					c0.2-1.8,0.7-3.7,1.1-5.7l2.2-8.1H285.8z"/>
				<path fill="#FFFFFF" d="M306.1,341.7h-4v-10.1c0-3.1-1.1-4.6-3.5-4.6c-1.1,0-2.2,0.4-2.9,1.3c-0.7,0.9-1.1,1.8-1.1,3.1v10.6
					h-3.7v-12.5c0-1.5,0-3.3-0.2-5.1h3.5l0.2,2.9l0,0c0.4-0.9,1.1-1.5,2-2.2c1.1-0.7,2.2-0.9,3.5-0.9c1.5,0,3.1,0.4,4.2,1.5
					c1.3,1.3,2,3.3,2,5.9V341.7z"/>
				<path fill="#FFFFFF" d="M316.9,341.7h-4v-25.8h4V341.7z"/>
				<path fill="#FFFFFF" d="M340,332.9c0,2.6-0.9,4.8-2.4,6.6s-3.7,2.6-6.4,2.6c-2.6,0-4.6-0.9-6.2-2.6c-1.5-1.8-2.2-4-2.2-6.6
					s0.9-5.1,2.4-6.8c1.5-1.8,3.7-2.6,6.4-2.6s4.6,0.9,6.2,2.6C339.3,328,340,330.2,340,332.9z M336,332.9c0-1.5-0.4-3.1-1.1-4.2
					c-0.9-1.3-2-2.2-3.5-2.2s-2.9,0.7-3.5,2.2c-0.7,1.1-1.1,2.6-1.1,4.2c0,1.5,0.4,3.1,1.1,4.2c0.9,1.3,2,2.2,3.5,2.2
					c1.5,0,2.6-0.7,3.5-2.2C335.6,336,336,334.6,336,332.9z"/>
				<path fill="#FFFFFF" d="M359.1,341.7h-3.5l-0.2-2l0,0c-1.1,1.5-2.9,2.4-5.1,2.4c-1.8,0-3.1-0.4-4-1.5c-0.9-0.9-1.3-2.2-1.3-3.5
					c0-2.2,0.9-3.7,2.6-4.8s4.4-1.8,7.7-1.8v-0.2c0-2.4-1.3-3.5-3.7-3.5c-1.8,0-3.3,0.4-4.6,1.3l-0.9-2.6c1.5-1.1,3.7-1.5,5.9-1.5
					c4.6,0,6.8,2.4,6.8,7.3v6.6C358.7,339.3,358.9,340.8,359.1,341.7z M355,335.7v-2.9c-4.4,0-6.4,1.1-6.4,3.5c0,0.9,0.2,1.5,0.7,2
					c0.4,0.4,1.1,0.7,2,0.7c0.9,0,1.8-0.2,2.4-0.9c0.7-0.4,1.1-1.3,1.3-2C355,336.2,355,336,355,335.7z"/>
				<path fill="#FFFFFF" d="M381.4,341.7h-3.5l-0.2-2.9l0,0c-1.1,2.2-3.1,3.3-5.7,3.3c-2.2,0-4-0.9-5.3-2.4
					c-1.3-1.8-2.2-3.7-2.2-6.6s0.7-5.1,2.2-6.8c1.5-1.5,3.3-2.4,5.5-2.4c2.4,0,4,0.9,5.1,2.4l0,0v-10.1h4v20.9
					C381.2,338.8,381.2,340.4,381.4,341.7z M377.2,334.4v-2.9c0-0.4,0-0.9,0-1.3c-0.2-0.9-0.7-1.8-1.3-2.4s-1.5-0.9-2.6-0.9
					c-1.5,0-2.6,0.7-3.5,1.8c-0.9,1.1-1.3,2.6-1.3,4.4c0,1.8,0.4,3.1,1.1,4.2c0.9,1.1,2,1.8,3.5,1.8c1.3,0,2.4-0.4,3.1-1.5
					C377,336.6,377.2,335.5,377.2,334.4z"/>
				<path fill="#FFFFFF" d="M414.8,332.9c0,2.6-0.9,4.8-2.4,6.6c-1.5,1.8-3.7,2.6-6.4,2.6s-4.6-0.9-6.2-2.6c-1.5-1.8-2.2-4-2.2-6.6
					s0.9-5.1,2.4-6.8c1.5-1.8,3.7-2.6,6.4-2.6s4.6,0.9,6.2,2.6C414.2,328,414.8,330.2,414.8,332.9z M410.9,332.9
					c0-1.5-0.4-3.1-1.1-4.2c-0.9-1.3-2-2.2-3.5-2.2c-1.5,0-2.9,0.7-3.5,2.2c-0.7,1.1-1.1,2.6-1.1,4.2c0,1.5,0.4,3.1,1.1,4.2
					c0.9,1.3,2,2.2,3.5,2.2s2.6-0.7,3.5-2.2C410.4,336,410.9,334.6,410.9,332.9z"/>
				<path fill="#FFFFFF" d="M436,341.7h-4v-10.1c0-3.1-1.1-4.6-3.5-4.6c-1.1,0-2.2,0.4-2.9,1.3c-0.7,0.9-1.1,1.8-1.1,3.1v10.6h-4
					v-12.5c0-1.5,0-3.3-0.2-5.1h3.5l0.2,2.9l0,0c0.4-0.9,1.1-1.5,2-2.2c1.1-0.7,2.2-0.9,3.5-0.9c1.5,0,3.1,0.4,4.2,1.5
					c1.3,1.3,2,3.3,2,5.9v10.1H436z"/>
				<path fill="#FFFFFF" d="M462.4,327.1H458v8.6c0,2.2,0.7,3.3,2.2,3.3c0.7,0,1.3,0,1.8-0.2v3.1c-0.9,0.2-1.8,0.4-3.1,0.4
					c-1.5,0-2.9-0.4-3.5-1.3c-0.9-0.9-1.3-2.4-1.3-4.8v-8.8h-2.4v-3.3h2.6v-3.3l3.7-1.1v4.4h4.4V327.1z"/>
				<path fill="#FFFFFF" d="M483.1,341.7h-4v-10.1c0-3.1-1.1-4.8-3.5-4.8c-1.8,0-3.1,0.9-3.7,2.6c-0.2,0.4-0.2,0.9-0.2,1.3v10.6h-4
					v-25.3h4v10.6l0,0c1.3-2,3.1-2.9,5.3-2.9c1.5,0,2.9,0.4,4,1.5c1.3,1.3,2,3.3,2,5.9v10.6H483.1z"/>
				<path fill="#FFFFFF" d="M504.4,332c0,0.7,0,1.3-0.2,1.8h-11.7c0,1.8,0.7,3.1,1.8,4c1.1,0.9,2.2,1.3,3.7,1.3
					c1.8,0,3.3-0.2,4.8-0.9l0.7,2.6c-1.8,0.7-3.7,1.1-5.9,1.1c-2.6,0-4.8-0.9-6.4-2.4c-1.5-1.5-2.4-3.7-2.4-6.4
					c0-2.6,0.7-4.8,2.2-6.6c1.5-2,3.5-2.9,6.2-2.9s4.4,0.9,5.7,2.9C504,328,504.4,329.8,504.4,332z M500.7,331.1
					c0-1.1-0.2-2.2-0.7-3.1c-0.7-1.1-1.8-1.5-3.1-1.5s-2.4,0.4-3.1,1.5c-0.7,0.9-1.1,1.8-1.1,3.1H500.7z"/>
			</g>
		</g>
	</g>
</g>
</svg>
