<?xml version="1.0" encoding="utf-8"?>
<!-- Generator: Adobe Illustrator 18.0.0, SVG Export Plug-In . SVG Version: 6.00 Build 0)  -->
<!DOCTYPE svg PUBLIC "-//W3C//DTD SVG 1.1//EN" "http://www.w3.org/Graphics/SVG/1.1/DTD/svg11.dtd">
<svg version="1.1" xmlns="http://www.w3.org/2000/svg" xmlns:xlink="http://www.w3.org/1999/xlink" x="0px" y="0px"
	 viewBox="0 0 278 262" enable-background="new 0 0 278 262" xml:space="preserve">
<g id="Icons" display="none">
	<g display="inline">
		<path fill="#222222" d="M142.4,18.2c-62.9,0-114.1,51.2-114.1,114.1s51.2,114.1,114.1,114.1s114.1-51.2,114.1-114.1
			S205.3,18.2,142.4,18.2z"/>
		<path fill="#FFFFFF" d="M142.4,232.5c-55.3,0-100.2-45-100.2-100.2S87.1,32,142.4,32s100.2,45,100.2,100.2
			S197.6,232.5,142.4,232.5z"/>
		<path id="Shopping_Bag" display="none" fill="#222222" d="M193.3,106.7h-33.5V91.9c0-2.9-0.6-5.6-1.6-8.1
			c-1.1-2.5-2.6-4.8-4.5-6.7c-1.9-1.9-4.2-3.4-6.7-4.5c-2.5-1.1-5.3-1.6-8.1-1.6c-2.9,0-5.6,0.6-8.1,1.6c-2.5,1.1-4.8,2.6-6.7,4.5
			c-1.9,1.9-3.4,4.2-4.5,6.7c-1.1,2.5-1.6,5.3-1.6,8.1v14.8H84.4c-0.4,0-0.8,0.1-1.2,0.2c-0.4,0.2-0.7,0.4-1,0.7
			c-0.3,0.3-0.5,0.6-0.7,1c-0.2,0.4-0.2,0.8-0.2,1.2v67.7c0,0.4,0.1,0.8,0.2,1.2c0.2,0.4,0.4,0.7,0.7,1c0.3,0.3,0.6,0.5,1,0.7
			c0.4,0.2,0.8,0.2,1.2,0.2l27.2,3.9h54.4l27.2-3.9c0.4,0,0.8-0.1,1.2-0.2c0.4-0.2,0.7-0.4,1-0.7c0.3-0.3,0.5-0.6,0.7-1
			c0.2-0.4,0.2-0.8,0.2-1.2v-67.7c0-0.4-0.1-0.8-0.2-1.2c-0.2-0.4-0.4-0.7-0.7-1c-0.3-0.3-0.6-0.5-1-0.7
			C194.1,106.7,193.7,106.7,193.3,106.7z M124.1,91.9c0-4.1,1.7-7.8,4.3-10.5c2.7-2.7,6.4-4.3,10.5-4.3c4.1,0,7.8,1.7,10.5,4.3
			c2.7,2.7,4.3,6.4,4.3,10.5v7.4v7.4h-14.8h-14.8v-7.4V91.9z"/>
	</g>
</g>
<g id="Layer_2" display="none">
	<path id="Explore" display="inline" fill="#222222" d="M141.7,18.6C79.1,18.6,28.3,69.4,28.3,132s50.9,113.4,113.4,113.4
		S255.1,194.5,255.1,132S204.2,18.6,141.7,18.6z M141.7,231.6c-54.9,0-99.6-44.7-99.6-99.6s44.7-99.6,99.6-99.6s99.6,44.7,99.6,99.6
		S196.6,231.6,141.7,231.6z M125.9,109.6l-52.6,71.6l84.6-27.1l0,0.1l52.6-71.6L125.9,109.6L125.9,109.6z M141.9,117.4
		c8,0,14.5,6.5,14.5,14.5c0,8-6.5,14.5-14.5,14.5c-8,0-14.5-6.5-14.5-14.5C127.4,123.9,133.9,117.4,141.9,117.4z"/>
</g>
<g id="Layer_3" display="none">
	<path id="Directions" display="inline" fill="#222222" d="M202.1,95.8c-0.1-1.2-0.7-2.2-1.7-3c0,0,0,0,0,0l-15.4-11.9
		c-2-1.5-4.8-1.2-6.4,0.8c-1.5,2-1.2,4.8,0.8,6.4l6.7,5.2c-27.5,2.8-40.2,22.9-45.9,42.9c-6-21.1-19.8-42.6-50.9-43.3
		c-2.4-0.1-4.6,1.9-4.6,4.4c-0.1,2.5,1.9,4.6,4.4,4.6c38.7,0.8,45.8,40.6,46.6,64.8c0,0.3,0,0.6,0,0.9l0,0v32.1c0,2,2,3.6,4.5,3.6
		c2.5,0,4.5-1.6,4.5-3.6v-32.4c0,0,0-0.1,0-0.1c0-0.1,0-0.3,0-0.4c0.7-23.5,7.5-61.1,42.7-64.5L182,109c-1.5,2-1.2,4.8,0.8,6.4
		c2,1.5,4.8,1.2,6.4-0.8l11.9-15.4c0,0,0,0,0,0C201.9,98.2,202.2,97,202.1,95.8z M191.2,97.2L191.2,97.2L191.2,97.2L191.2,97.2z"/>
</g>
<g id="Layer_4" display="none">
	<path id="Wishlist" display="inline" fill="#222222" d="M207.7,114.4c-0.4-1.3-1.6-2.2-3-2.2h-45.3l-14-43.1
		c-0.4-1.3-1.6-2.2-3-2.2c-1.4,0-2.6,0.9-3,2.2l-14,43.1H80c-1.4,0-2.6,0.9-3,2.2c-0.4,1.3,0,2.7,1.1,3.5l36.7,26.7l-14,43.1
		c-0.4,1.3,0,2.7,1.1,3.5c1.1,0.8,2.6,0.8,3.7,0l36.7-26.7l36.7,26.7c0.5,0.4,1.2,0.6,1.8,0.6s1.3-0.2,1.8-0.6
		c1.1-0.8,1.6-2.2,1.1-3.5l-14-43.1l36.7-26.7C207.6,117.1,208.1,115.7,207.7,114.4z"/>
</g>
<g id="Layer_5">
	<g>
		<path fill="#A6A6A6" d="M245.3,152H32c-4.4,0-8-3.4-8-7.9V92.2c0-4.4,3.6-8.2,8-8.2h213.3c4.4,0,7.7,3.8,7.7,8.2v51.9
			c0,4.4-3.4,8-7.8,8L245.3,152z"/>
		<path d="M251.8,144.1c0,3.6-2.9,6.5-6.5,6.5H32c-3.6,0-6.5-2.9-6.5-6.5V92.2c0-3.6,2.9-6.5,6.5-6.5h213.3c3.6,0,6.5,2.9,6.5,6.5
			L251.8,144.1L251.8,144.1z"/>
		<g>
			<g>
				<path fill="#FFFFFF" d="M75.2,117.8c0-5.5,4.5-8.1,4.7-8.3c-2.6-3.7-6.5-4.3-7.9-4.3c-3.3-0.4-6.6,2-8.3,2c-1.7,0-4.4-2-7.2-1.9
					c-3.6,0.1-7,2.2-8.9,5.4c-3.9,6.7-1,16.5,2.7,21.9c1.8,2.6,4,5.6,6.8,5.5c2.8-0.1,3.8-1.8,7.1-1.8c3.3,0,4.3,1.8,7.2,1.7
					c3,0,4.8-2.7,6.6-5.3c2.1-3,3-6,3-6.2C81,126.6,75.3,124.4,75.2,117.8z"/>
				<path fill="#FFFFFF" d="M69.8,101.7c1.5-1.9,2.5-4.4,2.2-7c-2.2,0.1-4.8,1.5-6.4,3.3c-1.4,1.6-2.6,4.2-2.3,6.7
					C65.7,104.9,68.2,103.5,69.8,101.7z"/>
			</g>
		</g>
		<g>
			<path fill="#FFFFFF" d="M115.2,137.7h-3.9l-2.1-6.6h-7.3l-2,6.6h-3.8l7.3-22.6h4.5L115.2,137.7z M108.6,128.3l-1.9-5.9
				c-0.2-0.6-0.6-2-1.1-4.3h-0.1c-0.2,1-0.6,2.4-1.1,4.3l-1.9,5.9H108.6z"/>
			<path fill="#FFFFFF" d="M133.9,129.4c0,2.8-0.7,5-2.2,6.6c-1.3,1.4-3,2.1-5,2.1c-2.1,0-3.7-0.8-4.6-2.3H122v8.6h-3.6v-17.6
				c0-1.7,0-3.5-0.1-5.4h3.2l0.2,2.6h0.1c1.2-1.9,3-2.9,5.5-2.9c1.9,0,3.5,0.8,4.8,2.3C133.3,124.9,133.9,126.9,133.9,129.4z
				 M130.2,129.5c0-1.6-0.4-2.9-1.1-3.9c-0.8-1.1-1.8-1.6-3.2-1.6c-0.9,0-1.7,0.3-2.4,0.9c-0.7,0.6-1.2,1.4-1.4,2.3
				c-0.1,0.4-0.2,0.8-0.2,1.1v2.7c0,1.2,0.4,2.2,1.1,3c0.7,0.8,1.7,1.2,2.8,1.2c1.4,0,2.4-0.5,3.2-1.6
				C129.8,132.6,130.2,131.2,130.2,129.5z"/>
			<path fill="#FFFFFF" d="M152.7,129.4c0,2.8-0.8,5-2.3,6.6c-1.3,1.4-3,2.1-5,2.1c-2.1,0-3.7-0.8-4.6-2.3h-0.1v8.6h-3.6v-17.6
				c0-1.7,0-3.5-0.1-5.4h3.2l0.2,2.6h0.1c1.2-1.9,3-2.9,5.5-2.9c1.9,0,3.5,0.8,4.8,2.3C152,124.9,152.7,126.9,152.7,129.4z
				 M149,129.5c0-1.6-0.4-2.9-1.1-3.9c-0.8-1.1-1.8-1.6-3.2-1.6c-0.9,0-1.7,0.3-2.4,0.9c-0.7,0.6-1.2,1.4-1.4,2.3
				c-0.1,0.4-0.2,0.8-0.2,1.1v2.7c0,1.2,0.4,2.2,1.1,3c0.7,0.8,1.7,1.2,2.8,1.2c1.4,0,2.4-0.5,3.2-1.6
				C148.6,132.6,149,131.2,149,129.5z"/>
			<path fill="#FFFFFF" d="M173.7,131.4c0,1.9-0.7,3.5-2,4.7c-1.5,1.3-3.5,2-6.2,2c-2.4,0-4.4-0.5-5.9-1.4l0.8-3
				c1.6,1,3.3,1.4,5.2,1.4c1.4,0,2.4-0.3,3.2-0.9c0.8-0.6,1.1-1.4,1.1-2.5c0-0.9-0.3-1.7-0.9-2.3c-0.6-0.6-1.7-1.2-3.1-1.7
				c-4-1.5-5.9-3.6-5.9-6.5c0-1.9,0.7-3.4,2.1-4.6c1.4-1.2,3.2-1.8,5.5-1.8c2.1,0,3.8,0.4,5.1,1.1l-0.9,3c-1.3-0.7-2.7-1-4.3-1
				c-1.3,0-2.3,0.3-3,0.9c-0.6,0.6-0.9,1.2-0.9,2c0,0.9,0.3,1.6,1,2.2c0.6,0.5,1.7,1.1,3.3,1.7c1.9,0.8,3.4,1.7,4.3,2.8
				C173.2,128.5,173.7,129.8,173.7,131.4z"/>
			<path fill="#FFFFFF" d="M185.6,124.2h-4v7.9c0,2,0.7,3,2.1,3c0.6,0,1.2-0.1,1.6-0.2l0.1,2.8c-0.7,0.3-1.7,0.4-2.8,0.4
				c-1.4,0-2.5-0.4-3.4-1.3c-0.8-0.9-1.2-2.3-1.2-4.4v-8.2h-2.4v-2.7h2.4v-3l3.6-1.1v4.1h4V124.2z"/>
			<path fill="#FFFFFF" d="M203.7,129.5c0,2.5-0.7,4.6-2.1,6.2c-1.5,1.7-3.5,2.5-6,2.5c-2.4,0-4.3-0.8-5.7-2.4
				c-1.4-1.6-2.1-3.6-2.1-6c0-2.5,0.7-4.6,2.2-6.2c1.5-1.6,3.4-2.4,5.9-2.4c2.4,0,4.3,0.8,5.8,2.4C203,125,203.7,127,203.7,129.5z
				 M199.9,129.6c0-1.5-0.3-2.8-1-3.9c-0.8-1.3-1.8-2-3.3-2c-1.5,0-2.6,0.7-3.3,2c-0.7,1.1-1,2.4-1,3.9c0,1.5,0.3,2.8,1,3.9
				c0.8,1.3,1.9,2,3.3,2c1.4,0,2.5-0.7,3.3-2C199.6,132.4,199.9,131.1,199.9,129.6z"/>
			<path fill="#FFFFFF" d="M215.4,124.6c-0.4-0.1-0.7-0.1-1.1-0.1c-1.3,0-2.3,0.5-3,1.4c-0.6,0.8-0.9,1.9-0.9,3.2v8.6h-3.6l0-11.2
				c0-1.9,0-3.6-0.1-5.1h3.2l0.1,3.1h0.1c0.4-1.1,1-1.9,1.8-2.6c0.8-0.6,1.7-0.9,2.6-0.9c0.3,0,0.6,0,0.9,0.1V124.6z"/>
			<path fill="#FFFFFF" d="M231.7,128.8c0,0.6,0,1.2-0.1,1.6h-10.9c0,1.6,0.6,2.8,1.6,3.7c0.9,0.8,2.1,1.1,3.6,1.1
				c1.6,0,3.1-0.3,4.4-0.8l0.6,2.5c-1.5,0.7-3.4,1-5.5,1c-2.5,0-4.5-0.7-6-2.2c-1.4-1.5-2.2-3.5-2.2-6c0-2.5,0.7-4.5,2-6.1
				c1.4-1.7,3.3-2.6,5.7-2.6c2.4,0,4.1,0.9,5.3,2.6C231.2,125.1,231.7,126.8,231.7,128.8z M228.2,127.9c0-1.1-0.2-2-0.7-2.8
				c-0.6-1-1.6-1.5-2.9-1.5c-1.2,0-2.1,0.5-2.9,1.5c-0.6,0.8-1,1.7-1.1,2.8H228.2z"/>
		</g>
		<g>
			<g>
				<path fill="#FFFFFF" d="M107.4,101.2c0,2-0.6,3.5-1.8,4.5c-1.1,0.9-2.7,1.4-4.7,1.4c-1,0-1.9,0-2.6-0.1V96.1
					c0.9-0.2,2-0.2,3.1-0.2c1.9,0,3.4,0.4,4.4,1.3C106.8,98.1,107.4,99.4,107.4,101.2z M105.5,101.3c0-1.3-0.3-2.3-1-3
					c-0.7-0.7-1.7-1-3-1c-0.6,0-1,0-1.4,0.1v8.3c0.2,0,0.6,0,1.2,0c1.4,0,2.4-0.4,3.2-1.1C105.1,103.8,105.5,102.7,105.5,101.3z"/>
				<path fill="#FFFFFF" d="M117.3,103c0,1.2-0.4,2.2-1.1,3c-0.7,0.8-1.7,1.2-2.9,1.2c-1.2,0-2.1-0.4-2.8-1.2c-0.7-0.8-1-1.8-1-3
					c0-1.2,0.4-2.3,1.1-3.1c0.7-0.8,1.7-1.2,2.9-1.2c1.2,0,2.1,0.4,2.8,1.2C117,100.8,117.3,101.8,117.3,103z M115.5,103
					c0-0.7-0.2-1.4-0.5-1.9c-0.4-0.6-0.9-1-1.6-1c-0.7,0-1.3,0.3-1.6,1c-0.3,0.5-0.5,1.2-0.5,1.9c0,0.7,0.2,1.4,0.5,1.9
					c0.4,0.6,0.9,1,1.6,1c0.7,0,1.2-0.3,1.6-1C115.3,104.4,115.5,103.8,115.5,103z"/>
				<path fill="#FFFFFF" d="M130.7,99l-2.5,8h-1.6l-1-3.5c-0.3-0.9-0.5-1.7-0.6-2.6h0c-0.2,0.9-0.4,1.7-0.6,2.6l-1.1,3.5h-1.7
					l-2.4-8h1.8l0.9,3.8c0.2,0.9,0.4,1.8,0.5,2.6h0c0.1-0.7,0.4-1.5,0.7-2.6l1.1-3.8h1.5l1.1,3.7c0.3,0.9,0.5,1.8,0.6,2.6h0
					c0.1-0.8,0.3-1.7,0.5-2.6l1-3.7H130.7z"/>
				<path fill="#FFFFFF" d="M139.9,107h-1.8v-4.6c0-1.4-0.5-2.1-1.6-2.1c-0.5,0-1,0.2-1.3,0.6c-0.3,0.4-0.5,0.8-0.5,1.4v4.8H133
					v-5.7c0-0.7,0-1.5-0.1-2.3h1.6l0.1,1.3h0c0.2-0.4,0.5-0.7,0.9-1c0.5-0.3,1-0.4,1.6-0.4c0.7,0,1.4,0.2,1.9,0.7
					c0.6,0.6,0.9,1.5,0.9,2.7V107z"/>
				<path fill="#FFFFFF" d="M144.8,107h-1.8V95.3h1.8V107z"/>
				<path fill="#FFFFFF" d="M155.3,103c0,1.2-0.4,2.2-1.1,3c-0.7,0.8-1.7,1.2-2.9,1.2c-1.2,0-2.1-0.4-2.8-1.2c-0.7-0.8-1-1.8-1-3
					c0-1.2,0.4-2.3,1.1-3.1c0.7-0.8,1.7-1.2,2.9-1.2c1.2,0,2.1,0.4,2.8,1.2C155,100.8,155.3,101.8,155.3,103z M153.5,103
					c0-0.7-0.2-1.4-0.5-1.9c-0.4-0.6-0.9-1-1.6-1c-0.7,0-1.3,0.3-1.6,1c-0.3,0.5-0.5,1.2-0.5,1.9c0,0.7,0.2,1.4,0.5,1.9
					c0.4,0.6,0.9,1,1.6,1c0.7,0,1.2-0.3,1.6-1C153.3,104.4,153.5,103.8,153.5,103z"/>
				<path fill="#FFFFFF" d="M164,107h-1.6l-0.1-0.9h0c-0.5,0.7-1.3,1.1-2.3,1.1c-0.8,0-1.4-0.2-1.8-0.7c-0.4-0.4-0.6-1-0.6-1.6
					c0-1,0.4-1.7,1.2-2.2c0.8-0.5,2-0.8,3.5-0.8v-0.1c0-1.1-0.6-1.6-1.7-1.6c-0.8,0-1.5,0.2-2.1,0.6l-0.4-1.2
					c0.7-0.5,1.7-0.7,2.7-0.7c2.1,0,3.1,1.1,3.1,3.3v3C163.8,105.9,163.9,106.6,164,107z M162.1,104.3V103c-2,0-2.9,0.5-2.9,1.6
					c0,0.4,0.1,0.7,0.3,0.9c0.2,0.2,0.5,0.3,0.9,0.3c0.4,0,0.8-0.1,1.1-0.4c0.3-0.2,0.5-0.6,0.6-0.9
					C162.1,104.5,162.1,104.4,162.1,104.3z"/>
				<path fill="#FFFFFF" d="M174.1,107h-1.6l-0.1-1.3h0c-0.5,1-1.4,1.5-2.6,1.5c-1,0-1.8-0.4-2.4-1.1c-0.6-0.8-1-1.7-1-3
					c0-1.3,0.3-2.3,1-3.1c0.7-0.7,1.5-1.1,2.5-1.1c1.1,0,1.8,0.4,2.3,1.1h0v-4.6h1.8v9.5C174,105.7,174,106.4,174.1,107z
					 M172.2,103.7v-1.3c0-0.2,0-0.4,0-0.6c-0.1-0.4-0.3-0.8-0.6-1.1c-0.3-0.3-0.7-0.4-1.2-0.4c-0.7,0-1.2,0.3-1.6,0.8
					c-0.4,0.5-0.6,1.2-0.6,2c0,0.8,0.2,1.4,0.5,1.9c0.4,0.5,0.9,0.8,1.6,0.8c0.6,0,1.1-0.2,1.4-0.7
					C172.1,104.7,172.2,104.2,172.2,103.7z"/>
				<path fill="#FFFFFF" d="M189.3,103c0,1.2-0.4,2.2-1.1,3c-0.7,0.8-1.7,1.2-2.9,1.2c-1.2,0-2.1-0.4-2.8-1.2c-0.7-0.8-1-1.8-1-3
					c0-1.2,0.4-2.3,1.1-3.1c0.7-0.8,1.7-1.2,2.9-1.2c1.2,0,2.1,0.4,2.8,1.2C189,100.8,189.3,101.8,189.3,103z M187.5,103
					c0-0.7-0.2-1.4-0.5-1.9c-0.4-0.6-0.9-1-1.6-1c-0.7,0-1.3,0.3-1.6,1c-0.3,0.5-0.5,1.2-0.5,1.9c0,0.7,0.2,1.4,0.5,1.9
					c0.4,0.6,0.9,1,1.6,1c0.7,0,1.2-0.3,1.6-1C187.3,104.4,187.5,103.8,187.5,103z"/>
				<path fill="#FFFFFF" d="M198.9,107h-1.8v-4.6c0-1.4-0.5-2.1-1.6-2.1c-0.5,0-1,0.2-1.3,0.6c-0.3,0.4-0.5,0.8-0.5,1.4v4.8h-1.8
					v-5.7c0-0.7,0-1.5-0.1-2.3h1.6l0.1,1.3h0c0.2-0.4,0.5-0.7,0.9-1c0.5-0.3,1-0.4,1.6-0.4c0.7,0,1.4,0.2,1.9,0.7
					c0.6,0.6,0.9,1.5,0.9,2.7V107z"/>
				<path fill="#FFFFFF" d="M210.9,100.4h-2v3.9c0,1,0.3,1.5,1,1.5c0.3,0,0.6,0,0.8-0.1l0,1.4c-0.4,0.1-0.8,0.2-1.4,0.2
					c-0.7,0-1.3-0.2-1.6-0.6c-0.4-0.4-0.6-1.1-0.6-2.2v-4H206V99h1.2v-1.5l1.7-0.5v2h2V100.4z"/>
				<path fill="#FFFFFF" d="M220.3,107h-1.8v-4.6c0-1.4-0.5-2.2-1.6-2.2c-0.8,0-1.4,0.4-1.7,1.2c-0.1,0.2-0.1,0.4-0.1,0.6v4.8h-1.8
					V95.3h1.8v4.8h0c0.6-0.9,1.4-1.3,2.4-1.3c0.7,0,1.3,0.2,1.8,0.7c0.6,0.6,0.9,1.5,0.9,2.7V107z"/>
				<path fill="#FFFFFF" d="M230,102.6c0,0.3,0,0.6-0.1,0.8h-5.3c0,0.8,0.3,1.4,0.8,1.8c0.5,0.4,1,0.6,1.7,0.6
					c0.8,0,1.5-0.1,2.2-0.4l0.3,1.2c-0.8,0.3-1.7,0.5-2.7,0.5c-1.2,0-2.2-0.4-2.9-1.1c-0.7-0.7-1.1-1.7-1.1-2.9c0-1.2,0.3-2.2,1-3
					c0.7-0.9,1.6-1.3,2.8-1.3c1.2,0,2,0.4,2.6,1.3C229.8,100.8,230,101.6,230,102.6z M228.3,102.2c0-0.5-0.1-1-0.3-1.4
					c-0.3-0.5-0.8-0.7-1.4-0.7c-0.6,0-1.1,0.2-1.4,0.7c-0.3,0.4-0.5,0.8-0.5,1.4H228.3z"/>
			</g>
		</g>
	</g>
</g>
</svg>
