<?xml version="1.0" encoding="utf-8"?>
<!-- Generator: Adobe Illustrator 16.2.0, SVG Export Plug-In . SVG Version: 6.00 Build 0)  -->
<!DOCTYPE svg PUBLIC "-//W3C//DTD SVG 1.1//EN" "http://www.w3.org/Graphics/SVG/1.1/DTD/svg11.dtd">
<svg version="1.1" id="Layer_1" xmlns="http://www.w3.org/2000/svg" xmlns:xlink="http://www.w3.org/1999/xlink" x="0px" y="0px"
	 width="55px" height="55px" viewBox="0 0 55 55" enable-background="new 0 0 55 55" xml:space="preserve">
<g id="Layer_1_1_" display="none">
	<path display="inline" fill="#010101" d="M41.881,18.742c-0.783,1.123-1.762,2.133-2.941,3.032v0.672
		c0,1.925-0.362,3.875-1.098,5.847c-0.738,1.975-1.816,3.754-3.238,5.342c-1.42,1.59-3.168,2.879-5.242,3.873
		C27.286,38.503,24.893,39,22.181,39c-1.665,0-3.256-0.232-4.775-0.7c-1.521-0.463-2.951-1.11-4.287-1.946
		c0.225,0.03,0.454,0.049,0.685,0.049h0.737c2.808,0,5.243-0.818,7.3-2.455c-1.308-0.031-2.46-0.424-3.457-1.178
		c-0.996-0.754-1.675-1.711-2.03-2.865c0.388,0.099,0.75,0.143,1.077,0.143c0.294,0,0.564-0.013,0.808-0.044
		c0.244-0.03,0.497-0.08,0.758-0.144c-1.372-0.291-2.505-0.957-3.404-1.998c-0.898-1.045-1.349-2.272-1.349-3.681v-0.05
		c0.393,0.193,0.81,0.352,1.249,0.479c0.44,0.13,0.94,0.194,1.496,0.194c-0.85-0.512-1.502-1.186-1.959-2.021
		c-0.459-0.833-0.686-1.765-0.686-2.791c0-1.026,0.262-2.004,0.782-2.935c1.472,1.795,3.251,3.232,5.343,4.305
		c2.09,1.075,4.36,1.659,6.811,1.756c-0.099-0.383-0.149-0.802-0.149-1.25c0-0.801,0.154-1.564,0.468-2.288
		c0.31-0.719,0.733-1.348,1.269-1.877c0.543-0.526,1.157-0.944,1.864-1.25C31.434,16.152,32.193,16,33.012,16
		c0.883,0,1.68,0.169,2.402,0.505c0.717,0.337,1.354,0.778,1.908,1.324c0.654-0.096,1.307-0.273,1.963-0.531
		c0.65-0.256,1.254-0.53,1.811-0.82c-0.523,1.351-1.387,2.407-2.598,3.177c0.619-0.066,1.209-0.174,1.766-0.337
		c0.555-0.158,1.096-0.352,1.615-0.577L41.881,18.742z"/>
</g>
<g id="Layer_2" display="none">
	<path display="inline" fill="#010101" d="M24.125,27.514l-7.622,7.188c-0.508,0.479-0.787,1.118-0.785,1.796
		c0.002,0.677,0.281,1.311,0.783,1.783c1.014,0.959,2.784,0.961,3.802,0l7.213-6.803l7.19,6.783c0.502,0.469,1.19,0.736,1.892,0.736
		c0.717,0,1.393-0.264,1.897-0.742c0.51-0.479,0.793-1.117,0.784-1.796c0-0.676-0.278-1.312-0.784-1.782l-7.619-7.193l7.621-7.186
		c0.508-0.481,0.789-1.117,0.782-1.796c0-0.676-0.278-1.311-0.78-1.783c-1.015-0.96-2.781-0.96-3.802-0.002l-7.213,6.801
		l-7.189-6.783C19.792,16.269,19.104,16,18.403,16c-0.717,0-1.392,0.263-1.898,0.74c-0.51,0.481-0.789,1.118-0.787,1.796
		c0.002,0.678,0.281,1.311,0.787,1.785L24.125,27.514z"/>
</g>
<g id="Layer_3" display="none">
	<path display="inline" fill="#010101" d="M29.32,29.266c0.599-0.57,1.178-1.156,1.732-1.748c0.557-0.592,1.018-1.156,1.379-1.688
		c0.362-0.525,0.598-1.016,0.707-1.469c0.107-0.444,0.03-0.797-0.227-1.035c-0.383-0.373-0.738-0.717-1.059-1.043
		c-0.32-0.325-0.535-0.698-0.641-1.103c-0.104-0.405-0.056-0.896,0.16-1.468c0.216-0.572,0.661-1.269,1.352-2.086
		c0.682-0.811,1.322-1.315,1.922-1.495c0.598-0.186,1.146-0.173,1.635,0.027c0.494,0.205,0.953,0.525,1.379,0.95
		c0.431,0.431,0.834,0.83,1.222,1.196c0.429,0.405,0.64,1.083,0.64,2.02s-0.254,2.039-0.769,3.309
		c-0.515,1.263-1.28,2.651-2.312,4.159c-1.023,1.517-2.332,3.022-3.912,4.53c-1.627,1.556-3.221,2.812-4.78,3.768
		c-1.563,0.965-2.997,1.688-4.297,2.174C22.146,38.754,20.992,39,19.985,39c-1.002,0-1.719-0.225-2.148-0.678
		c-0.385-0.365-0.789-0.743-1.218-1.131c-0.429-0.385-0.748-0.822-0.964-1.314c-0.212-0.49-0.237-1.009-0.062-1.561
		c0.17-0.553,0.683-1.156,1.539-1.809c0.856-0.65,1.584-1.083,2.183-1.287c0.598-0.199,1.11-0.261,1.542-0.181
		c0.425,0.079,0.808,0.285,1.152,0.61c0.344,0.326,0.706,0.67,1.089,1.043c0.258,0.238,0.62,0.312,1.093,0.213
		c0.47-0.102,0.982-0.326,1.538-0.68c0.558-0.346,1.146-0.783,1.765-1.314C28.113,30.391,28.723,29.838,29.32,29.266z"/>
</g>
<g id="Layer_4" display="none">
	<path display="inline" fill="#010101" d="M43.25,19.493c-0.275,0.367-0.621,0.643-1.023,0.824
		c-0.207,0.122-0.604,0.344-1.188,0.655c-0.667,0.353-1.456,0.774-2.367,1.266c-0.92,0.498-1.895,1.007-2.925,1.546
		c-1.011,0.531-1.951,1.032-2.808,1.518c-0.887,0.504-1.64,0.912-2.256,1.23l-0.58,0.303c-0.276,0.144-0.443,0.229-0.482,0.247
		c-0.633,0.312-1.348,0.47-2.121,0.47c-0.731,0-1.422-0.159-2.057-0.47l-0.232-0.139c-0.139-0.078-0.398-0.212-0.783-0.402
		c-0.64-0.322-1.409-0.733-2.297-1.238c-0.86-0.487-1.795-0.988-2.812-1.519l-0.411-0.216c-0.879-0.461-1.72-0.901-2.514-1.331
		l-2.367-1.266c-0.634-0.336-1.043-0.567-1.235-0.685c-0.31-0.163-0.597-0.396-0.891-0.727c-0.322-0.371-0.522-0.751-0.625-1.188
		c-0.122-0.558-0.017-1.102,0.332-1.606C11.87,16.418,12.387,16,13.378,16h28.31c1.01,0,1.524,0.427,1.801,0.812
		c0.318,0.467,0.422,1.007,0.303,1.555C43.706,18.767,43.521,19.143,43.25,19.493L43.25,19.493z M11.25,24.648
		c0.298-0.906,1.29-1.296,2.444-0.707c0.182,0.092,0.622,0.323,1.361,0.716c0.66,0.35,1.436,0.764,2.33,1.247
		c0.908,0.491,1.886,0.994,2.925,1.528c1.048,0.539,2.025,1.042,2.922,1.509c0.889,0.47,1.654,0.867,2.349,1.226
		c0.602,0.312,0.939,0.485,1.047,0.538c0.532,0.268,1.306,0.253,1.847-0.02c0.098-0.047,0.449-0.228,1.061-0.543
		c0.641-0.334,1.406-0.73,2.303-1.207c0.896-0.465,1.87-0.966,2.922-1.505c1.043-0.534,2.016-1.035,2.92-1.525
		c0.924-0.498,1.73-0.924,2.432-1.285c0.619-0.314,0.99-0.514,1.119-0.596l0.123-0.073c0.408-0.207,0.733-0.299,1.051-0.299
		c0.703,0,1.289,0.473,1.431,1.2c0.031,0.199,0.049,0.419,0.049,0.681v10.527c0,0.729-0.313,1.406-0.925,2.015
		C42.344,38.689,41.669,39,40.952,39H14.113c-0.698,0-1.374-0.301-2.011-0.896c-0.651-0.615-0.984-1.301-0.984-2.041V25.534
		c0-0.317,0.042-0.604,0.133-0.884L11.25,24.648L11.25,24.648z"/>
</g>
<g id="Layer_5" display="none">
	<path display="inline" fill="#010101" d="M28.041,15.93c-6.314,0-9.5,4.529-9.5,8.305c0,2.287,0.867,4.32,2.723,5.08
		c0.305,0.125,0.577,0.004,0.666-0.334c0.061-0.232,0.206-0.82,0.271-1.066c0.089-0.333,0.054-0.451-0.191-0.742
		c-0.537-0.632-0.878-1.448-0.878-2.606c0-3.36,2.515-6.367,6.546-6.367c3.57,0,5.532,2.182,5.532,5.095
		c0,3.833-1.696,7.067-4.215,7.067c-1.392,0-2.432-1.148-2.098-2.562c0.399-1.684,1.173-3.501,1.173-4.717
		c0-1.088-0.585-1.997-1.793-1.997c-1.421,0-2.563,1.472-2.563,3.441c0,1.254,0.424,2.104,0.424,2.104s-1.456,6.165-1.71,7.244
		c-0.508,2.15-0.077,4.785-0.04,5.051c0.021,0.159,0.224,0.194,0.315,0.076c0.132-0.17,1.824-2.261,2.4-4.35
		c0.164-0.592,0.936-3.655,0.936-3.655c0.462,0.883,1.812,1.657,3.248,1.657c4.271,0,7.173-3.896,7.173-9.11
		c0-3.942-3.341-7.616-8.416-7.616L28.041,15.93z"/>
</g>
<g id="Layer_6" display="none">
	<path display="inline" fill="#010101" d="M36.471,20.632V16.04h-1.148v4.593H30.73v1.148h4.592v4.593h1.148V21.78h4.594v-1.148
		H36.471z M28.747,16.04h-7.1c-3.182,0-6.178,2.411-6.178,5.203c0,2.854,2.17,5.158,5.407,5.158c0.226,0,0.443-0.005,0.658-0.021
		c-0.209,0.404-0.36,0.856-0.36,1.327c0,0.793,0.427,1.436,0.967,1.961c-0.407,0-0.801,0.01-1.231,0.01
		c-3.94,0-6.974,2.512-6.974,5.115c0,2.564,3.326,4.168,7.267,4.168c4.494,0,6.977-2.549,6.977-5.115
		c0-2.055-0.605-3.285-2.482-4.611c-0.642-0.455-1.869-1.561-1.869-2.208c0-0.76,0.219-1.136,1.362-2.031
		c1.175-0.917,2.006-2.206,2.006-3.707c0-1.785-0.795-3.526-2.289-4.1h2.251L28.747,16.04z M26.269,33.404
		c0.055,0.238,0.086,0.479,0.086,0.729c0,2.072-1.335,3.691-5.165,3.691c-2.725,0-4.692-1.726-4.692-3.796
		c0-2.03,2.44-3.723,5.165-3.69c0.636,0.007,1.229,0.106,1.767,0.281C24.907,31.65,25.968,32.232,26.269,33.404z M21.904,25.676
		c-1.829-0.056-3.566-2.047-3.881-4.448c-0.317-2.402,0.91-4.24,2.738-4.185c1.828,0.054,3.567,1.981,3.882,4.383
		C24.96,23.829,23.732,25.731,21.904,25.676L21.904,25.676z"/>
</g>
<g id="Layer_7" display="none">
	<g display="inline">
		<path d="M29.876,27.75c0-1.244-1.015-2.258-2.259-2.258c-1.245,0-2.258,1.014-2.258,2.258c0,1.246,1.013,2.26,2.258,2.26
			C28.861,30.01,29.876,28.996,29.876,27.75z"/>
		<path d="M33.23,15.994H21.769c-3.158,0-5.727,2.569-5.727,5.728v1.596h8.427c0.891-0.633,1.977-1.008,3.148-1.008
			c1.173,0,2.259,0.375,3.146,1.008h4.274h3.919v-1.596C38.958,18.563,36.391,15.994,33.23,15.994z M35.551,21.442
			c0,0.35-0.285,0.636-0.636,0.636h-1.968c-0.35,0-0.637-0.286-0.637-0.636v-1.967c0-0.351,0.287-0.637,0.637-0.637h1.968
			c0.351,0,0.636,0.286,0.636,0.637V21.442z"/>
		<path d="M33.059,27.75c0,3-2.441,5.441-5.44,5.441s-5.44-2.441-5.44-5.441c0-0.826,0.187-1.609,0.516-2.312h-6.65v7.841
			c0,3.158,2.568,5.727,5.727,5.727H33.23c3.16,0,5.728-2.568,5.728-5.727v-7.841h-6.419C32.871,26.141,33.059,26.924,33.059,27.75z
			"/>
	</g>
</g>
<g id="Layer_19">
	<g id="Layer_7_1_">
		<path fill="#222222" d="M38.34,21.603c0.496,0.496,0.496,1.299,0,1.794L28.303,33.436c-0.443,0.442-1.162,0.442-1.604,0
			L16.66,23.397c-0.495-0.496-0.495-1.299,0-1.794c0.24-0.24,0.552-0.358,0.866-0.365l-0.006-0.006h19.923
			C37.768,21.231,38.093,21.355,38.34,21.603z"/>
	</g>
</g>
<g id="Layer_7_copy" display="none">
	<path display="inline" fill="#010101" d="M33.229,16H21.771c-3.157,0-5.725,2.569-5.725,5.724v11.551
		c0,3.156,2.567,5.725,5.725,5.725h11.458c3.155,0,5.725-2.568,5.725-5.725V21.724C38.953,18.569,36.385,16,33.229,16z
		 M21.771,18.122h11.458c1.986,0,3.604,1.616,3.604,3.604v1.971h-6.069c-0.889-0.632-1.975-1.007-3.146-1.007
		c-1.172,0-2.258,0.375-3.146,1.007h-6.304v-1.971C18.167,19.739,19.784,18.122,21.771,18.122L21.771,18.122z M29.874,28.125
		c0,1.244-1.013,2.258-2.258,2.258c-1.244,0-2.258-1.012-2.258-2.258s1.014-2.258,2.258-2.258
		C28.861,25.867,29.874,26.88,29.874,28.125z M33.229,36.88H21.771c-1.987,0-3.604-1.616-3.604-3.604v-7.46h4.528
		c-0.33,0.702-0.517,1.485-0.517,2.311c0,2.998,2.439,5.438,5.438,5.438s5.438-2.439,5.438-5.438c0-0.826-0.187-1.608-0.517-2.311
		h4.294v7.462C36.833,35.264,35.216,36.88,33.229,36.88L33.229,36.88z M35.171,22.008c0,0.349-0.284,0.636-0.636,0.636H32.57
		c-0.35,0-0.637-0.287-0.637-0.636v-1.966c0-0.349,0.287-0.636,0.637-0.636h1.965c0.352,0,0.636,0.287,0.636,0.636V22.008z"/>
</g>
<g id="Layer_8" display="none">
	<path display="inline" fill="#010101" d="M24.452,20.456v3.165h-2.319v3.872h2.319V39h4.769V27.492h3.192
		c0,0,0.301-1.856,0.444-3.885h-3.623v-2.648c0-0.397,0.521-0.928,1.033-0.928h2.599V16h-3.532
		C24.333,16,24.452,19.878,24.452,20.456z"/>
</g>
<g id="Layer_9" display="none">
	<path display="inline" fill="#010101" d="M36.848,16H18.155c-2.318,0-4.202,1.884-4.202,4.2v9.924c0,2.315,1.885,4.2,4.202,4.2
		h5.867l5.943,4.455C30.154,38.925,30.387,39,30.615,39c0.164,0,0.332-0.037,0.484-0.113c0.369-0.185,0.602-0.561,0.602-0.972
		v-3.589h5.145c2.315,0,4.2-1.885,4.2-4.2v-9.925C41.048,17.884,39.162,16,36.848,16L36.848,16z"/>
</g>
<g id="Layer_10" display="none">
	<path display="inline" fill="#010101" d="M22.76,38.705C22.563,38.902,22.302,39,22.046,39c-0.259,0-0.52-0.098-0.718-0.295
		c-0.392-0.396-0.392-1.034,0-1.432l9.773-9.773l-9.773-9.773c-0.392-0.396-0.392-1.036,0-1.431c0.395-0.395,1.039-0.395,1.432,0
		L33.966,27.5L22.76,38.705L22.76,38.705z"/>
</g>
<g id="Layer_11" display="none">
	<path display="inline" fill="#010101" d="M38.422,35.634l-5.256-5.256c-0.076-0.075-0.172-0.108-0.256-0.17
		c0.938-1.44,1.49-3.159,1.49-5.008c0-5.08-4.119-9.2-9.201-9.2c-5.081,0-9.2,4.119-9.2,9.2c0,5.083,4.119,9.2,9.2,9.2
		c1.849,0,3.566-0.551,5.01-1.489c0.059,0.083,0.092,0.181,0.168,0.255l5.256,5.257C36.018,38.807,36.523,39,37.029,39
		c0.504,0,1.006-0.193,1.393-0.578C39.193,37.654,39.193,36.404,38.422,35.634L38.422,35.634z M18.628,25.2
		c0-3.621,2.949-6.572,6.572-6.572c3.622,0,6.571,2.951,6.571,6.572c0,3.625-2.949,6.571-6.571,6.571
		C21.577,31.771,18.628,28.825,18.628,25.2z"/>
</g>
<g id="Layer_12" display="none">
	<path display="inline" d="M36.326,24.748c-0.042-0.42-0.396-0.74-0.817-0.74H33.66V22.16c0-3.397-2.764-6.161-6.16-6.161
		c-3.397,0-6.162,2.764-6.162,6.161v1.848H19.49c-0.421,0-0.776,0.32-0.818,0.74l-1.334,13.348
		c-0.023,0.232,0.053,0.463,0.209,0.633C17.703,38.902,17.925,39,18.156,39h18.687c0.232,0,0.454-0.098,0.608-0.271
		c0.156-0.17,0.232-0.399,0.21-0.633L36.326,24.748z M27.5,18.978c1.754,0,3.184,1.428,3.184,3.183v1.848h-6.369v-1.848
		C24.316,20.406,25.744,18.978,27.5,18.978z"/>
</g>
<g id="Layer_13" display="none">
	<path display="inline" fill="#010101" d="M39.514,24.729c-0.104-0.317-0.397-0.533-0.731-0.533h-8.058l-2.492-7.664
		C28.129,16.215,27.833,16,27.5,16c-0.334,0-0.63,0.215-0.733,0.533l-2.49,7.664h-8.058c-0.334,0-0.63,0.215-0.733,0.533
		s0.011,0.665,0.28,0.861l6.519,4.738l-2.49,7.663c-0.104,0.316,0.01,0.664,0.28,0.861C20.209,38.951,20.369,39,20.527,39
		c0.159,0,0.319-0.049,0.454-0.146l6.519-4.735l6.52,4.735c0.271,0.195,0.635,0.195,0.906-0.002c0.27-0.197,0.383-0.543,0.279-0.861
		l-2.489-7.662l6.519-4.738C39.505,25.393,39.618,25.045,39.514,24.729L39.514,24.729z"/>
</g>
<g id="Layer_14" display="none">
	<g display="inline">
		<path d="M38.152,36.001H16.847c-0.826,0-1.5,0.673-1.5,1.5S16.021,39,16.847,39h21.305c0.826,0,1.502-0.672,1.502-1.499
			S38.979,36.001,38.152,36.001z"/>
		<path d="M38.152,26H16.847c-0.826,0-1.5,0.673-1.5,1.5s0.674,1.5,1.5,1.5h21.305c0.826,0,1.502-0.673,1.502-1.5
			C39.652,26.673,38.979,26,38.152,26z"/>
		<path d="M16.847,19h21.305c0.826,0,1.502-0.673,1.502-1.5S38.979,16,38.152,16H16.847c-0.826,0-1.5,0.673-1.5,1.5
			S16.021,19,16.847,19z"/>
	</g>
</g>
<g id="Layer_15" display="none">
	<path display="inline" fill="#010101" d="M13.087,38.079L27.52,23.644l14.44,14.439c1.231,1.224,3.243,1.222,4.485-0.011
		c1.187-1.198,1.181-3.307-0.006-4.483L29.824,16.971l-0.471-0.434l-0.088-0.002C28.751,16.189,28.143,16,27.519,16
		c-0.589,0-1.153,0.161-1.645,0.462h-0.15L8.6,33.586c-0.601,0.6-0.933,1.396-0.933,2.247s0.329,1.646,0.936,2.251
		c1.232,1.221,3.241,1.225,4.482-0.005H13.087z"/>
</g>
<g id="Layer_16" display="none">
	<path display="inline" fill="#010101" d="M21.362,23.906V39l12.275-11.5L21.362,16V23.906z"/>
</g>
<g id="Layer_17" display="none">
	<path display="inline" fill="#010101" d="M33.639,16L21.362,27.5L33.639,39V23.906V16z"/>
</g>
</svg>
