<?xml version="1.0" encoding="utf-8"?>
<!-- Generator: Adobe Illustrator 17.1.0, SVG Export Plug-In . SVG Version: 6.00 Build 0)  -->
<!DOCTYPE svg PUBLIC "-//W3C//DTD SVG 1.1//EN" "http://www.w3.org/Graphics/SVG/1.1/DTD/svg11.dtd">
<svg version="1.1" id="Layer_1" xmlns="http://www.w3.org/2000/svg" xmlns:xlink="http://www.w3.org/1999/xlink" x="0px" y="0px"
	 viewBox="0 0 50.6 44.6" enable-background="new 0 0 50.6 44.6" xml:space="preserve">
<path fill="#010202" d="M26.7,34.7c-0.5,0-0.9-0.2-1.3-0.5L19,27.8h-4.9c-1,0-1.8-0.8-1.8-1.8v-7.5c0-1,0.8-1.8,1.8-1.8H19l6.4-6.4
	c0.3-0.3,0.8-0.5,1.3-0.5c1,0,1.8,0.8,1.8,1.8v21.3C28.5,33.9,27.7,34.7,26.7,34.7z"/>
<path fill="#010202" d="M39.6,18.8l-2.6,2.6l-2.6-2.6c-0.2-0.2-0.6-0.2-0.8,0c-0.2,0.2-0.2,0.6,0,0.8l2.6,2.6l-2.6,2.6
	c-0.2,0.2-0.2,0.6,0,0.8c0.2,0.2,0.6,0.2,0.8,0l2.6-2.6l2.6,2.6c0.2,0.2,0.6,0.2,0.8,0c0.2-0.2,0.2-0.6,0-0.8l-2.6-2.6l2.6-2.6
	c0.2-0.2,0.2-0.6,0-0.8S39.9,18.6,39.6,18.8z"/>
</svg>
