<?xml version="1.0" encoding="utf-8"?>
<!-- Generator: Adobe Illustrator 17.1.0, SVG Export Plug-In . SVG Version: 6.00 Build 0)  -->
<!DOCTYPE svg PUBLIC "-//W3C//DTD SVG 1.1//EN" "http://www.w3.org/Graphics/SVG/1.1/DTD/svg11.dtd">
<svg version="1.1" id="Layer_1" xmlns="http://www.w3.org/2000/svg" xmlns:xlink="http://www.w3.org/1999/xlink" x="0px" y="0px"
	 viewBox="0 0 50.6 44.6" enable-background="new 0 0 50.6 44.6" xml:space="preserve">
<path fill="#010202" d="M26.7,34.7c-0.5,0-0.9-0.2-1.3-0.5L19,27.8h-4.9c-1,0-1.8-0.8-1.8-1.8v-7.5c0-1,0.8-1.8,1.8-1.8H19l6.4-6.4
	c0.3-0.3,0.8-0.5,1.3-0.5c1,0,1.8,0.8,1.8,1.8v21.3C28.5,33.9,27.7,34.7,26.7,34.7z"/>
<g>
	<path fill="#212121" d="M34,24.2c-0.1,0-0.1,0-0.2,0c-0.3,0-0.5-0.2-0.5-0.5c0-0.6,0.9-0.4,0.9-1.4c0-1-0.9-0.8-0.9-1.4
		c0-0.3,0.2-0.5,0.5-0.5c0.1,0,0.1,0,0.2,0c0.8,0.3,1.3,1.1,1.3,1.9C35.3,23.1,34.8,23.9,34,24.2z M34.9,26.1c-0.1,0-0.1,0-0.2,0
		c-0.3,0-0.5-0.2-0.5-0.5c0-0.2,0.1-0.4,0.3-0.5c0.2-0.1,0.4-0.2,0.6-0.4c0.8-0.6,1.3-1.5,1.3-2.5c0-1-0.5-1.9-1.3-2.5
		c-0.2-0.1-0.4-0.2-0.6-0.4c-0.2-0.1-0.3-0.3-0.3-0.5c0-0.3,0.2-0.5,0.5-0.5c0.1,0,0.1,0,0.2,0c1.5,0.6,2.5,2.2,2.5,3.8
		C37.4,24,36.4,25.5,34.9,26.1z M35.7,28.1c-0.1,0-0.1,0-0.2,0c-0.3,0-0.5-0.2-0.5-0.5c0-0.2,0.1-0.4,0.3-0.5
		c0.1-0.1,0.2-0.1,0.4-0.2c0.2-0.1,0.5-0.3,0.7-0.4c1.3-1,2.1-2.5,2.1-4.2c0-1.7-0.8-3.2-2.1-4.2c-0.2-0.2-0.4-0.3-0.7-0.4
		c-0.1-0.1-0.3-0.1-0.4-0.2C35.1,17.4,35,17.3,35,17c0-0.3,0.2-0.5,0.5-0.5c0.1,0,0.1,0,0.2,0c2.3,1,3.8,3.3,3.8,5.8
		C39.5,24.8,38,27.1,35.7,28.1z"/>
</g>
</svg>
