<?xml version="1.0" encoding="utf-8"?>
<!-- Generator: Adobe Illustrator 18.1.0, SVG Export Plug-In . SVG Version: 6.00 Build 0)  -->
<svg version="1.1" id="Layer_1" xmlns="http://www.w3.org/2000/svg" xmlns:xlink="http://www.w3.org/1999/xlink" x="0px" y="0px"
	 viewBox="159 230.1 347 276.5" enable-background="new 159 230.1 347 276.5" xml:space="preserve">
<g id="Layer_7">
	<path fill="#222222" d="M456.9,333.1c-1.4-1.4-4.7-3.1-6.7-3.1h-100l-31.4-96.1c0-2-3.9-3.9-5.9-3.9c-3.9,0-5.9,2-5.9,3.9
		L275.6,330h-100c-3.9,0-5.9,2-5.9,3.9c0,2,0,5.9,2,7.8l82.4,58.8l-31.5,96.2c0,2,0,5.9,2,7.8c2,2,5.9,2,7.8,0l82.4-58.8l82.4,58.8
		c2,1,2,2,3.9,2c2,0,3.3,0.5,5.1-1.5c2-2,1.7-6.5,0.8-8.3l-31.4-96.1l82.4-58.9C461.1,338.6,458.2,334.4,456.9,333.1z"/>
</g>
</svg>
