<?xml version="1.0" encoding="utf-8"?>
<!-- Generator: Adobe Illustrator 18.1.0, SVG Export Plug-In . SVG Version: 6.00 Build 0)  -->
<svg version="1.1" id="Layer_1" xmlns="http://www.w3.org/2000/svg" xmlns:xlink="http://www.w3.org/1999/xlink" x="0px" y="0px"
	 viewBox="0 0 32 15" enable-background="new 0 0 32 15" xml:space="preserve">
<g>
	<polygon points="1,0.3 1.5,0.3 1.5,14.6 1,14.6 	"/>
	<polygon points="0,0.3 0.8,0.3 0.8,14.6 0,14.6 	"/>
	<polygon points="31.1,0.3 32,0.3 32,14.6 31.1,14.6 	"/>
	<g>
		<rect x="2.2" y="0.3" width="1.5" height="6.3"/>
		<rect x="4.2" y="0.3" width="0.5" height="6.3"/>
		<rect x="5.1" y="0.3" width="0.8" height="6.3"/>
		<rect x="6.7" y="0.3" width="0.5" height="6.3"/>
		<rect x="7.4" y="0.3" width="0.4" height="6.3"/>
		<rect x="10.3" y="0.3" width="1.5" height="6.3"/>
		<rect x="12.3" y="0.3" width="0.5" height="6.3"/>
		<rect x="13.2" y="0.3" width="0.9" height="6.3"/>
		<rect x="14.9" y="0.3" width="0.5" height="6.3"/>
		<rect x="15.5" y="0.3" width="0.4" height="6.3"/>
		<rect x="9.2" y="0.3" width="0.5" height="6.3"/>
		<rect x="8.1" y="0.3" width="0.8" height="6.3"/>
		<rect x="16.5" y="0.3" width="0.9" height="6.3"/>
		<rect x="18.2" y="0.3" width="0.5" height="6.3"/>
		<rect x="18.8" y="0.3" width="0.4" height="6.3"/>
		<rect x="20.6" y="0.3" width="0.4" height="6.3"/>
		<rect x="19.5" y="0.3" width="0.9" height="6.3"/>
		<rect x="21.7" y="0.3" width="0.5" height="6.3"/>
		<rect x="22.3" y="0.3" width="0.4" height="6.3"/>
		<rect x="24.1" y="0.3" width="0.5" height="6.3"/>
		<rect x="23" y="0.3" width="0.8" height="6.3"/>
		<rect x="24.9" y="0.3" width="1.5" height="6.3"/>
		<rect x="27" y="0.3" width="0.5" height="6.3"/>
		<rect x="27.9" y="0.3" width="0.8" height="6.3"/>
		<rect x="29.5" y="0.3" width="0.5" height="6.3"/>
		<rect x="30.2" y="0.3" width="0.4" height="6.3"/>
	</g>
	<path d="M2.3,14.3V7.1H5c0.6,0,1,0.1,1.3,0.2C6.7,7.5,6.9,7.7,7.1,8c0.2,0.3,0.3,0.6,0.3,1c0,0.3-0.1,0.6-0.3,0.9
		c-0.2,0.3-0.4,0.5-0.8,0.7c0.4,0.1,0.8,0.3,1,0.6c0.2,0.3,0.4,0.7,0.4,1.1c0,0.3-0.1,0.6-0.2,1c-0.1,0.3-0.3,0.5-0.5,0.7
		c-0.2,0.2-0.5,0.3-0.8,0.4c-0.3,0.1-0.7,0.1-1.2,0.1H2.3L2.3,14.3z M3.2,10.1h1.6c0.4,0,0.7,0,0.9-0.1C6,10,6.2,9.9,6.3,9.7
		c0.1-0.2,0.2-0.4,0.2-0.6S6.4,8.6,6.3,8.4C6.2,8.2,6,8.1,5.8,8C5.6,8,5.2,7.9,4.7,7.9H3.3L3.2,10.1L3.2,10.1z M3.2,13.5H5
		c0.3,0,0.5,0,0.6,0c0.2,0,0.4-0.1,0.6-0.2c0.2-0.1,0.3-0.2,0.4-0.4c0.1-0.2,0.1-0.4,0.1-0.6c0-0.3-0.1-0.5-0.2-0.7
		c-0.1-0.2-0.3-0.3-0.6-0.4S5.4,11,4.9,11H3.2L3.2,13.5L3.2,13.5z"/>
	<path d="M8.6,11.7c0-1,0.3-1.7,0.8-2.2c0.4-0.4,1-0.6,1.7-0.6c0.7,0,1.3,0.2,1.8,0.7c0.4,0.5,0.7,1.1,0.7,2c0,0.7-0.1,1.2-0.3,1.6
		c-0.2,0.4-0.5,0.7-0.9,0.9c-0.4,0.2-0.8,0.3-1.3,0.3c-0.7,0-1.3-0.2-1.8-0.7C8.8,13.3,8.6,12.6,8.6,11.7L8.6,11.7z M9.5,11.7
		c0,0.7,0.1,1.2,0.4,1.5c0.3,0.3,0.7,0.5,1.1,0.5s0.8-0.2,1.1-0.5c0.3-0.3,0.4-0.8,0.4-1.5c0-0.6-0.1-1.1-0.4-1.5
		c-0.3-0.3-0.7-0.5-1.1-0.5c-0.4,0-0.8,0.2-1.1,0.5C9.7,10.5,9.5,11,9.5,11.7L9.5,11.7z"/>
	<polygon points="14.5,14.3 14.5,7.1 15.4,7.1 15.4,14.3 	"/>
	<path d="M20.4,12.6l0.9,0.1c-0.1,0.5-0.4,1-0.8,1.2c-0.4,0.3-0.9,0.4-1.5,0.4c-0.8,0-1.4-0.2-1.8-0.7c-0.4-0.5-0.7-1.1-0.7-2
		c0-0.9,0.2-1.6,0.7-2S18.2,9,19,9c0.7,0,1.3,0.2,1.7,0.7c0.4,0.5,0.7,1.1,0.7,2c0,0.1,0,0.1,0,0.2h-3.9c0,0.6,0.2,1,0.5,1.3
		c0.3,0.3,0.6,0.4,1.1,0.4c0.3,0,0.6-0.1,0.8-0.3C20.1,13.3,20.2,13,20.4,12.6L20.4,12.6z M17.5,11.2h2.9c0-0.4-0.1-0.8-0.3-1
		c-0.3-0.3-0.6-0.5-1.1-0.5c-0.4,0-0.8,0.1-1,0.4C17.7,10.4,17.5,10.8,17.5,11.2L17.5,11.2z"/>
	<path d="M24.4,13.5l0.1,0.8c-0.3,0.1-0.5,0.1-0.7,0.1c-0.3,0-0.6-0.1-0.8-0.1c-0.2-0.1-0.3-0.2-0.4-0.4c-0.1-0.2-0.1-0.5-0.1-1.1
		v-3h-0.6V9.1h0.6V7.8l0.9-0.5v1.8h0.9v0.7h-0.9v3.1c0,0.3,0,0.4,0.1,0.5s0.1,0.1,0.1,0.2c0.1,0.1,0.2,0.1,0.3,0.1
		C24.1,13.6,24.2,13.6,24.4,13.5L24.4,13.5z"/>
	<path d="M24.9,11.7c0-1,0.3-1.7,0.8-2.2c0.4-0.4,1-0.6,1.7-0.6c0.7,0,1.3,0.2,1.8,0.7c0.4,0.5,0.7,1.1,0.7,2c0,0.7-0.1,1.2-0.3,1.6
		s-0.5,0.7-0.9,0.9c-0.4,0.2-0.8,0.3-1.3,0.3c-0.7,0-1.3-0.2-1.8-0.7C25.1,13.3,24.9,12.6,24.9,11.7L24.9,11.7z M25.8,11.7
		c0,0.7,0.1,1.2,0.4,1.5c0.3,0.3,0.7,0.5,1.1,0.5c0.4,0,0.8-0.2,1.1-0.5c0.3-0.3,0.4-0.8,0.4-1.5c0-0.6-0.1-1.1-0.4-1.5
		c-0.3-0.3-0.7-0.5-1.1-0.5c-0.4,0-0.8,0.2-1.1,0.5C26,10.5,25.8,11,25.8,11.7L25.8,11.7z"/>
</g>
</svg>
