<?xml version="1.0" encoding="utf-8"?>
<!-- Generator: Adobe Illustrator 18.1.0, SVG Export Plug-In . SVG Version: 6.00 Build 0)  -->
<svg version="1.1" id="Layer_1" xmlns="http://www.w3.org/2000/svg" xmlns:xlink="http://www.w3.org/1999/xlink" x="0px" y="0px"
	 viewBox="0 0 612 792" enable-background="new 0 0 612 792" xml:space="preserve">
<path fill="#AAAAAB" d="M598.8,314.4H385.6l-67-204.9c0-4.2-8.3-8.3-12.6-8.3c-8.3,0-12.6,4.2-12.6,8.3l-67,204.9H13.2
	c-8.3,0-12.6,4.2-12.6,8.3c0,4.2,0,12.6,4.2,16.7l175.7,125.4L113.3,670c0,4.2,0,12.6,4.2,16.7c4.2,4.2,12.6,4.2,16.7,0l175.7-125.4
	l175.7,125.4c3.4,1.9,2.5,4.2,8.3,4.2c4.2,0,4.2,0,8.3-4.2c3.1-3.1-4.2-14.8-4.2-16.7l-67-205l175.7-125.4c4.7-4.3,4.7-8.5,4.7-16.9
	C611.4,318.5,603.1,314.4,598.8,314.4z"/>
<g>
	<defs>
		<rect id="SVGID_1_" x="-11" y="67" width="317" height="652"/>
	</defs>
	<clipPath id="SVGID_2_">
		<use xlink:href="#SVGID_1_"  overflow="visible"/>
	</clipPath>
	<g id="Layer_7_1_" clip-path="url(#SVGID_2_)">
		<path fill="#222222" d="M610.4,321.7c0-4.2-8.3-8.3-12.6-8.3H384.6l-67-204.9c0-4.2-8.3-8.3-12.6-8.3c-8.3,0-12.6,4.2-12.6,8.3
			l-67,204.9H12.2c-8.3,0-12.6,4.2-12.6,8.3c0,4.2,0,12.6,4.2,16.7l175.7,125.4L112.3,669c0,4.2,0,12.6,4.2,16.7
			c4.2,4.2,12.6,4.2,16.7,0l175.7-125.4l175.7,125.4c3.4,1.9,2.5,4.2,8.3,4.2c4.2,0,4.2,0,8.3-4.2c3.1-3.1-4.2-14.8-4.2-16.7
			l-67-205l175.7-125.4C610.4,334.3,610.4,330.1,610.4,321.7z"/>
	</g>
</g>
</svg>
