<?xml version="1.0" encoding="UTF-8" standalone="no"?>
<!-- Created with Inkscape (http://www.inkscape.org/) -->

<svg
   xmlns:dc="http://purl.org/dc/elements/1.1/"
   xmlns:cc="http://creativecommons.org/ns#"
   xmlns:rdf="http://www.w3.org/1999/02/22-rdf-syntax-ns#"
   xmlns:svg="http://www.w3.org/2000/svg"
   xmlns="http://www.w3.org/2000/svg"
   xmlns:sodipodi="http://sodipodi.sourceforge.net/DTD/sodipodi-0.dtd"
   xmlns:inkscape="http://www.inkscape.org/namespaces/inkscape"
   width="200"
   height="77.181915"
   id="svg2"
   version="1.1"
   inkscape:version="0.48.3.1 r9886"
   sodipodi:docname="Norton_Logo.svg">
  <defs
     id="defs4" />
  <sodipodi:namedview
     id="base"
     pagecolor="#ffffff"
     bordercolor="#666666"
     borderopacity="1.0"
     inkscape:pageopacity="0.0"
     inkscape:pageshadow="2"
     inkscape:zoom="5.6"
     inkscape:cx="97.823795"
     inkscape:cy="42.788955"
     inkscape:document-units="px"
     inkscape:current-layer="layer1"
     showgrid="false"
     inkscape:snap-page="true"
     fit-margin-top="0"
     fit-margin-left="0"
     fit-margin-right="0"
     fit-margin-bottom="0"
     borderlayer="true"
     showguides="true"
     inkscape:guide-bbox="true"
     inkscape:snap-to-guides="false"
     inkscape:object-nodes="false"
     inkscape:window-width="1920"
     inkscape:window-height="1024"
     inkscape:window-x="-4"
     inkscape:window-y="-4"
     inkscape:window-maximized="1" />
  <metadata
     id="metadata7">
    <rdf:RDF>
      <cc:Work
         rdf:about="">
        <dc:format>image/svg+xml</dc:format>
        <dc:type
           rdf:resource="http://purl.org/dc/dcmitype/StillImage" />
        <dc:title></dc:title>
      </cc:Work>
    </rdf:RDF>
  </metadata>
  <g
     inkscape:label="Layer 1"
     inkscape:groupmode="layer"
     id="layer1"
     transform="translate(0,-952.36218)">
    <path
       style="fill:#feb511;fill-opacity:1;stroke:none"
       d="M 33.46875 10.25 C 14.988586 10.25 4.4057993e-017 25.23858 0 43.71875 C 0 62.19886 14.988586 77.1875 33.46875 77.1875 C 51.948914 77.1875 66.9375 62.19886 66.9375 43.71875 C 66.9375 25.23858 51.948914 10.25 33.46875 10.25 z M 33.34375 20.75 C 46.03578 20.75 56.3125 31.02669 56.3125 43.71875 C 56.3125 56.41074 46.03578 66.6875 33.34375 66.6875 C 20.65172 66.6875 10.34375 56.41074 10.34375 43.71875 C 10.34375 31.02669 20.65172 20.75 33.34375 20.75 z "
       transform="translate(0,952.36218)"
       id="path3777" />
    <path
       style="fill:#000000;fill-opacity:1;stroke:none"
       d="m 76.875,17.46875 0,29.15625 5.8125,0 0,-20.21875 L 93,46.625 l 6.28125,0 0,-29.15625 -5.8125,0 0,18.1875 -9.53125,-18.1875 -1.25,0 -4.5625,0 z"
       transform="translate(0,952.36218)"
       id="rect3787"
       inkscape:connector-curvature="0"
       sodipodi:nodetypes="ccccccccccccc" />
    <path
       style="fill:#000000;fill-opacity:1;stroke:none"
       d="M 112.5625 24.6875 C 106.40705 24.6875 101.4375 29.65705 101.4375 35.8125 C 101.4375 41.96798 106.40705 46.96875 112.5625 46.96875 C 118.71795 46.96875 123.71875 41.96798 123.71875 35.8125 C 123.71875 29.65705 118.71795 24.6875 112.5625 24.6875 z M 112.59375 30.09375 C 115.74248 30.09375 118.28125 32.66377 118.28125 35.8125 C 118.28125 38.96125 115.74248 41.5 112.59375 41.5 C 109.44502 41.5 106.875 38.96125 106.875 35.8125 C 106.875 32.66377 109.44502 30.09375 112.59375 30.09375 z "
       transform="translate(0,952.36218)"
       id="path3796" />
    <path
       style="fill:#000000;fill-opacity:1;stroke:none"
       d="m 125.22735,25.159059 0,21.465741 6.31345,0 0,-8.712565 c 0,-3.088851 0.67457,-4.915762 1.79564,-6.240084 1.16258,-1.37335 2.1848,-2.178859 5.307,-2.219944 l 2.36754,0.03156 0.0316,9.81742 c 0.005,1.501938 0.0806,2.768332 0.41784,3.847884 0.77468,2.479904 2.6591,3.838846 6.30599,3.838746 1.666,-4.6e-5 3.28986,-0.222814 4.82979,-0.789182 l -0.75762,-4.356283 c -0.72235,0.276265 -1.58485,0.451805 -2.24127,0.457725 -1.85236,0.01671 -2.27889,-0.793499 -2.27285,-2.730568 l 0,-10.085743 4.54569,-2e-6 0.0158,-4.324702 -4.56147,0 -0.0157,-6.076713 -5.09812,-0.01579 -1.08908,6.092496 -2.96731,0 c -0.94834,0 -1.67695,0.0084 -2.39498,0.189404 -3.03994,0.766515 -4.2878,3.002322 -5.0549,4.40362 l -1.78355,-4.593024 z"
       id="path3805"
       inkscape:connector-curvature="0"
       transform="translate(0,952.36218)"
       sodipodi:nodetypes="cccssscsssccsscccccccssccc" />
    <path
       id="path3807"
       d="m 163.73303,977.04968 c -6.15545,0 -11.125,4.96955 -11.125,11.125 0,6.15548 4.96955,11.15625 11.125,11.15625 6.15545,0 11.15625,-5.00077 11.15625,-11.15625 0,-6.15545 -5.0008,-11.125 -11.15625,-11.125 z m 0.0312,5.40625 c 3.14873,0 5.6875,2.57002 5.6875,5.71875 0,3.14875 -2.53877,5.6875 -5.6875,5.6875 -3.14873,0 -5.71875,-2.53875 -5.71875,-5.6875 0,-3.14873 2.57002,-5.71875 5.71875,-5.71875 z"
       style="fill:#000000;fill-opacity:1;stroke:none"
       inkscape:connector-curvature="0" />
    <path
       style="fill:#000000;fill-opacity:1;stroke:none"
       d="M 188.75 24.6875 C 185.86216 24.703391 183.48975 26.093226 181.28125 28.46875 L 180.0625 25.15625 L 176.375 25.15625 L 176.375 46.625 L 182.53125 46.625 L 182.53125 31.875 C 183.16022 31.161671 184.58363 29.842237 186.40625 29.84375 C 188.72049 29.84565 189.55978 31.333723 189.5625 33 L 189.59375 46.625 L 195.875 46.625 L 195.875 32.8125 C 195.88 27.440158 192.75584 24.665453 188.75 24.6875 z "
       transform="translate(0,952.36218)"
       id="rect3809" />
    <g
       transform="matrix(0.38916256,0,0,0.43261821,128.43818,970.99356)"
       style="font-size:8px;font-style:normal;font-variant:normal;font-weight:normal;font-stretch:normal;line-height:125%;letter-spacing:0px;word-spacing:0px;fill:#000000;fill-opacity:1;stroke:none;font-family:Arial;-inkscape-font-specification:Arial"
       id="flowRoot3818">
      <path
         d="m 174.75361,20.840838 0,-4.741204 -1.54257,0 0,-0.985359 4.30963,0 0,0.985359 -1.57907,0 0,4.741204 z"
         id="path3827"
         inkscape:connector-curvature="0"
         style="fill:#000000;fill-opacity:1"
         sodipodi:nodetypes="ccccccccc" />
      <path
         d="m 178.33583,20.840838 0,-5.726563 1.71421,0 1.14137,3.793027 1.07353,-3.793027 1.62178,0 0,5.726563 -0.90254,0 0,-4.457594 -1.40595,4.457594 -0.85568,0 -1.28342,-4.539625 0,4.539625 z"
         id="path3829"
         inkscape:connector-curvature="0"
         sodipodi:nodetypes="cccccccccccccc"
         style="fill:#000000;fill-opacity:1" />
    </g>
    <g
       id="g3882">
      <path
         id="path3831"
         transform="translate(0,952.36218)"
         d="M 67.25 2.625 L 67.25 5.1875 L 69.8125 5.1875 L 69.8125 2.625 L 67.25 2.625 z M 67.25 5.1875 L 62.5 5.1875 L 62.5 7.75 L 67.25 7.75 L 67.25 5.1875 z M 62.5 7.75 L 60.125 7.75 L 60.125 12.75 L 62.5 12.75 L 62.5 7.75 z M 62.5 12.75 L 62.5 15.1875 L 64.9375 15.1875 L 64.9375 12.75 L 62.5 12.75 z M 64.9375 12.75 L 67.625 12.75 L 67.625 10.34375 L 64.9375 10.34375 L 64.9375 12.75 z M 62.5 15.1875 L 60.125 15.1875 L 60.125 17.6875 L 57.65625 17.6875 L 57.65625 15.1875 L 53.625 15.1875 L 53.625 16.96875 L 51.4375 16.96875 L 51.4375 19.15625 L 53.84375 19.15625 L 53.84375 21.59375 L 51.40625 21.59375 L 51.4375 19.15625 L 48.8125 19.15625 L 48.8125 23 L 46.375 23 L 46.375 25.40625 L 44.71875 25.40625 L 44.71875 27.84375 L 42.96875 27.84375 C 39.2053 34.015794 36.185462 39.718296 34.4375 43.9375 C 29.639597 37.550119 27.389015 35.249329 23.34375 33 C 21.898028 32.196118 20.610452 31.821721 19.6875 32.34375 C 18.728373 32.886237 18.446292 34.597551 19.65625 35.9375 C 27.167107 44.255281 28.518496 48.692625 31.25 55.03125 C 32.06406 56.920328 33.599306 57.732151 35.34375 57.78125 C 36.275735 57.807478 37.420016 57.525036 38.1875 56.625 C 38.543307 56.207742 38.647349 55.637208 38.9375 54.9375 C 41.219986 49.43322 43.753302 43.913832 47.40625 38.65625 L 47.4375 35.90625 L 49.375 35.90625 L 49.34375 33.46875 L 51.4375 33.46875 L 51.40625 30.5625 L 53.84375 30.5625 L 53.84375 27.90625 L 51.375 27.90625 L 51.40625 25.40625 L 53.84375 25.40625 L 53.84375 27.90625 L 56.28125 27.90625 L 56.28125 25.375 L 58.1875 25.375 L 58.1875 22.40625 L 60.40625 22.40625 L 60.40625 20.375 L 62.5 20.375 L 62.5 15.1875 z M 57.65625 15.1875 L 60.125 15.1875 L 60.125 12.75 L 57.65625 12.75 L 57.65625 15.1875 z M 57.65625 12.75 L 57.65625 10.40625 L 55.1875 10.40625 L 55.1875 12.75 L 57.65625 12.75 z "
         style="fill:#000000;fill-opacity:1;stroke:none" />
      <path
         style="fill:#feb511;fill-opacity:1;stroke:none"
         d="m 62.500005,960.12445 2.433043,0 0,2.56698 -2.433043,0 z"
         id="path3858"
         inkscape:connector-curvature="0" />
      <path
         inkscape:connector-curvature="0"
         id="path3864"
         d="m 69.799128,957.55747 2.633937,0 0,2.56698 -2.633937,0 z"
         style="fill:#feb511;fill-opacity:1;stroke:none" />
      <path
         style="fill:#feb511;fill-opacity:1;stroke:none"
         d="m 69.799128,952.36218 2.633937,0 0,2.62831 -2.633937,0 z"
         id="path3866"
         inkscape:connector-curvature="0" />
    </g>
    <g
       transform="matrix(0.99093914,0,0,0.99093914,-0.00924668,951.79201)"
       style="font-size:20px;font-style:normal;font-variant:normal;font-weight:normal;font-stretch:normal;line-height:125%;letter-spacing:0px;word-spacing:0px;fill:#999999;fill-opacity:1;stroke:none;font-family:a_ConceptoTitulRough;-inkscape-font-specification:a_ConceptoTitulRough"
       id="flowRoot3888">
      <path
         d="m 78.983313,70.9249 -1.17179,0 0,-16.143982 1.973128,0 0,5.968056 c 0.779292,-0.977528 1.872317,-1.650057 3.081717,-1.613056 3.276911,0.100254 4.487625,3.021035 4.524156,5.842212 0.04381,3.383297 -1.815411,6.139136 -4.81917,6.170339 -1.285093,0.01335 -2.406089,-0.559147 -3.13753,-1.63239 z m 0.812935,-2.553485 c 0.805519,0.741964 0.960507,1.144009 2.519931,1.158111 2.342978,0.02119 2.94457,-2.580108 2.939843,-4.386324 -0.006,-2.277603 -0.632716,-4.228099 -2.666345,-4.286977 -1.280203,-0.03706 -2.154963,0.595593 -2.767807,1.287793 z"
         style="font-size:21px;fill:#999999;fill-opacity:1;font-family:Arial;-inkscape-font-specification:Arial"
         id="path3897"
         inkscape:connector-curvature="0"
         sodipodi:nodetypes="cccccssscccssscc" />
      <path
         d="m 89.094712,74.95516 0.256833,-1.487974 c 1.655175,0.329005 2.850279,-0.02831 3.500958,-1.852707 l -4.100468,-12.244999 2.05297,0 2.896384,9.759667 2.736011,-9.759667 2.004983,0 -3.983298,12.685299 c -0.919425,2.92802 -3.068945,3.445227 -5.364373,2.900381 z"
         style="font-size:21px;fill:#999999;fill-opacity:1;font-family:Arial;-inkscape-font-specification:Arial"
         id="path3899"
         inkscape:connector-curvature="0"
         sodipodi:nodetypes="ccccccccsc" />
      <path
         d="m 104.47867,69.223605 1.00363,-1.385506 c 1.52756,1.093463 2.67844,1.538 4.55698,1.546209 2.03244,0.0089 3.33044,-1.048167 3.31912,-2.683329 -0.0318,-4.595451 -7.91372,-2.018604 -8.04898,-8.142994 -0.0593,-2.685176 2.33143,-4.006597 4.63747,-4.018452 1.7402,-0.0089 3.37354,0.25375 4.48433,1.038335 l -0.8678,1.56144 c -0.52205,-0.517638 -2.40006,-0.864381 -3.41998,-0.872047 -1.77704,-0.01336 -2.89889,0.689836 -2.94967,2.18234 -0.14943,4.391739 8.15784,1.974848 8.14422,8.203821 -0.006,2.905129 -2.17458,4.415195 -5.30483,4.442673 -2.89095,0.02538 -5.04164,-1.280773 -5.55449,-1.87249 z"
         style="font-size:21px;fill:#999999;fill-opacity:1;font-family:Arial;-inkscape-font-specification:Arial"
         id="path3901"
         inkscape:connector-curvature="0"
         sodipodi:nodetypes="ccssssccssssc" />
      <path
         d="m 128.40307,70.909591 0,-11.521944 1.21564,0 0.47304,1.878175 c 0.95693,-1.272778 2.61401,-2.123141 4.00808,-2.118641 1.64806,0.0053 2.3488,1.166316 2.56095,2.018476 1.03872,-1.210487 2.43332,-2.018324 3.84576,-2.029739 2.43213,-0.01966 2.98978,1.753566 2.98978,3.744469 l 0,8.029204 -1.97305,0.0074 0,-7.399881 c 0,-1.621482 -0.19484,-2.673076 -1.58269,-2.643576 -1.53971,0.03273 -2.35914,1.044636 -2.91966,1.545512 l 0,8.497945 -2.04725,0 0,-7.620144 c 0,-1.545268 -0.25144,-2.439908 -1.56369,-2.41205 -1.32264,0.02808 -1.70916,0.560034 -2.99152,1.576356 l 0,8.455838 z"
         style="font-size:21px;fill:#999999;fill-opacity:1;font-family:Arial;-inkscape-font-specification:Arial"
         id="path3905"
         inkscape:connector-curvature="0"
         sodipodi:nodetypes="ccccscssccsscccssccc" />
      <path
         d="m 153.2763,69.536631 c -1.02085,1.068052 -2.33256,1.581376 -3.56148,1.569523 -1.95919,-0.0189 -3.54625,-1.210071 -3.53857,-3.147499 0.009,-2.365231 1.63937,-3.020457 3.03656,-3.484558 1.37897,-0.458048 2.47862,-0.616823 3.72896,-0.834262 0.0541,-2.055654 -0.38131,-2.815255 -2.06285,-2.826977 -1.51485,-0.01056 -2.81549,0.679938 -3.37532,0.969934 l -0.71472,-1.318548 c 0.55324,-0.43149 1.94546,-1.305532 4.22336,-1.32493 2.49929,-0.02128 3.9883,1.381995 3.98944,4.005278 l 0.003,7.772386 -1.21528,0 -0.51297,-1.380347 z M 152.95769,64.9822 c -1.24008,0.241173 -1.92229,0.446578 -2.89649,0.756337 -1.24926,0.397218 -1.85357,1.027547 -1.83928,2.175398 0.015,1.202501 0.80827,1.666012 1.79458,1.642791 1.18077,-0.0278 1.94137,-0.413243 2.93368,-1.162136 z"
         style="font-size:21px;fill:#999999;fill-opacity:1;font-family:Arial;-inkscape-font-specification:Arial"
         id="path3907"
         inkscape:connector-curvature="0"
         sodipodi:nodetypes="cssscsccsscccccssscc" />
      <path
         d="m 175.8622,69.355982 0.30144,1.369861 c -0.6926,0.381373 -1.72808,0.355784 -2.14281,0.357033 -2.43374,0.0073 -2.79921,-1.570715 -2.79921,-3.369782 l 0,-6.908593 -1.71907,0 0,-1.435669 1.71907,0 0.58933,-3.28441 1.41,-0.0048 0,3.289257 2.59347,0 0,1.435669 -2.59347,0 0,7.012279 c 0,1.712467 0.71335,1.718964 1.38411,1.747168 0.64622,0.02717 1.25714,-0.208013 1.25714,-0.208013 z"
         style="font-size:21px;fill:#999999;fill-opacity:1;font-family:Arial;-inkscape-font-specification:Arial"
         id="path3911"
         inkscape:connector-curvature="0"
         sodipodi:nodetypes="ccssccccccccccssc" />
      <path
         d="m 185.87903,68.386161 0.83736,1.195901 c -0.87603,0.687558 -1.86063,1.528513 -3.97607,1.535044 -3.5231,0.01088 -5.09616,-2.685701 -5.08136,-5.891779 0.0147,-3.194995 1.4901,-6.068252 4.73893,-6.086013 4.03869,-0.02208 4.60747,3.877953 4.60574,6.596768 l -7.20863,0 c 0.003,2.183299 0.89157,3.767148 2.70855,3.783985 1.87769,0.0174 3.37548,-1.133906 3.37548,-1.133906 z m -6.08462,-4.03209 5.12416,0 c -0.10056,-1.809241 -0.56756,-3.71261 -2.50157,-3.689394 -2.07453,0.0249 -2.48345,1.937249 -2.62259,3.689394 z"
         style="font-size:21px;fill:#999999;fill-opacity:1;font-family:Arial;-inkscape-font-specification:Arial"
         id="path3913"
         inkscape:connector-curvature="0"
         sodipodi:nodetypes="ccsssccscccsc" />
      <path
         d="m 197.50271,69.580954 c -0.82426,0.798554 -2.13478,1.492059 -3.82799,1.504444 -3.2415,0.02371 -4.83799,-2.476844 -4.83892,-5.93168 -9.2e-4,-3.441698 1.73328,-6.011963 5.10432,-6.0178 1.49506,-0.0026 2.56964,0.593636 3.34303,1.221601 l -0.87324,1.32466 c -0.48628,-0.387541 -1.55627,-0.926281 -2.49153,-0.913177 -2.29514,0.03216 -3.00962,1.72288 -3.00413,4.33089 0.005,2.173099 0.486,4.368472 2.99424,4.392242 0.74522,0.0071 1.64621,-0.257139 2.61527,-1.097944 z"
         style="font-size:21px;fill:#999999;fill-opacity:1;font-family:Arial;-inkscape-font-specification:Arial"
         id="path3915"
         inkscape:connector-curvature="0"
         sodipodi:nodetypes="csssccssscc" />
      <path
         sodipodi:nodetypes="ccccccccsc"
         inkscape:connector-curvature="0"
         id="path3928"
         style="font-size:21px;fill:#999999;fill-opacity:1;font-family:Arial;-inkscape-font-specification:Arial"
         d="m 116.87306,74.95516 0.25684,-1.487974 c 1.65517,0.329005 2.85028,-0.02831 3.50096,-1.852707 l -4.10047,-12.244999 2.05297,0 2.89638,9.759667 2.73601,-9.759667 2.00499,0 -3.9833,12.685299 c -0.91943,2.92802 -3.06895,3.445227 -5.36438,2.900381 z" />
      <path
         sodipodi:nodetypes="ccccssccssccc"
         inkscape:connector-curvature="0"
         id="path3932"
         style="font-size:21px;fill:#999999;fill-opacity:1;font-family:Arial;-inkscape-font-specification:Arial"
         d="m 158.36202,70.909591 0,-11.521944 1.21564,0 0.47304,1.878175 c 0.95693,-1.272778 2.74919,-2.131821 4.36849,-2.118654 2.09897,0.01707 2.92109,1.866345 2.92109,3.812478 l 0,7.957332 -2.04725,0 0,-7.620144 c 0,-1.545268 -0.25144,-2.439908 -1.56369,-2.41205 -1.32264,0.02808 -2.06957,0.560047 -3.35193,1.576369 l 0,8.455838 z" />
    </g>
  </g>
</svg>
