<?xml version="1.0" encoding="utf-8"?>
<!-- Generator: Adobe Illustrator 18.1.0, SVG Export Plug-In . SVG Version: 6.00 Build 0)  -->
<svg version="1.1" id="Layer_1" xmlns="http://www.w3.org/2000/svg" xmlns:xlink="http://www.w3.org/1999/xlink" x="0px" y="0px"
	 viewBox="0 0 32 7.7" enable-background="new 0 0 32 7.7" xml:space="preserve">
<g id="Layer_1_2_" display="none">
	<g id="Layer_1_1_" display="inline">
		<path fill="#010101" d="M155,227.9c-1,1.4-2.2,2.7-3.7,3.9v0.8c0,2.5-0.5,4.9-1.4,7.4c-1,2.5-2.3,4.8-4.1,6.8
			c-1.8,2-4,3.7-6.7,4.9c-2.7,1.3-5.7,1.9-9.2,1.9c-2.1,0-4.2-0.3-6.1-0.9c-1.9-0.6-3.7-1.4-5.4-2.5c0.3,0.1,0.6,0.1,0.9,0.1h1
			c3.6,0,6.7-1,9.3-3.1c-1.7-0.1-3.1-0.5-4.4-1.5c-1.3-1-2.1-2.2-2.6-3.7c0.5,0.1,1,0.2,1.4,0.2c0.4,0,0.7,0,1-0.1
			c0.3-0.1,0.7-0.1,1-0.2c-1.7-0.4-3.2-1.2-4.3-2.5s-1.7-2.9-1.7-4.7v-0.1c0.5,0.2,1,0.4,1.6,0.6c0.5,0.2,1.2,0.2,1.9,0.2
			c-1.1-0.7-1.9-1.5-2.5-2.6c-0.6-1.1-0.9-2.2-0.9-3.6s0.3-2.5,1-3.7c1.9,2.3,4.2,4.1,6.8,5.5c2.7,1.4,5.5,2.1,8.7,2.2
			c-0.1-0.5-0.2-1-0.2-1.6c0-1,0.2-2,0.6-2.9c0.4-0.9,0.9-1.7,1.6-2.4c0.7-0.7,1.4-1.2,2.4-1.6c0.9-0.4,1.9-0.6,2.9-0.6
			c1.1,0,2.2,0.2,3.1,0.7c0.9,0.4,1.7,1,2.4,1.7c0.8-0.1,1.7-0.4,2.5-0.7c0.8-0.3,1.6-0.7,2.3-1c-0.7,1.7-1.7,3.1-3.3,4
			c0.8-0.1,1.6-0.2,2.2-0.4C153.6,228.5,154.4,228.2,155,227.9L155,227.9z"/>
	</g>
	<g id="Layer_2" display="inline">
		<path fill="#010101" d="M132.4,239.1l-9.7,9.2c-0.7,0.6-1,1.4-1,2.3c0,0.8,0.4,1.7,1,2.3c1.3,1.2,3.6,1.2,4.9,0l9.2-8.7l9.2,8.6
			c0.7,0.6,1.5,1,2.4,1c0.9,0,1.7-0.4,2.4-1c0.7-0.6,1-1.4,1-2.3s-0.4-1.7-1-2.3l-9.7-9.2l9.7-9.2c0.7-0.6,1-1.4,1-2.3
			s-0.4-1.7-1-2.3c-1.3-1.2-3.6-1.2-4.9,0l-9.2,8.7l-9.2-8.6c-0.7-0.6-1.5-1-2.4-1s-1.7,0.3-2.4,1c-0.7,0.6-1,1.4-1,2.3
			s0.4,1.7,1,2.3L132.4,239.1z"/>
	</g>
	<g id="Layer_3" display="inline">
		<path fill="#010101" d="M139,241.4c0.8-0.7,1.5-1.4,2.2-2.2c0.7-0.7,1.3-1.4,1.7-2.2s0.8-1.3,0.9-1.9c0.1-0.5,0.1-1-0.3-1.3
			c-0.5-0.5-1-0.9-1.3-1.3c-0.4-0.4-0.7-0.9-0.8-1.4c-0.1-0.5-0.1-1.1,0.2-1.9c0.3-0.7,0.8-1.6,1.7-2.7c0.9-1,1.7-1.7,2.5-1.9
			c0.8-0.2,1.4-0.2,2.1,0.1s1.2,0.7,1.7,1.2c0.5,0.5,1.1,1.1,1.6,1.5c0.5,0.5,0.8,1.4,0.8,2.6c0,1.2-0.3,2.6-1,4.2s-1.6,3.4-3,5.3
			c-1.3,1.9-3,3.9-5,5.8c-2,2-4.1,3.6-6.1,4.8c-2,1.2-3.8,2.2-5.5,2.8c-1.7,0.6-3.1,1-4.4,1c-1.3,0-2.2-0.3-2.7-0.8
			c-0.5-0.5-1-1-1.6-1.4s-1-1-1.2-1.7c-0.3-0.6-0.3-1.3-0.1-2c0.2-0.7,0.9-1.4,2-2.3s2-1.4,2.8-1.6s1.4-0.3,2-0.2
			c0.5,0.1,1,0.4,1.4,0.8s0.9,0.8,1.4,1.3c0.3,0.3,0.8,0.4,1.4,0.3c0.6-0.1,1.3-0.4,1.9-0.8c0.7-0.4,1.4-1,2.2-1.7
			C137.5,242.7,138.2,242.1,139,241.4z"/>
	</g>
	<g id="Layer_4" display="inline">
		<path fill="#010101" d="M156.7,228.9c-0.4,0.5-0.8,0.8-1.3,1c-0.2,0.2-0.8,0.4-1.5,0.8c-0.8,0.4-1.9,1-3,1.6
			c-1.2,0.7-2.4,1.3-3.7,2c-1.3,0.7-2.5,1.3-3.6,1.9c-1.1,0.7-2.1,1.1-2.9,1.6l-0.7,0.4c-0.4,0.2-0.5,0.3-0.6,0.3
			c-0.8,0.4-1.7,0.6-2.7,0.6c-0.9,0-1.8-0.2-2.7-0.6l-0.3-0.2c-0.2-0.1-0.5-0.3-1-0.5c-0.8-0.4-1.8-0.9-3-1.6
			c-1.1-0.6-2.3-1.3-3.6-1.9l-0.5-0.3c-1.1-0.6-2.2-1.1-3.2-1.7l-3-1.6c-0.8-0.4-1.3-0.7-1.6-0.9c-0.4-0.2-0.8-0.5-1.1-0.9
			c-0.4-0.5-0.7-1-0.8-1.5c-0.1-0.7,0-1.4,0.4-2c0.3-0.4,1-1,2.3-1h36c1.3,0,1.9,0.5,2.3,1c0.4,0.6,0.5,1.3,0.4,2
			C157.3,228,157.1,228.5,156.7,228.9L156.7,228.9z M116,235.5c0.4-1.1,1.6-1.6,3.1-0.9c0.2,0.1,0.8,0.4,1.7,0.9
			c0.8,0.4,1.8,1,3,1.6c1.1,0.6,2.4,1.3,3.7,1.9c1.3,0.7,2.6,1.3,3.7,1.9c1.1,0.6,2.1,1.1,3,1.6c0.8,0.4,1.2,0.6,1.3,0.7
			c0.7,0.4,1.7,0.3,2.4,0c0.1-0.1,0.6-0.3,1.3-0.7c0.8-0.4,1.8-0.9,3-1.6c1.1-0.6,2.4-1.3,3.7-1.9c1.3-0.7,2.6-1.3,3.7-1.9
			c1.2-0.7,2.2-1.2,3.1-1.6c0.8-0.4,1.3-0.7,1.4-0.8l0.2-0.1c0.5-0.2,0.9-0.4,1.3-0.4c0.9,0,1.6,0.6,1.8,1.5
			c0.1,0.2,0.1,0.5,0.1,0.9v13.4c0,0.9-0.4,1.8-1.1,2.6c-0.8,0.8-1.6,1.2-2.5,1.2h-34.2c-0.9,0-1.7-0.4-2.6-1.1
			c-0.8-0.8-1.3-1.7-1.3-2.6v-13.4C115.8,236.2,115.8,235.8,116,235.5L116,235.5L116,235.5z"/>
	</g>
	<g id="Layer_5" display="inline">
		<path fill="#010101" d="M137.4,224.4c-8,0-12.1,5.8-12.1,10.6c0,2.9,1.1,5.5,3.5,6.4c0.4,0.1,0.7,0,0.8-0.4c0.1-0.3,0.2-1,0.4-1.3
			c0.1-0.4,0.1-0.6-0.2-1c-0.7-0.8-1.1-1.9-1.1-3.3c0-4.3,3.2-8.1,8.3-8.1c4.5,0,7.1,2.8,7.1,6.5c0,4.9-2.2,9-5.4,9
			c-1.7,0-3.1-1.4-2.7-3.3c0.5-2.1,1.5-4.5,1.5-6c0-1.4-0.7-2.5-2.3-2.5c-1.8,0-3.3,1.9-3.3,4.4c0,1.6,0.5,2.7,0.5,2.7
			s-1.8,7.8-2.2,9.2c-0.7,2.7-0.1,6.1-0.1,6.4c0,0.2,0.3,0.2,0.4,0.1c0.2-0.2,2.3-2.9,3.1-5.5c0.2-0.7,1.2-4.6,1.2-4.6
			c0.6,1.1,2.3,2.1,4.2,2.1c5.4,0,9.1-4.9,9.1-11.6C148.1,229.1,143.8,224.4,137.4,224.4L137.4,224.4z"/>
	</g>
	<g id="Layer_6" display="inline">
		<path fill="#010101" d="M148.1,230.3v-5.8h-1.4v5.8h-5.8v1.4h5.8v5.8h1.4v-5.8h5.8v-1.4H148.1z M138.3,224.5h-9
			c-4,0-7.9,3.1-7.9,6.6c0,3.6,2.8,6.6,6.9,6.6c0.3,0,0.5,0,0.8,0c-0.3,0.5-0.5,1.1-0.5,1.7c0,1,0.5,1.8,1.3,2.5c-0.5,0-1,0-1.6,0
			c-5,0-8.9,3.2-8.9,6.5c0,3.3,4.2,5.3,9.3,5.3c5.7,0,8.9-3.3,8.9-6.5c0-2.6-0.8-4.2-3.2-5.8c-0.8-0.6-2.4-2-2.4-2.8
			c0-1,0.3-1.4,1.7-2.6c1.5-1.1,2.5-2.8,2.5-4.7c0-2.3-1-4.5-2.9-5.2h2.9L138.3,224.5z M135.1,246.6c0.1,0.3,0.1,0.6,0.1,0.9
			c0,2.7-1.7,4.7-6.6,4.7c-3.5,0-6-2.2-6-4.8c0-2.6,3.1-4.8,6.6-4.7c0.8,0,1.6,0.1,2.2,0.4C133.4,244.4,134.7,245.1,135.1,246.6z
			 M129.5,236.8c-2.4-0.1-4.5-2.6-4.9-5.7s1.1-5.4,3.5-5.3c2.4,0.1,4.5,2.5,4.9,5.6C133.4,234.4,131.9,236.8,129.5,236.8
			L129.5,236.8z"/>
	</g>
	<g id="Layer_7_copy" display="inline">
		<path fill="#010101" d="M144,224.4h-14.6c-4,0-7.3,3.3-7.3,7.3v14.7c0,4,3.3,7.3,7.3,7.3h14.6c4,0,7.3-3.3,7.3-7.3v-14.7
			C151.3,227.7,148,224.4,144,224.4z M129.3,227.1h14.6c2.5,0,4.6,2,4.6,4.6v2.5h-7.7c-1.1-0.8-2.5-1.3-4-1.3s-2.9,0.5-4,1.3h-8
			v-2.5C124.8,229.2,126.8,227.1,129.3,227.1L129.3,227.1z M139.7,239.9c0,1.6-1.3,2.9-2.9,2.9c-1.6,0-2.9-1.3-2.9-2.9
			c0-1.6,1.3-2.9,2.9-2.9C138.4,237,139.7,238.3,139.7,239.9z M144,251.1h-14.6c-2.5,0-4.6-2-4.6-4.6V237h5.8
			c-0.4,0.9-0.7,1.9-0.7,3c0,3.8,3.1,6.9,6.9,6.9s6.9-3.1,6.9-6.9c0-1-0.2-2-0.7-3h5.5v9.5C148.6,249,146.5,251.1,144,251.1
			L144,251.1z M146.5,232.1c0,0.4-0.4,0.8-0.8,0.8h-2.5c-0.4,0-0.8-0.4-0.8-0.8v-2.5c0-0.4,0.4-0.8,0.8-0.8h2.5
			c0.4,0,0.8,0.4,0.8,0.8V232.1z"/>
	</g>
	<g id="Layer_8" display="inline">
		<path fill="#010101" d="M132.8,230.2v4h-3v4.9h3v14.6h6.1v-14.6h4c0,0,0.4-2.4,0.5-4.9h-4.6v-3.4c0-0.5,0.7-1.2,1.3-1.2h3.3v-5.1
			H139C132.7,224.4,132.8,229.4,132.8,230.2z"/>
	</g>
	<g id="Layer_9" display="inline">
		<path fill="#010101" d="M148.6,224.4h-23.8c-3,0-5.4,2.4-5.4,5.4v12.7c0,3,2.4,5.4,5.4,5.4h7.5l7.6,5.7c0.2,0.2,0.5,0.3,0.8,0.3
			c0.2,0,0.4-0.1,0.6-0.1c0.5-0.2,0.8-0.7,0.8-1.3v-4.6h6.6c3,0,5.4-2.4,5.4-5.4v-12.7C153.9,226.8,151.5,224.4,148.6,224.4
			L148.6,224.4z"/>
	</g>
	<g id="Layer_10" display="inline">
		<path fill="#010101" d="M130.6,253.4c-0.2,0.2-0.6,0.4-0.9,0.4c-0.3,0-0.7-0.1-0.9-0.4c-0.5-0.5-0.5-1.3,0-1.8l12.4-12.4
			l-12.4-12.5c-0.5-0.5-0.5-1.3,0-1.8c0.5-0.5,1.3-0.5,1.8,0l14.3,14.3L130.6,253.4L130.6,253.4z"/>
	</g>
	<g id="Layer_11" display="inline">
		<path fill="#010101" d="M150.6,249.4l-6.7-6.7c-0.1-0.1-0.2-0.1-0.3-0.2c1.2-1.9,1.9-4,1.9-6.4c0-6.4-5.2-11.7-11.7-11.7
			s-11.7,5.2-11.7,11.7c0,6.4,5.2,11.7,11.7,11.7c2.4,0,4.5-0.7,6.4-1.9c0.1,0.1,0.1,0.2,0.2,0.3l6.7,6.7c0.5,0.5,1.1,0.7,1.7,0.7
			c0.7,0,1.3-0.2,1.7-0.7C151.6,252,151.6,250.4,150.6,249.4L150.6,249.4z M125.4,236.2c0-4.6,3.7-8.4,8.4-8.4s8.4,3.7,8.4,8.4
			s-3.7,8.4-8.4,8.4S125.4,240.8,125.4,236.2z"/>
	</g>
	<g id="Layer_12" display="inline">
		<path d="M147.9,235.6c-0.1-0.5-0.5-1-1-1h-2.4v-2.4c0-4.3-3.5-7.8-7.8-7.8c-4.3,0-7.8,3.5-7.8,7.8v2.4h-2.4c-0.5,0-1,0.4-1,1
			l-1.7,17c-0.1,0.3,0.1,0.6,0.3,0.8c0.2,0.2,0.5,0.4,0.8,0.4h23.7c0.3,0,0.6-0.1,0.8-0.4c0.2-0.2,0.3-0.5,0.3-0.8L147.9,235.6z
			 M136.6,228.2c2.2,0,4,1.8,4,4v2.4h-8.1v-2.4C132.6,230.1,134.4,228.2,136.6,228.2z"/>
	</g>
	<g id="Layer_13" display="inline">
		<path fill="#010101" d="M151.9,235.6c-0.1-0.4-0.5-0.7-0.9-0.7h-10.2l-3.2-9.8c-0.1-0.4-0.5-0.7-0.9-0.7s-0.8,0.3-0.9,0.7
			l-3.2,9.8h-10.2c-0.4,0-0.8,0.3-0.9,0.7c-0.1,0.4,0,0.8,0.4,1.1l8.3,6l-3.2,9.8c-0.1,0.4,0,0.8,0.4,1.1c0.2,0.1,0.4,0.2,0.6,0.2
			s0.4-0.1,0.6-0.2l8.3-6l8.3,6c0.4,0.2,0.8,0.2,1.1,0c0.4-0.2,0.5-0.7,0.4-1.1l-3.2-9.8l8.3-6C151.9,236.4,152.1,235.9,151.9,235.6
			L151.9,235.6z"/>
	</g>
	<g id="Layer_14" display="inline">
		<g>
			<path d="M150.2,249.9h-27.1c-1,0-1.9,0.8-1.9,1.9c0,1.1,0.8,1.9,1.9,1.9h27.1c1,0,1.9-0.8,1.9-1.9S151.3,249.9,150.2,249.9z"/>
			<path d="M150.2,237.2h-27.1c-1,0-1.9,0.8-1.9,1.9c0,1.1,0.8,1.9,1.9,1.9h27.1c1,0,1.9-0.8,1.9-1.9S151.3,237.2,150.2,237.2z"/>
			<path d="M123.1,228.3h27.1c1,0,1.9-0.8,1.9-1.9c0-1-0.8-1.9-1.9-1.9h-27.1c-1,0-1.9,0.8-1.9,1.9
				C121.2,227.4,122.1,228.3,123.1,228.3z"/>
		</g>
	</g>
	<g id="Layer_15" display="inline">
		<path fill="#010101" d="M118.3,252.6l18.4-18.4l18.4,18.4c1.6,1.6,4.1,1.6,5.7,0c1.5-1.5,1.5-4.2,0-5.7l-21.2-21.2l-0.6-0.5h-0.1
			c-0.7-0.4-1.4-0.7-2.2-0.7c-0.7,0-1.4,0.2-2.1,0.6h-0.2l-21.8,21.8c-0.8,0.8-1.2,1.7-1.2,2.9c0,1.1,0.4,2.1,1.2,2.9
			C114.2,254.1,116.8,254.1,118.3,252.6L118.3,252.6z"/>
	</g>
	<g id="Layer_16" display="inline">
		<path fill="#010101" d="M128.9,234.5v19.2l15.6-14.6l-15.6-14.6V234.5z"/>
	</g>
	<g id="Layer_17" display="inline">
		<path fill="#010101" d="M144.5,224.4l-15.6,14.6l15.6,14.6v-19.2V224.4L144.5,224.4z"/>
	</g>
	<g id="Layer_19" display="inline">
	</g>
	<g id="Layer_20" display="inline">
	</g>
	<path display="inline" fill="#107DB0" d="M37.8,26.3c-0.8,0-1.4,0.2-1.9,0.3l-0.1,1.2c0.2-0.1,1-0.3,1.6-0.4c0.6,0,1,0.1,0.8,0.7
		c-1.9,0-3.1,0.4-3.4,1.6c-0.4,2,1.9,2,2.8,1.1l-0.1,0.5h1.7L40,28C40.2,26.6,39,26.3,37.8,26.3z M37.9,29.7
		c-0.1,0.4-0.4,0.7-0.8,0.7c-0.4,0-0.7-0.3-0.5-0.7c0.2-0.3,0.7-0.4,1-0.4c0.1,0,0.3,0,0.4,0C38,29.4,37.9,29.5,37.9,29.7z"/>
	<polygon display="inline" fill="#107DB0" points="41.4,25.1 40,31.3 41.7,31.3 43.1,25.1 	"/>
	<path display="inline" fill="#107DB0" d="M33.6,25.1h-3.1l-1.4,6.3H31l0.5-2.1h1.3c1.3,0,2.3-0.8,2.6-2
		C35.6,25.7,34.5,25.1,33.6,25.1z M33.6,27.2c-0.1,0.5-0.6,0.8-1,0.8h-0.8l0.4-1.7h0.8C33.4,26.3,33.6,26.7,33.6,27.2z"/>
	<path display="inline" fill="#1B557D" d="M21.7,26.3c-0.8,0-1.4,0.2-1.9,0.3l-0.1,1.2c0.2-0.1,1-0.3,1.6-0.4c0.6,0,1,0.1,0.9,0.7
		c-1.9,0-3.1,0.4-3.3,1.6c-0.4,2,1.9,2,2.7,1.1l-0.1,0.5h1.6l0.7-3.3C24.1,26.6,22.8,26.3,21.7,26.3z M21.8,29.7
		c-0.1,0.4-0.5,0.7-0.9,0.7c-0.4,0-0.7-0.3-0.4-0.7c0.2-0.3,0.7-0.4,1-0.4c0.1,0,0.3,0,0.4,0C21.8,29.4,21.8,29.5,21.8,29.7z"/>
	<polygon display="inline" fill="#1B557D" points="24.5,26.4 26.2,26.4 26.4,29.4 28,26.4 29.8,26.4 25.8,33.4 24,33.4 25.2,31.3 	
		"/>
	<path display="inline" fill="#1B557D" d="M17.6,25.1h-3.1l-1.4,6.3h1.8l0.4-2.1h1.3c1.3,0,2.3-0.8,2.5-2
		C19.5,25.7,18.5,25.1,17.6,25.1z M17.5,27.2c-0.1,0.5-0.6,0.8-1,0.8h-0.8l0.4-1.7h0.9C17.3,26.3,17.7,26.7,17.5,27.2z"/>
	<path display="inline" fill="#1B557D" d="M43.4,25.9v-0.7h-0.3V25h0.7v0.1h-0.3L43.4,25.9L43.4,25.9z"/>
	<path display="inline" fill="#1B557D" d="M43.9,25.9V25h0.2l0.2,0.6c0,0.1,0.1,0.1,0.1,0.1c0-0.1,0-0.1,0.1-0.1l0.2-0.6h0.1v0.8
		h-0.1v-0.7l-0.2,0.7h-0.1L44,25.1v0.7H43.9L43.9,25.9z"/>
</g>
<g id="Layer_2_1_">
	<g>
		<path fill="#009DE2" d="M2.9,1.8h2.2c1.1,0,1.6,0.6,1.6,1.4c-0.1,1.4-1,2.2-2.1,2.2H3.9c-0.2,0-0.2,0.1-0.3,0.4L3.4,7.5
			c0,0.1-0.1,0.2-0.2,0.2H1.8c-0.1,0-0.2-0.1-0.1-0.3L2.5,2C2.5,1.9,2.6,1.8,2.9,1.8z"/>
		<path fill="#113984" d="M12.3,1.7c0.7,0,1.4,0.4,1.3,1.4C13.6,4.3,12.9,5,11.9,5H11c-0.1,0-0.2,0.1-0.2,0.3l-0.2,1.1
			c0,0.2-0.1,0.2-0.2,0.2H9.6c-0.1,0-0.2-0.1-0.1-0.2L10.2,2c0.1-0.2,0.1-0.3,0.2-0.3H12.3L12.3,1.7z M11,4h0.7
			c0.4,0,0.7-0.3,0.7-0.8c0-0.3-0.2-0.5-0.5-0.5h-0.6L11,4L11,4z M15.9,6.3c0.1-0.1,0.2-0.1,0.1,0v0.2c0,0.1,0,0.2,0.1,0.2h0.7
			c0.1,0,0.2-0.1,0.2-0.2l0.4-2.8c0-0.1,0-0.2-0.1-0.2h-0.8c-0.1,0-0.1,0.1-0.1,0.1v0.2c0,0.1-0.1,0.1-0.1,0c-0.1-0.3-0.5-0.5-1-0.5
			c-1.1,0-1.9,0.8-1.9,1.9C13.4,6,14,6.7,14.8,6.7C15.4,6.7,15.6,6.5,15.9,6.3L15.9,6.3z M15.3,5.8c-0.5,0-0.8-0.4-0.7-0.8
			c0.1-0.5,0.5-0.8,1-0.8c0.5,0,0.8,0.4,0.7,0.8C16.2,5.4,15.8,5.8,15.3,5.8L15.3,5.8z M18.9,3.4h-0.7C18,3.4,18,3.5,18,3.6l0.9,2.7
			L18,7.5c-0.1,0.1,0,0.2,0.1,0.2h0.8c0.1,0,0.2-0.1,0.2-0.1l2.8-4C22,3.4,22,3.3,21.8,3.3H21c-0.1,0-0.2,0.1-0.2,0.2l-1.1,1.7
			l-0.5-1.7C19.2,3.4,19,3.4,18.9,3.4z"/>
		<path fill="#009DE2" d="M24.9,1.7c0.7,0,1.4,0.4,1.3,1.4C26.1,4.3,25.5,5,24.5,5h-0.9c-0.1,0-0.2,0.1-0.2,0.3l-0.2,1.1
			c0,0.2-0.1,0.2-0.2,0.2H22c-0.1,0-0.2-0.1-0.1-0.2L22.6,2c0.1-0.2,0.1-0.3,0.2-0.3H24.9L24.9,1.7z M23.6,4h0.7
			c0.4,0,0.7-0.3,0.7-0.8c0-0.3-0.2-0.5-0.5-0.5h-0.6L23.6,4L23.6,4z M28.4,6.3c0.1-0.1,0.2-0.1,0.1,0v0.2c0,0.1,0,0.2,0.1,0.2h0.7
			c0.1,0,0.2-0.1,0.2-0.2l0.4-2.8c0-0.1,0-0.2-0.1-0.2h-0.8c-0.1,0-0.1,0.1-0.1,0.1v0.2c0,0.1-0.1,0.1-0.1,0c-0.1-0.3-0.5-0.5-1-0.5
			c-1.1,0-1.9,0.8-1.9,1.9C26,6,26.6,6.7,27.4,6.7C27.9,6.7,28.1,6.5,28.4,6.3L28.4,6.3z M27.8,5.8c-0.5,0-0.8-0.4-0.7-0.8
			c0.1-0.5,0.5-0.8,1-0.8S29,4.5,28.9,5C28.8,5.4,28.3,5.8,27.8,5.8L27.8,5.8z M31.1,6.6h-0.8c-0.1,0-0.1-0.1-0.1-0.1l0.7-4.6
			c0-0.1,0.1-0.1,0.1-0.1h0.9c0.1,0,0.1,0.1,0.1,0.1l-0.7,4.6C31.3,6.6,31.3,6.6,31.1,6.6z"/>
		<path fill="#113984" d="M1.5,0h2.2C4.3,0,5,0,5.5,0.4C5.8,0.7,6,1.1,6,1.7C5.8,3.4,4.8,4.3,3.5,4.3H2.4C2.2,4.3,2.1,4.4,2,4.7
			L1.8,6.6c0,0.1-0.1,0.2-0.2,0.2H0.3c-0.1,0-0.2-0.1-0.2-0.4l1-6.1C1.1,0.1,1.3,0,1.5,0z"/>
		<path fill="#172C70" d="M2.1,4.5l0.4-2.4c0.1-0.2,0.1-0.3,0.4-0.3H5c0.4,0,0.7,0.1,0.9,0.2C5.7,3.5,4.7,4.3,3.5,4.3H2.4
			C2.3,4.3,2.2,4.3,2.1,4.5z"/>
	</g>
</g>
</svg>
