<?xml version="1.0" encoding="utf-8"?>
<!-- Generator: Adobe Illustrator 16.2.0, SVG Export Plug-In . SVG Version: 6.00 Build 0)  -->
<!DOCTYPE svg PUBLIC "-//W3C//DTD SVG 1.1//EN" "http://www.w3.org/Graphics/SVG/1.1/DTD/svg11.dtd">
<svg version="1.1" xmlns="http://www.w3.org/2000/svg" xmlns:xlink="http://www.w3.org/1999/xlink" x="0px" y="0px" width="55px"
	 height="14.25px" viewBox="0 19.875 55 14.25" enable-background="new 0 19.875 55 14.25" xml:space="preserve">
<g id="Layer_1" display="none">
	<g id="Layer_1_1_">
		<path display="inline" fill="#010101" d="M236.535,357.395c-1.66,2.387-3.735,4.504-6.205,6.413v1.433
			c0,4.067-0.768,8.177-2.324,12.349c-1.557,4.171-3.84,7.929-6.828,11.29c-3.01,3.363-6.704,6.082-11.063,8.178
			c-4.4,2.117-9.443,3.134-15.172,3.134c-3.508,0-6.869-0.498-10.087-1.474c-3.217-0.975-6.226-2.346-9.049-4.109
			c0.478,0.063,0.954,0.104,1.452,0.104h1.557c5.937,0,11.063-1.743,15.422-5.188c-2.781-0.062-5.189-0.892-7.307-2.47
			c-2.117-1.598-3.527-3.611-4.296-6.061c0.83,0.208,1.577,0.291,2.283,0.291c0.622,0,1.183-0.021,1.702-0.104
			c0.498-0.063,1.059-0.166,1.598-0.313c-2.885-0.602-5.293-2.033-7.182-4.213c-1.889-2.199-2.843-4.794-2.843-7.762v-0.104
			c0.83,0.414,1.723,0.746,2.636,1.017c0.934,0.271,1.992,0.415,3.154,0.415c-1.805-1.079-3.175-2.49-4.13-4.275
			c-0.976-1.764-1.452-3.736-1.452-5.895s0.539-4.234,1.66-6.205c3.113,3.798,6.869,6.828,11.291,9.09
			c4.42,2.263,9.215,3.508,14.383,3.715c-0.208-0.809-0.313-1.701-0.313-2.635c0-1.703,0.333-3.301,0.997-4.836
			c0.664-1.516,1.536-2.844,2.677-3.965c1.162-1.121,2.449-1.992,3.943-2.636c1.475-0.644,3.093-0.954,4.815-0.954
			c1.868,0,3.55,0.353,5.085,1.078c1.516,0.706,2.864,1.641,4.047,2.803c1.391-0.188,2.761-0.582,4.131-1.121
			c1.369-0.539,2.656-1.121,3.818-1.743c-1.121,2.843-2.926,5.105-5.479,6.725c1.307-0.146,2.553-0.374,3.735-0.706
			C234.295,358.266,235.457,357.852,236.535,357.395L236.535,357.395z"/>
	</g>
	<g id="Layer_2">
		<path display="inline" fill="#010101" d="M199.012,375.908L182.906,391.1c-1.08,1.018-1.661,2.366-1.661,3.799
			c0,1.432,0.581,2.781,1.661,3.777c2.137,2.033,5.873,2.033,8.053,0l15.254-14.363l15.193,14.321
			c1.059,0.997,2.511,1.557,4.005,1.557c1.515,0,2.947-0.56,4.006-1.557c1.079-1.017,1.681-2.366,1.66-3.798
			c0-1.432-0.581-2.781-1.66-3.777l-16.126-15.172l16.105-15.192c1.079-1.017,1.66-2.366,1.66-3.798s-0.581-2.781-1.66-3.777
			c-2.139-2.034-5.874-2.034-8.053,0l-15.255,14.361l-15.192-14.32c-1.08-0.975-2.512-1.557-4.006-1.557
			c-1.516,0-2.947,0.54-4.006,1.557c-1.079,1.018-1.66,2.366-1.66,3.799c0,1.432,0.581,2.781,1.66,3.777L199.012,375.908z"/>
	</g>
	<g id="Layer_3">
		<path display="inline" fill="#010101" d="M209.99,379.623c1.267-1.204,2.471-2.449,3.653-3.695
			c1.183-1.244,2.138-2.449,2.905-3.569s1.266-2.138,1.474-3.113c0.229-0.934,0.063-1.681-0.478-2.179
			c-0.809-0.789-1.557-1.516-2.241-2.2s-1.142-1.474-1.349-2.325c-0.208-0.851-0.125-1.889,0.332-3.113
			c0.457-1.203,1.411-2.677,2.844-4.42c1.452-1.723,2.801-2.781,4.067-3.154c1.267-0.395,2.429-0.375,3.466,0.062
			s2.014,1.12,2.906,2.013c0.912,0.914,1.764,1.765,2.573,2.512c0.892,0.852,1.349,2.283,1.349,4.275
			c0,1.973-0.519,4.317-1.619,6.994c-1.1,2.678-2.719,5.604-4.877,8.779c-2.158,3.197-4.919,6.393-8.26,9.568
			c-3.445,3.279-6.809,5.936-10.088,7.97c-3.299,2.034-6.33,3.569-9.069,4.587c-2.761,1.037-5.188,1.557-7.326,1.557
			c-2.117,0-3.632-0.478-4.524-1.432c-0.83-0.789-1.66-1.557-2.574-2.387c-0.893-0.83-1.577-1.744-2.033-2.781
			c-0.457-1.038-0.498-2.139-0.146-3.301s1.452-2.449,3.259-3.818c1.805-1.37,3.342-2.283,4.607-2.719s2.346-0.54,3.258-0.374
			c0.893,0.166,1.702,0.603,2.449,1.287c0.727,0.685,1.474,1.432,2.305,2.2c0.539,0.498,1.307,0.664,2.303,0.456
			s2.076-0.685,3.238-1.433c1.162-0.726,2.428-1.66,3.736-2.78C207.459,381.988,208.745,380.826,209.99,379.623z"/>
	</g>
	<g id="Layer_4">
		<path display="inline" fill="#010101" d="M239.421,358.972c-0.581,0.788-1.308,1.37-2.159,1.743
			c-0.436,0.25-1.266,0.727-2.49,1.391c-1.411,0.748-3.092,1.64-5.002,2.678c-1.951,1.059-4.006,2.138-6.185,3.258
			c-2.138,1.121-4.109,2.18-5.937,3.197c-1.867,1.078-3.465,1.93-4.773,2.594l-1.225,0.644c-0.58,0.312-0.934,0.498-1.017,0.519
			c-1.349,0.664-2.843,0.996-4.483,0.996c-1.535,0-3.009-0.332-4.357-0.996l-0.498-0.291c-0.291-0.166-0.83-0.456-1.661-0.85
			c-1.349-0.686-2.968-1.537-4.856-2.615c-1.806-1.038-3.799-2.097-5.936-3.197l-0.852-0.456c-1.847-0.976-3.632-1.909-5.313-2.802
			l-5.002-2.678c-1.35-0.705-2.2-1.183-2.615-1.453c-0.664-0.353-1.266-0.83-1.868-1.535c-0.685-0.789-1.12-1.578-1.328-2.512
			c-0.249-1.162-0.042-2.324,0.706-3.404c0.539-0.746,1.639-1.618,3.756-1.618h59.815c2.138,0,3.217,0.893,3.798,1.723
			c0.664,0.996,0.893,2.138,0.644,3.279C240.396,357.436,240.022,358.225,239.421,358.972L239.421,358.972z M171.822,369.867
			c0.623-1.908,2.74-2.738,5.168-1.494c0.395,0.188,1.309,0.686,2.864,1.494c1.391,0.748,3.03,1.619,4.919,2.637
			c1.91,1.037,3.984,2.117,6.186,3.217c2.199,1.142,4.275,2.2,6.164,3.176c1.867,0.996,3.486,1.826,4.96,2.594
			c1.267,0.664,1.993,1.038,2.2,1.142c1.141,0.561,2.76,0.519,3.902-0.042c0.207-0.104,0.954-0.498,2.24-1.162
			c1.35-0.705,2.969-1.535,4.857-2.553c1.889-0.975,3.943-2.055,6.164-3.175c2.199-1.142,4.254-2.179,6.164-3.218
			c1.951-1.059,3.652-1.95,5.127-2.719c1.307-0.664,2.096-1.1,2.365-1.266l0.25-0.166c0.85-0.436,1.535-0.623,2.221-0.623
			c1.473,0,2.738,0.996,3.029,2.533c0.063,0.436,0.104,0.871,0.104,1.452v22.249c0,1.535-0.664,2.968-1.95,4.255
			c-1.308,1.286-2.739,1.95-4.234,1.95h-56.681c-1.475,0-2.906-0.643-4.255-1.889c-1.37-1.307-2.097-2.76-2.097-4.316v-22.27
			C171.532,371.051,171.615,370.449,171.822,369.867L171.822,369.867L171.822,369.867z"/>
	</g>
	<g id="Layer_5">
		<path display="inline" fill="#010101" d="M207.293,351.438c-13.346,0-20.07,9.568-20.07,17.559c0,4.836,1.826,9.133,5.77,10.73
			c0.644,0.249,1.204,0,1.412-0.705c0.145-0.499,0.436-1.744,0.561-2.242c0.186-0.705,0.124-0.955-0.416-1.557
			c-1.141-1.328-1.848-3.072-1.848-5.5c0-7.098,5.314-13.449,13.823-13.449c7.534,0,11.685,4.607,11.685,10.751
			c0,8.095-3.59,14.943-8.903,14.943c-2.947,0-5.126-2.429-4.441-5.417c0.83-3.549,2.47-7.409,2.47-9.982
			c0-2.305-1.225-4.214-3.799-4.214c-3.009,0-5.416,3.113-5.416,7.265c0,2.656,0.893,4.441,0.893,4.441s-3.031,13.033-3.57,15.316
			c-1.079,4.546-0.166,10.107-0.083,10.689c0.042,0.332,0.478,0.414,0.664,0.166c0.271-0.354,3.84-4.773,5.085-9.195
			c0.354-1.244,1.972-7.74,1.972-7.74c0.976,1.867,3.819,3.486,6.87,3.486c9.028,0,15.15-8.24,15.15-19.261
			C225.079,359.2,218.002,351.438,207.293,351.438L207.293,351.438z"/>
	</g>
	<g id="Layer_6">
		<path display="inline" fill="#010101" d="M225.1,361.379v-9.713h-2.428v9.713h-9.713v2.429h9.713v9.714h2.428v-9.714h9.713v-2.429
			H225.1z M208.787,351.666h-14.985c-6.725,0-13.055,5.105-13.055,11c0,6.039,4.587,10.896,11.415,10.896
			c0.478,0,0.934-0.021,1.391-0.042c-0.457,0.851-0.768,1.806-0.768,2.802c0,1.682,0.893,3.031,2.055,4.131
			c-0.852,0-1.702,0.021-2.595,0.021c-8.343,0-14.735,5.313-14.735,10.813c0,5.438,7.035,8.8,15.358,8.8
			c9.485,0,14.735-5.396,14.735-10.813c0-4.338-1.266-6.953-5.25-9.734c-1.35-0.954-3.943-3.299-3.943-4.67
			c0-1.598,0.477-2.406,2.863-4.295c2.47-1.931,4.234-4.67,4.234-7.825c0-3.777-1.682-7.45-4.836-8.675h4.773L208.787,351.666z
			 M203.535,388.36c0.125,0.498,0.166,1.017,0.166,1.536c0,4.379-2.801,7.783-10.916,7.783c-5.77,0-9.921-3.653-9.921-8.033
			c0-4.295,5.147-7.865,10.917-7.782c1.35,0.021,2.594,0.228,3.736,0.581C200.672,384.666,202.913,385.891,203.535,388.36z
			 M194.32,372.026c-3.859-0.124-7.533-4.338-8.197-9.381c-0.664-5.085,1.909-8.966,5.77-8.842s7.533,4.172,8.197,9.257
			C200.775,368.125,198.201,372.15,194.32,372.026L194.32,372.026z"/>
	</g>
	<g id="Layer_7_copy">
		<path display="inline" fill="#010101" d="M218.251,351.583H194.03c-6.683,0-12.101,5.438-12.101,12.101v24.406
			c0,6.663,5.438,12.101,12.101,12.101h24.221c6.683,0,12.101-5.438,12.101-12.101v-24.387
			C230.352,357.021,224.934,351.583,218.251,351.583z M194.03,356.066h24.221c4.192,0,7.617,3.424,7.617,7.617v4.15h-12.806
			c-1.868-1.328-4.172-2.138-6.662-2.138c-2.471,0-4.773,0.81-6.662,2.138h-13.325v-4.15
			C186.413,359.47,189.838,356.066,194.03,356.066L194.03,356.066z M211.152,377.194c0,2.636-2.137,4.773-4.773,4.773
			c-2.636,0-4.773-2.138-4.773-4.773s2.138-4.773,4.773-4.773C209.035,372.441,211.152,374.579,211.152,377.194z M218.251,395.707
			H194.03c-4.192,0-7.617-3.424-7.617-7.617v-15.752h9.567c-0.705,1.474-1.1,3.134-1.1,4.877c0,6.33,5.147,11.498,11.498,11.498
			c6.352,0,11.498-5.146,11.498-11.498c0-1.743-0.395-3.403-1.1-4.877h9.07v15.773C225.889,392.304,222.465,395.707,218.251,395.707
			L218.251,395.707z M222.36,364.285c0,0.747-0.603,1.349-1.349,1.349h-4.151c-0.747,0-1.349-0.602-1.349-1.349v-4.151
			c0-0.747,0.602-1.349,1.349-1.349h4.151c0.746,0,1.349,0.602,1.349,1.349V364.285z"/>
	</g>
	<g id="Layer_8">
		<path display="inline" fill="#010101" d="M199.717,361.006v6.703h-4.898v8.178h4.898v24.324h10.066v-24.324h6.745
			c0,0,0.644-3.922,0.935-8.198h-7.659v-5.604c0-0.83,1.101-1.951,2.179-1.951h5.48v-8.509h-7.451
			C199.468,351.583,199.717,359.781,199.717,361.006z"/>
	</g>
	<g id="Layer_9">
		<path display="inline" fill="#010101" d="M225.91,351.583h-39.518c-4.898,0-8.883,3.985-8.883,8.883v20.962
			c0,4.898,3.984,8.884,8.883,8.884h12.391l12.557,9.401c0.415,0.312,0.893,0.478,1.369,0.478c0.354,0,0.706-0.083,1.018-0.228
			c0.789-0.395,1.266-1.184,1.266-2.055v-7.576h10.876c4.897,0,8.883-3.984,8.883-8.883v-21.004
			C234.793,355.568,230.808,351.583,225.91,351.583L225.91,351.583z"/>
	</g>
	<g id="Layer_10">
		<path display="inline" fill="#010101" d="M196.127,399.568c-0.416,0.414-0.977,0.622-1.494,0.622
			c-0.541,0-1.101-0.208-1.516-0.622c-0.83-0.83-0.83-2.18,0-3.031l20.65-20.65l-20.65-20.631c-0.83-0.83-0.83-2.179,0-3.029
			c0.83-0.83,2.18-0.83,3.029,0l23.661,23.66L196.127,399.568L196.127,399.568z"/>
	</g>
	<g id="Layer_11">
		<path display="inline" fill="#010101" d="M229.23,393.072l-11.104-11.104c-0.166-0.166-0.374-0.228-0.54-0.353
			c1.992-3.051,3.134-6.684,3.134-10.585c0-10.73-8.717-19.447-19.447-19.447s-19.447,8.717-19.447,19.447
			c0,10.729,8.717,19.447,19.447,19.447c3.902,0,7.534-1.163,10.585-3.134c0.124,0.166,0.187,0.395,0.353,0.539l11.104,11.104
			c0.831,0.83,1.869,1.204,2.947,1.204c1.08,0,2.139-0.415,2.947-1.225C230.85,397.326,230.85,394.69,229.23,393.072L229.23,393.072
			z M187.389,371.03c0-7.659,6.227-13.885,13.885-13.885s13.885,6.226,13.885,13.885c0,7.658-6.227,13.885-13.885,13.885
			S187.389,378.688,187.389,371.03z"/>
	</g>
	<g id="Layer_12">
		<path display="inline" d="M224.81,370.076c-0.104-0.873-0.831-1.557-1.723-1.557h-3.901v-3.902
			c0-7.182-5.832-13.014-13.014-13.014s-13.014,5.832-13.014,13.014v3.902h-3.901c-0.893,0-1.64,0.684-1.743,1.557l-2.803,28.205
			c-0.063,0.498,0.125,0.976,0.457,1.35c0.332,0.373,0.81,0.56,1.287,0.56h39.496c0.498,0,0.955-0.208,1.287-0.56
			c0.332-0.375,0.498-0.831,0.456-1.35L224.81,370.076z M206.15,357.871c3.716,0,6.746,3.031,6.746,6.746v3.902h-13.449v-3.902
			C199.426,360.902,202.436,357.871,206.15,357.871z"/>
	</g>
	<g id="Layer_13">
		<path display="inline" fill="#010101" d="M231.534,370.034c-0.208-0.665-0.831-1.142-1.536-1.142h-17.02l-5.271-16.189
			c-0.207-0.664-0.83-1.141-1.535-1.141c-0.706,0-1.328,0.457-1.536,1.141l-5.251,16.189h-17.019c-0.706,0-1.329,0.457-1.536,1.142
			c-0.207,0.664,0.021,1.411,0.581,1.806l13.781,10.024l-5.251,16.188c-0.207,0.664,0.021,1.412,0.581,1.806
			c0.29,0.208,0.623,0.312,0.955,0.312s0.685-0.104,0.954-0.312l13.761-10.004l13.781,10.004c0.561,0.415,1.349,0.415,1.909,0
			s0.81-1.162,0.582-1.806l-5.252-16.188l13.781-10.024C231.514,371.424,231.762,370.698,231.534,370.034L231.534,370.034z"/>
	</g>
	<g id="Layer_14">
		<g display="inline">
			<path d="M228.648,393.86h-45.016c-1.744,0-3.155,1.433-3.155,3.155c0,1.764,1.433,3.154,3.155,3.154h45.016
				c1.744,0,3.155-1.432,3.155-3.154C231.846,395.271,230.413,393.86,228.648,393.86z"/>
			<path d="M228.648,372.711h-45.016c-1.744,0-3.155,1.433-3.155,3.155c0,1.765,1.433,3.155,3.155,3.155h45.016
				c1.744,0,3.155-1.433,3.155-3.155C231.846,374.144,230.413,372.711,228.648,372.711z"/>
			<path d="M183.633,357.913h45.016c1.744,0,3.155-1.433,3.155-3.155c0-1.742-1.433-3.154-3.155-3.154h-45.016
				c-1.744,0-3.155,1.432-3.155,3.154C180.457,356.502,181.889,357.913,183.633,357.913z"/>
		</g>
	</g>
	<g id="Layer_15">
		<path display="inline" fill="#010101" d="M175.684,398.24l30.488-30.489l30.51,30.509c2.594,2.574,6.849,2.574,9.464-0.02
			c2.49-2.533,2.49-6.995-0.021-9.465l-35.076-35.117l-0.996-0.913h-0.187c-1.101-0.726-2.388-1.142-3.694-1.142
			c-1.246,0-2.449,0.332-3.467,0.976h-0.311l-36.176,36.155c-1.266,1.266-1.972,2.947-1.972,4.752c0,1.807,0.706,3.467,1.972,4.773
			C168.813,400.834,173.068,400.834,175.684,398.24L175.684,398.24z"/>
	</g>
	<g id="Layer_16">
		<path display="inline" fill="#010101" d="M193.18,368.291v31.899l25.943-24.304l-25.943-24.283V368.291z"/>
	</g>
	<g id="Layer_17">
		<path display="inline" fill="#010101" d="M219.123,351.583l-25.943,24.283l25.943,24.304v-31.879V351.583L219.123,351.583z"/>
	</g>
	<g id="Layer_19">
	</g>
	<g id="Layer_20" display="inline">
	</g>
	<path display="inline" fill="#107DB0" d="M42.07,22.871c-1.309,0-2.346,0.354-3.135,0.498l-0.248,1.993
		c0.394-0.187,1.639-0.54,2.697-0.561c1.038-0.042,1.64,0.187,1.432,1.079c-3.092,0-5.146,0.623-5.582,2.637
		c-0.602,3.424,3.134,3.32,4.648,1.826l-0.166,0.83h2.761l1.183-5.438C46.117,23.391,44,22.83,42.07,22.871z M42.277,28.434
		c-0.166,0.727-0.727,1.059-1.432,1.08c-0.603,0.041-1.162-0.498-0.769-1.143c0.312-0.539,1.163-0.664,1.681-0.664
		c0.208,0,0.457,0,0.665,0C42.36,27.957,42.318,28.186,42.277,28.434z"/>
	<polygon display="inline" fill="#107DB0" points="47.965,20.713 45.701,31.174 48.504,31.174 50.787,20.713 	"/>
	<path display="inline" fill="#107DB0" d="M35.158,20.734h-5.105l-2.262,10.418h2.967l0.769-3.465h2.097
		c2.075,0,3.798-1.267,4.254-3.426C38.396,21.854,36.633,20.734,35.158,20.734z M35.055,24.283
		c-0.166,0.809-0.976,1.432-1.743,1.432h-1.349l0.602-2.844h1.473C34.785,22.871,35.242,23.494,35.055,24.283z"/>
	<path display="inline" fill="#1B557D" d="M15.338,22.871c-1.287,0-2.324,0.354-3.072,0.498l-0.229,1.993
		c0.374-0.187,1.599-0.54,2.615-0.561c1.038-0.042,1.619,0.187,1.453,1.079c-3.051,0-5.105,0.623-5.5,2.637
		c-0.602,3.424,3.113,3.32,4.545,1.826l-0.166,0.83h2.74l1.162-5.438C19.344,23.391,17.247,22.83,15.338,22.871z M15.545,28.434
		c-0.166,0.727-0.768,1.059-1.453,1.08c-0.602,0.041-1.12-0.498-0.726-1.143c0.29-0.539,1.162-0.664,1.618-0.664
		c0.229,0,0.457,0,0.706,0C15.629,27.957,15.587,28.186,15.545,28.434z"/>
	<polygon display="inline" fill="#1B557D" points="20.049,22.996 22.81,22.996 23.245,27.873 25.923,22.996 28.766,22.996 
		22.229,34.619 19.178,34.619 21.19,31.194 	"/>
	<path display="inline" fill="#1B557D" d="M8.51,20.734H3.404L1.142,31.132H4.15l0.748-3.466h2.137c2.055,0,3.777-1.266,4.234-3.424
		C11.768,21.854,10.004,20.734,8.51,20.734z M8.426,24.283c-0.166,0.809-0.954,1.432-1.723,1.432h-1.41l0.643-2.844H7.41
		C8.136,22.871,8.654,23.494,8.426,24.283z"/>
	<path display="inline" fill="#1B557D" d="M51.389,22.063v-1.225h-0.478v-0.166h1.121v0.166h-0.478v1.225H51.389z"/>
	<path display="inline" fill="#1B557D" d="M52.219,22.063V20.65h0.27l0.332,0.996c0.042,0.104,0.063,0.166,0.063,0.208
		c0.021-0.062,0.041-0.124,0.083-0.208l0.333-0.975h0.248v1.411h-0.166v-1.162l-0.415,1.162H52.8L52.385,20.9v1.183L52.219,22.063
		L52.219,22.063z"/>
</g>
<g id="Layer_2_1_">
	<g>
		<path fill-rule="evenodd" clip-rule="evenodd" fill="#009DE2" d="M5.771,23.664h3.625c1.947,0,2.68,0.985,2.566,2.436
			c-0.187,2.391-1.632,3.713-3.548,3.713H7.446c-0.263,0-0.439,0.173-0.511,0.645L6.52,33.198c-0.027,0.177-0.121,0.282-0.261,0.295
			H3.985c-0.214,0-0.29-0.163-0.234-0.519l1.388-8.79C5.195,23.832,5.387,23.664,5.771,23.664z"/>
		<path fill-rule="evenodd" clip-rule="evenodd" fill="#113984" d="M21.51,23.502c1.224,0,2.353,0.663,2.198,2.317
			c-0.183,1.961-1.24,3.053-2.902,3.058h-1.45c-0.209,0-0.31,0.17-0.364,0.52l-0.28,1.785c-0.042,0.27-0.18,0.402-0.385,0.402
			h-1.351c-0.215,0-0.29-0.138-0.242-0.445l1.116-7.154c0.055-0.352,0.189-0.483,0.428-0.483H21.51L21.51,23.502z M19.311,27.331
			l1.1,0.001c0.688-0.026,1.145-0.502,1.19-1.362c0.029-0.531-0.33-0.911-0.9-0.908l-1.036,0.004L19.311,27.331L19.311,27.331z
			 M27.378,31.035c0.124-0.111,0.25-0.17,0.231-0.031l-0.044,0.331c-0.023,0.173,0.046,0.265,0.208,0.265h1.2
			c0.201,0,0.301-0.082,0.351-0.395l0.739-4.639c0.037-0.234-0.02-0.348-0.197-0.348h-1.318c-0.119,0-0.177,0.066-0.208,0.248
			l-0.049,0.285c-0.025,0.149-0.094,0.176-0.157,0.025c-0.224-0.53-0.795-0.768-1.596-0.751c-1.85,0.038-3.098,1.442-3.231,3.243
			c-0.103,1.393,0.895,2.486,2.211,2.486C26.471,31.756,26.898,31.472,27.378,31.035L27.378,31.035z M26.375,30.322
			c-0.797,0-1.352-0.635-1.236-1.414c0.116-0.778,0.86-1.414,1.657-1.414c0.796,0,1.352,0.636,1.235,1.414
			C27.915,29.688,27.171,30.322,26.375,30.322L26.375,30.322z M32.411,26.203h-1.212c-0.251,0-0.354,0.184-0.273,0.418l1.511,4.424
			l-1.488,2.103c-0.124,0.176-0.029,0.337,0.146,0.337h1.367c0.204,0,0.304-0.053,0.407-0.2l4.645-6.663
			c0.143-0.205,0.076-0.42-0.159-0.42l-1.293-0.002c-0.221,0-0.311,0.088-0.438,0.272l-1.938,2.812l-0.861-2.816
			C32.771,26.293,32.645,26.203,32.411,26.203z"/>
		<path fill-rule="evenodd" clip-rule="evenodd" fill="#009DE2" d="M42.349,23.502c1.223,0,2.352,0.663,2.196,2.317
			c-0.183,1.961-1.239,3.053-2.901,3.058h-1.45c-0.209,0-0.31,0.17-0.364,0.52l-0.28,1.785c-0.042,0.27-0.18,0.402-0.385,0.402
			h-1.351c-0.215,0-0.29-0.138-0.242-0.445l1.116-7.154c0.055-0.352,0.189-0.483,0.429-0.483H42.349L42.349,23.502z M40.148,27.331
			l1.101,0.001c0.688-0.026,1.145-0.502,1.19-1.362c0.028-0.531-0.33-0.911-0.901-0.908l-1.035,0.004L40.148,27.331L40.148,27.331z
			 M48.216,31.035c0.124-0.111,0.25-0.17,0.231-0.031l-0.044,0.331C48.38,31.508,48.449,31.6,48.61,31.6h1.2
			c0.201,0,0.301-0.082,0.351-0.395l0.738-4.639c0.037-0.234-0.02-0.348-0.196-0.348h-1.318c-0.119,0-0.177,0.066-0.208,0.248
			l-0.049,0.285c-0.025,0.149-0.094,0.176-0.157,0.025c-0.224-0.53-0.795-0.768-1.596-0.751c-1.85,0.038-3.098,1.442-3.23,3.243
			c-0.104,1.393,0.895,2.486,2.21,2.486C47.309,31.756,47.735,31.472,48.216,31.035L48.216,31.035z M47.213,30.322
			c-0.797,0-1.353-0.635-1.236-1.414c0.116-0.778,0.86-1.414,1.657-1.414c0.796,0,1.352,0.636,1.235,1.414
			C48.754,29.688,48.01,30.322,47.213,30.322L47.213,30.322z M52.746,31.608h-1.385c-0.11,0-0.187-0.086-0.169-0.191l1.217-7.708
			c0.017-0.105,0.121-0.191,0.23-0.191h1.385c0.109,0,0.187,0.086,0.17,0.191l-1.219,7.708
			C52.96,31.522,52.856,31.608,52.746,31.608z"/>
		<path fill-rule="evenodd" clip-rule="evenodd" fill="#113984" d="M3.504,20.639h3.629c1.022,0,2.235,0.033,3.046,0.749
			c0.542,0.478,0.826,1.239,0.76,2.056c-0.223,2.771-1.88,4.324-4.103,4.324h-1.79c-0.305,0-0.506,0.201-0.593,0.748l-0.5,3.178
			c-0.032,0.207-0.122,0.328-0.285,0.343H1.433c-0.248,0-0.336-0.19-0.271-0.601l1.61-10.193C2.836,20.833,3.06,20.639,3.504,20.639
			z"/>
		<path fill-rule="evenodd" clip-rule="evenodd" fill="#172C70" d="M4.505,28.195l0.634-4.011c0.056-0.353,0.248-0.521,0.631-0.521
			h3.625c0.6,0,1.085,0.094,1.465,0.267c-0.364,2.466-1.959,3.837-4.048,3.837H5.022C4.787,27.768,4.611,27.889,4.505,28.195z"/>
	</g>
</g>
</svg>
