<?xml version="1.0" encoding="utf-8"?>
<!-- Generator: Adobe Illustrator 18.1.0, SVG Export Plug-In . SVG Version: 6.00 Build 0)  -->
<svg version="1.1" id="Layer_1" xmlns="http://www.w3.org/2000/svg" xmlns:xlink="http://www.w3.org/1999/xlink" x="0px" y="0px"
	 viewBox="30.7 283.4 286.4 276.6" enable-background="new 30.7 283.4 286.4 276.6" xml:space="preserve">
<g id="Layer_7_2_">
	<path fill="#AAAAAB" d="M317.1,387.3c0-2-3.9-3.9-5.9-3.9h-100l-31.4-96.1c0-2-3.9-3.9-5.9-3.9c-3.9,0-5.9,2-5.9,3.9l-31.4,96.1
		h-100c-3.9,0-5.9,2-5.9,3.9c0,2,0,5.9,2,7.8L115,454l-31.4,96.1c0,2,0,5.9,2,7.8c2,2,5.9,2,7.8,0l82.4-58.8l82.4,58.8
		c2,0,2,2,3.9,2c2,0,2,0,3.9-2c-2-2-2-3.9-2-7.8L232.7,454l82.4-58.8C317.1,393.2,317.1,391.2,317.1,387.3z"/>
</g>
</svg>
