<?xml version="1.0" encoding="utf-8"?>
<!-- Generator: Adobe Illustrator 18.1.0, SVG Export Plug-In . SVG Version: 6.00 Build 0)  -->
<svg version="1.1" id="Layer_1" xmlns="http://www.w3.org/2000/svg" xmlns:xlink="http://www.w3.org/1999/xlink" x="0px" y="0px"
	 viewBox="-1.5 0 35 15" enable-background="new -1.5 0 35 15" xml:space="preserve">
<g id="Layer_7_2_">
	<path fill="#222222" d="M14.1,5.6c0-0.1-0.2-0.2-0.3-0.2H8.3L6.6,0.2C6.6,0.1,6.4,0,6.3,0C6.1,0,6,0.1,6,0.2L4.3,5.4h-5.5
		c-0.2,0-0.3,0.1-0.3,0.2c0,0.2,0,0.4,0.1,0.5l4.5,3.2l-1.7,5.2c0,0.1,0,0.3,0.1,0.4c0.1,0.1,0.3,0.1,0.4,0l4.5-3.2l4.5,3.2
		c0.1,0,0.1,0.1,0.2,0.1c0.1,0,0.1,0,0.2-0.1c0.1-0.1-0.1-0.4-0.1-0.4L9.5,9.3L14,6.1C14.1,6,14.1,5.9,14.1,5.6z"/>
</g>
</svg>
