<?xml version="1.0" encoding="utf-8"?>
<!-- Generator: Adobe Illustrator 18.1.0, SVG Export Plug-In . SVG Version: 6.00 Build 0)  -->
<svg version="1.1" id="Layer_1" xmlns="http://www.w3.org/2000/svg" xmlns:xlink="http://www.w3.org/1999/xlink" x="0px" y="0px"
	 viewBox="0 0 35 15" enable-background="new 0 0 35 15" xml:space="preserve">
<g id="Layer_7_2_">
	<path fill="#AAAAAB" d="M15.6,5.6c0-0.1-0.2-0.2-0.3-0.2H9.8L8.1,0.2C8.1,0.1,7.9,0,7.8,0C7.6,0,7.5,0.1,7.5,0.2L5.8,5.4H0.3
		C0.1,5.4,0,5.5,0,5.6C0,5.8,0,6,0.1,6.1l4.5,3.2l-1.7,5.2c0,0.1,0,0.3,0.1,0.4c0.1,0.1,0.3,0.1,0.4,0l4.5-3.2l4.5,3.2
		c0.1,0,0.1,0.1,0.2,0.1c0.1,0,0.1,0,0.2-0.1c0.1-0.1-0.1-0.4-0.1-0.4L11,9.3l4.5-3.2C15.6,6,15.6,5.9,15.6,5.6z"/>
</g>
</svg>
