<?xml version="1.0" encoding="utf-8"?>
<!-- Generator: Adobe Illustrator 18.1.0, SVG Export Plug-In . SVG Version: 6.00 Build 0)  -->
<svg version="1.1" id="Layer_1" xmlns="http://www.w3.org/2000/svg" xmlns:xlink="http://www.w3.org/1999/xlink" x="0px" y="0px"
	 viewBox="0 101.2 612 589.7" enable-background="new 0 101.2 612 589.7" xml:space="preserve">
<g id="Layer_7_2_">
	<path fill="#AAAAAB" d="M611.4,322.7c0-4.2-8.3-8.3-12.6-8.3H385.6l-67-204.9c0-4.2-8.3-8.3-12.6-8.3c-8.3,0-12.6,4.2-12.6,8.3
		l-67,204.9H13.2c-8.3,0-12.6,4.2-12.6,8.3c0,4.2,0,12.6,4.2,16.7l175.7,125.4L113.3,670c0,4.2,0,12.6,4.2,16.7
		c4.2,4.2,12.6,4.2,16.7,0l175.7-125.4l175.7,125.4c3.4,1.9,2.5,4.2,8.3,4.2c4.2,0,4.2,0,8.3-4.2c3.1-3.1-4.2-14.8-4.2-16.7l-67-205
		l175.7-125.4C611.4,335.3,611.4,331.1,611.4,322.7z"/>
</g>
</svg>
