<?xml version="1.0" encoding="utf-8"?>
<!-- Generator: Adobe Illustrator 16.2.0, SVG Export Plug-In . SVG Version: 6.00 Build 0)  -->
<!DOCTYPE svg PUBLIC "-//W3C//DTD SVG 1.1//EN" "http://www.w3.org/Graphics/SVG/1.1/DTD/svg11.dtd">
<svg version="1.1" id="Layer_1" xmlns="http://www.w3.org/2000/svg" xmlns:xlink="http://www.w3.org/1999/xlink" x="0px" y="0px"
	 width="55px" height="55px" viewBox="0 0 55 55" enable-background="new 0 0 55 55" xml:space="preserve">
<g id="Layer_1_1_" display="none">
	<path display="inline" d="M11.503,254.44h2.169c1.927,0,2.45,1.355,2.45,2.237c0,1.693-1.152,3.088-3.622,3.088H10.38v-0.135
		c0.407-0.078,0.532-0.098,0.678-0.62l0.998-3.544c0.029-0.097,0.097-0.349,0.097-0.523c0-0.28-0.223-0.328-0.649-0.357V254.44z"/>
	<path display="inline" d="M17.962,258.895c-0.329,0.494-0.697,0.959-1.171,0.959c-0.397,0-0.397-0.368-0.397-0.523
		c0-0.396,0.658-2.479,0.658-2.711c0-0.174-0.067-0.223-0.532-0.223v-0.136c0.319-0.019,1.017-0.155,1.346-0.213l0.029,0.02
		l-0.736,2.702c-0.029,0.115-0.136,0.455-0.136,0.551c0,0.059,0.058,0.127,0.136,0.127c0.097,0,0.348-0.165,0.688-0.659
		L17.962,258.895z"/>
	<path display="inline" d="M17.788,255.157c-0.213,0-0.407-0.146-0.407-0.437c0-0.29,0.193-0.455,0.397-0.455
		c0.281,0,0.416,0.281,0.416,0.465C18.204,254.896,18.069,255.157,17.788,255.157z"/>
	<path display="inline" d="M21.903,258.885c-0.417,0.563-0.717,0.949-1.172,0.949c-0.387,0-0.407-0.252-0.407-0.494
		c0-0.203,0.62-2.246,0.62-2.585c0-0.155-0.048-0.271-0.213-0.271c-0.407,0-0.93,0.727-1.229,1.191
		c-0.388,0.581-0.494,0.938-0.843,2.081H18.03c0.262-0.948,0.823-2.914,0.823-3.088c0-0.127-0.087-0.223-0.533-0.223v-0.137
		c0.455-0.086,0.91-0.164,1.356-0.261l0.029,0.02l-0.533,1.753l0.02,0.02c0.397-0.62,1.172-1.792,1.859-1.792
		c0.387,0,0.581,0.204,0.581,0.552c0,0.358-0.668,2.431-0.668,2.683c0,0.126,0.116,0.146,0.136,0.146
		c0.165,0,0.377-0.271,0.688-0.658L21.903,258.885z"/>
	<path display="inline" d="M24.866,258.943c-0.097,0.135-0.852,0.91-1.694,0.91c-0.881,0-1.152-0.658-1.152-1.182
		c0-1.201,1.327-2.614,2.508-2.614c0.426,0,0.688,0.203,0.688,0.571c0,0.658-0.784,1.346-2.15,1.539l-0.232,0.029
		c-0.039,0.174-0.087,0.349-0.087,0.514c0,0.571,0.436,0.765,0.784,0.765c0.455,0,0.804-0.28,1.23-0.63L24.866,258.943z"/>
	<path display="inline" d="M25.147,259.756l0.678-2.449c0.087-0.311,0.136-0.6,0.136-0.668c0-0.116-0.039-0.252-0.3-0.252
		c-0.097,0-0.184,0.029-0.281,0.039v-0.146c0.426-0.058,0.92-0.165,1.297-0.223l0.029,0.02l-0.407,1.675l0.02,0.02l0.067-0.164
		c0.281-0.553,0.911-1.54,1.443-1.54c0.194,0,0.407,0.126,0.407,0.407c0,0.436-0.301,0.436-0.397,0.436
		c-0.358,0-0.232-0.301-0.436-0.301c-0.262,0-0.765,0.93-0.833,1.056c-0.319,0.601-0.436,0.978-0.784,2.101h-0.639V259.756z"/>
	<path display="inline" d="M27.839,258.527c0.058,0.367,0.194,1.143,0.872,1.143c0.475,0,0.6-0.407,0.6-0.678
		c0-0.553-0.997-1.356-0.997-2.005c0-0.262,0.116-0.93,1.007-0.93c0.378,0,0.543,0.146,0.794,0.146c0.146,0,0.194-0.088,0.232-0.155
		h0.116l-0.164,1.172h-0.136c-0.039-0.475-0.242-0.968-0.784-0.968c-0.185,0-0.455,0.076-0.455,0.483
		c0,0.532,1.025,1.278,1.025,1.985c0,0.91-0.783,1.123-1.248,1.123c-0.252,0-0.592-0.154-0.833-0.154
		c-0.116,0-0.155,0.086-0.204,0.174h-0.136l0.165-1.336H27.839L27.839,258.527z"/>
	<path display="inline" d="M37.076,255.825c-0.02-0.232-0.096-1.355-1.297-1.355c-1.676,0-2.537,2.033-2.537,3.263
		c0,1.104,0.465,1.801,1.462,1.801c0.949,0,1.54-0.6,1.937-0.987l0.146,0.116c-0.31,0.368-1.056,1.25-2.285,1.25
		c-0.978,0-2.198-0.592-2.198-2.267c0-1.617,1.481-3.476,3.408-3.476c0.601,0,1.113,0.203,1.308,0.203
		c0.242,0,0.29-0.098,0.339-0.184h0.174l-0.31,1.674L37.076,255.825z"/>
	<path display="inline" d="M38.984,258.798c-0.426,0.649-0.756,1.046-1.278,1.046c-0.368,0-0.407-0.281-0.407-0.523
		c0-0.174,1.221-4.561,1.221-4.734c0-0.223-0.349-0.223-0.571-0.213v-0.136c0.436-0.048,0.871-0.126,1.308-0.223l0.038,0.038
		l-1.269,4.861c-0.02,0.078-0.087,0.301-0.087,0.396c0,0.049,0,0.165,0.126,0.165c0.213,0,0.387-0.232,0.794-0.765L38.984,258.798z"
		/>
	<path display="inline" d="M42.789,258.846c-0.532,0.766-0.745,0.979-1.171,0.979c-0.378,0-0.397-0.31-0.397-0.436
		c0-0.155,0.165-0.852,0.358-1.549h-0.028c-0.572,0.948-1.191,1.994-1.947,1.994c-0.3,0-0.465-0.126-0.465-0.494
		c0-0.367,0.64-2.488,0.64-2.711c0-0.242-0.155-0.242-0.503-0.242v-0.116c0.416-0.048,0.842-0.126,1.258-0.223l0.029,0.02
		l-0.766,3.05c-0.028,0.107,0,0.281,0.175,0.281c0.358,0,0.892-0.785,1.172-1.23c0.407-0.619,0.601-1.152,0.92-2.053h0.62
		l-0.659,2.508c-0.048,0.165-0.155,0.533-0.155,0.659c0,0.038,0.01,0.136,0.098,0.136c0.154,0,0.396-0.291,0.688-0.658
		L42.789,258.846z"/>
	<path display="inline" d="M43.555,254.218c0.416-0.048,0.852-0.106,1.287-0.194l0.039,0.039c-0.184,0.688-0.436,1.627-0.727,2.576
		l0.02,0.01c0.281-0.436,0.707-0.853,1.463-0.853c0.59,0,0.969,0.669,0.969,1.278c0,1.326-1.404,2.779-2.684,2.779
		c-0.445,0-1.094-0.262-1.094-0.445v-0.029l1.143-4.203c0.059-0.232,0.136-0.445,0.136-0.561c0-0.194-0.058-0.232-0.542-0.242
		v-0.155H43.555z"/>
	<path display="inline" d="M8.676,266.08c0.406-0.078,0.532-0.098,0.678-0.62l0.997-3.515c0.049-0.165,0.097-0.368,0.097-0.523
		c0-0.291-0.223-0.319-0.591-0.357v-0.137h2.072v0.137c-0.407,0.076-0.542,0.096-0.688,0.619l-0.998,3.524
		c-0.048,0.165-0.097,0.339-0.097,0.532c0,0.271,0.213,0.291,0.571,0.34v0.135H8.676V266.08z"/>
	<path display="inline" d="M15.125,265.344c-0.417,0.562-0.716,0.949-1.172,0.949c-0.387,0-0.406-0.252-0.406-0.494
		c0-0.203,0.62-2.246,0.62-2.586c0-0.154-0.048-0.271-0.213-0.271c-0.406,0-0.929,0.726-1.229,1.19
		c-0.387,0.582-0.494,0.939-0.842,2.082h-0.629c0.261-0.949,0.823-2.914,0.823-3.088c0-0.127-0.087-0.224-0.532-0.224v-0.136
		c0.455-0.087,0.91-0.164,1.355-0.262l0.029,0.02l-0.532,1.763l0.019,0.02c0.397-0.62,1.172-1.792,1.859-1.792
		c0.387,0,0.581,0.204,0.581,0.553c0,0.357-0.668,2.43-0.668,2.682c0,0.127,0.116,0.146,0.136,0.146
		c0.165,0,0.377-0.271,0.688-0.658L15.125,265.344z"/>
	<path display="inline" d="M17.362,262.895h-0.707l-0.736,2.798c-0.01,0.028-0.01,0.038-0.01,0.067c0,0.078,0.039,0.146,0.136,0.146
		c0.165,0,0.465-0.397,0.668-0.659l0.106,0.059c-0.426,0.648-0.755,1.018-1.191,1.018c-0.165,0-0.407-0.088-0.407-0.34
		c0-0.125,0.155-0.639,0.194-0.774l0.6-2.305h-0.62c-0.01-0.048-0.01-0.097,0.02-0.136c0.048-0.077,0.281-0.135,0.426-0.213
		c0.281-0.145,0.678-0.522,0.911-0.813c0.029-0.039,0.067-0.117,0.145-0.098c0.058-0.02,0.078,0.059,0.058,0.126l-0.232,0.862h0.668
		L17.362,262.895z"/>
	<path display="inline" d="M19.957,265.402c-0.097,0.135-0.852,0.91-1.695,0.91c-0.881,0-1.152-0.659-1.152-1.182
		c0-1.201,1.327-2.615,2.508-2.615c0.426,0,0.688,0.204,0.688,0.572c0,0.658-0.785,1.346-2.15,1.539l-0.232,0.029
		c-0.039,0.174-0.087,0.349-0.087,0.514c0,0.57,0.436,0.764,0.784,0.764c0.455,0,0.804-0.28,1.23-0.629L19.957,265.402z"/>
	<path display="inline" d="M20.267,266.215l0.678-2.449c0.087-0.311,0.136-0.601,0.136-0.668c0-0.117-0.039-0.252-0.3-0.252
		c-0.097,0-0.184,0.029-0.281,0.039v-0.146c0.426-0.058,0.92-0.164,1.298-0.223l0.029,0.02l-0.407,1.676l0.02,0.02l0.068-0.165
		c0.281-0.552,0.91-1.54,1.442-1.54c0.194,0,0.407,0.127,0.407,0.407c0,0.436-0.3,0.436-0.397,0.436c-0.358,0-0.232-0.3-0.436-0.3
		c-0.262,0-0.765,0.93-0.833,1.055c-0.319,0.602-0.436,0.979-0.784,2.102h-0.639V266.215z"/>
	<path display="inline" d="M27.006,265.344c-0.417,0.562-0.717,0.949-1.172,0.949c-0.387,0-0.407-0.252-0.407-0.494
		c0-0.203,0.62-2.246,0.62-2.586c0-0.154-0.048-0.271-0.213-0.271c-0.407,0-0.93,0.726-1.229,1.19
		c-0.388,0.582-0.494,0.939-0.843,2.082h-0.62c0.261-0.949,0.823-2.914,0.823-3.088c0-0.127-0.087-0.224-0.533-0.224v-0.136
		c0.455-0.087,0.91-0.164,1.355-0.262l0.029,0.02l-0.533,1.753l0.02,0.02c0.397-0.62,1.171-1.792,1.859-1.792
		c0.388,0,0.581,0.204,0.581,0.553c0,0.357-0.668,2.43-0.668,2.682c0,0.127,0.116,0.146,0.135,0.146
		c0.165,0,0.378-0.271,0.688-0.658L27.006,265.344z"/>
	<path display="inline" d="M30.859,265.373c-0.503,0.619-0.783,0.92-1.152,0.92c-0.348,0-0.348-0.223-0.348-0.359
		c0-0.193,0.039-0.377,0.174-0.891l-0.02-0.02c-0.697,1.027-1.143,1.279-1.646,1.279c-0.843,0-0.862-0.746-0.862-0.988
		c0-1.229,1.288-2.809,2.402-2.809c0.357,0,0.639,0.223,0.658,0.455h0.02l0.086-0.367l0.029-0.029l0.514-0.059l0.059,0.029
		c-0.029,0.098-0.795,2.963-0.795,3.225c0,0.059,0.049,0.107,0.117,0.107c0.125,0,0.29-0.214,0.668-0.582L30.859,265.373z"/>
	<path display="inline" d="M32.98,262.895h-0.707l-0.735,2.798c-0.01,0.028-0.01,0.038-0.01,0.067c0,0.078,0.038,0.146,0.136,0.146
		c0.164,0,0.465-0.397,0.668-0.659l0.106,0.059c-0.427,0.648-0.755,1.018-1.19,1.018c-0.166,0-0.407-0.088-0.407-0.34
		c0-0.125,0.155-0.639,0.193-0.774l0.601-2.305h-0.619c-0.01-0.048-0.01-0.097,0.019-0.136c0.048-0.077,0.28-0.135,0.427-0.213
		c0.28-0.145,0.678-0.522,0.91-0.813c0.028-0.039,0.067-0.117,0.145-0.098c0.059-0.02,0.078,0.059,0.059,0.126l-0.232,0.862h0.668
		L32.98,262.895z"/>
	<path display="inline" d="M34.743,265.354c-0.329,0.494-0.697,0.959-1.172,0.959c-0.397,0-0.397-0.369-0.397-0.523
		c0-0.396,0.658-2.479,0.658-2.711c0-0.175-0.066-0.223-0.531-0.223v-0.136c0.318-0.02,1.016-0.155,1.346-0.214l0.029,0.02
		l-0.736,2.702c-0.029,0.116-0.136,0.455-0.136,0.552c0,0.059,0.058,0.126,0.136,0.126c0.097,0,0.348-0.165,0.688-0.659
		L34.743,265.354z"/>
	<path display="inline" d="M34.568,261.615c-0.213,0-0.406-0.145-0.406-0.436c0-0.29,0.193-0.455,0.396-0.455
		c0.281,0,0.416,0.281,0.416,0.465C34.984,261.354,34.85,261.615,34.568,261.615z"/>
	<path display="inline" d="M38.568,263.756c0,1.035-1.152,2.557-2.432,2.557c-0.891,0-1.268-0.514-1.268-1.211
		c0-1.23,1.239-2.586,2.469-2.586C38.307,262.516,38.568,263.203,38.568,263.756z"/>
	<path display="inline" d="M42.189,265.344c-0.416,0.562-0.717,0.949-1.172,0.949c-0.387,0-0.406-0.252-0.406-0.494
		c0-0.203,0.619-2.246,0.619-2.586c0-0.154-0.049-0.271-0.213-0.271c-0.406,0-0.93,0.726-1.23,1.19
		c-0.387,0.582-0.493,0.939-0.842,2.082h-0.629c0.262-0.949,0.822-2.914,0.822-3.088c0-0.127-0.087-0.224-0.532-0.224v-0.136
		c0.455-0.087,0.91-0.164,1.355-0.262l0.029,0.02l-0.532,1.753l0.02,0.02c0.396-0.62,1.171-1.792,1.858-1.792
		c0.388,0,0.581,0.204,0.581,0.553c0,0.357-0.668,2.43-0.668,2.682c0,0.127,0.116,0.146,0.136,0.146
		c0.165,0,0.378-0.271,0.688-0.658L42.189,265.344z"/>
	<path display="inline" d="M46.082,265.373c-0.504,0.619-0.785,0.92-1.152,0.92c-0.349,0-0.349-0.223-0.349-0.359
		c0-0.193,0.038-0.377,0.175-0.891l-0.02-0.02c-0.697,1.027-1.143,1.279-1.646,1.279c-0.842,0-0.861-0.746-0.861-0.988
		c0-1.229,1.287-2.809,2.4-2.809c0.359,0,0.64,0.223,0.658,0.455h0.02l0.088-0.367l0.029-0.029l0.513-0.059l0.058,0.029
		c-0.028,0.098-0.793,2.963-0.793,3.225c0,0.059,0.048,0.107,0.115,0.107c0.127,0,0.291-0.214,0.668-0.582L46.082,265.373z"/>
	<path display="inline" d="M47.68,265.488c-0.426,0.649-0.591,0.824-1.113,0.824c-0.368,0-0.407-0.281-0.407-0.523
		c0-0.174,1.22-4.561,1.22-4.734c0-0.223-0.348-0.223-0.57-0.214v-0.136c0.436-0.048,0.871-0.125,1.307-0.223l0.039,0.039
		l-1.269,4.861c-0.02,0.077-0.087,0.3-0.087,0.396c0,0.049,0,0.164,0.125,0.164c0.213,0,0.223-0.01,0.63-0.531L47.68,265.488z"/>
	<path display="inline" fill="#2656A0" d="M33.794,252.543c4.58,0,8.298-3.719,8.298-8.299s-3.718-8.299-8.298-8.299H23.297
		c-4.58,0-8.298,3.719-8.298,8.299s3.718,8.299,8.298,8.299H33.794z"/>
	<g display="inline">
		<circle fill="#FFFFFF" cx="22.813" cy="244.244" r="8.114"/>
	</g>
	<path display="inline" fill="#2656A0" d="M21.177,239.558c-1.937,0.678-3.321,2.518-3.321,4.687s1.395,4.019,3.331,4.687
		L21.177,239.558z"/>
	<path display="inline" fill="#2656A0" d="M27.771,244.244c0,2.169-1.394,4.019-3.331,4.687l0.01-9.373
		C26.386,240.235,27.771,242.075,27.771,244.244"/>
	<path display="inline" fill="#FFFFFF" d="M12.065,258.391c-0.077,0.281-0.184,0.649-0.184,0.785c0,0.281,0.203,0.329,0.6,0.329
		c2.644,0,2.721-2.421,2.721-2.935c0-0.852-0.126-1.878-1.607-1.878c-0.475,0-0.513,0.126-0.542,0.241L12.065,258.391z"/>
	<path display="inline" fill="#FFFFFF" d="M22.891,258.014c1.733-0.349,1.772-1.355,1.772-1.424c0-0.174-0.087-0.338-0.291-0.338
		c-0.455,0-1.026,0.648-1.336,1.394L22.891,258.014z"/>
	<path display="inline" fill="#FFFFFF" d="M45.316,256.232c-0.92,0-1.646,1.655-1.762,3.146c0,0.059,0,0.281,0.396,0.281
		c1.152,0,1.947-1.772,1.947-2.479C45.889,256.92,45.84,256.232,45.316,256.232z"/>
	<path display="inline" fill="#FFFFFF" d="M17.991,264.473c1.733-0.35,1.772-1.355,1.772-1.424c0-0.174-0.087-0.339-0.291-0.339
		c-0.455,0-1.026,0.648-1.336,1.394L17.991,264.473z"/>
	<path display="inline" fill="#FFFFFF" d="M28.217,265.896c0.891,0,1.714-1.811,1.714-2.634c0-0.406-0.232-0.562-0.475-0.562
		c-0.978,0-1.733,1.85-1.733,2.604C27.713,265.74,27.984,265.896,28.217,265.896z"/>
	<path display="inline" fill="#FFFFFF" d="M35.576,265.354c0,0.475,0.252,0.784,0.668,0.784c0.959,0,1.617-1.733,1.617-2.634
		c0-0.436-0.185-0.804-0.592-0.804C36.341,262.69,35.576,264.355,35.576,265.354z"/>
	<path display="inline" fill="#FFFFFF" d="M43.438,265.896c0.891,0,1.714-1.811,1.714-2.634c0-0.406-0.232-0.562-0.475-0.562
		c-0.979,0-1.733,1.85-1.733,2.604C42.936,265.74,43.206,265.896,43.438,265.896z"/>
</g>
<g id="Layer_2" display="none">
	<g display="inline">
		<path fill="#2A63A9" d="M26.464,261.121c2.856-2.604,4.657-6.381,4.657-10.573s-1.791-7.96-4.657-10.573
			c-2.508-2.295-5.849-3.689-9.499-3.689c-7.814,0-14.157,6.381-14.157,14.263c0,7.872,6.342,14.263,14.157,14.263
			C20.615,264.811,23.946,263.416,26.464,261.121L26.464,261.121z"/>
		<path fill="#E10F29" d="M35.963,236.295c-3.66,0-6.991,1.395-9.499,3.688c-0.513,0.465-0.988,0.969-1.433,1.511h2.856
			c0.387,0.475,0.755,0.979,1.075,1.511h-5.016c-0.3,0.483-0.571,0.987-0.813,1.511h6.652c0.223,0.484,0.426,0.997,0.601,1.51
			h-7.843c-0.165,0.494-0.3,0.998-0.407,1.512h8.657c0.213,0.978,0.318,1.984,0.318,3.021c0,1.588-0.252,3.108-0.726,4.532h-7.843
			c0.174,0.513,0.368,1.016,0.6,1.51h6.652c-0.242,0.523-0.514,1.027-0.813,1.511h-5.016c0.329,0.522,0.688,1.036,1.075,1.511h2.847
			c-0.436,0.542-0.92,1.045-1.433,1.51c2.508,2.295,5.849,3.689,9.499,3.689c7.814,0,14.156-6.381,14.156-14.263
			C50.119,242.676,43.777,236.295,35.963,236.295L35.963,236.295z"/>
		<path fill="#E10F29" d="M48.231,258.498c0-0.252,0.204-0.465,0.455-0.465c0.252,0,0.455,0.203,0.455,0.465
			c0,0.252-0.203,0.465-0.455,0.465C48.436,258.963,48.231,258.76,48.231,258.498L48.231,258.498z M48.696,258.855
			c0.194,0,0.349-0.154,0.349-0.348s-0.154-0.35-0.349-0.35s-0.349,0.156-0.349,0.35C48.348,258.691,48.502,258.855,48.696,258.855
			L48.696,258.855z M48.629,258.701h-0.098v-0.406h0.175c0.038,0,0.067,0,0.106,0.02c0.029,0.019,0.049,0.057,0.049,0.096
			c0,0.049-0.029,0.088-0.068,0.107l0.078,0.174h-0.107l-0.058-0.164h-0.067v0.174v-0.223h0.048c0.02,0,0.038,0,0.058-0.01
			s0.02-0.029,0.02-0.049s-0.01-0.029-0.02-0.039c-0.02-0.01-0.038-0.01-0.058-0.01h-0.048v0.107v0.223H48.629z"/>
		<path fill="#FFFFFF" d="M45.239,253.646c0-0.252,0.204-0.465,0.455-0.465c0.252,0,0.456,0.203,0.456,0.465
			c0,0.252-0.204,0.465-0.456,0.465C45.443,254.102,45.239,253.898,45.239,253.646L45.239,253.646z M45.694,253.995
			c0.194,0,0.349-0.155,0.349-0.349s-0.154-0.349-0.349-0.349c-0.193,0-0.349,0.155-0.349,0.349S45.511,253.995,45.694,253.995
			L45.694,253.995z M45.637,253.85h-0.098v-0.406h0.175c0.038,0,0.067,0,0.106,0.02c0.029,0.02,0.049,0.058,0.049,0.096
			c0,0.049-0.029,0.088-0.068,0.107l0.078,0.174h-0.107l-0.058-0.154h-0.067v0.164v-0.232h0.048c0.02,0,0.039,0,0.058-0.01
			c0.02-0.01,0.02-0.029,0.02-0.049c0-0.019-0.01-0.028-0.02-0.038c-0.019-0.01-0.038-0.01-0.058-0.01h-0.048v0.106v0.232H45.637z"
			/>
		<polygon fill="#FFFFFF" points="15.193,254.102 13.431,254.102 14.476,248.543 12.065,254.102 10.458,254.102 10.167,248.572 
			9.112,254.102 7.514,254.102 8.879,246.878 11.629,246.878 11.775,251.352 13.711,246.878 16.578,246.878 		"/>
		<path fill="#FFFFFF" d="M34.879,254.033c-0.484,0.137-0.862,0.194-1.27,0.194c-0.9,0-1.394-0.455-1.394-1.288
			c0-0.164,0.019-0.339,0.048-0.523l0.107-0.57l0.086-0.465l0.814-4.493h1.752l-0.252,1.346h0.9l-0.241,1.433h-0.901l-0.465,2.451
			c-0.019,0.105-0.028,0.184-0.028,0.241c0,0.3,0.185,0.437,0.601,0.437c0.203,0,0.357-0.02,0.475-0.059L34.879,254.033
			L34.879,254.033z"/>
		<path fill="#FFFFFF" d="M40.02,248.272c-0.145-0.058-0.184-0.058-0.203-0.067c-0.096-0.02-0.145-0.029-0.154-0.039
			c-0.059-0.01-0.116-0.02-0.174-0.02c-0.582,0-0.998,0.262-1.531,0.959l0.156-0.891h-1.598l-1.076,5.877h1.764
			c0.629-3.592,0.9-4.222,1.742-4.222c0.068,0,0.136,0.01,0.223,0.02l0.203,0.038L40.02,248.272L40.02,248.272z"/>
		<path fill="#FFFFFF" d="M27.897,250.083c0,0.745,0.417,1.259,1.355,1.637c0.727,0.29,0.834,0.378,0.834,0.648
			c0,0.368-0.32,0.532-1.027,0.532c-0.532,0-1.025-0.067-1.597-0.232l-0.242,1.355l0.078,0.01l0.329,0.059
			c0.106,0.02,0.261,0.039,0.465,0.049c0.426,0.029,0.755,0.049,0.987,0.049c1.879,0,2.75-0.621,2.75-1.967
			c0-0.803-0.367-1.277-1.259-1.637c-0.745-0.299-0.833-0.367-0.833-0.639c0-0.319,0.301-0.484,0.872-0.484
			c0.349,0,0.823,0.029,1.278,0.088l0.252-1.365c-0.465-0.068-1.162-0.117-1.569-0.117
			C28.574,248.088,27.887,248.998,27.897,250.083L27.897,250.083z"/>
		<path fill="#FFFFFF" d="M20.916,254.102h-1.462l0.039-0.609c-0.445,0.483-1.036,0.706-1.85,0.706
			c-0.958,0-1.607-0.658-1.607-1.607c0-1.433,1.143-2.266,3.099-2.266c0.203,0,0.455,0.02,0.716,0.048
			c0.059-0.193,0.068-0.28,0.068-0.377c0-0.388-0.31-0.533-1.133-0.533c-0.503,0-1.075,0.068-1.462,0.165l-0.242,0.058l-0.155,0.039
			l0.242-1.326c0.881-0.223,1.462-0.311,2.111-0.311c1.511,0,2.314,0.602,2.314,1.725c0,0.29-0.029,0.513-0.145,1.162l-0.368,2.081
			l-0.068,0.388l-0.048,0.3l-0.029,0.204L20.916,254.102L20.916,254.102z M19.627,251.487c-0.184-0.02-0.261-0.029-0.397-0.029
			c-0.997,0-1.5,0.3-1.5,0.892c0,0.367,0.242,0.6,0.629,0.6C19.085,252.959,19.599,252.35,19.627,251.487L19.627,251.487z"/>
		<path fill="#FFFFFF" d="M26.696,253.976c-0.6,0.165-1.191,0.242-1.801,0.242c-1.965,0-2.992-0.9-2.992-2.634
			c0-2.014,1.307-3.506,3.079-3.506c1.453,0,2.373,0.834,2.373,2.141c0,0.436-0.068,0.852-0.213,1.452h-3.515
			c-0.01,0.087-0.02,0.136-0.02,0.185c0,0.678,0.523,1.025,1.549,1.025c0.629,0,1.201-0.115,1.83-0.367L26.696,253.976
			L26.696,253.976z M25.757,250.48c0.01-0.127,0.02-0.223,0.02-0.301c0-0.475-0.31-0.755-0.833-0.755
			c-0.562,0-0.959,0.378-1.124,1.056H25.757L25.757,250.48z"/>
		<path fill="#FFFFFF" d="M45.501,251.439c-0.262,1.955-1.617,2.826-3.419,2.826c-1.994,0-2.798-1.22-2.798-2.711
			c0-2.082,1.366-3.496,3.467-3.496c1.83,0,2.798,1.162,2.798,2.654C45.549,251.07,45.549,251.1,45.501,251.439L45.501,251.439z
			 M43.689,250.684c0-0.619-0.251-1.201-0.968-1.201c-0.9,0-1.452,1.075-1.452,2.014c0,0.795,0.377,1.337,1.017,1.318
			c0.378,0,1.2-0.523,1.355-1.443C43.671,251.178,43.689,250.936,43.689,250.684L43.689,250.684z"/>
	</g>
</g>
<g id="Layer_3">
	
		<radialGradient id="SVGID_1_" cx="2818.6426" cy="979.5684" r="303.8394" gradientTransform="matrix(0.0968 0 0 0.0968 -255.6671 -77.589)" gradientUnits="userSpaceOnUse">
		<stop  offset="0" style="stop-color:#9DD3F2"/>
		<stop  offset="0.0711" style="stop-color:#99D1F1"/>
		<stop  offset="0.1575" style="stop-color:#8ACDF0"/>
		<stop  offset="0.2516" style="stop-color:#71C4EC"/>
		<stop  offset="0.3514" style="stop-color:#4FBAE9"/>
		<stop  offset="0.4546" style="stop-color:#2AABE0"/>
		<stop  offset="0.5" style="stop-color:#19A4DB"/>
		<stop  offset="1" style="stop-color:#3176B7"/>
	</radialGradient>
	<path fill="url(#SVGID_1_)" d="M43.09,11.765H11.736v31.469H43.09V32.846c0.125-0.186,0.184-0.408,0.184-0.688
		c0-0.32-0.059-0.523-0.184-0.688"/>
	<path fill="#FFFFFF" d="M14.554,25.379l-0.6-1.472l-0.601,1.472 M27.849,24.798c-0.126,0.077-0.261,0.077-0.436,0.077h-1.075
		v-0.822h1.084c0.155,0,0.31,0.01,0.417,0.067c0.116,0.058,0.185,0.165,0.185,0.329C28.023,24.605,27.965,24.741,27.849,24.798z
		 M35.479,25.379l-0.609-1.472l-0.611,1.472H35.479z M21.245,26.977h-0.9v-2.885l-1.278,2.885h-0.774l-1.278-2.885v2.885h-1.792
		l-0.339-0.822h-1.83l-0.339,0.822h-0.958l1.578-3.689h1.308l1.5,3.486v-3.486h1.424l1.152,2.498l1.056-2.498h1.472V26.977
		L21.245,26.977z M24.847,26.977h-2.943v-3.689h2.943v0.766h-2.063v0.668h2.014v0.755h-2.014v0.736h2.063V26.977z M29.001,24.276
		c0,0.59-0.397,0.891-0.62,0.978c0.193,0.077,0.358,0.204,0.436,0.31c0.127,0.185,0.146,0.35,0.146,0.678v0.727h-0.892v-0.465
		c0-0.223,0.02-0.542-0.136-0.717c-0.125-0.125-0.329-0.154-0.639-0.154h-0.949v1.336h-0.881v-3.689h2.023
		c0.455,0,0.785,0.01,1.065,0.175C28.826,23.627,29.001,23.869,29.001,24.276z M30.404,26.977h-0.9v-3.689h0.9V26.977z
		 M40.844,26.977h-1.25l-1.676-2.77v2.77h-1.791l-0.338-0.822h-1.83l-0.33,0.822h-1.025c-0.428,0-0.969-0.097-1.279-0.406
		c-0.309-0.311-0.475-0.736-0.475-1.404c0-0.543,0.098-1.046,0.475-1.443c0.281-0.29,0.727-0.426,1.336-0.426h0.854v0.795H32.67
		c-0.318,0-0.502,0.048-0.678,0.223c-0.154,0.154-0.252,0.445-0.252,0.832c0,0.396,0.078,0.678,0.242,0.861
		c0.137,0.146,0.379,0.194,0.611,0.194h0.396l1.24-2.896h1.316l1.49,3.486v-3.486h1.346l1.551,2.566v-2.566h0.9v3.67H40.844z
		 M11.736,27.694h1.501l0.339-0.823h0.755l0.339,0.823h2.963v-0.629l0.262,0.629h1.54l0.261-0.639v0.639h7.359v-1.346H27.2
		c0.097,0,0.126,0.01,0.126,0.174v1.172h3.805v-0.311c0.311,0.165,0.785,0.311,1.414,0.311h1.598l0.338-0.823h0.756l0.34,0.823
		h3.088v-0.775l0.465,0.775h2.469v-5.143h-2.449v0.611l-0.338-0.611h-2.51v0.611l-0.318-0.611h-3.389
		c-0.572,0-1.066,0.078-1.473,0.301v-0.301h-2.324v0.301c-0.261-0.232-0.609-0.301-0.997-0.301h-8.56l-0.571,1.327l-0.59-1.327
		h-2.692v0.611l-0.3-0.611h-2.295l-1.065,2.441L11.736,27.694L11.736,27.694z"/>
	<path fill="#FFFFFF" d="M43.09,30.414h-1.607c-0.164,0-0.271,0.01-0.359,0.068c-0.096,0.059-0.125,0.145-0.125,0.262
		c0,0.135,0.078,0.232,0.193,0.271c0.098,0.027,0.193,0.037,0.34,0.037l0.475,0.01c0.482,0.01,0.803,0.098,0.996,0.301
		c0.039,0.029,0.059,0.059,0.078,0.088 M43.09,32.846c-0.213,0.309-0.629,0.473-1.201,0.473h-1.703v-0.793h1.693
		c0.164,0,0.291-0.02,0.359-0.088c0.057-0.057,0.105-0.135,0.105-0.242c0-0.105-0.039-0.193-0.105-0.242
		c-0.068-0.057-0.156-0.076-0.311-0.076c-0.822-0.029-1.859,0.029-1.859-1.143c0-0.533,0.34-1.094,1.27-1.094h1.752v-0.746h-1.627
		c-0.494,0-0.852,0.115-1.104,0.299v-0.299h-2.412c-0.387,0-0.842,0.096-1.055,0.299v-0.299h-4.318v0.299
		c-0.34-0.25-0.92-0.299-1.191-0.299h-2.837v0.299c-0.271-0.26-0.872-0.299-1.239-0.299H24.13l-0.726,0.783l-0.678-0.783h-4.754
		v5.141h4.658l0.746-0.803l0.707,0.803h2.876v-1.209h0.281c0.377,0.01,0.833-0.01,1.23-0.186v1.385h2.371V32.68h0.117
		c0.145,0,0.164,0.01,0.164,0.156v1.189h7.195c0.455,0,0.939-0.115,1.199-0.328v0.328h2.285c0.475,0,0.939-0.066,1.289-0.232V32.846
		L43.09,32.846z M39.574,31.373c0.174,0.174,0.262,0.396,0.262,0.785c0,0.793-0.494,1.16-1.385,1.16h-1.713v-0.793h1.713
		c0.164,0,0.281-0.02,0.359-0.088c0.057-0.057,0.105-0.135,0.105-0.242c0-0.105-0.049-0.193-0.105-0.242
		c-0.068-0.057-0.166-0.076-0.311-0.076c-0.824-0.029-1.859,0.029-1.859-1.143c0-0.533,0.34-1.094,1.26-1.094h1.762v0.783h-1.617
		c-0.164,0-0.262,0.01-0.35,0.068c-0.096,0.059-0.135,0.145-0.135,0.262c0,0.135,0.078,0.232,0.193,0.271
		c0.098,0.027,0.193,0.037,0.34,0.037l0.475,0.01C39.043,31.092,39.371,31.17,39.574,31.373z M31.615,31.15
		c-0.117,0.068-0.262,0.078-0.436,0.078h-1.074v-0.834h1.084c0.154,0,0.309,0,0.416,0.068c0.115,0.059,0.184,0.174,0.184,0.33
		C31.799,30.947,31.73,31.082,31.615,31.15z M32.148,31.605c0.193,0.068,0.357,0.203,0.436,0.311
		c0.125,0.184,0.145,0.348,0.145,0.678v0.725h-0.881v-0.463c0-0.225,0.02-0.553-0.145-0.727c-0.127-0.137-0.33-0.166-0.65-0.166
		h-0.939v1.348h-0.88v-3.689h2.032c0.447,0,0.775,0.02,1.066,0.174c0.281,0.164,0.455,0.396,0.455,0.822
		C32.777,31.219,32.381,31.518,32.148,31.605z M33.262,29.631h2.943v0.764h-2.063v0.668h2.014v0.756h-2.014v0.736h2.063v0.764
		h-2.943V29.631z M27.316,31.334h-1.133v-0.939h1.152c0.319,0,0.542,0.127,0.542,0.455C27.868,31.17,27.655,31.334,27.316,31.334z
		 M25.302,32.98l-1.355-1.5l1.355-1.453V32.98z M21.806,32.555h-2.169v-0.736h1.937v-0.756h-1.937v-0.668h2.208l0.968,1.076
		L21.806,32.555z M28.816,30.85c0,1.027-0.765,1.24-1.529,1.24h-1.104v1.238h-1.714l-1.084-1.219l-1.123,1.219h-3.486v-3.688h3.535
		l1.084,1.209l1.123-1.209h2.818C28.023,29.631,28.816,29.824,28.816,30.85z"/>
</g>
</svg>
