<?xml version="1.0" encoding="utf-8"?>
<!-- Generator: Adobe Illustrator 17.1.0, SVG Export Plug-In . SVG Version: 6.00 Build 0)  -->
<!DOCTYPE svg PUBLIC "-//W3C//DTD SVG 1.1//EN" "http://www.w3.org/Graphics/SVG/1.1/DTD/svg11.dtd">
<svg version="1.1" id="Layer_1" xmlns="http://www.w3.org/2000/svg" xmlns:xlink="http://www.w3.org/1999/xlink" x="0px" y="0px"
	 viewBox="0 0 114.3 51.1" enable-background="new 0 0 114.3 51.1" xml:space="preserve">
<g>
	<polygon fill-rule="evenodd" clip-rule="evenodd" points="7.9,0 13.3,0 13.3,51 7.9,51 7.9,0 	"/>
	<polygon fill-rule="evenodd" clip-rule="evenodd" points="15,0 16.7,0 16.7,51 15,51 15,0 	"/>
	<polygon fill-rule="evenodd" clip-rule="evenodd" points="18.2,0 21.2,0 21.2,51 18.2,51 18.2,0 	"/>
	<polygon fill-rule="evenodd" clip-rule="evenodd" points="24.1,0 25.8,0 25.8,51 24.1,51 24.1,0 	"/>
	<polygon fill-rule="evenodd" clip-rule="evenodd" points="26.5,0 27.8,0 27.8,51 26.5,51 26.5,0 	"/>
	<polygon fill-rule="evenodd" clip-rule="evenodd" points="3.7,0 5.4,0 5.4,51 3.7,51 3.7,0 	"/>
	<polygon fill-rule="evenodd" clip-rule="evenodd" points="0,0 3,0 3,51 0,51 0,0 	"/>
	<polygon fill-rule="evenodd" clip-rule="evenodd" points="36.8,0 42.3,0 42.3,51 36.8,51 36.8,0 	"/>
	<polygon fill-rule="evenodd" clip-rule="evenodd" points="44,0 45.7,0 45.7,51 44,51 44,0 	"/>
	<polygon fill-rule="evenodd" clip-rule="evenodd" points="47.1,0 50.2,0 50.2,51 47.1,51 47.1,0 	"/>
	<polygon fill-rule="evenodd" clip-rule="evenodd" points="53.1,0 54.8,0 54.8,51 53.1,51 53.1,0 	"/>
	<polygon fill-rule="evenodd" clip-rule="evenodd" points="55.5,0 56.8,0 56.8,51 55.5,51 55.5,0 	"/>
	<polygon fill-rule="evenodd" clip-rule="evenodd" points="32.7,0 34.4,0 34.4,51 32.7,51 32.7,0 	"/>
	<polygon fill-rule="evenodd" clip-rule="evenodd" points="29,0 32,0 32,51 29,51 29,0 	"/>
	<polygon fill-rule="evenodd" clip-rule="evenodd" points="58.9,0 62,0 62,51 58.9,51 58.9,0 	"/>
	<polygon fill-rule="evenodd" clip-rule="evenodd" points="64.9,0 66.6,0 66.6,51 64.9,51 64.9,0 	"/>
	<polygon fill-rule="evenodd" clip-rule="evenodd" points="67.3,0 68.6,0 68.6,51 67.3,51 67.3,0 	"/>
	<polygon fill-rule="evenodd" clip-rule="evenodd" points="73.5,0 75.1,0 75.1,51 73.5,51 73.5,0 	"/>
	<polygon fill-rule="evenodd" clip-rule="evenodd" points="69.7,0 72.8,0 72.8,51 69.7,51 69.7,0 	"/>
	<polygon fill-rule="evenodd" clip-rule="evenodd" points="77.4,0 79.1,0 79.1,51 77.4,51 77.4,0 	"/>
	<polygon fill-rule="evenodd" clip-rule="evenodd" points="79.8,0 81.1,0 81.1,51 79.8,51 79.8,0 	"/>
	<polygon fill-rule="evenodd" clip-rule="evenodd" points="86,0 87.7,0 87.7,51 86,51 86,0 	"/>
	<polygon fill-rule="evenodd" clip-rule="evenodd" points="82.3,0 85.3,0 85.3,51 82.3,51 82.3,0 	"/>
	<polygon fill-rule="evenodd" clip-rule="evenodd" points="89.1,0 94.6,0 94.6,51 89.1,51 89.1,0 	"/>
	<polygon fill-rule="evenodd" clip-rule="evenodd" points="96.3,0 98,0 98,51 96.3,51 96.3,0 	"/>
	<polygon fill-rule="evenodd" clip-rule="evenodd" points="99.5,0 102.5,0 102.5,51 99.5,51 99.5,0 	"/>
	<polygon fill-rule="evenodd" clip-rule="evenodd" points="105.4,0 107.1,0 107.1,51 105.4,51 105.4,0 	"/>
	<polygon fill-rule="evenodd" clip-rule="evenodd" points="107.8,0 109.1,0 109.1,51 107.8,51 107.8,0 	"/>
	<polygon fill-rule="evenodd" clip-rule="evenodd" points="111.2,0 114.3,0 114.3,51 111.2,51 111.2,0 	"/>
	<polygon fill-rule="evenodd" clip-rule="evenodd" fill="#FFFFFF" points="6.2,51.1 110.5,51.1 110.5,22.5 6.2,22.5 6.2,51.1 	"/>
	<path d="M8.1,50V24.1h9.7c2,0,3.6,0.3,4.8,0.8c1.2,0.5,2.1,1.3,2.8,2.4c0.7,1.1,1,2.2,1,3.4c0,1.1-0.3,2.1-0.9,3.1
		c-0.6,1-1.5,1.8-2.7,2.4c1.6,0.5,2.8,1.2,3.6,2.3c0.8,1.1,1.3,2.4,1.3,3.9c0,1.2-0.3,2.3-0.8,3.4c-0.5,1-1.1,1.8-1.9,2.4
		c-0.8,0.6-1.7,1-2.8,1.3C21,49.8,19.6,50,18,50H8.1L8.1,50z M11.6,35h5.6c1.5,0,2.6-0.1,3.3-0.3c0.9-0.3,1.5-0.7,2-1.3
		c0.4-0.6,0.7-1.4,0.7-2.3c0-0.9-0.2-1.6-0.6-2.3c-0.4-0.7-1-1.1-1.8-1.3c-0.8-0.2-2.1-0.4-3.9-0.4h-5.2V35L11.6,35z M11.6,46.9H18
		c1.1,0,1.9,0,2.3-0.1c0.8-0.1,1.4-0.4,2-0.7s1-0.8,1.3-1.4c0.3-0.6,0.5-1.4,0.5-2.2c0-1-0.2-1.8-0.7-2.5c-0.5-0.7-1.2-1.2-2.1-1.5
		c-0.9-0.3-2.1-0.4-3.8-0.4h-6V46.9L11.6,46.9z"/>
	<path d="M30.8,40.6c0-3.5,1-6,2.9-7.7c1.6-1.4,3.6-2.1,5.9-2.1c2.6,0,4.7,0.8,6.3,2.5c1.6,1.7,2.4,4,2.4,7c0,2.4-0.4,4.3-1.1,5.7
		c-0.7,1.4-1.8,2.4-3.2,3.2c-1.4,0.8-2.9,1.1-4.5,1.1c-2.6,0-4.7-0.8-6.4-2.5C31.6,46.2,30.8,43.8,30.8,40.6L30.8,40.6z M34,40.6
		c0,2.4,0.5,4.2,1.6,5.4c1.1,1.2,2.4,1.8,4,1.8c1.6,0,2.9-0.6,3.9-1.8c1-1.2,1.6-3,1.6-5.5c0-2.3-0.5-4.1-1.6-5.2
		c-1.1-1.2-2.4-1.8-3.9-1.8c-1.6,0-2.9,0.6-4,1.8C34.5,36.4,34,38.2,34,40.6L34,40.6z"/>
	<polygon points="51.9,50 51.9,24.1 55.1,24.1 55.1,50 51.9,50 	"/>
	<path d="M72.8,43.9l3.3,0.4c-0.5,1.9-1.5,3.4-2.9,4.4c-1.4,1.1-3.2,1.6-5.3,1.6c-2.7,0-4.9-0.8-6.5-2.5c-1.6-1.7-2.4-4-2.4-7.1
		c0-3.1,0.8-5.6,2.4-7.3c1.6-1.7,3.7-2.6,6.3-2.6c2.5,0,4.5,0.8,6.1,2.6c1.6,1.7,2.4,4.1,2.4,7.2c0,0.2,0,0.5,0,0.8H62.2
		c0.1,2.1,0.7,3.6,1.7,4.7c1,1.1,2.3,1.6,3.9,1.6c1.2,0,2.2-0.3,3-0.9C71.7,46.2,72.3,45.3,72.8,43.9L72.8,43.9z M62.4,38.8h10.4
		c-0.1-1.6-0.5-2.8-1.2-3.5c-1-1.2-2.3-1.8-3.9-1.8c-1.5,0-2.7,0.5-3.7,1.5C63.1,35.9,62.5,37.2,62.4,38.8L62.4,38.8z"/>
	<path d="M87,47.1l0.4,2.8c-0.9,0.2-1.7,0.3-2.4,0.3c-1.1,0-2-0.2-2.7-0.5c-0.6-0.4-1.1-0.8-1.3-1.4c-0.3-0.6-0.4-1.8-0.4-3.8V33.7
		h-2.3v-2.5h2.3v-4.6l3.2-1.9v6.5H87v2.5h-3.2v11c0,0.9,0.1,1.5,0.2,1.8c0.1,0.3,0.3,0.5,0.5,0.6c0.3,0.2,0.6,0.2,1.1,0.2
		C86,47.3,86.4,47.2,87,47.1L87,47.1z"/>
	<path d="M88.9,40.6c0-3.5,1-6,2.9-7.7c1.6-1.4,3.6-2.1,5.9-2.1c2.6,0,4.7,0.8,6.3,2.5c1.6,1.7,2.4,4,2.4,7c0,2.4-0.4,4.3-1.1,5.7
		c-0.7,1.4-1.8,2.4-3.2,3.2c-1.4,0.8-2.9,1.1-4.5,1.1c-2.6,0-4.7-0.8-6.4-2.5C89.7,46.2,88.9,43.8,88.9,40.6L88.9,40.6z M92.2,40.6
		c0,2.4,0.5,4.2,1.6,5.4c1.1,1.2,2.4,1.8,4,1.8c1.6,0,2.9-0.6,3.9-1.8c1-1.2,1.6-3,1.6-5.5c0-2.3-0.5-4.1-1.6-5.2
		c-1.1-1.2-2.4-1.8-3.9-1.8c-1.6,0-2.9,0.6-4,1.8C92.7,36.4,92.2,38.2,92.2,40.6L92.2,40.6z"/>
</g>
</svg>
