<?xml version="1.0" encoding="utf-8"?>
<!-- Generator: Adobe Illustrator 18.1.0, SVG Export Plug-In . SVG Version: 6.00 Build 0)  -->
<!DOCTYPE svg PUBLIC "-//W3C//DTD SVG 1.1//EN" "http://www.w3.org/Graphics/SVG/1.1/DTD/svg11.dtd">
<svg version="1.1" id="Layer_1" xmlns="http://www.w3.org/2000/svg" xmlns:xlink="http://www.w3.org/1999/xlink" x="0px" y="0px"
	 viewBox="0 0 75 25" enable-background="new 0 0 75 25" xml:space="preserve">
<g>
	<path fill="#AAAAAA" d="M21.7,8.6c0.9,0,1.1-0.4,1.1-1.7l1.6,0.2c0,2-0.6,2.9-2.7,2.9c-2,0-2.9-1.1-2.9-4.8s0.9-4.8,2.9-4.8
		c2.1,0,2.7,0.9,2.7,2.9l-1.6,0.2c0-1.3-0.3-1.7-1.1-1.7c-1,0-1.2,1.1-1.2,3.4S20.7,8.6,21.7,8.6z"/>
	<path fill="#AAAAAA" d="M29.3,8.4h2.5v1.5h-4.2V0.4h1.6V8.4z"/>
	<path fill="#AAAAAA" d="M36.6,9.8h-1.6V0.4h1.6V9.8z"/>
	<path fill="#AAAAAA" d="M42.8,8.6c0.9,0,1.1-0.4,1.1-1.7l1.6,0.2c0,2-0.6,2.9-2.7,2.9c-2,0-2.9-1.1-2.9-4.8s0.9-4.8,2.9-4.8
		c2.1,0,2.7,0.9,2.7,2.9L44,3.4c0-1.3-0.3-1.7-1.1-1.7c-1,0-1.2,1.1-1.2,3.4S41.8,8.6,42.8,8.6z"/>
	<path fill="#AAAAAA" d="M50.4,4.9l1.9-4.4h1.9l-2.1,4.1l2.3,5.3h-2L51.1,6l-0.7,1.3l0,2.6h-1.6V0.4h1.6L50.4,4.9z"/>
	<path fill="#AAAAAA" d="M66.7,7.7C66.9,7.8,67,8,67.2,8V10c-0.4-0.3-0.8-0.6-1.3-0.9c-0.5,0.6-1.3,0.9-2.2,0.9
		c-1.7,0-2.4-1.1-2.4-2.7c0-1,0.3-1.8,1-2.4c-0.4-0.7-0.7-1.6-0.7-2.3c0-1.4,0.6-2.2,2.1-2.2c1.5,0,2,0.8,2,1.9
		c0,1.2-0.7,1.8-1.6,2.7c0.5,0.6,1,1.2,1.5,1.7c0.1-0.4,0.1-0.8,0.1-1.3c0-0.3,0-0.7-0.1-1l1.3-0.2C67,4.5,67.1,5,67.1,5.4
		C67.1,6.2,66.9,7,66.7,7.7z M64.9,8.1c-0.6-0.6-1.2-1.3-1.8-2.1c-0.2,0.3-0.3,0.7-0.3,1.1c0,1.1,0.4,1.5,1.1,1.5
		C64.3,8.6,64.6,8.4,64.9,8.1z M63.4,3.9C64,3.4,64.4,3,64.4,2.5c0-0.4-0.1-0.8-0.6-0.8c-0.5,0-0.7,0.3-0.7,0.9
		C63.1,3,63.3,3.5,63.4,3.9z"/>
	<path fill="#AAAAAA" d="M21.7,23.3c0.9,0,1.1-0.4,1.1-1.7l1.6,0.2c0,2-0.6,2.9-2.7,2.9c-2,0-2.9-1.1-2.9-4.8s0.9-4.8,2.9-4.8
		c2.1,0,2.7,0.9,2.7,2.9l-1.6,0.2c0-1.3-0.3-1.7-1.1-1.7c-1,0-1.2,1.1-1.2,3.4S20.7,23.3,21.7,23.3z"/>
	<path fill="#AAAAAA" d="M32.4,19.9c0,3.4-0.5,4.8-2.8,4.8s-2.8-1.4-2.8-4.8s0.5-4.8,2.8-4.8S32.4,16.5,32.4,19.9z M30.8,19.9
		c0-2.6-0.2-3.4-1.2-3.4s-1.2,0.8-1.2,3.4s0.2,3.4,1.2,3.4S30.8,22.5,30.8,19.9z"/>
	<path fill="#AAAAAA" d="M36.7,23.1h2.5v1.5H35v-9.4h1.6V23.1z"/>
	<path fill="#AAAAAA" d="M43.2,23.1h2.5v1.5h-4.2v-9.4h1.6V23.1z"/>
	<path fill="#AAAAAA" d="M52.5,15.2v1.5h-2.8v2.4h2.4v1.4h-2.4v2.6h3v1.5h-4.6v-9.4H52.5z"/>
	<path fill="#AAAAAA" d="M57.9,23.3c0.9,0,1.1-0.4,1.1-1.7l1.6,0.2c0,2-0.6,2.9-2.7,2.9c-2,0-2.9-1.1-2.9-4.8s0.9-4.8,2.9-4.8
		c2.1,0,2.7,0.9,2.7,2.9l-1.6,0.2c0-1.3-0.3-1.7-1.1-1.7c-1,0-1.2,1.1-1.2,3.4S56.9,23.3,57.9,23.3z"/>
	<path fill="#AAAAAA" d="M66,24.6h-1.6v-7.9h-1.7v-1.5h5v1.5H66V24.6z"/>
	<g>
		<g>
			<rect x="5.5" y="0.3" fill="#212221" width="9.7" height="4.9"/>
			<polygon fill="#212221" points="0.6,5.1 0.6,24.6 5.5,24.6 5.5,14.8 12.8,14.8 12.8,10 5.5,10 5.5,5.1 			"/>
		</g>
		<polygon fill="#ED535D" points="5.5,0.3 5.5,5.1 0.6,5.1 		"/>
	</g>
</g>
</svg>
