<?xml version="1.0" encoding="utf-8"?>
<!-- Generator: Adobe Illustrator 16.2.0, SVG Export Plug-In . SVG Version: 6.00 Build 0)  -->
<!DOCTYPE svg PUBLIC "-//W3C//DTD SVG 1.1//EN" "http://www.w3.org/Graphics/SVG/1.1/DTD/svg11.dtd">
<svg version="1.1" id="Layer_1" xmlns="http://www.w3.org/2000/svg" xmlns:xlink="http://www.w3.org/1999/xlink" x="0px" y="0px"
	 width="55px" height="55px" viewBox="0 0 55 55" enable-background="new 0 0 55 55" xml:space="preserve">
<g>
	<path d="M10.588,30.807h2.169c1.928,0,2.45,1.355,2.45,2.237c0,1.693-1.152,3.088-3.621,3.088H9.465v-0.135
		c0.407-0.078,0.532-0.098,0.678-0.62l0.998-3.544c0.028-0.097,0.097-0.349,0.097-0.523c0-0.28-0.223-0.328-0.649-0.357V30.807z"/>
	<path d="M17.047,35.261c-0.329,0.494-0.697,0.959-1.172,0.959c-0.396,0-0.396-0.368-0.396-0.523c0-0.396,0.658-2.479,0.658-2.711
		c0-0.174-0.067-0.223-0.532-0.223v-0.136c0.319-0.019,1.017-0.155,1.346-0.213l0.029,0.02l-0.736,2.702
		c-0.029,0.115-0.136,0.455-0.136,0.551c0,0.059,0.059,0.127,0.136,0.127c0.097,0,0.349-0.165,0.688-0.659L17.047,35.261z"/>
	<path d="M16.873,31.523c-0.214,0-0.407-0.146-0.407-0.437c0-0.29,0.193-0.455,0.397-0.455c0.28,0,0.416,0.281,0.416,0.465
		C17.289,31.262,17.153,31.523,16.873,31.523z"/>
	<path d="M20.988,35.251c-0.417,0.563-0.717,0.949-1.172,0.949c-0.388,0-0.407-0.252-0.407-0.494c0-0.203,0.62-2.246,0.62-2.585
		c0-0.155-0.049-0.271-0.213-0.271c-0.407,0-0.93,0.727-1.229,1.191c-0.388,0.581-0.494,0.938-0.843,2.081h-0.63
		c0.262-0.948,0.823-2.914,0.823-3.088c0-0.127-0.087-0.223-0.532-0.223v-0.137c0.455-0.086,0.91-0.164,1.355-0.261l0.029,0.02
		l-0.533,1.753l0.02,0.02c0.397-0.62,1.172-1.792,1.859-1.792c0.388,0,0.581,0.204,0.581,0.552c0,0.358-0.668,2.431-0.668,2.683
		c0,0.126,0.116,0.146,0.136,0.146c0.164,0,0.377-0.271,0.688-0.658L20.988,35.251z"/>
	<path d="M23.951,35.31c-0.097,0.135-0.853,0.91-1.694,0.91c-0.882,0-1.152-0.658-1.152-1.182c0-1.201,1.326-2.614,2.508-2.614
		c0.426,0,0.688,0.203,0.688,0.571c0,0.658-0.784,1.346-2.15,1.539l-0.232,0.029c-0.038,0.174-0.087,0.349-0.087,0.514
		c0,0.571,0.436,0.765,0.784,0.765c0.455,0,0.804-0.28,1.23-0.63L23.951,35.31z"/>
	<path d="M24.231,36.122l0.678-2.449c0.088-0.311,0.136-0.6,0.136-0.668c0-0.116-0.038-0.252-0.3-0.252
		c-0.097,0-0.185,0.029-0.281,0.039v-0.146c0.427-0.058,0.92-0.165,1.298-0.223l0.029,0.02l-0.407,1.675l0.02,0.02l0.067-0.164
		c0.281-0.553,0.911-1.54,1.443-1.54c0.194,0,0.407,0.126,0.407,0.407c0,0.436-0.301,0.436-0.397,0.436
		c-0.358,0-0.232-0.301-0.436-0.301c-0.262,0-0.766,0.93-0.833,1.056c-0.319,0.601-0.436,0.978-0.784,2.101h-0.64V36.122z"/>
	<path d="M26.924,34.894c0.058,0.367,0.194,1.143,0.872,1.143c0.475,0,0.6-0.407,0.6-0.678c0-0.553-0.997-1.356-0.997-2.005
		c0-0.262,0.116-0.93,1.007-0.93c0.378,0,0.543,0.146,0.794,0.146c0.146,0,0.194-0.088,0.232-0.155h0.116l-0.164,1.172h-0.136
		c-0.039-0.475-0.242-0.968-0.784-0.968c-0.185,0-0.455,0.076-0.455,0.483c0,0.532,1.025,1.278,1.025,1.985
		c0,0.91-0.783,1.123-1.248,1.123c-0.252,0-0.592-0.154-0.833-0.154c-0.116,0-0.155,0.086-0.204,0.174h-0.136l0.165-1.336H26.924
		L26.924,34.894z"/>
	<path d="M36.161,32.191c-0.02-0.232-0.096-1.355-1.297-1.355c-1.676,0-2.537,2.033-2.537,3.263c0,1.104,0.465,1.801,1.462,1.801
		c0.949,0,1.54-0.6,1.937-0.987l0.146,0.116c-0.31,0.368-1.056,1.25-2.285,1.25c-0.978,0-2.198-0.592-2.198-2.267
		c0-1.617,1.481-3.476,3.408-3.476c0.601,0,1.113,0.203,1.308,0.203c0.242,0,0.29-0.098,0.339-0.184h0.174l-0.31,1.674
		L36.161,32.191z"/>
	<path d="M38.069,35.164c-0.426,0.649-0.756,1.046-1.278,1.046c-0.368,0-0.407-0.281-0.407-0.523c0-0.174,1.221-4.561,1.221-4.734
		c0-0.223-0.349-0.223-0.571-0.213v-0.136c0.436-0.048,0.871-0.126,1.308-0.223l0.038,0.038L37.11,35.28
		c-0.02,0.078-0.087,0.301-0.087,0.396c0,0.049,0,0.165,0.126,0.165c0.213,0,0.387-0.232,0.794-0.765L38.069,35.164z"/>
	<path d="M41.874,35.212c-0.532,0.766-0.745,0.979-1.171,0.979c-0.378,0-0.397-0.31-0.397-0.436c0-0.155,0.165-0.852,0.358-1.549
		h-0.028c-0.572,0.948-1.191,1.994-1.947,1.994c-0.3,0-0.465-0.126-0.465-0.494c0-0.367,0.64-2.488,0.64-2.711
		c0-0.242-0.155-0.242-0.503-0.242v-0.116c0.416-0.048,0.842-0.126,1.258-0.223l0.029,0.02l-0.766,3.05
		c-0.028,0.107,0,0.281,0.175,0.281c0.358,0,0.892-0.785,1.172-1.23c0.407-0.619,0.601-1.152,0.92-2.053h0.62l-0.659,2.508
		c-0.048,0.165-0.155,0.533-0.155,0.659c0,0.038,0.01,0.136,0.098,0.136c0.154,0,0.396-0.291,0.688-0.658L41.874,35.212z"/>
	<path d="M42.64,30.584c0.416-0.048,0.852-0.106,1.287-0.194l0.039,0.039c-0.184,0.688-0.436,1.627-0.727,2.576l0.02,0.01
		c0.281-0.436,0.707-0.853,1.463-0.853c0.59,0,0.969,0.669,0.969,1.278c0,1.326-1.404,2.779-2.684,2.779
		c-0.445,0-1.094-0.262-1.094-0.445v-0.029l1.143-4.203c0.059-0.232,0.136-0.445,0.136-0.561c0-0.194-0.058-0.232-0.542-0.242
		v-0.155H42.64z"/>
	<path d="M7.761,42.446c0.406-0.078,0.532-0.098,0.678-0.62l0.997-3.515c0.049-0.165,0.098-0.368,0.098-0.523
		c0-0.291-0.224-0.319-0.591-0.357v-0.137h2.072v0.137c-0.407,0.076-0.543,0.096-0.688,0.619l-0.998,3.524
		c-0.048,0.165-0.097,0.339-0.097,0.532c0,0.271,0.213,0.291,0.571,0.34v0.135H7.761V42.446z"/>
	<path d="M14.21,41.71c-0.417,0.562-0.717,0.949-1.172,0.949c-0.388,0-0.406-0.252-0.406-0.494c0-0.203,0.619-2.246,0.619-2.586
		c0-0.154-0.048-0.271-0.213-0.271c-0.406,0-0.93,0.726-1.229,1.19c-0.388,0.582-0.494,0.939-0.843,2.082h-0.629
		c0.261-0.949,0.822-2.914,0.822-3.088c0-0.127-0.087-0.224-0.532-0.224v-0.136c0.455-0.087,0.91-0.164,1.355-0.262l0.029,0.02
		l-0.532,1.763l0.019,0.02c0.397-0.62,1.172-1.792,1.859-1.792c0.388,0,0.581,0.204,0.581,0.553c0,0.357-0.668,2.43-0.668,2.682
		c0,0.127,0.116,0.146,0.136,0.146c0.164,0,0.377-0.271,0.688-0.658L14.21,41.71z"/>
	<path d="M16.446,39.261h-0.707l-0.735,2.798c-0.01,0.028-0.01,0.038-0.01,0.067c0,0.078,0.039,0.146,0.136,0.146
		c0.164,0,0.465-0.397,0.668-0.659l0.106,0.059c-0.426,0.648-0.755,1.018-1.191,1.018c-0.164,0-0.406-0.088-0.406-0.34
		c0-0.125,0.155-0.639,0.193-0.774l0.601-2.305h-0.62c-0.01-0.048-0.01-0.097,0.02-0.136c0.049-0.077,0.281-0.135,0.426-0.213
		c0.281-0.145,0.679-0.522,0.911-0.813c0.028-0.039,0.067-0.117,0.145-0.098c0.059-0.02,0.078,0.059,0.059,0.126l-0.232,0.862h0.668
		L16.446,39.261z"/>
	<path d="M19.042,41.769c-0.098,0.135-0.853,0.91-1.695,0.91c-0.881,0-1.152-0.659-1.152-1.182c0-1.201,1.327-2.615,2.509-2.615
		c0.426,0,0.688,0.204,0.688,0.572c0,0.658-0.785,1.346-2.15,1.539l-0.232,0.029c-0.038,0.174-0.087,0.349-0.087,0.514
		c0,0.57,0.436,0.764,0.784,0.764c0.455,0,0.804-0.28,1.23-0.629L19.042,41.769z"/>
	<path d="M19.352,42.581l0.678-2.449c0.087-0.311,0.136-0.601,0.136-0.668c0-0.117-0.039-0.252-0.301-0.252
		c-0.097,0-0.184,0.029-0.28,0.039v-0.146c0.426-0.058,0.92-0.164,1.298-0.223l0.028,0.02l-0.406,1.676l0.02,0.02l0.067-0.165
		c0.281-0.552,0.91-1.54,1.442-1.54c0.194,0,0.407,0.127,0.407,0.407c0,0.436-0.3,0.436-0.397,0.436c-0.358,0-0.232-0.3-0.436-0.3
		c-0.262,0-0.765,0.93-0.833,1.055c-0.319,0.602-0.436,0.979-0.784,2.102h-0.639V42.581z"/>
	<path d="M26.091,41.71c-0.416,0.562-0.717,0.949-1.172,0.949c-0.387,0-0.406-0.252-0.406-0.494c0-0.203,0.619-2.246,0.619-2.586
		c0-0.154-0.048-0.271-0.213-0.271c-0.406,0-0.93,0.726-1.229,1.19c-0.388,0.582-0.494,0.939-0.843,2.082h-0.619
		c0.261-0.949,0.823-2.914,0.823-3.088c0-0.127-0.088-0.224-0.533-0.224v-0.136c0.455-0.087,0.91-0.164,1.355-0.262l0.029,0.02
		l-0.532,1.753l0.02,0.02c0.396-0.62,1.171-1.792,1.858-1.792c0.388,0,0.581,0.204,0.581,0.553c0,0.357-0.668,2.43-0.668,2.682
		c0,0.127,0.116,0.146,0.136,0.146c0.165,0,0.378-0.271,0.688-0.658L26.091,41.71z"/>
	<path d="M29.944,41.739c-0.503,0.619-0.783,0.92-1.152,0.92c-0.348,0-0.348-0.223-0.348-0.359c0-0.193,0.039-0.377,0.174-0.891
		l-0.02-0.02c-0.697,1.027-1.143,1.279-1.646,1.279c-0.843,0-0.862-0.746-0.862-0.988c0-1.229,1.288-2.809,2.402-2.809
		c0.357,0,0.639,0.223,0.658,0.455h0.02l0.086-0.367l0.029-0.029l0.514-0.059l0.059,0.029c-0.029,0.098-0.795,2.963-0.795,3.225
		c0,0.059,0.049,0.107,0.117,0.107c0.125,0,0.29-0.214,0.668-0.582L29.944,41.739z"/>
	<path d="M32.065,39.261h-0.707l-0.735,2.798c-0.01,0.028-0.01,0.038-0.01,0.067c0,0.078,0.038,0.146,0.136,0.146
		c0.164,0,0.465-0.397,0.668-0.659l0.106,0.059c-0.427,0.648-0.755,1.018-1.19,1.018c-0.166,0-0.407-0.088-0.407-0.34
		c0-0.125,0.155-0.639,0.193-0.774l0.601-2.305h-0.619c-0.01-0.048-0.01-0.097,0.019-0.136c0.048-0.077,0.28-0.135,0.427-0.213
		c0.28-0.145,0.678-0.522,0.91-0.813c0.028-0.039,0.067-0.117,0.145-0.098c0.059-0.02,0.078,0.059,0.059,0.126l-0.232,0.862h0.668
		L32.065,39.261z"/>
	<path d="M33.828,41.72c-0.329,0.494-0.697,0.959-1.172,0.959c-0.397,0-0.397-0.369-0.397-0.523c0-0.396,0.658-2.479,0.658-2.711
		c0-0.175-0.066-0.223-0.531-0.223v-0.136c0.318-0.02,1.016-0.155,1.346-0.214l0.029,0.02l-0.736,2.702
		c-0.029,0.116-0.136,0.455-0.136,0.552c0,0.059,0.058,0.126,0.136,0.126c0.097,0,0.348-0.165,0.688-0.659L33.828,41.72z"/>
	<path d="M33.653,37.981c-0.213,0-0.406-0.145-0.406-0.436c0-0.29,0.193-0.455,0.396-0.455c0.281,0,0.416,0.281,0.416,0.465
		C34.069,37.72,33.935,37.981,33.653,37.981z"/>
	<path d="M37.653,40.122c0,1.035-1.152,2.557-2.432,2.557c-0.891,0-1.268-0.514-1.268-1.211c0-1.23,1.239-2.586,2.469-2.586
		C37.392,38.882,37.653,39.569,37.653,40.122z"/>
	<path d="M41.274,41.71c-0.416,0.562-0.717,0.949-1.172,0.949c-0.387,0-0.406-0.252-0.406-0.494c0-0.203,0.619-2.246,0.619-2.586
		c0-0.154-0.049-0.271-0.213-0.271c-0.406,0-0.93,0.726-1.23,1.19c-0.387,0.582-0.493,0.939-0.842,2.082h-0.629
		c0.262-0.949,0.822-2.914,0.822-3.088c0-0.127-0.087-0.224-0.532-0.224v-0.136c0.455-0.087,0.91-0.164,1.355-0.262l0.029,0.02
		l-0.532,1.753l0.02,0.02c0.396-0.62,1.171-1.792,1.858-1.792c0.388,0,0.581,0.204,0.581,0.553c0,0.357-0.668,2.43-0.668,2.682
		c0,0.127,0.116,0.146,0.136,0.146c0.165,0,0.378-0.271,0.688-0.658L41.274,41.71z"/>
	<path d="M45.167,41.739c-0.504,0.619-0.785,0.92-1.152,0.92c-0.349,0-0.349-0.223-0.349-0.359c0-0.193,0.038-0.377,0.175-0.891
		l-0.02-0.02c-0.697,1.027-1.143,1.279-1.646,1.279c-0.842,0-0.861-0.746-0.861-0.988c0-1.229,1.287-2.809,2.4-2.809
		c0.359,0,0.64,0.223,0.658,0.455h0.02l0.088-0.367l0.029-0.029l0.513-0.059l0.058,0.029c-0.028,0.098-0.793,2.963-0.793,3.225
		c0,0.059,0.048,0.107,0.115,0.107c0.127,0,0.291-0.214,0.668-0.582L45.167,41.739z"/>
	<path d="M46.765,41.854c-0.426,0.649-0.591,0.824-1.113,0.824c-0.368,0-0.407-0.281-0.407-0.523c0-0.174,1.22-4.561,1.22-4.734
		c0-0.223-0.348-0.223-0.57-0.214v-0.136c0.436-0.048,0.871-0.125,1.307-0.223l0.039,0.039l-1.269,4.861
		c-0.02,0.077-0.087,0.3-0.087,0.396c0,0.049,0,0.164,0.125,0.164c0.213,0,0.223-0.01,0.63-0.531L46.765,41.854z"/>
	<path fill="#2656A0" d="M32.879,28.909c4.58,0,8.298-3.719,8.298-8.299s-3.718-8.299-8.298-8.299H22.382
		c-4.58,0-8.298,3.719-8.298,8.299s3.718,8.299,8.298,8.299H32.879z"/>
	<g>
		<circle fill="#FFFFFF" cx="21.898" cy="20.61" r="8.114"/>
	</g>
	<path fill="#2656A0" d="M20.262,15.924c-1.937,0.678-3.321,2.518-3.321,4.687s1.395,4.019,3.331,4.687L20.262,15.924z"/>
	<path fill="#2656A0" d="M26.855,20.61c0,2.169-1.394,4.019-3.331,4.687l0.01-9.373C25.471,16.602,26.855,18.441,26.855,20.61"/>
	<path fill="#FFFFFF" d="M11.149,34.757c-0.077,0.281-0.184,0.649-0.184,0.785c0,0.281,0.203,0.329,0.601,0.329
		c2.644,0,2.721-2.421,2.721-2.935c0-0.852-0.126-1.878-1.607-1.878c-0.475,0-0.513,0.126-0.542,0.241L11.149,34.757z"/>
	<path fill="#FFFFFF" d="M21.976,34.38c1.733-0.349,1.772-1.355,1.772-1.424c0-0.174-0.088-0.338-0.291-0.338
		c-0.455,0-1.026,0.648-1.336,1.394L21.976,34.38z"/>
	<path fill="#FFFFFF" d="M44.401,32.599c-0.92,0-1.646,1.655-1.762,3.146c0,0.059,0,0.281,0.396,0.281
		c1.152,0,1.947-1.772,1.947-2.479C44.974,33.286,44.925,32.599,44.401,32.599z"/>
	<path fill="#FFFFFF" d="M17.076,40.839c1.733-0.35,1.771-1.355,1.771-1.424c0-0.174-0.087-0.339-0.29-0.339
		c-0.455,0-1.026,0.648-1.337,1.394L17.076,40.839z"/>
	<path fill="#FFFFFF" d="M27.302,42.262c0.891,0,1.714-1.811,1.714-2.634c0-0.406-0.232-0.562-0.475-0.562
		c-0.978,0-1.733,1.85-1.733,2.604C26.798,42.106,27.069,42.262,27.302,42.262z"/>
	<path fill="#FFFFFF" d="M34.661,41.72c0,0.475,0.252,0.784,0.668,0.784c0.959,0,1.617-1.733,1.617-2.634
		c0-0.436-0.185-0.804-0.592-0.804C35.426,39.057,34.661,40.722,34.661,41.72z"/>
	<path fill="#FFFFFF" d="M42.523,42.262c0.891,0,1.714-1.811,1.714-2.634c0-0.406-0.232-0.562-0.475-0.562
		c-0.979,0-1.733,1.85-1.733,2.604C42.021,42.106,42.291,42.262,42.523,42.262z"/>
</g>
</svg>
