<?xml version="1.0" encoding="utf-8"?>
<!-- Generator: Adobe Illustrator 16.2.0, SVG Export Plug-In . SVG Version: 6.00 Build 0)  -->
<!DOCTYPE svg PUBLIC "-//W3C//DTD SVG 1.1//EN" "http://www.w3.org/Graphics/SVG/1.1/DTD/svg11.dtd">
<svg version="1.1" id="Layer_1" xmlns="http://www.w3.org/2000/svg" xmlns:xlink="http://www.w3.org/1999/xlink" x="0px" y="0px"
	 width="55px" height="55px" viewBox="0 0 55 55" enable-background="new 0 0 55 55" xml:space="preserve">
<g id="Layer_1_1_" display="none">
	<path display="inline" d="M11.503,254.44h2.169c1.927,0,2.45,1.355,2.45,2.237c0,1.693-1.152,3.088-3.622,3.088H10.38v-0.135
		c0.407-0.078,0.532-0.098,0.678-0.62l0.998-3.544c0.029-0.097,0.097-0.349,0.097-0.523c0-0.28-0.223-0.328-0.649-0.357V254.44z"/>
	<path display="inline" d="M17.962,258.895c-0.329,0.494-0.697,0.959-1.171,0.959c-0.397,0-0.397-0.368-0.397-0.523
		c0-0.396,0.658-2.479,0.658-2.711c0-0.174-0.067-0.223-0.532-0.223v-0.136c0.319-0.019,1.017-0.155,1.346-0.213l0.029,0.02
		l-0.736,2.702c-0.029,0.115-0.136,0.455-0.136,0.551c0,0.059,0.058,0.127,0.136,0.127c0.097,0,0.348-0.165,0.688-0.659
		L17.962,258.895z"/>
	<path display="inline" d="M17.788,255.157c-0.213,0-0.407-0.146-0.407-0.437c0-0.29,0.193-0.455,0.397-0.455
		c0.281,0,0.416,0.281,0.416,0.465C18.204,254.896,18.069,255.157,17.788,255.157z"/>
	<path display="inline" d="M21.903,258.885c-0.417,0.563-0.717,0.949-1.172,0.949c-0.387,0-0.407-0.252-0.407-0.494
		c0-0.203,0.62-2.246,0.62-2.585c0-0.155-0.048-0.271-0.213-0.271c-0.407,0-0.93,0.727-1.229,1.191
		c-0.388,0.581-0.494,0.938-0.843,2.081H18.03c0.262-0.948,0.823-2.914,0.823-3.088c0-0.127-0.087-0.223-0.533-0.223v-0.137
		c0.455-0.086,0.91-0.164,1.356-0.261l0.029,0.02l-0.533,1.753l0.02,0.02c0.397-0.62,1.172-1.792,1.859-1.792
		c0.387,0,0.581,0.204,0.581,0.552c0,0.358-0.668,2.431-0.668,2.683c0,0.126,0.116,0.146,0.136,0.146
		c0.165,0,0.377-0.271,0.688-0.658L21.903,258.885z"/>
	<path display="inline" d="M24.866,258.943c-0.097,0.135-0.852,0.91-1.694,0.91c-0.881,0-1.152-0.658-1.152-1.182
		c0-1.201,1.327-2.614,2.508-2.614c0.426,0,0.688,0.203,0.688,0.571c0,0.658-0.784,1.346-2.15,1.539l-0.232,0.029
		c-0.039,0.174-0.087,0.349-0.087,0.514c0,0.571,0.436,0.765,0.784,0.765c0.455,0,0.804-0.28,1.23-0.63L24.866,258.943z"/>
	<path display="inline" d="M25.147,259.756l0.678-2.449c0.087-0.311,0.136-0.6,0.136-0.668c0-0.116-0.039-0.252-0.3-0.252
		c-0.097,0-0.184,0.029-0.281,0.039v-0.146c0.426-0.058,0.92-0.165,1.297-0.223l0.029,0.02l-0.407,1.675l0.02,0.02l0.067-0.164
		c0.281-0.553,0.911-1.54,1.443-1.54c0.194,0,0.407,0.126,0.407,0.407c0,0.436-0.301,0.436-0.397,0.436
		c-0.358,0-0.232-0.301-0.436-0.301c-0.262,0-0.765,0.93-0.833,1.056c-0.319,0.601-0.436,0.978-0.784,2.101h-0.639V259.756z"/>
	<path display="inline" d="M27.839,258.527c0.058,0.367,0.194,1.143,0.872,1.143c0.475,0,0.6-0.407,0.6-0.678
		c0-0.553-0.997-1.356-0.997-2.005c0-0.262,0.116-0.93,1.007-0.93c0.378,0,0.543,0.146,0.794,0.146c0.146,0,0.194-0.088,0.232-0.155
		h0.116l-0.164,1.172h-0.136c-0.039-0.475-0.242-0.968-0.784-0.968c-0.185,0-0.455,0.076-0.455,0.483
		c0,0.532,1.025,1.278,1.025,1.985c0,0.91-0.783,1.123-1.248,1.123c-0.252,0-0.592-0.154-0.833-0.154
		c-0.116,0-0.155,0.086-0.204,0.174h-0.136l0.165-1.336H27.839L27.839,258.527z"/>
	<path display="inline" d="M37.076,255.825c-0.02-0.232-0.096-1.355-1.297-1.355c-1.676,0-2.537,2.033-2.537,3.263
		c0,1.104,0.465,1.801,1.462,1.801c0.949,0,1.54-0.6,1.937-0.987l0.146,0.116c-0.31,0.368-1.056,1.25-2.285,1.25
		c-0.978,0-2.198-0.592-2.198-2.267c0-1.617,1.481-3.476,3.408-3.476c0.601,0,1.113,0.203,1.308,0.203
		c0.242,0,0.29-0.098,0.339-0.184h0.174l-0.31,1.674L37.076,255.825z"/>
	<path display="inline" d="M38.984,258.798c-0.426,0.649-0.756,1.046-1.278,1.046c-0.368,0-0.407-0.281-0.407-0.523
		c0-0.174,1.221-4.561,1.221-4.734c0-0.223-0.349-0.223-0.571-0.213v-0.136c0.436-0.048,0.871-0.126,1.308-0.223l0.038,0.038
		l-1.269,4.861c-0.02,0.078-0.087,0.301-0.087,0.396c0,0.049,0,0.165,0.126,0.165c0.213,0,0.387-0.232,0.794-0.765L38.984,258.798z"
		/>
	<path display="inline" d="M42.789,258.846c-0.532,0.766-0.745,0.979-1.171,0.979c-0.378,0-0.397-0.31-0.397-0.436
		c0-0.155,0.165-0.852,0.358-1.549h-0.028c-0.572,0.948-1.191,1.994-1.947,1.994c-0.3,0-0.465-0.126-0.465-0.494
		c0-0.367,0.64-2.488,0.64-2.711c0-0.242-0.155-0.242-0.503-0.242v-0.116c0.416-0.048,0.842-0.126,1.258-0.223l0.029,0.02
		l-0.766,3.05c-0.028,0.107,0,0.281,0.175,0.281c0.358,0,0.892-0.785,1.172-1.23c0.407-0.619,0.601-1.152,0.92-2.053h0.62
		l-0.659,2.508c-0.048,0.165-0.155,0.533-0.155,0.659c0,0.038,0.01,0.136,0.098,0.136c0.154,0,0.396-0.291,0.688-0.658
		L42.789,258.846z"/>
	<path display="inline" d="M43.555,254.218c0.416-0.048,0.852-0.106,1.287-0.194l0.039,0.039c-0.184,0.688-0.436,1.627-0.727,2.576
		l0.02,0.01c0.281-0.436,0.707-0.853,1.463-0.853c0.59,0,0.969,0.669,0.969,1.278c0,1.326-1.404,2.779-2.684,2.779
		c-0.445,0-1.094-0.262-1.094-0.445v-0.029l1.143-4.203c0.059-0.232,0.136-0.445,0.136-0.561c0-0.194-0.058-0.232-0.542-0.242
		v-0.155H43.555z"/>
	<path display="inline" d="M8.676,266.08c0.406-0.078,0.532-0.098,0.678-0.62l0.997-3.515c0.049-0.165,0.097-0.368,0.097-0.523
		c0-0.291-0.223-0.319-0.591-0.357v-0.137h2.072v0.137c-0.407,0.076-0.542,0.096-0.688,0.619l-0.998,3.524
		c-0.048,0.165-0.097,0.339-0.097,0.532c0,0.271,0.213,0.291,0.571,0.34v0.135H8.676V266.08z"/>
	<path display="inline" d="M15.125,265.344c-0.417,0.562-0.716,0.949-1.172,0.949c-0.387,0-0.406-0.252-0.406-0.494
		c0-0.203,0.62-2.246,0.62-2.586c0-0.154-0.048-0.271-0.213-0.271c-0.406,0-0.929,0.726-1.229,1.19
		c-0.387,0.582-0.494,0.939-0.842,2.082h-0.629c0.261-0.949,0.823-2.914,0.823-3.088c0-0.127-0.087-0.224-0.532-0.224v-0.136
		c0.455-0.087,0.91-0.164,1.355-0.262l0.029,0.02l-0.532,1.763l0.019,0.02c0.397-0.62,1.172-1.792,1.859-1.792
		c0.387,0,0.581,0.204,0.581,0.553c0,0.357-0.668,2.43-0.668,2.682c0,0.127,0.116,0.146,0.136,0.146
		c0.165,0,0.377-0.271,0.688-0.658L15.125,265.344z"/>
	<path display="inline" d="M17.362,262.895h-0.707l-0.736,2.798c-0.01,0.028-0.01,0.038-0.01,0.067c0,0.078,0.039,0.146,0.136,0.146
		c0.165,0,0.465-0.397,0.668-0.659l0.106,0.059c-0.426,0.648-0.755,1.018-1.191,1.018c-0.165,0-0.407-0.088-0.407-0.34
		c0-0.125,0.155-0.639,0.194-0.774l0.6-2.305h-0.62c-0.01-0.048-0.01-0.097,0.02-0.136c0.048-0.077,0.281-0.135,0.426-0.213
		c0.281-0.145,0.678-0.522,0.911-0.813c0.029-0.039,0.067-0.117,0.145-0.098c0.058-0.02,0.078,0.059,0.058,0.126l-0.232,0.862h0.668
		L17.362,262.895z"/>
	<path display="inline" d="M19.957,265.402c-0.097,0.135-0.852,0.91-1.695,0.91c-0.881,0-1.152-0.659-1.152-1.182
		c0-1.201,1.327-2.615,2.508-2.615c0.426,0,0.688,0.204,0.688,0.572c0,0.658-0.785,1.346-2.15,1.539l-0.232,0.029
		c-0.039,0.174-0.087,0.349-0.087,0.514c0,0.57,0.436,0.764,0.784,0.764c0.455,0,0.804-0.28,1.23-0.629L19.957,265.402z"/>
	<path display="inline" d="M20.267,266.215l0.678-2.449c0.087-0.311,0.136-0.601,0.136-0.668c0-0.117-0.039-0.252-0.3-0.252
		c-0.097,0-0.184,0.029-0.281,0.039v-0.146c0.426-0.058,0.92-0.164,1.298-0.223l0.029,0.02l-0.407,1.676l0.02,0.02l0.068-0.165
		c0.281-0.552,0.91-1.54,1.442-1.54c0.194,0,0.407,0.127,0.407,0.407c0,0.436-0.3,0.436-0.397,0.436c-0.358,0-0.232-0.3-0.436-0.3
		c-0.262,0-0.765,0.93-0.833,1.055c-0.319,0.602-0.436,0.979-0.784,2.102h-0.639V266.215z"/>
	<path display="inline" d="M27.006,265.344c-0.417,0.562-0.717,0.949-1.172,0.949c-0.387,0-0.407-0.252-0.407-0.494
		c0-0.203,0.62-2.246,0.62-2.586c0-0.154-0.048-0.271-0.213-0.271c-0.407,0-0.93,0.726-1.229,1.19
		c-0.388,0.582-0.494,0.939-0.843,2.082h-0.62c0.261-0.949,0.823-2.914,0.823-3.088c0-0.127-0.087-0.224-0.533-0.224v-0.136
		c0.455-0.087,0.91-0.164,1.355-0.262l0.029,0.02l-0.533,1.753l0.02,0.02c0.397-0.62,1.171-1.792,1.859-1.792
		c0.388,0,0.581,0.204,0.581,0.553c0,0.357-0.668,2.43-0.668,2.682c0,0.127,0.116,0.146,0.135,0.146
		c0.165,0,0.378-0.271,0.688-0.658L27.006,265.344z"/>
	<path display="inline" d="M30.859,265.373c-0.503,0.619-0.783,0.92-1.152,0.92c-0.348,0-0.348-0.223-0.348-0.359
		c0-0.193,0.039-0.377,0.174-0.891l-0.02-0.02c-0.697,1.027-1.143,1.279-1.646,1.279c-0.843,0-0.862-0.746-0.862-0.988
		c0-1.229,1.288-2.809,2.402-2.809c0.357,0,0.639,0.223,0.658,0.455h0.02l0.086-0.367l0.029-0.029l0.514-0.059l0.059,0.029
		c-0.029,0.098-0.795,2.963-0.795,3.225c0,0.059,0.049,0.107,0.117,0.107c0.125,0,0.29-0.214,0.668-0.582L30.859,265.373z"/>
	<path display="inline" d="M32.98,262.895h-0.707l-0.735,2.798c-0.01,0.028-0.01,0.038-0.01,0.067c0,0.078,0.038,0.146,0.136,0.146
		c0.164,0,0.465-0.397,0.668-0.659l0.106,0.059c-0.427,0.648-0.755,1.018-1.19,1.018c-0.166,0-0.407-0.088-0.407-0.34
		c0-0.125,0.155-0.639,0.193-0.774l0.601-2.305h-0.619c-0.01-0.048-0.01-0.097,0.019-0.136c0.048-0.077,0.28-0.135,0.427-0.213
		c0.28-0.145,0.678-0.522,0.91-0.813c0.028-0.039,0.067-0.117,0.145-0.098c0.059-0.02,0.078,0.059,0.059,0.126l-0.232,0.862h0.668
		L32.98,262.895z"/>
	<path display="inline" d="M34.743,265.354c-0.329,0.494-0.697,0.959-1.172,0.959c-0.397,0-0.397-0.369-0.397-0.523
		c0-0.396,0.658-2.479,0.658-2.711c0-0.175-0.066-0.223-0.531-0.223v-0.136c0.318-0.02,1.016-0.155,1.346-0.214l0.029,0.02
		l-0.736,2.702c-0.029,0.116-0.136,0.455-0.136,0.552c0,0.059,0.058,0.126,0.136,0.126c0.097,0,0.348-0.165,0.688-0.659
		L34.743,265.354z"/>
	<path display="inline" d="M34.568,261.615c-0.213,0-0.406-0.145-0.406-0.436c0-0.29,0.193-0.455,0.396-0.455
		c0.281,0,0.416,0.281,0.416,0.465C34.984,261.354,34.85,261.615,34.568,261.615z"/>
	<path display="inline" d="M38.568,263.756c0,1.035-1.152,2.557-2.432,2.557c-0.891,0-1.268-0.514-1.268-1.211
		c0-1.23,1.239-2.586,2.469-2.586C38.307,262.516,38.568,263.203,38.568,263.756z"/>
	<path display="inline" d="M42.189,265.344c-0.416,0.562-0.717,0.949-1.172,0.949c-0.387,0-0.406-0.252-0.406-0.494
		c0-0.203,0.619-2.246,0.619-2.586c0-0.154-0.049-0.271-0.213-0.271c-0.406,0-0.93,0.726-1.23,1.19
		c-0.387,0.582-0.493,0.939-0.842,2.082h-0.629c0.262-0.949,0.822-2.914,0.822-3.088c0-0.127-0.087-0.224-0.532-0.224v-0.136
		c0.455-0.087,0.91-0.164,1.355-0.262l0.029,0.02l-0.532,1.753l0.02,0.02c0.396-0.62,1.171-1.792,1.858-1.792
		c0.388,0,0.581,0.204,0.581,0.553c0,0.357-0.668,2.43-0.668,2.682c0,0.127,0.116,0.146,0.136,0.146
		c0.165,0,0.378-0.271,0.688-0.658L42.189,265.344z"/>
	<path display="inline" d="M46.082,265.373c-0.504,0.619-0.785,0.92-1.152,0.92c-0.349,0-0.349-0.223-0.349-0.359
		c0-0.193,0.038-0.377,0.175-0.891l-0.02-0.02c-0.697,1.027-1.143,1.279-1.646,1.279c-0.842,0-0.861-0.746-0.861-0.988
		c0-1.229,1.287-2.809,2.4-2.809c0.359,0,0.64,0.223,0.658,0.455h0.02l0.088-0.367l0.029-0.029l0.513-0.059l0.058,0.029
		c-0.028,0.098-0.793,2.963-0.793,3.225c0,0.059,0.048,0.107,0.115,0.107c0.127,0,0.291-0.214,0.668-0.582L46.082,265.373z"/>
	<path display="inline" d="M47.68,265.488c-0.426,0.649-0.591,0.824-1.113,0.824c-0.368,0-0.407-0.281-0.407-0.523
		c0-0.174,1.22-4.561,1.22-4.734c0-0.223-0.348-0.223-0.57-0.214v-0.136c0.436-0.048,0.871-0.125,1.307-0.223l0.039,0.039
		l-1.269,4.861c-0.02,0.077-0.087,0.3-0.087,0.396c0,0.049,0,0.164,0.125,0.164c0.213,0,0.223-0.01,0.63-0.531L47.68,265.488z"/>
	<path display="inline" fill="#2656A0" d="M33.794,252.543c4.58,0,8.298-3.719,8.298-8.299s-3.718-8.299-8.298-8.299H23.297
		c-4.58,0-8.298,3.719-8.298,8.299s3.718,8.299,8.298,8.299H33.794z"/>
	<g display="inline">
		<circle fill="#FFFFFF" cx="22.813" cy="244.244" r="8.114"/>
	</g>
	<path display="inline" fill="#2656A0" d="M21.177,239.558c-1.937,0.678-3.321,2.518-3.321,4.687s1.395,4.019,3.331,4.687
		L21.177,239.558z"/>
	<path display="inline" fill="#2656A0" d="M27.771,244.244c0,2.169-1.394,4.019-3.331,4.687l0.01-9.373
		C26.386,240.235,27.771,242.075,27.771,244.244"/>
	<path display="inline" fill="#FFFFFF" d="M12.065,258.391c-0.077,0.281-0.184,0.649-0.184,0.785c0,0.281,0.203,0.329,0.6,0.329
		c2.644,0,2.721-2.421,2.721-2.935c0-0.852-0.126-1.878-1.607-1.878c-0.475,0-0.513,0.126-0.542,0.241L12.065,258.391z"/>
	<path display="inline" fill="#FFFFFF" d="M22.891,258.014c1.733-0.349,1.772-1.355,1.772-1.424c0-0.174-0.087-0.338-0.291-0.338
		c-0.455,0-1.026,0.648-1.336,1.394L22.891,258.014z"/>
	<path display="inline" fill="#FFFFFF" d="M45.316,256.232c-0.92,0-1.646,1.655-1.762,3.146c0,0.059,0,0.281,0.396,0.281
		c1.152,0,1.947-1.772,1.947-2.479C45.889,256.92,45.84,256.232,45.316,256.232z"/>
	<path display="inline" fill="#FFFFFF" d="M17.991,264.473c1.733-0.35,1.772-1.355,1.772-1.424c0-0.174-0.087-0.339-0.291-0.339
		c-0.455,0-1.026,0.648-1.336,1.394L17.991,264.473z"/>
	<path display="inline" fill="#FFFFFF" d="M28.217,265.896c0.891,0,1.714-1.811,1.714-2.634c0-0.406-0.232-0.562-0.475-0.562
		c-0.978,0-1.733,1.85-1.733,2.604C27.713,265.74,27.984,265.896,28.217,265.896z"/>
	<path display="inline" fill="#FFFFFF" d="M35.576,265.354c0,0.475,0.252,0.784,0.668,0.784c0.959,0,1.617-1.733,1.617-2.634
		c0-0.436-0.185-0.804-0.592-0.804C36.341,262.69,35.576,264.355,35.576,265.354z"/>
	<path display="inline" fill="#FFFFFF" d="M43.438,265.896c0.891,0,1.714-1.811,1.714-2.634c0-0.406-0.232-0.562-0.475-0.562
		c-0.979,0-1.733,1.85-1.733,2.604C42.936,265.74,43.206,265.896,43.438,265.896z"/>
</g>
<g id="Layer_2">
	<g>
		<path fill="#2A63A9" d="M27.505,38.068c2.856-2.604,4.657-6.381,4.657-10.573s-1.791-7.96-4.657-10.573
			c-2.508-2.295-5.849-3.689-9.499-3.689c-7.814,0-14.157,6.381-14.157,14.263c0,7.872,6.342,14.263,14.157,14.263
			C21.656,41.758,24.987,40.363,27.505,38.068L27.505,38.068z"/>
		<path fill="#E10F29" d="M37.004,13.242c-3.66,0-6.991,1.395-9.499,3.688c-0.513,0.465-0.988,0.969-1.433,1.511h2.857
			c0.387,0.475,0.755,0.979,1.074,1.511h-5.016c-0.3,0.483-0.571,0.987-0.813,1.511h6.652c0.223,0.484,0.426,0.997,0.601,1.51
			h-7.843c-0.165,0.494-0.3,0.998-0.407,1.512h8.657c0.213,0.978,0.318,1.984,0.318,3.021c0,1.588-0.252,3.108-0.726,4.532h-7.843
			c0.174,0.513,0.368,1.016,0.6,1.51h6.652c-0.242,0.523-0.514,1.027-0.813,1.511h-5.016c0.329,0.522,0.688,1.036,1.075,1.511h2.847
			c-0.436,0.542-0.92,1.045-1.434,1.51c2.508,2.295,5.849,3.689,9.499,3.689c7.814,0,14.156-6.381,14.156-14.263
			C51.16,19.623,44.818,13.242,37.004,13.242L37.004,13.242z"/>
		<path fill="#E10F29" d="M49.272,35.445c0-0.252,0.204-0.465,0.455-0.465c0.252,0,0.455,0.203,0.455,0.465
			c0,0.252-0.203,0.465-0.455,0.465C49.477,35.91,49.272,35.707,49.272,35.445L49.272,35.445z M49.737,35.803
			c0.194,0,0.349-0.154,0.349-0.348s-0.154-0.35-0.349-0.35s-0.349,0.156-0.349,0.35C49.389,35.639,49.543,35.803,49.737,35.803
			L49.737,35.803z M49.67,35.648h-0.098v-0.406h0.175c0.038,0,0.067,0,0.106,0.02c0.029,0.019,0.049,0.057,0.049,0.096
			c0,0.049-0.029,0.088-0.068,0.107l0.078,0.174h-0.107l-0.058-0.164H49.68v0.174v-0.223h0.048c0.02,0,0.038,0,0.058-0.01
			s0.02-0.029,0.02-0.049s-0.01-0.029-0.02-0.039c-0.02-0.01-0.038-0.01-0.058-0.01H49.68v0.107v0.223H49.67z"/>
		<path fill="#FFFFFF" d="M46.28,30.594c0-0.252,0.204-0.465,0.455-0.465c0.252,0,0.456,0.203,0.456,0.465
			c0,0.252-0.204,0.465-0.456,0.465C46.484,31.049,46.28,30.846,46.28,30.594L46.28,30.594z M46.735,30.942
			c0.194,0,0.349-0.155,0.349-0.349s-0.154-0.349-0.349-0.349c-0.193,0-0.349,0.155-0.349,0.349S46.552,30.942,46.735,30.942
			L46.735,30.942z M46.678,30.797H46.58v-0.406h0.175c0.038,0,0.067,0,0.106,0.02c0.029,0.02,0.049,0.058,0.049,0.096
			c0,0.049-0.029,0.088-0.068,0.107l0.078,0.174h-0.107l-0.058-0.154h-0.067v0.164v-0.232h0.048c0.02,0,0.039,0,0.058-0.01
			c0.02-0.01,0.02-0.029,0.02-0.049c0-0.019-0.01-0.028-0.02-0.038c-0.019-0.01-0.038-0.01-0.058-0.01h-0.048v0.106v0.232H46.678z"
			/>
		<polygon fill="#FFFFFF" points="16.234,31.049 14.472,31.049 15.517,25.49 13.106,31.049 11.499,31.049 11.208,25.52 
			10.153,31.049 8.555,31.049 9.92,23.825 12.67,23.825 12.816,28.299 14.752,23.825 17.619,23.825 		"/>
		<path fill="#FFFFFF" d="M35.92,30.98c-0.484,0.137-0.862,0.194-1.27,0.194c-0.9,0-1.394-0.455-1.394-1.288
			c0-0.164,0.019-0.339,0.048-0.523l0.107-0.57l0.086-0.465l0.814-4.493h1.752l-0.252,1.346h0.9l-0.241,1.433H35.57l-0.465,2.451
			c-0.019,0.105-0.028,0.184-0.028,0.241c0,0.3,0.185,0.437,0.601,0.437c0.203,0,0.357-0.02,0.475-0.059L35.92,30.98L35.92,30.98z"
			/>
		<path fill="#FFFFFF" d="M41.061,25.22c-0.145-0.058-0.184-0.058-0.203-0.067c-0.096-0.02-0.145-0.029-0.154-0.039
			c-0.059-0.01-0.116-0.02-0.174-0.02c-0.582,0-0.998,0.262-1.531,0.959l0.156-0.891h-1.598l-1.076,5.877h1.764
			c0.629-3.592,0.9-4.222,1.742-4.222c0.068,0,0.136,0.01,0.223,0.02l0.203,0.038L41.061,25.22L41.061,25.22z"/>
		<path fill="#FFFFFF" d="M28.938,27.03c0,0.745,0.416,1.259,1.354,1.637c0.727,0.29,0.834,0.378,0.834,0.648
			c0,0.368-0.32,0.532-1.027,0.532c-0.532,0-1.025-0.067-1.597-0.232l-0.242,1.355l0.077,0.01l0.329,0.059
			c0.106,0.02,0.262,0.039,0.465,0.049c0.426,0.029,0.755,0.049,0.987,0.049c1.879,0,2.75-0.621,2.75-1.967
			c0-0.803-0.367-1.277-1.259-1.637c-0.745-0.299-0.833-0.367-0.833-0.639c0-0.319,0.301-0.484,0.872-0.484
			c0.349,0,0.823,0.029,1.278,0.088l0.252-1.365c-0.465-0.068-1.162-0.117-1.569-0.117C29.615,25.035,28.929,25.945,28.938,27.03
			L28.938,27.03z"/>
		<path fill="#FFFFFF" d="M21.957,31.049h-1.462l0.039-0.609c-0.445,0.483-1.036,0.706-1.85,0.706c-0.958,0-1.607-0.658-1.607-1.607
			c0-1.433,1.143-2.266,3.099-2.266c0.203,0,0.455,0.02,0.716,0.048c0.059-0.193,0.068-0.28,0.068-0.377
			c0-0.388-0.31-0.533-1.133-0.533c-0.503,0-1.075,0.068-1.462,0.165l-0.242,0.058l-0.155,0.039l0.242-1.326
			c0.881-0.223,1.462-0.311,2.111-0.311c1.511,0,2.314,0.602,2.314,1.725c0,0.29-0.029,0.513-0.145,1.162l-0.368,2.081l-0.068,0.388
			l-0.048,0.3l-0.029,0.204L21.957,31.049L21.957,31.049z M20.668,28.435c-0.184-0.02-0.261-0.029-0.397-0.029
			c-0.997,0-1.5,0.3-1.5,0.892c0,0.367,0.242,0.6,0.629,0.6C20.126,29.906,20.64,29.297,20.668,28.435L20.668,28.435z"/>
		<path fill="#FFFFFF" d="M27.737,30.923c-0.6,0.165-1.191,0.242-1.801,0.242c-1.965,0-2.992-0.9-2.992-2.634
			c0-2.014,1.307-3.506,3.079-3.506c1.453,0,2.373,0.834,2.373,2.141c0,0.436-0.068,0.852-0.214,1.452h-3.515
			c-0.01,0.087-0.02,0.136-0.02,0.185c0,0.678,0.523,1.025,1.549,1.025c0.629,0,1.201-0.115,1.831-0.367L27.737,30.923
			L27.737,30.923z M26.798,27.428c0.01-0.127,0.02-0.223,0.02-0.301c0-0.475-0.31-0.755-0.833-0.755
			c-0.562,0-0.959,0.378-1.124,1.056H26.798L26.798,27.428z"/>
		<path fill="#FFFFFF" d="M46.542,28.387c-0.262,1.955-1.617,2.826-3.419,2.826c-1.994,0-2.798-1.22-2.798-2.711
			c0-2.082,1.366-3.496,3.467-3.496c1.83,0,2.798,1.162,2.798,2.654C46.59,28.018,46.59,28.047,46.542,28.387L46.542,28.387z
			 M44.73,27.631c0-0.619-0.251-1.201-0.968-1.201c-0.9,0-1.452,1.075-1.452,2.014c0,0.795,0.377,1.337,1.017,1.318
			c0.378,0,1.2-0.523,1.355-1.443C44.712,28.125,44.73,27.883,44.73,27.631L44.73,27.631z"/>
	</g>
</g>
</svg>
