<?xml version="1.0" encoding="utf-8"?>
<!-- Generator: Adobe Illustrator 16.2.0, SVG Export Plug-In . SVG Version: 6.00 Build 0)  -->
<!DOCTYPE svg PUBLIC "-//W3C//DTD SVG 1.1//EN" "http://www.w3.org/Graphics/SVG/1.1/DTD/svg11.dtd">
<svg version="1.1" id="Layer_1" xmlns="http://www.w3.org/2000/svg" xmlns:xlink="http://www.w3.org/1999/xlink" x="0px" y="0px"
	 width="55px" height="55px" viewBox="0 0 55 55" enable-background="new 0 0 55 55" xml:space="preserve">
<g>
	<path fill="#F8B235" d="M27.52,39.144c2.749,2.536,6.448,4.077,10.468,4.077c8.627,0,15.618-7.041,15.618-15.697
		c0-8.686-6.991-15.725-15.618-15.725c-4.02,0-7.719,1.539-10.468,4.076c-3.157,2.885-5.151,7.039-5.151,11.648
		S24.362,36.287,27.52,39.144L27.52,39.144z"/>
	<path fill="#F8B235" d="M51.523,36.258c0-0.271,0.214-0.484,0.484-0.484c0.3,0,0.513,0.213,0.513,0.484
		c0,0.301-0.213,0.514-0.513,0.514C51.737,36.771,51.523,36.559,51.523,36.258L51.523,36.258z M52.008,36.664
		c0.213,0,0.407-0.184,0.407-0.406c0-0.213-0.194-0.377-0.407-0.377c-0.185,0-0.378,0.164-0.378,0.377S51.823,36.664,52.008,36.664
		L52.008,36.664z M51.96,36.5h-0.107v-0.455h0.184c0.029,0,0.078,0,0.107,0.029c0.058,0.029,0.058,0.058,0.058,0.105
		c0,0.059-0.028,0.107-0.077,0.107L52.23,36.5h-0.136l-0.059-0.184H51.96V36.5v-0.271h0.058c0.028,0,0.058,0,0.058,0
		c0.029,0,0.029-0.029,0.029-0.058c0-0.029,0-0.029-0.029-0.058c0,0-0.029,0-0.058,0H51.96v0.105V36.5L51.96,36.5z"/>
	<path fill="#E10F29" d="M32.563,25.849c-0.058-0.562-0.164-1.104-0.271-1.675h-9.547c0.106-0.563,0.271-1.104,0.436-1.646h8.656
		c-0.194-0.562-0.407-1.133-0.649-1.676H23.85c0.271-0.561,0.571-1.133,0.891-1.675h5.528c-0.348-0.562-0.755-1.133-1.19-1.646
		h-3.156c0.484-0.592,1.026-1.162,1.588-1.676c-2.779-2.508-6.449-4.076-10.496-4.076c-8.608,0-15.619,7.039-15.619,15.725
		c0,8.657,7.011,15.697,15.619,15.697c4.047,0,7.717-1.54,10.496-4.077l0,0l0,0c0.562-0.513,1.075-1.056,1.568-1.646h-3.156
		c-0.436-0.543-0.813-1.075-1.191-1.676h5.528c0.35-0.543,0.649-1.074,0.92-1.676H23.85c-0.242-0.541-0.484-1.074-0.678-1.646h8.656
		c0.185-0.542,0.319-1.104,0.455-1.675c0.106-0.543,0.213-1.104,0.271-1.676c0.059-0.542,0.078-1.074,0.078-1.646
		C32.642,26.953,32.612,26.381,32.563,25.849L32.563,25.849z"/>
	<path fill="#FFFFFF" d="M51.523,31.154c0-0.3,0.214-0.513,0.484-0.513c0.3,0,0.513,0.213,0.513,0.513
		c0,0.271-0.213,0.514-0.513,0.514C51.737,31.668,51.523,31.426,51.523,31.154L51.523,31.154z M52.008,31.533
		c0.213,0,0.407-0.166,0.407-0.379s-0.194-0.377-0.407-0.377c-0.185,0-0.378,0.164-0.378,0.377
		C51.63,31.377,51.823,31.533,52.008,31.533L52.008,31.533z M51.96,31.377h-0.107v-0.436h0.184c0.029,0,0.078,0,0.107,0
		c0.058,0.029,0.058,0.078,0.058,0.137c0,0.028-0.028,0.076-0.077,0.105l0.106,0.184h-0.136l-0.059-0.164H51.96V31.377v-0.242h0.058
		c0.028,0,0.058,0,0.058-0.028c0.029,0,0.029-0.028,0.029-0.058c0,0,0-0.029-0.029-0.029c0-0.029-0.029,0-0.058,0H51.96v0.106
		V31.377L51.96,31.377z"/>
	<path fill="#0A346C" d="M22.203,32.046c-0.513,0.136-0.891,0.213-1.269,0.213c-0.813,0-1.297-0.513-1.297-1.433
		c0-0.194,0.028-0.379,0.058-0.592l0.106-0.619l0.078-0.514l0.726-4.425h1.617l-0.193,0.968h1.026l-0.242,1.617h-1.026l-0.436,2.645
		c-0.029,0.135-0.029,0.213-0.029,0.271c0,0.349,0.165,0.484,0.571,0.484c0.184,0,0.349-0.029,0.513-0.058L22.203,32.046
		L22.203,32.046z"/>
	<path fill="#0A346C" d="M27.433,31.997c-0.591,0.165-1.133,0.242-1.724,0.242c-1.83,0-2.886-0.968-2.886-2.886
		c0-2.236,1.239-3.854,2.963-3.854c1.375,0,2.266,0.92,2.266,2.344c0,0.484-0.058,0.948-0.184,1.588h-3.37
		c-0.029,0.105-0.029,0.164-0.029,0.213c0,0.755,0.514,1.133,1.482,1.133c0.619,0,1.161-0.136,1.752-0.406L27.433,31.997
		L27.433,31.997z M26.435,28.134c0-0.136,0-0.242,0-0.319c0-0.543-0.3-0.833-0.813-0.833c-0.542,0-0.92,0.407-1.074,1.162h1.888
		V28.134z"/>
	<polygon fill="#0A346C" points="9.257,32.133 7.582,32.133 8.55,26.004 6.371,32.133 5.21,32.133 5.074,26.033 4.048,32.133 
		2.401,32.133 3.729,24.174 6.178,24.174 6.236,29.082 7.882,24.174 10.574,24.174 	"/>
	<path fill="#0A346C" d="M13.324,29.247c-0.165-0.028-0.213-0.028-0.319-0.028c-0.969,0-1.453,0.377-1.453,0.968
		c0,0.407,0.242,0.678,0.62,0.678C12.976,30.864,13.305,30.187,13.324,29.247L13.324,29.247z M14.68,32.133h-1.452l0.028-0.678
		c-0.377,0.514-0.891,0.784-1.781,0.784c-0.813,0-1.511-0.726-1.511-1.782c0-0.299,0.059-0.561,0.136-0.832
		c0.271-0.998,1.269-1.617,2.808-1.646c0.185,0,0.484,0,0.756,0.029c0.058-0.213,0.058-0.301,0.058-0.436
		c0-0.436-0.349-0.571-1.133-0.571c-0.484,0-1.026,0.077-1.404,0.213l-0.241,0.058l-0.107,0.029l0.242-1.452
		c0.785-0.242,1.347-0.349,1.966-0.349c1.453,0,2.237,0.678,2.237,1.917c0,0.319,0.028,0.571-0.078,1.269l-0.377,2.324l-0.059,0.406
		l-0.029,0.32l-0.028,0.213L14.68,32.133L14.68,32.133z"/>
	<path fill="#0A346C" d="M35.585,25.713c0.484,0,0.92,0.136,1.511,0.436l0.3-1.723c-0.164-0.078-0.213-0.078-0.436-0.166
		l-0.678-0.193c-0.213-0.058-0.484-0.077-0.784-0.077c-0.833,0-1.327,0.029-1.83,0.319c-0.271,0.184-0.62,0.436-0.997,0.862
		l-0.213-0.058l-1.734,1.219l0.078-0.678h-1.781l-1.056,6.479h1.704l0.619-3.477c0,0,0.242-0.484,0.35-0.648
		c0.318-0.406,0.59-0.406,0.948-0.406c0.058,0,0.106,0,0.136,0c-0.059,0.377-0.078,0.783-0.078,1.239
		c0,2.101,1.191,3.428,3.021,3.428c0.455,0,0.861-0.058,1.482-0.214l0.299-1.83c-0.541,0.301-1.025,0.437-1.433,0.437
		c-0.997,0-1.588-0.755-1.588-1.946C33.426,26.953,34.317,25.713,35.585,25.713L35.585,25.713z"/>
	<path fill="#0A346C" d="M49.906,24.174l-0.378,2.266c-0.406-0.62-0.891-0.92-1.539-0.92c-0.891,0-1.724,0.514-2.236,1.481v-0.029
		l-1.075-0.649l0.106-0.678h-1.811l-1.027,6.479h1.676l0.562-3.477c0,0,0.437-0.484,0.542-0.648
		c0.271-0.319,0.543-0.377,0.756-0.406c-0.184,0.542-0.301,1.191-0.301,1.917c0,1.617,0.833,2.702,2.082,2.702
		c0.62,0,1.104-0.214,1.568-0.727l-0.076,0.648h1.588l1.297-7.959H49.906L49.906,24.174z M47.835,30.594
		c-0.563,0-0.862-0.436-0.862-1.27c0-1.268,0.542-2.188,1.327-2.188c0.59,0,0.891,0.455,0.891,1.268
		C49.181,29.703,48.638,30.594,47.835,30.594L47.835,30.594z"/>
	<path fill="#0A346C" d="M40.03,29.247c-0.165-0.028-0.213-0.028-0.32-0.028c-0.969,0-1.452,0.377-1.452,0.968
		c0,0.407,0.242,0.678,0.62,0.678C39.681,30.864,40.011,30.187,40.03,29.247L40.03,29.247z M41.386,32.133h-1.482l0.059-0.678
		c-0.377,0.514-0.891,0.784-1.781,0.784c-0.833,0-1.568-0.697-1.568-1.782c0-1.539,1.161-2.479,2.991-2.479
		c0.185,0,0.484,0,0.727,0.029c0.058-0.213,0.077-0.301,0.077-0.436c0-0.436-0.349-0.571-1.162-0.571
		c-0.455,0-1.026,0.077-1.404,0.213l-0.213,0.058l-0.105,0.029l0.241-1.452c0.784-0.242,1.347-0.349,1.966-0.349
		c1.453,0,2.208,0.678,2.208,1.917c0,0.319,0.058,0.571-0.077,1.269l-0.35,2.324l-0.058,0.406l-0.058,0.32l-0.029,0.213v0.184
		H41.386z"/>
	<path fill="#0A346C" d="M18.214,27.029c0.319,0,0.784,0.029,1.269,0.107l0.242-1.511c-0.484-0.058-1.133-0.136-1.511-0.136
		c-1.888,0-2.508,1.026-2.508,2.207c0,0.785,0.349,1.347,1.269,1.782c0.678,0.319,0.784,0.378,0.784,0.679
		c0,0.406-0.349,0.648-0.997,0.648c-0.514,0-0.998-0.078-1.54-0.271l-0.184,1.481l0.029,0.029l0.319,0.058
		c0.106,0.029,0.242,0.059,0.436,0.078c0.406,0.029,0.755,0.058,0.969,0.058c1.888,0,2.672-0.726,2.672-2.159
		c0-0.891-0.436-1.434-1.269-1.811c-0.726-0.32-0.813-0.378-0.813-0.678C17.371,27.301,17.701,27.029,18.214,27.029L18.214,27.029z"
		/>
	<path fill="#FFFFFF" d="M37.851,23.902l-0.3,1.724c-0.591-0.3-1.026-0.437-1.511-0.437c-1.268,0-2.159,1.24-2.159,2.992
		c0,1.211,0.591,1.947,1.588,1.947c0.407,0,0.892-0.137,1.433-0.407l-0.299,1.812c-0.621,0.164-1.027,0.241-1.482,0.241
		c-1.83,0-2.963-1.327-2.963-3.456c0-2.838,1.568-4.832,3.806-4.832c0.3,0,0.571,0.029,0.784,0.077l0.678,0.165
		C37.628,23.824,37.687,23.844,37.851,23.902L37.851,23.902z"/>
	<path fill="#FFFFFF" d="M32.399,25.094c-0.059,0-0.106,0-0.164,0c-0.572,0-0.892,0.271-1.404,1.055l0.164-0.997h-1.539L28.4,31.629
		h1.704c0.619-3.97,0.784-4.638,1.588-4.638c0.059,0,0.059,0,0.107,0c0.164-0.784,0.377-1.347,0.648-1.859L32.399,25.094
		L32.399,25.094z"/>
	<path fill="#FFFFFF" d="M22.639,31.533c-0.455,0.164-0.832,0.213-1.21,0.213c-0.861,0-1.346-0.484-1.346-1.434
		c0-0.164,0.029-0.378,0.058-0.571l0.106-0.649l0.078-0.513l0.726-4.425h1.676l-0.185,0.968h0.862l-0.232,1.617H22.31l-0.455,2.702
		c-0.028,0.105-0.028,0.184-0.028,0.271c0,0.319,0.164,0.455,0.571,0.455c0.184,0,0.349,0,0.455-0.058L22.639,31.533L22.639,31.533z
		"/>
	<path fill="#FFFFFF" d="M16.132,27.194c0,0.813,0.378,1.375,1.269,1.812c0.697,0.318,0.813,0.436,0.813,0.697
		c0,0.406-0.3,0.59-0.968,0.59c-0.514,0-0.969-0.077-1.511-0.242l-0.242,1.482l0.077,0.028l0.301,0.058
		c0.106,0.029,0.241,0.059,0.455,0.059c0.377,0.059,0.696,0.059,0.92,0.059c1.781,0,2.614-0.678,2.614-2.16
		c0-0.891-0.349-1.404-1.191-1.811c-0.727-0.319-0.813-0.406-0.813-0.697c0-0.348,0.301-0.514,0.833-0.514
		c0.319,0,0.784,0.029,1.21,0.078l0.242-1.481c-0.436-0.077-1.104-0.136-1.481-0.136C16.781,25.006,16.104,26.004,16.132,27.194
		L16.132,27.194z"/>
	<path fill="#FFFFFF" d="M50.769,31.619h-1.588L49.258,31c-0.455,0.484-0.949,0.697-1.569,0.697c-1.238,0-2.053-1.056-2.053-2.673
		c0-2.159,1.27-3.989,2.75-3.989c0.678,0,1.162,0.301,1.617,0.891l0.378-2.266h1.675L50.769,31.619L50.769,31.619z M48.29,30.109
		c0.783,0,1.326-0.92,1.326-2.188c0-0.833-0.301-1.269-0.891-1.269c-0.756,0-1.327,0.891-1.327,2.159
		C47.398,29.674,47.698,30.109,48.29,30.109L48.29,30.109z"/>
	<path fill="#FFFFFF" d="M27.81,31.484c-0.591,0.193-1.133,0.271-1.752,0.271c-1.889,0-2.856-0.998-2.856-2.915
		c0-2.208,1.239-3.854,2.943-3.854c1.404,0,2.294,0.92,2.294,2.344c0,0.484-0.058,0.949-0.212,1.617h-3.341
		c-0.029,0.077-0.029,0.135-0.029,0.184c0,0.756,0.514,1.133,1.481,1.133c0.62,0,1.162-0.105,1.753-0.406L27.81,31.484L27.81,31.484
		z M26.871,27.621c0-0.137,0-0.242,0-0.32c0-0.542-0.301-0.832-0.813-0.832c-0.543,0-0.92,0.406-1.075,1.162h1.889V27.621z"/>
	<polygon fill="#FFFFFF" points="9.684,31.619 8.018,31.619 8.986,25.49 6.798,31.619 5.636,31.619 5.51,25.549 4.483,31.619 
		2.915,31.619 4.241,23.66 6.662,23.66 6.749,28.599 8.366,23.66 11.01,23.66 	"/>
	<path fill="#FFFFFF" d="M13.866,28.734c-0.165,0-0.242-0.029-0.378-0.029c-0.948,0-1.433,0.349-1.433,0.998
		c0,0.406,0.213,0.648,0.591,0.648C13.354,30.352,13.837,29.703,13.866,28.734L13.866,28.734z M15.105,31.619h-1.404l0.029-0.678
		c-0.436,0.543-0.997,0.785-1.781,0.785c-0.92,0-1.54-0.697-1.54-1.753c0-1.589,1.075-2.508,2.963-2.508
		c0.185,0,0.437,0.028,0.697,0.058c0.059-0.213,0.059-0.3,0.059-0.406c0-0.436-0.301-0.591-1.075-0.591
		c-0.484,0-1.026,0.058-1.404,0.165l-0.241,0.077l-0.165,0.028l0.242-1.451c0.833-0.242,1.404-0.32,2.023-0.32
		c1.452,0,2.237,0.648,2.237,1.889c0,0.319-0.029,0.57-0.136,1.297l-0.378,2.295l-0.058,0.406l-0.029,0.32l-0.029,0.242
		L15.105,31.619L15.105,31.619z"/>
	<path fill="#FFFFFF" d="M40.571,28.734c-0.184,0-0.271-0.029-0.377-0.029c-0.969,0-1.453,0.349-1.453,0.998
		c0,0.406,0.242,0.648,0.621,0.648C40.03,30.352,40.543,29.703,40.571,28.734L40.571,28.734z M41.812,31.619h-1.404l0.029-0.678
		c-0.436,0.543-0.998,0.785-1.781,0.785c-0.92,0-1.54-0.697-1.54-1.753c0-1.589,1.075-2.508,2.963-2.508
		c0.194,0,0.436,0.028,0.678,0.058c0.058-0.213,0.077-0.3,0.077-0.406c0-0.436-0.3-0.591-1.074-0.591
		c-0.484,0-1.056,0.058-1.434,0.165l-0.213,0.077l-0.164,0.028l0.242-1.451c0.832-0.242,1.403-0.32,2.023-0.32
		c1.452,0,2.207,0.648,2.207,1.889c0,0.319,0,0.57-0.135,1.297l-0.349,2.295l-0.058,0.406l-0.059,0.32l-0.029,0.242v0.145H41.812z"
		/>
	<path fill="#FFFFFF" d="M46.343,25.094c-0.058,0-0.105,0-0.164,0c-0.572,0-0.891,0.271-1.404,1.055l0.164-0.997h-1.529
		l-1.026,6.478h1.675c0.62-3.97,0.785-4.638,1.588-4.638c0.059,0,0.059,0,0.107,0c0.164-0.784,0.377-1.347,0.648-1.859
		L46.343,25.094L46.343,25.094z"/>
</g>
</svg>
