<?xml version="1.0" encoding="utf-8"?>
<!-- Generator: Adobe Illustrator 17.1.0, SVG Export Plug-In . SVG Version: 6.00 Build 0)  -->
<!DOCTYPE svg PUBLIC "-//W3C//DTD SVG 1.1//EN" "http://www.w3.org/Graphics/SVG/1.1/DTD/svg11.dtd">
<svg version="1.1" id="Layer_1" xmlns="http://www.w3.org/2000/svg" xmlns:xlink="http://www.w3.org/1999/xlink" x="0px" y="0px"
	 viewBox="180 346 265 77" enable-background="new 180 346 265 77" xml:space="preserve">
<g id="Layer_1_1_" display="none">
	<path display="inline" fill="#010101" d="M452.4,306.9c-8,11.5-18,21.7-29.9,30.9v6.9c0,19.6-3.7,39.4-11.2,59.5
		c-7.5,20.1-18.5,38.2-32.9,54.4c-14.5,16.2-32.3,29.3-53.3,39.4c-21.2,10.2-45.5,15.1-73.1,15.1c-16.9,0-33.1-2.4-48.6-7.1
		c-15.5-4.7-30-11.3-43.6-19.8c2.3,0.3,4.6,0.5,7,0.5h7.5c28.6,0,53.3-8.4,74.3-25c-13.4-0.3-25-4.3-35.2-11.9
		c-10.2-7.7-17-17.4-20.7-29.2c4,1,7.6,1.4,11,1.4c3,0,5.7-0.1,8.2-0.5c2.4-0.3,5.1-0.8,7.7-1.5c-13.9-2.9-25.5-9.8-34.6-20.3
		c-9.1-10.6-13.7-23.1-13.7-37.4v-0.5c4,2,8.3,3.6,12.7,4.9c4.5,1.3,9.6,2,15.2,2c-8.7-5.2-15.3-12-19.9-20.6c-4.7-8.5-7-18-7-28.4
		c0-10.4,2.6-20.4,8-29.9c15,18.3,33.1,32.9,54.4,43.8s44.4,16.9,69.3,17.9c-1-3.9-1.5-8.2-1.5-12.7c0-8.2,1.6-15.9,4.8-23.3
		c3.2-7.3,7.4-13.7,12.9-19.1c5.6-5.4,11.8-9.6,19-12.7c7.1-3.1,14.9-4.6,23.2-4.6c9,0,17.1,1.7,24.5,5.2
		c7.3,3.4,13.8,7.9,19.5,13.5c6.7-0.9,13.3-2.8,19.9-5.4c6.6-2.6,12.8-5.4,18.4-8.4c-5.4,13.7-14.1,24.6-26.4,32.4
		c6.3-0.7,12.3-1.8,18-3.4C441.6,311.1,447.2,309.1,452.4,306.9L452.4,306.9z"/>
</g>
<g id="Layer_2" display="none">
	<path display="inline" fill="#010101" d="M271.6,396.1L194,469.3c-5.2,4.9-8,11.4-8,18.3c0,6.9,2.8,13.4,8,18.2
		c10.3,9.8,28.3,9.8,38.8,0l73.5-69.2l73.2,69c5.1,4.8,12.1,7.5,19.3,7.5c7.3,0,14.2-2.7,19.3-7.5c5.2-4.9,8.1-11.4,8-18.3
		c0-6.9-2.8-13.4-8-18.2L340.4,396l77.6-73.2c5.2-4.9,8-11.4,8-18.3s-2.8-13.4-8-18.2c-10.3-9.8-28.3-9.8-38.8,0l-73.5,69.2
		l-73.2-69c-5.2-4.7-12.1-7.5-19.3-7.5c-7.3,0-14.2,2.6-19.3,7.5c-5.2,4.9-8,11.4-8,18.3s2.8,13.4,8,18.2L271.6,396.1z"/>
</g>
<g id="Layer_3" display="none">
	<path display="inline" fill="#010101" d="M324.5,414c6.1-5.8,11.9-11.8,17.6-17.8s10.3-11.8,14-17.2c3.7-5.4,6.1-10.3,7.1-15
		c1.1-4.5,0.3-8.1-2.3-10.5c-3.9-3.8-7.5-7.3-10.8-10.6c-3.3-3.3-5.5-7.1-6.5-11.2c-1-4.1-0.6-9.1,1.6-15
		c2.2-5.8,6.8-12.9,13.7-21.3c7-8.3,13.5-13.4,19.6-15.2c6.1-1.9,11.7-1.8,16.7,0.3c5,2.1,9.7,5.4,14,9.7c4.4,4.4,8.5,8.5,12.4,12.1
		c4.3,4.1,6.5,11,6.5,20.6c0,9.5-2.5,20.8-7.8,33.7c-5.3,12.9-13.1,27-23.5,42.3c-10.4,15.4-23.7,30.8-39.8,46.1
		c-16.6,15.8-32.8,28.6-48.6,38.4c-15.9,9.8-30.5,17.2-43.7,22.1c-13.3,5-25,7.5-35.3,7.5c-10.2,0-17.5-2.3-21.8-6.9
		c-4-3.8-8-7.5-12.4-11.5c-4.3-4-7.6-8.4-9.8-13.4c-2.2-5-2.4-10.3-0.7-15.9c1.7-5.6,7-11.8,15.7-18.4c8.7-6.6,16.1-11,22.2-13.1
		c6.1-2.1,11.3-2.6,15.7-1.8c4.3,0.8,8.2,2.9,11.8,6.2c3.5,3.3,7.1,6.9,11.1,10.6c2.6,2.4,6.3,3.2,11.1,2.2c4.8-1,10-3.3,15.6-6.9
		c5.6-3.5,11.7-8,18-13.4C312.3,425.4,318.5,419.8,324.5,414z"/>
</g>
<g id="Layer_4" display="none">
	<path display="inline" fill="#010101" d="M466.3,314.5c-2.8,3.8-6.3,6.6-10.4,8.4c-2.1,1.2-6.1,3.5-12,6.7
		c-6.8,3.6-14.9,7.9-24.1,12.9c-9.4,5.1-19.3,10.3-29.8,15.7c-10.3,5.4-19.8,10.5-28.6,15.4c-9,5.2-16.7,9.3-23,12.5l-5.9,3.1
		c-2.8,1.5-4.5,2.4-4.9,2.5c-6.5,3.2-13.7,4.8-21.6,4.8c-7.4,0-14.5-1.6-21-4.8l-2.4-1.4c-1.4-0.8-4-2.2-8-4.1
		c-6.5-3.3-14.3-7.4-23.4-12.6c-8.7-5-18.3-10.1-28.6-15.4l-4.1-2.2c-8.9-4.7-17.5-9.2-25.6-13.5l-24.1-12.9
		c-6.5-3.4-10.6-5.7-12.6-7c-3.2-1.7-6.1-4-9-7.4c-3.3-3.8-5.4-7.6-6.4-12.1c-1.2-5.6-0.2-11.2,3.4-16.4c2.6-3.6,7.9-7.8,18.1-7.8
		h288.2c10.3,0,15.5,4.3,18.3,8.3c3.2,4.8,4.3,10.3,3.1,15.8C471,307.1,469.2,310.9,466.3,314.5L466.3,314.5z M140.6,367
		c3-9.2,13.2-13.2,24.9-7.2c1.9,0.9,6.3,3.3,13.8,7.2c6.7,3.6,14.6,7.8,23.7,12.7c9.2,5,19.2,10.2,29.8,15.5
		c10.6,5.5,20.6,10.6,29.7,15.3c9,4.8,16.8,8.8,23.9,12.5c6.1,3.2,9.6,5,10.6,5.5c5.5,2.7,13.3,2.5,18.8-0.2c1-0.5,4.6-2.4,10.8-5.6
		c6.5-3.4,14.3-7.4,23.4-12.3c9.1-4.7,19-9.9,29.7-15.3c10.6-5.5,20.5-10.5,29.7-15.5c9.4-5.1,17.6-9.4,24.7-13.1
		c6.3-3.2,10.1-5.3,11.4-6.1l1.2-0.8c4.1-2.1,7.4-3,10.7-3c7.1,0,13.2,4.8,14.6,12.2c0.3,2.1,0.5,4.2,0.5,7V483
		c0,7.4-3.2,14.3-9.4,20.5c-6.3,6.2-13.2,9.4-20.4,9.4H169.6c-7.1,0-14-3.1-20.5-9.1c-6.6-6.3-10.1-13.3-10.1-20.8V375.7
		C139.2,372.7,139.6,369.8,140.6,367L140.6,367L140.6,367z"/>
</g>
<g id="Layer_5" display="none">
	<path display="inline" fill="#010101" d="M311.5,278.2c-64.3,0-96.7,46.1-96.7,84.6c0,23.3,8.8,44,27.8,51.7c3.1,1.2,5.8,0,6.8-3.4
		c0.7-2.4,2.1-8.4,2.7-10.8c0.9-3.4,0.6-4.6-2-7.5c-5.5-6.4-8.9-14.8-8.9-26.5c0-34.2,25.6-64.8,66.6-64.8
		c36.3,0,56.3,22.2,56.3,51.8c0,39-17.3,72-42.9,72c-14.2,0-24.7-11.7-21.4-26.1c4-17.1,11.9-35.7,11.9-48.1
		c0-11.1-5.9-20.3-18.3-20.3c-14.5,0-26.1,15-26.1,35c0,12.8,4.3,21.4,4.3,21.4S257,450,254.4,461c-5.2,21.9-0.8,48.7-0.4,51.5
		c0.2,1.6,2.3,2,3.2,0.8c1.3-1.7,18.5-23,24.5-44.3c1.7-6,9.5-37.3,9.5-37.3c4.7,9,18.4,16.8,33.1,16.8c43.5,0,73-39.7,73-92.8
		C397.2,315.6,363.1,278.2,311.5,278.2L311.5,278.2z"/>
</g>
<g id="Layer_6" display="none">
	<path display="inline" fill="#010101" d="M397.3,326.1v-46.8h-11.7v46.8h-46.8v11.7h46.8v46.8h11.7v-46.8h46.8v-11.7H397.3z
		 M318.7,279.3h-72.2c-32.4,0-62.9,24.6-62.9,53c0,29.1,22.1,52.5,55,52.5c2.3,0,4.5-0.1,6.7-0.2c-2.2,4.1-3.7,8.7-3.7,13.5
		c0,8.1,4.3,14.6,9.9,19.9c-4.1,0-8.2,0.1-12.5,0.1c-40.2,0-71,25.6-71,52.1c0,26.2,33.9,42.4,74,42.4c45.7,0,71-26,71-52.1
		c0-20.9-6.1-33.5-25.3-46.9c-6.5-4.6-19-15.9-19-22.5c0-7.7,2.3-11.6,13.8-20.7c11.9-9.3,20.4-22.5,20.4-37.7
		c0-18.2-8.1-35.9-23.3-41.8h23L318.7,279.3z M293.4,456.1c0.6,2.4,0.8,4.9,0.8,7.4c0,21.1-13.5,37.5-52.6,37.5
		c-27.8,0-47.8-17.6-47.8-38.7c0-20.7,24.8-37.9,52.6-37.5c6.5,0.1,12.5,1.1,18,2.8C279.6,438.3,290.4,444.2,293.4,456.1z
		 M249,377.4c-18.6-0.6-36.3-20.9-39.5-45.2c-3.2-24.5,9.2-43.2,27.8-42.6s36.3,20.1,39.5,44.6C280.1,358.6,267.7,378,249,377.4
		L249,377.4z"/>
</g>
<g id="Layer_7_copy" display="none">
	<path display="inline" fill="#010101" d="M364.3,278.9H247.6c-32.2,0-58.3,26.2-58.3,58.3v117.6c0,32.1,26.2,58.3,58.3,58.3h116.7
		c32.2,0,58.3-26.2,58.3-58.3V337.3C422.6,305.1,396.5,278.9,364.3,278.9z M247.6,300.5h116.7c20.2,0,36.7,16.5,36.7,36.7v20h-61.7
		c-9-6.4-20.1-10.3-32.1-10.3c-11.9,0-23,3.9-32.1,10.3h-64.2v-20C210.9,316.9,227.4,300.5,247.6,300.5L247.6,300.5z M330.1,402.3
		c0,12.7-10.3,23-23,23c-12.7,0-23-10.3-23-23s10.3-23,23-23C319.9,379.4,330.1,389.7,330.1,402.3z M364.3,491.5H247.6
		c-20.2,0-36.7-16.5-36.7-36.7v-75.9H257c-3.4,7.1-5.3,15.1-5.3,23.5c0,30.5,24.8,55.4,55.4,55.4s55.4-24.8,55.4-55.4
		c0-8.4-1.9-16.4-5.3-23.5h43.7v76C401.1,475.1,384.6,491.5,364.3,491.5L364.3,491.5z M384.1,340.1c0,3.6-2.9,6.5-6.5,6.5h-20
		c-3.6,0-6.5-2.9-6.5-6.5v-20c0-3.6,2.9-6.5,6.5-6.5h20c3.6,0,6.5,2.9,6.5,6.5V340.1z"/>
</g>
<g id="Layer_8" display="none">
	<path display="inline" fill="#010101" d="M275,324.3v32.3h-23.6V396H275v117.2h48.5V396h32.5c0,0,3.1-18.9,4.5-39.5h-36.9v-27
		c0-4,5.3-9.4,10.5-9.4h26.4v-41h-35.9C273.8,278.9,275,318.4,275,324.3z"/>
</g>
<g id="Layer_9" display="none">
	<path display="inline" fill="#010101" d="M401.2,278.9H210.8c-23.6,0-42.8,19.2-42.8,42.8v101c0,23.6,19.2,42.8,42.8,42.8h59.7
		l60.5,45.3c2,1.5,4.3,2.3,6.6,2.3c1.7,0,3.4-0.4,4.9-1.1c3.8-1.9,6.1-5.7,6.1-9.9v-36.5h52.4c23.6,0,42.8-19.2,42.8-42.8V321.6
		C444,298.1,424.8,278.9,401.2,278.9L401.2,278.9z"/>
</g>
<g id="Layer_10" display="none">
	<path display="inline" fill="#010101" d="M257.7,510.1c-2,2-4.7,3-7.2,3c-2.6,0-5.3-1-7.3-3c-4-4-4-10.5,0-14.6l99.5-99.5
		l-99.5-99.4c-4-4-4-10.5,0-14.6c4-4,10.5-4,14.6,0L371.8,396L257.7,510.1L257.7,510.1z"/>
</g>
<g id="Layer_11" display="none">
	<path display="inline" fill="#010101" d="M417.2,478.8l-53.5-53.5c-0.8-0.8-1.8-1.1-2.6-1.7c9.6-14.7,15.1-32.2,15.1-51
		c0-51.7-42-93.7-93.7-93.7s-93.7,42-93.7,93.7s42,93.7,93.7,93.7c18.8,0,36.3-5.6,51-15.1c0.6,0.8,0.9,1.9,1.7,2.6l53.5,53.5
		c4,4,9,5.8,14.2,5.8s10.3-2,14.2-5.9C425,499.3,425,486.6,417.2,478.8L417.2,478.8z M215.6,372.6c0-36.9,30-66.9,66.9-66.9
		s66.9,30,66.9,66.9s-30,66.9-66.9,66.9S215.6,409.5,215.6,372.6z"/>
</g>
<g id="Layer_12" display="none">
	<path display="inline" d="M395.9,368c-0.5-4.2-4-7.5-8.3-7.5h-18.8v-18.8c0-34.6-28.1-62.7-62.7-62.7s-62.7,28.1-62.7,62.7v18.8
		h-18.8c-4.3,0-7.9,3.3-8.4,7.5l-13.5,135.9c-0.3,2.4,0.6,4.7,2.2,6.5c1.6,1.8,3.9,2.7,6.2,2.7h190.3c2.4,0,4.6-1,6.2-2.7
		c1.6-1.8,2.4-4,2.2-6.5L395.9,368z M306,309.2c17.9,0,32.5,14.6,32.5,32.5v18.8h-64.8v-18.8C273.6,323.8,288.1,309.2,306,309.2z"/>
</g>
<g id="Layer_13" display="none">
	<path display="inline" fill="#010101" d="M428.3,367.8c-1-3.2-4-5.5-7.4-5.5h-82l-25.4-78c-1-3.2-4-5.5-7.4-5.5s-6.4,2.2-7.4,5.5
		l-25.3,78h-82c-3.4,0-6.4,2.2-7.4,5.5c-1,3.2,0.1,6.8,2.8,8.7l66.4,48.3l-25.3,78c-1,3.2,0.1,6.8,2.8,8.7c1.4,1,3,1.5,4.6,1.5
		c1.6,0,3.3-0.5,4.6-1.5l66.3-48.2l66.4,48.2c2.7,2,6.5,2,9.2,0c2.7-2,3.9-5.6,2.8-8.7l-25.3-78l66.4-48.3
		C428.2,374.5,429.4,371,428.3,367.8L428.3,367.8z"/>
</g>
<g id="Layer_14" display="none">
	<g display="inline">
		<path d="M414.4,482.6H197.5c-8.4,0-15.2,6.9-15.2,15.2c0,8.5,6.9,15.2,15.2,15.2h216.9c8.4,0,15.2-6.9,15.2-15.2
			C429.8,489.4,422.9,482.6,414.4,482.6z"/>
		<path d="M414.4,380.7H197.5c-8.4,0-15.2,6.9-15.2,15.2c0,8.5,6.9,15.2,15.2,15.2h216.9c8.4,0,15.2-6.9,15.2-15.2
			C429.8,387.6,422.9,380.7,414.4,380.7z"/>
		<path d="M197.5,309.4h216.9c8.4,0,15.2-6.9,15.2-15.2c0-8.4-6.9-15.2-15.2-15.2H197.5c-8.4,0-15.2,6.9-15.2,15.2
			C182.2,302.6,189.1,309.4,197.5,309.4z"/>
	</g>
</g>
<g id="Layer_15" display="none">
	<path display="inline" fill="#010101" d="M159.2,503.7l146.9-146.9l147,147c12.5,12.4,33,12.4,45.6-0.1c12-12.2,12-33.7-0.1-45.6
		l-169-169.2l-4.8-4.4h-0.9c-5.3-3.5-11.5-5.5-17.8-5.5c-6,0-11.8,1.6-16.7,4.7h-1.5L113.6,457.9c-6.1,6.1-9.5,14.2-9.5,22.9
		c0,8.7,3.4,16.7,9.5,23C126.1,516.2,146.6,516.2,159.2,503.7L159.2,503.7z"/>
</g>
<g id="Layer_16" display="none">
	<path display="inline" fill="#010101" d="M243.5,359.4v153.7l125-117.1l-125-117V359.4z"/>
</g>
<g id="Layer_17" display="none">
	<path display="inline" fill="#010101" d="M368.5,278.9l-125,117l125,117.1V359.4L368.5,278.9L368.5,278.9z"/>
</g>
<g id="Layer_19" display="none">
</g>
<g id="Layer_20">
</g>
<path fill="#107DB0" d="M382.7,362.2c-6.3,0-11.3,1.7-15.1,2.4l-1.2,9.6c1.9-0.9,7.9-2.6,13-2.7c5-0.2,7.9,0.9,6.9,5.2
	c-14.9,0-24.8,3-26.9,12.7c-2.9,16.5,15.1,16,22.4,8.8l-0.8,4h13.3l5.7-26.2C402.2,364.7,392,362,382.7,362.2z M383.7,389
	c-0.8,3.5-3.5,5.1-6.9,5.2c-2.9,0.2-5.6-2.4-3.7-5.5c1.5-2.6,5.6-3.2,8.1-3.2c1,0,2.2,0,3.2,0C384.1,386.7,383.9,387.8,383.7,389z"
	/>
<polygon fill="#107DB0" points="411.1,351.8 400.2,402.2 413.7,402.2 424.7,351.8 411.1,351.8 "/>
<path fill="#107DB0" d="M349.4,351.9h-24.6l-10.9,50.2h14.3l3.7-16.7H342c10,0,18.3-6.1,20.5-16.5
	C365,357.3,356.5,351.9,349.4,351.9z M348.9,369c-0.8,3.9-4.7,6.9-8.4,6.9H334l2.9-13.7h7.1C347.6,362.2,349.8,365.2,348.9,369z"/>
<path fill="#1B557D" d="M253.9,362.2c-6.2,0-11.2,1.7-14.8,2.4l-1.1,9.6c1.8-0.9,7.7-2.6,12.6-2.7c5-0.2,7.8,0.9,7,5.2
	c-14.7,0-24.6,3-26.5,12.7c-2.9,16.5,15,16,21.9,8.8l-0.8,4h13.2l5.6-26.2C273.2,364.7,263.1,362,253.9,362.2z M254.9,389
	c-0.8,3.5-3.7,5.1-7,5.2c-2.9,0.2-5.4-2.4-3.5-5.5c1.4-2.6,5.6-3.2,7.8-3.2c1.1,0,2.2,0,3.4,0C255.3,386.7,255.1,387.8,254.9,389z"
	/>
<polygon fill="#1B557D" points="276.6,362.8 289.9,362.8 292,386.3 304.9,362.8 318.6,362.8 287.1,418.8 272.4,418.8 282.1,402.3 
	276.6,362.8 "/>
<path fill="#1B557D" d="M221,351.9h-24.6l-10.9,50.1h14.5l3.6-16.7h10.3c9.9,0,18.2-6.1,20.4-16.5
	C236.7,357.3,228.2,351.9,221,351.9z M220.6,369c-0.8,3.9-4.6,6.9-8.3,6.9h-6.8l3.1-13.7h7.1C219.2,362.2,221.7,365.2,220.6,369z"/>
<path fill="#1B557D" d="M427.6,358.3v-5.9h-2.3v-0.8h5.4v0.8h-2.3v5.9H427.6z"/>
<path fill="#1B557D" d="M431.6,358.3v-6.8h1.3l1.6,4.8c0.2,0.5,0.3,0.8,0.3,1c0.1-0.3,0.2-0.6,0.4-1l1.6-4.7h1.2v6.8h-0.8v-5.6
	l-2,5.6h-0.8l-2-5.7v5.7L431.6,358.3L431.6,358.3z"/>
</svg>
