<?xml version="1.0" encoding="utf-8"?>
<!-- Generator: Adobe Illustrator 18.0.0, SVG Export Plug-In . SVG Version: 6.00 Build 0)  -->
<!DOCTYPE svg PUBLIC "-//W3C//DTD SVG 1.1//EN" "http://www.w3.org/Graphics/SVG/1.1/DTD/svg11.dtd">
<svg version="1.1" xmlns="http://www.w3.org/2000/svg" xmlns:xlink="http://www.w3.org/1999/xlink" x="0px" y="0px"
	 viewBox="0 0 278 262" enable-background="new 0 0 278 262" xml:space="preserve">
<g id="Icons">
	<path fill="#222222" d="M256.5,132.3c0,62.9-51.2,114.1-114.1,114.1S28.3,195.2,28.3,132.3S79.4,18.2,142.4,18.2
		S256.5,69.3,256.5,132.3z M242.6,132.3C242.6,77,197.6,32,142.4,32S42.1,77,42.1,132.3s45,100.2,100.2,100.2
		S242.6,187.5,242.6,132.3z"/>
	<path id="Shopping_Bag" display="none" fill="#222222" d="M193.3,106.7h-33.5V91.9c0-2.9-0.6-5.6-1.6-8.1c-1.1-2.5-2.6-4.8-4.5-6.7
		c-1.9-1.9-4.2-3.4-6.7-4.5c-2.5-1.1-5.3-1.6-8.1-1.6c-2.9,0-5.6,0.6-8.1,1.6c-2.5,1.1-4.8,2.6-6.7,4.5c-1.9,1.9-3.4,4.2-4.5,6.7
		c-1.1,2.5-1.6,5.3-1.6,8.1v14.8H84.4c-0.4,0-0.8,0.1-1.2,0.2c-0.4,0.2-0.7,0.4-1,0.7c-0.3,0.3-0.5,0.6-0.7,1
		c-0.2,0.4-0.2,0.8-0.2,1.2v67.7c0,0.4,0.1,0.8,0.2,1.2c0.2,0.4,0.4,0.7,0.7,1c0.3,0.3,0.6,0.5,1,0.7c0.4,0.2,0.8,0.2,1.2,0.2
		l27.2,3.9h54.4l27.2-3.9c0.4,0,0.8-0.1,1.2-0.2c0.4-0.2,0.7-0.4,1-0.7c0.3-0.3,0.5-0.6,0.7-1c0.2-0.4,0.2-0.8,0.2-1.2v-67.7
		c0-0.4-0.1-0.8-0.2-1.2c-0.2-0.4-0.4-0.7-0.7-1c-0.3-0.3-0.6-0.5-1-0.7C194.1,106.7,193.7,106.7,193.3,106.7z M124.1,91.9
		c0-4.1,1.7-7.8,4.3-10.5c2.7-2.7,6.4-4.3,10.5-4.3c4.1,0,7.8,1.7,10.5,4.3c2.7,2.7,4.3,6.4,4.3,10.5v7.4v7.4h-14.8h-14.8v-7.4V91.9
		z"/>
</g>
<g id="Layer_2" display="none">
	<path id="Explore" display="inline" fill="#222222" d="M141.7,18.6C79.1,18.6,28.3,69.4,28.3,132s50.9,113.4,113.4,113.4
		S255.1,194.5,255.1,132S204.2,18.6,141.7,18.6z M141.7,231.6c-54.9,0-99.6-44.7-99.6-99.6s44.7-99.6,99.6-99.6s99.6,44.7,99.6,99.6
		S196.6,231.6,141.7,231.6z M125.9,109.6l-52.6,71.6l84.6-27.1l0,0.1l52.6-71.6L125.9,109.6L125.9,109.6z M141.9,117.4
		c8,0,14.5,6.5,14.5,14.5c0,8-6.5,14.5-14.5,14.5c-8,0-14.5-6.5-14.5-14.5C127.4,123.9,133.9,117.4,141.9,117.4z"/>
</g>
<g id="Layer_3">
	<path id="Directions" fill="#222222" d="M202.1,95.8c-0.1-1.2-0.7-2.2-1.7-3c0,0,0,0,0,0l-15.4-11.9c-2-1.5-4.8-1.2-6.4,0.8
		c-1.5,2-1.2,4.8,0.8,6.4l6.7,5.2c-27.5,2.8-40.2,22.9-45.9,42.9c-6-21.1-19.8-42.6-50.9-43.3c-2.4-0.1-4.6,1.9-4.6,4.4
		c-0.1,2.5,1.9,4.6,4.4,4.6c38.7,0.8,45.8,40.6,46.6,64.8c0,0.3,0,0.6,0,0.9l0,0v32.1c0,2,2,3.6,4.5,3.6c2.5,0,4.5-1.6,4.5-3.6
		v-32.4c0,0,0-0.1,0-0.1c0-0.1,0-0.3,0-0.4c0.7-23.5,7.5-61.1,42.7-64.5L182,109c-1.5,2-1.2,4.8,0.8,6.4c2,1.5,4.8,1.2,6.4-0.8
		l11.9-15.4c0,0,0,0,0,0C201.9,98.2,202.2,97,202.1,95.8z M191.2,97.2L191.2,97.2L191.2,97.2L191.2,97.2z"/>
</g>
<g id="Layer_4" display="none">
	<path id="Wishlist" display="inline" fill="#222222" d="M207.7,114.4c-0.4-1.3-1.6-2.2-3-2.2h-45.3l-14-43.1
		c-0.4-1.3-1.6-2.2-3-2.2c-1.4,0-2.6,0.9-3,2.2l-14,43.1H80c-1.4,0-2.6,0.9-3,2.2c-0.4,1.3,0,2.7,1.1,3.5l36.7,26.7l-14,43.1
		c-0.4,1.3,0,2.7,1.1,3.5c1.1,0.8,2.6,0.8,3.7,0l36.7-26.7l36.7,26.7c0.5,0.4,1.2,0.6,1.8,0.6s1.3-0.2,1.8-0.6
		c1.1-0.8,1.6-2.2,1.1-3.5l-14-43.1l36.7-26.7C207.6,117.1,208.1,115.7,207.7,114.4z"/>
</g>
</svg>
