<?xml version="1.0" encoding="UTF-8" standalone="no"?>
<!-- Generator: Adobe Illustrator 18.0.0, SVG Export Plug-In . SVG Version: 6.00 Build 0)  -->
<!DOCTYPE svg  PUBLIC '-//W3C//DTD SVG 1.1//EN'  'http://www.w3.org/Graphics/SVG/1.1/DTD/svg11.dtd'>
<svg id="Layer_1" xmlns="http://www.w3.org/2000/svg" xml:space="preserve" viewBox="0 8 55 34.7" version="1.1" y="0px" x="0px" xmlns:xlink="http://www.w3.org/1999/xlink" enable-background="new 0 8 55 34.7">
		<radialGradient id="SVGID_1_" gradientUnits="userSpaceOnUse" cy="283.9" cx="-137.14" gradientTransform="matrix(1 0 0 -.5894 149.05 183.48)" r="44.843">
		<stop stop-color="#9DD2F1" offset="0"/>
		<stop stop-color="#98D0F0" offset=".0711"/>
		<stop stop-color="#8ACDEF" offset=".1575"/>
		<stop stop-color="#71C3EB" offset=".2516"/>
		<stop stop-color="#50B9E9" offset=".3514"/>
		<stop stop-color="#2CAADF" offset=".4546"/>
		<stop stop-color="#1BA3DB" offset=".5"/>
		<stop stop-color="#3076B7" offset="1"/>
	</radialGradient>
	<path d="m51.3 11.2h-47.8v28.3h47.8v-9.3c0.2-0.2 0.3-0.4 0.3-0.6 0-0.3-0.1-0.5-0.3-0.6" fill="url(#SVGID_1_)"/>
	<path d="m7.8 21.7l-0.9-2.2-0.9 2.2m22.1-0.8c-0.2 0.1-0.4 0.1-0.7 0.1h-1.6v-1.2h1.7c0.2 0 0.5 0 0.6 0.1 0.2 0.1 0.3 0.3 0.3 0.5-0.1 0.2-0.2 0.4-0.3 0.5zm11.6 0.8l-0.9-2.2-0.9 2.2h1.8zm-21.7 2.5h-1.4v-4.4l-1.9 4.4h-1.2l-2-4.4v4.4h-2.7l-0.5-1.3h-2.8l-0.5 1.3h-1.5l2.4-5.6h2l2.3 5.3v-5.3h2.2l1.8 3.8 1.6-3.8h2.2v5.6zm5.5 0h-4.5v-5.6h4.5v1.2h-3.1v1h3.1v1.2h-3.1v1h3.1v1.2zm6.3-4.1c0 0.9-0.6 1.4-0.9 1.5 0.3 0.1 0.5 0.3 0.7 0.5 0.2 0.3 0.2 0.5 0.2 1v1.1h-1.4v-0.7c0-0.3 0-0.8-0.2-1.1-0.2-0.2-0.5-0.2-1-0.2h-1.4v2h-1.3v-5.6h3.1c0.7 0 1.2 0 1.6 0.3 0.4 0.2 0.6 0.5 0.6 1.2zm2.2 4.1h-1.4v-5.6h1.4v5.6zm15.9 0h-1.9l-2.6-4.2v4.2h-2.7l-0.5-1.3h-2.8l-0.5 1.3h-1.6c-0.7 0-1.5-0.1-1.9-0.6-0.5-0.5-0.7-1.1-0.7-2.1 0-0.8 0.1-1.6 0.7-2.2 0.4-0.4 1.1-0.7 2-0.7h1.3v1.2h-1.3c-0.5 0-0.8 0.1-1 0.3s-0.4 0.7-0.4 1.3 0.1 1 0.4 1.3c0.2 0.2 0.6 0.3 0.9 0.3h0.6l1.9-4.4h2l2.3 5.3v-5.3h2l2.4 3.9v-3.9h1.4v5.6zm-44.4 1.1h2.3l0.5-1.3h1.2l0.5 1.3h4.5v-1l0.4 1h2.3l0.4-1v1h11.2v-2h0.2c0.2 0 0.2 0 0.2 0.3v1.8h5.8v-0.5c0.5 0.3 1.2 0.5 2.2 0.5h2.4l0.5-1.2h1.2l0.5 1.2h4.7v-1.2l0.7 1.2h3.8v-7.8h-3.7v0.9l-0.5-0.9h-3.8v0.9l-0.5-0.9h-5.2c-0.9 0-1.6 0.1-2.2 0.5v-0.5h-3.6v0.5c-0.4-0.3-0.9-0.5-1.5-0.5h-13l-0.9 2-0.9-2h-4.1v0.9l-0.5-0.9h-3.5l-1.6 3.7v4z" fill="#fff"/>
	<path d="m51.3 29.4h-2.4c-0.2 0-0.4 0-0.5 0.1s-0.2 0.2-0.2 0.4 0.1 0.4 0.3 0.4c0.1 0 0.3 0.1 0.5 0.1h0.7c0.7 0 1.2 0.1 1.5 0.5 0.1 0 0.1 0.1 0.1 0.1m0 2.1c-0.3 0.5-1 0.7-1.8 0.7h-2.6v-1.2h2.6c0.3 0 0.4 0 0.5-0.1s0.2-0.2 0.2-0.4-0.1-0.3-0.2-0.4-0.2-0.1-0.5-0.1c-1.3 0-2.8 0-2.8-1.7 0-0.8 0.5-1.7 1.9-1.7h2.7v-1.1h-2.5c-0.8 0-1.3 0.2-1.7 0.5v-0.5h-3.7c-0.6 0-1.3 0.1-1.6 0.5v-0.5h-6.6v0.5c-0.5-0.4-1.4-0.5-1.8-0.5h-4.3v0.5c-0.4-0.4-1.3-0.5-1.9-0.5h-4.8l-1.1 1.2-1-1.2h-7.3v7.8h7.1l1.1-1.2 1.1 1.2h4.4v-1.8h0.4c0.6 0 1.3 0 1.9-0.3v2.1h3.6v-2h0.2c0.2 0 0.2 0 0.2 0.2v1.8h11c0.7 0 1.4-0.2 1.8-0.5v0.5h3.5c0.7 0 1.4-0.1 2-0.4v-1.4zm-5.4-2.2c0.3 0.3 0.4 0.6 0.4 1.2 0 1.2-0.8 1.8-2.1 1.8h-2.6v-1.2h2.6c0.3 0 0.4 0 0.5-0.1s0.2-0.2 0.2-0.4-0.1-0.3-0.2-0.4-0.2-0.1-0.5-0.1c-1.3 0-2.8 0-2.8-1.7 0-0.8 0.5-1.7 1.9-1.7h2.7v1.2h-2.5c-0.2 0-0.4 0-0.5 0.1s-0.2 0.2-0.2 0.4 0.1 0.4 0.3 0.4c0.1 0 0.3 0.1 0.5 0.1h0.7c0.8-0.1 1.3 0.1 1.6 0.4zm-12.1-0.4c-0.2 0.1-0.4 0.1-0.7 0.1h-1.6v-1.3h1.7c0.2 0 0.5 0 0.6 0.1 0.2 0.1 0.3 0.3 0.3 0.5 0 0.3-0.1 0.5-0.3 0.6zm0.8 0.7c0.3 0.1 0.5 0.3 0.7 0.5 0.2 0.3 0.2 0.5 0.2 1v1.1h-1.3v-0.7c0-0.3 0-0.8-0.2-1.1-0.2-0.2-0.5-0.2-1-0.2h-1.4v2.1h-1.3v-5.6h3.1c0.7 0 1.2 0 1.6 0.3s0.7 0.6 0.7 1.2c-0.1 0.8-0.7 1.3-1.1 1.4zm1.7-3h4.5v1.2h-3.1v1h3.1v1.1h-3.1v1.1h3.1v1.2h-4.5v-5.6zm-9.1 2.6h-1.7v-1.4h1.8c0.5 0 0.8 0.2 0.8 0.7s-0.3 0.7-0.9 0.7zm-3 2.5l-2.1-2.3 2.1-2.2v4.5zm-5.3-0.6h-3.3v-1.1h2.9v-1.1h-2.9v-1h3.4l1.5 1.6-1.6 1.6zm10.6-2.6c0 1.6-1.2 1.9-2.3 1.9h-1.7v1.9h-2.6l-1.7-1.9-1.7 1.9h-5.3v-5.6h5.4l1.7 1.8 1.7-1.8h4.3c1-0.1 2.2 0.2 2.2 1.8z" fill="#fff"/>
</svg>
