<?xml version="1.0" encoding="UTF-8" standalone="no"?>
<!-- Generator: Adobe Illustrator 18.1.0, SVG Export Plug-In . SVG Version: 6.00 Build 0)  -->
<svg id="Layer_1" xmlns="http://www.w3.org/2000/svg" xml:space="preserve" viewBox="0 0 32 15" version="1.1" y="0px" x="0px" xmlns:xlink="http://www.w3.org/1999/xlink" enable-background="new 0 0 32 15">
	<polygon points="1 0.3 1.5 0.3 1.5 14.6 1 14.6"/>
	<polygon points="0 0.3 0.8 0.3 0.8 14.6 0 14.6"/>
	<polygon points="31.1 0.3 32 0.3 32 14.6 31.1 14.6"/>
		<rect y=".3" x="2.2" height="6.3" width="1.5"/>
		<rect y=".3" x="4.2" height="6.3" width=".5"/>
		<rect y=".3" x="5.1" height="6.3" width=".8"/>
		<rect y=".3" x="6.7" height="6.3" width=".5"/>
		<rect y=".3" x="7.4" height="6.3" width=".4"/>
		<rect y=".3" x="10.3" height="6.3" width="1.5"/>
		<rect y=".3" x="12.3" height="6.3" width=".5"/>
		<rect y=".3" x="13.2" height="6.3" width=".9"/>
		<rect y=".3" x="14.9" height="6.3" width=".5"/>
		<rect y=".3" x="15.5" height="6.3" width=".4"/>
		<rect y=".3" x="9.2" height="6.3" width=".5"/>
		<rect y=".3" x="8.1" height="6.3" width=".8"/>
		<rect y=".3" x="16.5" height="6.3" width=".9"/>
		<rect y=".3" x="18.2" height="6.3" width=".5"/>
		<rect y=".3" x="18.8" height="6.3" width=".4"/>
		<rect y=".3" x="20.6" height="6.3" width=".4"/>
		<rect y=".3" x="19.5" height="6.3" width=".9"/>
		<rect y=".3" x="21.7" height="6.3" width=".5"/>
		<rect y=".3" x="22.3" height="6.3" width=".4"/>
		<rect y=".3" x="24.1" height="6.3" width=".5"/>
		<rect y=".3" x="23" height="6.3" width=".8"/>
		<rect y=".3" x="24.9" height="6.3" width="1.5"/>
		<rect y=".3" x="27" height="6.3" width=".5"/>
		<rect y=".3" x="27.9" height="6.3" width=".8"/>
		<rect y=".3" x="29.5" height="6.3" width=".5"/>
		<rect y=".3" x="30.2" height="6.3" width=".4"/>
	<path d="m2.3 14.3v-7.2h2.7c0.6 0 1 0.1 1.3 0.2 0.4 0.2 0.6 0.4 0.8 0.7s0.3 0.6 0.3 1c0 0.3-0.1 0.6-0.3 0.9s-0.4 0.5-0.8 0.7c0.4 0.1 0.8 0.3 1 0.6s0.4 0.7 0.4 1.1c0 0.3-0.1 0.6-0.2 1-0.1 0.3-0.3 0.5-0.5 0.7s-0.5 0.3-0.8 0.4-0.7 0.1-1.2 0.1h-2.7v-0.2zm0.9-4.2h1.6c0.4 0 0.7 0 0.9-0.1 0.3 0 0.5-0.1 0.6-0.3s0.2-0.4 0.2-0.6-0.1-0.5-0.2-0.7c-0.1-0.2-0.3-0.3-0.5-0.4-0.2 0-0.6-0.1-1.1-0.1h-1.4l-0.1 2.2zm0 3.4h1.8 0.6c0.2 0 0.4-0.1 0.6-0.2s0.3-0.2 0.4-0.4 0.1-0.4 0.1-0.6c0-0.3-0.1-0.5-0.2-0.7s-0.3-0.3-0.6-0.4-0.5-0.2-1-0.2h-1.7v2.5z"/>
	<path d="m8.6 11.7c0-1 0.3-1.7 0.8-2.2 0.4-0.4 1-0.6 1.7-0.6s1.3 0.2 1.8 0.7c0.4 0.5 0.7 1.1 0.7 2 0 0.7-0.1 1.2-0.3 1.6s-0.5 0.7-0.9 0.9-0.8 0.3-1.3 0.3c-0.7 0-1.3-0.2-1.8-0.7-0.5-0.4-0.7-1.1-0.7-2zm0.9 0c0 0.7 0.1 1.2 0.4 1.5s0.7 0.5 1.1 0.5 0.8-0.2 1.1-0.5c0.3-0.3 0.4-0.8 0.4-1.5 0-0.6-0.1-1.1-0.4-1.5-0.3-0.3-0.7-0.5-1.1-0.5s-0.8 0.2-1.1 0.5c-0.2 0.3-0.4 0.8-0.4 1.5z"/>
	<polygon points="14.5 14.3 14.5 7.1 15.4 7.1 15.4 14.3"/>
	<path d="m20.4 12.6l0.9 0.1c-0.1 0.5-0.4 1-0.8 1.2-0.4 0.3-0.9 0.4-1.5 0.4-0.8 0-1.4-0.2-1.8-0.7s-0.7-1.1-0.7-2 0.2-1.6 0.7-2 1-0.6 1.8-0.6c0.7 0 1.3 0.2 1.7 0.7s0.7 1.1 0.7 2v0.2h-3.9c0 0.6 0.2 1 0.5 1.3s0.6 0.4 1.1 0.4c0.3 0 0.6-0.1 0.8-0.3 0.2 0 0.3-0.3 0.5-0.7zm-2.9-1.4h2.9c0-0.4-0.1-0.8-0.3-1-0.3-0.3-0.6-0.5-1.1-0.5-0.4 0-0.8 0.1-1 0.4-0.3 0.3-0.5 0.7-0.5 1.1z"/>
	<path d="m24.4 13.5l0.1 0.8c-0.3 0.1-0.5 0.1-0.7 0.1-0.3 0-0.6-0.1-0.8-0.1-0.2-0.1-0.3-0.2-0.4-0.4s-0.1-0.5-0.1-1.1v-3h-0.6v-0.7h0.6v-1.3l0.9-0.5v1.8h0.9v0.7h-0.9v3.1c0 0.3 0 0.4 0.1 0.5s0.1 0.1 0.1 0.2c0.1 0.1 0.2 0.1 0.3 0.1 0.2-0.1 0.3-0.1 0.5-0.2z"/>
	<path d="m24.9 11.7c0-1 0.3-1.7 0.8-2.2 0.4-0.4 1-0.6 1.7-0.6s1.3 0.2 1.8 0.7c0.4 0.5 0.7 1.1 0.7 2 0 0.7-0.1 1.2-0.3 1.6s-0.5 0.7-0.9 0.9c-0.4 0.2-0.8 0.3-1.3 0.3-0.7 0-1.3-0.2-1.8-0.7-0.5-0.4-0.7-1.1-0.7-2zm0.9 0c0 0.7 0.1 1.2 0.4 1.5s0.7 0.5 1.1 0.5 0.8-0.2 1.1-0.5 0.4-0.8 0.4-1.5c0-0.6-0.1-1.1-0.4-1.5-0.3-0.3-0.7-0.5-1.1-0.5s-0.8 0.2-1.1 0.5c-0.2 0.3-0.4 0.8-0.4 1.5z"/>
</svg>
