<?xml version="1.0" encoding="UTF-8" standalone="no"?>
<!-- Generator: Adobe Illustrator 18.1.0, SVG Export Plug-In . SVG Version: 6.00 Build 0)  -->
<!DOCTYPE svg  PUBLIC '-//W3C//DTD SVG 1.1//EN'  'http://www.w3.org/Graphics/SVG/1.1/DTD/svg11.dtd'>
<svg id="Layer_1" xmlns="http://www.w3.org/2000/svg" xml:space="preserve" viewBox="0 0 75 25" version="1.1" y="0px" x="0px" xmlns:xlink="http://www.w3.org/1999/xlink" enable-background="new 0 0 75 25">
	<path d="m21.7 8.6c0.9 0 1.1-0.4 1.1-1.7l1.6 0.2c0 2-0.6 2.9-2.7 2.9-2 0-2.9-1.1-2.9-4.8s0.9-4.8 2.9-4.8c2.1 0 2.7 0.9 2.7 2.9l-1.6 0.2c0-1.3-0.3-1.7-1.1-1.7-1 0-1.2 1.1-1.2 3.4s0.2 3.4 1.2 3.4z" fill="#aaa"/>
	<path d="m29.3 8.4h2.5v1.5h-4.2v-9.5h1.6v8z" fill="#aaa"/>
	<path d="m36.6 9.8h-1.6v-9.4h1.6v9.4z" fill="#aaa"/>
	<path d="m42.8 8.6c0.9 0 1.1-0.4 1.1-1.7l1.6 0.2c0 2-0.6 2.9-2.7 2.9-2 0-2.9-1.1-2.9-4.8s0.9-4.8 2.9-4.8c2.1 0 2.7 0.9 2.7 2.9l-1.5 0.1c0-1.3-0.3-1.7-1.1-1.7-1 0-1.2 1.1-1.2 3.4s0.1 3.5 1.1 3.5z" fill="#aaa"/>
	<path d="m50.4 4.9l1.9-4.4h1.9l-2.1 4.1 2.3 5.3h-2l-1.3-3.9-0.7 1.3v2.6h-1.6v-9.5h1.6v4.5z" fill="#aaa"/>
	<path d="m66.7 7.7c0.2 0.1 0.3 0.3 0.5 0.3v2c-0.4-0.3-0.8-0.6-1.3-0.9-0.5 0.6-1.3 0.9-2.2 0.9-1.7 0-2.4-1.1-2.4-2.7 0-1 0.3-1.8 1-2.4-0.4-0.7-0.7-1.6-0.7-2.3 0-1.4 0.6-2.2 2.1-2.2s2 0.8 2 1.9c0 1.2-0.7 1.8-1.6 2.7 0.5 0.6 1 1.2 1.5 1.7 0.1-0.4 0.1-0.8 0.1-1.3 0-0.3 0-0.7-0.1-1l1.3-0.2c0.1 0.3 0.2 0.8 0.2 1.2 0 0.8-0.2 1.6-0.4 2.3zm-1.8 0.4c-0.6-0.6-1.2-1.3-1.8-2.1-0.2 0.3-0.3 0.7-0.3 1.1 0 1.1 0.4 1.5 1.1 1.5 0.4 0 0.7-0.2 1-0.5zm-1.5-4.2c0.6-0.5 1-0.9 1-1.4 0-0.4-0.1-0.8-0.6-0.8s-0.7 0.3-0.7 0.9c0 0.4 0.2 0.9 0.3 1.3z" fill="#aaa"/>
	<path d="m21.7 23.3c0.9 0 1.1-0.4 1.1-1.7l1.6 0.2c0 2-0.6 2.9-2.7 2.9-2 0-2.9-1.1-2.9-4.8s0.9-4.8 2.9-4.8c2.1 0 2.7 0.9 2.7 2.9l-1.6 0.2c0-1.3-0.3-1.7-1.1-1.7-1 0-1.2 1.1-1.2 3.4s0.2 3.4 1.2 3.4z" fill="#aaa"/>
	<path d="m32.4 19.9c0 3.4-0.5 4.8-2.8 4.8s-2.8-1.4-2.8-4.8 0.5-4.8 2.8-4.8 2.8 1.4 2.8 4.8zm-1.6 0c0-2.6-0.2-3.4-1.2-3.4s-1.2 0.8-1.2 3.4 0.2 3.4 1.2 3.4 1.2-0.8 1.2-3.4z" fill="#aaa"/>
	<path d="m36.7 23.1h2.5v1.5h-4.2v-9.4h1.6v7.9z" fill="#aaa"/>
	<path d="m43.2 23.1h2.5v1.5h-4.2v-9.4h1.6v7.9z" fill="#aaa"/>
	<path d="m52.5 15.2v1.5h-2.8v2.4h2.4v1.4h-2.4v2.6h3v1.5h-4.6v-9.4h4.4z" fill="#aaa"/>
	<path d="m57.9 23.3c0.9 0 1.1-0.4 1.1-1.7l1.6 0.2c0 2-0.6 2.9-2.7 2.9-2 0-2.9-1.1-2.9-4.8s0.9-4.8 2.9-4.8c2.1 0 2.7 0.9 2.7 2.9l-1.6 0.2c0-1.3-0.3-1.7-1.1-1.7-1 0-1.2 1.1-1.2 3.4s0.2 3.4 1.2 3.4z" fill="#aaa"/>
	<path d="m66 24.6h-1.6v-7.9h-1.7v-1.5h5v1.5h-1.7v7.9z" fill="#aaa"/>
		<g fill="#212221">
			<rect y=".3" x="5.5" height="4.9" width="9.7"/>
			<polygon points="0.6 5.1 0.6 24.6 5.5 24.6 5.5 14.8 12.8 14.8 12.8 10 5.5 10 5.5 5.1"/>
		</g>
		<polygon points="5.5 0.3 5.5 5.1 0.6 5.1" fill="#ED535D"/>
</svg>
