<?xml version="1.0" encoding="UTF-8" standalone="no"?>
<!-- Generator: Adobe Illustrator 18.0.0, SVG Export Plug-In . SVG Version: 6.00 Build 0)  -->
<!DOCTYPE svg  PUBLIC '-//W3C//DTD SVG 1.1//EN'  'http://www.w3.org/Graphics/SVG/1.1/DTD/svg11.dtd'>
<svg id="Layer_1" xmlns="http://www.w3.org/2000/svg" xml:space="preserve" viewBox="0 8 55 34.7" version="1.1" y="0px" x="0px" xmlns:xlink="http://www.w3.org/1999/xlink" enable-background="new 0 8 55 34.7">
	<path d="m9.3 28.9h2.4c2 0 2.7 1.5 2.7 2.5 0 1.8-1.3 3.3-4 3.3h-2.3v-0.1c0.4-0.1 0.5-0.1 0.8-0.6l1.1-3.9c0-0.1 0.1-0.4 0.1-0.5 0-0.3-0.2-0.3-0.8-0.4v-0.3z"/>
	<path d="m16.2 33.8c-0.3 0.5-0.8 1.1-1.3 1.1-0.4 0-0.4-0.4-0.4-0.5 0-0.4 0.8-2.7 0.8-2.9s-0.1-0.2-0.5-0.2v-0.1c0.3 0 1.1-0.2 1.5-0.2l-0.9 2.8c0 0.1-0.1 0.5-0.1 0.6s0.1 0.1 0.1 0.1c0.1 0 0.3-0.2 0.8-0.8v0.1z"/>
	<path d="m16 29.8c-0.2 0-0.4-0.1-0.4-0.4s0.2-0.5 0.4-0.5c0.3 0 0.4 0.3 0.4 0.5 0.2 0.1-0.1 0.4-0.4 0.4z"/>
	<path d="m20.5 33.8c-0.4 0.6-0.8 1.1-1.3 1.1-0.4 0-0.4-0.3-0.4-0.5s0.6-2.5 0.6-2.8c0-0.2-0.1-0.3-0.2-0.3-0.4 0-1 0.8-1.3 1.3-0.4 0.6-0.5 1-0.9 2.3h-0.6c0.3-1.1 0.9-3.1 0.9-3.3 0-0.1-0.1-0.2-0.5-0.2v-0.1l1.5-0.3-0.8 1.9c0.4-0.6 1.3-1.9 2-1.9 0.4 0 0.6 0.2 0.6 0.6s-0.8 2.7-0.8 2.9c0 0.1 0.1 0.1 0.1 0.1 0.2 0 0.4-0.3 0.8-0.8h0.3z"/>
	<path d="m23.7 33.9c-0.1 0.1-1 1-1.8 1-1 0-1.3-0.8-1.3-1.3 0-1.3 1.4-2.8 2.7-2.8 0.4 0 0.8 0.2 0.8 0.6 0 0.8-0.9 1.5-2.4 1.7h-0.2c0 0.2-0.1 0.3-0.1 0.5 0 0.6 0.4 0.9 0.9 0.9s0.9-0.3 1.3-0.6h0.1z"/>
	<path d="m24.1 34.7l0.8-2.7c0.1-0.3 0.1-0.6 0.1-0.8 0-0.1 0-0.3-0.3-0.3h-0.3v-0.1c0.4-0.1 1-0.2 1.4-0.2l-0.4 1.8 0.1-0.2c0.3-0.6 1-1.7 1.6-1.7 0.2 0 0.4 0.1 0.4 0.4 0 0.4-0.3 0.4-0.4 0.4-0.4 0-0.2-0.3-0.4-0.3-0.3 0-0.9 1-0.9 1.2-0.3 0.6-0.4 1.1-0.9 2.3h-0.8v0.2z"/>
	<path d="m27 33.4c0.1 0.4 0.2 1.3 1 1.3 0.5 0 0.6-0.4 0.6-0.8 0-0.6-1.1-1.5-1.1-2.1 0-0.3 0.1-1 1.1-1 0.4 0 0.6 0.1 0.9 0.1 0.1 0 0.2-0.1 0.2-0.2h0.1l-0.1 1.2h-0.1c0-0.5-0.2-1.1-0.9-1.1-0.2 0-0.5 0.1-0.5 0.5 0 0.5 1.1 1.4 1.1 2.1 0 1-0.9 1.2-1.4 1.2-0.3 0-0.6-0.2-0.9-0.2-0.1 0-0.2 0.1-0.2 0.2h-0.1l0.2-1.4h0.1v0.2z"/>
	<path d="m36.9 30.4c0-0.2-0.1-1.5-1.4-1.5-1.8 0-2.8 2.3-2.8 3.5s0.5 1.9 1.6 1.9 1.7-0.6 2.1-1.1l0.1 0.1c-0.3 0.4-1.2 1.4-2.5 1.4-1.1 0-2.4-0.6-2.4-2.5 0-1.7 1.6-3.8 3.6-3.8 0.6 0 1.2 0.2 1.4 0.2s0.3-0.1 0.3-0.2h0.2l-0.1 2h-0.1z"/>
	<path d="m39 33.7c-0.4 0.8-0.9 1.2-1.4 1.2-0.4 0-0.4-0.3-0.4-0.5s1.3-4.9 1.3-5.1c0-0.2-0.4-0.2-0.6-0.2v-0.2c0.4-0.1 1-0.1 1.4-0.2l-1.4 5.3c0 0.1-0.1 0.3-0.1 0.4s0 0.2 0.1 0.2c0.2 0 0.4-0.2 0.9-0.9h0.2z"/>
	<path d="m43.2 33.8c-0.5 0.9-0.9 1.1-1.3 1.1s-0.4-0.3-0.4-0.4c0-0.2 0.2-1 0.4-1.7-0.6 1.1-1.3 2.1-2.1 2.1-0.3 0-0.5-0.1-0.5-0.5s0.6-2.7 0.6-2.9-0.2-0.2-0.5-0.2v-0.1c0.4-0.1 0.9-0.1 1.4-0.2l-0.8 3.2c0 0.1 0 0.3 0.2 0.3 0.4 0 1-0.9 1.3-1.3 0.4-0.6 0.6-1.3 1-2.3h0.5l-0.8 2.7c0 0.1-0.1 0.5-0.1 0.6 0 0 0 0.1 0.1 0.1 0.2 0 0.4-0.3 0.8-0.8l0.2 0.3z"/>
	<path d="m44 28.7c0.4-0.1 1-0.1 1.4-0.2-0.2 0.8-0.4 1.7-0.8 2.8 0.3-0.4 0.8-1 1.6-1 0.6 0 1.1 0.8 1.1 1.4 0 1.4-1.5 3-2.9 3-0.4 0-1.2-0.3-1.2-0.4l1.3-4.5c0.1-0.2 0.1-0.4 0.1-0.6s-0.1-0.2-0.6-0.2v-0.3z"/>
	<path d="m6.2 41.6c0.4-0.1 0.5-0.1 0.8-0.6l1-3.8c0.1-0.2 0.1-0.4 0.1-0.5 0-0.4-0.2-0.4-0.6-0.5v-0.2h2.3v0.1c-0.4 0.1-0.5 0.1-0.8 0.6l-1.1 3.9c-0.1 0.2-0.1 0.3-0.1 0.5 0 0.3 0.2 0.3 0.6 0.3v0.1l-2.2 0.1z"/>
	<path d="m13.2 40.7c-0.4 0.6-0.8 1.1-1.3 1.1-0.4 0-0.4-0.3-0.4-0.5s0.6-2.5 0.6-2.8c0-0.2-0.1-0.3-0.2-0.3-0.4 0-1 0.8-1.3 1.3-0.4 0.6-0.5 1-0.9 2.3h-0.5c0.3-1.1 0.9-3.1 0.9-3.3 0-0.1-0.1-0.2-0.5-0.2v-0.1l1.5-0.3-0.5 1.9c0.4-0.6 1.3-1.9 2-1.9 0.4 0 0.6 0.2 0.6 0.6s-0.8 2.7-0.8 2.9c0 0.1 0.1 0.1 0.1 0.1 0.2 0 0.4-0.3 0.8-0.8h-0.1z"/>
	<path d="m15.6 38.2h-0.8l-0.8 3v0.1s0 0.1 0.1 0.1c0.2 0 0.5-0.4 0.8-0.8l0.1 0.1c-0.4 0.8-0.9 1.1-1.3 1.1-0.2 0-0.4-0.1-0.4-0.3 0-0.1 0.2-0.6 0.2-0.9l0.6-2.5h-0.6v-0.1c0.1-0.1 0.3-0.1 0.4-0.2 0.3-0.1 0.8-0.5 1-0.9l0.1-0.1c0.1 0 0.1 0.1 0.1 0.1l-0.1 1.1h0.8l-0.2 0.2z"/>
	<path d="m18.4 40.8c-0.1 0.1-1 1-1.8 1-1 0-1.3-0.8-1.3-1.3 0-1.3 1.4-2.8 2.7-2.8 0.4 0 0.8 0.2 0.8 0.6 0 0.8-0.9 1.5-2.4 1.7h-0.2c0 0.2-0.1 0.3-0.1 0.5 0 0.6 0.4 0.9 0.9 0.9s0.9-0.3 1.3-0.6h0.1z"/>
	<path d="m18.8 41.7l0.8-2.7c0-0.3 0.1-0.6 0.1-0.6 0-0.1 0-0.3-0.3-0.3h-0.3v-0.1c0.4-0.1 1-0.2 1.4-0.2l-0.5 1.8 0.1-0.2c0.3-0.6 1-1.7 1.6-1.7 0.2 0 0.4 0.1 0.4 0.4 0 0.4-0.3 0.4-0.4 0.4-0.4 0-0.2-0.3-0.4-0.3-0.3 0-0.9 1-0.9 1.2-0.3 0.6-0.4 1.1-0.9 2.3h-0.8z"/>
	<path d="m26.1 40.7c-0.4 0.6-0.8 1.1-1.3 1.1-0.4 0-0.4-0.3-0.4-0.5s0.6-2.5 0.6-2.8c0-0.2-0.1-0.3-0.2-0.3-0.4 0-1 0.8-1.3 1.3-0.4 0.6-0.5 1-0.9 2.3h-0.6c0.3-1.1 0.9-3.1 0.9-3.3 0-0.1-0.1-0.2-0.5-0.2v-0.1l1.5-0.3-0.5 1.9c0.4-0.6 1.3-1.9 2-1.9 0.4 0 0.6 0.2 0.6 0.6s-0.8 2.7-0.8 2.9c0 0.1 0.1 0.1 0.1 0.1 0.2 0 0.4-0.3 0.8-0.8z"/>
	<path d="m30.2 40.8c-0.5 0.6-0.9 1-1.3 1s-0.4-0.2-0.4-0.4 0-0.4 0.2-1c-0.8 1.1-1.3 1.4-1.8 1.4-0.9 0-1-0.9-1-1.1 0-1.3 1.4-3 2.6-3 0.4 0 0.6 0.2 0.8 0.5l0.1-0.4 0.5-0.1h0.1c0 0.1-0.9 3.2-0.9 3.5 0 0.1 0.1 0.1 0.1 0.1 0.1 0 0.3-0.2 0.8-0.6l0.2 0.1z"/>
	<path d="m32.5 38.2h-0.8l-0.8 3v0.1s0 0.1 0.1 0.1c0.2 0 0.5-0.4 0.8-0.8l0.1 0.1c-0.4 0.8-0.9 1.1-1.3 1.1-0.2 0-0.4-0.1-0.4-0.3 0-0.1 0.2-0.6 0.2-0.9l0.6-2.5h-0.8v-0.1c0.1-0.1 0.3-0.1 0.4-0.2 0.3-0.1 0.8-0.5 1-0.9l0.1-0.1c0.3 0.1 0.3 0.2 0.3 0.2l-0.2 1h0.8v0.2z"/>
	<path d="m34.5 40.7c-0.3 0.5-0.8 1.1-1.3 1.1-0.4 0-0.4-0.4-0.4-0.5 0-0.4 0.8-2.7 0.8-2.9s-0.1-0.2-0.5-0.2v-0.1c0.3 0 1.1-0.2 1.5-0.2l-0.9 2.8c0 0.1-0.1 0.5-0.1 0.6s0.1 0.1 0.1 0.1c0.1 0 0.3-0.2 0.8-0.8v0.1z"/>
	<path d="m34.3 36.8c-0.2 0-0.4-0.1-0.4-0.4s0.2-0.5 0.4-0.5c0.3 0 0.4 0.3 0.4 0.5 0 0.1-0.1 0.4-0.4 0.4z"/>
	<path d="m38.5 39c0 1.1-1.3 2.8-2.7 2.8-1 0-1.4-0.5-1.4-1.3 0-1.3 1.4-2.8 2.7-2.8 1.2 0 1.4 0.8 1.4 1.3z"/>
	<path d="m42.5 40.7c-0.4 0.6-0.8 1.1-1.3 1.1-0.4 0-0.4-0.3-0.4-0.5s0.6-2.5 0.6-2.8c0-0.2-0.1-0.3-0.2-0.3-0.4 0-1 0.8-1.3 1.3-0.4 0.6-0.5 1-0.9 2.3h-0.6c0.3-1.1 0.9-3.1 0.9-3.3 0-0.1-0.1-0.2-0.5-0.2v-0.1l1.5-0.3-0.5 1.9c0.4-0.6 1.3-1.9 2-1.9 0.4 0 0.6 0.2 0.6 0.6s-0.8 2.7-0.8 2.9c0 0.1 0.1 0.1 0.1 0.1 0.2 0 0.4-0.3 0.8-0.8z"/>
	<path d="m46.7 40.8c-0.5 0.6-0.9 1-1.3 1s-0.4-0.2-0.4-0.4 0-0.4 0.2-1c-0.8 1.1-1.3 1.4-1.8 1.4-0.9 0-1-0.9-1-1.1 0-1.3 1.4-3 2.6-3 0.4 0 0.6 0.2 0.8 0.5l0.1-0.4 0.5-0.1h0.1c0 0.1-0.9 3.2-0.9 3.5 0 0.1 0.1 0.1 0.1 0.1 0.1 0 0.3-0.2 0.8-0.6l0.2 0.1z"/>
	<path d="m48.4 41c-0.4 0.8-0.6 0.9-1.2 0.9-0.4 0-0.4-0.3-0.4-0.5s1.3-4.9 1.3-5.1-0.4-0.2-0.6-0.2v-0.1c0.4-0.1 1-0.1 1.4-0.2l-1.3 5.3c0 0.1-0.1 0.3-0.1 0.4s0 0.2 0.1 0.2c0.2 0 0.2 0 0.6-0.5h0.2z"/>
	<path d="m32.9 26.9c4.9 0 9-4.1 9-9s-4.1-9-9-9h-11.4c-4.9 0-9 4.1-9 9s4.1 9 9 9h11.4z" fill="#27569F"/>
		<circle cy="17.9" cx="21.5" r="8.8" fill="#fff"/>
	<path d="m19.8 12.9c-2.1 0.8-3.6 2.7-3.6 5s1.5 4.4 3.6 5v-10z" fill="#27569F"/>
	<path d="m26.9 17.9c0 2.4-1.5 4.4-3.6 5v-10.1c2.1 0.8 3.6 2.9 3.6 5.1" fill="#27569F"/>
	<path d="m9.9 33.2c-0.1 0.3-0.2 0.8-0.2 0.9 0 0.3 0.2 0.3 0.6 0.3 2.9 0 3-2.6 3-3.2 0-1-0.1-2-1.7-2-0.5 0-0.5 0.1-0.6 0.2l-1.1 3.8z" fill="#ECECEC"/>
	<path d="m21.6 32.8c1.8-0.4 1.9-1.5 1.9-1.5 0-0.2-0.1-0.3-0.3-0.3-0.5 0-1.1 0.8-1.4 1.5l-0.2 0.3z" fill="#ECECEC"/>
	<path d="m45.8 30.9c-1 0-1.8 1.8-1.9 3.4 0 0.1 0 0.3 0.4 0.3 1.3 0 2.1-1.9 2.1-2.7 0.1-0.3 0.1-1-0.6-1z" fill="#ECECEC"/>
	<path d="m16.2 39.9c1.8-0.4 1.9-1.5 1.9-1.5 0-0.2-0.1-0.3-0.3-0.3-0.5 0-1.1 0.8-1.4 1.5l-0.2 0.3z" fill="#ECECEC"/>
	<path d="m27.4 41.4c1 0 1.8-1.9 1.8-2.9 0-0.4-0.2-0.6-0.5-0.6-1.1 0-1.9 2-1.9 2.8 0.1 0.5 0.3 0.7 0.6 0.7z" fill="#ECECEC"/>
	<path d="m35.3 40.7c0 0.5 0.3 0.9 0.8 0.9 1.1 0 1.7-1.9 1.7-2.9 0-0.4-0.2-0.9-0.6-0.9-1 0.2-1.9 1.9-1.9 2.9z" fill="#ECECEC"/>
	<path d="m43.8 41.4c1 0 1.8-1.9 1.8-2.9 0-0.4-0.2-0.6-0.5-0.6-1.1 0-1.9 2-1.9 2.8 0.1 0.5 0.4 0.7 0.6 0.7z" fill="#ECECEC"/>
</svg>
