<?xml version="1.0" encoding="utf-8"?>
<!-- Generator: Adobe Illustrator 18.1.0, SVG Export Plug-In . SVG Version: 6.00 Build 0)  -->
<svg version="1.1" id="Layer_1" xmlns="http://www.w3.org/2000/svg" xmlns:xlink="http://www.w3.org/1999/xlink" x="0px" y="0px"
	 viewBox="142.4 0 157.6 150" enable-background="new 142.4 0 157.6 150" xml:space="preserve">
<g id="Layer_7">
	<path fill="#222222" d="M221.2,0c-1.6,0-3.1,1-3.6,2.6l-16.8,51.7h-54.6c-1.6,0-3.1,1-3.6,2.6s0,3.1,1.3,4.1l44.2,32.1l-16.8,51.7
		c-0.5,1.6,0,3.1,1.3,4.1s3.1,1,4.4,0l44.2-32.1l15.8-38L221.2,0z"/>
</g>
<g id="Layer_7_1_">
	<path fill="#ABABAB" d="M221.2,116.9l44.2,32.3c1.3,1,3.1,1,4.4,0c1.3-1,1.8-2.6,1.3-4.1l-16.8-51.7l44.2-32.1
		c1.3-1,1.8-2.6,1.3-4.1c-0.5-1.6-1.8-2.6-3.6-2.6h-54.6L224.8,2.8C224.3,1.3,223,0,221.2,0"/>
</g>
</svg>
