<?xml version="1.0" encoding="UTF-8" standalone="no"?>
<!-- Generator: Adobe Illustrator 17.0.0, SVG Export Plug-In . SVG Version: 6.00 Build 0)  -->
<!DOCTYPE svg  PUBLIC '-//W3C//DTD SVG 1.1//EN'  'http://www.w3.org/Graphics/SVG/1.1/DTD/svg11.dtd'>
<svg id="Layer_1" xmlns="http://www.w3.org/2000/svg" xml:space="preserve" height="18px" viewBox="0 0 134.805 18" width="134.8px" version="1.1" y="0px" x="0px" xmlns:xlink="http://www.w3.org/1999/xlink" enable-background="new 0 0 134.805 18">
	<polygon points="10.811 0 3.607 0 3.607 3.608 10.811 3.608" fill="#222"/>
	<polygon points="0 3.608 0 18 3.607 18 3.607 10.807 9.016 10.807 9.016 7.197 3.607 7.197 3.607 3.608" fill="#222"/>
	<polygon points="3.608 0 3.608 3.608 0.001 3.608" fill="#F0515A"/>
	<polygon points="54.579 3.608 54.579 18 58.186 18 58.186 10.807 63.594 10.807 63.594 7.197 58.186 7.197 58.186 3.608" fill="#222"/>
	<polygon points="24.478 0 24.478 3.608 28.086 3.608" fill="#E9C6A7"/>
	<polygon points="24.478 3.608 24.478 7.197 20.892 7.197 20.892 3.608 20.892 3.608 24.478 3.608 24.478 0 20.892 0 20.892 0 17.285 3.608 17.285 18 20.892 18 20.892 10.807 24.478 10.807 24.478 18 28.086 18 28.086 3.608" fill="#222"/>
	<polygon points="124 0 124 18 127.61 18 127.61 10.807 131.2 10.807 131.2 18 134.8 18 134.8 0 131.2 0 131.2 7.197 127.61 7.197 127.61 0 127.61 0" fill="#222"/>
	<polygon points="39.537 7.197 39.537 3.608 43.161 3.608 43.161 3.608 43.161 7.197 46.767 7.197 46.767 3.608 46.767 3.608 43.161 0 43.161 0 35.944 0 35.944 18 39.537 18 39.537 10.807 43.161 10.807 43.161 10.807 43.161 10.807 43.161 18 46.767 18 46.767 10.807 43.161 7.197" fill="#222"/>
	<polygon points="65.389 0 58.186 0 54.579 3.608 58.186 3.608 58.186 3.608 65.389 3.608" fill="#F0515A"/>
	<polygon points="100.16 0 89.366 0 89.353 3.608 92.955 3.608 92.955 18 96.562 18 96.562 3.608 100.16 3.608" fill="#222"/>
	<polygon points="117.59 18 110.38 18 110.38 18 106.78 14.396 110.39 14.396 110.39 14.396 117.59 14.396" fill="#E9C6A7"/>
	<polygon points="74.962 14.396 74.962 14.396 74.961 14.396 74.961 10.807 80.37 10.807 80.37 7.197 74.961 7.197 74.961 3.608 74.962 3.608 74.962 3.608 82.165 3.608 82.165 0 74.961 0 74.961 0 71.356 3.608 71.354 3.608 71.354 14.396 71.358 14.396 74.961 18 74.961 18 82.165 18 82.165 14.396" fill="#222"/>
	<polygon points="110.38 0 110.38 0 106.78 3.608 106.78 14.396 110.39 14.396 110.39 3.608 117.59 3.608 117.59 0" fill="#222"/>
</svg>
