<?xml version="1.0" encoding="UTF-8" standalone="no"?>
<!-- Generator: Adobe Illustrator 18.0.0, SVG Export Plug-In . SVG Version: 6.00 Build 0)  -->
<!DOCTYPE svg  PUBLIC '-//W3C//DTD SVG 1.1//EN'  'http://www.w3.org/Graphics/SVG/1.1/DTD/svg11.dtd'>
<svg id="Layer_1" xmlns="http://www.w3.org/2000/svg" xml:space="preserve" viewBox="0 8 55 34.7" version="1.1" y="0px" x="0px" xmlns:xlink="http://www.w3.org/1999/xlink" enable-background="new 0 8 55 34.7">
<g clip-rule="evenodd" fill-rule="evenodd">
	<path fill="#0097D9" d="m26.4 36.7c3.1-2.8 5-6.8 5-11.3s-1.9-8.5-5-11.3c-2.7-2.4-6.3-3.9-10.2-3.9-8.4-0.1-15.2 6.7-15.2 15.2 0 8.4 6.8 15.2 15.3 15.2 3.9 0 7.5-1.5 10.1-3.9z"/>
	<path fill="#0097D9" d="m26.4 36.7c3.1-2.8 5-6.8 5-11.3s-1.9-8.5-5-11.3v22.6z"/>
	<path fill="#E40520" d="m36.7 10.1c-3.9 0-7.5 1.5-10.2 3.9-0.5 0.5-1 1-1.5 1.6h3c0.4 0.5 0.8 1.1 1.2 1.6h-5.4c-0.3 0.5-0.6 1.1-0.9 1.6h7.1c0.2 0.5 0.5 1.1 0.7 1.6h-8.5c-0.2 0.5-0.3 1.1-0.4 1.6h9.3c0.2 1 0.3 2.1 0.3 3.2 0 1.7-0.3 3.3-0.8 4.8h-8.5c0.2 0.5 0.4 1.1 0.6 1.6h7.3c-0.3 0.5-0.5 1.1-0.9 1.6h-5.4c0.4 0.6 0.7 1.1 1.2 1.6h3.1c-0.5 0.6-1 1.1-1.6 1.6 2.7 2.4 6.3 3.9 10.2 3.9 8.4 0 15.2-6.8 15.2-15.2 0.1-8.2-6.7-15-15.1-15z"/>
	<path fill="#E40520" d="m50 33.9c0-0.3 0.2-0.5 0.5-0.5s0.5 0.2 0.5 0.5-0.2 0.5-0.5 0.5-0.5-0.3-0.5-0.5zm0.5 0.3c0.2 0 0.4-0.2 0.4-0.4s-0.2-0.4-0.4-0.4-0.4 0.1-0.4 0.4 0.2 0.4 0.4 0.4zm-0.1-0.1h-0.1v-0.4h0.2 0.1l0.1 0.1c0 0.1 0 0.1-0.1 0.1l0.1 0.2h-0.1l-0.1-0.1h-0.1v0.1zm0-0.3h0.1v-0.1h-0.1-0.1v0.1h0.1z"/>
	<polygon points="13.8 29.6 11.9 29.6 13.1 23.7 10.5 29.6 8.9 29.6 8.5 23.7 7.3 29.6 5.5 29.6 7 21.9 10 21.9 10 26.7 12.1 21.9 15.3 21.9" fill="#06326E"/>
	<path fill="#06326E" d="m35 29.5c-0.5 0.1-0.9 0.2-1.4 0.2-1 0-1.5-0.5-1.5-1.4 0-0.2 0-0.4 0.1-0.6l0.1-0.6 0.1-0.5 0.9-4.8h1.9l-0.3 1.4h1l-0.2 1.5h-1l-0.5 2.6v0.3c0 0.3 0.2 0.4 0.7 0.4 0.2 0 0.4 0 0.5-0.1l-0.4 1.6z"/>
	<path fill="#06326E" d="m27.5 25.3c0 0.8 0.4 1.3 1.4 1.7 0.8 0.3 0.9 0.4 0.9 0.7 0 0.4-0.4 0.6-1.1 0.6-0.6 0-1.1-0.1-1.7-0.3l-0.3 1.5h0.1l0.4 0.1c0.1 0 0.3 0.1 0.5 0.1 0.4 0 0.8 0.1 1 0.1 2 0 3-0.7 3-2.1 0-0.9-0.4-1.4-1.3-1.8-0.8-0.3-0.9-0.4-0.9-0.7s0.3-0.5 0.9-0.5c0.4 0 0.9 0 1.4 0.1l0.3-1.4c-0.5-0.1-1.3-0.1-1.7-0.1-2.2-0.1-2.9 0.8-2.9 2z"/>
	<path fill="#06326E" d="m20 29.6h-1.6v-0.7c-0.5 0.5-1.1 0.7-2 0.7-1 0-1.7-0.7-1.7-1.7 0-1.5 1.2-2.4 3.3-2.4h0.8c0.1-0.2 0.1-0.3 0.1-0.4 0-0.4-0.3-0.6-1.2-0.6-0.5 0-1.1 0.1-1.6 0.2l-0.3 0.1h-0.2l0.3-1.4c1-0.3 1.6-0.4 2.3-0.4 1.6 0 2.5 0.7 2.5 1.9 0 0.3 0 0.5-0.2 1.3l-0.4 2.2-0.1 0.4v0.4 0.2 0.2zm-1.3-2.8h-0.4c-1.1 0-1.6 0.3-1.6 1 0 0.4 0.3 0.6 0.7 0.6 0.7 0 1.3-0.7 1.3-1.6z"/>
	<path fill="#06326E" d="m26.2 29.5c-0.6 0.2-1.3 0.3-1.9 0.3-2.1 0-3.2-1-3.2-2.8 0-2.2 1.4-3.7 3.3-3.7 1.6 0 2.6 0.9 2.6 2.3 0 0.5-0.1 0.9-0.2 1.6h-3.8v0.2c0 0.7 0.6 1.1 1.7 1.1 0.7 0 1.3-0.1 2-0.4l-0.5 1.4zm-0.9-3.8v-0.3c0-0.5-0.3-0.8-0.9-0.8s-1 0.4-1.2 1.1h2.1z"/>
	<path fill="#06326E" d="m46.5 26.7c-0.3 2.1-1.7 3-3.7 3-2.2 0-3-1.3-3-2.9 0-2.2 1.5-3.7 3.7-3.7 2 0 3 1.3 3 2.8v0.8zm-2-0.7c0-0.7-0.3-1.3-1-1.3-1 0-1.6 1.2-1.6 2.2 0 0.9 0.4 1.4 1.1 1.4 0.4 0 1.3-0.6 1.5-1.6v-0.7z"/>
	<path fill="#fff" d="m46.7 28.7c0-0.3 0.2-0.5 0.5-0.5s0.5 0.2 0.5 0.5c0 0.3-0.2 0.5-0.5 0.5s-0.5-0.3-0.5-0.5zm0.5 0.3c0.2 0 0.4-0.2 0.4-0.4s-0.1-0.4-0.4-0.4c-0.2 0-0.4 0.1-0.4 0.4s0.2 0.4 0.4 0.4zm-0.1-0.1h-0.1v-0.4h0.2 0.1l0.1 0.1c0 0.1 0 0.1-0.1 0.1l0.1 0.2h-0.1l-0.1-0.1h-0.1v0.1zm0-0.3h0.1v-0.1l-0.1 0.1z"/>
	<polygon points="14.3 29.2 12.4 29.2 13.5 23.2 10.9 29.2 9.2 29.2 8.9 23.2 7.8 29.2 6 29.2 7.5 21.4 10.5 21.4 10.6 26.2 12.7 21.4 15.8 21.4" fill="#fff"/>
	<path fill="#fff" d="m35.5 29.1c-0.5 0.1-0.9 0.2-1.4 0.2-1 0-1.5-0.5-1.5-1.4 0-0.2 0-0.4 0.1-0.6l0.1-0.6 0.1-0.5 0.9-4.8h1.9l-0.3 1.4h1l-0.3 1.5h-1l-0.4 2.7c0 0.1-0.1 0.2-0.1 0.3 0 0.3 0.2 0.5 0.7 0.5 0.2 0 0.4 0 0.5-0.1l-0.3 1.4z"/>
	<path fill="#06326E" d="m40.4 24.7v-0.2l0.4-1h-0.1-0.2-0.2c-0.6 0-1.1 0.3-1.7 1l0.2-1.1h-2l-1.2 6.3h1.9c0.3-1.5 0.4-2.3 0.5-3 0.2-1.1 1.1-1.6 1.7-1.5h0.2l0.1 0.1 0.4-0.6z"/>
	<path fill="#fff" d="m41.1 22.9c-0.1-0.1-0.2-0.1-0.2-0.1-0.1 0-0.1 0-0.1-0.1h-0.2c-0.6 0-1.1 0.3-1.6 1l0.2-1h-1.7l-1.2 6.3h1.7c0.7-3.9 1-4.5 1.9-4.5h0.2l0.2 0.1 0.8-1.7z"/>
	<path fill="#fff" d="m28 24.9c0 0.8 0.4 1.3 1.5 1.7 0.8 0.3 0.9 0.4 0.9 0.7 0 0.4-0.4 0.6-1.1 0.6-0.6 0-1.1-0.1-1.7-0.3l-0.2 1.5h0.1l0.3 0.1h0.5c0.4 0.1 0.8 0.1 1.1 0.1 2 0 3-0.7 3-2.1 0-0.9-0.4-1.4-1.4-1.8-0.9-0.3-1-0.4-1-0.7s0.3-0.5 1-0.5c0.4 0 0.9 0 1.4 0.1l0.3-1.4c-0.5-0.1-1.3-0.1-1.7-0.1-2.3-0.1-3 0.9-3 2.1z"/>
	<path fill="#fff" d="m20.5 29.2h-1.6v-0.7c-0.5 0.5-1.1 0.7-2 0.7-1 0-1.7-0.7-1.7-1.7 0-1.5 1.2-2.4 3.3-2.4h0.8c0.1-0.2 0.1-0.3 0.1-0.4 0-0.4-0.3-0.6-1.2-0.6-0.5 0-1.1 0.1-1.6 0.1l-0.3 0.1h-0.2l0.3-1.4c1-0.2 1.6-0.3 2.3-0.3 1.6 0 2.5 0.6 2.5 1.8 0 0.3 0 0.6-0.1 1.3l-0.4 2.2-0.1 0.4-0.1 0.3v0.2 0.4zm-1.4-2.8h-0.4c-1.1 0-1.6 0.3-1.6 1 0 0.4 0.2 0.7 0.7 0.7 0.7-0.2 1.3-0.8 1.3-1.7z"/>
	<path fill="#fff" d="m26.7 29c-0.7 0.2-1.3 0.3-1.9 0.3-2.1 0-3.2-1-3.2-2.8 0-2.2 1.4-3.7 3.3-3.7 1.6 0 2.5 0.9 2.5 2.3 0 0.5-0.1 0.9-0.2 1.6h-3.8v0.2c0 0.7 0.5 1.1 1.6 1.1 0.7 0 1.3-0.1 2-0.4l-0.3 1.4zm-1-3.7v-0.3c0-0.5-0.3-0.8-0.9-0.8s-1 0.4-1.2 1.1h2.1z"/>
	<path fill="#fff" d="m47 26.3c-0.3 2.1-1.8 3-3.7 3-2.1 0-3-1.3-3-2.9 0-2.2 1.5-3.7 3.7-3.7 2 0 3 1.3 3 2.8v0.8zm-2-0.8c0-0.7-0.3-1.3-1-1.3-1 0-1.6 1.1-1.6 2.2 0 0.8 0.4 1.4 1.1 1.4 0.4 0 1.3-0.6 1.5-1.5v-0.8z"/>
</g>
</svg>
