<?xml version="1.0" encoding="UTF-8" standalone="no"?>
<!-- Generator: Adobe Illustrator 18.0.0, SVG Export Plug-In . SVG Version: 6.00 Build 0)  -->
<!DOCTYPE svg  PUBLIC '-//W3C//DTD SVG 1.1//EN'  'http://www.w3.org/Graphics/SVG/1.1/DTD/svg11.dtd'>
<svg id="Layer_1" xmlns="http://www.w3.org/2000/svg" xml:space="preserve" viewBox="0 8 55 34.7" version="1.1" y="0px" x="0px" xmlns:xlink="http://www.w3.org/1999/xlink" enable-background="new 0 8 55 34.7">
<g clip-rule="evenodd" fill-rule="evenodd">
	<path fill="#FAB31E" d="m27.5 36.6c2.7 2.4 6.3 3.9 10.2 3.9 8.4 0 15.2-6.8 15.2-15.2s-6.8-15.2-15.2-15.2c-3.9 0-7.5 1.5-10.2 3.9-3.1 2.8-5 6.8-5 11.3s1.9 8.6 5 11.3z"/>
	<path fill="#FAB31E" d="m50.9 33.8c0-0.3 0.2-0.5 0.5-0.5s0.5 0.2 0.5 0.5-0.2 0.5-0.5 0.5-0.5-0.2-0.5-0.5zm0.5 0.4c0.2 0 0.4-0.2 0.4-0.4s-0.2-0.4-0.4-0.4-0.4 0.1-0.4 0.4c0 0.2 0.2 0.4 0.4 0.4zm-0.1-0.1l-0.1-0.4h0.2 0.1l0.1 0.1c0 0.1 0 0.1-0.1 0.1l0.1 0.2h-0.1l-0.1-0.2h-0.1v0.2zm0-0.3h0.1v-0.1l-0.1 0.1z"/>
	<path fill="#E40520" d="m32.4 23.7c-0.1-0.5-0.1-1.1-0.3-1.6h-9.3c0.1-0.5 0.3-1.1 0.4-1.6h8.4c-0.2-0.5-0.4-1.1-0.6-1.6h-7.2c0.3-0.5 0.6-1.1 0.9-1.6h5.4c-0.3-0.6-0.7-1.1-1.2-1.6h-3c0.4-0.6 1-1.1 1.5-1.6-2.7-2.4-6.3-3.9-10.2-3.9-8.3-0.1-15.1 6.8-15.1 15.2s6.8 15.2 15.2 15.2c3.9 0 7.5-1.5 10.2-3.9 0.5-0.5 1.1-1 1.6-1.6h-3.1c-0.4-0.5-0.8-1-1.2-1.6h5.4c0.3-0.5 0.6-1 0.9-1.6h-7.2c-0.2-0.5-0.4-1-0.6-1.6h8.4c0.2-0.5 0.3-1.1 0.4-1.6s0.2-1.1 0.3-1.6 0.1-1.1 0.1-1.6c0-0.7 0-1.2-0.1-1.8z"/>
	<path fill="#fff" d="m50.9 28.9c0-0.3 0.2-0.5 0.5-0.5s0.5 0.2 0.5 0.5-0.2 0.5-0.5 0.5-0.5-0.3-0.5-0.5zm0.5 0.4c0.2 0 0.4-0.2 0.4-0.4s-0.2-0.4-0.4-0.4-0.4 0.1-0.4 0.4c0 0.2 0.2 0.4 0.4 0.4zm-0.1-0.2l-0.1-0.4h0.2 0.1l0.1 0.1c0 0.1 0 0.1-0.1 0.1l0.1 0.2h-0.1l-0.1-0.2h-0.1v0.2zm0-0.3h0.1v-0.1c0 0.1 0 0.1-0.1 0.1z"/>
	<path fill="#06326E" d="m22.3 29.7c-0.5 0.1-0.9 0.2-1.3 0.2-0.8 0-1.3-0.5-1.3-1.4 0-0.2 0-0.4 0.1-0.6l0.1-0.6 0.1-0.5 0.7-4.3h1.6l-0.2 1h1l-0.2 1.6h-1l-0.4 2.6v0.2c0 0.3 0.2 0.5 0.6 0.5 0.2 0 0.3 0 0.5-0.1l-0.3 1.4z"/>
	<path fill="#06326E" d="m27.4 29.7c-0.6 0.2-1.1 0.3-1.7 0.3-1.8 0-2.8-1-2.8-2.8 0-2.1 1.2-3.8 2.9-3.8 1.3 0 2.2 0.9 2.2 2.3 0 0.4-0.1 0.9-0.2 1.6h-3.3v0.2c0 0.7 0.5 1.1 1.4 1.1 0.6 0 1.1-0.1 1.7-0.4l-0.2 1.5zm-0.9-3.7v-0.3c0-0.5-0.3-0.8-0.8-0.8s-0.9 0.4-1 1.1h1.8z"/>
	<polygon points="9.7 29.8 8.1 29.8 9 23.9 6.9 29.8 5.8 29.8 5.7 23.9 4.6 29.8 3.1 29.8 4.3 22.1 6.7 22.1 6.8 26.9 8.4 22.1 11 22.1" fill="#06326E"/>
	<path fill="#06326E" d="m13.7 27h-0.3c-0.9 0-1.4 0.4-1.4 1 0 0.4 0.2 0.7 0.6 0.7 0.8-0.1 1.1-0.8 1.1-1.7zm1.3 2.8h-1.4v-0.7c-0.4 0.5-0.8 0.8-1.7 0.8-0.8 0-1.5-0.7-1.5-1.7 0-0.3 0.1-0.6 0.1-0.8 0.3-1 1.3-1.6 2.7-1.6h0.7c0.1-0.2 0.1-0.3 0.1-0.4 0-0.4-0.3-0.5-1.1-0.5-0.5 0-1 0.1-1.4 0.2l-0.2 0.1h-0.1l0.2-1.4c0.8-0.2 1.3-0.3 1.9-0.3 1.4 0 2.2 0.6 2.2 1.9 0 0.3 0 0.5-0.1 1.2l-0.3 2.2-0.1 0.4v0.2 0.2 0.2z"/>
	<path fill="#06326E" d="m35.4 23.6c0.4 0 0.9 0.1 1.5 0.4l0.3-1.7c-0.1-0.1-0.2-0.1-0.4-0.1l-0.8-0.2h-0.7c-0.8 0-1.3 0-1.8 0.3-0.3 0.1-0.6 0.4-1 0.8l-0.2-0.1-1.7 1.2 0.1-0.7h-1.7l-1 6.3h1.6l0.6-3.4s0.2-0.5 0.4-0.6c0.3-0.4 0.6-0.4 0.9-0.4h0.1c0 0.4-0.1 0.8-0.1 1.2 0 2.1 1.2 3.3 3 3.3 0.4 0 0.8-0.1 1.4-0.2l0.3-1.8c-0.5 0.3-1 0.4-1.4 0.4-1 0-1.5-0.7-1.5-1.9 0-1.6 0.8-2.8 2.1-2.8z"/>
	<path fill="#06326E" d="m49.3 22.1l-0.3 2.2c-0.4-0.6-0.9-0.9-1.5-0.9-0.9 0-1.7 0.5-2.2 1.4l-1-0.6 0.1-0.7h-1.8l-1 6.3h1.7l0.5-3.4s0.4-0.5 0.5-0.6c0.2-0.3 0.5-0.4 0.7-0.4-0.2 0.5-0.3 1.2-0.3 1.9 0 1.6 0.8 2.6 2 2.6 0.6 0 1.1-0.2 1.5-0.7l-0.1 0.6h1.6l1.3-7.7h-1.7zm-2 6.2c-0.6 0-0.8-0.4-0.8-1.2 0-1.2 0.5-2.1 1.3-2.1 0.6 0 0.9 0.4 0.9 1.3-0.1 1.2-0.6 2-1.4 2z"/>
	<path fill="#06326E" d="m39.7 27h-0.3c-0.9 0-1.4 0.4-1.4 1 0 0.4 0.2 0.7 0.6 0.7 0.8-0.1 1.1-0.8 1.1-1.7zm1.3 2.8h-1.4v-0.7c-0.4 0.5-0.8 0.8-1.7 0.8-0.8 0-1.5-0.7-1.5-1.7 0-1.5 1.1-2.4 2.9-2.4h0.7c0.1-0.2 0.1-0.3 0.1-0.4 0-0.4-0.3-0.5-1.1-0.5-0.5 0-1 0.1-1.4 0.2l-0.2 0.1h-0.1l0.2-1.4c0.8-0.2 1.3-0.3 1.9-0.3 1.4 0 2.2 0.6 2.2 1.9 0 0.3 0 0.5-0.1 1.2l-0.3 2.2-0.1 0.4-0.1 0.2v0.2 0.2z"/>
	<path fill="#06326E" d="m18.4 24.9c0.3 0 0.8 0 1.3 0.1l0.2-1.5c-0.5-0.1-1.1-0.1-1.5-0.1-1.8 0-2.4 1-2.4 2.1 0 0.7 0.4 1.3 1.2 1.7 0.7 0.3 0.8 0.4 0.8 0.7 0 0.4-0.4 0.6-1 0.6-0.5 0-0.9-0.1-1.5-0.2l-0.2 1.4 0.3 0.1c0.1 0 0.2 0.1 0.4 0.1 0.4 0.1 0.7 0.1 1 0.1 1.8 0 2.6-0.7 2.6-2.1 0-0.9-0.4-1.4-1.3-1.7-0.7-0.3-0.8-0.4-0.8-0.7 0.1-0.4 0.4-0.6 0.9-0.6z"/>
	<path fill="#fff" d="m37.6 21.9l-0.3 1.7c-0.6-0.3-1-0.4-1.5-0.4-1.3 0-2.1 1.2-2.1 2.9 0 1.2 0.6 1.9 1.6 1.9 0.4 0 0.9-0.1 1.4-0.4l-0.3 1.8c-0.6 0.1-1 0.2-1.5 0.2-1.8 0-2.9-1.3-2.9-3.3 0-2.8 1.5-4.7 3.7-4.7 0.3 0 0.5 0 0.7 0.1l0.7 0.2c0.3-0.1 0.3-0.1 0.5 0z"/>
	<path fill="#fff" d="m32.3 23h-0.2c-0.5 0-0.8 0.3-1.3 1l0.1-1h-1.5l-1 6.3h1.6c0.6-3.8 0.7-4.5 1.6-4.5h0.1c0.2-0.7 0.3-1.3 0.6-1.8z"/>
	<path fill="#fff" d="m22.8 29.3c-0.4 0.1-0.8 0.2-1.2 0.2-0.8 0-1.3-0.5-1.3-1.4 0-0.2 0-0.4 0.1-0.6l0.1-0.6 0.1-0.5 0.7-4.3h1.6l-0.2 0.9h0.8l-0.2 1.6h-0.8l-0.5 2.6v0.3c0 0.3 0.2 0.5 0.6 0.5 0.2 0 0.3 0 0.4-0.1l-0.2 1.4z"/>
	<path fill="#fff" d="m16.4 25.1c0 0.8 0.4 1.3 1.3 1.7 0.7 0.3 0.8 0.4 0.8 0.7 0 0.4-0.3 0.6-1 0.6-0.5 0-0.9-0.1-1.5-0.3l-0.2 1.5h0.1l0.3 0.1c0.1 0 0.2 0.1 0.4 0.1 0.4 0 0.7 0.1 0.9 0.1 1.7 0 2.5-0.7 2.5-2.1 0-0.9-0.3-1.4-1.2-1.8-0.7-0.3-0.8-0.4-0.8-0.7 0-0.4 0.3-0.5 0.8-0.5 0.3 0 0.8 0.1 1.2 0.1l0.2-1.5c-0.4-0.1-1.1-0.1-1.5-0.1-1.7-0.1-2.3 0.9-2.3 2.1z"/>
	<path fill="#fff" d="m50.2 29.4h-1.6l0.1-0.6c-0.4 0.5-0.9 0.7-1.5 0.7-1.2 0-2-1-2-2.6 0-2.1 1.2-3.8 2.7-3.8 0.7 0 1.1 0.3 1.6 0.9l0.4-2.2h1.6l-1.3 7.6zm-2.5-1.5c0.8 0 1.3-0.9 1.3-2.1 0-0.8-0.3-1.2-0.9-1.2-0.7 0-1.3 0.9-1.3 2.1 0.1 0.7 0.4 1.2 0.9 1.2z"/>
	<path fill="#fff" d="m27.8 29.2c-0.6 0.2-1.1 0.3-1.7 0.3-1.8 0-2.8-1-2.8-2.8 0-2.2 1.2-3.8 2.9-3.8 1.3 0 2.2 0.9 2.2 2.3 0 0.4-0.1 0.9-0.2 1.6h-3.3v0.2c0 0.7 0.5 1.1 1.5 1.1 0.6 0 1.1-0.1 1.7-0.4l-0.3 1.5zm-0.9-3.7v-0.3c0-0.5-0.3-0.8-0.8-0.8s-0.9 0.4-1 1.1h1.8z"/>
	<polygon points="10.1 29.4 8.5 29.4 9.4 23.4 7.3 29.4 6.2 29.4 6.1 23.4 5.1 29.4 3.5 29.4 4.8 21.6 7.2 21.6 7.3 26.4 8.9 21.6 11.4 21.6" fill="#fff"/>
	<path fill="#fff" d="m14.2 26.5h-0.4c-0.9 0-1.4 0.3-1.4 1 0 0.4 0.2 0.7 0.6 0.7 0.7-0.1 1.2-0.7 1.2-1.7zm1.2 2.9h-1.4v-0.7c-0.4 0.5-1 0.7-1.7 0.7-0.9 0-1.5-0.7-1.5-1.7 0-1.5 1-2.4 2.9-2.4h0.7c0.1-0.2 0.1-0.3 0.1-0.4 0-0.4-0.3-0.6-1-0.6-0.5 0-1 0.1-1.4 0.2l-0.2 0.1h-0.1l0.2-1.4c0.8-0.2 1.4-0.3 2-0.3 1.4 0 2.2 0.6 2.2 1.8 0 0.3 0 0.6-0.1 1.3l-0.3 2.2-0.1 0.4v0.3 0.2l-0.3 0.3z"/>
	<path fill="#fff" d="m40.2 26.5h-0.4c-0.9 0-1.4 0.3-1.4 1 0 0.4 0.2 0.7 0.6 0.7 0.7-0.1 1.2-0.7 1.2-1.7zm1.2 2.9h-1.4v-0.7c-0.4 0.5-1 0.7-1.7 0.7-0.9 0-1.5-0.7-1.5-1.7 0-1.5 1.1-2.4 2.9-2.4h0.7c0.1-0.2 0.1-0.3 0.1-0.4 0-0.4-0.3-0.6-1-0.6-0.5 0-1 0.1-1.4 0.2l-0.2 0.1h-0.1l0.2-1.4c0.8-0.2 1.4-0.3 2-0.3 1.4 0 2.2 0.6 2.2 1.8 0 0.3 0 0.6-0.1 1.3l-0.3 2.2-0.1 0.4-0.2 0.4v0.2 0.2h-0.1z"/>
	<path fill="#fff" d="m45.9 23h-0.1c-0.5 0-0.9 0.3-1.4 1l0.1-1h-1.5l-1 6.3h1.7c0.6-3.8 0.7-4.5 1.5-4.5h0.1c0.1-0.7 0.3-1.3 0.6-1.8z"/>
</g>
</svg>
