<?xml version="1.0" encoding="UTF-8" standalone="no"?>
<!-- Created with Inkscape (http://www.inkscape.org/) -->
<svg id="svg2" xmlns:rdf="http://www.w3.org/1999/02/22-rdf-syntax-ns#" xmlns="http://www.w3.org/2000/svg" height="77.182" width="200" version="1.1" xmlns:cc="http://creativecommons.org/ns#" xmlns:dc="http://purl.org/dc/elements/1.1/">
 <metadata id="metadata7">
  <rdf:RDF>
   <cc:Work rdf:about="">
    <dc:format>image/svg+xml</dc:format>
    <dc:type rdf:resource="http://purl.org/dc/dcmitype/StillImage"/>
    <dc:title/>
   </cc:Work>
  </rdf:RDF>
 </metadata>
 <g id="layer1" transform="translate(0 -952.36)">
  <path id="path3777" d="m33.469 10.25c-18.48 0-33.469 14.989-33.469 33.469s14.989 33.469 33.469 33.469 33.469-14.989 33.469-33.469-14.989-33.469-33.469-33.469zm-0.125 10.5c12.692 0 22.968 10.277 22.968 22.969s-10.276 22.969-22.968 22.969-23-10.277-23-22.969 10.308-22.969 23-22.969z" transform="translate(0 952.36)" fill="#feb511"/>
  <path id="rect3787" d="m76.875 17.469v29.156h5.8125v-20.219l10.312 20.219h6.2812v-29.156h-5.8125v18.188l-9.5312-18.188h-1.25-4.5625z" transform="translate(0 952.36)"/>
  <path id="path3796" d="m112.56 24.688c-6.15 0-11.12 4.969-11.12 11.124 0 6.156 4.97 11.157 11.12 11.157 6.16 0 11.16-5.001 11.16-11.157 0-6.155-5-11.124-11.16-11.124zm0.03 5.406c3.15 0 5.69 2.57 5.69 5.718 0 3.149-2.54 5.688-5.69 5.688-3.14 0-5.71-2.539-5.71-5.688 0-3.148 2.57-5.718 5.71-5.718z" transform="translate(0 952.36)"/>
  <path id="path3805" d="m125.23 25.159v21.466h6.3134v-8.7126c0-3.0889 0.67457-4.9158 1.7956-6.2401 1.1626-1.3734 2.1848-2.1789 5.307-2.2199l2.3675 0.03156 0.0316 9.8174c0.005 1.5019 0.0806 2.7683 0.41784 3.8479 0.77468 2.4799 2.6591 3.8388 6.306 3.8387 1.666-0.000046 3.2899-0.22281 4.8298-0.78918l-0.75762-4.3563c-0.72235 0.27626-1.5848 0.4518-2.2413 0.45772-1.8524 0.01671-2.2789-0.7935-2.2728-2.7306v-10.086l4.5457-0.000002 0.0158-4.3247h-4.5615l-0.0157-6.0767-5.0981-0.01579-1.0891 6.0925h-2.9673c-0.94834 0-1.677 0.0084-2.395 0.1894-3.0399 0.76652-4.2878 3.0023-5.0549 4.4036l-1.7836-4.593z" transform="translate(0 952.36)"/>
  <path id="path3807" d="m163.73 977.05c-6.1554 0-11.125 4.9696-11.125 11.125 0 6.1555 4.9696 11.156 11.125 11.156s11.156-5.0008 11.156-11.156c0-6.1554-5.0008-11.125-11.156-11.125zm0.0312 5.4062c3.1487 0 5.6875 2.57 5.6875 5.7188s-2.5388 5.6875-5.6875 5.6875-5.7188-2.5388-5.7188-5.6875 2.57-5.7188 5.7188-5.7188z"/>
  <path id="rect3809" d="m188.75 24.688c-2.89 0.015-5.26 1.405-7.47 3.781l-1.22-3.313h-3.68v21.469h6.15v-14.75c0.63-0.713 2.05-2.033 3.88-2.031 2.31 0.002 3.15 1.49 3.15 3.156l0.03 13.625h6.29v-13.813c0-5.372-3.12-8.147-7.13-8.124z" transform="translate(0 952.36)"/>
  <g id="flowRoot3818" transform="matrix(.38916 0 0 .43262 128.44 970.99)">
   <path id="path3827" d="m174.75 20.841v-4.7412h-1.5426v-0.98536h4.3096v0.98536h-1.5791v4.7412z"/>
   <path id="path3829" d="m178.34 20.841v-5.7266h1.7142l1.1414 3.793 1.0735-3.793h1.6218v5.7266h-0.90254v-4.4576l-1.406 4.4576h-0.85568l-1.2834-4.5396v4.5396z"/>
  </g>
  <g id="g3882">
   <path id="path3831" d="m67.25 2.625v2.5625h2.562v-2.5625h-2.562zm0 2.5625h-4.75v2.5625h4.75v-2.5625zm-4.75 2.5625h-2.375v5h2.375v-5zm0 5v2.438h2.438v-2.438h-2.438zm2.438 0h2.687v-2.406h-2.687v2.406zm-2.438 2.438h-2.375v2.5h-2.469v-2.5h-4.031v1.781h-2.187v2.187h2.406v2.438h-2.438l0.032-2.438h-2.626v3.844h-2.437v2.406h-1.656v2.438h-1.75c-3.764 6.172-6.784 11.874-8.531 16.094-4.798-6.388-7.049-8.689-11.094-10.938-1.446-0.804-2.734-1.178-3.656-0.656-0.96 0.542-1.242 2.254-0.032 3.594 7.511 8.317 8.862 12.755 11.594 19.093 0.814 1.889 2.349 2.701 4.094 2.75 0.932 0.026 2.076-0.256 2.844-1.156 0.355-0.417 0.459-0.988 0.75-1.687 2.282-5.505 4.815-11.024 8.468-16.282l0.032-2.75h1.937l-0.031-2.437h2.094l-0.032-2.907h2.438v-2.656h-2.469l0.031-2.5h2.438v2.5h2.437v-2.531h1.907v-2.969h2.218v-2.031h2.094v-5.187zm-4.844 0h2.469v-2.438h-2.469v2.438zm0-2.438v-2.344h-2.468v2.344h2.468z" transform="translate(0 952.36)"/>
   <path id="path3858" fill="#feb511" d="m62.5 960.12h2.433v2.567h-2.433z"/>
   <path id="path3864" d="m69.799 957.56h2.6339v2.567h-2.6339z" fill="#feb511"/>
   <path id="path3866" fill="#feb511" d="m69.799 952.36h2.6339v2.6283h-2.6339z"/>
  </g>
  <g id="flowRoot3888" fill="#999" transform="matrix(.99094 0 0 .99094 -.0092467 951.79)">
   <path id="path3897" d="m78.983 70.925h-1.1718v-16.144h1.9731v5.9681c0.77929-0.97753 1.8723-1.6501 3.0817-1.6131 3.2769 0.10025 4.4876 3.021 4.5242 5.8422 0.04381 3.3833-1.8154 6.1391-4.8192 6.1703-1.2851 0.01335-2.4061-0.55915-3.1375-1.6324zm0.81294-2.5535c0.80552 0.74196 0.96051 1.144 2.5199 1.1581 2.343 0.02119 2.9446-2.5801 2.9398-4.3863-0.006-2.2776-0.63272-4.2281-2.6663-4.287-1.2802-0.03706-2.155 0.59559-2.7678 1.2878z"/>
   <path id="path3899" d="m89.095 74.955 0.25683-1.488c1.6552 0.329 2.8503-0.02831 3.501-1.8527l-4.1005-12.245h2.053l2.8964 9.7597 2.736-9.7597h2.005l-3.9833 12.685c-0.91942 2.928-3.0689 3.4452-5.3644 2.9004z"/>
   <path id="path3901" d="m104.48 69.224 1.0036-1.3855c1.5276 1.0935 2.6784 1.538 4.557 1.5462 2.0324 0.0089 3.3304-1.0482 3.3191-2.6833-0.0318-4.5955-7.9137-2.0186-8.049-8.143-0.0593-2.6852 2.3314-4.0066 4.6375-4.0185 1.7402-0.0089 3.3735 0.25375 4.4843 1.0383l-0.8678 1.5614c-0.52205-0.51764-2.4001-0.86438-3.42-0.87205-1.777-0.01336-2.8989 0.68984-2.9497 2.1823-0.14943 4.3917 8.1578 1.9748 8.1442 8.2038-0.006 2.9051-2.1746 4.4152-5.3048 4.4427-2.891 0.02538-5.0416-1.2808-5.5545-1.8725z"/>
   <path id="path3905" d="m128.4 70.91v-11.522h1.2156l0.47304 1.8782c0.95693-1.2728 2.614-2.1231 4.0081-2.1186 1.6481 0.0053 2.3488 1.1663 2.561 2.0185 1.0387-1.2105 2.4333-2.0183 3.8458-2.0297 2.4321-0.01966 2.9898 1.7536 2.9898 3.7445v8.0292l-1.973 0.0074v-7.3999c0-1.6215-0.19484-2.6731-1.5827-2.6436-1.5397 0.03273-2.3591 1.0446-2.9197 1.5455v8.4979h-2.0472v-7.6201c0-1.5453-0.25144-2.4399-1.5637-2.412-1.3226 0.02808-1.7092 0.56003-2.9915 1.5764v8.4558z"/>
   <path id="path3907" d="m153.28 69.537c-1.0208 1.0681-2.3326 1.5814-3.5615 1.5695-1.9592-0.0189-3.5462-1.2101-3.5386-3.1475 0.009-2.3652 1.6394-3.0205 3.0366-3.4846 1.379-0.45805 2.4786-0.61682 3.729-0.83426 0.0541-2.0557-0.38131-2.8153-2.0628-2.827-1.5148-0.01056-2.8155 0.67994-3.3753 0.96993l-0.71472-1.3185c0.55324-0.43149 1.9455-1.3055 4.2234-1.3249 2.4993-0.02128 3.9883 1.382 3.9894 4.0053l0.003 7.7724h-1.2153l-0.51297-1.3803zm-0.32-4.555c-1.2401 0.24117-1.9223 0.44658-2.8965 0.75634-1.2493 0.39722-1.8536 1.0275-1.8393 2.1754 0.015 1.2025 0.80827 1.666 1.7946 1.6428 1.1808-0.0278 1.9414-0.41324 2.9337-1.1621z"/>
   <path id="path3911" d="m175.86 69.356 0.30144 1.3699c-0.6926 0.38137-1.7281 0.35578-2.1428 0.35703-2.4337 0.0073-2.7992-1.5707-2.7992-3.3698v-6.9086h-1.7191v-1.4357h1.7191l0.58933-3.2844 1.41-0.0048v3.2893h2.5935v1.4357h-2.5935v7.0123c0 1.7125 0.71335 1.719 1.3841 1.7472 0.64622 0.02717 1.2571-0.20801 1.2571-0.20801z"/>
   <path id="path3913" d="m185.88 68.386 0.83736 1.1959c-0.87603 0.68756-1.8606 1.5285-3.9761 1.535-3.5231 0.01088-5.0962-2.6857-5.0814-5.8918 0.0147-3.195 1.4901-6.0683 4.7389-6.086 4.0387-0.02208 4.6075 3.878 4.6057 6.5968h-7.2086c0.003 2.1833 0.89157 3.7671 2.7086 3.784 1.8777 0.0174 3.3755-1.1339 3.3755-1.1339zm-6.0846-4.0321h5.1242c-0.10056-1.8092-0.56756-3.7126-2.5016-3.6894-2.0745 0.0249-2.4834 1.9372-2.6226 3.6894z"/>
   <path id="path3915" d="m197.5 69.581c-0.82426 0.79855-2.1348 1.4921-3.828 1.5044-3.2415 0.02371-4.838-2.4768-4.8389-5.9317-0.00092-3.4417 1.7333-6.012 5.1043-6.0178 1.4951-0.0026 2.5696 0.59364 3.343 1.2216l-0.87324 1.3247c-0.48628-0.38754-1.5563-0.92628-2.4915-0.91318-2.2951 0.03216-3.0096 1.7229-3.0041 4.3309 0.005 2.1731 0.486 4.3685 2.9942 4.3922 0.74522 0.0071 1.6462-0.25714 2.6153-1.0979z"/>
   <path id="path3928" d="m116.87 74.955 0.25684-1.488c1.6552 0.329 2.8503-0.02831 3.501-1.8527l-4.1005-12.245h2.053l2.8964 9.7597 2.736-9.7597h2.005l-3.9833 12.685c-0.91943 2.928-3.069 3.4452-5.3644 2.9004z"/>
   <path id="path3932" d="m158.36 70.91v-11.522h1.2156l0.47304 1.8782c0.95693-1.2728 2.7492-2.1318 4.3685-2.1187 2.099 0.01707 2.9211 1.8663 2.9211 3.8125v7.9573h-2.0472v-7.6201c0-1.5453-0.25144-2.4399-1.5637-2.412-1.3226 0.02808-2.0696 0.56005-3.3519 1.5764v8.4558z"/>
  </g>
 </g>
</svg>
