<?xml version="1.0" encoding="utf-8"?>
<!-- Generator: Adobe Illustrator 18.1.0, SVG Export Plug-In . SVG Version: 6.00 Build 0)  -->
<svg version="1.1" id="Layer_1" xmlns="http://www.w3.org/2000/svg" xmlns:xlink="http://www.w3.org/1999/xlink" x="0px" y="0px"
	 viewBox="0 75 300 75" enable-background="new 0 75 300 75" xml:space="preserve">
<g id="Layer_1_2_" display="none">
	<g id="Layer_1_1_" display="inline">
		<path fill="#010101" d="M1453.1,2214.4c-9.4,13.1-20.6,25.3-34.7,36.6v7.5c0,23.4-4.7,45.9-13.1,69.4c-9.4,23.4-21.6,45-38.4,63.8
			s-37.5,34.7-62.8,45.9c-25.3,12.2-53.4,17.8-86.2,17.8c-19.7,0-39.4-2.8-57.2-8.4s-34.7-13.1-50.6-23.4c2.8,0.9,5.6,0.9,8.4,0.9
			h9.4c33.8,0,62.8-9.4,87.2-29.1c-15.9-0.9-29.1-4.7-41.3-14.1s-19.7-20.6-24.4-34.7c4.7,0.9,9.4,1.9,13.1,1.9c3.8,0,6.6,0,9.4-0.9
			s6.6-0.9,9.4-1.9c-15.9-3.8-30-11.3-40.3-23.4c-10.3-12.2-15.9-27.2-15.9-44.1v-0.9c4.7,1.9,9.4,3.8,15,5.6
			c4.7,1.9,11.3,1.9,17.8,1.9c-10.3-6.6-17.8-14.1-23.4-24.4s-8.4-20.6-8.4-33.8c0-13.1,2.8-23.4,9.4-34.7
			c17.8,21.6,39.4,38.4,63.8,51.6c25.3,13.1,51.6,19.7,81.6,20.6c-0.9-4.7-1.9-9.4-1.9-15c0-9.4,1.9-18.8,5.6-27.2
			c3.8-8.4,8.4-15.9,15-22.5s13.1-11.3,22.5-15c8.4-3.8,17.8-5.6,27.2-5.6c10.3,0,20.6,1.9,29.1,6.6c8.4,3.8,15.9,9.4,22.5,15.9
			c7.5-0.9,15.9-3.8,23.4-6.6s15-6.6,21.6-9.4c-6.6,15.9-15.9,29.1-30.9,37.5c7.5-0.9,15-1.9,20.6-3.7
			C1440,2220,1447.5,2217.2,1453.1,2214.4L1453.1,2214.4z"/>
	</g>
	<g id="Layer_2" display="inline">
		<path fill="#010101" d="M1241.3,2319.4l-90.9,86.3c-6.6,5.6-9.4,13.1-9.4,21.6c0,7.5,3.8,15.9,9.4,21.6
			c12.2,11.3,33.8,11.3,45.9,0l86.3-81.6l86.3,80.6c6.6,5.6,14.1,9.4,22.5,9.4s15.9-3.8,22.5-9.4s9.4-13.1,9.4-21.6
			c0-8.4-3.7-15.9-9.4-21.6l-90.9-86.2l90.9-86.3c6.6-5.6,9.4-13.1,9.4-21.6c0-8.4-3.7-15.9-9.4-21.6c-12.2-11.2-33.8-11.2-45.9,0
			l-86.3,81.6l-86.3-80.6c-6.6-5.6-14.1-9.4-22.5-9.4s-15.9,2.8-22.5,9.4c-6.6,5.6-9.4,13.1-9.4,21.6c0,8.4,3.8,15.9,9.4,21.6
			L1241.3,2319.4z"/>
	</g>
	<g id="Layer_3" display="inline">
		<path fill="#010101" d="M1303.1,2340.9c7.5-6.6,14.1-13.1,20.6-20.6c6.6-6.6,12.2-13.1,15.9-20.6s7.5-12.2,8.4-17.8
			c0.9-4.7,0.9-9.4-2.8-12.2c-4.7-4.7-9.4-8.4-12.2-12.2c-3.8-3.8-6.6-8.4-7.5-13.1s-0.9-10.3,1.9-17.8c2.8-6.6,7.5-15,15.9-25.3
			c8.4-9.4,15.9-15.9,23.4-17.8s13.1-1.9,19.7,0.9s11.3,6.6,15.9,11.3s10.3,10.3,15,14.1c4.7,4.7,7.5,13.1,7.5,24.4
			s-2.8,24.4-9.4,39.4s-15,31.9-28.1,49.7c-12.2,17.8-28.1,36.6-46.9,54.4c-18.8,18.8-38.4,33.8-57.2,45
			c-18.8,11.3-35.6,20.6-51.6,26.3c-15.9,5.6-29.1,9.4-41.3,9.4s-20.6-2.8-25.3-7.5s-9.4-9.4-15-13.1c-5.6-3.8-9.4-9.4-11.3-15.9
			c-2.8-5.6-2.8-12.2-0.9-18.8s8.4-13.1,18.8-21.6c10.3-8.4,18.8-13.1,26.3-15s13.1-2.8,18.8-1.9c4.7,0.9,9.4,3.7,13.1,7.5
			c3.8,3.8,8.4,7.5,13.1,12.2c2.8,2.8,7.5,3.8,13.1,2.8s12.2-3.8,17.8-7.5c6.6-3.8,13.1-9.4,20.6-15.9
			C1289.1,2353.1,1295.6,2347.5,1303.1,2340.9L1303.1,2340.9z"/>
	</g>
	<g id="Layer_4" display="inline">
		<path fill="#010101" d="M1469.1,2223.7c-3.8,4.7-7.5,7.5-12.2,9.4c-1.9,1.9-7.5,3.8-14.1,7.5c-7.5,3.8-17.8,9.4-28.1,15
			c-11.3,6.6-22.5,12.2-34.7,18.8s-23.4,12.2-33.8,17.8c-10.3,6.6-19.7,10.3-27.2,15l-6.6,3.8c-3.8,1.9-4.7,2.8-5.6,2.8
			c-7.5,3.8-15.9,5.6-25.3,5.6c-8.4,0-16.9-1.9-25.3-5.6l-2.8-1.9c-1.9-0.9-4.7-2.8-9.4-4.7c-7.5-3.8-16.9-8.4-28.1-15
			c-10.3-5.6-21.6-12.2-33.8-17.8l-4.7-2.8c-10.3-5.6-20.6-10.3-30-15.9l-28.1-15c-7.5-3.8-12.2-6.6-15-8.4
			c-3.8-1.9-7.5-4.7-10.3-8.4c-3.8-4.7-6.6-9.4-7.5-14.1c-0.9-6.6,0-13.1,3.8-18.8c2.8-3.7,9.4-9.4,21.6-9.4h337.5
			c12.2,0,17.8,4.7,21.6,9.4c3.7,5.6,4.7,12.2,3.7,18.8C1474.7,2215.3,1472.8,2220,1469.1,2223.7L1469.1,2223.7z M1087.5,2285.6
			c3.8-10.3,15-15,29.1-8.4c1.9,0.9,7.5,3.8,15.9,8.4c7.5,3.8,16.9,9.4,28.1,15c10.3,5.6,22.5,12.2,34.7,17.8
			c12.2,6.6,24.4,12.2,34.7,17.8s19.7,10.3,28.1,15c7.5,3.8,11.3,5.6,12.2,6.6c6.6,3.8,15.9,2.8,22.5,0c0.9-0.9,5.6-2.8,12.2-6.6
			c7.5-3.8,16.9-8.4,28.1-15c10.3-5.6,22.5-12.2,34.7-17.8c12.2-6.6,24.4-12.2,34.7-17.8c11.3-6.6,20.6-11.3,29.1-15
			c7.5-3.8,12.2-6.6,13.1-7.5l1.9-0.9c4.7-1.9,8.4-3.8,12.2-3.8c8.4,0,15,5.6,16.9,14.1c0.9,1.9,0.9,4.7,0.9,8.4v125.6
			c0,8.4-3.8,16.9-10.3,24.4c-7.5,7.5-15,11.3-23.4,11.3h-320.6c-8.4,0-15.9-3.8-24.4-10.3c-7.5-7.5-12.2-15.9-12.2-24.4v-125.6
			C1085.6,2292.2,1085.6,2288.4,1087.5,2285.6L1087.5,2285.6z"/>
	</g>
	<g id="Layer_5" display="inline">
		<path fill="#010101" d="M1288.1,2181.6c-75,0-113.4,54.4-113.4,99.4c0,27.2,10.3,51.6,32.8,60c3.8,0.9,6.6,0,7.5-3.8
			c0.9-2.8,1.9-9.4,3.8-12.2c0.9-3.8,0.9-5.6-1.9-9.4c-6.6-7.5-10.3-17.8-10.3-30.9c0-40.3,30-75.9,77.8-75.9
			c42.2,0,66.6,26.3,66.6,60.9c0,45.9-20.6,84.4-50.6,84.4c-15.9,0-29.1-13.1-25.3-30.9c4.7-19.7,14.1-42.2,14.1-56.3
			c0-13.1-6.6-23.4-21.6-23.4c-16.9,0-30.9,17.8-30.9,41.3c0,15,4.7,25.3,4.7,25.3s-16.9,73.1-20.6,86.3c-6.6,25.3-0.9,57.2-0.9,60
			c0,1.9,2.8,1.9,3.8,0.9c1.9-1.9,21.6-27.2,29.1-51.6c1.9-6.6,11.3-43.1,11.3-43.1c5.6,10.3,21.6,19.7,39.4,19.7
			c50.6,0,85.3-45.9,85.3-108.8C1388.4,2225.6,1348.1,2181.6,1288.1,2181.6L1288.1,2181.6z"/>
	</g>
	<g id="Layer_6" display="inline">
		<path fill="#010101" d="M1388.4,2236.9v-54.4h-13.1v54.4h-54.4v13.1h54.4v54.4h13.1V2250h54.4v-13.1H1388.4z M1296.6,2182.5h-84.4
			c-37.5,0-74.1,29.1-74.1,61.9c0,33.8,26.3,61.9,64.7,61.9h7.5c-2.8,4.7-4.7,10.3-4.7,15.9c0,9.4,4.7,16.9,12.2,23.4h-15
			c-46.9,0-83.4,30-83.4,60.9s39.4,49.7,87.2,49.7c53.4,0,83.4-30.9,83.4-60.9c0-24.4-7.5-39.4-30-54.4
			c-7.5-5.6-22.5-18.8-22.5-26.3c0-9.4,2.8-13.1,15.9-24.4c14.1-10.3,23.4-26.3,23.4-44.1c0-21.6-9.4-42.2-27.2-48.8h27.2
			L1296.6,2182.5L1296.6,2182.5z M1266.6,2389.7c0.9,2.8,0.9,5.6,0.9,8.4c0,25.3-15.9,44.1-61.9,44.1c-32.8,0-56.3-20.6-56.3-45
			s29.1-45,61.9-44.1c7.5,0,15,0.9,20.6,3.8C1250.6,2369.1,1262.8,2375.6,1266.6,2389.7z M1214.1,2297.8
			c-22.5-0.9-42.2-24.4-45.9-53.4c-3.8-29.1,10.3-50.6,32.8-49.7s42.2,23.4,45.9,52.5C1250.6,2275.3,1236.6,2297.8,1214.1,2297.8
			L1214.1,2297.8z"/>
	</g>
	<g id="Layer_7_copy" display="inline">
		<path fill="#010101" d="M1350,2181.6h-136.9c-37.5,0-68.4,30.9-68.4,68.4v137.8c0,37.5,30.9,68.4,68.4,68.4H1350
			c37.5,0,68.4-30.9,68.4-68.4V2250C1418.4,2212.5,1387.5,2181.6,1350,2181.6z M1212.2,2206.9h136.9c23.4,0,43.1,18.8,43.1,43.1
			v23.4H1320c-10.3-7.5-23.4-12.2-37.5-12.2s-27.2,4.7-37.5,12.2h-75V2250C1170,2226.6,1188.8,2206.9,1212.2,2206.9z M1309.7,2326.9
			c0,15-12.2,27.2-27.2,27.2s-27.2-12.2-27.2-27.2s12.2-27.2,27.2-27.2S1309.7,2311.9,1309.7,2326.9z M1350,2431.9h-136.9
			c-23.4,0-43.1-18.8-43.1-43.1v-89.1h54.4c-3.7,8.4-6.6,17.8-6.6,28.1c0,35.6,29.1,64.7,64.7,64.7s64.7-29.1,64.7-64.7
			c0-9.4-1.9-18.8-6.6-28.1h51.6v89.1C1393.1,2412.2,1373.4,2431.9,1350,2431.9z M1373.4,2253.7c0,3.7-3.8,7.5-7.5,7.5h-23.4
			c-3.8,0-7.5-3.8-7.5-7.5v-23.4c0-3.8,3.7-7.5,7.5-7.5h23.4c3.7,0,7.5,3.7,7.5,7.5V2253.7z"/>
	</g>
	<g id="Layer_8" display="inline">
		<path fill="#010101" d="M1245,2235.9v37.5h-28.1v45.9h28.1v136.9h57.2v-136.9h37.5c0,0,3.7-22.5,4.7-45.9h-43.1v-31.9
			c0-4.7,6.6-11.3,12.2-11.3h30.9v-47.8h-41.3C1244.1,2181.6,1245,2228.4,1245,2235.9L1245,2235.9z"/>
	</g>
	<g id="Layer_9" display="inline">
		<path fill="#010101" d="M1393.1,2181.6H1170c-28.1,0-50.6,22.5-50.6,50.6v119.1c0,28.1,22.5,50.6,50.6,50.6h70.3l71.3,53.4
			c1.9,1.9,4.7,2.8,7.5,2.8c1.9,0,3.7-0.9,5.6-0.9c4.7-1.9,7.5-6.6,7.5-12.2v-43.1h61.9c28.1,0,50.6-22.5,50.6-50.6v-119.1
			C1442.8,2204.1,1420.3,2181.6,1393.1,2181.6L1393.1,2181.6z"/>
	</g>
	<g id="Layer_10" display="inline">
		<path fill="#010101" d="M1224.4,2453.4c-1.9,1.9-5.6,3.8-8.4,3.8s-6.6-0.9-8.4-3.8c-4.7-4.7-4.7-12.2,0-16.9l116.3-116.3
			L1207.6,2203c-4.7-4.7-4.7-12.2,0-16.9s12.2-4.7,16.9,0l134.1,134.1L1224.4,2453.4L1224.4,2453.4z"/>
	</g>
	<g id="Layer_11" display="inline">
		<path fill="#010101" d="M1411.9,2415.9l-62.8-62.8c-0.9-0.9-1.9-0.9-2.8-1.9c11.3-17.8,17.8-37.5,17.8-60
			c0-60-48.8-109.7-109.7-109.7s-109.7,48.8-109.7,109.7c0,60,48.8,109.7,109.7,109.7c22.5,0,42.2-6.6,60-17.8
			c0.9,0.9,0.9,1.9,1.9,2.8l62.8,62.8c4.7,4.7,10.3,6.6,15.9,6.6c6.6,0,12.2-1.9,15.9-6.6
			C1421.2,2440.3,1421.2,2425.3,1411.9,2415.9L1411.9,2415.9z M1175.6,2292.2c0-43.1,34.7-78.8,78.7-78.8s78.8,34.7,78.8,78.8
			s-34.7,78.8-78.8,78.8S1175.6,2335.3,1175.6,2292.2z"/>
	</g>
	<g id="Layer_12" display="inline">
		<path d="M1386.6,2286.6c-0.9-4.7-4.7-9.4-9.4-9.4h-22.5v-22.5c0-40.3-32.8-73.1-73.1-73.1s-73.1,32.8-73.1,73.1v22.5H1186
			c-4.7,0-9.4,3.8-9.4,9.4l-15.9,159.4c-0.9,2.8,0.9,5.6,2.8,7.5s4.7,3.8,7.5,3.8h222.2c2.8,0,5.6-0.9,7.5-3.8
			c1.9-1.9,2.8-4.7,2.8-7.5L1386.6,2286.6z M1280.6,2217.2c20.6,0,37.5,16.9,37.5,37.5v22.5h-75.9v-22.5
			C1243.1,2235,1260,2217.2,1280.6,2217.2z"/>
	</g>
	<g id="Layer_13" display="inline">
		<path fill="#010101" d="M1424.1,2286.6c-0.9-3.8-4.7-6.6-8.4-6.6H1320l-30-91.9c-0.9-3.8-4.7-6.6-8.4-6.6c-3.8,0-7.5,2.8-8.4,6.6
			l-30,91.9h-95.6c-3.8,0-7.5,2.8-8.4,6.6s0,7.5,3.8,10.3l77.8,56.3l-30,91.9c-0.9,3.7,0,7.5,3.8,10.3c1.9,0.9,3.8,1.9,5.6,1.9
			c1.9,0,3.8-0.9,5.6-1.9l77.8-56.3l77.8,56.3c3.8,1.9,7.5,1.9,10.3,0c3.7-1.9,4.7-6.6,3.7-10.3l-30-91.9l77.8-56.3
			C1424.1,2294.1,1425.9,2289.4,1424.1,2286.6L1424.1,2286.6z"/>
	</g>
	<g id="Layer_14" display="inline">
		<path d="M1408.1,2420.6H1154c-9.4,0-17.8,7.5-17.8,17.8s7.5,17.8,17.8,17.8h254.1c9.4,0,17.8-7.5,17.8-17.8
			S1418.4,2420.6,1408.1,2420.6z"/>
		<path d="M1408.1,2301.6H1154c-9.4,0-17.8,7.5-17.8,17.8s7.5,17.8,17.8,17.8h254.1c9.4,0,17.8-7.5,17.8-17.8
			S1418.4,2301.6,1408.1,2301.6z"/>
		<path d="M1154.1,2218.1h254.1c9.4,0,17.8-7.5,17.8-17.8c0-9.4-7.5-17.8-17.8-17.8h-254.1c-9.4,0-17.8,7.5-17.8,17.8
			C1136.3,2209.7,1144.7,2218.1,1154.1,2218.1z"/>
	</g>
	<g id="Layer_15" display="inline">
		<path fill="#010101" d="M1109.1,2445.9l172.5-172.5l172.5,172.5c15,15,38.4,15,53.4,0c14.1-14.1,14.1-39.4,0-53.4l-198.8-198.8
			l-5.6-4.7h-0.9c-6.6-3.7-13.1-6.6-20.6-6.6c-6.6,0-13.1,1.9-19.7,5.6h-1.9l-204.4,204.4c-7.5,7.5-11.3,15.9-11.3,27.2
			c0,10.3,3.8,19.7,11.3,27.2C1070.6,2460,1095,2460,1109.1,2445.9z"/>
	</g>
	<g id="Layer_16" display="inline">
		<path fill="#010101" d="M1208.4,2276.2v180l146.3-136.9l-146.3-136.9V2276.2L1208.4,2276.2z"/>
	</g>
	<g id="Layer_17" display="inline">
		<path fill="#010101" d="M1354.7,2181.6l-146.3,136.9l146.3,136.9V2181.6L1354.7,2181.6z"/>
	</g>
	<path display="inline" fill="#107DB0" d="M354.4,324.4c-7.5,0-13.1,1.9-17.8,2.8l-0.9,11.3c1.9-0.9,9.4-2.8,15-3.8
		c5.6,0,9.4,0.9,7.5,6.6c-17.8,0-29.1,3.8-31.9,15c-3.8,18.8,17.8,18.8,26.2,10.3l-0.9,4.7h15.9l7.5-30.9
		C376.9,327.2,365.6,324.4,354.4,324.4L354.4,324.4z M355.3,356.2c-0.9,3.8-3.8,6.6-7.5,6.6c-3.8,0-6.6-2.8-4.7-6.6
		c1.9-2.8,6.6-3.8,9.4-3.8h3.8C356.3,353.4,355.3,354.4,355.3,356.2L355.3,356.2z"/>
	<polygon display="inline" fill="#107DB0" points="388.1,313.1 375,371.2 390.9,371.2 404.1,313.1 	"/>
	<path display="inline" fill="#107DB0" d="M315,313.1h-29.1l-13.1,59.1h17.8l4.7-19.7h12.2c12.2,0,21.6-7.5,24.4-18.8
		C333.8,318.7,323.4,313.1,315,313.1z M315,332.8c-0.9,4.7-5.6,7.5-9.4,7.5h-7.5l3.8-15.9h7.5C313.1,324.4,315,328.1,315,332.8z"/>
	<path display="inline" fill="#1B557D" d="M203.4,324.4c-7.5,0-13.1,1.9-17.8,2.8l-0.9,11.3c1.9-0.9,9.4-2.8,15-3.8
		c5.6,0,9.4,0.9,8.4,6.6c-17.8,0-29.1,3.8-30.9,15c-3.8,18.8,17.8,18.8,25.3,10.3l-0.9,4.7h15l6.6-30.9
		C225.9,327.2,213.8,324.4,203.4,324.4L203.4,324.4z M204.4,356.2c-0.9,3.8-4.7,6.6-8.4,6.6s-6.6-2.8-3.8-6.6
		c1.9-2.8,6.6-3.8,9.4-3.8h3.8C204.4,353.4,204.4,354.4,204.4,356.2z"/>
	<polygon display="inline" fill="#1B557D" points="229.7,325.3 245.6,325.3 247.5,353.4 262.5,325.3 279.4,325.3 241.9,390.9 
		225,390.9 236.3,371.2 	"/>
	<path display="inline" fill="#1B557D" d="M165,313.1h-29.1l-13.1,59.1h16.9l3.8-19.7h12.2c12.2,0,21.6-7.5,23.4-18.8
		C182.8,318.7,173.4,313.1,165,313.1L165,313.1z M164.1,332.8c-0.9,4.7-5.6,7.5-9.4,7.5h-7.5l3.8-15.9h8.4
		C162.2,324.4,165.9,328.1,164.1,332.8z"/>
	<path display="inline" fill="#1B557D" d="M406.9,320.6V314h-2.8v-1.9h6.6v0.9h-2.8L406.9,320.6L406.9,320.6z"/>
	<path display="inline" fill="#1B557D" d="M411.6,320.6v-8.4h1.9l1.9,5.6c0,0.9,0.9,0.9,0.9,0.9c0-0.9,0-0.9,0.9-0.9l1.9-5.6h0.9
		v7.5h-0.9v-6.6l-1.9,6.6h-0.9l-3.8-6.6v6.6h-0.9V320.6z"/>
</g>
<g id="Layer_2_1_">
	<path fill="#009DE2" d="M27.2,94.7h20.6c10.3,0,15,5.6,15,13.1c-0.9,13.1-9.4,20.6-19.7,20.6h-6.6c-1.9,0-1.9,0.9-2.8,3.8
		l-1.9,15.9c0,0.9-0.9,1.9-1.9,1.9h-13c-0.9,0-1.9-0.9-0.9-2.8l7.5-50.6C23.4,95.6,24.4,94.7,27.2,94.7z"/>
	<path fill="#113984" d="M115.3,93.7c6.6,0,13.1,3.8,12.2,13.1c0,11.3-6.6,17.8-15.9,17.8h-8.4c-0.9,0-1.9,0.9-1.9,2.8l-1.9,10.3
		c0,1.9-0.9,1.9-1.9,1.9H90c-0.9,0-1.9-0.9-0.9-1.9l6.6-41.3c0.9-1.9,0.9-2.8,1.9-2.8L115.3,93.7L115.3,93.7z M103.1,115.3h6.6
		c3.7,0,6.6-2.8,6.6-7.5c0-2.8-1.9-4.7-4.7-4.7H106C105.9,103.1,103.1,115.3,103.1,115.3z M149.1,136.9c0.9-0.9,1.9-0.9,0.9,0v1.9
		c0,0.9,0,1.9,0.9,1.9h6.6c0.9,0,1.9-0.9,1.9-1.9l3.8-26.3c0-0.9,0-1.9-0.9-1.9h-7.5c-0.9,0-0.9,0.9-0.9,0.9v1.9
		c0,0.9-0.9,0.9-0.9,0c-0.9-2.8-4.7-4.7-9.4-4.7c-10.3,0-17.8,7.5-17.8,17.8c0,7.5,5.6,14.1,13.1,14.1
		C144.4,140.6,146.3,138.7,149.1,136.9L149.1,136.9z M143.4,132.2c-4.7,0-7.5-3.8-6.6-7.5c0.9-4.7,4.7-7.5,9.4-7.5s7.5,3.8,6.6,7.5
		C151.9,128.4,148.1,132.2,143.4,132.2z M177.2,109.7h-6.6c-1.9,0-1.9,0.9-1.9,1.9l8.4,25.3l-8.4,11.3c-0.9,0.9,0,1.9,0.9,1.9h7.5
		c0.9,0,1.9-0.9,1.9-0.9l26.3-37.5c0.9-1.9,0.9-2.8-0.9-2.8h-7.5c-0.9,0-1.9,0.9-1.9,1.9l-10.3,15.9l-4.7-16.1
		C180,109.7,178.1,109.7,177.2,109.7z"/>
	<path fill="#009DE2" d="M233.4,93.7c6.6,0,13.1,3.8,12.2,13.1c-0.9,11.3-6.6,17.8-15.9,17.8h-8.4c-0.9,0-1.9,0.9-1.9,2.8l-1.9,10.3
		c0,1.9-0.9,1.9-1.9,1.9h-9.4c-0.9,0-1.9-0.9-0.9-1.9l6.6-41.3c0.9-1.9,0.9-2.8,1.9-2.8L233.4,93.7L233.4,93.7L233.4,93.7z
		 M221.3,115.3h6.6c3.7,0,6.6-2.8,6.6-7.5c0-2.8-1.9-4.7-4.7-4.7h-5.6L221.3,115.3L221.3,115.3z M266.3,136.9c0.9-0.9,1.9-0.9,0.9,0
		v1.9c0,0.9,0,1.9,0.9,1.9h6.6c0.9,0,1.9-0.9,1.9-1.9l3.8-26.3c0-0.9,0-1.9-0.9-1.9H272c-0.9,0-0.9,0.9-0.9,0.9v1.9
		c0,0.9-0.9,0.9-0.9,0c-0.9-2.8-4.7-4.7-9.4-4.7c-10.3,0-17.8,7.5-17.8,17.8c0.9,7.5,6.6,14.1,14.1,14.1
		C261.6,140.6,263.4,138.7,266.3,136.9z M260.6,132.2c-4.7,0-7.5-3.8-6.6-7.5c0.9-4.7,4.7-7.5,9.4-7.5s8.4,2.8,7.5,7.5
		C270,128.4,265.3,132.2,260.6,132.2z M291.6,139.7h-7.5c-0.9,0-0.9-0.9-0.9-0.9l6.6-43.1c0-0.9,0.9-0.9,0.9-0.9h8.4
		c0.9,0,0.9,0.9,0.9,0.9l-6.6,43.1C293.4,139.7,293.4,139.7,291.6,139.7z"/>
	<path fill="#113984" d="M14.1,77.8h20.6c5.6,0,12.2,0,16.9,3.8c2.8,2.8,4.7,6.6,4.7,12.2c-1.9,15.9-11.3,24.3-23.5,24.3H22.5
		c-1.9,0-2.8,0.9-3.8,3.8l-1.9,17.8c0,0.9-0.9,1.9-1.9,1.9H2.8c-0.9,0-1.9-0.9-1.9-3.8l9.4-57.2C10.3,78.7,12.2,77.8,14.1,77.8z"/>
	<path fill="#172C70" d="M19.7,120l3.8-22.5c0.9-1.9,0.9-2.8,3.8-2.8H47c3.8,0,6.6,0.9,8.4,1.9c-1.9,14.1-11.3,21.6-22.5,21.6H22.5
		C21.6,118.1,20.6,118.1,19.7,120z"/>
</g>
</svg>
