<?xml version="1.0" encoding="UTF-8" standalone="no"?>
<!-- Generator: Adobe Illustrator 18.1.0, SVG Export Plug-In . SVG Version: 6.00 Build 0)  -->
<svg id="Layer_1" xmlns="http://www.w3.org/2000/svg" xml:space="preserve" version="1.1" y="0px" x="0px" xmlns:xlink="http://www.w3.org/1999/xlink" viewBox="0 0 35 15" enable-background="new 0 0 35 15">
<g id="Layer_7_2_">
	<path d="m15.6 5.6c0-0.1-0.2-0.2-0.3-0.2h-5.5l-1.7-5.2c0-0.1-0.2-0.2-0.3-0.2-0.2 0-0.3 0.1-0.3 0.2l-1.7 5.2h-5.5c-0.2 0-0.3 0.1-0.3 0.2 0 0.2 0 0.4 0.1 0.5l4.5 3.2-1.7 5.2c0 0.1 0 0.3 0.1 0.4s0.3 0.1 0.4 0l4.5-3.2 4.5 3.2c0.1 0 0.1 0.1 0.2 0.1s0.1 0 0.2-0.1-0.1-0.4-0.1-0.4l-1.7-5.2 4.5-3.2c0.1-0.1 0.1-0.2 0.1-0.5z" fill="#AAAAAB"/>
</g>
</svg>
