<?xml version="1.0" encoding="utf-8"?>
<!-- Generator: Adobe Illustrator 18.1.0, SVG Export Plug-In . SVG Version: 6.00 Build 0)  -->
<svg version="1.1" id="Layer_1" xmlns="http://www.w3.org/2000/svg" xmlns:xlink="http://www.w3.org/1999/xlink" x="0px" y="0px"
	 viewBox="0 0 300 150" enable-background="new 0 0 300 150" xml:space="preserve">
<g id="Layer_7_2_">
	<path fill="#222222" d="M132.2,58.7c0-0.9-1.7-1.7-2.6-1.7H82.5L67.9,12.4c0-0.9-1.7-1.7-2.6-1.7c-1.7,0-2.6,0.9-2.6,1.7L48.2,57
		H1.1c-1.7,0-2.6,0.9-2.6,1.7c0,1.7,0,3.4,0.9,4.3l38.6,27.4L23.4,135c0,0.9,0,2.6,0.9,3.4c0.9,0.9,2.6,0.9,3.4,0L66.2,111
		l38.6,27.4c0.9,0,0.9,0.9,1.7,0.9s0.9,0,1.7-0.9c0.9-0.9-0.9-3.4-0.9-3.4L92.8,90.4L131.4,63C132.2,62.1,132.2,61.3,132.2,58.7z"/>
</g>
</svg>
