<?xml version="1.0" encoding="UTF-8" standalone="no"?>
<!-- Generator: Adobe Illustrator 18.1.0, SVG Export Plug-In . SVG Version: 6.00 Build 0)  -->
<svg id="Layer_1" xmlns="http://www.w3.org/2000/svg" xml:space="preserve" viewBox="30.7 283.4 286.4 276.6" version="1.1" y="0px" x="0px" xmlns:xlink="http://www.w3.org/1999/xlink" enable-background="new 30.7 283.4 286.4 276.6">
<g id="Layer_7_2_">
	<path d="m317.1 387.3c0-2-3.9-3.9-5.9-3.9h-100l-31.4-96.1c0-2-3.9-3.9-5.9-3.9-3.9 0-5.9 2-5.9 3.9l-31.4 96.1h-100c-3.9 0-5.9 2-5.9 3.9 0 2 0 5.9 2 7.8l82.3 58.9-31.4 96.1c0 2 0 5.9 2 7.8 2 2 5.9 2 7.8 0l82.4-58.8 82.4 58.8c2 0 2 2 3.9 2 2 0 2 0 3.9-2-2-2-2-3.9-2-7.8l-31.3-96.1 82.4-58.8c2-2 2-4 2-7.9z" fill="#AAAAAB"/>
</g>
</svg>
