<?xml version="1.0" encoding="utf-8"?>
<!-- Generator: Adobe Illustrator 18.1.0, SVG Export Plug-In . SVG Version: 6.00 Build 0)  -->
<svg version="1.1" id="Layer_1" xmlns="http://www.w3.org/2000/svg" xmlns:xlink="http://www.w3.org/1999/xlink" x="0px" y="0px"
	 viewBox="0 30.6 300 89.4" enable-background="new 0 30.6 300 89.4" xml:space="preserve">
<polygon fill="#005098" points="105.6,120.7 120.7,31.7 144.9,31.7 129.4,120.7 "/>
<path fill="#005098" d="M217.2,34.1c-4.7-1.7-12.2-3.5-21.9-3.5c-23.7,0-41,12.2-41,29.4c0,12.7,12.2,19.7,21.4,24.3
	c9.2,4.7,12.7,7,12.7,11c0,5.7-7.5,8.7-14.4,8.7c-9.8,0-15-1.2-22.6-4.7l-2.9-2.3l-3.5,19.7c5.7,2.3,16.2,4.7,27.1,4.7
	c25.4,0,42.2-12.2,42.2-30.6c0-9.8-6.4-17.9-20.2-24.3c-8.7-4-13.9-7-13.9-11c0-3.5,4.7-7.5,13.9-7.5c8.2,0,13.9,1.7,17.9,3.5
	l2.3,1.2L217.2,34.1z"/>
<path fill="#005098" d="M279.7,31.7h-18.4c-5.7,0-10.4,1.7-12.7,7.5l-35.8,81.6h25.4c0,0,4-11,5.2-13.2h31.1
	c0.5,2.9,2.9,13.2,2.9,13.2H300L279.7,31.7z M249.6,88.9c1.7-5.2,9.8-24.9,9.8-24.9s1.7-5.2,3.5-8.7l1.7,7.5c0,0,4.7,21.4,5.7,25.4
	h-20.9v0.7C249.4,88.9,249.6,88.9,249.6,88.9z"/>
<path fill="#005098" d="M84.9,31.7L61.2,92.4L59,80.2c-4.7-14.4-18-30.1-33.6-37.6L46.8,120h25.4l38.1-88.4L84.9,31.7L84.9,31.7z"/>
<path fill="#F6A500" d="M39.2,31.7H0.4l-0.5,1.7c30.7,7.5,50.3,24.9,59,46.3l-8.7-40.5C49.1,33.4,44.4,31.7,39.2,31.7z"/>
</svg>
